<svg width="152" height="38" viewBox="0 0 152 38" fill="none" xmlns="http://www.w3.org/2000/svg">
<rect x="0.164062" y="0.702637" width="151.784" height="37.1622" rx="9.08108" fill="#FBF5FF"/>
<path d="M15.1523 21.2496C15.1523 21.0767 15.1257 20.9215 15.0725 20.784C15.0238 20.6421 14.9306 20.5135 14.7932 20.3982C14.6557 20.2785 14.4628 20.161 14.2145 20.0457C13.9662 19.9304 13.6447 19.8107 13.2501 19.6866C12.8111 19.5447 12.3943 19.385 11.9997 19.2077C11.6095 19.0303 11.2636 18.8241 10.9621 18.5891C10.665 18.3497 10.43 18.0725 10.2571 17.7577C10.0886 17.4429 10.0043 17.0771 10.0043 16.6603C10.0043 16.2568 10.093 15.891 10.2704 15.5628C10.4477 15.2303 10.6961 14.9465 11.0153 14.7115C11.3346 14.472 11.7115 14.288 12.146 14.1594C12.585 14.0308 13.0661 13.9665 13.5893 13.9665C14.3032 13.9665 14.9262 14.0951 15.4583 14.3523C15.9904 14.6095 16.4028 14.962 16.6954 15.4099C16.9925 15.8577 17.141 16.3698 17.141 16.9463H15.159C15.159 16.6625 15.0991 16.4142 14.9794 16.2013C14.8641 15.9841 14.6868 15.8134 14.4473 15.6892C14.2123 15.565 13.9152 15.503 13.5561 15.503C13.2102 15.503 12.922 15.5562 12.6914 15.6626C12.4608 15.7646 12.2879 15.9043 12.1726 16.0816C12.0573 16.2546 11.9997 16.4497 11.9997 16.6669C11.9997 16.831 12.0396 16.9795 12.1194 17.1126C12.2037 17.2456 12.3278 17.3697 12.4919 17.485C12.6559 17.6003 12.8577 17.7089 13.0971 17.8109C13.3366 17.9129 13.6137 18.0127 13.9285 18.1102C14.4562 18.2699 14.9196 18.4494 15.3186 18.649C15.7221 18.8485 16.0591 19.0724 16.3296 19.3207C16.6001 19.5691 16.8041 19.8506 16.9415 20.1654C17.079 20.4803 17.1477 20.8372 17.1477 21.2363C17.1477 21.6575 17.0657 22.0344 16.9016 22.367C16.7375 22.6995 16.5003 22.9811 16.1899 23.2117C15.8795 23.4423 15.5093 23.6174 15.0792 23.7371C14.6491 23.8569 14.168 23.9167 13.6359 23.9167C13.157 23.9167 12.6848 23.8546 12.2192 23.7305C11.7536 23.6019 11.3301 23.409 10.9488 23.1518C10.5719 22.8946 10.2704 22.5665 10.0442 22.1675C9.8181 21.7684 9.70503 21.2961 9.70503 20.7508H11.707C11.707 21.0523 11.7536 21.3072 11.8467 21.5156C11.9398 21.724 12.0706 21.8925 12.2391 22.0211C12.4121 22.1497 12.616 22.2428 12.851 22.3005C13.0905 22.3581 13.3521 22.3869 13.6359 22.3869C13.9817 22.3869 14.2655 22.3382 14.4872 22.2406C14.7134 22.1431 14.8796 22.0078 14.9861 21.8349C15.0969 21.662 15.1523 21.4669 15.1523 21.2496ZM21.6971 23.9167C21.1384 23.9167 20.6374 23.828 20.1939 23.6507C19.7505 23.4689 19.3736 23.2183 19.0632 22.8991C18.7573 22.5798 18.5223 22.2096 18.3582 21.7883C18.1942 21.3627 18.1121 20.9104 18.1121 20.4315V20.1654C18.1121 19.6201 18.1897 19.1212 18.3449 18.6689C18.5001 18.2167 18.7218 17.8242 19.01 17.4917C19.3027 17.1591 19.6574 16.9042 20.0742 16.7268C20.491 16.545 20.961 16.4541 21.4843 16.4541C21.9942 16.4541 22.4465 16.5383 22.8411 16.7068C23.2357 16.8753 23.5661 17.1148 23.8321 17.4252C24.1026 17.7355 24.3066 18.108 24.444 18.5426C24.5815 18.9727 24.6502 19.4516 24.6502 19.9792V20.7774H18.9302V19.5003H22.7679V19.354C22.7679 19.088 22.7192 18.8507 22.6216 18.6423C22.5285 18.4295 22.3866 18.261 22.1959 18.1368C22.0053 18.0127 21.7614 17.9506 21.4643 17.9506C21.2116 17.9506 20.9943 18.006 20.8125 18.1169C20.6307 18.2277 20.4822 18.3829 20.3669 18.5825C20.256 18.782 20.1718 19.017 20.1141 19.2875C20.0609 19.5535 20.0343 19.8462 20.0343 20.1654V20.4315C20.0343 20.7197 20.0742 20.9858 20.154 21.2296C20.2383 21.4735 20.3558 21.6841 20.5065 21.8615C20.6617 22.0389 20.848 22.1763 21.0652 22.2739C21.287 22.3714 21.5375 22.4202 21.8168 22.4202C22.1627 22.4202 22.4842 22.3537 22.7813 22.2207C23.0828 22.0832 23.3422 21.877 23.5594 21.6021L24.4906 22.6131C24.3398 22.8304 24.1337 23.0388 23.872 23.2383C23.6149 23.4378 23.3045 23.6019 22.9409 23.7305C22.5773 23.8546 22.1627 23.9167 21.6971 23.9167ZM29.0533 23.9167C28.4946 23.9167 27.9936 23.828 27.5501 23.6507C27.1067 23.4689 26.7298 23.2183 26.4194 22.8991C26.1135 22.5798 25.8785 22.2096 25.7144 21.7883C25.5504 21.3627 25.4683 20.9104 25.4683 20.4315V20.1654C25.4683 19.6201 25.5459 19.1212 25.7011 18.6689C25.8563 18.2167 26.078 17.8242 26.3662 17.4917C26.6589 17.1591 27.0136 16.9042 27.4304 16.7268C27.8472 16.545 28.3173 16.4541 28.8405 16.4541C29.3504 16.4541 29.8027 16.5383 30.1973 16.7068C30.592 16.8753 30.9223 17.1148 31.1883 17.4252C31.4588 17.7355 31.6628 18.108 31.8003 18.5426C31.9377 18.9727 32.0064 19.4516 32.0064 19.9792V20.7774H26.2864V19.5003H30.1242V19.354C30.1242 19.088 30.0754 18.8507 29.9778 18.6423C29.8847 18.4295 29.7428 18.261 29.5522 18.1368C29.3615 18.0127 29.1176 17.9506 28.8205 17.9506C28.5678 17.9506 28.3505 18.006 28.1687 18.1169C27.9869 18.2277 27.8384 18.3829 27.7231 18.5825C27.6122 18.782 27.528 19.017 27.4703 19.2875C27.4171 19.5535 27.3905 19.8462 27.3905 20.1654V20.4315C27.3905 20.7197 27.4304 20.9858 27.5102 21.2296C27.5945 21.4735 27.712 21.6841 27.8628 21.8615C28.0179 22.0389 28.2042 22.1763 28.4215 22.2739C28.6432 22.3714 28.8937 22.4202 29.173 22.4202C29.5189 22.4202 29.8404 22.3537 30.1375 22.2207C30.439 22.0832 30.6984 21.877 30.9156 21.6021L31.8468 22.6131C31.6961 22.8304 31.4899 23.0388 31.2283 23.2383C30.9711 23.4378 30.6607 23.6019 30.2971 23.7305C29.9335 23.8546 29.5189 23.9167 29.0533 23.9167ZM38.4049 18.077V23.7837H36.4827V16.5871H38.2852L38.4049 18.077ZM38.1388 19.9327H37.6067C37.6067 19.4316 37.6666 18.9705 37.7863 18.5492C37.9105 18.1235 38.0901 17.7555 38.3251 17.4451C38.5645 17.1303 38.8594 16.8864 39.2097 16.7135C39.56 16.5406 39.9657 16.4541 40.4268 16.4541C40.7461 16.4541 41.0387 16.5029 41.3048 16.6004C41.5708 16.6935 41.7992 16.8421 41.9899 17.046C42.185 17.2456 42.3357 17.5072 42.4421 17.8309C42.5486 18.1501 42.6018 18.5337 42.6018 18.9815V23.7837H40.6862V19.1944C40.6862 18.8663 40.6419 18.6135 40.5532 18.4361C40.4645 18.2588 40.3382 18.1346 40.1741 18.0637C40.0145 17.9927 39.8216 17.9573 39.5954 17.9573C39.3471 17.9573 39.1299 18.0082 38.9436 18.1102C38.7618 18.2122 38.6111 18.3541 38.4913 18.5359C38.3716 18.7133 38.2829 18.9217 38.2253 19.1611C38.1677 19.4006 38.1388 19.6577 38.1388 19.9327ZM42.4222 19.7132L41.7371 19.7996C41.7371 19.3296 41.7948 18.8929 41.9101 18.4894C42.0298 18.0858 42.2049 17.7311 42.4355 17.4252C42.6705 17.1192 42.9609 16.882 43.3068 16.7135C43.6527 16.5406 44.0517 16.4541 44.504 16.4541C44.8499 16.4541 45.1647 16.5051 45.4485 16.6071C45.7323 16.7046 45.9739 16.862 46.1735 17.0793C46.3774 17.2921 46.5326 17.5715 46.639 17.9173C46.7499 18.2632 46.8053 18.6867 46.8053 19.1877V23.7837H44.8831V19.1877C44.8831 18.8552 44.8388 18.6024 44.7501 18.4295C44.6659 18.2521 44.5417 18.1302 44.3776 18.0637C44.218 17.9927 44.0273 17.9573 43.8056 17.9573C43.5751 17.9573 43.3733 18.0038 43.2004 18.0969C43.0274 18.1856 42.8833 18.3098 42.7681 18.4694C42.6528 18.629 42.5663 18.8153 42.5087 19.0281C42.451 19.2365 42.4222 19.4649 42.4222 19.7132ZM47.9826 20.2586V20.1189C47.9826 19.5912 48.058 19.1057 48.2087 18.6623C48.3595 18.2144 48.579 17.8264 48.8672 17.4983C49.1554 17.1702 49.5101 16.9152 49.9314 16.7334C50.3526 16.5472 50.8359 16.4541 51.3813 16.4541C51.9267 16.4541 52.4123 16.5472 52.8379 16.7334C53.2636 16.9152 53.6206 17.1702 53.9088 17.4983C54.2014 17.8264 54.4231 18.2144 54.5739 18.6623C54.7247 19.1057 54.8 19.5912 54.8 20.1189V20.2586C54.8 20.7818 54.7247 21.2673 54.5739 21.7152C54.4231 22.1586 54.2014 22.5466 53.9088 22.8791C53.6206 23.2073 53.2658 23.4622 52.8446 23.644C52.4234 23.8258 51.94 23.9167 51.3946 23.9167C50.8492 23.9167 50.3637 23.8258 49.938 23.644C49.5168 23.4622 49.1598 23.2073 48.8672 22.8791C48.579 22.5466 48.3595 22.1586 48.2087 21.7152C48.058 21.2673 47.9826 20.7818 47.9826 20.2586ZM49.8981 20.1189V20.2586C49.8981 20.5601 49.9247 20.8417 49.9779 21.1033C50.0311 21.3649 50.1154 21.5955 50.2307 21.795C50.3504 21.9901 50.5056 22.1431 50.6963 22.2539C50.8869 22.3648 51.1197 22.4202 51.3946 22.4202C51.6607 22.4202 51.889 22.3648 52.0797 22.2539C52.2704 22.1431 52.4234 21.9901 52.5386 21.795C52.6539 21.5955 52.7382 21.3649 52.7914 21.1033C52.849 20.8417 52.8779 20.5601 52.8779 20.2586V20.1189C52.8779 19.8262 52.849 19.5513 52.7914 19.2941C52.7382 19.0325 52.6517 18.802 52.532 18.6024C52.4167 18.3985 52.2637 18.2388 52.0731 18.1235C51.8824 18.0082 51.6518 17.9506 51.3813 17.9506C51.1109 17.9506 50.8803 18.0082 50.6896 18.1235C50.5034 18.2388 50.3504 18.3985 50.2307 18.6024C50.1154 18.802 50.0311 19.0325 49.9779 19.2941C49.9247 19.5513 49.8981 19.8262 49.8981 20.1189ZM57.8928 18.1568V23.7837H55.9773V16.5871H57.7798L57.8928 18.1568ZM60.0611 16.5406L60.0279 18.3164C59.9348 18.3031 59.8217 18.292 59.6887 18.2832C59.5601 18.2699 59.4426 18.2632 59.3361 18.2632C59.0657 18.2632 58.8307 18.2987 58.6311 18.3696C58.436 18.4361 58.272 18.5359 58.1389 18.6689C58.0103 18.802 57.9128 18.9638 57.8463 19.1545C57.7842 19.3451 57.7487 19.5624 57.7399 19.8063L57.3541 19.6866C57.3541 19.221 57.4007 18.7931 57.4938 18.4029C57.5869 18.0082 57.7221 17.6646 57.8995 17.372C58.0813 17.0793 58.303 16.8532 58.5646 16.6935C58.8262 16.5339 59.1255 16.4541 59.4625 16.4541C59.5689 16.4541 59.6776 16.463 59.7884 16.4807C59.8993 16.494 59.9902 16.5139 60.0611 16.5406ZM64.145 23.9167C63.5863 23.9167 63.0852 23.828 62.6418 23.6507C62.1984 23.4689 61.8215 23.2183 61.5111 22.8991C61.2051 22.5798 60.9701 22.2096 60.8061 21.7883C60.642 21.3627 60.56 20.9104 60.56 20.4315V20.1654C60.56 19.6201 60.6376 19.1212 60.7928 18.6689C60.948 18.2167 61.1697 17.8242 61.4579 17.4917C61.7505 17.1591 62.1053 16.9042 62.5221 16.7268C62.9389 16.545 63.4089 16.4541 63.9321 16.4541C64.442 16.4541 64.8943 16.5383 65.289 16.7068C65.6836 16.8753 66.0139 17.1148 66.28 17.4252C66.5505 17.7355 66.7544 18.108 66.8919 18.5426C67.0294 18.9727 67.0981 19.4516 67.0981 19.9792V20.7774H61.3781V19.5003H65.2158V19.354C65.2158 19.088 65.167 18.8507 65.0695 18.6423C64.9764 18.4295 64.8345 18.261 64.6438 18.1368C64.4531 18.0127 64.2093 17.9506 63.9122 17.9506C63.6594 17.9506 63.4421 18.006 63.2603 18.1169C63.0785 18.2277 62.93 18.3829 62.8147 18.5825C62.7039 18.782 62.6196 19.017 62.562 19.2875C62.5088 19.5535 62.4822 19.8462 62.4822 20.1654V20.4315C62.4822 20.7197 62.5221 20.9858 62.6019 21.2296C62.6861 21.4735 62.8036 21.6841 62.9544 21.8615C63.1096 22.0389 63.2958 22.1763 63.5131 22.2739C63.7348 22.3714 63.9853 22.4202 64.2647 22.4202C64.6105 22.4202 64.932 22.3537 65.2291 22.2207C65.5306 22.0832 65.79 21.877 66.0073 21.6021L66.9385 22.6131C66.7877 22.8304 66.5815 23.0388 66.3199 23.2383C66.0627 23.4378 65.7523 23.6019 65.3887 23.7305C65.0251 23.8546 64.6105 23.9167 64.145 23.9167ZM71.581 13.5675H73.4965V22.1342L73.3036 23.7837H71.581V13.5675ZM78.0526 20.1122V20.2519C78.0526 20.7884 77.9949 21.2806 77.8796 21.7285C77.7688 22.1763 77.5959 22.5643 77.3609 22.8924C77.1258 23.2161 76.8332 23.4689 76.4829 23.6507C76.137 23.828 75.7291 23.9167 75.2591 23.9167C74.8201 23.9167 74.4388 23.828 74.1151 23.6507C73.7958 23.4733 73.5276 23.2228 73.3103 22.8991C73.093 22.5754 72.9179 22.1963 72.7848 21.7617C72.6518 21.3272 72.552 20.8527 72.4855 20.3384V20.0324C72.552 19.5181 72.6518 19.0436 72.7848 18.6091C72.9179 18.1745 73.093 17.7954 73.3103 17.4717C73.5276 17.148 73.7958 16.8975 74.1151 16.7201C74.4343 16.5428 74.8112 16.4541 75.2458 16.4541C75.7202 16.4541 76.1326 16.545 76.4829 16.7268C76.8376 16.9042 77.1303 17.1569 77.3609 17.485C77.5959 17.8087 77.7688 18.1945 77.8796 18.6423C77.9949 19.0857 78.0526 19.5757 78.0526 20.1122ZM76.137 20.2519V20.1122C76.137 19.8196 76.1149 19.5447 76.0705 19.2875C76.0306 19.0259 75.9597 18.7975 75.8577 18.6024C75.7557 18.4029 75.616 18.2455 75.4387 18.1302C75.2657 18.0149 75.0418 17.9573 74.7669 17.9573C74.5053 17.9573 74.2836 18.0016 74.1018 18.0903C73.92 18.179 73.7692 18.3031 73.6495 18.4627C73.5342 18.6224 73.4477 18.813 73.3901 19.0347C73.3325 19.252 73.297 19.4915 73.2837 19.7531V20.6244C73.297 20.9747 73.3546 21.2851 73.4566 21.5555C73.563 21.8216 73.7227 22.0322 73.9355 22.1874C74.1528 22.3382 74.4343 22.4135 74.7802 22.4135C75.0507 22.4135 75.2746 22.3603 75.452 22.2539C75.6293 22.1475 75.7668 21.9967 75.8643 21.8016C75.9663 21.6065 76.0373 21.3782 76.0772 21.1166C76.1171 20.8505 76.137 20.5623 76.137 20.2519ZM82.5554 23.9167C81.9967 23.9167 81.4957 23.828 81.0523 23.6507C80.6088 23.4689 80.2319 23.2183 79.9216 22.8991C79.6156 22.5798 79.3806 22.2096 79.2165 21.7883C79.0525 21.3627 78.9704 20.9104 78.9704 20.4315V20.1654C78.9704 19.6201 79.048 19.1212 79.2032 18.6689C79.3584 18.2167 79.5801 17.8242 79.8684 17.4917C80.161 17.1591 80.5157 16.9042 80.9325 16.7268C81.3493 16.545 81.8194 16.4541 82.3426 16.4541C82.8525 16.4541 83.3048 16.5383 83.6994 16.7068C84.0941 16.8753 84.4244 17.1148 84.6905 17.4252C84.9609 17.7355 85.1649 18.108 85.3024 18.5426C85.4398 18.9727 85.5086 19.4516 85.5086 19.9792V20.7774H79.7885V19.5003H83.6263V19.354C83.6263 19.088 83.5775 18.8507 83.4799 18.6423C83.3868 18.4295 83.2449 18.261 83.0543 18.1368C82.8636 18.0127 82.6197 17.9506 82.3226 17.9506C82.0699 17.9506 81.8526 18.006 81.6708 18.1169C81.489 18.2277 81.3405 18.3829 81.2252 18.5825C81.1143 18.782 81.0301 19.017 80.9724 19.2875C80.9192 19.5535 80.8926 19.8462 80.8926 20.1654V20.4315C80.8926 20.7197 80.9325 20.9858 81.0124 21.2296C81.0966 21.4735 81.2141 21.6841 81.3649 21.8615C81.5201 22.0389 81.7063 22.1763 81.9236 22.2739C82.1453 22.3714 82.3958 22.4202 82.6751 22.4202C83.021 22.4202 83.3425 22.3537 83.6396 22.2207C83.9411 22.0832 84.2005 21.877 84.4178 21.6021L85.3489 22.6131C85.1982 22.8304 84.992 23.0388 84.7304 23.2383C84.4732 23.4378 84.1628 23.6019 83.7992 23.7305C83.4356 23.8546 83.021 23.9167 82.5554 23.9167ZM88.475 18.1235V23.7837H86.5594V16.5871H88.3553L88.475 18.1235ZM88.1956 19.9327H87.6768C87.6768 19.4006 87.7456 18.9217 87.883 18.496C88.0205 18.0659 88.2134 17.7001 88.4617 17.3986C88.71 17.0926 89.0049 16.8598 89.3463 16.7002C89.6921 16.5361 90.0779 16.4541 90.5036 16.4541C90.8406 16.4541 91.1488 16.5029 91.4281 16.6004C91.7075 16.698 91.9469 16.8532 92.1464 17.066C92.3504 17.2788 92.5056 17.5604 92.612 17.9107C92.7229 18.261 92.7783 18.6889 92.7783 19.1944V23.7837H90.8495V19.1877C90.8495 18.8685 90.8051 18.6202 90.7164 18.4428C90.6277 18.2654 90.4969 18.1413 90.324 18.0703C90.1555 17.9949 89.9471 17.9573 89.6988 17.9573C89.4416 17.9573 89.2177 18.0082 89.027 18.1102C88.8408 18.2122 88.6856 18.3541 88.5614 18.5359C88.4417 18.7133 88.3508 18.9217 88.2887 19.1611C88.2267 19.4006 88.1956 19.6577 88.1956 19.9327ZM97.5472 23.9167C96.9885 23.9167 96.4874 23.828 96.044 23.6507C95.6006 23.4689 95.2237 23.2183 94.9133 22.8991C94.6074 22.5798 94.3724 22.2096 94.2083 21.7883C94.0442 21.3627 93.9622 20.9104 93.9622 20.4315V20.1654C93.9622 19.6201 94.0398 19.1212 94.195 18.6689C94.3502 18.2167 94.5719 17.8242 94.8601 17.4917C95.1528 17.1591 95.5075 16.9042 95.9243 16.7268C96.3411 16.545 96.8111 16.4541 97.3344 16.4541C97.8443 16.4541 98.2966 16.5383 98.6912 16.7068C99.0858 16.8753 99.4162 17.1148 99.6822 17.4252C99.9527 17.7355 100.157 18.108 100.294 18.5426C100.432 18.9727 100.5 19.4516 100.5 19.9792V20.7774H94.7803V19.5003H98.618V19.354C98.618 19.088 98.5693 18.8507 98.4717 18.6423C98.3786 18.4295 98.2367 18.261 98.046 18.1368C97.8554 18.0127 97.6115 17.9506 97.3144 17.9506C97.0617 17.9506 96.8444 18.006 96.6626 18.1169C96.4808 18.2277 96.3322 18.3829 96.217 18.5825C96.1061 18.782 96.0219 19.017 95.9642 19.2875C95.911 19.5535 95.8844 19.8462 95.8844 20.1654V20.4315C95.8844 20.7197 95.9243 20.9858 96.0041 21.2296C96.0884 21.4735 96.2059 21.6841 96.3566 21.8615C96.5118 22.0389 96.6981 22.1763 96.9153 22.2739C97.137 22.3714 97.3876 22.4202 97.6669 22.4202C98.0128 22.4202 98.3343 22.3537 98.6313 22.2207C98.9329 22.0832 99.1923 21.877 99.4095 21.6021L100.341 22.6131C100.19 22.8304 99.9837 23.0388 99.7221 23.2383C99.465 23.4378 99.1546 23.6019 98.791 23.7305C98.4274 23.8546 98.0128 23.9167 97.5472 23.9167ZM103.986 23.7837H102.063V16.2612C102.063 15.6493 102.187 15.1327 102.436 14.7115C102.689 14.2902 103.048 13.971 103.513 13.7537C103.983 13.5364 104.551 13.4278 105.216 13.4278C105.593 13.4278 105.959 13.4655 106.313 13.5409C106.668 13.6118 107.034 13.7049 107.411 13.8202L107.132 15.3566C106.888 15.2813 106.626 15.2103 106.347 15.1438C106.067 15.0773 105.73 15.044 105.336 15.044C104.892 15.044 104.555 15.1482 104.325 15.3566C104.099 15.5606 103.986 15.8621 103.986 16.2612V23.7837ZM105.416 16.5871V17.944H100.993V16.5871H105.416ZM108.302 16.5871V23.7837H106.38V16.5871H108.302ZM113.43 16.5871V17.944H109.24V16.5871H113.43ZM110.278 14.8112H112.193V21.6154C112.193 21.8238 112.22 21.9834 112.273 22.0943C112.331 22.2051 112.415 22.2827 112.526 22.3271C112.637 22.367 112.776 22.3869 112.945 22.3869C113.064 22.3869 113.171 22.3825 113.264 22.3736C113.361 22.3603 113.444 22.347 113.51 22.3337L113.517 23.7438C113.353 23.797 113.175 23.8391 112.985 23.8702C112.794 23.9012 112.583 23.9167 112.353 23.9167C111.931 23.9167 111.563 23.848 111.249 23.7105C110.938 23.5686 110.699 23.3425 110.53 23.0321C110.362 22.7217 110.278 22.3138 110.278 21.8083V14.8112ZM118.412 21.795C118.412 21.6575 118.372 21.5334 118.292 21.4225C118.212 21.3117 118.064 21.2097 117.847 21.1166C117.634 21.019 117.326 20.9303 116.922 20.8505C116.558 20.7707 116.219 20.6709 115.904 20.5512C115.594 20.4271 115.324 20.2785 115.093 20.1056C114.867 19.9327 114.69 19.7287 114.561 19.4937C114.432 19.2542 114.368 18.9815 114.368 18.6756C114.368 18.3741 114.432 18.0903 114.561 17.8242C114.694 17.5582 114.882 17.3232 115.126 17.1192C115.375 16.9108 115.676 16.749 116.031 16.6337C116.39 16.5139 116.793 16.4541 117.241 16.4541C117.867 16.4541 118.403 16.5539 118.851 16.7534C119.303 16.9529 119.649 17.2278 119.889 17.5781C120.132 17.924 120.254 18.3186 120.254 18.762H118.339C118.339 18.5758 118.299 18.4095 118.219 18.2632C118.144 18.1124 118.024 17.9949 117.86 17.9107C117.7 17.822 117.492 17.7777 117.235 17.7777C117.022 17.7777 116.838 17.8154 116.683 17.8907C116.527 17.9617 116.408 18.0592 116.323 18.1834C116.244 18.3031 116.204 18.4361 116.204 18.5825C116.204 18.6933 116.226 18.7931 116.27 18.8818C116.319 18.966 116.397 19.0436 116.503 19.1146C116.609 19.1855 116.747 19.252 116.915 19.3141C117.088 19.3717 117.301 19.4249 117.554 19.4737C118.073 19.5801 118.536 19.7198 118.944 19.8927C119.352 20.0612 119.676 20.2918 119.915 20.5845C120.155 20.8727 120.274 21.2518 120.274 21.7218C120.274 22.0411 120.203 22.3337 120.061 22.5998C119.92 22.8658 119.716 23.0986 119.45 23.2982C119.183 23.4933 118.864 23.6462 118.492 23.7571C118.124 23.8635 117.709 23.9167 117.248 23.9167C116.578 23.9167 116.011 23.797 115.545 23.5576C115.084 23.3181 114.734 23.0144 114.494 22.6463C114.259 22.2739 114.142 21.8925 114.142 21.5023H115.958C115.967 21.7639 116.033 21.9746 116.157 22.1342C116.286 22.2938 116.448 22.4091 116.643 22.4801C116.842 22.551 117.057 22.5865 117.288 22.5865C117.536 22.5865 117.742 22.5532 117.906 22.4867C118.071 22.4158 118.195 22.3226 118.279 22.2074C118.368 22.0876 118.412 21.9502 118.412 21.795Z" fill="#6F219E"/>
<path d="M9.24609 25.1139H120.773V25.779H9.24609V25.1139Z" fill="#6F219E"/>
<path d="M136.057 23.4835L129.246 16.6727L130.835 15.0835L136.057 20.3051L141.279 15.0835L142.868 16.6727L136.057 23.4835Z" fill="#6F219E"/>
</svg>
