<svg width="148" height="53" viewBox="0 0 148 53" fill="none" xmlns="http://www.w3.org/2000/svg">
<rect x="0.333984" y="0.566406" width="147.61" height="52" rx="9.08108" fill="#75C973"/>
<path d="M18.8852 31.861H20.3987V31.1042H21.1555C21.3699 31.1042 21.5496 31.0317 21.6946 30.8866C21.8397 30.7416 21.9122 30.5619 21.9122 30.3474V28.0772C21.9122 27.8628 21.8397 27.683 21.6946 27.538C21.5496 27.3929 21.3699 27.3204 21.1555 27.3204H18.8852V26.5637H21.9122V25.0501H20.3987V24.2934H18.8852V25.0501H18.1284C17.914 25.0501 17.7343 25.1227 17.5892 25.2677C17.4442 25.4128 17.3717 25.5925 17.3717 25.8069V28.0772C17.3717 28.2916 17.4442 28.4713 17.5892 28.6164C17.7343 28.7614 17.914 28.8339 18.1284 28.8339H20.3987V29.5907H17.3717V31.1042H18.8852V31.861ZM15.1014 34.1312C14.6852 34.1312 14.3289 33.983 14.0325 33.6866C13.7361 33.3902 13.5879 33.0339 13.5879 32.6177V20.5096C13.5879 20.0934 13.7361 19.7371 14.0325 19.4407C14.3289 19.1443 14.6852 18.9961 15.1014 18.9961H21.1555L25.696 23.5366V32.6177C25.696 33.0339 25.5478 33.3902 25.2514 33.6866C24.955 33.983 24.5987 34.1312 24.1825 34.1312H15.1014ZM20.3987 23.5366V20.5096H15.1014V32.6177H24.1825V23.5366H20.3987Z" fill="black"/>
<path d="M45.469 28.283H48.1206C48.0674 29.1521 47.828 29.9237 47.4023 30.5977C46.9825 31.2716 46.3943 31.7978 45.6375 32.1762C44.8867 32.5546 43.9821 32.7438 42.9238 32.7438C42.0961 32.7438 41.3541 32.6019 40.6979 32.3181C40.0416 32.0284 39.48 31.6145 39.0129 31.0765C38.5518 30.5385 38.2 29.8882 37.9576 29.1255C37.7152 28.3629 37.594 27.5086 37.594 26.5626V25.6669C37.594 24.721 37.7182 23.8667 37.9665 23.104C38.2207 22.3354 38.5813 21.6821 39.0484 21.1441C39.5214 20.6061 40.086 20.1923 40.7422 19.9026C41.3985 19.6129 42.1316 19.468 42.9416 19.468C44.0176 19.468 44.9251 19.6631 45.6641 20.0533C46.409 20.4435 46.9855 20.9815 47.3934 21.6673C47.8073 22.3531 48.0556 23.1336 48.1384 24.0086H45.4779C45.4483 23.4883 45.3449 23.0478 45.1675 22.6872C44.9901 22.3206 44.7211 22.0457 44.3605 21.8624C44.0058 21.6732 43.5328 21.5787 42.9416 21.5787C42.4982 21.5787 42.1109 21.6614 41.7798 21.827C41.4487 21.9925 41.1709 22.2438 40.9462 22.5808C40.7215 22.9178 40.5531 23.3434 40.4407 23.8578C40.3343 24.3662 40.2811 24.9634 40.2811 25.6492V26.5626C40.2811 27.2307 40.3313 27.8189 40.4319 28.3274C40.5324 28.8299 40.6861 29.2556 40.893 29.6044C41.1058 29.9473 41.3778 30.2075 41.7089 30.3848C42.0459 30.5563 42.4509 30.642 42.9238 30.642C43.4796 30.642 43.9378 30.5533 44.2984 30.376C44.659 30.1986 44.934 29.9355 45.1232 29.5867C45.3183 29.2379 45.4335 28.8033 45.469 28.283ZM55.3837 30.2695V22.971H57.9378V32.5664H55.5345L55.3837 30.2695ZM55.6675 28.3008L56.4213 28.283C56.4213 28.9216 56.3474 29.5157 56.1996 30.0656C56.0518 30.6095 55.8301 31.0825 55.5345 31.4845C55.2389 31.8806 54.8664 32.191 54.4171 32.4156C53.9677 32.6344 53.4386 32.7438 52.8297 32.7438C52.3626 32.7438 51.931 32.6787 51.5349 32.5487C51.1447 32.4127 50.8077 32.2028 50.5239 31.919C50.246 31.6293 50.0273 31.2598 49.8677 30.8105C49.7139 30.3553 49.6371 29.8084 49.6371 29.1699V22.971H52.1911V29.1876C52.1911 29.4714 52.2237 29.7108 52.2887 29.9059C52.3596 30.101 52.4572 30.2607 52.5813 30.3848C52.7055 30.509 52.8503 30.5977 53.0159 30.6509C53.1873 30.7041 53.3765 30.7307 53.5835 30.7307C54.1096 30.7307 54.5235 30.6243 54.825 30.4114C55.1324 30.1986 55.3482 29.9089 55.4724 29.5423C55.6025 29.1699 55.6675 28.756 55.6675 28.3008ZM62.4428 25.0639V32.5664H59.8888V22.971H62.2921L62.4428 25.0639ZM65.3339 22.9089L65.2895 25.2767C65.1654 25.259 65.0146 25.2442 64.8373 25.2324C64.6658 25.2146 64.5091 25.2058 64.3672 25.2058C64.0066 25.2058 63.6933 25.2531 63.4272 25.3477C63.1671 25.4363 62.9483 25.5694 62.771 25.7467C62.5995 25.9241 62.4694 26.1399 62.3808 26.3941C62.298 26.6483 62.2507 26.938 62.2389 27.2632L61.7245 27.1036C61.7245 26.4828 61.7866 25.9123 61.9107 25.392C62.0349 24.8658 62.2152 24.4076 62.4517 24.0174C62.6941 23.6272 62.9897 23.3257 63.3385 23.1129C63.6873 22.9 64.0864 22.7936 64.5357 22.7936C64.6776 22.7936 64.8225 22.8054 64.9703 22.8291C65.1181 22.8468 65.2393 22.8734 65.3339 22.9089ZM69.094 25.0639V32.5664H66.54V22.971H68.9433L69.094 25.0639ZM71.9851 22.9089L71.9407 25.2767C71.8166 25.259 71.6658 25.2442 71.4884 25.2324C71.317 25.2146 71.1603 25.2058 71.0184 25.2058C70.6578 25.2058 70.3444 25.2531 70.0784 25.3477C69.8183 25.4363 69.5995 25.5694 69.4221 25.7467C69.2507 25.9241 69.1206 26.1399 69.0319 26.3941C68.9492 26.6483 68.9019 26.938 68.89 27.2632L68.3757 27.1036C68.3757 26.4828 68.4378 25.9123 68.5619 25.392C68.6861 24.8658 68.8664 24.4076 69.1029 24.0174C69.3453 23.6272 69.6409 23.3257 69.9897 23.1129C70.3385 22.9 70.7376 22.7936 71.1869 22.7936C71.3288 22.7936 71.4737 22.8054 71.6215 22.8291C71.7693 22.8468 71.8905 22.8734 71.9851 22.9089ZM77.4302 32.7438C76.6852 32.7438 76.0172 32.6255 75.4259 32.389C74.8347 32.1466 74.3322 31.8126 73.9183 31.3869C73.5104 30.9613 73.1971 30.4676 72.9783 29.9059C72.7596 29.3384 72.6502 28.7353 72.6502 28.0968V27.7421C72.6502 27.0149 72.7536 26.3498 72.9606 25.7467C73.1675 25.1437 73.4631 24.6205 73.8474 24.177C74.2376 23.7336 74.7106 23.3937 75.2663 23.1572C75.8221 22.9148 76.4487 22.7936 77.1464 22.7936C77.8263 22.7936 78.4293 22.9059 78.9555 23.1306C79.4817 23.3553 79.9221 23.6745 80.2769 24.0884C80.6375 24.5022 80.9095 24.9988 81.0927 25.5782C81.276 26.1517 81.3677 26.7902 81.3677 27.4938V28.558H73.741V26.8553H78.858V26.6602C78.858 26.3054 78.7929 25.9891 78.6628 25.7113C78.5387 25.4275 78.3495 25.2028 78.0953 25.0373C77.8411 24.8717 77.5159 24.789 77.1198 24.789C76.7828 24.789 76.4931 24.8629 76.2507 25.0107C76.0083 25.1585 75.8102 25.3654 75.6565 25.6314C75.5087 25.8975 75.3964 26.2108 75.3195 26.5715C75.2486 26.9262 75.2131 27.3164 75.2131 27.7421V28.0968C75.2131 28.4811 75.2663 28.8358 75.3727 29.161C75.4851 29.4862 75.6417 29.767 75.8427 30.0035C76.0497 30.24 76.298 30.4232 76.5877 30.5533C76.8833 30.6834 77.2173 30.7484 77.5898 30.7484C78.0509 30.7484 78.4796 30.6597 78.8757 30.4824C79.2777 30.2991 79.6236 30.0242 79.9133 29.6576L81.1548 31.0056C80.9538 31.2953 80.6789 31.5732 80.3301 31.8392C79.9872 32.1053 79.5733 32.324 79.0885 32.4955C78.6037 32.661 78.0509 32.7438 77.4302 32.7438ZM85.3229 25.0195V32.5664H82.7688V22.971H85.1633L85.3229 25.0195ZM84.9504 27.4317H84.2587C84.2587 26.7222 84.3503 26.0837 84.5336 25.5162C84.7169 24.9427 84.9741 24.4549 85.3052 24.0529C85.6362 23.645 86.0294 23.3346 86.4846 23.1217C86.9458 22.903 87.4601 22.7936 88.0277 22.7936C88.477 22.7936 88.8879 22.8586 89.2604 22.9887C89.6329 23.1188 89.9521 23.3257 90.2182 23.6095C90.4901 23.8933 90.6971 24.2687 90.8389 24.7357C90.9868 25.2028 91.0607 25.7733 91.0607 26.4473V32.5664H88.4889V26.4384C88.4889 26.0128 88.4297 25.6817 88.3115 25.4452C88.1933 25.2087 88.0188 25.0432 87.7883 24.9486C87.5636 24.8481 87.2857 24.7978 86.9547 24.7978C86.6118 24.7978 86.3132 24.8658 86.059 25.0018C85.8107 25.1378 85.6037 25.327 85.4382 25.5694C85.2786 25.8058 85.1574 26.0837 85.0746 26.403C84.9918 26.7222 84.9504 27.0651 84.9504 27.4317ZM97.703 22.971V24.7801H92.116V22.971H97.703ZM93.4994 20.6031H96.0535V29.6754C96.0535 29.9532 96.0889 30.1661 96.1599 30.3139C96.2368 30.4617 96.3491 30.5651 96.4969 30.6243C96.6447 30.6775 96.8309 30.7041 97.0556 30.7041C97.2152 30.7041 97.3571 30.6982 97.4813 30.6863C97.6113 30.6686 97.7207 30.6509 97.8094 30.6331L97.8183 32.5132C97.5995 32.5841 97.363 32.6403 97.1088 32.6817C96.8546 32.7231 96.5737 32.7438 96.2663 32.7438C95.7047 32.7438 95.2139 32.6521 94.7942 32.4689C94.3803 32.2797 94.0611 31.9781 93.8364 31.5643C93.6118 31.1504 93.4994 30.6065 93.4994 29.9325V20.6031ZM106.234 24.8156V36.2556H103.68V22.971H106.048L106.234 24.8156ZM112.309 27.6623V27.8485C112.309 28.5461 112.226 29.1935 112.061 29.7906C111.901 30.3878 111.665 30.908 111.351 31.3515C111.038 31.789 110.648 32.1319 110.181 32.3802C109.719 32.6226 109.187 32.7438 108.584 32.7438C107.999 32.7438 107.491 32.6255 107.059 32.389C106.627 32.1526 106.264 31.8215 105.968 31.3958C105.678 30.9642 105.445 30.4646 105.268 29.8971C105.09 29.3295 104.954 28.7205 104.86 28.0702V27.5825C104.954 26.8848 105.09 26.2463 105.268 25.6669C105.445 25.0816 105.678 24.5761 105.968 24.1504C106.264 23.7189 106.624 23.3848 107.05 23.1483C107.482 22.9118 107.987 22.7936 108.567 22.7936C109.176 22.7936 109.711 22.9089 110.172 23.1395C110.639 23.37 111.029 23.7011 111.342 24.1327C111.662 24.5643 111.901 25.0787 112.061 25.6758C112.226 26.2729 112.309 26.9351 112.309 27.6623ZM109.746 27.8485V27.6623C109.746 27.2543 109.711 26.8789 109.64 26.536C109.575 26.1872 109.468 25.8827 109.32 25.6226C109.178 25.3624 108.989 25.1614 108.753 25.0195C108.522 24.8717 108.241 24.7978 107.91 24.7978C107.561 24.7978 107.263 24.854 107.015 24.9663C106.772 25.0787 106.574 25.2412 106.42 25.4541C106.267 25.6669 106.151 25.9211 106.075 26.2167C105.998 26.5124 105.95 26.8464 105.933 27.2189V28.4515C105.962 28.889 106.045 29.2822 106.181 29.631C106.317 29.9739 106.527 30.2459 106.811 30.4469C107.094 30.6479 107.467 30.7484 107.928 30.7484C108.265 30.7484 108.549 30.6745 108.779 30.5267C109.01 30.373 109.196 30.1631 109.338 29.8971C109.486 29.631 109.589 29.3236 109.648 28.9748C109.714 28.626 109.746 28.2505 109.746 27.8485ZM116.592 18.9448V32.5664H114.029V18.9448H116.592ZM123.882 30.4026V26.1281C123.882 25.8206 123.832 25.5575 123.731 25.3388C123.631 25.1141 123.474 24.9397 123.261 24.8156C123.054 24.6914 122.785 24.6293 122.454 24.6293C122.17 24.6293 121.925 24.6796 121.718 24.7801C121.511 24.8747 121.352 25.0136 121.239 25.1969C121.127 25.3743 121.071 25.5841 121.071 25.8265H118.517C118.517 25.4186 118.611 25.0314 118.801 24.6648C118.99 24.2982 119.265 23.976 119.625 23.6982C119.986 23.4144 120.415 23.1927 120.911 23.033C121.414 22.8734 121.975 22.7936 122.596 22.7936C123.341 22.7936 124.003 22.9178 124.583 23.1661C125.162 23.4144 125.617 23.7868 125.948 24.2835C126.285 24.7801 126.454 25.4009 126.454 26.1458V30.2518C126.454 30.778 126.486 31.2096 126.551 31.5466C126.616 31.8776 126.711 32.1673 126.835 32.4156V32.5664H124.254C124.13 32.3063 124.036 31.9811 123.971 31.5909C123.912 31.1948 123.882 30.7987 123.882 30.4026ZM124.219 26.7222L124.237 28.1678H122.809C122.472 28.1678 122.179 28.2062 121.931 28.283C121.683 28.3599 121.479 28.4693 121.319 28.6112C121.159 28.7471 121.041 28.9068 120.964 29.0901C120.893 29.2733 120.858 29.4743 120.858 29.6931C120.858 29.9118 120.908 30.1099 121.009 30.2873C121.109 30.4587 121.254 30.5947 121.443 30.6952C121.632 30.7898 121.854 30.8371 122.108 30.8371C122.493 30.8371 122.827 30.7602 123.11 30.6065C123.394 30.4528 123.613 30.2636 123.767 30.039C123.926 29.8143 124.009 29.6015 124.015 29.4004L124.689 30.4824C124.594 30.7248 124.464 30.976 124.299 31.2362C124.139 31.4963 123.935 31.7417 123.687 31.9722C123.439 32.1969 123.14 32.3831 122.791 32.5309C122.442 32.6728 122.029 32.7438 121.55 32.7438C120.941 32.7438 120.388 32.6226 119.891 32.3802C119.401 32.1319 119.01 31.7919 118.721 31.3603C118.437 30.9228 118.295 30.4262 118.295 29.8705C118.295 29.3679 118.39 28.9216 118.579 28.5314C118.768 28.1412 119.046 27.813 119.412 27.547C119.785 27.275 120.249 27.0711 120.805 26.9351C121.36 26.7932 122.005 26.7222 122.738 26.7222H124.219ZM130.923 25.0195V32.5664H128.369V22.971H130.764L130.923 25.0195ZM130.551 27.4317H129.859C129.859 26.7222 129.951 26.0837 130.134 25.5162C130.317 24.9427 130.575 24.4549 130.906 24.0529C131.237 23.645 131.63 23.3346 132.085 23.1217C132.546 22.903 133.061 22.7936 133.628 22.7936C134.078 22.7936 134.488 22.8586 134.861 22.9887C135.233 23.1188 135.553 23.3257 135.819 23.6095C136.091 23.8933 136.298 24.2687 136.439 24.7357C136.587 25.2028 136.661 25.7733 136.661 26.4473V32.5664H134.089V26.4384C134.089 26.0128 134.03 25.6817 133.912 25.4452C133.794 25.2087 133.619 25.0432 133.389 24.9486C133.164 24.8481 132.886 24.7978 132.555 24.7978C132.212 24.7978 131.914 24.8658 131.659 25.0018C131.411 25.1378 131.204 25.327 131.039 25.5694C130.879 25.8058 130.758 26.0837 130.675 26.403C130.592 26.7222 130.551 27.0651 130.551 27.4317Z" fill="#112211"/>
</svg>
