<svg width="272" height="186" viewBox="0 0 272 186" fill="none" xmlns="http://www.w3.org/2000/svg">
<mask id="mask0_5578_88466" style="mask-type:alpha" maskUnits="userSpaceOnUse" x="0" y="0" width="272" height="186">
<path d="M0 0.0268555H272V185.054H0V0.0268555Z" fill="#FFEBD5"/>
</mask>
<g mask="url(#mask0_5578_88466)">
<mask id="path-2-inside-1_5578_88466" fill="white">
<path d="M0 0.0268555H272V185.054H0V0.0268555Z"/>
</mask>
<path d="M0 0.0268555H272V185.054H0V0.0268555Z" fill="#F5F9F4"/>
<path d="M269.73 0.0268555V185.054H274.27V0.0268555H269.73ZM2.27027 185.054V0.0268555H-2.27027V185.054H2.27027Z" fill="#FCF0D8" mask="url(#path-2-inside-1_5578_88466)"/>
<path d="M181.196 181.054C182.349 185.64 183.444 190.262 184.532 194.866C185.201 197.686 185.638 200.604 186.718 203.282C187.011 204.021 187.7 204.628 187.554 205.527L187.547 205.509C187.839 206.293 188.248 207.051 188.411 207.871C189.028 211.015 190.027 214.169 190.32 217.266C190.334 217.393 190.521 217.501 190.557 217.682C190.713 218.528 191.164 221.527 191.598 223.392C192.615 227.726 193.524 232.104 193.308 236.819C193.277 237.557 194.256 247.461 190.716 248.597C187.047 249.768 183.984 240.952 183.873 239.718C183.608 236.738 183.841 233.562 182.61 230.91C180.799 227.023 180.43 222.692 179.37 218.565C178.409 214.871 177.829 211.052 176.832 207.358C175.906 203.889 174.375 200.615 173.68 197.092C173.077 194.03 173.353 190.692 173.045 187.559C172.968 186.82 172.135 186.168 172.029 185.358C171.945 184.692 171.747 183.602 171.914 182.846C171.987 182.532 172.097 182.172 171.903 181.955C171.034 180.898 169.834 170.48 174.13 169.168C178.376 167.865 180.206 177.062 181.196 181.054Z" fill="#CDE6CC"/>
<path d="M32.163 61.9533C31.8796 62.0672 31.6363 62.2937 31.4717 62.5972C31.3051 62.9034 31.2252 63.2705 31.2458 63.6388C31.9484 76.2229 32.054 88.1693 31.4998 99.4097C30.2237 99.0505 28.9231 98.8146 27.5978 98.7319C20.1161 98.2697 13.9679 104.889 14.0103 112.763C14.0326 116.712 15.7376 119.987 18.2203 122.248C20.7033 124.51 23.9663 125.908 27.4793 126.541C31.194 127.212 34.5413 125.363 36.9486 122.602C39.3537 119.844 40.925 116.185 41.1803 112.688C41.2055 112.343 41.1877 112.231 41.1776 111.951C41.1677 111.671 41.1519 111.319 41.1292 110.892C41.0837 110.039 41.0159 108.892 40.9372 107.52C40.78 104.775 40.578 101.132 40.4142 97.2258C40.099 89.66 39.9948 81.1467 40.5709 76.3849C41.306 75.6506 42.5573 75.0597 44.1678 74.7067L43.0053 79.2631C42.9764 79.366 42.9632 79.4771 42.9676 79.5885C42.9738 79.697 42.9967 79.8048 43.0349 79.9052C43.0751 80.0029 43.1293 80.0916 43.1957 80.1641C43.2622 80.2369 43.3414 80.289 43.426 80.3221C43.5085 80.3579 43.5989 80.3676 43.6863 80.3585C43.7735 80.3491 43.8586 80.3171 43.9377 80.2629C44.0148 80.2113 44.0834 80.1397 44.139 80.053C44.1947 79.9663 44.2356 79.8674 44.2583 79.7624L45.5828 74.5703C45.5909 74.5394 45.598 74.5072 45.6023 74.4767C46.4952 74.3724 47.464 74.3417 48.4979 74.3871L47.0393 77.995C46.9619 78.1879 46.948 78.4146 47.0032 78.6209C47.0567 78.8301 47.176 79.0001 47.3307 79.1001C47.4874 79.1974 47.6671 79.2153 47.8335 79.1467C47.9996 79.0779 48.1371 78.9301 48.2162 78.7342L49.9268 74.4948C51.0816 74.616 52.2851 74.8193 53.5212 75.0962L51.4139 78.7094C51.3618 78.7952 51.3244 78.8933 51.3025 78.9992C51.2806 79.1052 51.2756 79.2157 51.2873 79.3255C51.3008 79.4324 51.3299 79.5373 51.3752 79.6309C51.4204 79.7242 51.4806 79.8048 51.5501 79.8709C51.6217 79.9344 51.7012 79.9818 51.7867 80.006C51.8725 80.0304 51.9594 80.036 52.0468 80.0167C52.1321 80.0001 52.2149 79.9603 52.2897 79.901C52.3645 79.8417 52.4268 79.7678 52.4785 79.6765L54.8994 75.5241C54.9154 75.4973 54.9299 75.4688 54.9434 75.4389C55.7961 75.6672 56.6589 75.9376 57.5246 76.2317L56.1759 79.5734C56.1362 79.6686 56.1105 79.7753 56.1033 79.8833C56.0941 79.994 56.1047 80.1025 56.1324 80.2057C56.1577 80.3113 56.201 80.4075 56.2584 80.4898C56.3138 80.5748 56.3842 80.642 56.4616 80.6921C56.5411 80.7395 56.6266 80.7687 56.7126 80.7782C56.8004 80.7848 56.8879 80.7707 56.9704 80.7356C57.053 80.7006 57.1301 80.6441 57.1966 80.57C57.261 80.4986 57.3147 80.4096 57.3521 80.3116L58.8153 76.6889C59.6441 77.0005 60.4685 77.3475 61.2878 77.7188L60.3201 80.1145C60.2812 80.2107 60.2563 80.3181 60.2513 80.4237C60.2443 80.5319 60.2549 80.6404 60.2819 80.7428C60.3091 80.8455 60.3517 80.941 60.4085 81.0225C60.4652 81.1041 60.5327 81.1729 60.6113 81.2193C60.6881 81.2687 60.7709 81.2998 60.8585 81.3061C60.9439 81.3149 61.0314 81.3008 61.1121 81.2687C61.1949 81.2339 61.2706 81.1809 61.3359 81.1105C61.4012 81.0401 61.4562 80.9526 61.4951 80.8564L62.5255 78.3013C63.0265 78.5482 63.526 78.7987 64.0181 79.0656C64.2855 79.2114 64.584 79.2417 64.8667 79.1523C65.1494 79.063 65.3999 78.8601 65.5793 78.574C65.7608 78.2852 65.8585 77.9338 65.8616 77.568C65.8627 77.2049 65.7674 76.8505 65.5919 76.5592C63.2677 72.7621 60.7783 68.868 56.8043 66.0461C52.8344 63.229 47.4608 61.5484 39.5055 61.8175L39.4975 61.8183L32.5514 61.8764C32.4189 61.8782 32.2868 61.9059 32.163 61.9533ZM33.9307 65.155L39.5227 65.1072C39.5312 65.1071 39.54 65.1072 39.5486 65.1071C47.1962 64.8424 52.0213 66.433 55.5027 68.9064C57.4457 70.2886 58.9695 72.0055 60.36 73.87C56.7101 72.4091 53.0121 71.4588 49.6628 71.1594C44.8526 70.73 40.6946 71.3622 38.3618 74.3472C38.1758 74.5852 38.051 74.8896 38.0063 75.2169C37.262 80.5967 37.4575 89.5104 37.787 97.3965C37.9497 101.342 38.1552 105.004 38.3125 107.754C38.3922 109.128 38.4576 110.277 38.5024 111.109C38.5248 111.525 38.5392 111.866 38.5487 112.105C38.5581 112.343 38.5459 112.577 38.5603 112.386C38.3818 114.819 37.1209 117.94 35.1682 120.18C34.421 121.037 33.5885 121.764 32.6857 122.312L33.0317 120.94C33.0692 120.797 33.0751 120.642 33.0478 120.494C33.0205 120.345 32.9608 120.21 32.8741 120.103C32.7897 119.994 32.6816 119.918 32.564 119.882C32.4445 119.849 32.322 119.852 32.2063 119.899C32.1037 119.941 32.012 120.011 31.9376 120.106C31.8631 120.201 31.8076 120.318 31.7757 120.448L31.1255 123.033C30.2143 123.338 29.2545 123.461 28.2528 123.341L29.9374 119.132C29.998 118.986 30.023 118.818 30.0052 118.655C29.9893 118.49 29.9344 118.334 29.846 118.211C29.7576 118.087 29.6425 117.998 29.5132 117.958C29.386 117.915 29.2507 117.924 29.1245 117.984C28.9651 118.056 28.8333 118.205 28.7595 118.397L26.8847 123.082C26.0385 122.887 25.2173 122.645 24.4366 122.349L26.0523 119.557C26.1394 119.411 26.1848 119.237 26.183 119.058C26.181 118.878 26.1341 118.702 26.0445 118.561C25.9568 118.418 25.8342 118.315 25.6932 118.272C25.5541 118.226 25.4076 118.236 25.2751 118.304C25.1583 118.365 25.058 118.465 24.9863 118.594L23.1339 121.792C22.3252 121.407 21.5732 120.968 20.8899 120.477L22.4265 116.637C22.4872 116.49 22.5123 116.322 22.4946 116.16C22.4788 115.994 22.4239 115.839 22.3357 115.716C22.2495 115.59 22.1322 115.503 22.0052 115.461C21.8759 115.421 21.7404 115.429 21.616 115.486C21.4548 115.561 21.323 115.71 21.2492 115.902L19.773 119.591C19.7726 119.59 19.7722 119.59 19.7717 119.589C19.051 118.933 18.4507 118.226 17.97 117.461L19.3137 114.104C19.3742 113.957 19.3973 113.791 19.3816 113.626C19.366 113.461 19.3111 113.306 19.2227 113.182C19.1345 113.059 19.0194 112.97 18.8901 112.93C18.7629 112.887 18.6276 112.896 18.5029 112.953C18.3418 113.027 18.21 113.177 18.1362 113.369L17.1634 115.799C16.8306 114.863 16.6487 113.851 16.6423 112.74C16.6113 107.07 21.2883 101.635 27.4654 102.019L27.466 102.019C29.2734 102.129 30.9201 102.396 32.3104 103.04C32.5024 103.128 32.7072 103.16 32.9112 103.131C33.1134 103.104 33.308 103.018 33.4796 102.88C33.651 102.741 33.7946 102.555 33.8999 102.334C34.0031 102.115 34.0648 101.869 34.0802 101.614C34.7317 90.1631 34.5927 77.9245 33.9307 65.155ZM41.508 66.8933C41.1922 67.116 41.0812 67.6188 41.2612 68.0115C41.4392 68.407 41.8405 68.5475 42.1583 68.3221C42.4737 68.0989 42.5854 67.5969 42.405 67.2036C42.2263 66.8074 41.8248 66.6666 41.508 66.8933ZM35.8256 71.0411C35.5102 71.2643 35.399 71.7668 35.5773 72.1628C35.7575 72.5558 36.1578 72.695 36.4756 72.4697C36.7912 72.2467 36.9027 71.7444 36.7223 71.3512C36.5441 70.9555 36.141 70.8179 35.8256 71.0411ZM29.3985 106.816C29.2328 106.885 29.0957 107.033 29.0168 107.23C28.9399 107.423 28.9263 107.65 28.9817 107.857C29.0371 108.063 29.1566 108.233 29.3111 108.333C29.4674 108.43 29.649 108.445 29.8149 108.376C29.9806 108.306 30.1177 108.158 30.1945 107.965C30.2735 107.768 30.2851 107.544 30.2317 107.335C30.1763 107.128 30.0568 106.958 29.9003 106.861C29.7438 106.764 29.5645 106.747 29.3985 106.816ZM34.4032 110.175C34.2375 110.245 34.1007 110.393 34.0218 110.589C33.9449 110.783 33.9312 111.01 33.9866 111.216C34.0418 111.423 34.1614 111.593 34.3158 111.693C34.4723 111.79 34.6539 111.805 34.8196 111.735C34.9853 111.666 35.1224 111.518 35.1993 111.324C35.2782 111.128 35.2898 110.904 35.2344 110.697C35.181 110.488 35.0617 110.318 34.9052 110.221C34.7487 110.124 34.5692 110.106 34.4032 110.175ZM31.5601 114.583C31.3944 114.652 31.2575 114.801 31.1786 114.997C31.1017 115.19 31.088 115.417 31.1435 115.624C31.1987 115.83 31.3182 116 31.4727 116.1C31.6292 116.197 31.8107 116.212 31.9764 116.143C32.1422 116.073 32.2792 115.925 32.3561 115.732C32.435 115.535 32.4467 115.311 32.3913 115.105C32.3379 114.895 32.2185 114.725 32.062 114.628C31.9055 114.531 31.726 114.514 31.5601 114.583Z" fill="#CDE6CC"/>
<path d="M193.65 71.7075C193.526 71.8993 193.457 72.1354 193.453 72.3785C193.45 72.6241 193.512 72.8642 193.63 73.0594C197.674 79.7301 201.2 86.3172 204.155 92.8114C203.342 93.1904 202.552 93.649 201.791 94.2039C197.502 97.3389 196.009 103.803 198.318 108.157C199.477 110.34 201.374 111.386 203.41 111.516C205.445 111.647 207.664 110.944 209.798 109.703C212.056 108.392 213.379 105.847 213.914 103.222C214.449 100.6 214.26 97.8556 213.386 95.7975C213.3 95.5944 213.258 95.5404 213.171 95.3894C213.084 95.2385 212.973 95.0499 212.837 94.8233C212.564 94.3703 212.193 93.7638 211.751 93.0372C210.867 91.584 209.697 89.6525 208.472 87.5571C206.101 83.498 203.572 78.817 202.51 75.9111C202.705 75.17 203.228 74.2745 204.02 73.3484L204.697 76.4061C204.711 76.4763 204.736 76.544 204.771 76.6039C204.806 76.6613 204.85 76.7108 204.9 76.7492C204.951 76.7852 205.007 76.8099 205.064 76.8201C205.123 76.8304 205.182 76.8234 205.238 76.8035C205.294 76.786 205.347 76.7503 205.393 76.7057C205.439 76.6609 205.477 76.6046 205.505 76.5386C205.533 76.475 205.55 76.4042 205.556 76.3308C205.562 76.2574 205.556 76.1839 205.538 76.1153L204.766 72.6312C204.762 72.6103 204.757 72.5892 204.75 72.5703C205.216 72.1076 205.745 71.6513 206.332 71.2079L206.569 73.8729C206.583 74.0151 206.641 74.1473 206.731 74.2369C206.822 74.3289 206.937 74.3692 207.052 74.3546C207.167 74.3376 207.272 74.2661 207.345 74.1526C207.417 74.039 207.451 73.8946 207.438 73.7499L207.157 70.6199C207.834 70.1636 208.561 69.731 209.328 69.3244L209.207 72.2865C209.202 72.3578 209.21 72.4292 209.229 72.4979C209.247 72.5667 209.277 72.6304 209.315 72.6861C209.354 72.7393 209.4 72.7844 209.453 72.8158C209.505 72.8471 209.562 72.8646 209.619 72.8698C209.677 72.8726 209.735 72.8629 209.79 72.8376C209.845 72.8123 209.895 72.7759 209.937 72.7256C209.98 72.6777 210.015 72.6181 210.039 72.5513C210.063 72.4844 210.076 72.4151 210.079 72.341L210.218 68.9373C210.219 68.9151 210.219 68.8927 210.217 68.87C210.757 68.6102 211.315 68.3693 211.881 68.1401L212.102 70.6075C212.108 70.6784 212.124 70.7493 212.152 70.8125C212.179 70.8782 212.216 70.9336 212.261 70.9784C212.306 71.0256 212.358 71.0594 212.414 71.0791C212.469 71.1012 212.528 71.1066 212.586 71.0993C212.643 71.0896 212.699 71.0671 212.75 71.0333C212.801 70.9972 212.845 70.9497 212.881 70.8928C212.916 70.8359 212.943 70.7696 212.958 70.6983C212.973 70.6294 212.977 70.5557 212.97 70.4843L212.731 67.8089C213.281 67.6062 213.84 67.4252 214.403 67.26L214.561 69.0292C214.567 69.1003 214.585 69.1713 214.612 69.2322C214.64 69.2955 214.677 69.3509 214.722 69.3956C214.767 69.4403 214.818 69.4739 214.874 69.4935C214.929 69.5131 214.986 69.5207 215.043 69.5109C215.1 69.5035 215.155 69.4832 215.206 69.447C215.256 69.4132 215.3 69.3657 215.336 69.3112C215.372 69.2544 215.398 69.1906 215.414 69.1219C215.43 69.0532 215.435 68.9797 215.429 68.9086L215.259 67.0224C215.609 66.9325 215.959 66.8451 216.31 66.7702C216.501 66.73 216.676 66.6115 216.807 66.4337C216.938 66.2559 217.018 66.0297 217.035 65.7894C217.052 65.5468 217.004 65.3073 216.899 65.1027C216.795 64.9006 216.639 64.7469 216.457 64.6647C214.064 63.6095 211.551 62.5753 208.524 62.8096C205.502 63.0447 202.029 64.5474 197.689 68.3034L197.685 68.3075L193.844 71.4887C193.771 71.5498 193.705 71.625 193.65 71.7075ZM195.562 72.6844L198.654 70.1227C198.658 70.1188 198.663 70.1148 198.668 70.1109C202.839 66.4968 205.98 65.1928 208.632 64.9883C210.112 64.8751 211.457 65.1378 212.77 65.543C210.319 66.3863 207.989 67.535 206.042 68.8871C203.246 70.8293 201.12 73.0654 200.691 75.7809C200.657 75.9973 200.676 76.223 200.746 76.425C201.894 79.7504 204.591 84.6124 207.063 88.843C208.299 90.9607 209.476 92.9012 210.361 94.3573C210.804 95.0841 211.174 95.6929 211.441 96.1346C211.574 96.3554 211.681 96.5382 211.755 96.6665C211.83 96.7948 211.891 96.9302 211.844 96.8177C212.451 98.25 212.656 100.555 212.222 102.684C212.056 103.499 211.805 104.28 211.462 104.994L211.256 104.075C211.235 103.978 211.194 103.89 211.136 103.819C211.077 103.749 211.005 103.701 210.926 103.681C210.847 103.659 210.765 103.666 210.689 103.699C210.613 103.735 210.546 103.792 210.496 103.871C210.451 103.94 210.42 104.021 210.406 104.107C210.393 104.194 210.396 104.284 210.416 104.371L210.805 106.101C210.388 106.684 209.89 107.187 209.299 107.575L209.013 104.474C209.004 104.365 208.969 104.26 208.912 104.178C208.855 104.093 208.78 104.032 208.695 104.003C208.61 103.974 208.52 103.977 208.436 104.014C208.353 104.048 208.281 104.114 208.228 104.204C208.16 104.316 208.13 104.459 208.145 104.599L208.464 108.051C207.937 108.326 207.411 108.564 206.891 108.754L206.978 106.471C206.984 106.35 206.959 106.233 206.906 106.134C206.853 106.035 206.776 105.959 206.685 105.921C206.595 105.882 206.497 105.88 206.406 105.92C206.315 105.957 206.237 106.03 206.183 106.127C206.136 106.214 206.109 106.315 206.107 106.419L206.006 109.035C205.445 109.188 204.9 109.285 204.378 109.322L204.117 106.493C204.108 106.384 204.073 106.279 204.016 106.197C203.959 106.112 203.884 106.051 203.799 106.022C203.715 105.991 203.624 105.996 203.541 106.03C203.458 106.067 203.385 106.133 203.333 106.221C203.265 106.335 203.235 106.478 203.25 106.618L203.501 109.336C203.5 109.336 203.5 109.336 203.5 109.336C202.909 109.298 202.37 109.178 201.881 108.971L201.653 106.497C201.644 106.388 201.608 106.286 201.552 106.201C201.495 106.116 201.42 106.055 201.335 106.026C201.25 105.998 201.16 106.001 201.077 106.037C200.994 106.071 200.921 106.137 200.868 106.225C200.8 106.34 200.771 106.483 200.785 106.623L200.951 108.413C200.494 108.044 200.099 107.565 199.773 106.95C198.11 103.816 199.13 98.6766 202.672 96.0893L202.673 96.0894C203.708 95.3312 204.7 94.7326 205.66 94.4604C205.792 94.4222 205.915 94.3471 206.019 94.2382C206.124 94.1317 206.207 93.9957 206.262 93.8411C206.317 93.6864 206.343 93.5178 206.337 93.3473C206.331 93.1793 206.294 93.0143 206.228 92.8655C203.266 86.2106 199.636 79.4764 195.562 72.6844ZM200.275 70.2146C200.164 70.4815 200.248 70.8111 200.462 70.9476C200.676 71.0866 200.94 70.9827 201.051 70.7134C201.161 70.4464 201.077 70.117 200.863 69.9804C200.649 69.8413 200.385 69.9451 200.275 70.2146ZM198.323 75.0944C198.212 75.3614 198.296 75.6909 198.511 75.83C198.725 75.9665 198.987 75.8624 199.098 75.5932C199.209 75.3263 199.125 74.9968 198.911 74.8601C198.697 74.7211 198.433 74.8275 198.323 75.0944ZM205.138 97.8773C205.066 97.9909 205.033 98.1355 205.046 98.2802C205.06 98.4225 205.118 98.5547 205.209 98.6443C205.3 98.7339 205.415 98.7743 205.53 98.7596C205.645 98.7425 205.75 98.6685 205.822 98.5549C205.894 98.4413 205.927 98.2968 205.914 98.1545C205.901 98.0097 205.842 97.8799 205.752 97.7879C205.661 97.6983 205.545 97.658 205.43 97.675C205.315 97.6921 205.21 97.7637 205.138 97.8773ZM208.893 97.4743C208.821 97.588 208.788 97.7325 208.801 97.8773C208.815 98.0196 208.873 98.1518 208.964 98.2414C209.054 98.3309 209.17 98.3713 209.285 98.3567C209.4 98.3396 209.505 98.2656 209.577 98.152C209.649 98.0384 209.682 97.8938 209.669 97.7515C209.656 97.6068 209.597 97.477 209.506 97.3874C209.416 97.2954 209.3 97.2551 209.185 97.2721C209.07 97.2892 208.965 97.3607 208.893 97.4743ZM208.593 101.211C208.521 101.325 208.489 101.469 208.502 101.614C208.515 101.756 208.573 101.889 208.664 101.978C208.755 102.068 208.871 102.108 208.985 102.093C209.1 102.076 209.206 102.002 209.278 101.889C209.349 101.775 209.382 101.631 209.369 101.488C209.356 101.344 209.297 101.214 209.207 101.124C209.116 101.032 209.001 100.992 208.885 101.009C208.77 101.026 208.666 101.098 208.593 101.211Z" fill="#CDE6CC"/>
<path d="M253.36 1.46642C254.022 1.81986 254.567 2.43309 254.909 3.20969C255.255 3.99335 255.382 4.89961 255.266 5.78035C251.322 35.879 248.93 64.6093 248.252 91.8246C251.389 91.3165 254.562 91.1122 257.767 91.2835C275.861 92.2621 289.478 109.916 287.966 128.861C287.206 138.36 282.515 145.768 276.133 150.519C269.751 155.27 261.646 157.724 253.075 158.265C244.012 158.842 236.285 153.456 230.984 146.135C225.687 138.822 222.559 129.576 222.571 121.085C222.572 120.247 222.635 119.983 222.709 119.311C222.783 118.641 222.884 117.796 223.015 116.776C223.277 114.736 223.646 111.993 224.081 108.71C224.951 102.146 226.089 93.4339 227.183 84.0751C229.295 65.9494 231.07 45.4835 230.536 33.8589C228.897 31.8857 225.991 30.1133 222.177 28.8132L224.16 40.1075C224.211 40.3632 224.223 40.6344 224.192 40.9014C224.158 41.1608 224.084 41.414 223.974 41.6449C223.859 41.8688 223.713 42.0672 223.54 42.2233C223.367 42.38 223.167 42.4833 222.958 42.5393C222.752 42.6025 222.533 42.6004 222.324 42.554C222.116 42.5071 221.917 42.4063 221.736 42.2536C221.56 42.108 221.408 41.9164 221.289 41.6921C221.171 41.4678 221.09 41.2182 221.054 40.9591L218.795 28.0894C218.781 28.0127 218.769 27.9332 218.765 27.8586C216.634 27.3578 214.307 27.0133 211.81 26.8335L214.675 35.9269C214.827 36.413 214.82 36.9626 214.65 37.4438C214.484 37.9326 214.166 38.3084 213.776 38.5059C213.381 38.6963 212.945 38.6892 212.557 38.4777C212.17 38.2656 211.865 37.8712 211.71 37.3774L208.35 26.6935C205.549 26.6623 202.615 26.8153 199.59 27.1366L204.016 36.4241C204.126 36.6452 204.198 36.8916 204.232 37.1529C204.266 37.4141 204.258 37.6815 204.21 37.9427C204.159 38.1962 204.07 38.4407 203.944 38.6532C203.819 38.8651 203.659 39.0424 203.48 39.1822C203.297 39.3149 203.097 39.4068 202.886 39.4411C202.676 39.4759 202.465 39.465 202.258 39.3942C202.056 39.3304 201.864 39.2115 201.694 39.0479C201.525 38.8843 201.388 38.6888 201.28 38.4546L196.195 27.7815C196.161 27.7125 196.131 27.6396 196.104 27.564C194.011 27.8752 191.885 28.2851 189.748 28.7511L192.397 37.1729C192.476 37.4132 192.518 37.6772 192.516 37.9392C192.519 38.2082 192.474 38.4666 192.389 38.7072C192.309 38.9543 192.187 39.1739 192.035 39.356C191.886 39.5452 191.705 39.6872 191.509 39.7862C191.309 39.8781 191.098 39.9245 190.89 39.9233C190.677 39.9146 190.469 39.8562 190.277 39.7488C190.084 39.6414 189.908 39.4838 189.762 39.2868C189.619 39.0969 189.506 38.8676 189.434 38.6212L186.559 29.4909C184.508 30.0093 182.462 30.6144 180.423 31.2793L182.324 37.317C182.4 37.5595 182.441 37.8251 182.434 38.0806C182.431 38.3431 182.386 38.6015 182.303 38.8405C182.219 39.08 182.1 39.2979 181.948 39.4784C181.797 39.6589 181.622 39.8057 181.425 39.8955C181.231 39.9929 181.026 40.0445 180.814 40.0353C180.607 40.0325 180.399 39.9741 180.21 39.8743C180.017 39.7674 179.844 39.6186 179.7 39.4308C179.555 39.2431 179.439 39.0171 179.362 38.7746L177.339 32.3355C176.089 32.79 174.841 33.2532 173.609 33.7583C172.939 34.0345 172.215 34.024 171.55 33.7299C170.886 33.4358 170.319 32.8772 169.938 32.1384C169.553 31.3925 169.381 30.5192 169.439 29.6377C169.501 28.7632 169.794 27.9366 170.269 27.2844C176.544 18.793 183.234 10.1142 193.306 4.43149C203.367 -1.24076 216.604 -3.78465 235.708 -0.913029L235.727 -0.908754L252.439 1.17259C252.757 1.21402 253.07 1.31754 253.36 1.46642ZM248.531 8.67996L235.078 7.00179C235.057 6.99917 235.036 6.99706 235.015 6.99445C216.652 4.21934 204.751 6.6999 195.927 11.6813C191.002 14.4657 187.027 18.1729 183.345 22.2729C192.394 19.7761 201.466 18.5222 209.583 18.7375C221.24 19.0484 231.137 21.7325 236.219 29.5707C236.624 30.1956 236.87 30.9634 236.919 31.7638C237.748 44.9233 235.681 66.3276 233.477 85.2206C232.379 94.6742 231.229 103.432 230.358 110.009C229.92 113.293 229.557 116.042 229.3 118.032C229.172 119.027 229.076 119.844 229.011 120.416C228.945 120.988 228.933 121.554 228.932 121.091C228.926 126.998 231.403 134.863 235.703 140.803C237.349 143.074 239.223 145.056 241.298 146.628L240.711 143.229C240.646 142.874 240.659 142.499 240.752 142.149C240.844 141.8 241.012 141.49 241.24 141.258C241.463 141.019 241.736 140.867 242.026 140.812C242.32 140.765 242.614 140.808 242.884 140.953C243.124 141.082 243.332 141.276 243.494 141.526C243.656 141.776 243.769 142.074 243.823 142.395L244.925 148.799C247.064 149.79 249.353 150.352 251.786 150.346L248.483 139.742C248.364 139.372 248.334 138.96 248.406 138.573C248.474 138.18 248.634 137.821 248.869 137.548C249.103 137.275 249.396 137.093 249.715 137.033C250.029 136.966 250.353 137.025 250.646 137.204C251.017 137.422 251.307 137.818 251.451 138.301L255.125 150.104C257.198 149.87 259.218 149.517 261.15 149.023L257.76 141.851C257.577 141.475 257.499 141.042 257.535 140.611C257.572 140.179 257.717 139.768 257.958 139.455C258.194 139.135 258.508 138.922 258.855 138.857C259.198 138.784 259.549 138.851 259.856 139.051C260.126 139.23 260.35 139.499 260.499 139.829L264.386 148.046C266.402 147.346 268.291 146.499 270.024 145.509L267.012 135.833C266.892 135.464 266.862 135.052 266.933 134.666C267.001 134.272 267.161 133.914 267.395 133.641C267.625 133.362 267.923 133.186 268.237 133.12C268.555 133.06 268.88 133.118 269.169 133.29C269.544 133.515 269.834 133.911 269.978 134.394L272.871 143.687C272.872 143.686 272.873 143.684 272.875 143.683C274.727 142.306 276.299 140.771 277.593 139.064L274.959 130.605C274.84 130.235 274.814 129.83 274.881 129.437C274.948 129.044 275.108 128.686 275.343 128.413C275.578 128.14 275.871 127.958 276.189 127.898C276.503 127.831 276.827 127.89 277.117 128.061C277.492 128.286 277.782 128.683 277.925 129.165L279.832 135.288C280.801 133.128 281.42 130.741 281.634 128.069C282.724 114.429 272.437 100.036 257.498 99.2329L257.496 99.2346C253.125 98.9945 249.113 99.1753 245.651 100.339C245.173 100.497 244.674 100.517 244.188 100.388C243.706 100.268 243.253 100.006 242.865 99.6248C242.477 99.2433 242.165 98.7547 241.951 98.1931C241.742 97.6386 241.637 97.0275 241.646 96.4088C242.127 68.6607 244.652 39.2363 248.531 8.67996ZM229.978 10.7467C230.699 11.3711 230.876 12.6126 230.372 13.5078C229.873 14.41 228.882 14.6361 228.157 14.0047C227.438 13.3792 227.259 12.1394 227.764 11.2431C228.264 10.3392 229.256 10.1125 229.978 10.7467ZM242.916 22.3205C243.635 22.946 243.813 24.187 243.313 25.0903C242.809 25.9861 241.82 26.2094 241.095 25.578C240.375 24.9531 240.197 23.7127 240.702 22.8164C241.202 21.9136 242.197 21.6951 242.916 22.3205ZM251.985 110.241C252.372 110.454 252.675 110.85 252.83 111.344C252.981 111.832 252.973 112.382 252.802 112.863C252.632 113.345 252.314 113.722 251.924 113.919C251.531 114.108 251.091 114.093 250.704 113.88C250.317 113.667 250.014 113.272 249.863 112.785C249.708 112.29 249.72 111.747 249.886 111.258C250.057 110.776 250.375 110.4 250.769 110.21C251.163 110.02 251.598 110.029 251.985 110.241ZM239.336 116.93C239.722 117.144 240.025 117.54 240.18 118.034C240.33 118.521 240.323 119.071 240.152 119.553C239.982 120.034 239.664 120.411 239.274 120.608C238.88 120.797 238.441 120.783 238.054 120.57C237.668 120.356 237.364 119.961 237.214 119.473C237.059 118.979 237.071 118.436 237.241 117.954C237.407 117.466 237.725 117.09 238.119 116.9C238.513 116.71 238.948 116.718 239.336 116.93ZM245.391 128.335C245.778 128.549 246.081 128.945 246.236 129.439C246.386 129.926 246.378 130.476 246.208 130.958C246.038 131.439 245.72 131.816 245.33 132.013C244.936 132.203 244.496 132.188 244.11 131.975C243.723 131.761 243.42 131.366 243.269 130.879C243.114 130.384 243.126 129.841 243.297 129.359C243.463 128.871 243.781 128.495 244.175 128.305C244.569 128.115 245.004 128.123 245.391 128.335Z" fill="#CDE6CC"/>
<path d="M-26.3014 -42.8381C-26.5285 -42.192 -26.5759 -41.4764 -26.4355 -40.8049C-26.2945 -40.1264 -25.974 -39.5259 -25.5254 -39.1028C-10.1971 -24.6418 3.64552 -9.91511 15.845 5.10346C13.8213 6.92455 11.9083 8.94299 10.1398 11.1967C0.161871 23.9252 -0.0056265 43.1234 9.08411 52.8785C13.6433 57.7683 19.5547 58.8248 25.2853 57.233C31.0164 55.6411 36.741 51.5835 41.9032 46.1257C47.3642 40.3574 49.4693 32.0963 49.3405 24.3678C49.2117 16.6464 46.9977 9.28487 43.3068 4.46476C42.9427 3.98917 42.7918 3.88113 42.4576 3.54945C42.1241 3.21771 41.6996 2.80571 41.1816 2.31377C40.1454 1.32988 38.7431 0.0181749 37.0688 -1.55543C33.7203 -4.70266 29.2852 -8.89086 24.5954 -13.4766C15.5152 -22.3615 5.61394 -32.8045 0.87695 -39.7739C0.96256 -41.9979 1.86455 -44.9611 3.49305 -48.266L7.25391 -40.5099C7.3355 -40.3302 7.44639 -40.168 7.57982 -40.0367C7.71215 -39.9123 7.86476 -39.8185 8.02817 -39.7611C8.19105 -39.7107 8.36134 -39.6963 8.52835 -39.7237C8.69592 -39.7512 8.85572 -39.827 9.00046 -39.936C9.14573 -40.0381 9.27092 -40.1868 9.37084 -40.3536C9.4702 -40.5203 9.54098 -40.7117 9.57862 -40.9201C9.6168 -41.1215 9.62126 -41.3329 9.59201 -41.5401C9.56275 -41.7474 9.50089 -41.9436 9.40916 -42.1151L5.12332 -50.9526C5.09817 -51.0058 5.0702 -51.0586 5.04053 -51.1041C6.04831 -52.8223 7.23662 -54.5836 8.59417 -56.3656L10.8926 -49.2673C11.0164 -48.8889 11.2589 -48.5812 11.5654 -48.4219C11.873 -48.2556 12.2187 -48.2556 12.5287 -48.4059C12.8383 -48.5631 13.0858 -48.8604 13.2172 -49.2419C13.348 -49.6232 13.352 -50.0524 13.2271 -50.4377L10.5222 -58.7723C12.1195 -60.6749 13.8724 -62.5613 15.7512 -64.4139L17.2366 -56.1554C17.2693 -55.9556 17.3346 -55.7667 17.4285 -55.5955C17.5225 -55.4242 17.643 -55.2774 17.7837 -55.161C17.9234 -55.0516 18.0806 -54.9724 18.2452 -54.9362C18.4092 -54.9 18.5779 -54.9065 18.7415 -54.9476C18.9047 -54.9956 19.0594 -55.0777 19.1952 -55.1997C19.3316 -55.3217 19.4477 -55.4694 19.5359 -55.6488C19.6246 -55.8213 19.6836 -56.0182 19.71 -56.2253C19.7363 -56.4323 19.7301 -56.6353 19.6907 -56.8413L17.9826 -66.3307C17.9721 -66.3927 17.9576 -66.4542 17.9403 -66.5153C19.279 -67.7468 20.6789 -68.9436 22.1096 -70.1161L24.2413 -63.5456C24.3004 -63.3561 24.3904 -63.1773 24.5053 -63.0297C24.6207 -62.8751 24.7586 -62.7584 24.9119 -62.6788C25.0651 -62.592 25.2302 -62.5489 25.3972 -62.5482C25.5646 -62.5406 25.7306 -62.5819 25.8859 -62.6571C26.0407 -62.7392 26.1821 -62.8548 26.3016 -62.9959C26.42 -63.1439 26.5143 -63.317 26.5783 -63.5076C26.6423 -63.6981 26.6749 -63.9059 26.6738 -64.1165C26.6732 -64.3203 26.6389 -64.5269 26.5736 -64.7157L24.2641 -71.8407C25.6681 -72.9256 27.1075 -73.9586 28.5681 -74.952L30.0953 -70.2403C30.1567 -70.051 30.2484 -69.8725 30.3633 -69.7319C30.4787 -69.5843 30.6166 -69.4677 30.7682 -69.3878C30.9203 -69.308 31.0837 -69.2647 31.249 -69.2638C31.4142 -69.2628 31.5784 -69.2969 31.731 -69.3788C31.8846 -69.4537 32.0249 -69.5622 32.1427 -69.7101C32.2606 -69.851 32.3549 -70.0242 32.42 -70.2078C32.4846 -70.3984 32.5194 -70.5994 32.521 -70.8034C32.5227 -71.0074 32.4918 -71.2144 32.4304 -71.4037L30.7995 -76.426C31.7155 -77.0086 32.6337 -77.5845 33.5614 -78.1263C34.0664 -78.4199 34.4779 -78.9129 34.7325 -79.5272C34.987 -80.1415 35.0703 -80.8403 34.9687 -81.5166C34.8665 -82.1998 34.5865 -82.8122 34.1706 -83.2744C33.7553 -83.7297 33.2282 -84.0027 32.6725 -84.0544C25.38 -84.6613 17.7679 -85.0957 9.51132 -81.5512C1.26546 -78.0081 -7.44868 -70.5498 -17.1856 -56.0657L-17.1946 -56.0506L-25.8992 -43.625C-26.0645 -43.387 -26.1995 -43.1176 -26.3014 -42.8381ZM-20.3952 -41.9847L-13.3887 -51.9893C-13.378 -52.0047 -13.3667 -52.0202 -13.356 -52.0355C-4.00274 -65.9668 3.91552 -72.562 11.1502 -75.6655C15.1898 -77.3953 19.0842 -77.9619 22.9797 -78.107C16.6943 -73.4398 10.9342 -68.0496 6.36121 -62.467C-0.205595 -54.4485 -4.7308 -46.2645 -4.25107 -38.3891C-4.2128 -37.7613 -4.02104 -37.1593 -3.70193 -36.6712C1.53196 -28.6311 12.0079 -17.8505 21.4739 -8.59113C26.2074 -3.95447 30.6688 0.251594 34.0235 3.40509C35.7006 4.97836 37.1023 6.29715 38.1133 7.256C38.619 7.73539 39.0283 8.13518 39.3142 8.41652C39.6001 8.69787 39.8528 9.01131 39.6522 8.74765C42.2189 12.1027 44.2079 18.2409 44.3129 24.5106C44.3528 26.9091 44.1352 29.2968 43.6245 31.5868L42.4873 29.259C42.3699 29.0133 42.1996 28.8092 41.9948 28.6725C41.79 28.5359 41.5591 28.4727 41.3275 28.494C41.0959 28.5082 40.8725 28.6057 40.6821 28.7695C40.4928 28.9402 40.3421 29.1623 40.2498 29.4266C40.1683 29.6614 40.1328 29.9117 40.1478 30.1629C40.1629 30.414 40.2275 30.6592 40.336 30.8778L42.4812 35.2611C41.6812 37.2632 40.6096 39.1227 39.208 40.7554L36.5051 32.5048C36.4131 32.2138 36.2519 31.9594 36.0427 31.7882C35.833 31.61 35.5854 31.5137 35.3319 31.5166C35.0784 31.5194 34.8308 31.6129 34.6218 31.793C34.4123 31.9661 34.2514 32.2177 34.1607 32.5169C34.0417 32.8898 34.0468 33.3108 34.174 33.6817L37.183 42.8648C35.8903 44.1259 34.5754 45.2842 33.2502 46.3032L32.087 39.9449C32.0294 39.6076 31.8863 39.3088 31.6783 39.0882C31.4698 38.8677 31.2082 38.7309 30.934 38.7152C30.6592 38.6925 30.3863 38.7821 30.1582 38.9786C29.9295 39.1681 29.7568 39.4421 29.6672 39.7623C29.5894 40.0458 29.578 40.3494 29.6351 40.6376L30.9657 47.9243C29.5035 48.8828 28.0496 49.6715 26.6237 50.2742L24.1567 42.7468C24.0653 42.4557 23.9041 42.2014 23.6954 42.0301C23.4857 41.8519 23.238 41.7556 22.9851 41.7583C22.7316 41.7541 22.484 41.8546 22.275 42.0277C22.066 42.2078 21.9046 42.4594 21.8128 42.7517C21.6949 43.1315 21.7 43.5525 21.8272 43.9235L24.196 51.1537C24.1949 51.1538 24.1938 51.154 24.1927 51.1541C22.53 51.617 20.9602 51.8016 19.4755 51.7017L17.3191 45.1201C17.2271 44.8292 17.0664 44.5818 16.8572 44.4035C16.648 44.2252 16.4004 44.129 16.1469 44.1318C15.8939 44.1345 15.6464 44.228 15.4374 44.4081C15.2278 44.5813 15.067 44.8328 14.9746 45.1252C14.8567 45.505 14.8618 45.926 14.989 46.297L16.5493 51.0609C15.0551 50.4843 13.6636 49.5438 12.3806 48.1684C5.83557 41.1456 5.50392 26.0421 13.7443 15.5354L13.746 15.5352C16.1546 12.4585 18.5396 9.86249 21.035 8.19465C21.3785 7.963 21.6738 7.63877 21.8975 7.23903C22.1222 6.84618 22.2689 6.39262 22.327 5.91471C22.3844 5.43686 22.352 4.94887 22.2312 4.48575C22.111 4.02958 21.9058 3.61192 21.6324 3.26581C9.31488 -12.1881 -4.90521 -27.2201 -20.3952 -41.9847ZM-8.83196 -53.2904C-8.97523 -52.4507 -8.53838 -51.6255 -7.8604 -51.4553C-7.18187 -51.2781 -6.51386 -51.8163 -6.37114 -52.663C-6.22899 -53.5025 -6.66415 -54.3279 -7.34326 -54.498C-8.02347 -54.675 -8.69205 -54.1367 -8.83196 -53.2904ZM-11.2477 -38.0062C-11.3898 -37.1666 -10.9535 -36.3414 -10.2739 -36.1644C-9.59532 -35.9942 -8.93014 -36.5321 -8.78742 -37.3788C-8.64471 -38.2184 -9.0804 -39.0437 -9.7595 -39.2138C-10.4386 -39.3909 -11.1055 -38.8457 -11.2477 -38.0062ZM21.6905 18.0865C21.5607 18.4677 21.5579 18.8968 21.6834 19.282C21.8083 19.6603 22.0515 19.9679 22.3585 20.1272C22.6655 20.2865 23.0118 20.2865 23.3213 20.1363C23.6297 19.9792 23.8762 19.675 24.0064 19.2936C24.1361 18.9124 24.1389 18.4834 24.014 18.1051C23.8886 17.7199 23.646 17.4191 23.3384 17.2529C23.0313 17.0936 22.6851 17.0937 22.3761 17.2509C22.0671 17.4081 21.8207 17.7051 21.6905 18.0865ZM31.8656 13.3803C31.7359 13.7616 31.7336 14.1905 31.8591 14.5757C31.984 14.954 32.2271 15.2616 32.5342 15.4209C32.8407 15.5803 33.1869 15.5802 33.4964 15.43C33.8054 15.2729 34.0518 14.9687 34.1815 14.5875C34.3112 14.2062 34.314 13.7772 34.1891 13.3989C34.0637 13.0136 33.8211 12.713 33.514 12.5537C33.2065 12.3874 32.8608 12.3874 32.5518 12.5446C32.2428 12.7018 31.9959 12.999 31.8656 13.3803ZM33.3332 23.939C33.2035 24.3202 33.2013 24.7492 33.3267 25.1345C33.4516 25.5128 33.6948 25.8204 34.0018 25.9797C34.3083 26.139 34.6545 26.139 34.964 25.9888C35.273 25.8316 35.5194 25.5274 35.6492 25.1462C35.7789 24.7649 35.7817 24.3359 35.6568 23.9576C35.5313 23.5724 35.2887 23.2717 34.9817 23.1124C34.6741 22.9461 34.3284 22.9462 34.0194 23.1033C33.7104 23.2605 33.4635 23.5577 33.3332 23.939Z" fill="#CDE6CC"/>
<path d="M64.7279 134.462C63.3229 138.235 62.8408 140.636 60.5129 140.636C56.7661 140.636 55.127 138.901 55.127 135.491C55.127 132.081 58.6533 125.886 60.9812 125.886C63.3091 125.886 66.6013 129.431 64.7279 134.462Z" fill="#CDE6CC"/>
<path d="M170.361 154.928C166.447 161.217 165.104 165.219 158.619 165.219C148.182 165.219 143.615 162.327 143.615 156.643C143.615 150.96 153.439 140.636 159.923 140.636C166.408 140.636 175.579 146.544 170.361 154.928Z" fill="#CDE6CC"/>
<path d="M129.742 0.549501C125.828 6.83806 124.485 10.8399 118 10.8399C107.562 10.8399 102.996 7.94778 102.996 2.26456C102.996 -3.41865 112.819 -13.7427 119.304 -13.7427C125.789 -13.7427 134.96 -7.83524 129.742 0.549501Z" fill="#CDE6CC"/>
<path d="M70.6102 18.6918C69.4059 21.7103 68.9927 23.6312 66.9973 23.6312C63.7859 23.6312 62.3809 22.243 62.3809 19.515C62.3809 16.7871 65.4034 11.8315 67.3988 11.8315C69.3941 11.8315 72.216 14.6671 70.6102 18.6918Z" fill="#CDE6CC"/>
<path d="M140.714 41.8161C140.714 44.766 139.577 45.2576 138.175 45.2576C136.773 45.2576 134.186 44.2084 134.186 42.3077C134.186 40.407 136.773 38.3745 138.175 38.3745C139.577 38.3745 140.714 39.3578 140.714 41.8161Z" fill="#CDE6CC"/>
<path d="M155.948 7.39917C155.948 9.50625 155.19 9.85743 154.255 9.85743C153.321 9.85743 151.596 9.10801 151.596 7.75035C151.596 6.3927 153.321 4.94092 154.255 4.94092C155.19 4.94092 155.948 5.64328 155.948 7.39917Z" fill="#CDE6CC"/>
</g>
<path d="M92.0381 67.7589V37.8821H94.6444V67.7589H92.0381ZM93.0234 64.2627C91.2859 64.2627 89.6226 64.019 88.0334 63.5316C86.4442 63.0231 85.1834 62.3768 84.2511 61.5928L85.6814 58.3827C86.5713 59.0819 87.6732 59.6646 88.9869 60.1308C90.3006 60.5969 91.6461 60.83 93.0234 60.83C94.1888 60.83 95.1318 60.7029 95.8522 60.4486C96.5726 60.1943 97.1023 59.8553 97.4414 59.4315C97.7804 58.9866 97.9499 58.4886 97.9499 57.9377C97.9499 57.2596 97.7062 56.7193 97.2189 56.3167C96.7315 55.8929 96.0959 55.5645 95.3119 55.3314C94.5491 55.0771 93.6909 54.8441 92.7374 54.6322C91.8051 54.4203 90.8621 54.1766 89.9086 53.9011C88.9763 53.6045 88.1181 53.2337 87.3341 52.7887C86.5713 52.3226 85.9462 51.7081 85.4589 50.9453C84.9715 50.1824 84.7279 49.2077 84.7279 48.0211C84.7279 46.8134 85.0457 45.7115 85.6814 44.7156C86.3382 43.6986 87.3235 42.8934 88.6373 42.3001C89.9722 41.6856 91.6567 41.3783 93.6909 41.3783C95.0258 41.3783 96.3501 41.5478 97.6639 41.8869C98.9776 42.2259 100.122 42.7133 101.097 43.3489L99.7934 46.5591C98.7975 45.9658 97.7698 45.5314 96.7103 45.256C95.6509 44.9593 94.6338 44.811 93.6591 44.811C92.5149 44.811 91.5826 44.9487 90.8621 45.2242C90.1629 45.4996 89.6438 45.8598 89.3047 46.3048C88.9869 46.7498 88.828 47.2583 88.828 47.8304C88.828 48.5085 89.0611 49.0594 89.5272 49.4832C90.0146 49.8858 90.6396 50.2036 91.4025 50.4367C92.1865 50.6698 93.0552 50.9029 94.0087 51.136C94.9622 51.3479 95.9052 51.5915 96.8375 51.867C97.791 52.1424 98.6492 52.5027 99.412 52.9476C100.196 53.3926 100.821 53.9965 101.287 54.7593C101.775 55.5221 102.018 56.4862 102.018 57.6516C102.018 58.8382 101.69 59.9401 101.033 60.9571C100.397 61.953 99.412 62.7582 98.0771 63.3727C96.7421 63.966 95.0576 64.2627 93.0234 64.2627ZM104.24 63.9448V61.1796L113.076 52.7887C113.818 52.0895 114.369 51.475 114.729 50.9453C115.089 50.4155 115.322 49.9282 115.428 49.4832C115.555 49.017 115.619 48.5827 115.619 48.1801C115.619 47.163 115.269 46.379 114.57 45.8281C113.871 45.256 112.843 44.9699 111.487 44.9699C110.406 44.9699 109.421 45.1606 108.531 45.542C107.662 45.9234 106.91 46.5061 106.274 47.2901L103.382 45.0653C104.251 43.8998 105.416 42.9993 106.878 42.3636C108.361 41.7068 110.014 41.3783 111.836 41.3783C113.447 41.3783 114.845 41.6432 116.032 42.1729C117.24 42.6815 118.161 43.4125 118.797 44.366C119.454 45.3195 119.782 46.4531 119.782 47.7669C119.782 48.4873 119.687 49.2077 119.496 49.9282C119.306 50.6274 118.945 51.369 118.416 52.153C117.886 52.937 117.113 53.8164 116.095 54.7911L108.499 62.006L107.641 60.4486H120.641V63.9448H104.24ZM130.526 41.3783C132.56 41.3783 134.287 41.8127 135.707 42.6815C137.148 43.529 138.25 44.7686 139.013 46.4002C139.775 48.0317 140.157 50.0447 140.157 52.4391C140.157 54.9818 139.691 57.1325 138.758 58.8912C137.847 60.6499 136.576 61.9848 134.944 62.896C133.313 63.8071 131.416 64.2627 129.255 64.2627C128.132 64.2627 127.062 64.1461 126.045 63.913C125.028 63.68 124.148 63.3197 123.407 62.8324L124.932 59.7176C125.547 60.1202 126.214 60.4062 126.935 60.5757C127.655 60.7241 128.397 60.7982 129.16 60.7982C131.257 60.7982 132.921 60.152 134.15 58.8594C135.379 57.5669 135.993 55.6599 135.993 53.1383C135.993 52.7357 135.983 52.2696 135.961 51.7399C135.94 51.1889 135.866 50.638 135.739 50.0871L137.01 51.4856C136.65 52.3543 136.131 53.0854 135.453 53.6787C134.775 54.2508 133.98 54.6851 133.069 54.9818C132.158 55.2784 131.151 55.4268 130.05 55.4268C128.609 55.4268 127.306 55.1513 126.14 54.6004C124.996 54.0283 124.085 53.2337 123.407 52.2166C122.729 51.1783 122.39 49.9706 122.39 48.5933C122.39 47.11 122.75 45.8387 123.47 44.7792C124.191 43.6986 125.165 42.8616 126.394 42.2683C127.645 41.675 129.022 41.3783 130.526 41.3783ZM130.749 44.6203C129.901 44.6203 129.149 44.7792 128.492 45.097C127.835 45.3937 127.316 45.8281 126.935 46.4002C126.575 46.9511 126.394 47.6186 126.394 48.4026C126.394 49.568 126.797 50.4897 127.602 51.1677C128.407 51.8458 129.488 52.1848 130.844 52.1848C131.734 52.1848 132.518 52.0259 133.196 51.7081C133.874 51.369 134.404 50.9135 134.785 50.3414C135.167 49.7481 135.357 49.0912 135.357 48.3708C135.357 47.6715 135.177 47.0464 134.817 46.4955C134.457 45.9234 133.938 45.4678 133.26 45.1288C132.582 44.7898 131.745 44.6203 130.749 44.6203ZM145.059 64.1673C144.339 64.1673 143.724 63.9236 143.215 63.4363C142.707 62.9277 142.453 62.2921 142.453 61.5293C142.453 60.7241 142.707 60.0884 143.215 59.6222C143.724 59.1349 144.339 58.8912 145.059 58.8912C145.779 58.8912 146.394 59.1349 146.902 59.6222C147.411 60.0884 147.665 60.7241 147.665 61.5293C147.665 62.2921 147.411 62.9277 146.902 63.4363C146.394 63.9236 145.779 64.1673 145.059 64.1673ZM157.84 41.3783C159.875 41.3783 161.602 41.8127 163.021 42.6815C164.462 43.529 165.564 44.7686 166.327 46.4002C167.09 48.0317 167.471 50.0447 167.471 52.4391C167.471 54.9818 167.005 57.1325 166.073 58.8912C165.161 60.6499 163.89 61.9848 162.258 62.896C160.627 63.8071 158.73 64.2627 156.569 64.2627C155.446 64.2627 154.376 64.1461 153.359 63.913C152.342 63.68 151.463 63.3197 150.721 62.8324L152.247 59.7176C152.861 60.1202 153.528 60.4062 154.249 60.5757C154.969 60.7241 155.711 60.7982 156.474 60.7982C158.572 60.7982 160.235 60.152 161.464 58.8594C162.693 57.5669 163.307 55.6599 163.307 53.1383C163.307 52.7357 163.297 52.2696 163.276 51.7399C163.254 51.1889 163.18 50.638 163.053 50.0871L164.324 51.4856C163.964 52.3543 163.445 53.0854 162.767 53.6787C162.089 54.2508 161.294 54.6851 160.383 54.9818C159.472 55.2784 158.466 55.4268 157.364 55.4268C155.923 55.4268 154.62 55.1513 153.454 54.6004C152.31 54.0283 151.399 53.2337 150.721 52.2166C150.043 51.1783 149.704 49.9706 149.704 48.5933C149.704 47.11 150.064 45.8387 150.784 44.7792C151.505 43.6986 152.48 42.8616 153.709 42.2683C154.959 41.675 156.336 41.3783 157.84 41.3783ZM158.063 44.6203C157.215 44.6203 156.463 44.7792 155.806 45.097C155.149 45.3937 154.63 45.8281 154.249 46.4002C153.889 46.9511 153.709 47.6186 153.709 48.4026C153.709 49.568 154.111 50.4897 154.916 51.1677C155.722 51.8458 156.802 52.1848 158.158 52.1848C159.048 52.1848 159.832 52.0259 160.51 51.7081C161.188 51.369 161.718 50.9135 162.1 50.3414C162.481 49.7481 162.672 49.0912 162.672 48.3708C162.672 47.6715 162.492 47.0464 162.131 46.4955C161.771 45.9234 161.252 45.4678 160.574 45.1288C159.896 44.7898 159.059 44.6203 158.063 44.6203ZM177.767 41.3783C179.802 41.3783 181.529 41.8127 182.948 42.6815C184.389 43.529 185.491 44.7686 186.254 46.4002C187.017 48.0317 187.398 50.0447 187.398 52.4391C187.398 54.9818 186.932 57.1325 185.999 58.8912C185.088 60.6499 183.817 61.9848 182.185 62.896C180.554 63.8071 178.657 64.2627 176.496 64.2627C175.373 64.2627 174.303 64.1461 173.286 63.913C172.269 63.68 171.389 63.3197 170.648 62.8324L172.173 59.7176C172.788 60.1202 173.455 60.4062 174.176 60.5757C174.896 60.7241 175.638 60.7982 176.401 60.7982C178.498 60.7982 180.162 60.152 181.391 58.8594C182.62 57.5669 183.234 55.6599 183.234 53.1383C183.234 52.7357 183.224 52.2696 183.202 51.7399C183.181 51.1889 183.107 50.638 182.98 50.0871L184.251 51.4856C183.891 52.3543 183.372 53.0854 182.694 53.6787C182.016 54.2508 181.221 54.6851 180.31 54.9818C179.399 55.2784 178.393 55.4268 177.291 55.4268C175.85 55.4268 174.547 55.1513 173.381 54.6004C172.237 54.0283 171.326 53.2337 170.648 52.2166C169.97 51.1783 169.631 49.9706 169.631 48.5933C169.631 47.11 169.991 45.8387 170.711 44.7792C171.432 43.6986 172.407 42.8616 173.636 42.2683C174.886 41.675 176.263 41.3783 177.767 41.3783ZM177.99 44.6203C177.142 44.6203 176.39 44.7792 175.733 45.097C175.076 45.3937 174.557 45.8281 174.176 46.4002C173.816 46.9511 173.636 47.6186 173.636 48.4026C173.636 49.568 174.038 50.4897 174.843 51.1677C175.649 51.8458 176.729 52.1848 178.085 52.1848C178.975 52.1848 179.759 52.0259 180.437 51.7081C181.115 51.369 181.645 50.9135 182.026 50.3414C182.408 49.7481 182.599 49.0912 182.599 48.3708C182.599 47.6715 182.418 47.0464 182.058 46.4955C181.698 45.9234 181.179 45.4678 180.501 45.1288C179.823 44.7898 178.986 44.6203 177.99 44.6203Z" fill="#59371D"/>
<path d="M102.168 86.7034V96.7134H100.725V85.0893H102.044L102.168 86.7034ZM107.825 89.2175V89.3805C107.825 89.9909 107.753 90.5574 107.608 91.0798C107.463 91.5972 107.251 92.0472 106.972 92.43C106.697 92.8128 106.359 93.1103 105.955 93.3224C105.552 93.5345 105.089 93.6405 104.566 93.6405C104.033 93.6405 103.563 93.5526 103.154 93.3767C102.745 93.2008 102.399 92.9448 102.114 92.6085C101.829 92.2722 101.602 91.8687 101.431 91.398C101.266 90.9272 101.152 90.397 101.09 89.8072V88.9382C101.152 88.3174 101.268 87.7613 101.439 87.2698C101.61 86.7784 101.835 86.3593 102.114 86.0127C102.399 85.661 102.743 85.3946 103.146 85.2135C103.55 85.0273 104.015 84.9341 104.543 84.9341C105.07 84.9341 105.539 85.0376 105.947 85.2445C106.356 85.4463 106.7 85.736 106.979 86.1136C107.259 86.4913 107.468 86.9439 107.608 87.4716C107.753 87.9941 107.825 88.576 107.825 89.2175ZM106.382 89.3805V89.2175C106.382 88.7985 106.338 88.4053 106.25 88.038C106.162 87.6656 106.025 87.3397 105.839 87.0603C105.658 86.7758 105.425 86.5533 105.14 86.393C104.856 86.2274 104.517 86.1447 104.124 86.1447C103.762 86.1447 103.446 86.2067 103.177 86.3309C102.913 86.4551 102.688 86.6232 102.502 86.8353C102.316 87.0422 102.163 87.2802 102.044 87.5492C101.93 87.813 101.845 88.0872 101.788 88.3717V90.3815C101.892 90.7436 102.036 91.085 102.223 91.4057C102.409 91.7213 102.657 91.9774 102.968 92.174C103.278 92.3654 103.669 92.4611 104.139 92.4611C104.527 92.4611 104.861 92.3809 105.14 92.2205C105.425 92.055 105.658 91.8299 105.839 91.5454C106.025 91.2609 106.162 90.935 106.25 90.5677C106.338 90.1952 106.382 89.7995 106.382 89.3805ZM113.141 93.6405C112.556 93.6405 112.026 93.5423 111.55 93.3457C111.079 93.1439 110.673 92.862 110.332 92.4999C109.995 92.1377 109.737 91.7084 109.556 91.2118C109.375 90.7151 109.284 90.172 109.284 89.5822V89.2563C109.284 88.5735 109.385 87.9656 109.587 87.4328C109.788 86.8948 110.063 86.4395 110.409 86.0671C110.756 85.6946 111.149 85.4127 111.589 85.2213C112.028 85.0299 112.484 84.9341 112.954 84.9341C113.554 84.9341 114.072 85.0376 114.506 85.2445C114.946 85.4515 115.306 85.7412 115.585 86.1136C115.864 86.4809 116.071 86.9155 116.206 87.4173C116.34 87.9139 116.407 88.4571 116.407 89.0468V89.6909H110.138V88.5191H114.972V88.4105C114.951 88.038 114.874 87.6759 114.739 87.3241C114.61 86.9724 114.403 86.6827 114.118 86.4551C113.834 86.2274 113.446 86.1136 112.954 86.1136C112.628 86.1136 112.328 86.1835 112.054 86.3231C111.78 86.4576 111.545 86.6594 111.348 86.9284C111.151 87.1974 110.999 87.5259 110.89 87.9139C110.782 88.3019 110.727 88.7493 110.727 89.2563V89.5822C110.727 89.9805 110.782 90.3556 110.89 90.7074C111.004 91.054 111.167 91.3592 111.379 91.623C111.596 91.8869 111.858 92.0938 112.163 92.2438C112.473 92.3938 112.825 92.4688 113.218 92.4688C113.725 92.4688 114.155 92.3654 114.506 92.1584C114.858 91.9515 115.166 91.6748 115.43 91.3282L116.299 92.0188C116.118 92.2929 115.888 92.5542 115.608 92.8025C115.329 93.0508 114.985 93.2526 114.576 93.4078C114.173 93.5629 113.694 93.6405 113.141 93.6405ZM119.519 86.4085V93.4854H118.084V85.0893H119.48L119.519 86.4085ZM122.142 85.0428L122.134 86.3775C122.015 86.3516 121.901 86.3361 121.793 86.3309C121.689 86.3205 121.57 86.3154 121.436 86.3154C121.105 86.3154 120.812 86.3671 120.559 86.4706C120.305 86.574 120.091 86.7189 119.915 86.9051C119.739 87.0913 119.599 87.3138 119.496 87.5725C119.397 87.8259 119.333 88.1053 119.302 88.4105L118.898 88.6433C118.898 88.1363 118.947 87.6604 119.046 87.2155C119.149 86.7706 119.307 86.3775 119.519 86.036C119.731 85.6894 120 85.4204 120.326 85.229C120.657 85.0324 121.05 84.9341 121.506 84.9341C121.609 84.9341 121.728 84.9471 121.862 84.9729C121.997 84.9936 122.09 85.0169 122.142 85.0428ZM128.838 86.7577V93.4854H127.395V85.0893H128.761L128.838 86.7577ZM128.544 88.9692L127.876 88.9459C127.881 88.3717 127.956 87.8415 128.101 87.3552C128.246 86.8637 128.461 86.4369 128.745 86.0748C129.03 85.7127 129.384 85.4334 129.808 85.2368C130.233 85.035 130.724 84.9341 131.283 84.9341C131.676 84.9341 132.038 84.9911 132.369 85.1049C132.7 85.2135 132.987 85.3868 133.23 85.6248C133.474 85.8627 133.662 86.1679 133.797 86.5404C133.931 86.9129 133.999 87.3629 133.999 87.8906V93.4854H132.563V87.9604C132.563 87.5207 132.488 87.1689 132.338 86.9051C132.193 86.6413 131.986 86.4499 131.717 86.3309C131.448 86.2067 131.133 86.1447 130.771 86.1447C130.346 86.1447 129.992 86.2197 129.708 86.3697C129.423 86.5197 129.195 86.7266 129.025 86.9905C128.854 87.2543 128.73 87.5569 128.652 87.8984C128.58 88.2346 128.544 88.5916 128.544 88.9692ZM133.983 88.1777L133.021 88.4726C133.026 88.0122 133.101 87.5699 133.246 87.1457C133.396 86.7215 133.611 86.3438 133.89 86.0127C134.175 85.6817 134.524 85.4204 134.938 85.229C135.351 85.0324 135.825 84.9341 136.358 84.9341C136.808 84.9341 137.206 84.9936 137.553 85.1126C137.904 85.2316 138.199 85.4152 138.437 85.6636C138.68 85.9067 138.864 86.2197 138.988 86.6025C139.112 86.9853 139.174 87.4405 139.174 87.9682V93.4854H137.731V87.9527C137.731 87.4819 137.656 87.1172 137.506 86.8586C137.361 86.5947 137.154 86.4111 136.885 86.3076C136.621 86.199 136.306 86.1447 135.939 86.1447C135.623 86.1447 135.344 86.199 135.101 86.3076C134.857 86.4163 134.653 86.5663 134.488 86.7577C134.322 86.9439 134.195 87.1586 134.107 87.4017C134.025 87.6449 133.983 87.9035 133.983 88.1777ZM140.967 89.3805V89.202C140.967 88.5967 141.055 88.0354 141.231 87.5181C141.407 86.9956 141.66 86.543 141.991 86.1602C142.322 85.7722 142.723 85.4722 143.194 85.2601C143.665 85.0428 144.192 84.9341 144.777 84.9341C145.367 84.9341 145.897 85.0428 146.368 85.2601C146.844 85.4722 147.247 85.7722 147.578 86.1602C147.914 86.543 148.171 86.9956 148.346 87.5181C148.522 88.0354 148.61 88.5967 148.61 89.202V89.3805C148.61 89.9857 148.522 90.547 148.346 91.0643C148.171 91.5816 147.914 92.0343 147.578 92.4223C147.247 92.8051 146.846 93.1051 146.375 93.3224C145.91 93.5345 145.382 93.6405 144.792 93.6405C144.203 93.6405 143.672 93.5345 143.202 93.3224C142.731 93.1051 142.327 92.8051 141.991 92.4223C141.66 92.0343 141.407 91.5816 141.231 91.0643C141.055 90.547 140.967 89.9857 140.967 89.3805ZM142.402 89.202V89.3805C142.402 89.7995 142.452 90.1952 142.55 90.5677C142.648 90.935 142.796 91.2609 142.992 91.5454C143.194 91.8299 143.445 92.055 143.745 92.2205C144.045 92.3809 144.394 92.4611 144.792 92.4611C145.186 92.4611 145.53 92.3809 145.824 92.2205C146.125 92.055 146.373 91.8299 146.569 91.5454C146.766 91.2609 146.913 90.935 147.012 90.5677C147.115 90.1952 147.167 89.7995 147.167 89.3805V89.202C147.167 88.7881 147.115 88.3976 147.012 88.0303C146.913 87.6578 146.763 87.3293 146.562 87.0448C146.365 86.7551 146.117 86.5275 145.817 86.3619C145.522 86.1964 145.175 86.1136 144.777 86.1136C144.384 86.1136 144.037 86.1964 143.737 86.3619C143.442 86.5275 143.194 86.7551 142.992 87.0448C142.796 87.3293 142.648 87.6578 142.55 88.0303C142.452 88.3976 142.402 88.7881 142.402 89.202ZM151.846 86.8818V93.4854H150.41V85.0893H151.768L151.846 86.8818ZM151.505 88.9692L150.907 88.9459C150.912 88.3717 150.998 87.8415 151.163 87.3552C151.329 86.8637 151.562 86.4369 151.862 86.0748C152.162 85.7127 152.519 85.4334 152.932 85.2368C153.351 85.035 153.814 84.9341 154.321 84.9341C154.735 84.9341 155.108 84.9911 155.439 85.1049C155.77 85.2135 156.052 85.3894 156.285 85.6325C156.523 85.8757 156.704 86.1912 156.828 86.5792C156.952 86.962 157.014 87.4302 157.014 87.9837V93.4854H155.571V87.9682C155.571 87.5285 155.506 87.1767 155.377 86.9129C155.247 86.6439 155.059 86.4499 154.81 86.3309C154.562 86.2067 154.257 86.1447 153.895 86.1447C153.538 86.1447 153.212 86.2197 152.917 86.3697C152.627 86.5197 152.376 86.7266 152.164 86.9905C151.957 87.2543 151.794 87.5569 151.675 87.8984C151.562 88.2346 151.505 88.5916 151.505 88.9692ZM162.71 85.0893V86.1912H158.17V85.0893H162.71ZM159.707 83.0485H161.142V91.4057C161.142 91.6903 161.186 91.905 161.274 92.0498C161.362 92.1947 161.476 92.2904 161.615 92.3369C161.755 92.3835 161.905 92.4068 162.066 92.4068C162.185 92.4068 162.309 92.3964 162.438 92.3757C162.573 92.3498 162.673 92.3292 162.741 92.3136L162.748 93.4854C162.635 93.5216 162.485 93.5552 162.298 93.5862C162.117 93.6224 161.897 93.6405 161.639 93.6405C161.287 93.6405 160.964 93.5707 160.669 93.431C160.374 93.2914 160.139 93.0586 159.963 92.7327C159.792 92.4016 159.707 91.9567 159.707 91.398V83.0485ZM165.829 81.5664V93.4854H164.393V81.5664H165.829ZM165.488 88.9692L164.89 88.9459C164.895 88.3717 164.981 87.8415 165.146 87.3552C165.312 86.8637 165.545 86.4369 165.845 86.0748C166.145 85.7127 166.502 85.4334 166.915 85.2368C167.334 85.035 167.797 84.9341 168.304 84.9341C168.718 84.9341 169.091 84.9911 169.422 85.1049C169.753 85.2135 170.035 85.3894 170.268 85.6325C170.506 85.8757 170.687 86.1912 170.811 86.5792C170.935 86.962 170.997 87.4302 170.997 87.9837V93.4854H169.554V87.9682C169.554 87.5285 169.489 87.1767 169.36 86.9129C169.23 86.6439 169.042 86.4499 168.793 86.3309C168.545 86.2067 168.24 86.1447 167.878 86.1447C167.521 86.1447 167.195 86.2197 166.9 86.3697C166.61 86.5197 166.359 86.7266 166.147 86.9905C165.94 87.2543 165.777 87.5569 165.658 87.8984C165.545 88.2346 165.488 88.5916 165.488 88.9692Z" fill="#1C1A1A"/>
<rect x="62.334" y="108.566" width="147.61" height="52" rx="9.08108" fill="#75C973"/>
<path d="M80.8852 139.861H82.3987V139.104H83.1555C83.3699 139.104 83.5496 139.032 83.6946 138.887C83.8397 138.742 83.9122 138.562 83.9122 138.347V136.077C83.9122 135.863 83.8397 135.683 83.6946 135.538C83.5496 135.393 83.3699 135.32 83.1555 135.32H80.8852V134.564H83.9122V133.05H82.3987V132.293H80.8852V133.05H80.1284C79.914 133.05 79.7343 133.123 79.5892 133.268C79.4442 133.413 79.3717 133.592 79.3717 133.807V136.077C79.3717 136.292 79.4442 136.471 79.5892 136.616C79.7343 136.761 79.914 136.834 80.1284 136.834H82.3987V137.591H79.3717V139.104H80.8852V139.861ZM77.1014 142.131C76.6852 142.131 76.3289 141.983 76.0325 141.687C75.7361 141.39 75.5879 141.034 75.5879 140.618V128.51C75.5879 128.093 75.7361 127.737 76.0325 127.441C76.3289 127.144 76.6852 126.996 77.1014 126.996H83.1555L87.696 131.537V140.618C87.696 141.034 87.5478 141.39 87.2514 141.687C86.955 141.983 86.5987 142.131 86.1825 142.131H77.1014ZM82.3987 131.537V128.51H77.1014V140.618H86.1825V131.537H82.3987Z" fill="black"/>
<path d="M107.469 136.283H110.121C110.067 137.152 109.828 137.924 109.402 138.598C108.983 139.272 108.394 139.798 107.638 140.176C106.887 140.555 105.982 140.744 104.924 140.744C104.096 140.744 103.354 140.602 102.698 140.318C102.042 140.028 101.48 139.615 101.013 139.077C100.552 138.539 100.2 137.888 99.9576 137.126C99.7152 136.363 99.594 135.509 99.594 134.563V133.667C99.594 132.721 99.7182 131.867 99.9665 131.104C100.221 130.335 100.581 129.682 101.048 129.144C101.521 128.606 102.086 128.192 102.742 127.903C103.398 127.613 104.132 127.468 104.942 127.468C106.018 127.468 106.925 127.663 107.664 128.053C108.409 128.444 108.985 128.982 109.393 129.667C109.807 130.353 110.056 131.134 110.138 132.009H107.478C107.448 131.488 107.345 131.048 107.167 130.687C106.99 130.321 106.721 130.046 106.36 129.862C106.006 129.673 105.533 129.579 104.942 129.579C104.498 129.579 104.111 129.661 103.78 129.827C103.449 129.993 103.171 130.244 102.946 130.581C102.722 130.918 102.553 131.343 102.441 131.858C102.334 132.366 102.281 132.963 102.281 133.649V134.563C102.281 135.231 102.331 135.819 102.432 136.327C102.532 136.83 102.686 137.256 102.893 137.604C103.106 137.947 103.378 138.207 103.709 138.385C104.046 138.556 104.451 138.642 104.924 138.642C105.48 138.642 105.938 138.553 106.298 138.376C106.659 138.199 106.934 137.935 107.123 137.587C107.318 137.238 107.434 136.803 107.469 136.283ZM117.384 138.27V130.971H119.938V140.566H117.534L117.384 138.27ZM117.667 136.301L118.421 136.283C118.421 136.922 118.347 137.516 118.2 138.066C118.052 138.609 117.83 139.082 117.534 139.484C117.239 139.881 116.866 140.191 116.417 140.416C115.968 140.634 115.439 140.744 114.83 140.744C114.363 140.744 113.931 140.679 113.535 140.549C113.145 140.413 112.808 140.203 112.524 139.919C112.246 139.629 112.027 139.26 111.868 138.81C111.714 138.355 111.637 137.808 111.637 137.17V130.971H114.191V137.188C114.191 137.471 114.224 137.711 114.289 137.906C114.36 138.101 114.457 138.261 114.581 138.385C114.706 138.509 114.85 138.598 115.016 138.651C115.187 138.704 115.377 138.731 115.583 138.731C116.11 138.731 116.523 138.624 116.825 138.411C117.132 138.199 117.348 137.909 117.472 137.542C117.602 137.17 117.667 136.756 117.667 136.301ZM124.443 133.064V140.566H121.889V130.971H124.292L124.443 133.064ZM127.334 130.909L127.29 133.277C127.165 133.259 127.015 133.244 126.837 133.232C126.666 133.215 126.509 133.206 126.367 133.206C126.007 133.206 125.693 133.253 125.427 133.348C125.167 133.436 124.948 133.569 124.771 133.747C124.6 133.924 124.469 134.14 124.381 134.394C124.298 134.648 124.251 134.938 124.239 135.263L123.725 135.104C123.725 134.483 123.787 133.912 123.911 133.392C124.035 132.866 124.215 132.408 124.452 132.017C124.694 131.627 124.99 131.326 125.339 131.113C125.687 130.9 126.086 130.794 126.536 130.794C126.678 130.794 126.822 130.805 126.97 130.829C127.118 130.847 127.239 130.873 127.334 130.909ZM131.094 133.064V140.566H128.54V130.971H130.943L131.094 133.064ZM133.985 130.909L133.941 133.277C133.817 133.259 133.666 133.244 133.488 133.232C133.317 133.215 133.16 133.206 133.018 133.206C132.658 133.206 132.344 133.253 132.078 133.348C131.818 133.436 131.6 133.569 131.422 133.747C131.251 133.924 131.121 134.14 131.032 134.394C130.949 134.648 130.902 134.938 130.89 135.263L130.376 135.104C130.376 134.483 130.438 133.912 130.562 133.392C130.686 132.866 130.866 132.408 131.103 132.017C131.345 131.627 131.641 131.326 131.99 131.113C132.339 130.9 132.738 130.794 133.187 130.794C133.329 130.794 133.474 130.805 133.621 130.829C133.769 130.847 133.89 130.873 133.985 130.909ZM139.43 140.744C138.685 140.744 138.017 140.626 137.426 140.389C136.835 140.147 136.332 139.813 135.918 139.387C135.51 138.961 135.197 138.468 134.978 137.906C134.76 137.338 134.65 136.735 134.65 136.097V135.742C134.65 135.015 134.754 134.35 134.961 133.747C135.167 133.144 135.463 132.62 135.847 132.177C136.238 131.734 136.711 131.394 137.266 131.157C137.822 130.915 138.449 130.794 139.146 130.794C139.826 130.794 140.429 130.906 140.956 131.131C141.482 131.355 141.922 131.675 142.277 132.088C142.638 132.502 142.909 132.999 143.093 133.578C143.276 134.152 143.368 134.79 143.368 135.494V136.558H135.741V134.855H140.858V134.66C140.858 134.305 140.793 133.989 140.663 133.711C140.539 133.427 140.35 133.203 140.095 133.037C139.841 132.872 139.516 132.789 139.12 132.789C138.783 132.789 138.493 132.863 138.251 133.011C138.008 133.158 137.81 133.365 137.657 133.631C137.509 133.897 137.396 134.211 137.32 134.571C137.249 134.926 137.213 135.316 137.213 135.742V136.097C137.213 136.481 137.266 136.836 137.373 137.161C137.485 137.486 137.642 137.767 137.843 138.003C138.05 138.24 138.298 138.423 138.588 138.553C138.883 138.683 139.217 138.748 139.59 138.748C140.051 138.748 140.48 138.66 140.876 138.482C141.278 138.299 141.624 138.024 141.913 137.658L143.155 139.006C142.954 139.295 142.679 139.573 142.33 139.839C141.987 140.105 141.573 140.324 141.089 140.495C140.604 140.661 140.051 140.744 139.43 140.744ZM147.323 133.02V140.566H144.769V130.971H147.163L147.323 133.02ZM146.95 135.432H146.259C146.259 134.722 146.35 134.084 146.534 133.516C146.717 132.943 146.974 132.455 147.305 132.053C147.636 131.645 148.029 131.335 148.485 131.122C148.946 130.903 149.46 130.794 150.028 130.794C150.477 130.794 150.888 130.859 151.26 130.989C151.633 131.119 151.952 131.326 152.218 131.609C152.49 131.893 152.697 132.269 152.839 132.736C152.987 133.203 153.061 133.773 153.061 134.447V140.566H150.489V134.438C150.489 134.013 150.43 133.682 150.311 133.445C150.193 133.209 150.019 133.043 149.788 132.949C149.564 132.848 149.286 132.798 148.955 132.798C148.612 132.798 148.313 132.866 148.059 133.002C147.811 133.138 147.604 133.327 147.438 133.569C147.279 133.806 147.157 134.084 147.075 134.403C146.992 134.722 146.95 135.065 146.95 135.432ZM159.703 130.971V132.78H154.116V130.971H159.703ZM155.499 128.603H158.053V137.675C158.053 137.953 158.089 138.166 158.16 138.314C158.237 138.462 158.349 138.565 158.497 138.624C158.645 138.677 158.831 138.704 159.056 138.704C159.215 138.704 159.357 138.698 159.481 138.686C159.611 138.669 159.721 138.651 159.809 138.633L159.818 140.513C159.6 140.584 159.363 140.64 159.109 140.682C158.855 140.723 158.574 140.744 158.266 140.744C157.705 140.744 157.214 140.652 156.794 140.469C156.38 140.28 156.061 139.978 155.836 139.564C155.612 139.15 155.499 138.607 155.499 137.933V128.603ZM168.234 132.816V144.256H165.68V130.971H168.048L168.234 132.816ZM174.309 135.662V135.849C174.309 136.546 174.226 137.194 174.061 137.791C173.901 138.388 173.665 138.908 173.351 139.351C173.038 139.789 172.648 140.132 172.181 140.38C171.719 140.623 171.187 140.744 170.584 140.744C169.999 140.744 169.491 140.626 169.059 140.389C168.627 140.153 168.264 139.821 167.968 139.396C167.678 138.964 167.445 138.465 167.268 137.897C167.09 137.329 166.954 136.721 166.86 136.07V135.582C166.954 134.885 167.09 134.246 167.268 133.667C167.445 133.082 167.678 132.576 167.968 132.15C168.264 131.719 168.624 131.385 169.05 131.148C169.482 130.912 169.987 130.794 170.567 130.794C171.176 130.794 171.711 130.909 172.172 131.139C172.639 131.37 173.029 131.701 173.342 132.133C173.662 132.564 173.901 133.079 174.061 133.676C174.226 134.273 174.309 134.935 174.309 135.662ZM171.746 135.849V135.662C171.746 135.254 171.711 134.879 171.64 134.536C171.575 134.187 171.468 133.883 171.32 133.623C171.178 133.362 170.989 133.161 170.753 133.02C170.522 132.872 170.241 132.798 169.91 132.798C169.561 132.798 169.263 132.854 169.015 132.966C168.772 133.079 168.574 133.241 168.42 133.454C168.267 133.667 168.151 133.921 168.075 134.217C167.998 134.512 167.95 134.846 167.933 135.219V136.452C167.962 136.889 168.045 137.282 168.181 137.631C168.317 137.974 168.527 138.246 168.811 138.447C169.094 138.648 169.467 138.748 169.928 138.748C170.265 138.748 170.549 138.675 170.779 138.527C171.01 138.373 171.196 138.163 171.338 137.897C171.486 137.631 171.589 137.324 171.648 136.975C171.714 136.626 171.746 136.251 171.746 135.849ZM178.592 126.945V140.566H176.029V126.945H178.592ZM185.882 138.403V134.128C185.882 133.821 185.832 133.558 185.731 133.339C185.631 133.114 185.474 132.94 185.261 132.816C185.054 132.691 184.785 132.629 184.454 132.629C184.17 132.629 183.925 132.68 183.718 132.78C183.511 132.875 183.352 133.014 183.239 133.197C183.127 133.374 183.071 133.584 183.071 133.827H180.517C180.517 133.419 180.611 133.031 180.801 132.665C180.99 132.298 181.265 131.976 181.625 131.698C181.986 131.414 182.415 131.193 182.911 131.033C183.414 130.873 183.975 130.794 184.596 130.794C185.341 130.794 186.003 130.918 186.583 131.166C187.162 131.414 187.617 131.787 187.948 132.283C188.285 132.78 188.454 133.401 188.454 134.146V138.252C188.454 138.778 188.486 139.21 188.551 139.547C188.616 139.878 188.711 140.167 188.835 140.416V140.566H186.254C186.13 140.306 186.036 139.981 185.971 139.591C185.912 139.195 185.882 138.799 185.882 138.403ZM186.219 134.722L186.237 136.168H184.809C184.472 136.168 184.179 136.206 183.931 136.283C183.683 136.36 183.479 136.469 183.319 136.611C183.159 136.747 183.041 136.907 182.964 137.09C182.893 137.273 182.858 137.474 182.858 137.693C182.858 137.912 182.908 138.11 183.009 138.287C183.109 138.459 183.254 138.595 183.443 138.695C183.632 138.79 183.854 138.837 184.108 138.837C184.493 138.837 184.827 138.76 185.11 138.607C185.394 138.453 185.613 138.264 185.767 138.039C185.926 137.814 186.009 137.601 186.015 137.4L186.689 138.482C186.594 138.725 186.464 138.976 186.299 139.236C186.139 139.496 185.935 139.742 185.687 139.972C185.439 140.197 185.14 140.383 184.791 140.531C184.442 140.673 184.029 140.744 183.55 140.744C182.941 140.744 182.388 140.623 181.891 140.38C181.401 140.132 181.01 139.792 180.721 139.36C180.437 138.923 180.295 138.426 180.295 137.87C180.295 137.368 180.39 136.922 180.579 136.531C180.768 136.141 181.046 135.813 181.412 135.547C181.785 135.275 182.249 135.071 182.805 134.935C183.36 134.793 184.005 134.722 184.738 134.722H186.219ZM192.923 133.02V140.566H190.369V130.971H192.764L192.923 133.02ZM192.551 135.432H191.859C191.859 134.722 191.951 134.084 192.134 133.516C192.317 132.943 192.575 132.455 192.906 132.053C193.237 131.645 193.63 131.335 194.085 131.122C194.546 130.903 195.061 130.794 195.628 130.794C196.078 130.794 196.488 130.859 196.861 130.989C197.233 131.119 197.553 131.326 197.819 131.609C198.091 131.893 198.298 132.269 198.439 132.736C198.587 133.203 198.661 133.773 198.661 134.447V140.566H196.089V134.438C196.089 134.013 196.03 133.682 195.912 133.445C195.794 133.209 195.619 133.043 195.389 132.949C195.164 132.848 194.886 132.798 194.555 132.798C194.212 132.798 193.914 132.866 193.659 133.002C193.411 133.138 193.204 133.327 193.039 133.569C192.879 133.806 192.758 134.084 192.675 134.403C192.592 134.722 192.551 135.065 192.551 135.432Z" fill="#112211"/>
</svg>
