<svg width="272" height="60" viewBox="0 0 272 60" fill="none" xmlns="http://www.w3.org/2000/svg">
<path d="M13.6221 1.13477H258.378C265.274 1.13477 270.865 6.72597 270.865 13.6221V57.8916H1.13477V13.6221C1.13477 6.72597 6.72597 1.13477 13.6221 1.13477Z" fill="#519750"/>
<path d="M13.6221 1.13477H258.378C265.274 1.13477 270.865 6.72597 270.865 13.6221V57.8916H1.13477V13.6221C1.13477 6.72597 6.72597 1.13477 13.6221 1.13477Z" stroke="#FCF0D8" stroke-width="2.27027"/>
<path d="M25.2764 22.5749V35.5137H22.7223V25.5192L19.6539 26.4947V24.4816L25.0015 22.5749H25.2764ZM34.6235 28.9689V30.9731H29.613V28.9689H34.6235ZM38.1265 22.6015H40.379L43.6957 32.0817L47.0125 22.6015H49.265L44.6003 35.5137H42.7912L38.1265 22.6015ZM36.9115 22.6015H39.1552L39.5631 31.8422V35.5137H36.9115V22.6015ZM48.2363 22.6015H50.4888V35.5137H47.8283V31.8422L48.2363 22.6015ZM52.2536 30.8135V30.6273C52.2536 29.9237 52.3541 29.2763 52.5551 28.6851C52.7561 28.088 53.0488 27.5707 53.4331 27.1332C53.8174 26.6957 54.2903 26.3557 54.852 26.1133C55.4136 25.865 56.0581 25.7409 56.7853 25.7409C57.5125 25.7409 58.1598 25.865 58.7274 26.1133C59.295 26.3557 59.7709 26.6957 60.1552 27.1332C60.5454 27.5707 60.841 28.088 61.042 28.6851C61.243 29.2763 61.3435 29.9237 61.3435 30.6273V30.8135C61.3435 31.5111 61.243 32.1585 61.042 32.7556C60.841 33.3469 60.5454 33.8642 60.1552 34.3076C59.7709 34.7451 59.2979 35.085 58.7363 35.3274C58.1746 35.5698 57.5302 35.691 56.803 35.691C56.0758 35.691 55.4284 35.5698 54.8609 35.3274C54.2992 35.085 53.8233 34.7451 53.4331 34.3076C53.0488 33.8642 52.7561 33.3469 52.5551 32.7556C52.3541 32.1585 52.2536 31.5111 52.2536 30.8135ZM54.8076 30.6273V30.8135C54.8076 31.2155 54.8431 31.591 54.9141 31.9398C54.985 32.2886 55.0973 32.596 55.2511 32.8621C55.4107 33.1222 55.6176 33.3262 55.8718 33.474C56.1261 33.6218 56.4364 33.6957 56.803 33.6957C57.1577 33.6957 57.4622 33.6218 57.7164 33.474C57.9707 33.3262 58.1746 33.1222 58.3283 32.8621C58.4821 32.596 58.5944 32.2886 58.6653 31.9398C58.7422 31.591 58.7806 31.2155 58.7806 30.8135V30.6273C58.7806 30.2371 58.7422 29.8705 58.6653 29.5276C58.5944 29.1788 58.4791 28.8714 58.3195 28.6053C58.1658 28.3334 57.9618 28.1205 57.7076 27.9668C57.4533 27.8131 57.1459 27.7362 56.7853 27.7362C56.4246 27.7362 56.1172 27.8131 55.863 27.9668C55.6147 28.1205 55.4107 28.3334 55.2511 28.6053C55.0973 28.8714 54.985 29.1788 54.9141 29.5276C54.8431 29.8705 54.8076 30.2371 54.8076 30.6273ZM65.4141 27.9668V35.5137H62.86V25.9182H65.2544L65.4141 27.9668ZM65.0416 30.379H64.3499C64.3499 29.6695 64.4415 29.031 64.6248 28.4634C64.8081 27.8899 65.0652 27.4022 65.3963 27.0002C65.7274 26.5922 66.1206 26.2818 66.5758 26.069C67.037 25.8502 67.5513 25.7409 68.1189 25.7409C68.5682 25.7409 68.9791 25.8059 69.3516 25.936C69.724 26.066 70.0433 26.273 70.3093 26.5567C70.5813 26.8405 70.7882 27.216 70.9301 27.683C71.0779 28.1501 71.1518 28.7206 71.1518 29.3946V35.5137H68.58V29.3857C68.58 28.96 68.5209 28.629 68.4027 28.3925C68.2844 28.156 68.11 27.9904 67.8794 27.8959C67.6548 27.7953 67.3769 27.7451 67.0458 27.7451C66.7029 27.7451 66.4044 27.8131 66.1501 27.9491C65.9018 28.085 65.6949 28.2742 65.5294 28.5166C65.3697 28.7531 65.2485 29.031 65.1658 29.3502C65.083 29.6695 65.0416 30.0124 65.0416 30.379ZM77.7941 25.9182V27.7274H72.2071V25.9182H77.7941ZM73.5906 23.5504H76.1446V32.6226C76.1446 32.9005 76.1801 33.1133 76.2511 33.2611C76.3279 33.4089 76.4402 33.5124 76.5881 33.5715C76.7359 33.6247 76.9221 33.6513 77.1468 33.6513C77.3064 33.6513 77.4483 33.6454 77.5724 33.6336C77.7025 33.6159 77.8119 33.5981 77.9006 33.5804L77.9094 35.4605C77.6907 35.5314 77.4542 35.5876 77.2 35.629C76.9457 35.6703 76.6649 35.691 76.3575 35.691C75.7958 35.691 75.3051 35.5994 74.8853 35.4161C74.4715 35.2269 74.1522 34.9254 73.9276 34.5116C73.7029 34.0977 73.5906 33.5538 73.5906 32.8798V23.5504ZM81.7405 21.892V35.5137H79.1864V21.892H81.7405ZM81.3769 30.379H80.6763C80.6822 29.7109 80.7709 29.096 80.9424 28.5344C81.1138 27.9668 81.3592 27.4761 81.6784 27.0622C81.9977 26.6425 82.379 26.3173 82.8224 26.0867C83.2717 25.8562 83.7684 25.7409 84.3123 25.7409C84.7853 25.7409 85.2139 25.8089 85.5982 25.9448C85.9884 26.0749 86.3224 26.2877 86.6003 26.5834C86.8841 26.873 87.1028 27.2544 87.2565 27.7274C87.4103 28.2003 87.4871 28.7738 87.4871 29.4478V35.5137H84.9153V29.4301C84.9153 29.0044 84.8533 28.6703 84.7291 28.4279C84.6109 28.1796 84.4364 28.0052 84.2059 27.9047C83.9812 27.7983 83.7033 27.7451 83.3723 27.7451C83.0057 27.7451 82.6924 27.8131 82.4322 27.9491C82.178 28.085 81.974 28.2742 81.8203 28.5166C81.6666 28.7531 81.5543 29.031 81.4833 29.3502C81.4124 29.6695 81.3769 30.0124 81.3769 30.379Z" fill="white"/>
</svg>
