<svg width="264" height="164" viewBox="0 0 264 164" fill="none" xmlns="http://www.w3.org/2000/svg">
<mask id="mask0_5578_88550" style="mask-type:alpha" maskUnits="userSpaceOnUse" x="0" y="0" width="264" height="164">
<path d="M0 0.513672H264V163.514H0V0.513672Z" fill="#FFEBD5"/>
</mask>
<g mask="url(#mask0_5578_88550)">
<mask id="path-2-inside-1_5578_88550" fill="white">
<path d="M0 0.513672H264V163.514H0V0.513672Z"/>
</mask>
<path d="M0 0.513672H264V163.514H0V0.513672Z" fill="#FBF5FF"/>
<path d="M262 0.513672V163.514H266V0.513672H262ZM2 163.514V0.513672H-2V163.514H2Z" fill="#FCF0D8" mask="url(#path-2-inside-1_5578_88550)"/>
<path d="M175.865 159.992C176.984 164.033 178.047 168.104 179.103 172.16C179.752 174.645 180.177 177.215 181.225 179.574C181.509 180.226 182.178 180.76 182.036 181.552L182.029 181.536C182.313 182.227 182.71 182.895 182.868 183.617C183.467 186.387 184.436 189.166 184.721 191.894C184.735 192.005 184.916 192.101 184.951 192.26C185.102 193.006 185.54 195.648 185.961 197.291C186.948 201.108 187.831 204.965 187.621 209.119C187.591 209.769 188.541 218.494 185.106 219.495C181.544 220.526 178.571 212.76 178.463 211.673C178.206 209.047 178.432 206.25 177.237 203.914C175.48 200.489 175.122 196.674 174.093 193.039C173.16 189.784 172.598 186.42 171.63 183.165C170.731 180.109 169.245 177.225 168.57 174.122C167.985 171.424 168.253 168.483 167.954 165.723C167.88 165.072 167.071 164.498 166.968 163.784C166.886 163.197 166.694 162.237 166.857 161.572C166.927 161.295 167.033 160.978 166.845 160.787C166.003 159.856 164.837 150.677 169.007 149.522C173.128 148.374 174.905 156.476 175.865 159.992Z" fill="#ECD6FE"/>
<path d="M31.2176 55.0695C30.9426 55.1699 30.7064 55.3694 30.5467 55.6367C30.385 55.9065 30.3075 56.2299 30.3275 56.5543C31.0094 67.6403 31.1118 78.1645 30.574 88.0668C29.3354 87.7504 28.0731 87.5426 26.7867 87.4697C19.5251 87.0625 13.5577 92.8939 13.5989 99.8307C13.6205 103.309 15.2754 106.194 17.6851 108.187C20.095 110.179 23.262 111.411 26.6718 111.968C30.2772 112.56 33.526 110.931 35.8625 108.498C38.1969 106.068 39.7219 102.845 39.9697 99.7644C39.9942 99.4604 39.9769 99.3618 39.9671 99.1151C39.9575 98.8686 39.9422 98.5581 39.9201 98.1824C39.876 97.4311 39.8101 96.4203 39.7338 95.2113C39.5812 92.7932 39.3852 89.5843 39.2262 86.1429C38.9203 79.4778 38.8191 71.978 39.3782 67.7831C40.0917 67.1362 41.3063 66.6156 42.8694 66.3046L41.741 70.3186C41.713 70.4093 41.7002 70.5071 41.7045 70.6053C41.7105 70.7009 41.7327 70.7958 41.7698 70.8843C41.8088 70.9703 41.8615 71.0485 41.9259 71.1124C41.9904 71.1765 42.0673 71.2224 42.1494 71.2516C42.2294 71.2831 42.3172 71.2916 42.402 71.2836C42.4866 71.2753 42.5693 71.2471 42.646 71.1994C42.7208 71.154 42.7874 71.0909 42.8414 71.0145C42.8955 70.9381 42.9351 70.8509 42.9572 70.7585L44.2427 66.1845C44.2507 66.1572 44.2576 66.1289 44.2617 66.102C45.1283 66.0101 46.0687 65.9831 47.0721 66.0231L45.6564 69.2014C45.5813 69.3714 45.5678 69.5711 45.6214 69.7528C45.6733 69.9372 45.7891 70.0869 45.9392 70.175C46.0913 70.2607 46.2658 70.2765 46.4272 70.2161C46.5885 70.1555 46.7219 70.0252 46.7987 69.8526L48.459 66.118C49.5799 66.2247 50.7479 66.4038 51.9477 66.6478L49.9024 69.8309C49.8518 69.9064 49.8155 69.9928 49.7943 70.0862C49.773 70.1795 49.7681 70.2769 49.7795 70.3736C49.7926 70.4678 49.8208 70.5602 49.8648 70.6426C49.9086 70.7248 49.9671 70.7958 50.0346 70.8541C50.104 70.91 50.1812 70.9517 50.2642 70.973C50.3475 70.9946 50.4318 70.9995 50.5166 70.9825C50.5994 70.9678 50.6798 70.9328 50.7524 70.8806C50.825 70.8284 50.8854 70.7632 50.9357 70.6828L53.2853 67.0248C53.3009 67.0012 53.315 66.976 53.328 66.9497C54.1557 67.1508 54.9931 67.389 55.8334 67.6481L54.5243 70.592C54.4858 70.6759 54.4609 70.7698 54.4539 70.865C54.4449 70.9625 54.4552 71.0581 54.482 71.149C54.5067 71.242 54.5487 71.3268 54.6044 71.3993C54.6581 71.4742 54.7265 71.5333 54.8016 71.5775C54.8788 71.6193 54.9617 71.645 55.0452 71.6533C55.1304 71.6591 55.2153 71.6467 55.2955 71.6158C55.3756 71.585 55.4504 71.5352 55.5149 71.4699C55.5775 71.407 55.6296 71.3286 55.6659 71.2423L57.0861 68.0509C57.8905 68.3253 58.6907 68.6311 59.4858 68.9582L58.5466 71.0686C58.5089 71.1534 58.4847 71.248 58.4798 71.341C58.4731 71.4364 58.4834 71.532 58.5095 71.6222C58.5359 71.7126 58.5773 71.7967 58.6324 71.8686C58.6875 71.9404 58.753 72.0011 58.8293 72.042C58.9038 72.0855 58.9842 72.1128 59.0692 72.1184C59.1521 72.1261 59.237 72.1137 59.3153 72.0854C59.3956 72.0548 59.4692 72.0081 59.5326 71.946C59.5959 71.884 59.6493 71.807 59.6871 71.7222L60.6871 69.4713C61.1734 69.6889 61.6583 69.9095 62.1359 70.1446C62.3954 70.2731 62.6851 70.2997 62.9595 70.221C63.2339 70.1423 63.477 69.9635 63.6512 69.7115C63.8273 69.4572 63.9221 69.1476 63.9251 68.8253C63.9262 68.5054 63.8337 68.1932 63.6634 67.9366C61.4075 64.5915 58.9914 61.161 55.1342 58.6751C51.2811 56.1933 46.0656 54.7128 38.3442 54.9499L38.3365 54.9506L31.5947 55.0017C31.466 55.0033 31.3378 55.0277 31.2176 55.0695ZM32.9333 57.89L38.3609 57.8479C38.3692 57.8478 38.3777 57.848 38.386 57.8479C45.8087 57.6146 50.4919 59.0159 53.8709 61.1949C55.7567 62.4125 57.2357 63.925 58.5853 65.5675C55.0428 64.2806 51.4536 63.4434 48.2028 63.1796C43.5341 62.8014 39.4983 63.3583 37.2341 65.9879C37.0536 66.1976 36.9325 66.4658 36.8891 66.7541C36.1667 71.4935 36.3565 79.346 36.6763 86.2933C36.8342 89.7693 37.0336 92.9951 37.1863 95.4178C37.2637 96.628 37.3272 97.6407 37.3706 98.3734C37.3924 98.7399 37.4064 99.0401 37.4155 99.2504C37.4247 99.4608 37.4128 99.6666 37.4268 99.4987C37.2535 101.642 36.0297 104.391 34.1345 106.365C33.4093 107.12 32.6012 107.76 31.725 108.243L32.0608 107.034C32.0972 106.908 32.103 106.771 32.0764 106.641C32.0499 106.51 31.992 106.391 31.9079 106.297C31.8259 106.201 31.7211 106.134 31.6068 106.102C31.4909 106.072 31.372 106.076 31.2597 106.117C31.1601 106.154 31.0711 106.215 30.9989 106.299C30.9266 106.383 30.8727 106.486 30.8417 106.6L30.2107 108.878C29.3263 109.147 28.3947 109.254 27.4225 109.149L29.0575 105.442C29.1163 105.312 29.1406 105.164 29.1233 105.021C29.1079 104.875 29.0546 104.738 28.9688 104.629C28.883 104.521 28.7713 104.442 28.6458 104.407C28.5223 104.369 28.391 104.377 28.2685 104.43C28.1138 104.493 27.9859 104.625 27.9143 104.794L26.0946 108.921C25.2733 108.749 24.4762 108.536 23.7185 108.275L25.2867 105.816C25.3713 105.687 25.4153 105.533 25.4136 105.376C25.4116 105.217 25.3661 105.062 25.2791 104.939C25.194 104.813 25.075 104.722 24.9381 104.684C24.8031 104.643 24.6609 104.652 24.5323 104.712C24.419 104.765 24.3217 104.854 24.2521 104.967L22.4541 107.784C21.6692 107.446 20.9393 107.059 20.2761 106.626L21.7675 103.243C21.8265 103.114 21.8508 102.966 21.8337 102.823C21.8183 102.677 21.765 102.54 21.6794 102.432C21.5958 102.321 21.4819 102.244 21.3586 102.207C21.2331 102.172 21.1016 102.179 20.9808 102.229C20.8244 102.295 20.6965 102.427 20.6248 102.596L19.1921 105.845C19.1917 105.845 19.1913 105.845 19.1908 105.844C18.4913 105.266 17.9087 104.643 17.4421 103.969L18.7463 101.011C18.805 100.882 18.8274 100.736 18.8122 100.591C18.797 100.446 18.7437 100.309 18.6579 100.2C18.5724 100.091 18.4606 100.013 18.3352 99.9775C18.2117 99.94 18.0803 99.9477 17.9594 99.9976C17.8029 100.063 17.675 100.195 17.6034 100.364L16.6592 102.505C16.3362 101.681 16.1597 100.789 16.1534 99.81C16.1233 94.8156 20.6628 90.0272 26.6582 90.3651L26.6589 90.3658C28.4131 90.4628 30.0113 90.6974 31.3607 91.2653C31.5471 91.3428 31.7459 91.371 31.9439 91.345C32.1401 91.3215 32.3289 91.2456 32.4955 91.1237C32.6619 91.0016 32.8013 90.8375 32.9034 90.6428C33.0036 90.4504 33.0635 90.2331 33.0785 90.0083C33.7108 79.921 33.5759 69.1394 32.9333 57.89ZM40.2878 59.4214C39.9813 59.6176 39.8736 60.0605 40.0483 60.4065C40.221 60.7549 40.6105 60.8787 40.919 60.6801C41.2251 60.4835 41.3335 60.0412 41.1584 59.6948C40.985 59.3457 40.5953 59.2217 40.2878 59.4214ZM34.7725 63.0754C34.4664 63.272 34.3584 63.7148 34.5316 64.0636C34.7065 64.4098 35.0949 64.5325 35.4034 64.3339C35.7098 64.1375 35.8179 63.695 35.6428 63.3486C35.4699 63 35.0786 62.8788 34.7725 63.0754ZM28.5345 94.5912C28.3737 94.6522 28.2406 94.783 28.164 94.9558C28.0894 95.1262 28.0761 95.3261 28.1299 95.5081C28.1837 95.6901 28.2997 95.84 28.4497 95.9279C28.6013 96.0131 28.7776 96.0263 28.9386 95.9655C29.0994 95.9044 29.2325 95.7737 29.3071 95.6033C29.3837 95.4305 29.395 95.2329 29.3432 95.0486C29.2894 94.8666 29.1734 94.7167 29.0215 94.6312C28.8696 94.5457 28.6956 94.5303 28.5345 94.5912ZM33.392 97.5509C33.2312 97.6119 33.0984 97.7428 33.0218 97.9157C32.9471 98.0861 32.9339 98.286 32.9877 98.468C33.0412 98.6497 33.1572 98.7997 33.3072 98.8875C33.4591 98.973 33.6353 98.9862 33.7961 98.9251C33.9569 98.8641 34.09 98.7333 34.1646 98.5629C34.2412 98.3901 34.2525 98.1926 34.1987 98.0106C34.1469 97.8263 34.0311 97.6765 33.8792 97.5911C33.7273 97.5056 33.5531 97.49 33.392 97.5509ZM30.6325 101.434C30.4717 101.495 30.3388 101.626 30.2622 101.798C30.1876 101.969 30.1743 102.169 30.2281 102.351C30.2817 102.532 30.3977 102.682 30.5476 102.77C30.6995 102.856 30.8758 102.869 31.0366 102.808C31.1974 102.747 31.3305 102.616 31.4051 102.446C31.4817 102.273 31.493 102.075 31.4392 101.893C31.3874 101.709 31.2716 101.559 31.1197 101.474C30.9678 101.388 30.7936 101.373 30.6325 101.434Z" fill="#ECD6FE"/>
<path d="M187.954 63.6603C187.834 63.8292 187.766 64.0372 187.763 64.2514C187.76 64.4677 187.82 64.6793 187.935 64.8512C191.859 70.7278 195.282 76.5307 198.15 82.2518C197.361 82.5857 196.594 82.9897 195.856 83.4785C191.693 86.2403 190.243 91.9345 192.485 95.7703C193.609 97.6933 195.451 98.6148 197.427 98.7298C199.403 98.8449 201.555 98.2257 203.627 97.1323C205.819 95.9771 207.102 93.7357 207.622 91.4233C208.141 89.1129 207.958 86.6955 207.11 84.8824C207.026 84.7035 206.985 84.6559 206.901 84.5229C206.817 84.3899 206.709 84.2238 206.576 84.0242C206.312 83.6251 205.952 83.0908 205.523 82.4507C204.665 81.1705 203.529 79.4689 202.34 77.623C200.039 74.0471 197.584 69.9234 196.553 67.3634C196.742 66.7106 197.25 65.9217 198.019 65.1058L198.676 67.7995C198.69 67.8613 198.714 67.9209 198.748 67.9737C198.781 68.0243 198.824 68.0679 198.873 68.1018C198.922 68.1335 198.977 68.1553 199.033 68.1643C199.089 68.1733 199.146 68.1672 199.201 68.1496C199.256 68.1341 199.307 68.1028 199.352 68.0634C199.396 68.024 199.433 67.9743 199.461 67.9162C199.488 67.8602 199.504 67.7978 199.51 67.7331C199.515 67.6685 199.51 67.6037 199.492 67.5433L198.743 64.4739C198.739 64.4556 198.734 64.437 198.728 64.4204C199.179 64.0127 199.693 63.6108 200.263 63.2201L200.493 65.5679C200.506 65.6932 200.563 65.8096 200.65 65.8885C200.738 65.9696 200.85 66.0051 200.962 65.9922C201.074 65.9772 201.176 65.9142 201.246 65.8142C201.316 65.7142 201.349 65.587 201.336 65.4595L201.064 62.7021C201.721 62.3002 202.427 61.919 203.171 61.5609L203.053 64.1703C203.049 64.2331 203.057 64.296 203.075 64.3566C203.093 64.4172 203.121 64.4733 203.158 64.5223C203.196 64.5692 203.241 64.609 203.292 64.6366C203.342 64.6642 203.398 64.6796 203.454 64.6842C203.51 64.6867 203.566 64.6781 203.619 64.6558C203.672 64.6335 203.721 64.6015 203.762 64.5572C203.804 64.515 203.837 64.4624 203.861 64.4036C203.884 64.3447 203.897 64.2837 203.899 64.2183L204.034 61.2198C204.036 61.2003 204.035 61.1805 204.034 61.1605C204.558 60.9317 205.099 60.7194 205.649 60.5176L205.863 62.6912C205.869 62.7537 205.885 62.8161 205.912 62.8718C205.938 62.9296 205.974 62.9785 206.018 63.018C206.062 63.0595 206.112 63.0893 206.166 63.1066C206.22 63.1261 206.277 63.1309 206.333 63.1245C206.389 63.1159 206.443 63.0961 206.492 63.0664C206.541 63.0345 206.585 62.9927 206.619 62.9426C206.654 62.8925 206.679 62.834 206.694 62.7712C206.709 62.7105 206.713 62.6455 206.705 62.5827L206.474 60.2258C207.008 60.0472 207.55 59.8878 208.097 59.7423L208.25 61.3008C208.256 61.3634 208.273 61.426 208.3 61.4796C208.327 61.5354 208.363 61.5842 208.406 61.6236C208.45 61.6629 208.5 61.6926 208.553 61.7098C208.607 61.7271 208.663 61.7338 208.718 61.7251C208.773 61.7186 208.827 61.7007 208.876 61.6689C208.924 61.639 208.968 61.5972 209.002 61.5493C209.037 61.4992 209.063 61.443 209.078 61.3825C209.093 61.322 209.098 61.2572 209.092 61.1946L208.928 59.5329C209.267 59.4537 209.607 59.3767 209.948 59.3108C210.133 59.2753 210.302 59.1709 210.43 59.0143C210.557 58.8577 210.635 58.6583 210.651 58.4467C210.667 58.2329 210.621 58.022 210.52 57.8418C210.418 57.6637 210.267 57.5283 210.09 57.4559C207.767 56.5263 205.328 55.6152 202.391 55.8216C199.457 56.0288 196.087 57.3525 191.874 60.6614L191.87 60.665L188.142 63.4675C188.071 63.5213 188.008 63.5876 187.954 63.6603ZM189.809 64.5208L192.81 62.2641C192.815 62.2607 192.82 62.2572 192.824 62.2537C196.872 59.0699 199.921 57.9212 202.495 57.741C203.932 57.6413 205.237 57.8727 206.512 58.2296C204.133 58.9725 201.872 59.9845 199.982 61.1756C197.268 62.8866 195.204 64.8565 194.788 67.2487C194.755 67.4394 194.773 67.6382 194.841 67.8162C195.956 70.7457 198.573 75.0289 200.972 78.7558C202.172 80.6214 203.314 82.3309 204.174 83.6136C204.604 84.2539 204.963 84.7903 205.221 85.1793C205.351 85.3739 205.455 85.5349 205.527 85.6479C205.599 85.761 205.659 85.8802 205.613 85.7812C206.202 87.0429 206.401 89.0733 205.98 90.9493C205.819 91.667 205.575 92.355 205.242 92.9838L205.042 92.1745C205.022 92.0893 204.982 92.0111 204.925 91.9494C204.869 91.8877 204.798 91.8452 204.722 91.8277C204.645 91.8082 204.566 91.8142 204.492 91.8434C204.418 91.8747 204.353 91.9254 204.304 91.9945C204.261 92.056 204.231 92.1268 204.217 92.2031C204.204 92.2793 204.207 92.3589 204.227 92.4351L204.604 93.9595C204.199 94.4729 203.716 94.916 203.143 95.2578L202.865 92.5256C202.856 92.4296 202.822 92.3374 202.767 92.265C202.712 92.1904 202.639 92.1363 202.556 92.1111C202.474 92.0859 202.386 92.0883 202.306 92.1204C202.225 92.1504 202.154 92.2087 202.103 92.2884C202.038 92.3871 202.009 92.5129 202.023 92.6363L202.332 95.6773C201.821 95.9197 201.31 96.1293 200.806 96.2963L200.89 94.2852C200.896 94.179 200.872 94.0754 200.82 93.9884C200.768 93.9014 200.693 93.8338 200.606 93.801C200.518 93.766 200.423 93.7646 200.335 93.7997C200.247 93.8326 200.171 93.8963 200.118 93.9824C200.073 94.0587 200.047 94.1479 200.044 94.2395L199.947 96.5439C199.403 96.6789 198.873 96.7642 198.367 96.7971L198.113 94.3043C198.104 94.2083 198.071 94.1161 198.015 94.0437C197.96 93.9691 197.887 93.915 197.805 93.8899C197.723 93.8626 197.635 93.8671 197.555 93.8971C197.474 93.9292 197.403 93.9875 197.352 94.065C197.286 94.1659 197.257 94.2916 197.271 94.4151L197.515 96.8094C197.515 96.8093 197.514 96.8092 197.514 96.8091C196.941 96.7761 196.418 96.6697 195.943 96.4875L195.721 94.308C195.713 94.212 195.678 94.1219 195.623 94.0474C195.569 93.9729 195.495 93.9188 195.413 93.8936C195.33 93.8684 195.243 93.8708 195.162 93.9029C195.082 93.9329 195.011 93.9912 194.96 94.0687C194.894 94.1696 194.865 94.2954 194.88 94.4188L195.04 95.9963C194.597 95.6713 194.213 95.2486 193.897 94.7076C192.283 91.9461 193.273 87.4188 196.711 85.1395L196.711 85.1396C197.717 84.4717 198.679 83.9443 199.61 83.7044C199.739 83.6708 199.858 83.6047 199.96 83.5087C200.061 83.415 200.142 83.2951 200.195 83.1589C200.249 83.0226 200.274 82.8741 200.268 82.7239C200.262 82.5759 200.226 82.4305 200.162 82.2995C197.287 76.4368 193.764 70.5043 189.809 64.5208ZM194.384 62.3451C194.276 62.5802 194.358 62.8705 194.566 62.9908C194.773 63.1132 195.029 63.0217 195.137 62.7845C195.244 62.5493 195.163 62.2591 194.955 62.1387C194.747 62.0162 194.491 62.1077 194.384 62.3451ZM192.489 66.644C192.382 66.8791 192.464 67.1695 192.672 67.2919C192.879 67.4123 193.134 67.3206 193.242 67.0833C193.35 66.8482 193.268 66.5579 193.06 66.4376C192.853 66.3151 192.596 66.4088 192.489 66.644ZM199.104 86.7146C199.035 86.8147 199.002 86.942 199.015 87.0695C199.028 87.1949 199.085 87.3114 199.173 87.3903C199.261 87.4692 199.373 87.5048 199.485 87.4919C199.596 87.4768 199.698 87.4116 199.768 87.3116C199.838 87.2115 199.87 87.0841 199.857 86.9588C199.844 86.8313 199.787 86.7169 199.7 86.6358C199.612 86.5569 199.499 86.5214 199.388 86.5364C199.276 86.5514 199.174 86.6145 199.104 86.7146ZM202.749 86.3596C202.679 86.4597 202.647 86.5871 202.66 86.7146C202.673 86.8399 202.729 86.9564 202.817 87.0354C202.905 87.1142 203.018 87.1498 203.129 87.1369C203.241 87.1219 203.343 87.0567 203.413 86.9566C203.483 86.8565 203.515 86.7292 203.502 86.6038C203.489 86.4763 203.432 86.3619 203.344 86.283C203.256 86.202 203.144 86.1664 203.032 86.1815C202.92 86.1965 202.819 86.2595 202.749 86.3596ZM202.458 89.6515C202.388 89.7516 202.356 89.879 202.369 90.0065C202.382 90.1319 202.439 90.2484 202.527 90.3273C202.615 90.4062 202.727 90.4417 202.838 90.4288C202.95 90.4138 203.052 90.3486 203.122 90.2485C203.192 90.1484 203.224 90.0211 203.211 89.8957C203.198 89.7682 203.141 89.6539 203.053 89.5749C202.965 89.4939 202.853 89.4584 202.741 89.4734C202.63 89.4884 202.528 89.5515 202.458 89.6515Z" fill="#ECD6FE"/>
<path d="M245.909 1.78221C246.551 2.09357 247.08 2.6338 247.412 3.31795C247.748 4.00831 247.871 4.8067 247.759 5.58258C243.931 32.0981 241.609 57.4081 240.951 81.3835C243.995 80.9359 247.075 80.7559 250.186 80.9068C267.748 81.7689 280.964 97.3214 279.497 114.011C278.759 122.379 274.206 128.905 268.012 133.09C261.818 137.276 253.951 139.437 245.632 139.914C236.836 140.423 229.336 135.678 224.19 129.229C219.05 122.786 216.014 114.64 216.025 107.16C216.026 106.422 216.087 106.19 216.159 105.598C216.231 105.007 216.329 104.263 216.456 103.365C216.711 101.567 217.069 99.1505 217.491 96.2591C218.335 90.4764 219.44 82.8012 220.501 74.5565C222.552 58.5887 224.274 40.5591 223.756 30.3185C222.165 28.5801 219.344 27.0187 215.643 25.8734L217.567 35.8231C217.617 36.0484 217.628 36.2873 217.599 36.5226C217.565 36.7511 217.493 36.9741 217.387 37.1775C217.276 37.3748 217.133 37.5496 216.966 37.6871C216.798 37.8251 216.604 37.9161 216.4 37.9655C216.201 38.0211 215.988 38.0193 215.786 37.9784C215.584 37.9371 215.39 37.8483 215.215 37.7138C215.044 37.5855 214.896 37.4168 214.781 37.2191C214.666 37.0215 214.588 36.8016 214.553 36.5734L212.36 25.2358C212.346 25.1682 212.335 25.0982 212.331 25.0325C210.263 24.5913 208.004 24.2878 205.58 24.1294L208.362 32.1402C208.509 32.5685 208.502 33.0526 208.337 33.4766C208.176 33.9072 207.868 34.2383 207.489 34.4122C207.106 34.58 206.683 34.5737 206.306 34.3874C205.93 34.2005 205.634 33.8531 205.483 33.4181L202.223 24.0061C199.503 23.9786 196.656 24.1134 193.72 24.3964L198.016 32.5782C198.123 32.773 198.193 32.9901 198.226 33.2203C198.258 33.4504 198.251 33.686 198.205 33.916C198.155 34.1394 198.068 34.3548 197.946 34.542C197.824 34.7287 197.67 34.8849 197.496 35.008C197.318 35.1249 197.124 35.2059 196.92 35.2361C196.715 35.2668 196.511 35.2572 196.31 35.1948C196.114 35.1386 195.927 35.0339 195.762 34.8897C195.598 34.7455 195.465 34.5734 195.36 34.3671L190.425 24.9645C190.392 24.9037 190.363 24.8396 190.337 24.773C188.305 25.0471 186.242 25.4082 184.168 25.8188L186.739 33.2379C186.815 33.4496 186.857 33.6822 186.855 33.913C186.857 34.15 186.813 34.3776 186.731 34.5896C186.653 34.8073 186.535 35.0007 186.387 35.1611C186.243 35.3278 186.067 35.4529 185.877 35.5401C185.683 35.6211 185.478 35.6619 185.276 35.6609C185.069 35.6532 184.867 35.6018 184.681 35.5071C184.494 35.4125 184.323 35.2737 184.181 35.1002C184.043 34.9328 183.933 34.7309 183.862 34.5138L181.073 26.4704C179.082 26.9272 177.095 27.4602 175.117 28.0459L176.962 33.3649C177.036 33.5785 177.075 33.8125 177.069 34.0376C177.066 34.2688 177.022 34.4964 176.942 34.707C176.86 34.918 176.744 35.1099 176.597 35.2689C176.451 35.4279 176.281 35.5573 176.089 35.6364C175.901 35.7222 175.702 35.7677 175.496 35.7595C175.295 35.7571 175.093 35.7057 174.91 35.6177C174.723 35.5236 174.555 35.3924 174.415 35.227C174.275 35.0617 174.161 34.8626 174.087 34.649L172.123 28.9764C170.91 29.3768 169.699 29.7849 168.503 30.2298C167.853 30.4732 167.15 30.4638 166.505 30.2048C165.86 29.9457 165.31 29.4536 164.94 28.8028C164.567 28.1457 164.399 27.3763 164.456 26.5997C164.516 25.8294 164.801 25.1012 165.261 24.5266C171.352 17.0461 177.845 9.40045 187.621 4.3943C197.386 -0.602694 210.234 -2.84373 228.776 -0.313964L228.794 -0.310204L245.014 1.52336C245.324 1.55986 245.627 1.65106 245.909 1.78221ZM241.222 8.137L228.164 6.65861C228.144 6.6563 228.123 6.65445 228.103 6.65214C210.28 4.2074 198.729 6.39266 190.165 10.7811C185.385 13.234 181.526 16.4998 177.953 20.1117C186.735 17.9122 195.541 16.8075 203.419 16.9972C214.733 17.2711 224.339 19.6357 229.271 26.5408C229.665 27.0913 229.903 27.7677 229.951 28.4728C230.755 40.0657 228.75 58.9218 226.61 75.5657C225.544 83.8938 224.428 91.609 223.583 97.4027C223.158 100.296 222.805 102.718 222.556 104.471C222.432 105.348 222.339 106.067 222.275 106.571C222.212 107.075 222.2 107.574 222.199 107.166C222.194 112.37 224.598 119.299 228.771 124.531C230.368 126.532 232.187 128.278 234.201 129.663L233.631 126.669C233.569 126.355 233.582 126.025 233.671 125.717C233.761 125.409 233.924 125.136 234.145 124.932C234.361 124.722 234.627 124.588 234.908 124.539C235.193 124.498 235.479 124.535 235.741 124.663C235.973 124.777 236.175 124.948 236.333 125.168C236.49 125.388 236.6 125.651 236.652 125.933L237.722 131.575C239.798 132.448 242.019 132.944 244.38 132.938L241.175 123.596C241.059 123.27 241.03 122.907 241.1 122.567C241.166 122.22 241.321 121.904 241.549 121.664C241.777 121.423 242.062 121.263 242.371 121.21C242.675 121.151 242.99 121.203 243.275 121.361C243.634 121.552 243.916 121.902 244.056 122.327L247.622 132.725C249.633 132.519 251.594 132.208 253.47 131.773L250.18 125.454C250.001 125.123 249.926 124.742 249.961 124.362C249.997 123.982 250.137 123.619 250.371 123.344C250.601 123.062 250.905 122.874 251.242 122.816C251.575 122.753 251.916 122.811 252.213 122.988C252.476 123.145 252.693 123.383 252.838 123.673L256.611 130.911C258.567 130.296 260.401 129.549 262.082 128.677L259.159 120.153C259.043 119.827 259.013 119.465 259.083 119.125C259.149 118.778 259.304 118.462 259.531 118.222C259.754 117.976 260.044 117.821 260.348 117.762C260.657 117.71 260.972 117.761 261.253 117.912C261.617 118.11 261.899 118.46 262.038 118.885L264.846 127.071C264.847 127.071 264.848 127.07 264.849 127.069C266.647 125.855 268.173 124.503 269.429 122.999L266.873 115.547C266.757 115.221 266.731 114.865 266.797 114.518C266.862 114.172 267.017 113.856 267.245 113.616C267.473 113.376 267.757 113.215 268.066 113.162C268.371 113.103 268.685 113.155 268.967 113.306C269.331 113.504 269.612 113.854 269.752 114.279L271.602 119.672C272.543 117.769 273.143 115.667 273.352 113.313C274.409 101.297 264.425 88.6174 249.925 87.9099L249.923 87.9113C245.681 87.6998 241.787 87.8591 238.426 88.8839C237.962 89.0232 237.478 89.0407 237.007 88.9277C236.539 88.8214 236.099 88.5907 235.722 88.2551C235.346 87.919 235.043 87.4886 234.835 86.9939C234.632 86.5054 234.531 85.967 234.539 85.4219C235.006 60.9772 237.457 35.0557 241.222 8.137ZM223.215 9.95768C223.914 10.5077 224.086 11.6014 223.597 12.3901C223.113 13.1849 222.151 13.3841 221.447 12.8278C220.749 12.2768 220.575 11.1846 221.065 10.395C221.551 9.59869 222.514 9.399 223.215 9.95768ZM235.772 20.1537C236.47 20.7047 236.643 21.7979 236.157 22.5938C235.668 23.3829 234.708 23.5796 234.005 23.0234C233.306 22.4728 233.133 21.3801 233.623 20.5905C234.108 19.7952 235.074 19.6027 235.772 20.1537ZM244.574 97.6077C244.949 97.7955 245.244 98.144 245.394 98.5794C245.54 99.0087 245.533 99.4933 245.368 99.9177C245.202 100.342 244.893 100.674 244.515 100.847C244.133 101.014 243.706 101.001 243.33 100.814C242.955 100.626 242.661 100.277 242.515 99.8482C242.364 99.4127 242.376 98.9342 242.537 98.5036C242.703 98.0792 243.012 97.7477 243.394 97.5804C243.777 97.4132 244.199 97.4203 244.574 97.6077ZM232.297 103.5C232.672 103.688 232.966 104.037 233.116 104.473C233.262 104.902 233.255 105.386 233.089 105.811C232.924 106.235 232.616 106.566 232.237 106.74C231.855 106.907 231.428 106.894 231.053 106.706C230.678 106.519 230.383 106.17 230.237 105.741C230.087 105.305 230.099 104.827 230.264 104.403C230.425 103.972 230.733 103.641 231.116 103.474C231.498 103.306 231.921 103.313 232.297 103.5ZM238.174 113.548C238.549 113.736 238.843 114.085 238.994 114.52C239.14 114.949 239.132 115.434 238.967 115.858C238.802 116.282 238.493 116.614 238.115 116.787C237.732 116.955 237.306 116.942 236.93 116.754C236.555 116.566 236.261 116.218 236.115 115.788C235.964 115.353 235.976 114.874 236.142 114.45C236.303 114.019 236.611 113.688 236.994 113.521C237.376 113.354 237.799 113.36 238.174 113.548Z" fill="#ECD6FE"/>
<path d="M-25.5291 -37.2496C-25.7495 -36.6804 -25.7956 -36.05 -25.6592 -35.4584C-25.5224 -34.8607 -25.2113 -34.3318 -24.7759 -33.959C-9.89845 -21.2195 3.53704 -8.24602 15.3777 4.98462C13.4135 6.58892 11.5568 8.36706 9.84031 10.3525C0.155843 21.5657 -0.00672583 38.4784 8.81567 47.0721C13.2407 51.3798 18.9783 52.3105 24.5403 50.9082C30.1029 49.5059 35.6591 45.9313 40.6695 41.1233C45.9699 36.0417 48.0131 28.764 47.8881 21.9556C47.763 15.1534 45.6142 8.66825 42.0318 4.42196C41.6784 4.00299 41.5319 3.90781 41.2076 3.61562C40.8838 3.32336 40.4719 2.96041 39.9691 2.52703C38.9634 1.66028 37.6023 0.504731 35.9773 -0.881546C32.7273 -3.6541 28.4226 -7.3437 23.8708 -11.3836C15.0576 -19.2107 5.44756 -28.4105 0.849894 -34.5502C0.932983 -36.5095 1.80844 -39.1199 3.38905 -42.0313L7.03929 -35.1986C7.11849 -35.0402 7.22611 -34.8974 7.35562 -34.7817C7.48405 -34.6721 7.63218 -34.5894 7.79079 -34.5389C7.94887 -34.4945 8.11415 -34.4818 8.27625 -34.506C8.43889 -34.5302 8.59399 -34.597 8.73447 -34.693C8.87548 -34.7829 8.99698 -34.9139 9.09397 -35.0609C9.1904 -35.2078 9.25909 -35.3763 9.29563 -35.5599C9.33269 -35.7374 9.33701 -35.9236 9.30862 -36.1061C9.28023 -36.2887 9.22019 -36.4616 9.13115 -36.6127L4.97137 -44.3981C4.94696 -44.4449 4.91981 -44.4914 4.89102 -44.5316C5.86915 -46.0452 7.02251 -47.5969 8.34014 -49.1667L10.5709 -42.9135C10.6911 -42.5801 10.9265 -42.309 11.224 -42.1686C11.5225 -42.0222 11.858 -42.0222 12.159 -42.1545C12.4594 -42.2931 12.6997 -42.555 12.8272 -42.891C12.9542 -43.227 12.958 -43.605 12.8368 -43.9445L10.2114 -51.2869C11.7618 -52.963 13.4632 -54.6248 15.2867 -56.2569L16.7284 -48.9815C16.7601 -48.8055 16.8234 -48.6391 16.9147 -48.4883C17.0059 -48.3374 17.1228 -48.208 17.2594 -48.1055C17.395 -48.0091 17.5476 -47.9393 17.7073 -47.9075C17.8665 -47.8756 18.0302 -47.8813 18.1891 -47.9175C18.3474 -47.9598 18.4976 -48.0321 18.6294 -48.1396C18.7617 -48.2471 18.8745 -48.3772 18.96 -48.5352C19.0461 -48.6872 19.1034 -48.8607 19.129 -49.0431C19.1546 -49.2254 19.1486 -49.4043 19.1103 -49.5858L17.4524 -57.9455C17.4422 -58 17.4282 -58.0542 17.4114 -58.1081C18.7107 -59.193 20.0694 -60.2473 21.4581 -61.2802L23.5271 -55.4919C23.5844 -55.3249 23.6718 -55.1674 23.7833 -55.0374C23.8953 -54.9012 24.0292 -54.7985 24.1779 -54.7283C24.3266 -54.6519 24.4869 -54.6139 24.6489 -54.6133C24.8115 -54.6065 24.9725 -54.643 25.1233 -54.7092C25.2735 -54.7816 25.4107 -54.8834 25.5268 -55.0077C25.6417 -55.138 25.7332 -55.2906 25.7954 -55.4584C25.8575 -55.6263 25.8891 -55.8093 25.888 -55.9949C25.8874 -56.1744 25.8541 -56.3564 25.7908 -56.5227L23.5492 -62.7995C24.9119 -63.7553 26.309 -64.6653 27.7266 -65.5404L29.2089 -61.3896C29.2685 -61.2229 29.3575 -61.0656 29.469 -60.9417C29.581 -60.8118 29.7149 -60.709 29.862 -60.6386C30.0096 -60.5683 30.1682 -60.5302 30.3286 -60.5293C30.489 -60.5285 30.6484 -60.5585 30.7965 -60.6307C30.9456 -60.6967 31.0817 -60.7923 31.1961 -60.9226C31.3105 -61.0467 31.402 -61.1992 31.4652 -61.361C31.5279 -61.5289 31.5617 -61.7059 31.5633 -61.8857C31.5649 -62.0654 31.5349 -62.2478 31.4753 -62.4145L29.8923 -66.839C30.7814 -67.3522 31.6726 -67.8595 32.573 -68.3369C33.0631 -68.5954 33.4626 -69.0297 33.7097 -69.5709C33.9567 -70.1121 34.0376 -70.7277 33.9389 -71.3235C33.8397 -71.9254 33.568 -72.4649 33.1643 -72.8721C32.7612 -73.2732 32.2497 -73.5137 31.7103 -73.5592C24.6323 -74.0938 17.244 -74.4765 9.23032 -71.354C1.22698 -68.2327 -7.23087 -61.6622 -16.6814 -48.9025L-16.6901 -48.8892L-25.1387 -37.9428C-25.2992 -37.7331 -25.4302 -37.4958 -25.5291 -37.2496ZM-19.7966 -36.4978L-12.9962 -45.3114C-12.9858 -45.3249 -12.9748 -45.3386 -12.9644 -45.3521C-3.88627 -57.6249 3.7991 -63.4349 10.821 -66.169C14.7418 -67.6928 18.5216 -68.192 22.3026 -68.3198C16.202 -64.2082 10.6113 -59.4597 6.17285 -54.5417C-0.200811 -47.4778 -4.59293 -40.2681 -4.12731 -33.3303C-4.09016 -32.7772 -3.90404 -32.2468 -3.59431 -31.8168C1.48563 -24.7339 11.6535 -15.2368 20.841 -7.07966C25.4353 -2.99498 29.7656 0.71036 33.0216 3.48844C34.6493 4.87441 36.0098 6.0362 36.991 6.8809C37.4819 7.30322 37.8791 7.65543 38.1566 7.90327C38.4341 8.15112 38.6794 8.42725 38.4847 8.19499C40.9759 11.1506 42.9064 16.5581 43.0084 22.0814C43.047 24.1944 42.8359 26.2978 42.3402 28.3152L41.2364 26.2645C41.1225 26.048 40.9572 25.8682 40.7584 25.7479C40.5596 25.6275 40.3356 25.5718 40.1107 25.5905C39.8859 25.603 39.6691 25.689 39.4843 25.8333C39.3005 25.9836 39.1543 26.1794 39.0647 26.4121C38.9856 26.619 38.9511 26.8395 38.9658 27.0608C38.9804 27.282 39.0431 27.498 39.1484 27.6906L41.2305 31.5521C40.4541 33.3158 39.4139 34.9539 38.0536 36.3923L35.4302 29.1239C35.3409 28.8676 35.1844 28.6435 34.9814 28.4926C34.7778 28.3356 34.5375 28.2508 34.2914 28.2533C34.0454 28.2558 33.8051 28.3381 33.6023 28.4968C33.3989 28.6493 33.2428 28.871 33.1547 29.1345C33.0392 29.4631 33.0441 29.8339 33.1676 30.1607L36.0881 38.2506C34.8334 39.3615 33.5572 40.3819 32.271 41.2797L31.142 35.6782C31.0861 35.3811 30.9472 35.1179 30.7454 34.9235C30.543 34.7293 30.2891 34.6088 30.0229 34.5949C29.7562 34.575 29.4914 34.6539 29.2699 34.827C29.048 34.994 28.8803 35.2353 28.7933 35.5174C28.7179 35.7672 28.7068 36.0346 28.7622 36.2885L30.0536 42.7077C28.6344 43.5521 27.2233 44.247 25.8394 44.7779L23.4449 38.1466C23.3562 37.8902 23.1997 37.6661 22.9972 37.5152C22.7936 37.3582 22.5533 37.2734 22.3078 37.2758C22.0618 37.2721 21.8215 37.3606 21.6186 37.5131C21.4158 37.6718 21.2591 37.8934 21.17 38.1509C21.0556 38.4855 21.0605 38.8564 21.184 39.1833L23.4831 45.5527C23.482 45.5528 23.481 45.5529 23.4799 45.5531C21.8661 45.9609 20.3425 46.1235 18.9014 46.0355L16.8084 40.2374C16.7191 39.9811 16.5632 39.7631 16.3601 39.6061C16.1571 39.449 15.9168 39.3642 15.6707 39.3667C15.4252 39.3691 15.1849 39.4515 14.9821 39.6102C14.7787 39.7627 14.6226 39.9843 14.5329 40.2419C14.4185 40.5765 14.4234 40.9473 14.5469 41.2741L16.0613 45.4709C14.611 44.963 13.2605 44.1344 12.0152 42.9228C5.66267 36.7361 5.34077 23.4305 13.3388 14.1747L13.3404 14.1745C15.6782 11.464 17.993 9.1771 20.4151 7.70781C20.7484 7.50373 21.0351 7.21811 21.2522 6.86595C21.4703 6.51988 21.6127 6.12031 21.669 5.69929C21.7248 5.27833 21.6933 4.84844 21.5761 4.44044C21.4594 4.03859 21.2602 3.67065 20.9949 3.36574C9.03965 -10.2484 -4.7622 -23.4909 -19.7966 -36.4978ZM-8.57347 -46.4575C-8.71252 -45.7178 -8.28851 -44.9909 -7.63047 -44.8409C-6.97191 -44.6848 -6.32354 -45.159 -6.18502 -45.9049C-6.04705 -46.6445 -6.46941 -47.3716 -7.12854 -47.5214C-7.78874 -47.6773 -8.43767 -47.2031 -8.57347 -46.4575ZM-10.9181 -32.9929C-11.0561 -32.2533 -10.6326 -31.5263 -9.97296 -31.3704C-9.31437 -31.2204 -8.66875 -31.6943 -8.53023 -32.4402C-8.39172 -33.1798 -8.81459 -33.9069 -9.47372 -34.0567C-10.1328 -34.2128 -10.7801 -33.7325 -10.9181 -32.9929ZM21.0512 16.422C20.9253 16.7579 20.9226 17.1359 21.0444 17.4753C21.1656 17.8085 21.4016 18.0795 21.6996 18.2198C21.9976 18.3602 22.3337 18.3601 22.6341 18.2278C22.9335 18.0894 23.1727 17.8214 23.2991 17.4855C23.425 17.1496 23.4277 16.7717 23.3065 16.4385C23.1847 16.0991 22.9492 15.8342 22.6507 15.6877C22.3527 15.5474 22.0166 15.5475 21.7167 15.6859C21.4168 15.8244 21.1777 16.0861 21.0512 16.422ZM30.9271 12.2761C30.8012 12.612 30.799 12.9899 30.9208 13.3292C31.042 13.6625 31.278 13.9335 31.576 14.0738C31.8735 14.2142 32.2095 14.2142 32.51 14.0818C32.8099 13.9434 33.049 13.6755 33.1749 13.3396C33.3008 13.0037 33.3035 12.6258 33.1823 12.2925C33.0605 11.9531 32.8251 11.6883 32.5271 11.5479C32.2285 11.4015 31.893 11.4014 31.5931 11.5399C31.2932 11.6784 31.0536 11.9402 30.9271 12.2761ZM32.3515 21.5778C32.2256 21.9137 32.2235 22.2916 32.3453 22.631C32.4665 22.9643 32.7025 23.2352 33.0005 23.3756C33.298 23.516 33.634 23.5159 33.9344 23.3836C34.2343 23.2451 34.4735 22.9772 34.5994 22.6413C34.7253 22.3054 34.728 21.9275 34.6068 21.5943C34.485 21.2549 34.2495 20.9899 33.9515 20.8496C33.653 20.7031 33.3175 20.7032 33.0176 20.8417C32.7177 20.9801 32.478 21.2419 32.3515 21.5778Z" fill="#ECD6FE"/>
<path d="M62.8225 118.943C61.4588 122.267 60.9908 124.382 58.7314 124.382C55.0949 124.382 53.5039 122.854 53.5039 119.85C53.5039 116.846 56.9265 111.389 59.186 111.389C61.4454 111.389 64.6407 114.511 62.8225 118.943Z" fill="#ECD6FE"/>
<path d="M165.35 136.975C161.551 142.515 160.247 146.041 153.953 146.041C143.823 146.041 139.391 143.493 139.391 138.486C139.391 133.48 148.925 124.385 155.219 124.385C161.513 124.385 170.415 129.589 165.35 136.975Z" fill="#ECD6FE"/>
<path d="M125.926 0.975492C122.127 6.51541 120.823 10.0408 114.529 10.0408C104.399 10.0408 99.9668 7.49302 99.9668 2.48638C99.9668 -2.52026 109.501 -11.6152 115.795 -11.6152C122.09 -11.6152 130.991 -6.41107 125.926 0.975492Z" fill="#ECD6FE"/>
<path d="M68.5342 16.9557C67.3653 19.6148 66.9642 21.307 65.0276 21.307C61.9106 21.307 60.5469 20.0841 60.5469 17.6809C60.5469 15.2777 63.4805 10.9121 65.4172 10.9121C67.3539 10.9121 70.0927 13.4101 68.5342 16.9557Z" fill="#ECD6FE"/>
<path d="M136.574 37.3268C136.574 39.9255 135.471 40.3586 134.11 40.3586C132.749 40.3586 130.238 39.4343 130.238 37.7599C130.238 36.0854 132.749 34.2949 134.11 34.2949C135.471 34.2949 136.574 35.1612 136.574 37.3268Z" fill="#ECD6FE"/>
<path d="M151.363 7.0074C151.363 8.86364 150.627 9.17301 149.72 9.17301C148.813 9.17301 147.139 8.51281 147.139 7.31677C147.139 6.12074 148.813 4.8418 149.72 4.8418C150.627 4.8418 151.363 5.46054 151.363 7.0074Z" fill="#ECD6FE"/>
</g>
<path d="M104.84 59.8737V33.5537H107.136V59.8737H104.84ZM105.708 56.7937C104.177 56.7937 102.712 56.579 101.312 56.1497C99.912 55.7017 98.8013 55.1323 97.98 54.4417L99.24 51.6137C100.024 52.2297 100.995 52.743 102.152 53.1537C103.309 53.5643 104.495 53.7697 105.708 53.7697C106.735 53.7697 107.565 53.6577 108.2 53.4337C108.835 53.2097 109.301 52.911 109.6 52.5377C109.899 52.1457 110.048 51.707 110.048 51.2217C110.048 50.6243 109.833 50.1483 109.404 49.7937C108.975 49.4203 108.415 49.131 107.724 48.9257C107.052 48.7017 106.296 48.4963 105.456 48.3097C104.635 48.123 103.804 47.9083 102.964 47.6657C102.143 47.4043 101.387 47.0777 100.696 46.6857C100.024 46.275 99.4733 45.7337 99.044 45.0617C98.6147 44.3897 98.4 43.531 98.4 42.4857C98.4 41.4217 98.68 40.451 99.24 39.5737C99.8187 38.6777 100.687 37.9683 101.844 37.4457C103.02 36.9043 104.504 36.6337 106.296 36.6337C107.472 36.6337 108.639 36.783 109.796 37.0817C110.953 37.3803 111.961 37.8097 112.82 38.3697L111.672 41.1977C110.795 40.675 109.889 40.2923 108.956 40.0497C108.023 39.7883 107.127 39.6577 106.268 39.6577C105.26 39.6577 104.439 39.779 103.804 40.0217C103.188 40.2643 102.731 40.5817 102.432 40.9737C102.152 41.3657 102.012 41.8137 102.012 42.3177C102.012 42.915 102.217 43.4003 102.628 43.7737C103.057 44.1283 103.608 44.4083 104.28 44.6137C104.971 44.819 105.736 45.0243 106.576 45.2297C107.416 45.4163 108.247 45.631 109.068 45.8737C109.908 46.1163 110.664 46.4337 111.336 46.8257C112.027 47.2177 112.577 47.7497 112.988 48.4217C113.417 49.0937 113.632 49.943 113.632 50.9697C113.632 52.015 113.343 52.9857 112.764 53.8817C112.204 54.759 111.336 55.4683 110.16 56.0097C108.984 56.5323 107.5 56.7937 105.708 56.7937ZM118.704 56.5137V38.3137L120.3 39.9657H114.56V36.9137H122.344V56.5137H118.704ZM128.416 56.7097C127.781 56.7097 127.24 56.495 126.792 56.0657C126.344 55.6177 126.12 55.0577 126.12 54.3857C126.12 53.6763 126.344 53.1163 126.792 52.7057C127.24 52.2763 127.781 52.0617 128.416 52.0617C129.051 52.0617 129.592 52.2763 130.04 52.7057C130.488 53.1163 130.712 53.6763 130.712 54.3857C130.712 55.0577 130.488 55.6177 130.04 56.0657C129.592 56.495 129.051 56.7097 128.416 56.7097ZM139.676 36.6337C141.468 36.6337 142.989 37.0163 144.24 37.7817C145.509 38.5283 146.48 39.6203 147.152 41.0577C147.824 42.495 148.16 44.2683 148.16 46.3777C148.16 48.6177 147.749 50.5123 146.928 52.0617C146.125 53.611 145.005 54.787 143.568 55.5897C142.131 56.3923 140.46 56.7937 138.556 56.7937C137.567 56.7937 136.624 56.691 135.728 56.4857C134.832 56.2803 134.057 55.963 133.404 55.5337L134.748 52.7897C135.289 53.1443 135.877 53.3963 136.512 53.5457C137.147 53.6763 137.8 53.7417 138.472 53.7417C140.32 53.7417 141.785 53.1723 142.868 52.0337C143.951 50.895 144.492 49.215 144.492 46.9937C144.492 46.639 144.483 46.2283 144.464 45.7617C144.445 45.2763 144.38 44.791 144.268 44.3057L145.388 45.5377C145.071 46.303 144.613 46.947 144.016 47.4697C143.419 47.9737 142.719 48.3563 141.916 48.6177C141.113 48.879 140.227 49.0097 139.256 49.0097C137.987 49.0097 136.839 48.767 135.812 48.2817C134.804 47.7777 134.001 47.0777 133.404 46.1817C132.807 45.267 132.508 44.203 132.508 42.9897C132.508 41.683 132.825 40.563 133.46 39.6297C134.095 38.6777 134.953 37.9403 136.036 37.4177C137.137 36.895 138.351 36.6337 139.676 36.6337ZM139.872 39.4897C139.125 39.4897 138.463 39.6297 137.884 39.9097C137.305 40.171 136.848 40.5537 136.512 41.0577C136.195 41.543 136.036 42.131 136.036 42.8217C136.036 43.8483 136.391 44.6603 137.1 45.2577C137.809 45.855 138.761 46.1537 139.956 46.1537C140.74 46.1537 141.431 46.0137 142.028 45.7337C142.625 45.435 143.092 45.0337 143.428 44.5297C143.764 44.007 143.932 43.4283 143.932 42.7937C143.932 42.1777 143.773 41.627 143.456 41.1417C143.139 40.6377 142.681 40.2363 142.084 39.9377C141.487 39.639 140.749 39.4897 139.872 39.4897ZM157.231 36.6337C159.023 36.6337 160.544 37.0163 161.795 37.7817C163.064 38.5283 164.035 39.6203 164.707 41.0577C165.379 42.495 165.715 44.2683 165.715 46.3777C165.715 48.6177 165.304 50.5123 164.483 52.0617C163.68 53.611 162.56 54.787 161.123 55.5897C159.685 56.3923 158.015 56.7937 156.111 56.7937C155.121 56.7937 154.179 56.691 153.283 56.4857C152.387 56.2803 151.612 55.963 150.959 55.5337L152.303 52.7897C152.844 53.1443 153.432 53.3963 154.067 53.5457C154.701 53.6763 155.355 53.7417 156.027 53.7417C157.875 53.7417 159.34 53.1723 160.423 52.0337C161.505 50.895 162.047 49.215 162.047 46.9937C162.047 46.639 162.037 46.2283 162.019 45.7617C162 45.2763 161.935 44.791 161.823 44.3057L162.943 45.5377C162.625 46.303 162.168 46.947 161.571 47.4697C160.973 47.9737 160.273 48.3563 159.471 48.6177C158.668 48.879 157.781 49.0097 156.811 49.0097C155.541 49.0097 154.393 48.767 153.367 48.2817C152.359 47.7777 151.556 47.0777 150.959 46.1817C150.361 45.267 150.063 44.203 150.063 42.9897C150.063 41.683 150.38 40.563 151.015 39.6297C151.649 38.6777 152.508 37.9403 153.591 37.4177C154.692 36.895 155.905 36.6337 157.231 36.6337ZM157.427 39.4897C156.68 39.4897 156.017 39.6297 155.439 39.9097C154.86 40.171 154.403 40.5537 154.067 41.0577C153.749 41.543 153.591 42.131 153.591 42.8217C153.591 43.8483 153.945 44.6603 154.655 45.2577C155.364 45.855 156.316 46.1537 157.511 46.1537C158.295 46.1537 158.985 46.0137 159.583 45.7337C160.18 45.435 160.647 45.0337 160.983 44.5297C161.319 44.007 161.487 43.4283 161.487 42.7937C161.487 42.1777 161.328 41.627 161.011 41.1417C160.693 40.6377 160.236 40.2363 159.639 39.9377C159.041 39.639 158.304 39.4897 157.427 39.4897Z" fill="#59371D"/>
<path d="M108.129 78.8975V78.7402C108.129 78.207 108.206 77.7126 108.361 77.2568C108.516 76.7965 108.74 76.3978 109.031 76.0605C109.323 75.7188 109.676 75.4544 110.091 75.2676C110.506 75.0762 110.97 74.9805 111.485 74.9805C112.005 74.9805 112.472 75.0762 112.887 75.2676C113.306 75.4544 113.661 75.7188 113.953 76.0605C114.249 76.3978 114.475 76.7965 114.63 77.2568C114.785 77.7126 114.862 78.207 114.862 78.7402V78.8975C114.862 79.4307 114.785 79.9251 114.63 80.3809C114.475 80.8366 114.249 81.2354 113.953 81.5771C113.661 81.9144 113.308 82.1787 112.894 82.3701C112.483 82.557 112.019 82.6504 111.499 82.6504C110.979 82.6504 110.512 82.557 110.098 82.3701C109.683 82.1787 109.327 81.9144 109.031 81.5771C108.74 81.2354 108.516 80.8366 108.361 80.3809C108.206 79.9251 108.129 79.4307 108.129 78.8975ZM109.394 78.7402V78.8975C109.394 79.2666 109.437 79.6152 109.523 79.9434C109.61 80.2669 109.74 80.554 109.913 80.8047C110.091 81.0553 110.312 81.2536 110.576 81.3994C110.84 81.5407 111.148 81.6113 111.499 81.6113C111.845 81.6113 112.148 81.5407 112.408 81.3994C112.673 81.2536 112.891 81.0553 113.064 80.8047C113.238 80.554 113.368 80.2669 113.454 79.9434C113.545 79.6152 113.591 79.2666 113.591 78.8975V78.7402C113.591 78.3757 113.545 78.0316 113.454 77.708C113.368 77.3799 113.235 77.0905 113.058 76.8398C112.884 76.5846 112.666 76.3841 112.401 76.2383C112.142 76.0924 111.836 76.0195 111.485 76.0195C111.139 76.0195 110.834 76.0924 110.569 76.2383C110.31 76.3841 110.091 76.5846 109.913 76.8398C109.74 77.0905 109.61 77.3799 109.523 77.708C109.437 78.0316 109.394 78.3757 109.394 78.7402ZM117.713 76.6963V82.5137H116.448V75.1172H117.645L117.713 76.6963ZM117.412 78.5352L116.886 78.5146C116.89 78.0088 116.965 77.5417 117.111 77.1133C117.257 76.6803 117.462 76.3044 117.727 75.9854C117.991 75.6663 118.305 75.4202 118.67 75.2471C119.039 75.0693 119.447 74.9805 119.894 74.9805C120.258 74.9805 120.586 75.0306 120.878 75.1309C121.17 75.2266 121.418 75.3815 121.623 75.5957C121.833 75.8099 121.992 76.0879 122.102 76.4297C122.211 76.7669 122.266 77.1794 122.266 77.667V82.5137H120.994V77.6533C120.994 77.266 120.937 76.9561 120.823 76.7236C120.709 76.4867 120.543 76.3158 120.324 76.2109C120.105 76.1016 119.837 76.0469 119.518 76.0469C119.203 76.0469 118.916 76.113 118.656 76.2451C118.401 76.3773 118.18 76.5596 117.993 76.792C117.811 77.0244 117.667 77.291 117.562 77.5918C117.462 77.888 117.412 78.2025 117.412 78.5352ZM127.256 82.6504C126.741 82.6504 126.274 82.5638 125.854 82.3906C125.44 82.2129 125.082 81.9645 124.781 81.6455C124.485 81.3265 124.257 80.9482 124.098 80.5107C123.938 80.0732 123.858 79.5947 123.858 79.0752V78.7881C123.858 78.1865 123.947 77.651 124.125 77.1816C124.303 76.7077 124.544 76.3066 124.85 75.9785C125.155 75.6504 125.501 75.402 125.889 75.2334C126.276 75.0648 126.677 74.9805 127.092 74.9805C127.62 74.9805 128.076 75.0716 128.459 75.2539C128.846 75.4362 129.163 75.6914 129.409 76.0195C129.655 76.3431 129.838 76.7259 129.956 77.168C130.075 77.6055 130.134 78.084 130.134 78.6035V79.1709H124.61V78.1387H128.869V78.043C128.851 77.7148 128.783 77.3958 128.664 77.0859C128.55 76.776 128.368 76.5208 128.117 76.3203C127.867 76.1198 127.525 76.0195 127.092 76.0195C126.805 76.0195 126.54 76.0811 126.299 76.2041C126.057 76.3226 125.85 76.5003 125.677 76.7373C125.504 76.9743 125.369 77.2637 125.273 77.6055C125.178 77.9473 125.13 78.3415 125.13 78.7881V79.0752C125.13 79.4261 125.178 79.7565 125.273 80.0664C125.374 80.3717 125.517 80.6406 125.704 80.873C125.896 81.1055 126.126 81.2878 126.395 81.4199C126.668 81.5521 126.978 81.6182 127.324 81.6182C127.771 81.6182 128.149 81.527 128.459 81.3447C128.769 81.1624 129.04 80.9186 129.272 80.6133L130.038 81.2217C129.879 81.4632 129.676 81.6934 129.43 81.9121C129.184 82.1309 128.881 82.3086 128.521 82.4453C128.165 82.582 127.743 82.6504 127.256 82.6504ZM139.745 81.0781V72.0137H141.017V82.5137H139.854L139.745 81.0781ZM134.769 78.8975V78.7539C134.769 78.1888 134.837 77.6761 134.974 77.2158C135.115 76.751 135.313 76.3522 135.568 76.0195C135.828 75.6868 136.136 75.4316 136.491 75.2539C136.851 75.0716 137.252 74.9805 137.694 74.9805C138.159 74.9805 138.565 75.0625 138.911 75.2266C139.262 75.3861 139.558 75.6208 139.8 75.9307C140.046 76.236 140.24 76.6051 140.381 77.0381C140.522 77.471 140.62 77.9609 140.675 78.5078V79.1367C140.625 79.679 140.527 80.1667 140.381 80.5996C140.24 81.0326 140.046 81.4017 139.8 81.707C139.558 82.0124 139.262 82.2471 138.911 82.4111C138.56 82.5706 138.15 82.6504 137.681 82.6504C137.248 82.6504 136.851 82.557 136.491 82.3701C136.136 82.1833 135.828 81.9212 135.568 81.584C135.313 81.2467 135.115 80.8503 134.974 80.3945C134.837 79.9342 134.769 79.4352 134.769 78.8975ZM136.04 78.7539V78.8975C136.04 79.2666 136.076 79.613 136.149 79.9365C136.227 80.2601 136.345 80.5449 136.505 80.791C136.664 81.0371 136.867 81.2308 137.113 81.3721C137.359 81.5088 137.653 81.5771 137.995 81.5771C138.414 81.5771 138.758 81.4883 139.027 81.3105C139.301 81.1328 139.52 80.8981 139.684 80.6064C139.848 80.3148 139.975 79.998 140.066 79.6562V78.0088C140.012 77.7581 139.932 77.5166 139.827 77.2842C139.727 77.0472 139.595 76.8376 139.431 76.6553C139.271 76.4684 139.073 76.3203 138.836 76.2109C138.604 76.1016 138.328 76.0469 138.009 76.0469C137.662 76.0469 137.364 76.1198 137.113 76.2656C136.867 76.4069 136.664 76.6029 136.505 76.8535C136.345 77.0996 136.227 77.3867 136.149 77.7148C136.076 78.0384 136.04 78.3848 136.04 78.7539ZM147.347 81.249V77.4414C147.347 77.1497 147.287 76.8968 147.169 76.6826C147.055 76.4639 146.882 76.2952 146.649 76.1768C146.417 76.0583 146.13 75.999 145.788 75.999C145.469 75.999 145.189 76.0537 144.947 76.1631C144.71 76.2725 144.523 76.416 144.387 76.5938C144.255 76.7715 144.188 76.9629 144.188 77.168H142.924C142.924 76.9036 142.992 76.6416 143.129 76.3818C143.266 76.1221 143.462 75.8874 143.717 75.6777C143.977 75.4635 144.286 75.2949 144.646 75.1719C145.011 75.0443 145.417 74.9805 145.863 74.9805C146.401 74.9805 146.875 75.0716 147.285 75.2539C147.7 75.4362 148.023 75.7119 148.256 76.0811C148.493 76.4456 148.611 76.9036 148.611 77.4551V80.9004C148.611 81.1465 148.632 81.4085 148.673 81.6865C148.718 81.9645 148.785 82.2038 148.871 82.4043V82.5137H147.552C147.488 82.3678 147.438 82.1742 147.401 81.9326C147.365 81.6865 147.347 81.4587 147.347 81.249ZM147.565 78.0293L147.579 78.918H146.301C145.941 78.918 145.619 78.9476 145.337 79.0068C145.054 79.0615 144.817 79.1458 144.626 79.2598C144.435 79.3737 144.289 79.5173 144.188 79.6904C144.088 79.859 144.038 80.0573 144.038 80.2852C144.038 80.5176 144.09 80.7295 144.195 80.9209C144.3 81.1123 144.457 81.265 144.667 81.3789C144.881 81.4883 145.143 81.543 145.453 81.543C145.84 81.543 146.182 81.4609 146.479 81.2969C146.775 81.1328 147.009 80.9323 147.183 80.6953C147.36 80.4583 147.456 80.2282 147.47 80.0049L148.01 80.6133C147.978 80.8047 147.891 81.0166 147.75 81.249C147.609 81.4814 147.42 81.7048 147.183 81.9189C146.95 82.1286 146.672 82.304 146.349 82.4453C146.03 82.582 145.67 82.6504 145.269 82.6504C144.767 82.6504 144.327 82.5524 143.949 82.3564C143.576 82.1605 143.284 81.8984 143.074 81.5703C142.869 81.2376 142.767 80.8662 142.767 80.4561C142.767 80.0596 142.844 79.7109 142.999 79.4102C143.154 79.1048 143.377 78.8519 143.669 78.6514C143.961 78.4463 144.312 78.2913 144.722 78.1865C145.132 78.0817 145.59 78.0293 146.096 78.0293H147.565ZM152.569 81.748L154.627 75.1172H155.98L153.014 83.6553C152.945 83.8376 152.854 84.0335 152.74 84.2432C152.631 84.4574 152.49 84.6602 152.316 84.8516C152.143 85.043 151.934 85.1979 151.688 85.3164C151.446 85.4395 151.157 85.501 150.819 85.501C150.719 85.501 150.591 85.4873 150.437 85.46C150.282 85.4326 150.172 85.4098 150.108 85.3916L150.102 84.3662C150.138 84.3708 150.195 84.3753 150.272 84.3799C150.354 84.389 150.411 84.3936 150.443 84.3936C150.73 84.3936 150.974 84.3548 151.175 84.2773C151.375 84.2044 151.544 84.0791 151.681 83.9014C151.822 83.7282 151.943 83.4889 152.043 83.1836L152.569 81.748ZM151.059 75.1172L152.979 80.8594L153.308 82.1924L152.398 82.6572L149.678 75.1172H151.059Z" fill="#1C1A1A"/>
<rect x="63" y="95.5137" width="138" height="40" rx="20" fill="#6F219E"/>
<path d="M95.0547 116.74H97.3906C97.3438 117.506 97.1328 118.186 96.7578 118.779C96.388 119.373 95.8698 119.837 95.2031 120.17C94.5417 120.503 93.7448 120.67 92.8125 120.67C92.0833 120.67 91.4297 120.545 90.8516 120.295C90.2734 120.04 89.7786 119.675 89.3672 119.201C88.9609 118.727 88.651 118.154 88.4375 117.482C88.224 116.811 88.1172 116.058 88.1172 115.225V114.436C88.1172 113.602 88.2266 112.85 88.4453 112.178C88.6693 111.501 88.987 110.925 89.3984 110.451C89.8151 109.977 90.3125 109.613 90.8906 109.357C91.4688 109.102 92.1146 108.975 92.8281 108.975C93.776 108.975 94.5755 109.146 95.2266 109.49C95.8828 109.834 96.3906 110.308 96.75 110.912C97.1146 111.516 97.3333 112.204 97.4062 112.975H95.0625C95.0365 112.516 94.9453 112.128 94.7891 111.811C94.6328 111.488 94.3958 111.245 94.0781 111.084C93.7656 110.917 93.349 110.834 92.8281 110.834C92.4375 110.834 92.0964 110.907 91.8047 111.053C91.513 111.199 91.2682 111.42 91.0703 111.717C90.8724 112.014 90.724 112.389 90.625 112.842C90.5312 113.29 90.4844 113.816 90.4844 114.42V115.225C90.4844 115.813 90.5286 116.331 90.6172 116.779C90.7057 117.222 90.8411 117.597 91.0234 117.904C91.2109 118.206 91.4505 118.436 91.7422 118.592C92.0391 118.743 92.3958 118.818 92.8125 118.818C93.3021 118.818 93.7057 118.74 94.0234 118.584C94.3411 118.428 94.5833 118.196 94.75 117.889C94.9219 117.581 95.0234 117.199 95.0547 116.74ZM100.984 108.514V120.514H98.7344V108.514H100.984ZM100.664 115.99H100.047C100.052 115.402 100.13 114.86 100.281 114.365C100.432 113.865 100.648 113.433 100.93 113.068C101.211 112.699 101.547 112.412 101.938 112.209C102.333 112.006 102.771 111.904 103.25 111.904C103.667 111.904 104.044 111.964 104.383 112.084C104.727 112.199 105.021 112.386 105.266 112.646C105.516 112.902 105.708 113.238 105.844 113.654C105.979 114.071 106.047 114.576 106.047 115.17V120.514H103.781V115.154C103.781 114.779 103.727 114.485 103.617 114.271C103.513 114.053 103.359 113.899 103.156 113.811C102.958 113.717 102.714 113.67 102.422 113.67C102.099 113.67 101.823 113.73 101.594 113.85C101.37 113.969 101.19 114.136 101.055 114.35C100.919 114.558 100.82 114.803 100.758 115.084C100.695 115.365 100.664 115.667 100.664 115.99ZM107.398 116.373V116.209C107.398 115.589 107.487 115.019 107.664 114.498C107.841 113.972 108.099 113.516 108.438 113.131C108.776 112.745 109.193 112.446 109.688 112.232C110.182 112.014 110.75 111.904 111.391 111.904C112.031 111.904 112.602 112.014 113.102 112.232C113.602 112.446 114.021 112.745 114.359 113.131C114.703 113.516 114.964 113.972 115.141 114.498C115.318 115.019 115.406 115.589 115.406 116.209V116.373C115.406 116.988 115.318 117.558 115.141 118.084C114.964 118.605 114.703 119.061 114.359 119.451C114.021 119.837 113.604 120.136 113.109 120.35C112.615 120.563 112.047 120.67 111.406 120.67C110.766 120.67 110.195 120.563 109.695 120.35C109.201 120.136 108.781 119.837 108.438 119.451C108.099 119.061 107.841 118.605 107.664 118.084C107.487 117.558 107.398 116.988 107.398 116.373ZM109.648 116.209V116.373C109.648 116.727 109.68 117.058 109.742 117.365C109.805 117.673 109.904 117.943 110.039 118.178C110.18 118.407 110.362 118.587 110.586 118.717C110.81 118.847 111.083 118.912 111.406 118.912C111.719 118.912 111.987 118.847 112.211 118.717C112.435 118.587 112.615 118.407 112.75 118.178C112.885 117.943 112.984 117.673 113.047 117.365C113.115 117.058 113.148 116.727 113.148 116.373V116.209C113.148 115.865 113.115 115.542 113.047 115.24C112.984 114.933 112.883 114.662 112.742 114.428C112.607 114.188 112.427 114.001 112.203 113.865C111.979 113.73 111.708 113.662 111.391 113.662C111.073 113.662 110.802 113.73 110.578 113.865C110.359 114.001 110.18 114.188 110.039 114.428C109.904 114.662 109.805 114.933 109.742 115.24C109.68 115.542 109.648 115.865 109.648 116.209ZM116.43 116.373V116.209C116.43 115.589 116.518 115.019 116.695 114.498C116.872 113.972 117.13 113.516 117.469 113.131C117.807 112.745 118.224 112.446 118.719 112.232C119.214 112.014 119.781 111.904 120.422 111.904C121.062 111.904 121.633 112.014 122.133 112.232C122.633 112.446 123.052 112.745 123.391 113.131C123.734 113.516 123.995 113.972 124.172 114.498C124.349 115.019 124.438 115.589 124.438 116.209V116.373C124.438 116.988 124.349 117.558 124.172 118.084C123.995 118.605 123.734 119.061 123.391 119.451C123.052 119.837 122.635 120.136 122.141 120.35C121.646 120.563 121.078 120.67 120.438 120.67C119.797 120.67 119.227 120.563 118.727 120.35C118.232 120.136 117.812 119.837 117.469 119.451C117.13 119.061 116.872 118.605 116.695 118.084C116.518 117.558 116.43 116.988 116.43 116.373ZM118.68 116.209V116.373C118.68 116.727 118.711 117.058 118.773 117.365C118.836 117.673 118.935 117.943 119.07 118.178C119.211 118.407 119.393 118.587 119.617 118.717C119.841 118.847 120.115 118.912 120.438 118.912C120.75 118.912 121.018 118.847 121.242 118.717C121.466 118.587 121.646 118.407 121.781 118.178C121.917 117.943 122.016 117.673 122.078 117.365C122.146 117.058 122.18 116.727 122.18 116.373V116.209C122.18 115.865 122.146 115.542 122.078 115.24C122.016 114.933 121.914 114.662 121.773 114.428C121.638 114.188 121.458 114.001 121.234 113.865C121.01 113.73 120.74 113.662 120.422 113.662C120.104 113.662 119.833 113.73 119.609 113.865C119.391 114.001 119.211 114.188 119.07 114.428C118.935 114.662 118.836 114.933 118.773 115.24C118.711 115.542 118.68 115.865 118.68 116.209ZM130.391 118.178C130.391 118.016 130.344 117.87 130.25 117.74C130.156 117.61 129.982 117.49 129.727 117.381C129.477 117.266 129.115 117.162 128.641 117.068C128.214 116.975 127.815 116.857 127.445 116.717C127.081 116.571 126.763 116.396 126.492 116.193C126.227 115.99 126.018 115.751 125.867 115.475C125.716 115.193 125.641 114.873 125.641 114.514C125.641 114.16 125.716 113.826 125.867 113.514C126.023 113.201 126.245 112.925 126.531 112.686C126.823 112.441 127.177 112.251 127.594 112.115C128.016 111.975 128.49 111.904 129.016 111.904C129.75 111.904 130.38 112.021 130.906 112.256C131.438 112.49 131.844 112.813 132.125 113.225C132.411 113.631 132.555 114.094 132.555 114.615H130.305C130.305 114.396 130.258 114.201 130.164 114.029C130.076 113.852 129.935 113.714 129.742 113.615C129.555 113.511 129.31 113.459 129.008 113.459C128.758 113.459 128.542 113.503 128.359 113.592C128.177 113.675 128.036 113.79 127.938 113.936C127.844 114.076 127.797 114.232 127.797 114.404C127.797 114.535 127.823 114.652 127.875 114.756C127.932 114.855 128.023 114.946 128.148 115.029C128.273 115.113 128.435 115.191 128.633 115.264C128.836 115.331 129.086 115.394 129.383 115.451C129.992 115.576 130.536 115.74 131.016 115.943C131.495 116.141 131.875 116.412 132.156 116.756C132.438 117.094 132.578 117.54 132.578 118.092C132.578 118.467 132.495 118.811 132.328 119.123C132.161 119.436 131.922 119.709 131.609 119.943C131.297 120.173 130.922 120.352 130.484 120.482C130.052 120.607 129.565 120.67 129.023 120.67C128.237 120.67 127.57 120.529 127.023 120.248C126.482 119.967 126.07 119.61 125.789 119.178C125.513 118.74 125.375 118.292 125.375 117.834H127.508C127.518 118.141 127.596 118.389 127.742 118.576C127.893 118.764 128.083 118.899 128.312 118.982C128.547 119.066 128.799 119.107 129.07 119.107C129.362 119.107 129.604 119.068 129.797 118.99C129.99 118.907 130.135 118.798 130.234 118.662C130.339 118.521 130.391 118.36 130.391 118.178ZM137.93 120.67C137.273 120.67 136.685 120.566 136.164 120.357C135.643 120.144 135.201 119.85 134.836 119.475C134.477 119.1 134.201 118.665 134.008 118.17C133.815 117.67 133.719 117.139 133.719 116.576V116.264C133.719 115.623 133.81 115.037 133.992 114.506C134.174 113.975 134.435 113.514 134.773 113.123C135.117 112.732 135.534 112.433 136.023 112.225C136.513 112.011 137.065 111.904 137.68 111.904C138.279 111.904 138.81 112.003 139.273 112.201C139.737 112.399 140.125 112.68 140.438 113.045C140.755 113.41 140.995 113.847 141.156 114.357C141.318 114.863 141.398 115.425 141.398 116.045V116.982H134.68V115.482H139.188V115.311C139.188 114.998 139.13 114.719 139.016 114.475C138.906 114.225 138.74 114.027 138.516 113.881C138.292 113.735 138.005 113.662 137.656 113.662C137.359 113.662 137.104 113.727 136.891 113.857C136.677 113.988 136.503 114.17 136.367 114.404C136.237 114.639 136.138 114.915 136.07 115.232C136.008 115.545 135.977 115.889 135.977 116.264V116.576C135.977 116.915 136.023 117.227 136.117 117.514C136.216 117.8 136.354 118.048 136.531 118.256C136.714 118.464 136.932 118.626 137.188 118.74C137.448 118.855 137.742 118.912 138.07 118.912C138.477 118.912 138.854 118.834 139.203 118.678C139.557 118.516 139.862 118.274 140.117 117.951L141.211 119.139C141.034 119.394 140.792 119.639 140.484 119.873C140.182 120.107 139.818 120.3 139.391 120.451C138.964 120.597 138.477 120.67 137.93 120.67ZM148.914 113.686V123.764H146.664V112.061H148.75L148.914 113.686ZM154.266 116.193V116.357C154.266 116.972 154.193 117.542 154.047 118.068C153.906 118.594 153.698 119.053 153.422 119.443C153.146 119.829 152.802 120.131 152.391 120.35C151.984 120.563 151.516 120.67 150.984 120.67C150.469 120.67 150.021 120.566 149.641 120.357C149.26 120.149 148.94 119.857 148.68 119.482C148.424 119.102 148.219 118.662 148.062 118.162C147.906 117.662 147.786 117.126 147.703 116.553V116.123C147.786 115.508 147.906 114.946 148.062 114.436C148.219 113.92 148.424 113.475 148.68 113.1C148.94 112.719 149.258 112.425 149.633 112.217C150.013 112.008 150.458 111.904 150.969 111.904C151.505 111.904 151.977 112.006 152.383 112.209C152.794 112.412 153.138 112.704 153.414 113.084C153.695 113.464 153.906 113.917 154.047 114.443C154.193 114.969 154.266 115.553 154.266 116.193ZM152.008 116.357V116.193C152.008 115.834 151.977 115.503 151.914 115.201C151.857 114.894 151.763 114.626 151.633 114.396C151.508 114.167 151.341 113.99 151.133 113.865C150.93 113.735 150.682 113.67 150.391 113.67C150.083 113.67 149.82 113.719 149.602 113.818C149.388 113.917 149.214 114.061 149.078 114.248C148.943 114.436 148.841 114.66 148.773 114.92C148.706 115.18 148.664 115.475 148.648 115.803V116.889C148.674 117.274 148.747 117.62 148.867 117.928C148.987 118.23 149.172 118.469 149.422 118.646C149.672 118.824 150 118.912 150.406 118.912C150.703 118.912 150.953 118.847 151.156 118.717C151.359 118.581 151.523 118.396 151.648 118.162C151.779 117.928 151.87 117.657 151.922 117.35C151.979 117.042 152.008 116.712 152.008 116.357ZM158.039 108.514V120.514H155.781V108.514H158.039ZM164.461 118.607V114.842C164.461 114.571 164.417 114.339 164.328 114.146C164.24 113.949 164.102 113.795 163.914 113.686C163.732 113.576 163.495 113.521 163.203 113.521C162.953 113.521 162.737 113.566 162.555 113.654C162.372 113.738 162.232 113.86 162.133 114.021C162.034 114.178 161.984 114.363 161.984 114.576H159.734C159.734 114.217 159.818 113.876 159.984 113.553C160.151 113.23 160.393 112.946 160.711 112.701C161.029 112.451 161.406 112.256 161.844 112.115C162.286 111.975 162.781 111.904 163.328 111.904C163.984 111.904 164.568 112.014 165.078 112.232C165.589 112.451 165.99 112.779 166.281 113.217C166.578 113.654 166.727 114.201 166.727 114.857V118.475C166.727 118.938 166.755 119.318 166.812 119.615C166.87 119.907 166.953 120.162 167.062 120.381V120.514H164.789C164.68 120.285 164.596 119.998 164.539 119.654C164.487 119.305 164.461 118.956 164.461 118.607ZM164.758 115.365L164.773 116.639H163.516C163.219 116.639 162.961 116.673 162.742 116.74C162.523 116.808 162.344 116.904 162.203 117.029C162.062 117.149 161.958 117.29 161.891 117.451C161.828 117.613 161.797 117.79 161.797 117.982C161.797 118.175 161.841 118.35 161.93 118.506C162.018 118.657 162.146 118.777 162.312 118.865C162.479 118.949 162.674 118.99 162.898 118.99C163.237 118.99 163.531 118.923 163.781 118.787C164.031 118.652 164.224 118.485 164.359 118.287C164.5 118.089 164.573 117.902 164.578 117.725L165.172 118.678C165.089 118.891 164.974 119.113 164.828 119.342C164.688 119.571 164.508 119.787 164.289 119.99C164.07 120.188 163.807 120.352 163.5 120.482C163.193 120.607 162.828 120.67 162.406 120.67C161.87 120.67 161.383 120.563 160.945 120.35C160.513 120.131 160.169 119.831 159.914 119.451C159.664 119.066 159.539 118.628 159.539 118.139C159.539 117.696 159.622 117.303 159.789 116.959C159.956 116.615 160.201 116.326 160.523 116.092C160.852 115.852 161.26 115.673 161.75 115.553C162.24 115.428 162.807 115.365 163.453 115.365H164.758ZM170.664 113.865V120.514H168.414V112.061H170.523L170.664 113.865ZM170.336 115.99H169.727C169.727 115.365 169.807 114.803 169.969 114.303C170.13 113.798 170.357 113.368 170.648 113.014C170.94 112.654 171.286 112.381 171.688 112.193C172.094 112.001 172.547 111.904 173.047 111.904C173.443 111.904 173.805 111.962 174.133 112.076C174.461 112.191 174.742 112.373 174.977 112.623C175.216 112.873 175.398 113.204 175.523 113.615C175.654 114.027 175.719 114.529 175.719 115.123V120.514H173.453V115.115C173.453 114.74 173.401 114.449 173.297 114.24C173.193 114.032 173.039 113.886 172.836 113.803C172.638 113.714 172.393 113.67 172.102 113.67C171.799 113.67 171.536 113.73 171.312 113.85C171.094 113.969 170.911 114.136 170.766 114.35C170.625 114.558 170.518 114.803 170.445 115.084C170.372 115.365 170.336 115.667 170.336 115.99Z" fill="white"/>
<path d="M43.7559 151.365L44.9336 149.748L43.1641 149.221L43.4395 148.342L45.209 148.992L45.1562 146.977H46.0469L45.9883 149.027L47.7344 148.377L48.0039 149.273L46.2051 149.807L47.3594 151.395L46.6328 151.939L45.5488 150.252L44.4883 151.898L43.7559 151.365ZM52.4922 146.982H53.5879L56.3828 153.938L59.1719 146.982H60.2734L56.8047 155.514H55.9492L52.4922 146.982ZM52.1348 146.982H53.1016L53.2598 152.186V155.514H52.1348V146.982ZM59.6582 146.982H60.625V155.514H59.5V152.186L59.6582 146.982ZM65.0781 155.631C64.6367 155.631 64.2363 155.557 63.877 155.408C63.5215 155.256 63.2148 155.043 62.957 154.77C62.7031 154.496 62.5078 154.172 62.3711 153.797C62.2344 153.422 62.166 153.012 62.166 152.566V152.32C62.166 151.805 62.2422 151.346 62.3945 150.943C62.5469 150.537 62.7539 150.193 63.0156 149.912C63.2773 149.631 63.5742 149.418 63.9062 149.273C64.2383 149.129 64.582 149.057 64.9375 149.057C65.3906 149.057 65.7812 149.135 66.1094 149.291C66.4414 149.447 66.7129 149.666 66.9238 149.947C67.1348 150.225 67.291 150.553 67.3926 150.932C67.4941 151.307 67.5449 151.717 67.5449 152.162V152.648H62.8105V151.764H66.4609V151.682C66.4453 151.4 66.3867 151.127 66.2852 150.861C66.1875 150.596 66.0312 150.377 65.8164 150.205C65.6016 150.033 65.3086 149.947 64.9375 149.947C64.6914 149.947 64.4648 150 64.2578 150.105C64.0508 150.207 63.873 150.359 63.7246 150.562C63.5762 150.766 63.4609 151.014 63.3789 151.307C63.2969 151.6 63.2559 151.938 63.2559 152.32V152.566C63.2559 152.867 63.2969 153.15 63.3789 153.416C63.4648 153.678 63.5879 153.908 63.748 154.107C63.9121 154.307 64.1094 154.463 64.3398 154.576C64.5742 154.689 64.8398 154.746 65.1367 154.746C65.5195 154.746 65.8438 154.668 66.1094 154.512C66.375 154.355 66.6074 154.146 66.8066 153.885L67.4629 154.406C67.3262 154.613 67.1523 154.811 66.9414 154.998C66.7305 155.186 66.4707 155.338 66.1621 155.455C65.8574 155.572 65.4961 155.631 65.0781 155.631ZM69.8887 150.434V155.514H68.7988V149.174H69.8301L69.8887 150.434ZM69.666 152.104L69.1621 152.086C69.166 151.652 69.2227 151.252 69.332 150.885C69.4414 150.514 69.6035 150.191 69.8184 149.918C70.0332 149.645 70.3008 149.434 70.6211 149.285C70.9414 149.133 71.3125 149.057 71.7344 149.057C72.0312 149.057 72.3047 149.1 72.5547 149.186C72.8047 149.268 73.0215 149.398 73.2051 149.578C73.3887 149.758 73.5312 149.988 73.6328 150.27C73.7344 150.551 73.7852 150.891 73.7852 151.289V155.514H72.7012V151.342C72.7012 151.01 72.6445 150.744 72.5312 150.545C72.4219 150.346 72.2656 150.201 72.0625 150.111C71.8594 150.018 71.6211 149.971 71.3477 149.971C71.0273 149.971 70.7598 150.027 70.5449 150.141C70.3301 150.254 70.1582 150.41 70.0293 150.609C69.9004 150.809 69.8066 151.037 69.748 151.295C69.6934 151.549 69.666 151.818 69.666 152.104ZM73.7734 151.506L73.0469 151.729C73.0508 151.381 73.1074 151.047 73.2168 150.727C73.3301 150.406 73.4922 150.121 73.7031 149.871C73.918 149.621 74.1816 149.424 74.4941 149.279C74.8066 149.131 75.1641 149.057 75.5664 149.057C75.9062 149.057 76.207 149.102 76.4688 149.191C76.7344 149.281 76.957 149.42 77.1367 149.607C77.3203 149.791 77.459 150.027 77.5527 150.316C77.6465 150.605 77.6934 150.949 77.6934 151.348V155.514H76.6035V151.336C76.6035 150.98 76.5469 150.705 76.4336 150.51C76.3242 150.311 76.168 150.172 75.9648 150.094C75.7656 150.012 75.5273 149.971 75.25 149.971C75.0117 149.971 74.8008 150.012 74.6172 150.094C74.4336 150.176 74.2793 150.289 74.1543 150.434C74.0293 150.574 73.9336 150.736 73.8672 150.92C73.8047 151.104 73.7734 151.299 73.7734 151.506ZM79.3281 146.514H80.418V154.283L80.3242 155.514H79.3281V146.514ZM84.7012 152.291V152.414C84.7012 152.875 84.6465 153.303 84.5371 153.697C84.4277 154.088 84.2676 154.428 84.0566 154.717C83.8457 155.006 83.5879 155.23 83.2832 155.391C82.9785 155.551 82.6289 155.631 82.2344 155.631C81.832 155.631 81.4785 155.562 81.1738 155.426C80.873 155.285 80.6191 155.084 80.4121 154.822C80.2051 154.561 80.0391 154.244 79.9141 153.873C79.793 153.502 79.709 153.084 79.6621 152.619V152.08C79.709 151.611 79.793 151.191 79.9141 150.82C80.0391 150.449 80.2051 150.133 80.4121 149.871C80.6191 149.605 80.873 149.404 81.1738 149.268C81.4746 149.127 81.8242 149.057 82.2227 149.057C82.6211 149.057 82.9746 149.135 83.2832 149.291C83.5918 149.443 83.8496 149.662 84.0566 149.947C84.2676 150.232 84.4277 150.574 84.5371 150.973C84.6465 151.367 84.7012 151.807 84.7012 152.291ZM83.6113 152.414V152.291C83.6113 151.975 83.582 151.678 83.5234 151.4C83.4648 151.119 83.3711 150.873 83.2422 150.662C83.1133 150.447 82.9434 150.279 82.7324 150.158C82.5215 150.033 82.2617 149.971 81.9531 149.971C81.6797 149.971 81.4414 150.018 81.2383 150.111C81.0391 150.205 80.8691 150.332 80.7285 150.492C80.5879 150.648 80.4727 150.828 80.3828 151.031C80.2969 151.23 80.2324 151.438 80.1895 151.652V153.064C80.252 153.338 80.3535 153.602 80.4941 153.855C80.6387 154.105 80.8301 154.311 81.0684 154.471C81.3105 154.631 81.6094 154.711 81.9648 154.711C82.2578 154.711 82.5078 154.652 82.7148 154.535C82.9258 154.414 83.0957 154.248 83.2246 154.037C83.3574 153.826 83.4551 153.582 83.5176 153.305C83.5801 153.027 83.6113 152.73 83.6113 152.414ZM88.7031 155.631C88.2617 155.631 87.8613 155.557 87.502 155.408C87.1465 155.256 86.8398 155.043 86.582 154.77C86.3281 154.496 86.1328 154.172 85.9961 153.797C85.8594 153.422 85.791 153.012 85.791 152.566V152.32C85.791 151.805 85.8672 151.346 86.0195 150.943C86.1719 150.537 86.3789 150.193 86.6406 149.912C86.9023 149.631 87.1992 149.418 87.5312 149.273C87.8633 149.129 88.207 149.057 88.5625 149.057C89.0156 149.057 89.4062 149.135 89.7344 149.291C90.0664 149.447 90.3379 149.666 90.5488 149.947C90.7598 150.225 90.916 150.553 91.0176 150.932C91.1191 151.307 91.1699 151.717 91.1699 152.162V152.648H86.4355V151.764H90.0859V151.682C90.0703 151.4 90.0117 151.127 89.9102 150.861C89.8125 150.596 89.6562 150.377 89.4414 150.205C89.2266 150.033 88.9336 149.947 88.5625 149.947C88.3164 149.947 88.0898 150 87.8828 150.105C87.6758 150.207 87.498 150.359 87.3496 150.562C87.2012 150.766 87.0859 151.014 87.0039 151.307C86.9219 151.6 86.8809 151.938 86.8809 152.32V152.566C86.8809 152.867 86.9219 153.15 87.0039 153.416C87.0898 153.678 87.2129 153.908 87.373 154.107C87.5371 154.307 87.7344 154.463 87.9648 154.576C88.1992 154.689 88.4648 154.746 88.7617 154.746C89.1445 154.746 89.4688 154.668 89.7344 154.512C90 154.355 90.2324 154.146 90.4316 153.885L91.0879 154.406C90.9512 154.613 90.7773 154.811 90.5664 154.998C90.3555 155.186 90.0957 155.338 89.7871 155.455C89.4824 155.572 89.1211 155.631 88.7031 155.631ZM93.5195 150.17V155.514H92.4355V149.174H93.4902L93.5195 150.17ZM95.5 149.139L95.4941 150.146C95.4043 150.127 95.3184 150.115 95.2363 150.111C95.1582 150.104 95.0684 150.1 94.9668 150.1C94.7168 150.1 94.4961 150.139 94.3047 150.217C94.1133 150.295 93.9512 150.404 93.8184 150.545C93.6855 150.686 93.5801 150.854 93.502 151.049C93.4277 151.24 93.3789 151.451 93.3555 151.682L93.0508 151.857C93.0508 151.475 93.0879 151.115 93.1621 150.779C93.2402 150.443 93.3594 150.146 93.5195 149.889C93.6797 149.627 93.8828 149.424 94.1289 149.279C94.3789 149.131 94.6758 149.057 95.0195 149.057C95.0977 149.057 95.1875 149.066 95.2891 149.086C95.3906 149.102 95.4609 149.119 95.5 149.139ZM100.193 153.832C100.193 153.676 100.158 153.531 100.088 153.398C100.021 153.262 99.8828 153.139 99.6719 153.029C99.4648 152.916 99.1523 152.818 98.7344 152.736C98.3828 152.662 98.0645 152.574 97.7793 152.473C97.498 152.371 97.2578 152.248 97.0586 152.104C96.8633 151.959 96.7129 151.789 96.6074 151.594C96.502 151.398 96.4492 151.17 96.4492 150.908C96.4492 150.658 96.5039 150.422 96.6133 150.199C96.7266 149.977 96.8848 149.779 97.0879 149.607C97.2949 149.436 97.543 149.301 97.832 149.203C98.1211 149.105 98.4434 149.057 98.7988 149.057C99.3066 149.057 99.7402 149.146 100.1 149.326C100.459 149.506 100.734 149.746 100.926 150.047C101.117 150.344 101.213 150.674 101.213 151.037H100.129C100.129 150.861 100.076 150.691 99.9707 150.527C99.8691 150.359 99.7188 150.221 99.5195 150.111C99.3242 150.002 99.084 149.947 98.7988 149.947C98.498 149.947 98.2539 149.994 98.0664 150.088C97.8828 150.178 97.748 150.293 97.6621 150.434C97.5801 150.574 97.5391 150.723 97.5391 150.879C97.5391 150.996 97.5586 151.102 97.5977 151.195C97.6406 151.285 97.7148 151.369 97.8203 151.447C97.9258 151.521 98.0742 151.592 98.2656 151.658C98.457 151.725 98.7012 151.791 98.998 151.857C99.5176 151.975 99.9453 152.115 100.281 152.279C100.617 152.443 100.867 152.645 101.031 152.883C101.195 153.121 101.277 153.41 101.277 153.75C101.277 154.027 101.219 154.281 101.102 154.512C100.988 154.742 100.822 154.941 100.604 155.109C100.389 155.273 100.131 155.402 99.8301 155.496C99.5332 155.586 99.1992 155.631 98.8281 155.631C98.2695 155.631 97.7969 155.531 97.4102 155.332C97.0234 155.133 96.7305 154.875 96.5312 154.559C96.332 154.242 96.2324 153.908 96.2324 153.557H97.3223C97.3379 153.854 97.4238 154.09 97.5801 154.266C97.7363 154.438 97.9277 154.561 98.1543 154.635C98.3809 154.705 98.6055 154.74 98.8281 154.74C99.125 154.74 99.373 154.701 99.5723 154.623C99.7754 154.545 99.9297 154.438 100.035 154.301C100.141 154.164 100.193 154.008 100.193 153.832ZM103.785 146.514V155.514H102.701V146.514H103.785ZM103.527 152.104L103.076 152.086C103.08 151.652 103.145 151.252 103.27 150.885C103.395 150.514 103.57 150.191 103.797 149.918C104.023 149.645 104.293 149.434 104.605 149.285C104.922 149.133 105.271 149.057 105.654 149.057C105.967 149.057 106.248 149.1 106.498 149.186C106.748 149.268 106.961 149.4 107.137 149.584C107.316 149.768 107.453 150.006 107.547 150.299C107.641 150.588 107.688 150.941 107.688 151.359V155.514H106.598V151.348C106.598 151.016 106.549 150.75 106.451 150.551C106.354 150.348 106.211 150.201 106.023 150.111C105.836 150.018 105.605 149.971 105.332 149.971C105.062 149.971 104.816 150.027 104.594 150.141C104.375 150.254 104.186 150.41 104.025 150.609C103.869 150.809 103.746 151.037 103.656 151.295C103.57 151.549 103.527 151.818 103.527 152.104ZM110.488 149.174V155.514H109.398V149.174H110.488ZM109.316 147.492C109.316 147.316 109.369 147.168 109.475 147.047C109.584 146.926 109.744 146.865 109.955 146.865C110.162 146.865 110.32 146.926 110.43 147.047C110.543 147.168 110.6 147.316 110.6 147.492C110.6 147.66 110.543 147.805 110.43 147.926C110.32 148.043 110.162 148.102 109.955 148.102C109.744 148.102 109.584 148.043 109.475 147.926C109.369 147.805 109.316 147.66 109.316 147.492ZM113.312 150.393V157.951H112.223V149.174H113.219L113.312 150.393ZM117.584 152.291V152.414C117.584 152.875 117.529 153.303 117.42 153.697C117.311 154.088 117.15 154.428 116.939 154.717C116.732 155.006 116.477 155.23 116.172 155.391C115.867 155.551 115.518 155.631 115.123 155.631C114.721 155.631 114.365 155.564 114.057 155.432C113.748 155.299 113.486 155.105 113.271 154.852C113.057 154.598 112.885 154.293 112.756 153.938C112.631 153.582 112.545 153.182 112.498 152.736V152.08C112.545 151.611 112.633 151.191 112.762 150.82C112.891 150.449 113.061 150.133 113.271 149.871C113.486 149.605 113.746 149.404 114.051 149.268C114.355 149.127 114.707 149.057 115.105 149.057C115.504 149.057 115.857 149.135 116.166 149.291C116.475 149.443 116.734 149.662 116.945 149.947C117.156 150.232 117.314 150.574 117.42 150.973C117.529 151.367 117.584 151.807 117.584 152.291ZM116.494 152.414V152.291C116.494 151.975 116.461 151.678 116.395 151.4C116.328 151.119 116.225 150.873 116.084 150.662C115.947 150.447 115.771 150.279 115.557 150.158C115.342 150.033 115.086 149.971 114.789 149.971C114.516 149.971 114.277 150.018 114.074 150.111C113.875 150.205 113.705 150.332 113.564 150.492C113.424 150.648 113.309 150.828 113.219 151.031C113.133 151.23 113.068 151.438 113.025 151.652V153.17C113.104 153.443 113.213 153.701 113.354 153.943C113.494 154.182 113.682 154.375 113.916 154.523C114.15 154.668 114.445 154.74 114.801 154.74C115.094 154.74 115.346 154.68 115.557 154.559C115.771 154.434 115.947 154.264 116.084 154.049C116.225 153.834 116.328 153.588 116.395 153.311C116.461 153.029 116.494 152.73 116.494 152.414ZM124.574 155.631C124.133 155.631 123.732 155.557 123.373 155.408C123.018 155.256 122.711 155.043 122.453 154.77C122.199 154.496 122.004 154.172 121.867 153.797C121.73 153.422 121.662 153.012 121.662 152.566V152.32C121.662 151.805 121.738 151.346 121.891 150.943C122.043 150.537 122.25 150.193 122.512 149.912C122.773 149.631 123.07 149.418 123.402 149.273C123.734 149.129 124.078 149.057 124.434 149.057C124.887 149.057 125.277 149.135 125.605 149.291C125.938 149.447 126.209 149.666 126.42 149.947C126.631 150.225 126.787 150.553 126.889 150.932C126.99 151.307 127.041 151.717 127.041 152.162V152.648H122.307V151.764H125.957V151.682C125.941 151.4 125.883 151.127 125.781 150.861C125.684 150.596 125.527 150.377 125.312 150.205C125.098 150.033 124.805 149.947 124.434 149.947C124.188 149.947 123.961 150 123.754 150.105C123.547 150.207 123.369 150.359 123.221 150.562C123.072 150.766 122.957 151.014 122.875 151.307C122.793 151.6 122.752 151.938 122.752 152.32V152.566C122.752 152.867 122.793 153.15 122.875 153.416C122.961 153.678 123.084 153.908 123.244 154.107C123.408 154.307 123.605 154.463 123.836 154.576C124.07 154.689 124.336 154.746 124.633 154.746C125.016 154.746 125.34 154.668 125.605 154.512C125.871 154.355 126.104 154.146 126.303 153.885L126.959 154.406C126.822 154.613 126.648 154.811 126.438 154.998C126.227 155.186 125.967 155.338 125.658 155.455C125.354 155.572 124.992 155.631 124.574 155.631ZM129.039 149.174L130.428 151.482L131.834 149.174H133.105L131.031 152.303L133.17 155.514H131.916L130.451 153.135L128.986 155.514H127.727L129.859 152.303L127.791 149.174H129.039ZM135.344 150.393V157.951H134.254V149.174H135.25L135.344 150.393ZM139.615 152.291V152.414C139.615 152.875 139.561 153.303 139.451 153.697C139.342 154.088 139.182 154.428 138.971 154.717C138.764 155.006 138.508 155.23 138.203 155.391C137.898 155.551 137.549 155.631 137.154 155.631C136.752 155.631 136.396 155.564 136.088 155.432C135.779 155.299 135.518 155.105 135.303 154.852C135.088 154.598 134.916 154.293 134.787 153.938C134.662 153.582 134.576 153.182 134.529 152.736V152.08C134.576 151.611 134.664 151.191 134.793 150.82C134.922 150.449 135.092 150.133 135.303 149.871C135.518 149.605 135.777 149.404 136.082 149.268C136.387 149.127 136.738 149.057 137.137 149.057C137.535 149.057 137.889 149.135 138.197 149.291C138.506 149.443 138.766 149.662 138.977 149.947C139.188 150.232 139.346 150.574 139.451 150.973C139.561 151.367 139.615 151.807 139.615 152.291ZM138.525 152.414V152.291C138.525 151.975 138.492 151.678 138.426 151.4C138.359 151.119 138.256 150.873 138.115 150.662C137.979 150.447 137.803 150.279 137.588 150.158C137.373 150.033 137.117 149.971 136.82 149.971C136.547 149.971 136.309 150.018 136.105 150.111C135.906 150.205 135.736 150.332 135.596 150.492C135.455 150.648 135.34 150.828 135.25 151.031C135.164 151.23 135.1 151.438 135.057 151.652V153.17C135.135 153.443 135.244 153.701 135.385 153.943C135.525 154.182 135.713 154.375 135.947 154.523C136.182 154.668 136.477 154.74 136.832 154.74C137.125 154.74 137.377 154.68 137.588 154.559C137.803 154.434 137.979 154.264 138.115 154.049C138.256 153.834 138.359 153.588 138.426 153.311C138.492 153.029 138.525 152.73 138.525 152.414ZM142.176 149.174V155.514H141.086V149.174H142.176ZM141.004 147.492C141.004 147.316 141.057 147.168 141.162 147.047C141.271 146.926 141.432 146.865 141.643 146.865C141.85 146.865 142.008 146.926 142.117 147.047C142.23 147.168 142.287 147.316 142.287 147.492C142.287 147.66 142.23 147.805 142.117 147.926C142.008 148.043 141.85 148.102 141.643 148.102C141.432 148.102 141.271 148.043 141.162 147.926C141.057 147.805 141.004 147.66 141.004 147.492ZM145 150.17V155.514H143.916V149.174H144.971L145 150.17ZM146.98 149.139L146.975 150.146C146.885 150.127 146.799 150.115 146.717 150.111C146.639 150.104 146.549 150.1 146.447 150.1C146.197 150.1 145.977 150.139 145.785 150.217C145.594 150.295 145.432 150.404 145.299 150.545C145.166 150.686 145.061 150.854 144.982 151.049C144.908 151.24 144.859 151.451 144.836 151.682L144.531 151.857C144.531 151.475 144.568 151.115 144.643 150.779C144.721 150.443 144.84 150.146 145 149.889C145.16 149.627 145.363 149.424 145.609 149.279C145.859 149.131 146.156 149.057 146.5 149.057C146.578 149.057 146.668 149.066 146.77 149.086C146.871 149.102 146.941 149.119 146.98 149.139ZM150.496 155.631C150.055 155.631 149.654 155.557 149.295 155.408C148.939 155.256 148.633 155.043 148.375 154.77C148.121 154.496 147.926 154.172 147.789 153.797C147.652 153.422 147.584 153.012 147.584 152.566V152.32C147.584 151.805 147.66 151.346 147.812 150.943C147.965 150.537 148.172 150.193 148.434 149.912C148.695 149.631 148.992 149.418 149.324 149.273C149.656 149.129 150 149.057 150.355 149.057C150.809 149.057 151.199 149.135 151.527 149.291C151.859 149.447 152.131 149.666 152.342 149.947C152.553 150.225 152.709 150.553 152.811 150.932C152.912 151.307 152.963 151.717 152.963 152.162V152.648H148.229V151.764H151.879V151.682C151.863 151.4 151.805 151.127 151.703 150.861C151.605 150.596 151.449 150.377 151.234 150.205C151.02 150.033 150.727 149.947 150.355 149.947C150.109 149.947 149.883 150 149.676 150.105C149.469 150.207 149.291 150.359 149.143 150.562C148.994 150.766 148.879 151.014 148.797 151.307C148.715 151.6 148.674 151.938 148.674 152.32V152.566C148.674 152.867 148.715 153.15 148.797 153.416C148.883 153.678 149.006 153.908 149.166 154.107C149.33 154.307 149.527 154.463 149.758 154.576C149.992 154.689 150.258 154.746 150.555 154.746C150.938 154.746 151.262 154.668 151.527 154.512C151.793 154.355 152.025 154.146 152.225 153.885L152.881 154.406C152.744 154.613 152.57 154.811 152.359 154.998C152.148 155.186 151.889 155.338 151.58 155.455C151.275 155.572 150.914 155.631 150.496 155.631ZM157.92 153.832C157.92 153.676 157.885 153.531 157.814 153.398C157.748 153.262 157.609 153.139 157.398 153.029C157.191 152.916 156.879 152.818 156.461 152.736C156.109 152.662 155.791 152.574 155.506 152.473C155.225 152.371 154.984 152.248 154.785 152.104C154.59 151.959 154.439 151.789 154.334 151.594C154.229 151.398 154.176 151.17 154.176 150.908C154.176 150.658 154.23 150.422 154.34 150.199C154.453 149.977 154.611 149.779 154.814 149.607C155.021 149.436 155.27 149.301 155.559 149.203C155.848 149.105 156.17 149.057 156.525 149.057C157.033 149.057 157.467 149.146 157.826 149.326C158.186 149.506 158.461 149.746 158.652 150.047C158.844 150.344 158.939 150.674 158.939 151.037H157.855C157.855 150.861 157.803 150.691 157.697 150.527C157.596 150.359 157.445 150.221 157.246 150.111C157.051 150.002 156.811 149.947 156.525 149.947C156.225 149.947 155.98 149.994 155.793 150.088C155.609 150.178 155.475 150.293 155.389 150.434C155.307 150.574 155.266 150.723 155.266 150.879C155.266 150.996 155.285 151.102 155.324 151.195C155.367 151.285 155.441 151.369 155.547 151.447C155.652 151.521 155.801 151.592 155.992 151.658C156.184 151.725 156.428 151.791 156.725 151.857C157.244 151.975 157.672 152.115 158.008 152.279C158.344 152.443 158.594 152.645 158.758 152.883C158.922 153.121 159.004 153.41 159.004 153.75C159.004 154.027 158.945 154.281 158.828 154.512C158.715 154.742 158.549 154.941 158.33 155.109C158.115 155.273 157.857 155.402 157.557 155.496C157.26 155.586 156.926 155.631 156.555 155.631C155.996 155.631 155.523 155.531 155.137 155.332C154.75 155.133 154.457 154.875 154.258 154.559C154.059 154.242 153.959 153.908 153.959 153.557H155.049C155.064 153.854 155.15 154.09 155.307 154.266C155.463 154.438 155.654 154.561 155.881 154.635C156.107 154.705 156.332 154.74 156.555 154.74C156.852 154.74 157.1 154.701 157.299 154.623C157.502 154.545 157.656 154.438 157.762 154.301C157.867 154.164 157.92 154.008 157.92 153.832ZM167.143 154.43V151.166C167.143 150.916 167.092 150.699 166.99 150.516C166.893 150.328 166.744 150.184 166.545 150.082C166.346 149.98 166.1 149.93 165.807 149.93C165.533 149.93 165.293 149.977 165.086 150.07C164.883 150.164 164.723 150.287 164.605 150.439C164.492 150.592 164.436 150.756 164.436 150.932H163.352C163.352 150.705 163.41 150.48 163.527 150.258C163.645 150.035 163.812 149.834 164.031 149.654C164.254 149.471 164.52 149.326 164.828 149.221C165.141 149.111 165.488 149.057 165.871 149.057C166.332 149.057 166.738 149.135 167.09 149.291C167.445 149.447 167.723 149.684 167.922 150C168.125 150.312 168.227 150.705 168.227 151.178V154.131C168.227 154.342 168.244 154.566 168.279 154.805C168.318 155.043 168.375 155.248 168.449 155.42V155.514H167.318C167.264 155.389 167.221 155.223 167.189 155.016C167.158 154.805 167.143 154.609 167.143 154.43ZM167.33 151.67L167.342 152.432H166.246C165.938 152.432 165.662 152.457 165.42 152.508C165.178 152.555 164.975 152.627 164.811 152.725C164.646 152.822 164.521 152.945 164.436 153.094C164.35 153.238 164.307 153.408 164.307 153.604C164.307 153.803 164.352 153.984 164.441 154.148C164.531 154.312 164.666 154.443 164.846 154.541C165.029 154.635 165.254 154.682 165.52 154.682C165.852 154.682 166.145 154.611 166.398 154.471C166.652 154.33 166.854 154.158 167.002 153.955C167.154 153.752 167.236 153.555 167.248 153.363L167.711 153.885C167.684 154.049 167.609 154.23 167.488 154.43C167.367 154.629 167.205 154.82 167.002 155.004C166.803 155.184 166.564 155.334 166.287 155.455C166.014 155.572 165.705 155.631 165.361 155.631C164.932 155.631 164.555 155.547 164.23 155.379C163.91 155.211 163.66 154.986 163.48 154.705C163.305 154.42 163.217 154.102 163.217 153.75C163.217 153.41 163.283 153.111 163.416 152.854C163.549 152.592 163.74 152.375 163.99 152.203C164.24 152.027 164.541 151.895 164.893 151.805C165.244 151.715 165.637 151.67 166.07 151.67H167.33ZM171.549 155.514H170.465V148.506C170.465 148.049 170.547 147.664 170.711 147.352C170.879 147.035 171.119 146.797 171.432 146.637C171.744 146.473 172.115 146.391 172.545 146.391C172.67 146.391 172.795 146.398 172.92 146.414C173.049 146.43 173.174 146.453 173.295 146.484L173.236 147.369C173.154 147.35 173.061 147.336 172.955 147.328C172.854 147.32 172.752 147.316 172.65 147.316C172.42 147.316 172.221 147.363 172.053 147.457C171.889 147.547 171.764 147.68 171.678 147.855C171.592 148.031 171.549 148.248 171.549 148.506V155.514ZM172.896 149.174V150.006H169.463V149.174H172.896ZM176.758 149.174V150.006H173.33V149.174H176.758ZM174.49 147.633H175.574V153.943C175.574 154.158 175.607 154.32 175.674 154.43C175.74 154.539 175.826 154.611 175.932 154.646C176.037 154.682 176.15 154.699 176.271 154.699C176.361 154.699 176.455 154.691 176.553 154.676C176.654 154.656 176.73 154.641 176.781 154.629L176.787 155.514C176.701 155.541 176.588 155.566 176.447 155.59C176.311 155.617 176.145 155.631 175.949 155.631C175.684 155.631 175.439 155.578 175.217 155.473C174.994 155.367 174.816 155.191 174.684 154.945C174.555 154.695 174.49 154.359 174.49 153.938V147.633ZM180.66 155.631C180.219 155.631 179.818 155.557 179.459 155.408C179.104 155.256 178.797 155.043 178.539 154.77C178.285 154.496 178.09 154.172 177.953 153.797C177.816 153.422 177.748 153.012 177.748 152.566V152.32C177.748 151.805 177.824 151.346 177.977 150.943C178.129 150.537 178.336 150.193 178.598 149.912C178.859 149.631 179.156 149.418 179.488 149.273C179.82 149.129 180.164 149.057 180.52 149.057C180.973 149.057 181.363 149.135 181.691 149.291C182.023 149.447 182.295 149.666 182.506 149.947C182.717 150.225 182.873 150.553 182.975 150.932C183.076 151.307 183.127 151.717 183.127 152.162V152.648H178.393V151.764H182.043V151.682C182.027 151.4 181.969 151.127 181.867 150.861C181.77 150.596 181.613 150.377 181.398 150.205C181.184 150.033 180.891 149.947 180.52 149.947C180.273 149.947 180.047 150 179.84 150.105C179.633 150.207 179.455 150.359 179.307 150.562C179.158 150.766 179.043 151.014 178.961 151.307C178.879 151.6 178.838 151.938 178.838 152.32V152.566C178.838 152.867 178.879 153.15 178.961 153.416C179.047 153.678 179.17 153.908 179.33 154.107C179.494 154.307 179.691 154.463 179.922 154.576C180.156 154.689 180.422 154.746 180.719 154.746C181.102 154.746 181.426 154.668 181.691 154.512C181.957 154.355 182.189 154.146 182.389 153.885L183.045 154.406C182.908 154.613 182.734 154.811 182.523 154.998C182.312 155.186 182.053 155.338 181.744 155.455C181.439 155.572 181.078 155.631 180.66 155.631ZM185.477 150.17V155.514H184.393V149.174H185.447L185.477 150.17ZM187.457 149.139L187.451 150.146C187.361 150.127 187.275 150.115 187.193 150.111C187.115 150.104 187.025 150.1 186.924 150.1C186.674 150.1 186.453 150.139 186.262 150.217C186.07 150.295 185.908 150.404 185.775 150.545C185.643 150.686 185.537 150.854 185.459 151.049C185.385 151.24 185.336 151.451 185.312 151.682L185.008 151.857C185.008 151.475 185.045 151.115 185.119 150.779C185.197 150.443 185.316 150.146 185.477 149.889C185.637 149.627 185.84 149.424 186.086 149.279C186.336 149.131 186.633 149.057 186.977 149.057C187.055 149.057 187.145 149.066 187.246 149.086C187.348 149.102 187.418 149.119 187.457 149.139ZM194.881 146.936V155.514H193.797V148.289L191.611 149.086V148.107L194.711 146.936H194.881ZM203.635 155.514H201.854L201.865 154.594H203.635C204.244 154.594 204.752 154.467 205.158 154.213C205.564 153.955 205.869 153.596 206.072 153.135C206.279 152.67 206.383 152.127 206.383 151.506V150.984C206.383 150.496 206.324 150.062 206.207 149.684C206.09 149.301 205.918 148.979 205.691 148.717C205.465 148.451 205.188 148.25 204.859 148.113C204.535 147.977 204.162 147.908 203.74 147.908H201.818V146.982H203.74C204.299 146.982 204.809 147.076 205.27 147.264C205.73 147.447 206.127 147.715 206.459 148.066C206.795 148.414 207.053 148.836 207.232 149.332C207.412 149.824 207.502 150.379 207.502 150.996V151.506C207.502 152.123 207.412 152.68 207.232 153.176C207.053 153.668 206.793 154.088 206.453 154.436C206.117 154.783 205.711 155.051 205.234 155.238C204.762 155.422 204.229 155.514 203.635 155.514ZM202.457 146.982V155.514H201.326V146.982H202.457ZM212.775 154.43V151.166C212.775 150.916 212.725 150.699 212.623 150.516C212.525 150.328 212.377 150.184 212.178 150.082C211.979 149.98 211.732 149.93 211.439 149.93C211.166 149.93 210.926 149.977 210.719 150.07C210.516 150.164 210.355 150.287 210.238 150.439C210.125 150.592 210.068 150.756 210.068 150.932H208.984C208.984 150.705 209.043 150.48 209.16 150.258C209.277 150.035 209.445 149.834 209.664 149.654C209.887 149.471 210.152 149.326 210.461 149.221C210.773 149.111 211.121 149.057 211.504 149.057C211.965 149.057 212.371 149.135 212.723 149.291C213.078 149.447 213.355 149.684 213.555 150C213.758 150.312 213.859 150.705 213.859 151.178V154.131C213.859 154.342 213.877 154.566 213.912 154.805C213.951 155.043 214.008 155.248 214.082 155.42V155.514H212.951C212.896 155.389 212.854 155.223 212.822 155.016C212.791 154.805 212.775 154.609 212.775 154.43ZM212.963 151.67L212.975 152.432H211.879C211.57 152.432 211.295 152.457 211.053 152.508C210.811 152.555 210.607 152.627 210.443 152.725C210.279 152.822 210.154 152.945 210.068 153.094C209.982 153.238 209.939 153.408 209.939 153.604C209.939 153.803 209.984 153.984 210.074 154.148C210.164 154.312 210.299 154.443 210.479 154.541C210.662 154.635 210.887 154.682 211.152 154.682C211.484 154.682 211.777 154.611 212.031 154.471C212.285 154.33 212.486 154.158 212.635 153.955C212.787 153.752 212.869 153.555 212.881 153.363L213.344 153.885C213.316 154.049 213.242 154.23 213.121 154.43C213 154.629 212.838 154.82 212.635 155.004C212.436 155.184 212.197 155.334 211.92 155.455C211.646 155.572 211.338 155.631 210.994 155.631C210.564 155.631 210.188 155.547 209.863 155.379C209.543 155.211 209.293 154.986 209.113 154.705C208.938 154.42 208.85 154.102 208.85 153.75C208.85 153.41 208.916 153.111 209.049 152.854C209.182 152.592 209.373 152.375 209.623 152.203C209.873 152.027 210.174 151.895 210.525 151.805C210.877 151.715 211.27 151.67 211.703 151.67H212.963ZM217.252 154.857L219.016 149.174H220.176L217.633 156.492C217.574 156.648 217.496 156.816 217.398 156.996C217.305 157.18 217.184 157.354 217.035 157.518C216.887 157.682 216.707 157.814 216.496 157.916C216.289 158.021 216.041 158.074 215.752 158.074C215.666 158.074 215.557 158.062 215.424 158.039C215.291 158.016 215.197 157.996 215.143 157.98L215.137 157.102C215.168 157.105 215.217 157.109 215.283 157.113C215.354 157.121 215.402 157.125 215.43 157.125C215.676 157.125 215.885 157.092 216.057 157.025C216.229 156.963 216.373 156.855 216.49 156.703C216.611 156.555 216.715 156.35 216.801 156.088L217.252 154.857ZM215.957 149.174L217.604 154.096L217.885 155.238L217.105 155.637L214.773 149.174H215.957Z" fill="#817676"/>
</svg>
