<svg width="264" height="53" viewBox="0 0 264 53" fill="none" xmlns="http://www.w3.org/2000/svg">
<path d="M12 1.51367H252C258.075 1.51367 263 6.43854 263 12.5137V51.5137H1V12.5137C1 6.43854 5.92487 1.51367 12 1.51367Z" fill="#F96616"/>
<path d="M12 1.51367H252C258.075 1.51367 263 6.43854 263 12.5137V51.5137H1V12.5137C1 6.43854 5.92487 1.51367 12 1.51367Z" stroke="#FCF0D8" stroke-width="2"/>
<path d="M22.9375 28.5371C22.9375 28.334 22.9062 28.1517 22.8438 27.9902C22.7865 27.8236 22.6771 27.6725 22.5156 27.5371C22.3542 27.3965 22.1276 27.2585 21.8359 27.123C21.5443 26.9876 21.1667 26.847 20.7031 26.7012C20.1875 26.5345 19.6979 26.347 19.2344 26.1387C18.776 25.9303 18.3698 25.6882 18.0156 25.4121C17.6667 25.1309 17.3906 24.8053 17.1875 24.4355C16.9896 24.0658 16.8906 23.6361 16.8906 23.1465C16.8906 22.6725 16.9948 22.2428 17.2031 21.8574C17.4115 21.4668 17.7031 21.1335 18.0781 20.8574C18.4531 20.5762 18.8958 20.36 19.4062 20.209C19.9219 20.0579 20.487 19.9824 21.1016 19.9824C21.9401 19.9824 22.6719 20.1335 23.2969 20.4355C23.9219 20.7376 24.4062 21.1517 24.75 21.6777C25.099 22.2038 25.2734 22.8053 25.2734 23.4824H22.9453C22.9453 23.1491 22.875 22.8574 22.7344 22.6074C22.599 22.3522 22.3906 22.1517 22.1094 22.0059C21.8333 21.86 21.4844 21.7871 21.0625 21.7871C20.6562 21.7871 20.3177 21.8496 20.0469 21.9746C19.776 22.0944 19.5729 22.2585 19.4375 22.4668C19.3021 22.6699 19.2344 22.8991 19.2344 23.1543C19.2344 23.347 19.2812 23.5215 19.375 23.6777C19.474 23.834 19.6198 23.9798 19.8125 24.1152C20.0052 24.2507 20.2422 24.3783 20.5234 24.498C20.8047 24.6178 21.1302 24.735 21.5 24.8496C22.1198 25.0371 22.6641 25.248 23.1328 25.4824C23.6068 25.7168 24.0026 25.9798 24.3203 26.2715C24.638 26.5632 24.8776 26.8939 25.0391 27.2637C25.2005 27.6335 25.2812 28.0527 25.2812 28.5215C25.2812 29.0163 25.1849 29.459 24.9922 29.8496C24.7995 30.2402 24.5208 30.571 24.1562 30.8418C23.7917 31.1126 23.3568 31.3184 22.8516 31.459C22.3464 31.5996 21.7812 31.6699 21.1562 31.6699C20.5938 31.6699 20.0391 31.597 19.4922 31.4512C18.9453 31.3001 18.4479 31.0736 18 30.7715C17.5573 30.4694 17.2031 30.084 16.9375 29.6152C16.6719 29.1465 16.5391 28.5918 16.5391 27.9512H18.8906C18.8906 28.3053 18.9453 28.6048 19.0547 28.8496C19.1641 29.0944 19.3177 29.2923 19.5156 29.4434C19.7188 29.5944 19.9583 29.7038 20.2344 29.7715C20.5156 29.8392 20.8229 29.873 21.1562 29.873C21.5625 29.873 21.8958 29.8158 22.1562 29.7012C22.4219 29.5866 22.6172 29.4277 22.7422 29.2246C22.8724 29.0215 22.9375 28.7923 22.9375 28.5371ZM30.2266 29.9121C30.5026 29.9121 30.7474 29.86 30.9609 29.7559C31.1745 29.6465 31.3411 29.4954 31.4609 29.3027C31.5859 29.1048 31.651 28.873 31.6562 28.6074H33.7734C33.7682 29.2012 33.6094 29.7298 33.2969 30.1934C32.9844 30.6517 32.5651 31.0137 32.0391 31.2793C31.513 31.5397 30.9245 31.6699 30.2734 31.6699C29.6172 31.6699 29.0443 31.5605 28.5547 31.3418C28.0703 31.123 27.6667 30.821 27.3438 30.4355C27.0208 30.0449 26.7786 29.5918 26.6172 29.0762C26.4557 28.5553 26.375 27.998 26.375 27.4043V27.1777C26.375 26.5788 26.4557 26.0215 26.6172 25.5059C26.7786 24.985 27.0208 24.5319 27.3438 24.1465C27.6667 23.7559 28.0703 23.4512 28.5547 23.2324C29.0391 23.0137 29.6068 22.9043 30.2578 22.9043C30.9505 22.9043 31.5573 23.0371 32.0781 23.3027C32.6042 23.5684 33.0156 23.9486 33.3125 24.4434C33.6146 24.9329 33.7682 25.5137 33.7734 26.1855H31.6562C31.651 25.9043 31.5911 25.6491 31.4766 25.4199C31.3672 25.1908 31.2057 25.0085 30.9922 24.873C30.7839 24.7324 30.526 24.6621 30.2188 24.6621C29.8906 24.6621 29.6224 24.7324 29.4141 24.873C29.2057 25.0085 29.0443 25.196 28.9297 25.4355C28.8151 25.6699 28.7344 25.9382 28.6875 26.2402C28.6458 26.5371 28.625 26.8496 28.625 27.1777V27.4043C28.625 27.7324 28.6458 28.0475 28.6875 28.3496C28.7292 28.6517 28.8073 28.9199 28.9219 29.1543C29.0417 29.3887 29.2057 29.5736 29.4141 29.709C29.6224 29.8444 29.8932 29.9121 30.2266 29.9121ZM37.2734 19.5137V31.5137H35.0234V19.5137H37.2734ZM36.9531 26.9902H36.3359C36.3411 26.4017 36.4193 25.86 36.5703 25.3652C36.7214 24.8652 36.9375 24.4329 37.2188 24.0684C37.5 23.6986 37.8359 23.4121 38.2266 23.209C38.6224 23.0059 39.0599 22.9043 39.5391 22.9043C39.9557 22.9043 40.3333 22.9642 40.6719 23.084C41.0156 23.1986 41.3099 23.3861 41.5547 23.6465C41.8047 23.9017 41.9974 24.2376 42.1328 24.6543C42.2682 25.071 42.3359 25.5762 42.3359 26.1699V31.5137H40.0703V26.1543C40.0703 25.7793 40.0156 25.485 39.9062 25.2715C39.8021 25.0527 39.6484 24.8991 39.4453 24.8105C39.2474 24.7168 39.0026 24.6699 38.7109 24.6699C38.388 24.6699 38.112 24.7298 37.8828 24.8496C37.6589 24.9694 37.4792 25.1361 37.3438 25.3496C37.2083 25.5579 37.1094 25.8027 37.0469 26.084C36.9844 26.3652 36.9531 26.6673 36.9531 26.9902ZM43.6875 27.373V27.209C43.6875 26.5892 43.776 26.0189 43.9531 25.498C44.1302 24.972 44.388 24.5163 44.7266 24.1309C45.0651 23.7454 45.4818 23.446 45.9766 23.2324C46.4714 23.0137 47.0391 22.9043 47.6797 22.9043C48.3203 22.9043 48.8906 23.0137 49.3906 23.2324C49.8906 23.446 50.3099 23.7454 50.6484 24.1309C50.9922 24.5163 51.2526 24.972 51.4297 25.498C51.6068 26.0189 51.6953 26.5892 51.6953 27.209V27.373C51.6953 27.9876 51.6068 28.5579 51.4297 29.084C51.2526 29.6048 50.9922 30.0605 50.6484 30.4512C50.3099 30.8366 49.8932 31.1361 49.3984 31.3496C48.9036 31.5632 48.3359 31.6699 47.6953 31.6699C47.0547 31.6699 46.4844 31.5632 45.9844 31.3496C45.4896 31.1361 45.0703 30.8366 44.7266 30.4512C44.388 30.0605 44.1302 29.6048 43.9531 29.084C43.776 28.5579 43.6875 27.9876 43.6875 27.373ZM45.9375 27.209V27.373C45.9375 27.7272 45.9688 28.0579 46.0312 28.3652C46.0938 28.6725 46.1927 28.9434 46.3281 29.1777C46.4688 29.4069 46.651 29.5866 46.875 29.7168C47.099 29.847 47.3724 29.9121 47.6953 29.9121C48.0078 29.9121 48.276 29.847 48.5 29.7168C48.724 29.5866 48.9036 29.4069 49.0391 29.1777C49.1745 28.9434 49.2734 28.6725 49.3359 28.3652C49.4036 28.0579 49.4375 27.7272 49.4375 27.373V27.209C49.4375 26.8652 49.4036 26.5423 49.3359 26.2402C49.2734 25.9329 49.1719 25.6621 49.0312 25.4277C48.8958 25.1882 48.7161 25.0007 48.4922 24.8652C48.2682 24.7298 47.9974 24.6621 47.6797 24.6621C47.362 24.6621 47.0911 24.7298 46.8672 24.8652C46.6484 25.0007 46.4688 25.1882 46.3281 25.4277C46.1927 25.6621 46.0938 25.9329 46.0312 26.2402C45.9688 26.5423 45.9375 26.8652 45.9375 27.209ZM55.4531 19.5137V31.5137H53.1953V19.5137H55.4531ZM61.875 29.6074V25.8418C61.875 25.571 61.8307 25.3392 61.7422 25.1465C61.6536 24.9486 61.5156 24.7949 61.3281 24.6855C61.1458 24.5762 60.9089 24.5215 60.6172 24.5215C60.3672 24.5215 60.151 24.5658 59.9688 24.6543C59.7865 24.7376 59.6458 24.86 59.5469 25.0215C59.4479 25.1777 59.3984 25.3626 59.3984 25.5762H57.1484C57.1484 25.2168 57.2318 24.8757 57.3984 24.5527C57.5651 24.2298 57.8073 23.946 58.125 23.7012C58.4427 23.4512 58.8203 23.2559 59.2578 23.1152C59.7005 22.9746 60.1953 22.9043 60.7422 22.9043C61.3984 22.9043 61.9818 23.0137 62.4922 23.2324C63.0026 23.4512 63.4036 23.7793 63.6953 24.2168C63.9922 24.6543 64.1406 25.2012 64.1406 25.8574V29.4746C64.1406 29.9382 64.1693 30.3184 64.2266 30.6152C64.2839 30.9069 64.3672 31.1621 64.4766 31.3809V31.5137H62.2031C62.0938 31.2845 62.0104 30.998 61.9531 30.6543C61.901 30.3053 61.875 29.9564 61.875 29.6074ZM62.1719 26.3652L62.1875 27.6387H60.9297C60.6328 27.6387 60.375 27.6725 60.1562 27.7402C59.9375 27.8079 59.7578 27.9043 59.6172 28.0293C59.4766 28.1491 59.3724 28.2897 59.3047 28.4512C59.2422 28.6126 59.2109 28.7897 59.2109 28.9824C59.2109 29.1751 59.2552 29.3496 59.3438 29.5059C59.4323 29.6569 59.5599 29.7767 59.7266 29.8652C59.8932 29.9486 60.0885 29.9902 60.3125 29.9902C60.651 29.9902 60.9453 29.9225 61.1953 29.7871C61.4453 29.6517 61.638 29.485 61.7734 29.2871C61.9141 29.0892 61.987 28.9017 61.9922 28.7246L62.5859 29.6777C62.5026 29.8913 62.388 30.1126 62.2422 30.3418C62.1016 30.571 61.9219 30.7871 61.7031 30.9902C61.4844 31.1882 61.2214 31.3522 60.9141 31.4824C60.6068 31.6074 60.2422 31.6699 59.8203 31.6699C59.2839 31.6699 58.7969 31.5632 58.3594 31.3496C57.9271 31.1309 57.5833 30.8314 57.3281 30.4512C57.0781 30.0658 56.9531 29.6283 56.9531 29.1387C56.9531 28.696 57.0365 28.3027 57.2031 27.959C57.3698 27.6152 57.6146 27.3262 57.9375 27.0918C58.2656 26.8522 58.6745 26.6725 59.1641 26.5527C59.6536 26.4277 60.2214 26.3652 60.8672 26.3652H62.1719ZM68.125 24.9043V31.5137H65.875V23.0605H67.9922L68.125 24.9043ZM70.6719 23.0059L70.6328 25.0918C70.5234 25.0762 70.3906 25.0632 70.2344 25.0527C70.0833 25.0371 69.9453 25.0293 69.8203 25.0293C69.5026 25.0293 69.2266 25.071 68.9922 25.1543C68.763 25.2324 68.5703 25.3496 68.4141 25.5059C68.263 25.6621 68.1484 25.8522 68.0703 26.0762C67.9974 26.3001 67.9557 26.5553 67.9453 26.8418L67.4922 26.7012C67.4922 26.1543 67.5469 25.6517 67.6562 25.1934C67.7656 24.7298 67.9245 24.3262 68.1328 23.9824C68.3464 23.6387 68.6068 23.373 68.9141 23.1855C69.2214 22.998 69.5729 22.9043 69.9688 22.9043C70.0938 22.9043 70.2214 22.9147 70.3516 22.9355C70.4818 22.9512 70.5885 22.9746 70.6719 23.0059ZM76.3047 29.1777C76.3047 29.0163 76.2578 28.8704 76.1641 28.7402C76.0703 28.61 75.8958 28.4902 75.6406 28.3809C75.3906 28.2663 75.0286 28.1621 74.5547 28.0684C74.1276 27.9746 73.7292 27.8574 73.3594 27.7168C72.9948 27.571 72.6771 27.3965 72.4062 27.1934C72.1406 26.9902 71.9323 26.7507 71.7812 26.4746C71.6302 26.1934 71.5547 25.873 71.5547 25.5137C71.5547 25.1595 71.6302 24.8262 71.7812 24.5137C71.9375 24.2012 72.1589 23.9251 72.4453 23.6855C72.737 23.4408 73.0911 23.2507 73.5078 23.1152C73.9297 22.9746 74.4036 22.9043 74.9297 22.9043C75.6641 22.9043 76.2943 23.0215 76.8203 23.2559C77.3516 23.4902 77.7578 23.8132 78.0391 24.2246C78.3255 24.6309 78.4688 25.0944 78.4688 25.6152H76.2188C76.2188 25.3965 76.1719 25.2012 76.0781 25.0293C75.9896 24.8522 75.849 24.7142 75.6562 24.6152C75.4688 24.5111 75.224 24.459 74.9219 24.459C74.6719 24.459 74.4557 24.5033 74.2734 24.5918C74.0911 24.6751 73.9505 24.7897 73.8516 24.9355C73.7578 25.0762 73.7109 25.2324 73.7109 25.4043C73.7109 25.5345 73.737 25.6517 73.7891 25.7559C73.8464 25.8548 73.9375 25.946 74.0625 26.0293C74.1875 26.1126 74.349 26.1908 74.5469 26.2637C74.75 26.3314 75 26.3939 75.2969 26.4512C75.9062 26.5762 76.4505 26.7402 76.9297 26.9434C77.4089 27.1413 77.7891 27.4121 78.0703 27.7559C78.3516 28.0944 78.4922 28.5397 78.4922 29.0918C78.4922 29.4668 78.4089 29.8105 78.2422 30.123C78.0755 30.4355 77.8359 30.709 77.5234 30.9434C77.2109 31.1725 76.8359 31.3522 76.3984 31.4824C75.9661 31.6074 75.4792 31.6699 74.9375 31.6699C74.151 31.6699 73.4844 31.5293 72.9375 31.248C72.3958 30.9668 71.9844 30.61 71.7031 30.1777C71.4271 29.7402 71.2891 29.2923 71.2891 28.834H73.4219C73.4323 29.1413 73.5104 29.3887 73.6562 29.5762C73.8073 29.7637 73.9974 29.8991 74.2266 29.9824C74.4609 30.0658 74.7135 30.1074 74.9844 30.1074C75.276 30.1074 75.5182 30.0684 75.7109 29.9902C75.9036 29.9069 76.0495 29.7975 76.1484 29.6621C76.2526 29.5215 76.3047 29.36 76.3047 29.1777ZM82.1484 19.5137V31.5137H79.8984V19.5137H82.1484ZM81.8281 26.9902H81.2109C81.2161 26.4017 81.2943 25.86 81.4453 25.3652C81.5964 24.8652 81.8125 24.4329 82.0938 24.0684C82.375 23.6986 82.7109 23.4121 83.1016 23.209C83.4974 23.0059 83.9349 22.9043 84.4141 22.9043C84.8307 22.9043 85.2083 22.9642 85.5469 23.084C85.8906 23.1986 86.1849 23.3861 86.4297 23.6465C86.6797 23.9017 86.8724 24.2376 87.0078 24.6543C87.1432 25.071 87.2109 25.5762 87.2109 26.1699V31.5137H84.9453V26.1543C84.9453 25.7793 84.8906 25.485 84.7812 25.2715C84.6771 25.0527 84.5234 24.8991 84.3203 24.8105C84.1224 24.7168 83.8776 24.6699 83.5859 24.6699C83.263 24.6699 82.987 24.7298 82.7578 24.8496C82.5339 24.9694 82.3542 25.1361 82.2188 25.3496C82.0833 25.5579 81.9844 25.8027 81.9219 26.084C81.8594 26.3652 81.8281 26.6673 81.8281 26.9902ZM91.2969 23.0605V31.5137H89.0391V23.0605H91.2969ZM88.8984 20.8574C88.8984 20.5293 89.013 20.2585 89.2422 20.0449C89.4714 19.8314 89.7786 19.7246 90.1641 19.7246C90.5443 19.7246 90.849 19.8314 91.0781 20.0449C91.3125 20.2585 91.4297 20.5293 91.4297 20.8574C91.4297 21.1855 91.3125 21.4564 91.0781 21.6699C90.849 21.8835 90.5443 21.9902 90.1641 21.9902C89.7786 21.9902 89.4714 21.8835 89.2422 21.6699C89.013 21.4564 88.8984 21.1855 88.8984 20.8574ZM95.4062 24.6855V34.7637H93.1562V23.0605H95.2422L95.4062 24.6855ZM100.758 27.1934V27.3574C100.758 27.972 100.685 28.5423 100.539 29.0684C100.398 29.5944 100.19 30.0527 99.9141 30.4434C99.638 30.8288 99.2943 31.1309 98.8828 31.3496C98.4766 31.5632 98.0078 31.6699 97.4766 31.6699C96.9609 31.6699 96.513 31.5658 96.1328 31.3574C95.7526 31.1491 95.4323 30.8574 95.1719 30.4824C94.9167 30.1022 94.7109 29.6621 94.5547 29.1621C94.3984 28.6621 94.2786 28.1257 94.1953 27.5527V27.123C94.2786 26.5085 94.3984 25.946 94.5547 25.4355C94.7109 24.9199 94.9167 24.4746 95.1719 24.0996C95.4323 23.7194 95.75 23.4251 96.125 23.2168C96.5052 23.0085 96.9505 22.9043 97.4609 22.9043C97.9974 22.9043 98.4688 23.0059 98.875 23.209C99.2865 23.4121 99.6302 23.7038 99.9062 24.084C100.188 24.4642 100.398 24.9173 100.539 25.4434C100.685 25.9694 100.758 26.5527 100.758 27.1934ZM98.5 27.3574V27.1934C98.5 26.834 98.4688 26.5033 98.4062 26.2012C98.349 25.8939 98.2552 25.6257 98.125 25.3965C98 25.1673 97.8333 24.9902 97.625 24.8652C97.4219 24.735 97.1745 24.6699 96.8828 24.6699C96.5755 24.6699 96.3125 24.7194 96.0938 24.8184C95.8802 24.9173 95.7057 25.0605 95.5703 25.248C95.4349 25.4355 95.3333 25.6595 95.2656 25.9199C95.1979 26.1803 95.1562 26.4746 95.1406 26.8027V27.8887C95.1667 28.2741 95.2396 28.6204 95.3594 28.9277C95.4792 29.2298 95.6641 29.4694 95.9141 29.6465C96.1641 29.8236 96.4922 29.9121 96.8984 29.9121C97.1953 29.9121 97.4453 29.847 97.6484 29.7168C97.8516 29.5814 98.0156 29.3965 98.1406 29.1621C98.2708 28.9277 98.362 28.6569 98.4141 28.3496C98.4714 28.0423 98.5 27.7116 98.5 27.3574Z" fill="white"/>
</svg>
