<svg width="264" height="164" viewBox="0 0 264 164" fill="none" xmlns="http://www.w3.org/2000/svg">
<mask id="mask0_5578_88282" style="mask-type:alpha" maskUnits="userSpaceOnUse" x="0" y="0" width="264" height="164">
<path d="M0 0.513672H264V163.514H0V0.513672Z" fill="#FFEBD5"/>
</mask>
<g mask="url(#mask0_5578_88282)">
<mask id="path-2-inside-1_5578_88282" fill="white">
<path d="M0 0.513672H264V163.514H0V0.513672Z"/>
</mask>
<path d="M0 0.513672H264V163.514H0V0.513672Z" fill="#FBF5FF"/>
<path d="M262 0.513672V163.514H266V0.513672H262ZM2 163.514V0.513672H-2V163.514H2Z" fill="#FCF0D8" mask="url(#path-2-inside-1_5578_88282)"/>
<path d="M175.865 159.992C176.984 164.033 178.047 168.104 179.103 172.16C179.752 174.645 180.177 177.215 181.225 179.574C181.509 180.226 182.178 180.76 182.036 181.552L182.029 181.536C182.313 182.227 182.71 182.895 182.868 183.617C183.467 186.387 184.436 189.166 184.721 191.894C184.735 192.005 184.916 192.101 184.951 192.26C185.102 193.006 185.54 195.648 185.961 197.291C186.948 201.108 187.831 204.965 187.621 209.119C187.591 209.769 188.541 218.494 185.106 219.495C181.544 220.526 178.571 212.76 178.463 211.673C178.206 209.047 178.432 206.25 177.237 203.914C175.48 200.489 175.122 196.674 174.093 193.039C173.16 189.784 172.598 186.42 171.63 183.165C170.731 180.109 169.245 177.225 168.57 174.122C167.985 171.424 168.253 168.483 167.954 165.723C167.88 165.072 167.071 164.498 166.968 163.784C166.886 163.197 166.694 162.237 166.857 161.572C166.927 161.295 167.033 160.978 166.845 160.787C166.003 159.856 164.837 150.677 169.007 149.522C173.128 148.374 174.905 156.476 175.865 159.992Z" fill="#ECD6FE"/>
<path d="M31.2176 55.0695C30.9426 55.1699 30.7064 55.3694 30.5467 55.6367C30.385 55.9065 30.3075 56.2299 30.3275 56.5543C31.0094 67.6403 31.1118 78.1645 30.574 88.0668C29.3354 87.7504 28.0731 87.5426 26.7867 87.4697C19.5251 87.0625 13.5577 92.8939 13.5989 99.8307C13.6205 103.309 15.2754 106.194 17.6851 108.187C20.095 110.179 23.262 111.411 26.6718 111.968C30.2772 112.56 33.526 110.931 35.8625 108.498C38.1969 106.068 39.7219 102.845 39.9697 99.7644C39.9942 99.4604 39.9769 99.3618 39.9671 99.1151C39.9575 98.8686 39.9422 98.5581 39.9201 98.1824C39.876 97.4311 39.8101 96.4203 39.7338 95.2113C39.5812 92.7932 39.3852 89.5843 39.2262 86.1429C38.9203 79.4778 38.8191 71.978 39.3782 67.7831C40.0917 67.1362 41.3063 66.6156 42.8694 66.3046L41.741 70.3186C41.713 70.4093 41.7002 70.5071 41.7045 70.6053C41.7105 70.7009 41.7327 70.7958 41.7698 70.8843C41.8088 70.9703 41.8615 71.0485 41.9259 71.1124C41.9904 71.1765 42.0673 71.2224 42.1494 71.2516C42.2294 71.2831 42.3172 71.2916 42.402 71.2836C42.4866 71.2753 42.5693 71.2471 42.646 71.1994C42.7208 71.154 42.7874 71.0909 42.8414 71.0145C42.8955 70.9381 42.9351 70.8509 42.9572 70.7585L44.2427 66.1845C44.2507 66.1572 44.2576 66.1289 44.2617 66.102C45.1283 66.0101 46.0687 65.9831 47.0721 66.0231L45.6564 69.2014C45.5813 69.3714 45.5678 69.5711 45.6214 69.7528C45.6733 69.9372 45.7891 70.0869 45.9392 70.175C46.0913 70.2607 46.2658 70.2765 46.4272 70.2161C46.5885 70.1555 46.7219 70.0252 46.7987 69.8526L48.459 66.118C49.5799 66.2247 50.7479 66.4038 51.9477 66.6478L49.9024 69.8309C49.8518 69.9064 49.8155 69.9928 49.7943 70.0862C49.773 70.1795 49.7681 70.2769 49.7795 70.3736C49.7926 70.4678 49.8208 70.5602 49.8648 70.6426C49.9086 70.7248 49.9671 70.7958 50.0346 70.8541C50.104 70.91 50.1812 70.9517 50.2642 70.973C50.3475 70.9946 50.4318 70.9995 50.5166 70.9825C50.5994 70.9678 50.6798 70.9328 50.7524 70.8806C50.825 70.8284 50.8854 70.7632 50.9357 70.6828L53.2853 67.0248C53.3009 67.0012 53.315 66.976 53.328 66.9497C54.1557 67.1508 54.9931 67.389 55.8334 67.6481L54.5243 70.592C54.4858 70.6759 54.4609 70.7698 54.4539 70.865C54.4449 70.9625 54.4552 71.0581 54.482 71.149C54.5067 71.242 54.5487 71.3268 54.6044 71.3993C54.6581 71.4742 54.7265 71.5333 54.8016 71.5775C54.8788 71.6193 54.9617 71.645 55.0452 71.6533C55.1304 71.6591 55.2153 71.6467 55.2955 71.6158C55.3756 71.585 55.4504 71.5352 55.5149 71.4699C55.5775 71.407 55.6296 71.3286 55.6659 71.2423L57.0861 68.0509C57.8905 68.3253 58.6907 68.6311 59.4858 68.9582L58.5466 71.0686C58.5089 71.1534 58.4847 71.248 58.4798 71.341C58.4731 71.4364 58.4834 71.532 58.5095 71.6222C58.5359 71.7126 58.5773 71.7967 58.6324 71.8686C58.6875 71.9404 58.753 72.0011 58.8293 72.042C58.9038 72.0855 58.9842 72.1128 59.0692 72.1184C59.1521 72.1261 59.237 72.1137 59.3153 72.0854C59.3956 72.0548 59.4692 72.0081 59.5326 71.946C59.5959 71.884 59.6493 71.807 59.6871 71.7222L60.6871 69.4713C61.1734 69.6889 61.6583 69.9095 62.1359 70.1446C62.3954 70.2731 62.6851 70.2997 62.9595 70.221C63.2339 70.1423 63.477 69.9635 63.6512 69.7115C63.8273 69.4572 63.9221 69.1476 63.9251 68.8253C63.9262 68.5054 63.8337 68.1932 63.6634 67.9366C61.4075 64.5915 58.9914 61.161 55.1342 58.6751C51.2811 56.1933 46.0656 54.7128 38.3442 54.9499L38.3365 54.9506L31.5947 55.0017C31.466 55.0033 31.3378 55.0277 31.2176 55.0695ZM32.9333 57.89L38.3609 57.8479C38.3692 57.8478 38.3777 57.848 38.386 57.8479C45.8087 57.6146 50.4919 59.0159 53.8709 61.1949C55.7567 62.4125 57.2357 63.925 58.5853 65.5675C55.0428 64.2806 51.4536 63.4434 48.2028 63.1796C43.5341 62.8014 39.4983 63.3583 37.2341 65.9879C37.0536 66.1976 36.9325 66.4658 36.8891 66.7541C36.1667 71.4935 36.3565 79.346 36.6763 86.2933C36.8342 89.7693 37.0336 92.9951 37.1863 95.4178C37.2637 96.628 37.3272 97.6407 37.3706 98.3734C37.3924 98.7399 37.4064 99.0401 37.4155 99.2504C37.4247 99.4608 37.4128 99.6666 37.4268 99.4987C37.2535 101.642 36.0297 104.391 34.1345 106.365C33.4093 107.12 32.6012 107.76 31.725 108.243L32.0608 107.034C32.0972 106.908 32.103 106.771 32.0764 106.641C32.0499 106.51 31.992 106.391 31.9079 106.297C31.8259 106.201 31.7211 106.134 31.6068 106.102C31.4909 106.072 31.372 106.076 31.2597 106.117C31.1601 106.154 31.0711 106.215 30.9989 106.299C30.9266 106.383 30.8727 106.486 30.8417 106.6L30.2107 108.878C29.3263 109.147 28.3947 109.254 27.4225 109.149L29.0575 105.442C29.1163 105.312 29.1406 105.164 29.1233 105.021C29.1079 104.875 29.0546 104.738 28.9688 104.629C28.883 104.521 28.7713 104.442 28.6458 104.407C28.5223 104.369 28.391 104.377 28.2685 104.43C28.1138 104.493 27.9859 104.625 27.9143 104.794L26.0946 108.921C25.2733 108.749 24.4762 108.536 23.7185 108.275L25.2867 105.816C25.3713 105.687 25.4153 105.533 25.4136 105.376C25.4116 105.217 25.3661 105.062 25.2791 104.939C25.194 104.813 25.075 104.722 24.9381 104.684C24.8031 104.643 24.6609 104.652 24.5323 104.712C24.419 104.765 24.3217 104.854 24.2521 104.967L22.4541 107.784C21.6692 107.446 20.9393 107.059 20.2761 106.626L21.7675 103.243C21.8265 103.114 21.8508 102.966 21.8337 102.823C21.8183 102.677 21.765 102.54 21.6794 102.432C21.5958 102.321 21.4819 102.244 21.3586 102.207C21.2331 102.172 21.1016 102.179 20.9808 102.229C20.8244 102.295 20.6965 102.427 20.6248 102.596L19.1921 105.845C19.1917 105.845 19.1913 105.845 19.1908 105.844C18.4913 105.266 17.9087 104.643 17.4421 103.969L18.7463 101.011C18.805 100.882 18.8274 100.736 18.8122 100.591C18.797 100.446 18.7437 100.309 18.6579 100.2C18.5724 100.091 18.4606 100.013 18.3352 99.9775C18.2117 99.94 18.0803 99.9477 17.9594 99.9976C17.8029 100.063 17.675 100.195 17.6034 100.364L16.6592 102.505C16.3362 101.681 16.1597 100.789 16.1534 99.81C16.1233 94.8156 20.6628 90.0272 26.6582 90.3651L26.6589 90.3658C28.4131 90.4628 30.0113 90.6974 31.3607 91.2653C31.5471 91.3428 31.7459 91.371 31.9439 91.345C32.1401 91.3215 32.3289 91.2456 32.4955 91.1237C32.6619 91.0016 32.8013 90.8375 32.9034 90.6428C33.0036 90.4504 33.0635 90.2331 33.0785 90.0083C33.7108 79.921 33.5759 69.1394 32.9333 57.89ZM40.2878 59.4214C39.9813 59.6176 39.8736 60.0605 40.0483 60.4065C40.221 60.7549 40.6105 60.8787 40.919 60.6801C41.2251 60.4835 41.3335 60.0412 41.1584 59.6948C40.985 59.3457 40.5953 59.2217 40.2878 59.4214ZM34.7725 63.0754C34.4664 63.272 34.3584 63.7148 34.5316 64.0636C34.7065 64.4098 35.0949 64.5325 35.4034 64.3339C35.7098 64.1375 35.8179 63.695 35.6428 63.3486C35.4699 63 35.0786 62.8788 34.7725 63.0754ZM28.5345 94.5912C28.3737 94.6522 28.2406 94.783 28.164 94.9558C28.0894 95.1262 28.0761 95.3261 28.1299 95.5081C28.1837 95.6901 28.2997 95.84 28.4497 95.9279C28.6013 96.0131 28.7776 96.0263 28.9386 95.9655C29.0994 95.9044 29.2325 95.7737 29.3071 95.6033C29.3837 95.4305 29.395 95.2329 29.3432 95.0486C29.2894 94.8666 29.1734 94.7167 29.0215 94.6312C28.8696 94.5457 28.6956 94.5303 28.5345 94.5912ZM33.392 97.5509C33.2312 97.6119 33.0984 97.7428 33.0218 97.9157C32.9471 98.0861 32.9339 98.286 32.9877 98.468C33.0412 98.6497 33.1572 98.7997 33.3072 98.8875C33.4591 98.973 33.6353 98.9862 33.7961 98.9251C33.9569 98.8641 34.09 98.7333 34.1646 98.5629C34.2412 98.3901 34.2525 98.1926 34.1987 98.0106C34.1469 97.8263 34.0311 97.6765 33.8792 97.5911C33.7273 97.5056 33.5531 97.49 33.392 97.5509ZM30.6325 101.434C30.4717 101.495 30.3388 101.626 30.2622 101.798C30.1876 101.969 30.1743 102.169 30.2281 102.351C30.2817 102.532 30.3977 102.682 30.5476 102.77C30.6995 102.856 30.8758 102.869 31.0366 102.808C31.1974 102.747 31.3305 102.616 31.4051 102.446C31.4817 102.273 31.493 102.075 31.4392 101.893C31.3874 101.709 31.2716 101.559 31.1197 101.474C30.9678 101.388 30.7936 101.373 30.6325 101.434Z" fill="#ECD6FE"/>
<path d="M187.954 63.6603C187.834 63.8292 187.766 64.0372 187.763 64.2514C187.76 64.4677 187.82 64.6793 187.935 64.8512C191.859 70.7278 195.282 76.5307 198.15 82.2518C197.361 82.5857 196.594 82.9897 195.856 83.4785C191.693 86.2403 190.243 91.9345 192.485 95.7703C193.609 97.6933 195.451 98.6148 197.427 98.7298C199.403 98.8449 201.555 98.2257 203.627 97.1323C205.819 95.9771 207.102 93.7357 207.622 91.4233C208.141 89.1129 207.958 86.6955 207.11 84.8824C207.026 84.7035 206.985 84.6559 206.901 84.5229C206.817 84.3899 206.709 84.2238 206.576 84.0242C206.312 83.6251 205.952 83.0908 205.523 82.4507C204.665 81.1705 203.529 79.4689 202.34 77.623C200.039 74.0471 197.584 69.9234 196.553 67.3634C196.742 66.7106 197.25 65.9217 198.019 65.1058L198.676 67.7995C198.69 67.8613 198.714 67.9209 198.748 67.9737C198.781 68.0243 198.824 68.0679 198.873 68.1018C198.922 68.1335 198.977 68.1553 199.033 68.1643C199.089 68.1733 199.146 68.1672 199.201 68.1496C199.256 68.1341 199.307 68.1028 199.352 68.0634C199.396 68.024 199.433 67.9743 199.461 67.9162C199.488 67.8602 199.504 67.7978 199.51 67.7331C199.515 67.6685 199.51 67.6037 199.492 67.5433L198.743 64.4739C198.739 64.4556 198.734 64.437 198.728 64.4204C199.179 64.0127 199.693 63.6108 200.263 63.2201L200.493 65.5679C200.506 65.6932 200.563 65.8096 200.65 65.8885C200.738 65.9696 200.85 66.0051 200.962 65.9922C201.074 65.9772 201.176 65.9142 201.246 65.8142C201.316 65.7142 201.349 65.587 201.336 65.4595L201.064 62.7021C201.721 62.3002 202.427 61.919 203.171 61.5609L203.053 64.1703C203.049 64.2331 203.057 64.296 203.075 64.3566C203.093 64.4172 203.121 64.4733 203.158 64.5223C203.196 64.5692 203.241 64.609 203.292 64.6366C203.342 64.6642 203.398 64.6796 203.454 64.6842C203.51 64.6867 203.566 64.6781 203.619 64.6558C203.672 64.6335 203.721 64.6015 203.762 64.5572C203.804 64.515 203.837 64.4624 203.861 64.4036C203.884 64.3447 203.897 64.2837 203.899 64.2183L204.034 61.2198C204.036 61.2003 204.035 61.1805 204.034 61.1605C204.558 60.9317 205.099 60.7194 205.649 60.5176L205.863 62.6912C205.869 62.7537 205.885 62.8161 205.912 62.8718C205.938 62.9296 205.974 62.9785 206.018 63.018C206.062 63.0595 206.112 63.0893 206.166 63.1066C206.22 63.1261 206.277 63.1309 206.333 63.1245C206.389 63.1159 206.443 63.0961 206.492 63.0664C206.541 63.0345 206.585 62.9927 206.619 62.9426C206.654 62.8925 206.679 62.834 206.694 62.7712C206.709 62.7105 206.713 62.6455 206.705 62.5827L206.474 60.2258C207.008 60.0472 207.55 59.8878 208.097 59.7423L208.25 61.3008C208.256 61.3634 208.273 61.426 208.3 61.4796C208.327 61.5354 208.363 61.5842 208.406 61.6236C208.45 61.6629 208.5 61.6926 208.553 61.7098C208.607 61.7271 208.663 61.7338 208.718 61.7251C208.773 61.7186 208.827 61.7007 208.876 61.6689C208.924 61.639 208.968 61.5972 209.002 61.5493C209.037 61.4992 209.063 61.443 209.078 61.3825C209.093 61.322 209.098 61.2572 209.092 61.1946L208.928 59.5329C209.267 59.4537 209.607 59.3767 209.948 59.3108C210.133 59.2753 210.302 59.1709 210.43 59.0143C210.557 58.8577 210.635 58.6583 210.651 58.4467C210.667 58.2329 210.621 58.022 210.52 57.8418C210.418 57.6637 210.267 57.5283 210.09 57.4559C207.767 56.5263 205.328 55.6152 202.391 55.8216C199.457 56.0288 196.087 57.3525 191.874 60.6614L191.87 60.665L188.142 63.4675C188.071 63.5213 188.008 63.5876 187.954 63.6603ZM189.809 64.5208L192.81 62.2641C192.815 62.2607 192.82 62.2572 192.824 62.2537C196.872 59.0699 199.921 57.9212 202.495 57.741C203.932 57.6413 205.237 57.8727 206.512 58.2296C204.133 58.9725 201.872 59.9845 199.982 61.1756C197.268 62.8866 195.204 64.8565 194.788 67.2487C194.755 67.4394 194.773 67.6382 194.841 67.8162C195.956 70.7457 198.573 75.0289 200.972 78.7558C202.172 80.6214 203.314 82.3309 204.174 83.6136C204.604 84.2539 204.963 84.7903 205.221 85.1793C205.351 85.3739 205.455 85.5349 205.527 85.6479C205.599 85.761 205.659 85.8802 205.613 85.7812C206.202 87.0429 206.401 89.0733 205.98 90.9493C205.819 91.667 205.575 92.355 205.242 92.9838L205.042 92.1745C205.022 92.0893 204.982 92.0111 204.925 91.9494C204.869 91.8877 204.798 91.8452 204.722 91.8277C204.645 91.8082 204.566 91.8142 204.492 91.8434C204.418 91.8747 204.353 91.9254 204.304 91.9945C204.261 92.056 204.231 92.1268 204.217 92.2031C204.204 92.2793 204.207 92.3589 204.227 92.4351L204.604 93.9595C204.199 94.4729 203.716 94.916 203.143 95.2578L202.865 92.5256C202.856 92.4296 202.822 92.3374 202.767 92.265C202.712 92.1904 202.639 92.1363 202.556 92.1111C202.474 92.0859 202.386 92.0883 202.306 92.1204C202.225 92.1504 202.154 92.2087 202.103 92.2884C202.038 92.3871 202.009 92.5129 202.023 92.6363L202.332 95.6773C201.821 95.9197 201.31 96.1293 200.806 96.2963L200.89 94.2852C200.896 94.179 200.872 94.0754 200.82 93.9884C200.768 93.9014 200.693 93.8338 200.606 93.801C200.518 93.766 200.423 93.7646 200.335 93.7997C200.247 93.8326 200.171 93.8963 200.118 93.9824C200.073 94.0587 200.047 94.1479 200.044 94.2395L199.947 96.5439C199.403 96.6789 198.873 96.7642 198.367 96.7971L198.113 94.3043C198.104 94.2083 198.071 94.1161 198.015 94.0437C197.96 93.9691 197.887 93.915 197.805 93.8899C197.723 93.8626 197.635 93.8671 197.555 93.8971C197.474 93.9292 197.403 93.9875 197.352 94.065C197.286 94.1659 197.257 94.2916 197.271 94.4151L197.515 96.8094C197.515 96.8093 197.514 96.8092 197.514 96.8091C196.941 96.7761 196.418 96.6697 195.943 96.4875L195.721 94.308C195.713 94.212 195.678 94.1219 195.623 94.0474C195.569 93.9729 195.495 93.9188 195.413 93.8936C195.33 93.8684 195.243 93.8708 195.162 93.9029C195.082 93.9329 195.011 93.9912 194.96 94.0687C194.894 94.1696 194.865 94.2954 194.88 94.4188L195.04 95.9963C194.597 95.6713 194.213 95.2486 193.897 94.7076C192.283 91.9461 193.273 87.4188 196.711 85.1395L196.711 85.1396C197.717 84.4717 198.679 83.9443 199.61 83.7044C199.739 83.6708 199.858 83.6047 199.96 83.5087C200.061 83.415 200.142 83.2951 200.195 83.1589C200.249 83.0226 200.274 82.8741 200.268 82.7239C200.262 82.5759 200.226 82.4305 200.162 82.2995C197.287 76.4368 193.764 70.5043 189.809 64.5208ZM194.384 62.3451C194.276 62.5802 194.358 62.8705 194.566 62.9908C194.773 63.1132 195.029 63.0217 195.137 62.7845C195.244 62.5493 195.163 62.2591 194.955 62.1387C194.747 62.0162 194.491 62.1077 194.384 62.3451ZM192.489 66.644C192.382 66.8791 192.464 67.1695 192.672 67.2919C192.879 67.4123 193.134 67.3206 193.242 67.0833C193.35 66.8482 193.268 66.5579 193.06 66.4376C192.853 66.3151 192.596 66.4088 192.489 66.644ZM199.104 86.7146C199.035 86.8147 199.002 86.942 199.015 87.0695C199.028 87.1949 199.085 87.3114 199.173 87.3903C199.261 87.4692 199.373 87.5048 199.485 87.4919C199.596 87.4768 199.698 87.4116 199.768 87.3116C199.838 87.2115 199.87 87.0841 199.857 86.9588C199.844 86.8313 199.787 86.7169 199.7 86.6358C199.612 86.5569 199.499 86.5214 199.388 86.5364C199.276 86.5514 199.174 86.6145 199.104 86.7146ZM202.749 86.3596C202.679 86.4597 202.647 86.5871 202.66 86.7146C202.673 86.8399 202.729 86.9564 202.817 87.0354C202.905 87.1142 203.018 87.1498 203.129 87.1369C203.241 87.1219 203.343 87.0567 203.413 86.9566C203.483 86.8565 203.515 86.7292 203.502 86.6038C203.489 86.4763 203.432 86.3619 203.344 86.283C203.256 86.202 203.144 86.1664 203.032 86.1815C202.92 86.1965 202.819 86.2595 202.749 86.3596ZM202.458 89.6515C202.388 89.7516 202.356 89.879 202.369 90.0065C202.382 90.1319 202.439 90.2484 202.527 90.3273C202.615 90.4062 202.727 90.4417 202.838 90.4288C202.95 90.4138 203.052 90.3486 203.122 90.2485C203.192 90.1484 203.224 90.0211 203.211 89.8957C203.198 89.7682 203.141 89.6539 203.053 89.5749C202.965 89.4939 202.853 89.4584 202.741 89.4734C202.63 89.4884 202.528 89.5515 202.458 89.6515Z" fill="#ECD6FE"/>
<path d="M245.909 1.78221C246.551 2.09357 247.08 2.6338 247.412 3.31795C247.748 4.00831 247.871 4.8067 247.759 5.58258C243.931 32.0981 241.609 57.4081 240.951 81.3835C243.995 80.9359 247.075 80.7559 250.186 80.9068C267.748 81.7689 280.964 97.3214 279.497 114.011C278.759 122.379 274.206 128.905 268.012 133.09C261.818 137.276 253.951 139.437 245.632 139.914C236.836 140.423 229.336 135.678 224.19 129.229C219.05 122.786 216.014 114.64 216.025 107.16C216.026 106.422 216.087 106.19 216.159 105.598C216.231 105.007 216.329 104.263 216.456 103.365C216.711 101.567 217.069 99.1505 217.491 96.2591C218.335 90.4764 219.44 82.8012 220.501 74.5565C222.552 58.5887 224.274 40.5591 223.756 30.3185C222.165 28.5801 219.344 27.0187 215.643 25.8734L217.567 35.8231C217.617 36.0484 217.628 36.2873 217.599 36.5226C217.565 36.7511 217.493 36.9741 217.387 37.1775C217.276 37.3748 217.133 37.5496 216.966 37.6871C216.798 37.8251 216.604 37.9161 216.4 37.9655C216.201 38.0211 215.988 38.0193 215.786 37.9784C215.584 37.9371 215.39 37.8483 215.215 37.7138C215.044 37.5855 214.896 37.4168 214.781 37.2191C214.666 37.0215 214.588 36.8016 214.553 36.5734L212.36 25.2358C212.346 25.1682 212.335 25.0982 212.331 25.0325C210.263 24.5913 208.004 24.2878 205.58 24.1294L208.362 32.1402C208.509 32.5685 208.502 33.0526 208.337 33.4766C208.176 33.9072 207.868 34.2383 207.489 34.4123C207.106 34.58 206.683 34.5737 206.306 34.3874C205.93 34.2005 205.634 33.8531 205.483 33.4181L202.223 24.0061C199.503 23.9786 196.656 24.1134 193.72 24.3964L198.016 32.5782C198.123 32.773 198.193 32.9901 198.226 33.2203C198.259 33.4504 198.251 33.686 198.205 33.916C198.155 34.1394 198.068 34.3548 197.946 34.542C197.824 34.7287 197.67 34.8849 197.496 35.008C197.318 35.1249 197.124 35.2059 196.92 35.2361C196.715 35.2668 196.511 35.2572 196.31 35.1948C196.114 35.1386 195.927 35.0339 195.762 34.8897C195.598 34.7455 195.465 34.5734 195.36 34.3671L190.425 24.9645C190.392 24.9037 190.363 24.8396 190.337 24.773C188.305 25.0471 186.242 25.4082 184.168 25.8188L186.739 33.2379C186.815 33.4496 186.857 33.6822 186.855 33.913C186.857 34.15 186.813 34.3776 186.731 34.5896C186.653 34.8073 186.535 35.0007 186.387 35.1612C186.243 35.3278 186.067 35.4529 185.877 35.5401C185.683 35.6211 185.478 35.6619 185.276 35.6609C185.069 35.6532 184.867 35.6018 184.681 35.5072C184.494 35.4125 184.323 35.2737 184.181 35.1002C184.043 34.9329 183.933 34.7309 183.862 34.5139L181.073 26.4705C179.082 26.9272 177.095 27.4602 175.117 28.0459L176.962 33.3649C177.036 33.5785 177.075 33.8125 177.069 34.0376C177.066 34.2689 177.022 34.4965 176.942 34.707C176.86 34.918 176.744 35.1099 176.597 35.2689C176.451 35.4279 176.281 35.5573 176.089 35.6364C175.901 35.7222 175.702 35.7677 175.496 35.7595C175.295 35.7571 175.093 35.7057 174.91 35.6177C174.723 35.5236 174.555 35.3924 174.415 35.2271C174.275 35.0617 174.161 34.8626 174.087 34.649L172.123 28.9764C170.91 29.3768 169.699 29.7849 168.503 30.2298C167.853 30.4732 167.15 30.4639 166.505 30.2048C165.86 29.9458 165.31 29.4536 164.94 28.8028C164.567 28.1457 164.399 27.3763 164.456 26.5997C164.516 25.8294 164.801 25.1012 165.261 24.5267C171.352 17.0461 177.845 9.40046 187.621 4.39431C197.386 -0.602688 210.234 -2.84373 228.776 -0.313962L228.794 -0.310201L245.014 1.52337C245.324 1.55987 245.627 1.65106 245.909 1.78221ZM241.222 8.137L228.164 6.65861C228.144 6.6563 228.123 6.65445 228.103 6.65214C210.28 4.2074 198.729 6.39266 190.165 10.7811C185.385 13.234 181.526 16.4998 177.953 20.1117C186.735 17.9122 195.541 16.8075 203.419 16.9972C214.733 17.2711 224.339 19.6357 229.271 26.5408C229.665 27.0913 229.903 27.7677 229.951 28.4728C230.755 40.0657 228.75 58.9218 226.61 75.5657C225.544 83.8938 224.428 91.609 223.583 97.4027C223.158 100.296 222.805 102.718 222.556 104.471C222.432 105.348 222.339 106.067 222.275 106.571C222.212 107.075 222.2 107.574 222.199 107.166C222.194 112.37 224.598 119.299 228.771 124.531C230.368 126.532 232.187 128.278 234.201 129.663L233.631 126.669C233.569 126.355 233.582 126.025 233.671 125.717C233.761 125.409 233.924 125.136 234.145 124.932C234.361 124.722 234.627 124.588 234.908 124.539C235.193 124.498 235.479 124.535 235.741 124.663C235.973 124.777 236.175 124.948 236.333 125.168C236.49 125.388 236.6 125.651 236.652 125.933L237.722 131.575C239.798 132.448 242.019 132.944 244.38 132.938L241.175 123.596C241.059 123.27 241.03 122.907 241.1 122.567C241.166 122.22 241.321 121.904 241.549 121.664C241.777 121.423 242.062 121.263 242.371 121.21C242.675 121.151 242.99 121.203 243.275 121.361C243.635 121.552 243.916 121.902 244.056 122.327L247.622 132.725C249.633 132.519 251.594 132.208 253.47 131.773L250.18 125.454C250.001 125.123 249.926 124.742 249.961 124.362C249.997 123.982 250.137 123.619 250.371 123.344C250.601 123.062 250.905 122.874 251.242 122.816C251.575 122.753 251.916 122.811 252.213 122.988C252.476 123.145 252.693 123.383 252.838 123.673L256.611 130.911C258.567 130.296 260.401 129.549 262.082 128.677L259.159 120.153C259.043 119.827 259.013 119.465 259.083 119.125C259.149 118.778 259.304 118.462 259.531 118.222C259.754 117.976 260.044 117.821 260.348 117.762C260.657 117.71 260.972 117.761 261.253 117.912C261.617 118.11 261.899 118.46 262.038 118.885L264.846 127.071C264.847 127.071 264.848 127.07 264.849 127.069C266.647 125.855 268.173 124.503 269.429 122.999L266.873 115.547C266.757 115.221 266.731 114.865 266.797 114.518C266.862 114.172 267.017 113.856 267.245 113.616C267.473 113.376 267.757 113.215 268.066 113.162C268.371 113.103 268.685 113.155 268.967 113.306C269.331 113.504 269.612 113.854 269.752 114.279L271.602 119.672C272.543 117.769 273.143 115.667 273.352 113.313C274.409 101.297 264.425 88.6174 249.925 87.9099L249.923 87.9113C245.681 87.6998 241.787 87.8591 238.426 88.8839C237.962 89.0232 237.478 89.0407 237.007 88.9277C236.539 88.8214 236.099 88.5907 235.722 88.2551C235.346 87.919 235.043 87.4886 234.835 86.9939C234.632 86.5054 234.531 85.967 234.539 85.4219C235.006 60.9772 237.457 35.0557 241.222 8.137ZM223.215 9.95768C223.914 10.5077 224.086 11.6014 223.597 12.3901C223.113 13.1849 222.151 13.3841 221.447 12.8278C220.749 12.2768 220.575 11.1846 221.065 10.395C221.551 9.59869 222.514 9.39901 223.215 9.95768ZM235.772 20.1537C236.47 20.7047 236.643 21.7979 236.157 22.5938C235.668 23.3829 234.708 23.5796 234.005 23.0234C233.306 22.4728 233.133 21.3801 233.623 20.5905C234.108 19.7952 235.074 19.6027 235.772 20.1537ZM244.574 97.6077C244.949 97.7955 245.244 98.144 245.394 98.5794C245.54 99.0087 245.533 99.4933 245.368 99.9177C245.202 100.342 244.893 100.674 244.515 100.847C244.133 101.014 243.706 101.001 243.33 100.814C242.955 100.626 242.661 100.277 242.515 99.8482C242.364 99.4127 242.376 98.9343 242.537 98.5036C242.703 98.0792 243.012 97.7477 243.394 97.5804C243.777 97.4132 244.199 97.4203 244.574 97.6077ZM232.297 103.5C232.672 103.688 232.966 104.037 233.116 104.473C233.262 104.902 233.255 105.386 233.089 105.811C232.924 106.235 232.616 106.566 232.237 106.74C231.855 106.907 231.428 106.894 231.053 106.706C230.678 106.519 230.383 106.17 230.237 105.741C230.087 105.305 230.099 104.827 230.264 104.403C230.425 103.972 230.733 103.641 231.116 103.474C231.498 103.306 231.921 103.313 232.297 103.5ZM238.174 113.548C238.549 113.736 238.843 114.085 238.994 114.52C239.14 114.949 239.132 115.434 238.967 115.858C238.802 116.282 238.493 116.614 238.115 116.787C237.732 116.955 237.306 116.942 236.93 116.754C236.555 116.566 236.261 116.218 236.115 115.788C235.964 115.353 235.976 114.874 236.142 114.45C236.303 114.019 236.611 113.688 236.994 113.521C237.376 113.354 237.799 113.36 238.174 113.548Z" fill="#ECD6FE"/>
<path d="M-25.533 -37.2496C-25.7534 -36.6804 -25.7995 -36.05 -25.6631 -35.4584C-25.5263 -34.8607 -25.2152 -34.3318 -24.7798 -33.959C-9.90236 -21.2195 3.53313 -8.24602 15.3738 4.98462C13.4096 6.58892 11.5529 8.36706 9.8364 10.3525C0.151937 21.5657 -0.0106322 38.4784 8.81176 47.0721C13.2368 51.3798 18.9744 52.3105 24.5364 50.9082C30.099 49.5059 35.6552 45.9313 40.6656 41.1233C45.966 36.0417 48.0092 28.764 47.8841 21.9556C47.7591 15.1534 45.6103 8.66825 42.0279 4.42196C41.6745 4.00299 41.528 3.90781 41.2037 3.61562C40.8799 3.32336 40.468 2.96041 39.9652 2.52703C38.9595 1.66028 37.5984 0.504731 35.9734 -0.881546C32.7234 -3.6541 28.4187 -7.3437 23.8669 -11.3836C15.0537 -19.2107 5.44365 -28.4105 0.845988 -34.5502C0.929076 -36.5095 1.80454 -39.1199 3.38514 -42.0313L7.03538 -35.1986C7.11458 -35.0402 7.2222 -34.8974 7.35171 -34.7817C7.48015 -34.6721 7.62828 -34.5894 7.78688 -34.5389C7.94496 -34.4945 8.11025 -34.4818 8.27234 -34.506C8.43498 -34.5302 8.59008 -34.597 8.73057 -34.693C8.87157 -34.7829 8.99308 -34.9139 9.09006 -35.0609C9.18649 -35.2078 9.25519 -35.3763 9.29172 -35.5599C9.32878 -35.7374 9.33311 -35.9236 9.30472 -36.1061C9.27633 -36.2887 9.21628 -36.4616 9.12724 -36.6127L4.96746 -44.3981C4.94305 -44.4449 4.91591 -44.4914 4.88711 -44.5316C5.86525 -46.0452 7.0186 -47.5969 8.33623 -49.1667L10.567 -42.9135C10.6872 -42.5801 10.9226 -42.309 11.2201 -42.1686C11.5186 -42.0222 11.8541 -42.0222 12.1551 -42.1545C12.4555 -42.2931 12.6958 -42.555 12.8233 -42.891C12.9503 -43.227 12.9541 -43.605 12.8329 -43.9445L10.2075 -51.2869C11.7579 -52.963 13.4593 -54.6248 15.2828 -56.2569L16.7245 -48.9815C16.7562 -48.8055 16.8195 -48.6391 16.9108 -48.4883C17.002 -48.3374 17.1189 -48.208 17.2555 -48.1055C17.3911 -48.0091 17.5437 -47.9393 17.7034 -47.9075C17.8626 -47.8756 18.0263 -47.8813 18.1851 -47.9175C18.3435 -47.9598 18.4937 -48.0321 18.6255 -48.1396C18.7578 -48.2471 18.8706 -48.3772 18.9561 -48.5352C19.0422 -48.6872 19.0995 -48.8607 19.1251 -49.0431C19.1507 -49.2254 19.1446 -49.4043 19.1064 -49.5858L17.4485 -57.9455C17.4383 -58 17.4243 -58.0542 17.4075 -58.1081C18.7068 -59.193 20.0655 -60.2473 21.4542 -61.2802L23.5232 -55.4919C23.5805 -55.3249 23.6679 -55.1674 23.7794 -55.0374C23.8914 -54.9012 24.0253 -54.7985 24.174 -54.7283C24.3227 -54.6519 24.483 -54.6139 24.645 -54.6133C24.8076 -54.6065 24.9686 -54.643 25.1194 -54.7092C25.2696 -54.7816 25.4068 -54.8834 25.5229 -55.0077C25.6378 -55.138 25.7293 -55.2906 25.7915 -55.4584C25.8536 -55.6263 25.8852 -55.8093 25.8841 -55.9949C25.8835 -56.1744 25.8502 -56.3564 25.7869 -56.5227L23.5453 -62.7995C24.908 -63.7553 26.305 -64.6653 27.7227 -65.5404L29.205 -61.3896C29.2645 -61.2229 29.3536 -61.0656 29.4651 -60.9417C29.5771 -60.8118 29.711 -60.709 29.8581 -60.6386C30.0057 -60.5683 30.1643 -60.5302 30.3247 -60.5293C30.4851 -60.5285 30.6445 -60.5585 30.7925 -60.6307C30.9417 -60.6967 31.0778 -60.7923 31.1922 -60.9226C31.3065 -61.0467 31.3981 -61.1992 31.4613 -61.361C31.524 -61.5289 31.5578 -61.7059 31.5594 -61.8857C31.561 -62.0654 31.531 -62.2478 31.4714 -62.4145L29.8884 -66.839C30.7775 -67.3522 31.6687 -67.8595 32.5691 -68.3369C33.0592 -68.5954 33.4587 -69.0297 33.7058 -69.5709C33.9528 -70.1121 34.0337 -70.7277 33.935 -71.3235C33.8358 -71.9254 33.564 -72.4649 33.1604 -72.8721C32.7573 -73.2732 32.2458 -73.5137 31.7064 -73.5592C24.6284 -74.0938 17.2401 -74.4765 9.22641 -71.354C1.22307 -68.2327 -7.23478 -61.6622 -16.6853 -48.9025L-16.694 -48.8892L-25.1426 -37.9428C-25.3031 -37.7331 -25.4341 -37.4958 -25.533 -37.2496ZM-19.8005 -36.4978L-13.0001 -45.3114C-12.9897 -45.3249 -12.9787 -45.3386 -12.9683 -45.3521C-3.89018 -57.6249 3.79519 -63.4349 10.8171 -66.169C14.7379 -67.6928 18.5177 -68.192 22.2987 -68.3198C16.1981 -64.2082 10.6074 -59.4597 6.16894 -54.5417C-0.204718 -47.4778 -4.59684 -40.2681 -4.13121 -33.3303C-4.09407 -32.7772 -3.90795 -32.2468 -3.59822 -31.8168C1.48173 -24.7339 11.6496 -15.2368 20.8371 -7.07966C25.4314 -2.99498 29.7617 0.71036 33.0177 3.48844C34.6454 4.87441 36.0059 6.0362 36.9871 6.8809C37.478 7.30322 37.8752 7.65543 38.1527 7.90327C38.4302 8.15112 38.6755 8.42725 38.4808 8.19499C40.972 11.1506 42.9025 16.5581 43.0045 22.0814C43.0431 24.1944 42.832 26.2978 42.3363 28.3152L41.2325 26.2645C41.1186 26.048 40.9533 25.8682 40.7545 25.7479C40.5557 25.6275 40.3316 25.5718 40.1068 25.5905C39.882 25.603 39.6652 25.689 39.4804 25.8333C39.2966 25.9836 39.1504 26.1794 39.0608 26.4121C38.9817 26.619 38.9472 26.8395 38.9619 27.0608C38.9765 27.282 39.0392 27.498 39.1445 27.6906L41.2266 31.5521C40.4501 33.3158 39.41 34.9539 38.0497 36.3923L35.4263 29.1239C35.337 28.8676 35.1805 28.6435 34.9775 28.4926C34.7739 28.3356 34.5336 28.2508 34.2875 28.2533C34.0415 28.2558 33.8012 28.3381 33.5983 28.4968C33.395 28.6493 33.2389 28.871 33.1508 29.1345C33.0353 29.4631 33.0402 29.8339 33.1637 30.1607L36.0842 38.2506C34.8295 39.3615 33.5533 40.3819 32.2671 41.2797L31.1381 35.6782C31.0822 35.3811 30.9433 35.1179 30.7414 34.9235C30.5391 34.7293 30.2852 34.6088 30.019 34.5949C29.7523 34.575 29.4875 34.6539 29.266 34.827C29.0441 34.994 28.8764 35.2353 28.7894 35.5174C28.714 35.7672 28.7028 36.0346 28.7583 36.2885L30.0497 42.7077C28.6305 43.5521 27.2194 44.247 25.8355 44.7779L23.441 38.1466C23.3523 37.8902 23.1958 37.6661 22.9933 37.5152C22.7897 37.3582 22.5494 37.2734 22.3039 37.2758C22.0579 37.2721 21.8176 37.3606 21.6147 37.5131C21.4119 37.6718 21.2552 37.8934 21.1661 38.1509C21.0517 38.4855 21.0566 38.8564 21.1801 39.1833L23.4792 45.5527C23.4781 45.5528 23.477 45.5529 23.476 45.5531C21.8622 45.9609 20.3386 46.1235 18.8975 46.0355L16.8045 40.2374C16.7152 39.9811 16.5593 39.7631 16.3562 39.6061C16.1532 39.449 15.9129 39.3642 15.6668 39.3667C15.4213 39.3691 15.181 39.4515 14.9782 39.6102C14.7748 39.7627 14.6187 39.9843 14.529 40.2419C14.4146 40.5765 14.4195 40.9473 14.543 41.2741L16.0574 45.4709C14.6071 44.963 13.2566 44.1344 12.0113 42.9228C5.65876 36.7361 5.33687 23.4305 13.3349 14.1747L13.3365 14.1745C15.6743 11.464 17.9891 9.1771 20.4112 7.70781C20.7445 7.50373 21.0312 7.21811 21.2483 6.86595C21.4664 6.51988 21.6088 6.12031 21.6651 5.69929C21.7209 5.27833 21.6894 4.84844 21.5722 4.44044C21.4555 4.03859 21.2563 3.67065 20.991 3.36574C9.03575 -10.2484 -4.76611 -23.4909 -19.8005 -36.4978ZM-8.57737 -46.4575C-8.71642 -45.7178 -8.29242 -44.9909 -7.63438 -44.8409C-6.97581 -44.6848 -6.32745 -45.159 -6.18892 -45.9049C-6.05096 -46.6445 -6.47332 -47.3716 -7.13245 -47.5214C-7.79265 -47.6773 -8.44158 -47.2031 -8.57737 -46.4575ZM-10.922 -32.9929C-11.06 -32.2533 -10.6365 -31.5263 -9.97686 -31.3704C-9.31828 -31.2204 -8.67266 -31.6943 -8.53413 -32.4402C-8.39562 -33.1798 -8.8185 -33.9069 -9.47763 -34.0567C-10.1367 -34.2128 -10.7841 -33.7325 -10.922 -32.9929ZM21.0473 16.422C20.9214 16.7579 20.9187 17.1359 21.0405 17.4753C21.1617 17.8085 21.3977 18.0795 21.6957 18.2198C21.9937 18.3602 22.3298 18.3601 22.6302 18.2278C22.9296 18.0894 23.1688 17.8214 23.2952 17.4855C23.4211 17.1496 23.4238 16.7717 23.3026 16.4385C23.1808 16.0991 22.9453 15.8342 22.6468 15.6877C22.3488 15.5474 22.0127 15.5475 21.7128 15.6859C21.4129 15.8244 21.1738 16.0861 21.0473 16.422ZM30.9232 12.2761C30.7973 12.612 30.7951 12.9899 30.9169 13.3292C31.0381 13.6625 31.2741 13.9335 31.5721 14.0738C31.8696 14.2142 32.2056 14.2142 32.5061 14.0818C32.806 13.9434 33.0451 13.6755 33.171 13.3396C33.2969 13.0037 33.2996 12.6258 33.1784 12.2925C33.0566 11.9531 32.8212 11.6883 32.5232 11.5479C32.2246 11.4015 31.8891 11.4014 31.5892 11.5399C31.2893 11.6784 31.0496 11.9402 30.9232 12.2761ZM32.3476 21.5778C32.2217 21.9137 32.2196 22.2916 32.3414 22.631C32.4626 22.9643 32.6986 23.2352 32.9966 23.3756C33.2941 23.516 33.6301 23.5159 33.9305 23.3836C34.2304 23.2451 34.4696 22.9772 34.5955 22.6413C34.7214 22.3054 34.7241 21.9275 34.6029 21.5943C34.4811 21.2549 34.2456 20.9899 33.9476 20.8496C33.6491 20.7031 33.3136 20.7032 33.0137 20.8417C32.7138 20.9801 32.4741 21.2419 32.3476 21.5778Z" fill="#ECD6FE"/>
<path d="M62.8186 118.943C61.4549 122.267 60.9869 124.382 58.7275 124.382C55.091 124.382 53.5 122.854 53.5 119.85C53.5 116.846 56.9226 111.389 59.1821 111.389C61.4415 111.389 64.6368 114.511 62.8186 118.943Z" fill="#ECD6FE"/>
<path d="M165.35 136.975C161.551 142.515 160.247 146.041 153.953 146.041C143.823 146.041 139.391 143.493 139.391 138.486C139.391 133.48 148.925 124.385 155.219 124.385C161.513 124.385 170.415 129.589 165.35 136.975Z" fill="#ECD6FE"/>
<path d="M125.93 0.975492C122.131 6.51541 120.827 10.0408 114.533 10.0408C104.403 10.0408 99.9707 7.49302 99.9707 2.48638C99.9707 -2.52026 109.505 -11.6152 115.799 -11.6152C122.093 -11.6152 130.995 -6.41107 125.93 0.975492Z" fill="#ECD6FE"/>
<path d="M68.5303 16.9557C67.3614 19.6148 66.9603 21.307 65.0237 21.307C61.9067 21.307 60.543 20.0841 60.543 17.6809C60.543 15.2777 63.4766 10.9121 65.4133 10.9121C67.35 10.9121 70.0888 13.4101 68.5303 16.9557Z" fill="#ECD6FE"/>
<path d="M136.578 37.3268C136.578 39.9255 135.475 40.3586 134.114 40.3586C132.753 40.3586 130.242 39.4343 130.242 37.7599C130.242 36.0854 132.753 34.2949 134.114 34.2949C135.475 34.2949 136.578 35.1612 136.578 37.3268Z" fill="#ECD6FE"/>
<path d="M151.357 7.0074C151.357 8.86364 150.621 9.17301 149.714 9.17301C148.807 9.17301 147.133 8.51281 147.133 7.31677C147.133 6.12074 148.807 4.8418 149.714 4.8418C150.621 4.8418 151.357 5.46054 151.357 7.0074Z" fill="#ECD6FE"/>
<mask id="mask1_5578_88282" style="mask-type:alpha" maskUnits="userSpaceOnUse" x="-25" y="0" width="318" height="164">
<path d="M-24.1445 0.513672H292.267V163.514H-24.1445V0.513672Z" fill="#FFEBD5"/>
</mask>
<g mask="url(#mask1_5578_88282)">
<path d="M-26.6797 -6.75195H295.638V179.089H-26.6797V-6.75195Z" fill="#FFF2E5"/>
<path d="M13.2725 65.9009C12.9428 66.0211 12.6597 66.2603 12.4683 66.5807C12.2745 66.904 12.1816 67.2916 12.2056 67.6804C13.0229 80.9673 13.1457 93.5809 12.5011 105.449C11.0165 105.07 9.50364 104.821 7.96188 104.733C-0.741359 104.245 -7.89348 111.234 -7.84414 119.548C-7.81827 123.717 -5.83483 127.175 -2.9467 129.563C-0.0583149 131.952 3.73742 133.428 7.82408 134.096C12.1453 134.804 16.0391 132.852 18.8395 129.937C21.6373 127.024 23.4651 123.161 23.7621 119.469C23.7914 119.105 23.7707 118.986 23.759 118.691C23.7475 118.395 23.7291 118.023 23.7027 117.573C23.6498 116.672 23.5708 115.461 23.4794 114.012C23.2965 111.114 23.0615 107.268 22.871 103.143C22.5043 95.1549 22.383 86.1661 23.0532 81.1384C23.9083 80.3631 25.364 79.7392 27.2374 79.3664L25.885 84.1774C25.8515 84.286 25.8361 84.4033 25.8413 84.521C25.8485 84.6355 25.8751 84.7493 25.9195 84.8553C25.9663 84.9584 26.0294 85.0521 26.1066 85.1287C26.184 85.2056 26.2761 85.2606 26.3744 85.2955C26.4704 85.3333 26.5756 85.3435 26.6773 85.3339C26.7787 85.324 26.8777 85.2902 26.9697 85.2329C27.0594 85.1785 27.1392 85.1029 27.2039 85.0114C27.2687 84.9198 27.3162 84.8154 27.3427 84.7045L28.8834 79.2224C28.8929 79.1898 28.9012 79.1558 28.9061 79.1236C29.9448 79.0135 31.0718 78.9811 32.2745 79.029L30.5777 82.8384C30.4878 83.0421 30.4716 83.2814 30.5358 83.4993C30.598 83.7202 30.7367 83.8997 30.9167 84.0052C31.099 84.108 31.3081 84.1269 31.5016 84.0545C31.6949 83.9818 31.8548 83.8257 31.9469 83.6189L33.9367 79.1428C35.2801 79.2707 36.6801 79.4853 38.118 79.7778L35.6667 83.5928C35.6061 83.6834 35.5626 83.7868 35.5371 83.8988C35.5116 84.0107 35.5058 84.1273 35.5194 84.2433C35.5351 84.3561 35.5689 84.4669 35.6217 84.5657C35.6742 84.6642 35.7443 84.7493 35.8251 84.8191C35.9083 84.8861 36.0008 84.9362 36.1003 84.9617C36.2001 84.9875 36.3012 84.9934 36.4028 84.973C36.5021 84.9555 36.5985 84.9135 36.6855 84.8509C36.7725 84.7883 36.8449 84.7102 36.9051 84.6139L39.7213 80.2296C39.7399 80.2013 39.7568 80.1711 39.7724 80.1396C40.7644 80.3806 41.768 80.6662 42.7751 80.9767L41.2062 84.505C41.16 84.6055 41.1301 84.7181 41.1218 84.8322C41.1111 84.949 41.1234 85.0637 41.1555 85.1726C41.185 85.2841 41.2354 85.3857 41.3022 85.4726C41.3666 85.5623 41.4485 85.6332 41.5386 85.6862C41.631 85.7362 41.7304 85.767 41.8305 85.7771C41.9326 85.784 42.0344 85.7691 42.1304 85.7321C42.2264 85.6951 42.3162 85.6355 42.3935 85.5572C42.4684 85.4818 42.5309 85.3879 42.5744 85.2844L44.2766 81.4594C45.2406 81.7884 46.1997 82.1548 47.1527 82.5468L46.0271 85.0762C45.9818 85.1778 45.9528 85.2913 45.947 85.4027C45.9389 85.517 45.9512 85.6316 45.9826 85.7397C46.0142 85.8481 46.0638 85.9489 46.1299 86.035C46.1959 86.1211 46.2744 86.1938 46.3658 86.2428C46.4552 86.295 46.5515 86.3278 46.6534 86.3344C46.7527 86.3437 46.8545 86.3288 46.9484 86.2949C47.0446 86.2582 47.1328 86.2022 47.2087 86.1279C47.2847 86.0536 47.3487 85.9612 47.3939 85.8596L48.5925 83.1618C49.1753 83.4226 49.7565 83.687 50.3289 83.9688C50.6399 84.1228 50.9871 84.1547 51.316 84.0604C51.6449 83.9661 51.9362 83.7518 52.145 83.4498C52.3561 83.1449 52.4697 82.7738 52.4733 82.3876C52.4746 82.0042 52.3637 81.63 52.1597 81.3224C49.4559 77.3133 46.5601 73.2017 41.9372 70.2222C37.3191 67.2478 31.0681 65.4733 21.8138 65.7574L21.8046 65.7583L13.7243 65.8196C13.5701 65.8215 13.4165 65.8508 13.2725 65.9009ZM15.3288 69.2813L21.8338 69.2309C21.8438 69.2308 21.854 69.2309 21.864 69.2308C30.7603 68.9513 36.3732 70.6307 40.4231 73.2423C42.6833 74.7017 44.4559 76.5144 46.0734 78.4831C41.8276 76.9406 37.5258 75.9372 33.6297 75.6211C28.0341 75.1677 23.1971 75.8352 20.4834 78.9869C20.2671 79.2381 20.1219 79.5596 20.0699 79.9052C19.204 85.5854 19.4315 94.9969 19.8148 103.323C20.0041 107.49 20.2431 111.356 20.4261 114.259C20.5188 115.71 20.5949 116.924 20.6469 117.802C20.6731 118.241 20.6898 118.601 20.7008 118.853C20.7118 119.105 20.6975 119.352 20.7143 119.15C20.5066 121.719 19.0399 125.014 16.7684 127.38C15.8992 128.284 14.9307 129.052 13.8806 129.631L14.2831 128.182C14.3266 128.031 14.3335 127.867 14.3017 127.71C14.27 127.554 14.2006 127.411 14.0998 127.298C14.0015 127.183 13.8758 127.103 13.7389 127.065C13.5999 127.029 13.4575 127.033 13.3229 127.083C13.2035 127.127 13.0969 127.201 13.0102 127.301C12.9236 127.401 12.8591 127.525 12.8219 127.662L12.0656 130.391C11.0056 130.714 9.88911 130.843 8.72387 130.717L10.6835 126.273C10.754 126.118 10.7831 125.941 10.7623 125.769C10.7439 125.595 10.68 125.431 10.5772 125.3C10.4743 125.169 10.3405 125.075 10.1901 125.033C10.0421 124.988 9.88465 124.998 9.73782 125.061C9.55242 125.136 9.3991 125.294 9.31325 125.497L7.13241 130.444C6.14805 130.237 5.19268 129.982 4.28456 129.669L6.16403 126.722C6.2654 126.568 6.31821 126.383 6.31612 126.194C6.31379 126.005 6.25924 125.818 6.15494 125.67C6.05298 125.519 5.91038 125.411 5.74626 125.365C5.5845 125.316 5.41405 125.327 5.25992 125.399C5.12406 125.463 5.00743 125.569 4.92402 125.705L2.76913 129.081C1.82837 128.675 0.953569 128.211 0.158704 127.693L1.94618 123.638C2.01687 123.483 2.04602 123.306 2.02548 123.135C2.00703 122.96 1.94315 122.796 1.84058 122.666C1.74036 122.533 1.60387 122.441 1.4561 122.396C1.30572 122.354 1.14808 122.363 1.00335 122.423C0.815849 122.502 0.66251 122.66 0.576664 122.863L-1.14052 126.757C-1.14102 126.757 -1.14151 126.756 -1.14202 126.756C-1.98039 126.063 -2.67875 125.316 -3.23797 124.509L-1.67485 120.964C-1.60441 120.809 -1.57762 120.634 -1.59582 120.46C-1.61401 120.285 -1.6779 120.121 -1.78072 119.991C-1.88328 119.861 -2.01717 119.767 -2.16755 119.724C-2.31557 119.679 -2.47299 119.689 -2.61797 119.748C-2.80547 119.827 -2.95878 119.985 -3.04463 120.188L-4.17628 122.754C-4.56337 121.766 -4.77494 120.697 -4.78246 119.524C-4.81849 113.538 0.622169 107.799 7.80787 108.204L7.80862 108.204C9.91109 108.321 11.8266 108.602 13.444 109.283C13.6674 109.375 13.9056 109.409 14.1429 109.378C14.3781 109.35 14.6044 109.259 14.8041 109.113C15.0035 108.967 15.1705 108.77 15.2929 108.536C15.413 108.306 15.4848 108.045 15.5027 107.776C16.2606 95.6861 16.099 82.764 15.3288 69.2813ZM24.1434 71.1167C23.776 71.3518 23.6469 71.8827 23.8562 72.2974C24.0632 72.7149 24.5301 72.8633 24.8998 72.6253C25.2667 72.3897 25.3966 71.8596 25.1867 71.4444C24.979 71.026 24.5119 70.8774 24.1434 71.1167ZM17.5331 75.4961C17.1662 75.7318 17.0368 76.2624 17.2443 76.6805C17.4539 77.0954 17.9195 77.2425 18.2893 77.0045C18.6564 76.7691 18.786 76.2388 18.5762 75.8236C18.3689 75.4058 17.9 75.2605 17.5331 75.4961ZM10.0567 113.269C9.86388 113.342 9.70441 113.499 9.61261 113.706C9.52316 113.91 9.50726 114.15 9.57174 114.368C9.63622 114.586 9.77525 114.765 9.95496 114.871C10.1368 114.973 10.3479 114.989 10.541 114.916C10.7337 114.843 10.8932 114.686 10.9826 114.482C11.0744 114.275 11.088 114.038 11.0259 113.817C10.9614 113.599 10.8223 113.419 10.6403 113.317C10.4582 113.214 10.2497 113.196 10.0567 113.269ZM15.8785 116.816C15.6857 116.889 15.5266 117.046 15.4348 117.253C15.3453 117.457 15.3294 117.697 15.3939 117.915C15.4581 118.133 15.5971 118.313 15.7768 118.418C15.9589 118.52 16.17 118.536 16.3628 118.463C16.5556 118.39 16.7151 118.233 16.8045 118.029C16.8963 117.822 16.9099 117.585 16.8454 117.367C16.7832 117.146 16.6445 116.967 16.4624 116.864C16.2804 116.762 16.0715 116.743 15.8785 116.816ZM12.5712 121.47C12.3784 121.543 12.2192 121.7 12.1274 121.907C12.0379 122.111 12.022 122.351 12.0865 122.569C12.1507 122.787 12.2898 122.966 12.4695 123.072C12.6515 123.174 12.8627 123.19 13.0555 123.117C13.2482 123.043 13.4077 122.887 13.4971 122.683C13.5889 122.475 13.6025 122.239 13.538 122.021C13.4759 121.8 13.3371 121.62 13.1551 121.518C12.973 121.415 12.7642 121.397 12.5712 121.47Z" fill="#E4E3C6"/>
<path d="M201.126 76.1954C200.981 76.3979 200.9 76.6472 200.897 76.9039C200.892 77.1632 200.965 77.4167 201.102 77.6228C205.806 84.666 209.908 91.621 213.346 98.4778C212.4 98.878 211.48 99.3622 210.596 99.9481C205.606 103.258 203.869 110.083 206.556 114.68C207.903 116.985 210.111 118.089 212.479 118.227C214.847 118.365 217.427 117.623 219.91 116.313C222.537 114.928 224.075 112.242 224.698 109.47C225.32 106.701 225.1 103.804 224.084 101.631C223.984 101.416 223.935 101.359 223.834 101.2C223.733 101.04 223.603 100.841 223.445 100.602C223.127 100.124 222.696 99.4835 222.182 98.7163C221.153 97.1819 219.793 95.1426 218.368 92.9301C215.609 88.6443 212.667 83.7019 211.431 80.6338C211.658 79.8513 212.267 78.9058 213.189 77.9279L213.976 81.1563C213.992 81.2305 214.021 81.3019 214.062 81.3652C214.102 81.4258 214.153 81.4781 214.212 81.5187C214.271 81.5567 214.336 81.5828 214.403 81.5936C214.471 81.6044 214.54 81.597 214.605 81.576C214.671 81.5575 214.733 81.5199 214.786 81.4727C214.839 81.4255 214.883 81.3659 214.916 81.2963C214.948 81.2292 214.969 81.1543 214.975 81.0768C214.982 80.9993 214.975 80.9218 214.954 80.8493L214.057 77.1706C214.051 77.1486 214.045 77.1263 214.038 77.1064C214.579 76.6178 215.195 76.1361 215.878 75.6678L216.154 78.4817C216.169 78.6319 216.237 78.7715 216.342 78.866C216.447 78.9632 216.582 79.0057 216.716 78.9903C216.85 78.9724 216.972 78.8968 217.056 78.777C217.14 78.6571 217.179 78.5046 217.164 78.3518L216.838 75.047C217.625 74.5653 218.471 74.1085 219.363 73.6792L219.222 76.8067C219.217 76.882 219.226 76.9573 219.248 77.03C219.269 77.1026 219.303 77.1698 219.348 77.2286C219.393 77.2848 219.447 77.3324 219.508 77.3656C219.569 77.3987 219.635 77.4171 219.702 77.4226C219.77 77.4256 219.837 77.4154 219.9 77.3886C219.964 77.3618 220.022 77.3235 220.072 77.2704C220.122 77.2198 220.162 77.1568 220.19 77.0863C220.218 77.0157 220.234 76.9425 220.236 76.8642L220.398 73.2704C220.399 73.247 220.399 73.2233 220.398 73.1994C221.026 72.9251 221.674 72.6707 222.333 72.4288L222.59 75.034C222.597 75.1088 222.616 75.1836 222.648 75.2504C222.679 75.3197 222.723 75.3783 222.776 75.4256C222.828 75.4754 222.888 75.5111 222.953 75.5319C223.017 75.5552 223.086 75.5609 223.153 75.5532C223.22 75.543 223.285 75.5192 223.344 75.4836C223.403 75.4454 223.454 75.3953 223.496 75.3352C223.537 75.2752 223.568 75.2051 223.586 75.1298C223.604 75.0571 223.608 74.9792 223.599 74.9039L223.321 72.079C223.962 71.8651 224.612 71.6739 225.267 71.4995L225.45 73.3675C225.458 73.4426 225.478 73.5175 225.51 73.5818C225.542 73.6486 225.586 73.7072 225.638 73.7543C225.69 73.8015 225.75 73.8371 225.814 73.8578C225.878 73.8784 225.945 73.8865 226.012 73.8761C226.078 73.8683 226.142 73.8468 226.201 73.8086C226.259 73.7729 226.311 73.7228 226.352 73.6653C226.394 73.6053 226.425 73.5379 226.443 73.4654C226.461 73.3929 226.467 73.3152 226.46 73.2402L226.263 71.2486C226.67 71.1537 227.077 71.0614 227.485 70.9824C227.707 70.9399 227.91 70.8148 228.063 70.6271C228.215 70.4393 228.309 70.2004 228.328 69.9468C228.348 69.6906 228.292 69.4378 228.171 69.2218C228.049 69.0083 227.868 68.8461 227.656 68.7593C224.872 67.6451 221.949 66.5532 218.428 66.8006C214.912 67.0488 210.873 68.6354 205.824 72.6012L205.819 72.6055L201.351 75.9644C201.266 76.0289 201.19 76.1083 201.126 76.1954ZM203.349 77.2268L206.946 74.5221C206.951 74.5179 206.957 74.5138 206.962 74.5096C211.814 70.6937 215.469 69.3169 218.553 69.1009C220.275 68.9814 221.839 69.2588 223.367 69.6866C220.516 70.577 217.806 71.7899 215.541 73.2174C212.288 75.2681 209.815 77.6291 209.316 80.4962C209.276 80.7248 209.298 80.9631 209.38 81.1764C210.716 84.6875 213.852 89.821 216.728 94.2878C218.166 96.5238 219.535 98.5727 220.565 100.11C221.081 100.878 221.511 101.52 221.821 101.987C221.976 102.22 222.1 102.413 222.187 102.548C222.274 102.684 222.345 102.827 222.29 102.708C222.996 104.22 223.235 106.654 222.73 108.902C222.537 109.762 222.244 110.587 221.846 111.34L221.606 110.37C221.582 110.268 221.533 110.175 221.466 110.101C221.398 110.027 221.314 109.976 221.222 109.955C221.13 109.931 221.035 109.939 220.947 109.974C220.858 110.011 220.78 110.072 220.721 110.155C220.669 110.229 220.633 110.313 220.617 110.405C220.601 110.496 220.605 110.592 220.628 110.683L221.081 112.51C220.596 113.125 220.017 113.656 219.329 114.066L218.997 110.791C218.986 110.676 218.946 110.566 218.879 110.479C218.813 110.39 218.725 110.325 218.626 110.295C218.527 110.264 218.423 110.267 218.326 110.306C218.229 110.342 218.145 110.412 218.083 110.507C218.005 110.625 217.97 110.776 217.987 110.924L218.358 114.569C217.745 114.859 217.133 115.11 216.529 115.311L216.63 112.9C216.637 112.773 216.607 112.649 216.546 112.545C216.484 112.44 216.394 112.359 216.289 112.32C216.184 112.278 216.07 112.276 215.964 112.318C215.858 112.358 215.767 112.434 215.705 112.537C215.65 112.629 215.619 112.736 215.616 112.845L215.499 115.607C214.847 115.769 214.212 115.871 213.605 115.911L213.301 112.923C213.291 112.808 213.25 112.698 213.184 112.611C213.118 112.521 213.03 112.457 212.931 112.426C212.833 112.394 212.728 112.399 212.632 112.435C212.535 112.474 212.45 112.543 212.389 112.636C212.31 112.757 212.275 112.908 212.292 113.056L212.584 115.926C212.584 115.925 212.583 115.925 212.583 115.925C211.896 115.886 211.269 115.758 210.7 115.54L210.435 112.928C210.424 112.813 210.383 112.705 210.317 112.615C210.251 112.526 210.164 112.461 210.065 112.431C209.966 112.401 209.862 112.404 209.765 112.442C209.668 112.478 209.584 112.548 209.522 112.641C209.443 112.762 209.409 112.912 209.426 113.06L209.618 114.951C209.087 114.562 208.627 114.055 208.248 113.407C206.314 110.097 207.5 104.671 211.62 101.939L211.621 101.939C212.826 101.138 213.98 100.506 215.096 100.219C215.249 100.179 215.393 100.099 215.514 99.9844C215.636 99.872 215.733 99.7283 215.797 99.565C215.861 99.4017 215.891 99.2237 215.884 99.0438C215.877 98.8663 215.833 98.6921 215.757 98.5351C212.311 91.5085 208.089 84.3981 203.349 77.2268ZM208.832 74.6191C208.703 74.9009 208.801 75.2489 209.05 75.393C209.298 75.5398 209.605 75.4301 209.734 75.1458C209.863 74.8639 209.765 74.5161 209.516 74.3718C209.267 74.225 208.96 74.3346 208.832 74.6191ZM206.561 79.7715C206.433 80.0533 206.53 80.4013 206.779 80.5481C207.028 80.6923 207.334 80.5824 207.463 80.2981C207.592 80.0162 207.494 79.6683 207.245 79.5241C206.996 79.3773 206.689 79.4896 206.561 79.7715ZM214.489 103.827C214.406 103.947 214.367 104.099 214.382 104.252C214.398 104.402 214.466 104.542 214.571 104.637C214.677 104.731 214.812 104.774 214.945 104.758C215.079 104.74 215.201 104.662 215.285 104.542C215.369 104.422 215.407 104.27 215.391 104.119C215.376 103.967 215.308 103.829 215.203 103.732C215.097 103.638 214.963 103.595 214.829 103.613C214.695 103.631 214.573 103.707 214.489 103.827ZM218.857 103.401C218.773 103.521 218.735 103.674 218.751 103.827C218.766 103.977 218.834 104.117 218.94 104.211C219.045 104.306 219.18 104.348 219.313 104.333C219.447 104.315 219.569 104.237 219.653 104.117C219.737 103.997 219.775 103.844 219.759 103.694C219.744 103.541 219.676 103.404 219.57 103.309C219.465 103.212 219.331 103.17 219.197 103.188C219.063 103.206 218.941 103.281 218.857 103.401ZM218.509 107.347C218.425 107.467 218.387 107.619 218.402 107.772C218.418 107.922 218.485 108.062 218.591 108.157C218.696 108.251 218.831 108.294 218.964 108.278C219.098 108.26 219.221 108.182 219.304 108.062C219.388 107.942 219.426 107.79 219.411 107.639C219.396 107.487 219.327 107.349 219.222 107.255C219.117 107.158 218.982 107.115 218.848 107.133C218.714 107.151 218.592 107.227 218.509 107.347Z" fill="#E4E3C6"/>
<path d="M270.576 2.03376C271.346 2.40693 271.981 3.05442 272.378 3.87439C272.781 4.7018 272.928 5.6587 272.794 6.58862C268.206 38.3682 265.423 68.703 264.635 97.4382C268.283 96.9018 271.975 96.6861 275.703 96.8669C296.752 97.9002 312.592 116.54 310.833 136.543C309.949 146.573 304.492 154.394 297.068 159.41C289.644 164.427 280.215 167.017 270.245 167.589C259.702 168.199 250.713 162.511 244.546 154.782C238.385 147.06 234.747 137.297 234.76 128.333C234.761 127.448 234.834 127.169 234.921 126.46C235.007 125.752 235.125 124.861 235.277 123.783C235.582 121.629 236.011 118.732 236.517 115.267C237.529 108.336 238.853 99.1373 240.125 89.2559C242.583 70.118 244.647 48.5091 244.025 36.2353C242.12 34.1519 238.738 32.2804 234.302 30.9078L236.609 42.8328C236.668 43.1028 236.682 43.3891 236.646 43.6711C236.606 43.945 236.52 44.2123 236.392 44.4561C236.259 44.6925 236.089 44.902 235.888 45.0668C235.686 45.2322 235.454 45.3413 235.21 45.4005C234.971 45.4671 234.716 45.4649 234.473 45.416C234.231 45.3665 234 45.26 233.789 45.0988C233.584 44.945 233.407 44.7428 233.269 44.5059C233.131 44.2691 233.037 44.0056 232.996 43.732L230.368 30.1435C230.351 30.0625 230.338 29.9787 230.332 29.8999C227.854 29.3712 225.147 29.0074 222.242 28.8176L225.576 38.4187C225.752 38.932 225.744 39.5123 225.546 40.0204C225.353 40.5365 224.983 40.9333 224.529 41.1418C224.07 41.3429 223.563 41.3354 223.112 41.112C222.661 40.888 222.306 40.4716 222.126 39.9503L218.218 28.6697C214.958 28.6368 211.546 28.7983 208.026 29.1375L213.176 38.9437C213.304 39.1772 213.388 39.4373 213.427 39.7132C213.466 39.989 213.458 40.2714 213.402 40.5471C213.342 40.8148 213.239 41.0729 213.092 41.2973C212.946 41.5211 212.761 41.7083 212.552 41.8559C212.339 41.996 212.106 42.0931 211.862 42.1293C211.616 42.166 211.372 42.1545 211.131 42.0797C210.896 42.0123 210.672 41.8868 210.475 41.7141C210.278 41.5413 210.119 41.335 209.993 41.0877L204.078 29.8184C204.039 29.7456 204.004 29.6687 203.972 29.5889C201.537 29.9174 199.064 30.3502 196.579 30.8423L199.66 39.7343C199.751 39.9881 199.801 40.2668 199.799 40.5434C199.801 40.8275 199.749 41.1003 199.65 41.3543C199.557 41.6153 199.416 41.8471 199.238 42.0394C199.065 42.2392 198.854 42.389 198.627 42.4936C198.394 42.5907 198.149 42.6396 197.906 42.6384C197.659 42.6291 197.417 42.5675 197.193 42.4541C196.969 42.3407 196.765 42.1743 196.594 41.9663C196.429 41.7658 196.297 41.5237 196.212 41.2636L192.869 31.6233C190.483 32.1707 188.102 32.8096 185.73 33.5116L187.941 39.8865C188.03 40.1426 188.078 40.423 188.07 40.6928C188.067 40.9699 188.014 41.2427 187.918 41.4951C187.82 41.748 187.681 41.978 187.505 42.1686C187.329 42.3592 187.126 42.5142 186.896 42.609C186.67 42.7118 186.432 42.7664 186.185 42.7566C185.945 42.7536 185.703 42.692 185.483 42.5866C185.259 42.4738 185.057 42.3166 184.889 42.1184C184.721 41.9202 184.585 41.6816 184.496 41.4255L182.143 34.6268C180.688 35.1067 179.237 35.5958 177.804 36.1291C177.024 36.4207 176.182 36.4095 175.409 36.0991C174.636 35.7886 173.977 35.1988 173.534 34.4187C173.086 33.6311 172.885 32.7091 172.953 31.7783C173.025 30.855 173.366 29.9822 173.918 29.2936C181.218 20.3279 189 11.1645 200.717 5.16443C212.421 -0.824614 227.819 -3.51057 250.042 -0.478573L250.064 -0.47406L269.505 1.72353C269.875 1.76727 270.24 1.87658 270.576 2.03376ZM264.959 9.65017L249.309 7.87826C249.285 7.8755 249.26 7.87328 249.236 7.87052C227.875 4.94043 214.031 7.55952 203.766 12.8192C198.037 15.7591 193.412 19.6732 189.13 24.0022C199.656 21.366 210.21 20.042 219.652 20.2694C233.212 20.5977 244.725 23.4317 250.636 31.7076C251.107 32.3674 251.394 33.1781 251.451 34.0232C252.415 47.9177 250.011 70.5173 247.447 90.4654C246.169 100.447 244.832 109.694 243.818 116.638C243.309 120.106 242.887 123.009 242.588 125.11C242.439 126.16 242.327 127.022 242.251 127.626C242.175 128.231 242.161 128.828 242.16 128.339C242.153 134.576 245.035 142.881 250.037 149.152C251.951 151.55 254.131 153.643 256.545 155.303L255.862 151.714C255.787 151.338 255.802 150.942 255.91 150.573C256.017 150.204 256.212 149.877 256.477 149.632C256.736 149.38 257.055 149.22 257.392 149.162C257.734 149.112 258.076 149.157 258.39 149.31C258.669 149.447 258.911 149.652 259.1 149.915C259.288 150.179 259.419 150.494 259.482 150.833L260.764 157.595C263.253 158.64 265.915 159.234 268.745 159.227L264.904 148.031C264.765 147.64 264.73 147.206 264.813 146.798C264.892 146.382 265.078 146.004 265.352 145.715C265.625 145.427 265.966 145.235 266.336 145.172C266.701 145.101 267.078 145.163 267.42 145.352C267.851 145.582 268.189 146 268.356 146.51L272.63 158.972C275.041 158.725 277.391 158.353 279.639 157.831L275.695 150.259C275.482 149.862 275.391 149.404 275.433 148.949C275.476 148.494 275.644 148.059 275.925 147.729C276.2 147.391 276.565 147.166 276.969 147.097C277.368 147.02 277.776 147.091 278.133 147.302C278.447 147.491 278.707 147.776 278.881 148.124L283.403 156.799C285.748 156.061 287.945 155.166 289.961 154.12L286.458 143.905C286.318 143.514 286.283 143.08 286.366 142.672C286.445 142.257 286.631 141.878 286.904 141.59C287.171 141.295 287.518 141.11 287.882 141.04C288.253 140.976 288.63 141.038 288.967 141.219C289.403 141.456 289.741 141.875 289.908 142.385L293.274 152.197C293.275 152.195 293.276 152.194 293.277 152.193C295.432 150.739 297.261 149.118 298.766 147.316L295.702 138.385C295.563 137.994 295.533 137.566 295.612 137.151C295.69 136.736 295.876 136.358 296.149 136.07C296.422 135.782 296.763 135.589 297.133 135.526C297.498 135.456 297.875 135.518 298.213 135.699C298.648 135.936 298.986 136.355 299.153 136.864L301.371 143.329C302.498 141.048 303.218 138.528 303.468 135.706C304.735 121.305 292.769 106.108 275.39 105.26L275.388 105.262C270.303 105.009 265.637 105.199 261.609 106.428C261.053 106.595 260.472 106.616 259.907 106.48C259.347 106.353 258.82 106.076 258.368 105.674C257.917 105.271 257.553 104.755 257.305 104.162C257.061 103.577 256.94 102.932 256.95 102.278C257.509 72.9807 260.447 41.913 264.959 9.65017ZM243.377 11.8323C244.215 12.4915 244.421 13.8024 243.836 14.7476C243.255 15.7002 242.102 15.939 241.259 15.2723C240.422 14.6119 240.214 13.3028 240.801 12.3564C241.383 11.402 242.537 11.1627 243.377 11.8323ZM258.427 24.0525C259.264 24.7129 259.471 26.0232 258.889 26.977C258.302 27.9228 257.153 28.1586 256.309 27.4919C255.472 26.8321 255.264 25.5225 255.852 24.5761C256.433 23.6229 257.59 23.3921 258.427 24.0525ZM268.977 116.883C269.427 117.109 269.78 117.526 269.96 118.048C270.135 118.563 270.126 119.143 269.928 119.652C269.73 120.161 269.36 120.558 268.906 120.766C268.448 120.966 267.937 120.95 267.487 120.726C267.037 120.501 266.684 120.083 266.509 119.569C266.329 119.047 266.343 118.473 266.536 117.957C266.734 117.449 267.104 117.051 267.563 116.851C268.021 116.65 268.527 116.659 268.977 116.883ZM254.262 123.946C254.712 124.171 255.064 124.589 255.244 125.111C255.419 125.626 255.41 126.206 255.212 126.715C255.015 127.223 254.644 127.621 254.191 127.829C253.733 128.029 253.221 128.014 252.771 127.788C252.322 127.563 251.969 127.146 251.794 126.631C251.614 126.109 251.628 125.536 251.826 125.027C252.019 124.511 252.389 124.114 252.847 123.914C253.305 123.713 253.812 123.722 254.262 123.946ZM261.307 135.988C261.756 136.213 262.109 136.631 262.289 137.153C262.464 137.668 262.455 138.249 262.257 138.757C262.059 139.265 261.689 139.663 261.236 139.871C260.777 140.071 260.266 140.056 259.816 139.831C259.366 139.605 259.013 139.188 258.838 138.673C258.658 138.151 258.672 137.578 258.87 137.069C259.064 136.553 259.433 136.157 259.892 135.956C260.35 135.756 260.856 135.764 261.307 135.988Z" fill="#E4E3C6"/>
<path d="M-54.7415 -44.7484C-55.0057 -44.0662 -55.0608 -43.3107 -54.8974 -42.6016C-54.7334 -41.8852 -54.3606 -41.2513 -53.8388 -40.8045C-36.0077 -25.5358 -19.9049 -9.98674 -5.71348 5.87057C-8.06762 7.79337 -10.2929 9.92453 -12.3502 12.3042C-23.9573 25.7435 -24.1522 46.0138 -13.5783 56.3137C-8.27468 61.4766 -1.39806 62.5921 5.26818 60.9114C11.9351 59.2306 18.5944 54.9464 24.5995 49.1838C30.9521 43.0934 33.401 34.3709 33.2511 26.2108C33.1013 18.0582 30.5258 10.2855 26.2322 5.19621C25.8087 4.69405 25.6331 4.57998 25.2444 4.22978C24.8564 3.87951 24.3627 3.44449 23.76 2.92508C22.5547 1.88625 20.9234 0.50129 18.9757 -1.1602C15.0805 -4.48319 9.92125 -8.90528 4.46571 -13.7472C-6.0971 -23.1282 -17.615 -34.1545 -23.1255 -41.513C-23.0259 -43.8613 -21.9766 -46.99 -20.0822 -50.4794L-15.7073 -42.2902C-15.6124 -42.1004 -15.4834 -41.9292 -15.3282 -41.7906C-15.1742 -41.6592 -14.9967 -41.5601 -14.8066 -41.4995C-14.6172 -41.4463 -14.419 -41.4312 -14.2248 -41.4601C-14.0298 -41.4891 -13.844 -41.5691 -13.6756 -41.6842C-13.5066 -41.792 -13.361 -41.949 -13.2447 -42.1251C-13.1291 -42.3012 -13.0468 -42.5032 -13.003 -42.7233C-12.9586 -42.9359 -12.9534 -43.1591 -12.9874 -43.3779C-13.0215 -43.5967 -13.0934 -43.8039 -13.2002 -43.985L-18.1858 -53.3161C-18.215 -53.3722 -18.2476 -53.4279 -18.2821 -53.4761C-17.1098 -55.2902 -15.7274 -57.1499 -14.1482 -59.0314L-11.4745 -51.5367C-11.3305 -51.1371 -11.0484 -50.8123 -10.6919 -50.644C-10.334 -50.4685 -9.93192 -50.4684 -9.57119 -50.6271C-9.2111 -50.7931 -8.92316 -51.107 -8.77031 -51.5098C-8.61812 -51.9125 -8.61354 -52.3655 -8.75884 -52.7724L-11.9054 -61.5725C-10.0473 -63.5813 -8.00811 -65.5731 -5.82256 -67.5292L-4.0946 -58.8094C-4.05663 -58.5984 -3.98071 -58.399 -3.87138 -58.2182C-3.76205 -58.0374 -3.62194 -57.8823 -3.45817 -57.7595C-3.2957 -57.6439 -3.11283 -57.5603 -2.92136 -57.5222C-2.73055 -57.4839 -2.53438 -57.4908 -2.34399 -57.5341C-2.15423 -57.5848 -1.97418 -57.6716 -1.81624 -57.8003C-1.65763 -57.9292 -1.5225 -58.0851 -1.41996 -58.2746C-1.31678 -58.4566 -1.24815 -58.6646 -1.21745 -58.8832C-1.18674 -59.1018 -1.194 -59.3161 -1.2398 -59.5337L-3.22686 -69.553C-3.2391 -69.6184 -3.25592 -69.6833 -3.276 -69.7479C-1.71873 -71.0482 -0.090279 -72.3118 1.57405 -73.5497L4.05381 -66.6124C4.12254 -66.4122 4.22726 -66.2235 4.36085 -66.0676C4.49508 -65.9044 4.65559 -65.7812 4.83385 -65.6971C5.01208 -65.6055 5.20417 -65.56 5.39836 -65.5593C5.59318 -65.5512 5.78621 -65.5949 5.9669 -65.6742C6.14696 -65.761 6.31143 -65.883 6.45047 -66.0319C6.58823 -66.1882 6.69793 -66.371 6.77239 -66.5722C6.84686 -66.7734 6.88477 -66.9927 6.88344 -67.2152C6.88275 -67.4303 6.84284 -67.6484 6.76692 -67.8478L4.08025 -75.3707C5.71359 -76.5162 7.38795 -77.6068 9.08704 -78.6557L10.8637 -73.6809C10.935 -73.4811 11.0417 -73.2925 11.1753 -73.1441C11.3096 -72.9883 11.4701 -72.8652 11.6464 -72.7808C11.8233 -72.6965 12.0134 -72.6508 12.2057 -72.6498C12.3979 -72.6489 12.5889 -72.6848 12.7664 -72.7713C12.9451 -72.8504 13.1082 -72.965 13.2453 -73.1211C13.3824 -73.2699 13.4921 -73.4527 13.5679 -73.6466C13.643 -73.8478 13.6835 -74.06 13.6854 -74.2754C13.6873 -74.4908 13.6514 -74.7094 13.58 -74.9093L11.6827 -80.2121C12.7483 -80.8273 13.8165 -81.4352 14.8957 -82.0074C15.483 -82.3173 15.9618 -82.8378 16.2579 -83.4864C16.554 -84.1351 16.651 -84.8729 16.5327 -85.587C16.4138 -86.3084 16.0881 -86.9549 15.6043 -87.443C15.1212 -87.9237 14.5081 -88.2119 13.8616 -88.2665C5.37842 -88.9073 -3.47664 -89.366 -13.0813 -85.6235C-22.6735 -81.8825 -32.8105 -74.0077 -44.1372 -58.7147L-44.1477 -58.6987L-54.2736 -45.5792C-54.4659 -45.3279 -54.623 -45.0435 -54.7415 -44.7484ZM-47.8709 -43.8474L-39.7204 -54.4107C-39.7079 -54.4269 -39.6948 -54.4432 -39.6823 -54.4595C-28.8019 -69.1687 -19.5908 -76.1323 -11.1748 -79.4091C-6.47562 -81.2355 -1.94539 -81.8338 2.58622 -81.987C-4.72553 -77.0591 -11.4261 -71.3679 -16.7458 -65.4735C-24.3848 -57.0072 -29.6489 -48.3661 -29.0908 -40.051C-29.0463 -39.3881 -28.8232 -38.7524 -28.452 -38.2371C-22.3635 -29.7479 -10.177 -18.3653 0.834471 -8.58883C6.34086 -3.69322 11.5308 0.747742 15.4332 4.07736C17.3841 5.73848 19.0147 7.13092 20.1907 8.14332C20.779 8.64949 21.2551 9.07161 21.5877 9.36866C21.9203 9.66571 22.2143 9.99666 21.981 9.71829C24.9668 13.2607 27.2805 19.7418 27.4027 26.3615C27.449 28.894 27.1959 31.4151 26.6018 33.833L25.279 31.3751C25.1424 31.1157 24.9443 30.9002 24.706 30.7559C24.4678 30.6116 24.1992 30.5449 23.9298 30.5674C23.6604 30.5824 23.4005 30.6854 23.179 30.8583C22.9588 31.0385 22.7835 31.2731 22.6761 31.5521C22.5813 31.8 22.54 32.0643 22.5575 32.3295C22.5751 32.5947 22.6502 32.8535 22.7764 33.0844L25.2719 37.7125C24.3413 39.8263 23.0947 41.7897 21.4643 43.5136L18.32 34.8022C18.213 34.495 18.0255 34.2264 17.7821 34.0456C17.5381 33.8574 17.2501 33.7558 16.9552 33.7588C16.6603 33.7617 16.3723 33.8604 16.1292 34.0506C15.8854 34.2334 15.6983 34.4991 15.5928 34.815C15.4544 35.2087 15.4603 35.6532 15.6082 36.0449L19.1086 45.7408C17.6048 47.0723 16.0752 48.2953 14.5336 49.3712L13.1805 42.6578C13.1135 42.3016 12.947 41.9861 12.7051 41.7532C12.4625 41.5204 12.1583 41.376 11.8392 41.3594C11.5196 41.3355 11.2022 41.4301 10.9368 41.6375C10.6707 41.8377 10.4698 42.127 10.3656 42.465C10.2751 42.7644 10.2618 43.0849 10.3283 43.3892L11.8761 51.0828C10.1751 52.0948 8.48383 52.9277 6.82515 53.564L3.95533 45.6161C3.84898 45.3089 3.66145 45.0403 3.41874 44.8594C3.17474 44.6713 2.88669 44.5696 2.59245 44.5725C2.29758 44.5681 2.00957 44.6742 1.76646 44.8569C1.52334 45.0471 1.33557 45.3127 1.22876 45.6213C1.09161 46.0224 1.09754 46.4669 1.24549 46.8586L4.00111 54.4926C3.99981 54.4927 3.99851 54.4929 3.9972 54.493C2.06303 54.9818 0.236933 55.1767 -1.49023 55.0712L-3.99873 48.1221C-4.10573 47.8149 -4.29265 47.5536 -4.536 47.3654C-4.77935 47.1772 -5.0674 47.0755 -5.36229 47.0785C-5.65653 47.0814 -5.94452 47.1801 -6.18764 47.3703C-6.4314 47.5531 -6.61851 47.8187 -6.72597 48.1274C-6.86312 48.5284 -6.8572 48.9729 -6.70925 49.3646L-4.8942 54.3946C-6.63234 53.7858 -8.25103 52.7928 -9.74352 51.3406C-17.3572 43.9256 -17.743 27.9785 -8.15715 16.8852L-8.1552 16.8849C-5.35329 13.6363 -2.57895 10.8954 0.323962 9.1344C0.723511 8.8898 1.06711 8.54747 1.32724 8.12541C1.58866 7.71062 1.75937 7.23173 1.82685 6.72712C1.89369 6.22259 1.85594 5.70735 1.71546 5.21836C1.57561 4.73672 1.3369 4.29574 1.01887 3.93029C-13.3098 -12.3867 -29.8517 -28.2582 -47.8709 -43.8474ZM-34.4197 -55.7844C-34.5863 -54.8978 -34.0781 -54.0266 -33.2895 -53.8468C-32.5001 -53.6597 -31.7231 -54.228 -31.557 -55.122C-31.3917 -56.0084 -31.8979 -56.8798 -32.6879 -57.0595C-33.4791 -57.2463 -34.2569 -56.6779 -34.4197 -55.7844ZM-37.2298 -39.6466C-37.3951 -38.7602 -36.8876 -37.8889 -36.097 -37.7019C-35.3077 -37.5223 -34.5339 -38.0902 -34.3678 -38.9842C-34.2018 -39.8707 -34.7086 -40.742 -35.4986 -40.9216C-36.2886 -41.1087 -37.0644 -40.5331 -37.2298 -39.6466ZM1.08643 19.5787C0.93554 19.9812 0.932281 20.4342 1.07823 20.841C1.22355 21.2404 1.50638 21.5652 1.86355 21.7334C2.22072 21.9016 2.6235 21.9015 2.98358 21.7429C3.34236 21.577 3.62901 21.2559 3.78055 20.8532C3.93144 20.4507 3.9347 19.9978 3.78938 19.5984C3.64344 19.1916 3.36123 18.8741 3.00342 18.6985C2.64625 18.5303 2.24348 18.5305 1.88404 18.6964C1.5246 18.8624 1.23797 19.176 1.08643 19.5787ZM12.923 14.6097C12.7721 15.0122 12.7694 15.4651 12.9154 15.8718C13.0607 16.2713 13.3435 16.596 13.7007 16.7642C14.0572 16.9325 14.46 16.9324 14.8201 16.7739C15.1795 16.6079 15.4661 16.2868 15.617 15.8843C15.7679 15.4817 15.7712 15.0287 15.6259 14.6293C15.4799 14.2225 15.1977 13.9051 14.8405 13.7369C14.4827 13.5613 14.0806 13.5613 13.7212 13.7273C13.3618 13.8932 13.0745 14.207 12.923 14.6097ZM14.6302 25.758C14.4793 26.1606 14.4767 26.6135 14.6226 27.0203C14.768 27.4197 15.0508 27.7445 15.408 27.9127C15.7645 28.0809 16.1672 28.0809 16.5273 27.9223C16.8867 27.7563 17.1734 27.4351 17.3243 27.0326C17.4752 26.6301 17.4784 26.1771 17.3331 25.7777C17.1872 25.3709 16.905 25.0534 16.5478 24.8852C16.19 24.7097 15.7879 24.7098 15.4285 24.8757C15.069 25.0417 14.7817 25.3554 14.6302 25.758Z" fill="#E4E3C6"/>
<path d="M51.151 142.455C49.5166 146.438 48.9557 148.974 46.2477 148.974C41.8893 148.974 39.9824 147.141 39.9824 143.541C39.9824 139.941 44.0845 133.4 46.7925 133.4C49.5005 133.4 53.3302 137.143 51.151 142.455Z" fill="#E4E3C6"/>
<path d="M174.034 164.069C169.481 170.709 167.919 174.934 160.375 174.934C148.234 174.934 142.922 171.88 142.922 165.88C142.922 159.879 154.349 148.979 161.893 148.979C169.437 148.979 180.105 155.216 174.034 164.069Z" fill="#E4E3C6"/>
<path d="M126.782 1.06887C122.229 7.70863 120.667 11.9339 113.123 11.9339C100.982 11.9339 95.6699 8.88032 95.6699 2.87972C95.6699 -3.12089 107.097 -14.0215 114.641 -14.0215C122.185 -14.0215 132.853 -7.78414 126.782 1.06887Z" fill="#E4E3C6"/>
<path d="M57.9949 20.218C56.594 23.4051 56.1133 25.4332 53.7921 25.4332C50.0563 25.4332 48.4219 23.9675 48.4219 21.0872C48.4219 18.2069 51.938 12.9746 54.2591 12.9746C56.5803 12.9746 59.8629 15.9685 57.9949 20.218Z" fill="#E4E3C6"/>
<path d="M139.547 44.6357C139.547 47.7504 138.225 48.2695 136.594 48.2695C134.963 48.2695 131.953 47.1617 131.953 45.1548C131.953 43.148 134.963 41.002 136.594 41.002C138.225 41.002 139.547 42.0402 139.547 44.6357Z" fill="#E4E3C6"/>
<path d="M157.266 8.29671C157.266 10.5215 156.384 10.8923 155.297 10.8923C154.21 10.8923 152.203 10.101 152.203 8.66751C152.203 7.23403 154.21 5.70117 155.297 5.70117C156.384 5.70117 157.266 6.44276 157.266 8.29671Z" fill="#E4E3C6"/>
<mask id="mask2_5578_88282" style="mask-type:alpha" maskUnits="userSpaceOnUse" x="-25" y="0" width="318" height="164">
<path d="M-24.1445 0.513672H292.267V163.514H-24.1445V0.513672Z" fill="#FFEBD5"/>
</mask>
<g mask="url(#mask2_5578_88282)">
<path d="M-26.7793 -6.75195H295.785V179.089H-26.7793V-6.75195Z" fill="#FFF2E5"/>
<path d="M109.791 141.752C147.072 187.505 111.229 203.748 88.6479 206.151C76.0482 209.113 68.4044 193.229 66.1578 184.916C59.0792 110.742 92.2959 125.237 109.791 141.752Z" fill="white" fill-opacity="0.5"/>
<path d="M109.999 152.638C109.523 151.194 108.603 150.869 107.945 151.912C107.286 152.955 107.138 154.971 107.613 156.415C108.089 157.859 109.009 158.184 109.667 157.141C110.326 156.098 110.474 154.082 109.999 152.638Z" fill="#FED2AA"/>
<path d="M82.8125 141.904L77.6483 195.684C78.3711 190.727 82.5281 181.283 88.9632 177.672C94.4897 174.573 96.2265 174.672 94.8159 174.965M94.8159 174.965C96.9652 174.518 101.26 173.891 102.329 178.838C103.4 183.778 100.817 186.515 99.3942 187.259C97.6549 188.155 93.8425 188.634 92.5127 183.374C91.1835 178.114 93.493 175.579 94.8159 174.965Z" stroke="#FFEBD5" stroke-width="10" stroke-linecap="round"/>
<path d="M276.622 140.91C288.984 201.028 252.787 191.139 233.143 178.681C221.528 173.02 221.619 155.52 223.116 147.478C247.203 83.9724 268.821 116.64 276.622 140.91Z" fill="white" fill-opacity="0.5"/>
<path d="M255.566 125.158L230.363 164.68C232.884 161.193 239.904 156.308 246.458 157.502C252.086 158.53 253.434 159.707 252.193 159.048M252.193 159.048C254.084 160.051 257.76 162.267 256.674 166.879C255.592 171.486 252.458 172.03 251.03 171.723C249.289 171.337 246.057 169.308 247.058 164.282C248.058 159.257 250.896 158.7 252.193 159.048Z" stroke="#FFEBD5" stroke-width="7" stroke-linecap="round"/>
<path d="M55.3568 142.459C54.1407 146.442 53.7234 148.978 51.7086 148.978C48.4656 148.978 47.0469 147.145 47.0469 143.545C47.0469 139.945 50.099 133.404 52.1139 133.404C54.1288 133.404 56.9783 137.147 55.3568 142.459Z" fill="#FED2AA"/>
<path d="M184.191 164.073C179.813 170.713 178.311 174.938 171.057 174.938C159.383 174.938 154.275 171.884 154.275 165.884C154.275 159.883 165.263 148.982 172.517 148.982C179.77 148.982 190.028 155.22 184.191 164.073Z" fill="#FED2AA"/>
<path d="M134.143 1.06887C129.887 7.70863 128.427 11.9339 121.374 11.9339C110.024 11.9339 105.059 8.88032 105.059 2.87972C105.059 -3.12089 115.741 -14.0215 122.793 -14.0215C129.845 -14.0215 139.819 -7.78414 134.143 1.06887Z" fill="#FED2AA"/>
<path d="M79.896 21.757C78.9231 24.9441 78.5893 26.9723 76.9774 26.9723C74.3831 26.9723 73.248 25.5065 73.248 22.6262C73.248 19.746 75.6898 14.5137 77.3017 14.5137C78.9136 14.5137 81.1932 17.5076 79.896 21.757Z" fill="#FED2AA"/>
<path d="M148.127 44.6357C148.127 47.7504 147.209 48.2695 146.076 48.2695C144.944 48.2695 142.854 47.1617 142.854 45.1548C142.854 43.148 144.944 41.002 146.076 41.002C147.209 41.002 148.127 42.0402 148.127 44.6357Z" fill="#FED2AA"/>
<path d="M220.636 93.041C148.351 29.7273 206 -8.01131 243.86 -18.968C264.666 -27.7356 280.766 -4.107 286.215 8.80471C312.82 128.041 253.582 114.639 220.636 93.041Z" fill="white" fill-opacity="0.5"/>
<path d="M193.654 33.6737C194.917 35.7836 196.991 35.8247 198.286 33.7656C199.58 31.7064 199.606 28.3267 198.342 26.2168C197.079 24.1069 195.005 24.0658 193.71 26.125C192.416 28.1841 192.39 31.5639 193.654 33.6737Z" fill="#FED2AA"/>
<path d="M199.111 55.5487C200.374 57.6586 202.448 57.6997 203.743 55.6406C205.037 53.5814 205.063 50.2017 203.799 48.0918C202.536 45.9819 200.462 45.9408 199.167 48C197.873 50.0591 197.847 53.4388 199.111 55.5487Z" fill="#FED2AA"/>
<path d="M214.322 75.7207C215.585 77.8306 217.659 77.8717 218.954 75.8125C220.248 73.7533 220.274 70.3736 219.01 68.2637C217.747 66.1538 215.673 66.1127 214.378 68.1719C213.084 70.2311 213.058 73.6108 214.322 75.7207Z" fill="#FED2AA"/>
<path d="M261.754 85.0371L259.863 -4.6061C259.623 3.73434 254.495 20.4819 244.395 28.388C235.72 35.1742 232.783 35.5504 235.095 34.634M235.095 34.634C231.572 36.0318 224.48 38.3894 221.713 30.6221C218.944 22.8665 222.745 17.5857 224.989 15.9262C227.735 13.9197 234.045 11.9543 237.312 20.1538C240.578 28.3529 237.197 33.219 235.095 34.634Z" stroke="#FFEBD5" stroke-width="10" stroke-linecap="round"/>
</g>
</g>
<path d="M-18.4438 104.355C-60.1358 16.1498 2.85712 8.39109 39.5657 15.536C60.6645 17.0314 66.739 45.1105 67.138 58.9643C50.1451 176.351 3.00572 138.132 -18.4438 104.355Z" fill="white" fill-opacity="0.5"/>
<path d="M21.334 116.092L49.4063 35.9065C46.4367 43.1808 36.4804 55.7102 25.1785 58.1907C15.4733 60.3176 12.8239 59.3371 15.1151 59.56M15.1151 59.56C11.6237 59.2218 4.74612 58.1367 4.94065 50.0247C5.12975 41.9223 10.1462 38.948 12.6251 38.4829C15.6501 37.9349 21.7257 39.0173 21.8179 47.7354C21.9094 56.4529 17.3904 59.2475 15.1151 59.56Z" stroke="#FFEBD5" stroke-width="10" stroke-linecap="round"/>
<path d="M99.964 52.9297H109.736V56.0097H99.964V52.9297ZM100.272 63.5137H96.632V43.9137H110.94V46.9657H100.272V63.5137ZM114.46 63.5137V43.9137H122.524C124.26 43.9137 125.744 44.1937 126.976 44.7537C128.227 45.3137 129.188 46.1163 129.86 47.1617C130.532 48.207 130.868 49.4483 130.868 50.8857C130.868 52.323 130.532 53.5643 129.86 54.6097C129.188 55.6363 128.227 56.4297 126.976 56.9897C125.744 57.531 124.26 57.8017 122.524 57.8017H116.476L118.1 56.1497V63.5137H114.46ZM127.284 63.5137L122.328 56.4017H126.22L131.204 63.5137H127.284ZM118.1 56.5417L116.476 54.8057H122.356C123.961 54.8057 125.165 54.4603 125.968 53.7697C126.789 53.079 127.2 52.1177 127.2 50.8857C127.2 49.635 126.789 48.6737 125.968 48.0017C125.165 47.3297 123.961 46.9937 122.356 46.9937H116.476L118.1 45.2017V56.5417ZM138.301 52.0617H148.045V55.0577H138.301V52.0617ZM138.581 60.4617H149.641V63.5137H134.941V43.9137H149.249V46.9657H138.581V60.4617ZM157.058 52.0617H166.802V55.0577H157.058V52.0617ZM157.338 60.4617H168.398V63.5137H153.698V43.9137H168.006V46.9657H157.338V60.4617Z" fill="#59371D"/>
<rect x="63" y="94.5137" width="138" height="40" rx="20" fill="#6F219E"/>
<path d="M95.0547 115.74H97.3906C97.3438 116.506 97.1328 117.186 96.7578 117.779C96.388 118.373 95.8698 118.837 95.2031 119.17C94.5417 119.503 93.7448 119.67 92.8125 119.67C92.0833 119.67 91.4297 119.545 90.8516 119.295C90.2734 119.04 89.7786 118.675 89.3672 118.201C88.9609 117.727 88.651 117.154 88.4375 116.482C88.224 115.811 88.1172 115.058 88.1172 114.225V113.436C88.1172 112.602 88.2266 111.85 88.4453 111.178C88.6693 110.501 88.987 109.925 89.3984 109.451C89.8151 108.977 90.3125 108.613 90.8906 108.357C91.4688 108.102 92.1146 107.975 92.8281 107.975C93.776 107.975 94.5755 108.146 95.2266 108.49C95.8828 108.834 96.3906 109.308 96.75 109.912C97.1146 110.516 97.3333 111.204 97.4062 111.975H95.0625C95.0365 111.516 94.9453 111.128 94.7891 110.811C94.6328 110.488 94.3958 110.245 94.0781 110.084C93.7656 109.917 93.349 109.834 92.8281 109.834C92.4375 109.834 92.0964 109.907 91.8047 110.053C91.513 110.199 91.2682 110.42 91.0703 110.717C90.8724 111.014 90.724 111.389 90.625 111.842C90.5312 112.29 90.4844 112.816 90.4844 113.42V114.225C90.4844 114.813 90.5286 115.331 90.6172 115.779C90.7057 116.222 90.8411 116.597 91.0234 116.904C91.2109 117.206 91.4505 117.436 91.7422 117.592C92.0391 117.743 92.3958 117.818 92.8125 117.818C93.3021 117.818 93.7057 117.74 94.0234 117.584C94.3411 117.428 94.5833 117.196 94.75 116.889C94.9219 116.581 95.0234 116.199 95.0547 115.74ZM100.984 107.514V119.514H98.7344V107.514H100.984ZM100.664 114.99H100.047C100.052 114.402 100.13 113.86 100.281 113.365C100.432 112.865 100.648 112.433 100.93 112.068C101.211 111.699 101.547 111.412 101.938 111.209C102.333 111.006 102.771 110.904 103.25 110.904C103.667 110.904 104.044 110.964 104.383 111.084C104.727 111.199 105.021 111.386 105.266 111.646C105.516 111.902 105.708 112.238 105.844 112.654C105.979 113.071 106.047 113.576 106.047 114.17V119.514H103.781V114.154C103.781 113.779 103.727 113.485 103.617 113.271C103.513 113.053 103.359 112.899 103.156 112.811C102.958 112.717 102.714 112.67 102.422 112.67C102.099 112.67 101.823 112.73 101.594 112.85C101.37 112.969 101.19 113.136 101.055 113.35C100.919 113.558 100.82 113.803 100.758 114.084C100.695 114.365 100.664 114.667 100.664 114.99ZM107.398 115.373V115.209C107.398 114.589 107.487 114.019 107.664 113.498C107.841 112.972 108.099 112.516 108.438 112.131C108.776 111.745 109.193 111.446 109.688 111.232C110.182 111.014 110.75 110.904 111.391 110.904C112.031 110.904 112.602 111.014 113.102 111.232C113.602 111.446 114.021 111.745 114.359 112.131C114.703 112.516 114.964 112.972 115.141 113.498C115.318 114.019 115.406 114.589 115.406 115.209V115.373C115.406 115.988 115.318 116.558 115.141 117.084C114.964 117.605 114.703 118.061 114.359 118.451C114.021 118.837 113.604 119.136 113.109 119.35C112.615 119.563 112.047 119.67 111.406 119.67C110.766 119.67 110.195 119.563 109.695 119.35C109.201 119.136 108.781 118.837 108.438 118.451C108.099 118.061 107.841 117.605 107.664 117.084C107.487 116.558 107.398 115.988 107.398 115.373ZM109.648 115.209V115.373C109.648 115.727 109.68 116.058 109.742 116.365C109.805 116.673 109.904 116.943 110.039 117.178C110.18 117.407 110.362 117.587 110.586 117.717C110.81 117.847 111.083 117.912 111.406 117.912C111.719 117.912 111.987 117.847 112.211 117.717C112.435 117.587 112.615 117.407 112.75 117.178C112.885 116.943 112.984 116.673 113.047 116.365C113.115 116.058 113.148 115.727 113.148 115.373V115.209C113.148 114.865 113.115 114.542 113.047 114.24C112.984 113.933 112.883 113.662 112.742 113.428C112.607 113.188 112.427 113.001 112.203 112.865C111.979 112.73 111.708 112.662 111.391 112.662C111.073 112.662 110.802 112.73 110.578 112.865C110.359 113.001 110.18 113.188 110.039 113.428C109.904 113.662 109.805 113.933 109.742 114.24C109.68 114.542 109.648 114.865 109.648 115.209ZM116.43 115.373V115.209C116.43 114.589 116.518 114.019 116.695 113.498C116.872 112.972 117.13 112.516 117.469 112.131C117.807 111.745 118.224 111.446 118.719 111.232C119.214 111.014 119.781 110.904 120.422 110.904C121.062 110.904 121.633 111.014 122.133 111.232C122.633 111.446 123.052 111.745 123.391 112.131C123.734 112.516 123.995 112.972 124.172 113.498C124.349 114.019 124.438 114.589 124.438 115.209V115.373C124.438 115.988 124.349 116.558 124.172 117.084C123.995 117.605 123.734 118.061 123.391 118.451C123.052 118.837 122.635 119.136 122.141 119.35C121.646 119.563 121.078 119.67 120.438 119.67C119.797 119.67 119.227 119.563 118.727 119.35C118.232 119.136 117.812 118.837 117.469 118.451C117.13 118.061 116.872 117.605 116.695 117.084C116.518 116.558 116.43 115.988 116.43 115.373ZM118.68 115.209V115.373C118.68 115.727 118.711 116.058 118.773 116.365C118.836 116.673 118.935 116.943 119.07 117.178C119.211 117.407 119.393 117.587 119.617 117.717C119.841 117.847 120.115 117.912 120.438 117.912C120.75 117.912 121.018 117.847 121.242 117.717C121.466 117.587 121.646 117.407 121.781 117.178C121.917 116.943 122.016 116.673 122.078 116.365C122.146 116.058 122.18 115.727 122.18 115.373V115.209C122.18 114.865 122.146 114.542 122.078 114.24C122.016 113.933 121.914 113.662 121.773 113.428C121.638 113.188 121.458 113.001 121.234 112.865C121.01 112.73 120.74 112.662 120.422 112.662C120.104 112.662 119.833 112.73 119.609 112.865C119.391 113.001 119.211 113.188 119.07 113.428C118.935 113.662 118.836 113.933 118.773 114.24C118.711 114.542 118.68 114.865 118.68 115.209ZM130.391 117.178C130.391 117.016 130.344 116.87 130.25 116.74C130.156 116.61 129.982 116.49 129.727 116.381C129.477 116.266 129.115 116.162 128.641 116.068C128.214 115.975 127.815 115.857 127.445 115.717C127.081 115.571 126.763 115.396 126.492 115.193C126.227 114.99 126.018 114.751 125.867 114.475C125.716 114.193 125.641 113.873 125.641 113.514C125.641 113.16 125.716 112.826 125.867 112.514C126.023 112.201 126.245 111.925 126.531 111.686C126.823 111.441 127.177 111.251 127.594 111.115C128.016 110.975 128.49 110.904 129.016 110.904C129.75 110.904 130.38 111.021 130.906 111.256C131.438 111.49 131.844 111.813 132.125 112.225C132.411 112.631 132.555 113.094 132.555 113.615H130.305C130.305 113.396 130.258 113.201 130.164 113.029C130.076 112.852 129.935 112.714 129.742 112.615C129.555 112.511 129.31 112.459 129.008 112.459C128.758 112.459 128.542 112.503 128.359 112.592C128.177 112.675 128.036 112.79 127.938 112.936C127.844 113.076 127.797 113.232 127.797 113.404C127.797 113.535 127.823 113.652 127.875 113.756C127.932 113.855 128.023 113.946 128.148 114.029C128.273 114.113 128.435 114.191 128.633 114.264C128.836 114.331 129.086 114.394 129.383 114.451C129.992 114.576 130.536 114.74 131.016 114.943C131.495 115.141 131.875 115.412 132.156 115.756C132.438 116.094 132.578 116.54 132.578 117.092C132.578 117.467 132.495 117.811 132.328 118.123C132.161 118.436 131.922 118.709 131.609 118.943C131.297 119.173 130.922 119.352 130.484 119.482C130.052 119.607 129.565 119.67 129.023 119.67C128.237 119.67 127.57 119.529 127.023 119.248C126.482 118.967 126.07 118.61 125.789 118.178C125.513 117.74 125.375 117.292 125.375 116.834H127.508C127.518 117.141 127.596 117.389 127.742 117.576C127.893 117.764 128.083 117.899 128.312 117.982C128.547 118.066 128.799 118.107 129.07 118.107C129.362 118.107 129.604 118.068 129.797 117.99C129.99 117.907 130.135 117.798 130.234 117.662C130.339 117.521 130.391 117.36 130.391 117.178ZM137.93 119.67C137.273 119.67 136.685 119.566 136.164 119.357C135.643 119.144 135.201 118.85 134.836 118.475C134.477 118.1 134.201 117.665 134.008 117.17C133.815 116.67 133.719 116.139 133.719 115.576V115.264C133.719 114.623 133.81 114.037 133.992 113.506C134.174 112.975 134.435 112.514 134.773 112.123C135.117 111.732 135.534 111.433 136.023 111.225C136.513 111.011 137.065 110.904 137.68 110.904C138.279 110.904 138.81 111.003 139.273 111.201C139.737 111.399 140.125 111.68 140.438 112.045C140.755 112.41 140.995 112.847 141.156 113.357C141.318 113.863 141.398 114.425 141.398 115.045V115.982H134.68V114.482H139.188V114.311C139.188 113.998 139.13 113.719 139.016 113.475C138.906 113.225 138.74 113.027 138.516 112.881C138.292 112.735 138.005 112.662 137.656 112.662C137.359 112.662 137.104 112.727 136.891 112.857C136.677 112.988 136.503 113.17 136.367 113.404C136.237 113.639 136.138 113.915 136.07 114.232C136.008 114.545 135.977 114.889 135.977 115.264V115.576C135.977 115.915 136.023 116.227 136.117 116.514C136.216 116.8 136.354 117.048 136.531 117.256C136.714 117.464 136.932 117.626 137.188 117.74C137.448 117.855 137.742 117.912 138.07 117.912C138.477 117.912 138.854 117.834 139.203 117.678C139.557 117.516 139.862 117.274 140.117 116.951L141.211 118.139C141.034 118.394 140.792 118.639 140.484 118.873C140.182 119.107 139.818 119.3 139.391 119.451C138.964 119.597 138.477 119.67 137.93 119.67ZM148.914 112.686V122.764H146.664V111.061H148.75L148.914 112.686ZM154.266 115.193V115.357C154.266 115.972 154.193 116.542 154.047 117.068C153.906 117.594 153.698 118.053 153.422 118.443C153.146 118.829 152.802 119.131 152.391 119.35C151.984 119.563 151.516 119.67 150.984 119.67C150.469 119.67 150.021 119.566 149.641 119.357C149.26 119.149 148.94 118.857 148.68 118.482C148.424 118.102 148.219 117.662 148.062 117.162C147.906 116.662 147.786 116.126 147.703 115.553V115.123C147.786 114.508 147.906 113.946 148.062 113.436C148.219 112.92 148.424 112.475 148.68 112.1C148.94 111.719 149.258 111.425 149.633 111.217C150.013 111.008 150.458 110.904 150.969 110.904C151.505 110.904 151.977 111.006 152.383 111.209C152.794 111.412 153.138 111.704 153.414 112.084C153.695 112.464 153.906 112.917 154.047 113.443C154.193 113.969 154.266 114.553 154.266 115.193ZM152.008 115.357V115.193C152.008 114.834 151.977 114.503 151.914 114.201C151.857 113.894 151.763 113.626 151.633 113.396C151.508 113.167 151.341 112.99 151.133 112.865C150.93 112.735 150.682 112.67 150.391 112.67C150.083 112.67 149.82 112.719 149.602 112.818C149.388 112.917 149.214 113.061 149.078 113.248C148.943 113.436 148.841 113.66 148.773 113.92C148.706 114.18 148.664 114.475 148.648 114.803V115.889C148.674 116.274 148.747 116.62 148.867 116.928C148.987 117.23 149.172 117.469 149.422 117.646C149.672 117.824 150 117.912 150.406 117.912C150.703 117.912 150.953 117.847 151.156 117.717C151.359 117.581 151.523 117.396 151.648 117.162C151.779 116.928 151.87 116.657 151.922 116.35C151.979 116.042 152.008 115.712 152.008 115.357ZM158.039 107.514V119.514H155.781V107.514H158.039ZM164.461 117.607V113.842C164.461 113.571 164.417 113.339 164.328 113.146C164.24 112.949 164.102 112.795 163.914 112.686C163.732 112.576 163.495 112.521 163.203 112.521C162.953 112.521 162.737 112.566 162.555 112.654C162.372 112.738 162.232 112.86 162.133 113.021C162.034 113.178 161.984 113.363 161.984 113.576H159.734C159.734 113.217 159.818 112.876 159.984 112.553C160.151 112.23 160.393 111.946 160.711 111.701C161.029 111.451 161.406 111.256 161.844 111.115C162.286 110.975 162.781 110.904 163.328 110.904C163.984 110.904 164.568 111.014 165.078 111.232C165.589 111.451 165.99 111.779 166.281 112.217C166.578 112.654 166.727 113.201 166.727 113.857V117.475C166.727 117.938 166.755 118.318 166.812 118.615C166.87 118.907 166.953 119.162 167.062 119.381V119.514H164.789C164.68 119.285 164.596 118.998 164.539 118.654C164.487 118.305 164.461 117.956 164.461 117.607ZM164.758 114.365L164.773 115.639H163.516C163.219 115.639 162.961 115.673 162.742 115.74C162.523 115.808 162.344 115.904 162.203 116.029C162.062 116.149 161.958 116.29 161.891 116.451C161.828 116.613 161.797 116.79 161.797 116.982C161.797 117.175 161.841 117.35 161.93 117.506C162.018 117.657 162.146 117.777 162.312 117.865C162.479 117.949 162.674 117.99 162.898 117.99C163.237 117.99 163.531 117.923 163.781 117.787C164.031 117.652 164.224 117.485 164.359 117.287C164.5 117.089 164.573 116.902 164.578 116.725L165.172 117.678C165.089 117.891 164.974 118.113 164.828 118.342C164.688 118.571 164.508 118.787 164.289 118.99C164.07 119.188 163.807 119.352 163.5 119.482C163.193 119.607 162.828 119.67 162.406 119.67C161.87 119.67 161.383 119.563 160.945 119.35C160.513 119.131 160.169 118.831 159.914 118.451C159.664 118.066 159.539 117.628 159.539 117.139C159.539 116.696 159.622 116.303 159.789 115.959C159.956 115.615 160.201 115.326 160.523 115.092C160.852 114.852 161.26 114.673 161.75 114.553C162.24 114.428 162.807 114.365 163.453 114.365H164.758ZM170.664 112.865V119.514H168.414V111.061H170.523L170.664 112.865ZM170.336 114.99H169.727C169.727 114.365 169.807 113.803 169.969 113.303C170.13 112.798 170.357 112.368 170.648 112.014C170.94 111.654 171.286 111.381 171.688 111.193C172.094 111.001 172.547 110.904 173.047 110.904C173.443 110.904 173.805 110.962 174.133 111.076C174.461 111.191 174.742 111.373 174.977 111.623C175.216 111.873 175.398 112.204 175.523 112.615C175.654 113.027 175.719 113.529 175.719 114.123V119.514H173.453V114.115C173.453 113.74 173.401 113.449 173.297 113.24C173.193 113.032 173.039 112.886 172.836 112.803C172.638 112.714 172.393 112.67 172.102 112.67C171.799 112.67 171.536 112.73 171.312 112.85C171.094 112.969 170.911 113.136 170.766 113.35C170.625 113.558 170.518 113.803 170.445 114.084C170.372 114.365 170.336 114.667 170.336 114.99Z" fill="white"/>
</g>
</svg>
