<svg width="264" height="53" viewBox="0 0 264 53" fill="none" xmlns="http://www.w3.org/2000/svg">
<path d="M12 1.51367H252C258.075 1.51367 263 6.43854 263 12.5137V51.5137H1V12.5137C1 6.43854 5.92487 1.51367 12 1.51367Z" fill="#C89C2A"/>
<path d="M12 1.51367H252C258.075 1.51367 263 6.43854 263 12.5137V51.5137H1V12.5137C1 6.43854 5.92487 1.51367 12 1.51367Z" stroke="#FCF0D8" stroke-width="2"/>
<path d="M22.2656 20.1152V31.5137H20.0156V22.709L17.3125 23.5684V21.7949L22.0234 20.1152H22.2656ZM31.75 20.1387L34.125 25.3262L36.5 20.1387H39.0547L35.3125 27.373V31.5137H32.9375V27.373L29.1875 20.1387H31.75ZM43.3281 31.6699C42.6719 31.6699 42.0833 31.5658 41.5625 31.3574C41.0417 31.1439 40.599 30.8496 40.2344 30.4746C39.875 30.0996 39.599 29.6647 39.4062 29.1699C39.2135 28.6699 39.1172 28.1387 39.1172 27.5762V27.2637C39.1172 26.623 39.2083 26.0371 39.3906 25.5059C39.5729 24.9746 39.8333 24.5137 40.1719 24.123C40.5156 23.7324 40.9323 23.4329 41.4219 23.2246C41.9115 23.0111 42.4635 22.9043 43.0781 22.9043C43.6771 22.9043 44.2083 23.0033 44.6719 23.2012C45.1354 23.3991 45.5234 23.6803 45.8359 24.0449C46.1536 24.4095 46.3932 24.847 46.5547 25.3574C46.7161 25.8626 46.7969 26.4251 46.7969 27.0449V27.9824H40.0781V26.4824H44.5859V26.3105C44.5859 25.998 44.5286 25.7194 44.4141 25.4746C44.3047 25.2246 44.138 25.0267 43.9141 24.8809C43.6901 24.735 43.4036 24.6621 43.0547 24.6621C42.7578 24.6621 42.5026 24.7272 42.2891 24.8574C42.0755 24.9876 41.901 25.1699 41.7656 25.4043C41.6354 25.6387 41.5365 25.9147 41.4688 26.2324C41.4062 26.5449 41.375 26.8887 41.375 27.2637V27.5762C41.375 27.9147 41.4219 28.2272 41.5156 28.5137C41.6146 28.8001 41.7526 29.0475 41.9297 29.2559C42.112 29.4642 42.3307 29.6257 42.5859 29.7402C42.8464 29.8548 43.1406 29.9121 43.4688 29.9121C43.875 29.9121 44.2526 29.834 44.6016 29.6777C44.9557 29.5163 45.2604 29.2741 45.5156 28.9512L46.6094 30.1387C46.4323 30.3939 46.1901 30.6387 45.8828 30.873C45.5807 31.1074 45.2161 31.3001 44.7891 31.4512C44.362 31.597 43.875 31.6699 43.3281 31.6699ZM52.6406 29.6074V25.8418C52.6406 25.571 52.5964 25.3392 52.5078 25.1465C52.4193 24.9486 52.2812 24.7949 52.0938 24.6855C51.9115 24.5762 51.6745 24.5215 51.3828 24.5215C51.1328 24.5215 50.9167 24.5658 50.7344 24.6543C50.5521 24.7376 50.4115 24.86 50.3125 25.0215C50.2135 25.1777 50.1641 25.3626 50.1641 25.5762H47.9141C47.9141 25.2168 47.9974 24.8757 48.1641 24.5527C48.3307 24.2298 48.5729 23.946 48.8906 23.7012C49.2083 23.4512 49.5859 23.2559 50.0234 23.1152C50.4661 22.9746 50.9609 22.9043 51.5078 22.9043C52.1641 22.9043 52.7474 23.0137 53.2578 23.2324C53.7682 23.4512 54.1693 23.7793 54.4609 24.2168C54.7578 24.6543 54.9062 25.2012 54.9062 25.8574V29.4746C54.9062 29.9382 54.9349 30.3184 54.9922 30.6152C55.0495 30.9069 55.1328 31.1621 55.2422 31.3809V31.5137H52.9688C52.8594 31.2845 52.776 30.998 52.7188 30.6543C52.6667 30.3053 52.6406 29.9564 52.6406 29.6074ZM52.9375 26.3652L52.9531 27.6387H51.6953C51.3984 27.6387 51.1406 27.6725 50.9219 27.7402C50.7031 27.8079 50.5234 27.9043 50.3828 28.0293C50.2422 28.1491 50.138 28.2897 50.0703 28.4512C50.0078 28.6126 49.9766 28.7897 49.9766 28.9824C49.9766 29.1751 50.0208 29.3496 50.1094 29.5059C50.1979 29.6569 50.3255 29.7767 50.4922 29.8652C50.6589 29.9486 50.8542 29.9902 51.0781 29.9902C51.4167 29.9902 51.7109 29.9225 51.9609 29.7871C52.2109 29.6517 52.4036 29.485 52.5391 29.2871C52.6797 29.0892 52.7526 28.9017 52.7578 28.7246L53.3516 29.6777C53.2682 29.8913 53.1536 30.1126 53.0078 30.3418C52.8672 30.571 52.6875 30.7871 52.4688 30.9902C52.25 31.1882 51.987 31.3522 51.6797 31.4824C51.3724 31.6074 51.0078 31.6699 50.5859 31.6699C50.0495 31.6699 49.5625 31.5632 49.125 31.3496C48.6927 31.1309 48.349 30.8314 48.0938 30.4512C47.8438 30.0658 47.7188 29.6283 47.7188 29.1387C47.7188 28.696 47.8021 28.3027 47.9688 27.959C48.1354 27.6152 48.3802 27.3262 48.7031 27.0918C49.0312 26.8522 49.4401 26.6725 49.9297 26.5527C50.4193 26.4277 50.987 26.3652 51.6328 26.3652H52.9375ZM58.8906 24.9043V31.5137H56.6406V23.0605H58.7578L58.8906 24.9043ZM61.4375 23.0059L61.3984 25.0918C61.2891 25.0762 61.1562 25.0632 61 25.0527C60.849 25.0371 60.7109 25.0293 60.5859 25.0293C60.2682 25.0293 59.9922 25.071 59.7578 25.1543C59.5286 25.2324 59.3359 25.3496 59.1797 25.5059C59.0286 25.6621 58.9141 25.8522 58.8359 26.0762C58.763 26.3001 58.7214 26.5553 58.7109 26.8418L58.2578 26.7012C58.2578 26.1543 58.3125 25.6517 58.4219 25.1934C58.5312 24.7298 58.6901 24.3262 58.8984 23.9824C59.112 23.6387 59.3724 23.373 59.6797 23.1855C59.987 22.998 60.3385 22.9043 60.7344 22.9043C60.8594 22.9043 60.987 22.9147 61.1172 22.9355C61.2474 22.9512 61.3542 22.9746 61.4375 23.0059Z" fill="#59371D"/>
<rect x="190" y="12.5137" width="58" height="28" rx="4" fill="#F8D867"/>
<path d="M202.096 27.4023H199.898V26.1367H202.096C202.455 26.1367 202.746 26.0781 202.969 25.9609C203.195 25.8398 203.361 25.6758 203.467 25.4688C203.572 25.2578 203.625 25.0176 203.625 24.748C203.625 24.4863 203.572 24.2422 203.467 24.0156C203.361 23.7891 203.195 23.6055 202.969 23.4648C202.746 23.3242 202.455 23.2539 202.096 23.2539H200.426V30.5137H198.814V21.9824H202.096C202.76 21.9824 203.326 22.1016 203.795 22.3398C204.268 22.5742 204.627 22.9004 204.873 23.3184C205.123 23.7324 205.248 24.2051 205.248 24.7363C205.248 25.2871 205.123 25.7617 204.873 26.1602C204.627 26.5586 204.268 26.8652 203.795 27.0801C203.326 27.2949 202.76 27.4023 202.096 27.4023ZM206.039 27.4082V27.2852C206.039 26.8203 206.105 26.3926 206.238 26.002C206.371 25.6074 206.564 25.2656 206.818 24.9766C207.072 24.6875 207.383 24.4629 207.75 24.3027C208.117 24.1387 208.535 24.0566 209.004 24.0566C209.48 24.0566 209.902 24.1387 210.27 24.3027C210.641 24.4629 210.953 24.6875 211.207 24.9766C211.461 25.2656 211.654 25.6074 211.787 26.002C211.92 26.3926 211.986 26.8203 211.986 27.2852V27.4082C211.986 27.8691 211.92 28.2969 211.787 28.6914C211.654 29.082 211.461 29.4238 211.207 29.7168C210.953 30.0059 210.643 30.2305 210.275 30.3906C209.908 30.5508 209.488 30.6309 209.016 30.6309C208.547 30.6309 208.127 30.5508 207.756 30.3906C207.385 30.2305 207.072 30.0059 206.818 29.7168C206.564 29.4238 206.371 29.082 206.238 28.6914C206.105 28.2969 206.039 27.8691 206.039 27.4082ZM207.586 27.2852V27.4082C207.586 27.6855 207.613 27.9453 207.668 28.1875C207.723 28.4297 207.807 28.6426 207.92 28.8262C208.033 29.0098 208.18 29.1543 208.359 29.2598C208.543 29.3613 208.762 29.4121 209.016 29.4121C209.266 29.4121 209.48 29.3613 209.66 29.2598C209.84 29.1543 209.986 29.0098 210.1 28.8262C210.217 28.6426 210.303 28.4297 210.357 28.1875C210.412 27.9453 210.439 27.6855 210.439 27.4082V27.2852C210.439 27.0117 210.412 26.7559 210.357 26.5176C210.303 26.2754 210.217 26.0625 210.1 25.8789C209.986 25.6914 209.838 25.5449 209.654 25.4395C209.475 25.3301 209.258 25.2754 209.004 25.2754C208.754 25.2754 208.539 25.3301 208.359 25.4395C208.18 25.5449 208.033 25.6914 207.92 25.8789C207.807 26.0625 207.723 26.2754 207.668 26.5176C207.613 26.7559 207.586 27.0117 207.586 27.2852ZM214.658 25.3926V32.9512H213.105V24.1738H214.541L214.658 25.3926ZM218.73 27.2793V27.4023C218.73 27.8633 218.676 28.291 218.566 28.6855C218.461 29.0762 218.305 29.418 218.098 29.7109C217.891 30 217.633 30.2266 217.324 30.3906C217.02 30.5508 216.668 30.6309 216.27 30.6309C215.879 30.6309 215.539 30.5566 215.25 30.4082C214.961 30.2559 214.717 30.041 214.518 29.7637C214.318 29.4863 214.158 29.1641 214.037 28.7969C213.92 28.4258 213.832 28.0215 213.773 27.584V27.1914C213.832 26.7266 213.92 26.3047 214.037 25.9258C214.158 25.543 214.318 25.2129 214.518 24.9355C214.717 24.6543 214.959 24.4375 215.244 24.2852C215.533 24.1328 215.871 24.0566 216.258 24.0566C216.66 24.0566 217.014 24.1328 217.318 24.2852C217.627 24.4375 217.887 24.6562 218.098 24.9414C218.309 25.2266 218.467 25.5664 218.572 25.9609C218.678 26.3555 218.73 26.7949 218.73 27.2793ZM217.178 27.4023V27.2793C217.178 26.998 217.152 26.7383 217.102 26.5C217.051 26.2578 216.973 26.0469 216.867 25.8672C216.762 25.6836 216.625 25.541 216.457 25.4395C216.289 25.3379 216.086 25.2871 215.848 25.2871C215.609 25.2871 215.404 25.3262 215.232 25.4043C215.061 25.4824 214.92 25.5938 214.811 25.7383C214.701 25.8828 214.615 26.0547 214.553 26.2539C214.494 26.4492 214.455 26.666 214.436 26.9043V27.877C214.471 28.166 214.539 28.4258 214.641 28.6562C214.742 28.8867 214.891 29.0703 215.086 29.207C215.285 29.3438 215.543 29.4121 215.859 29.4121C216.098 29.4121 216.301 29.3594 216.469 29.2539C216.637 29.1484 216.773 29.0039 216.879 28.8203C216.984 28.6328 217.061 28.418 217.107 28.1758C217.154 27.9336 217.178 27.6758 217.178 27.4023ZM223.635 29.0078V24.1738H225.193V30.5137H223.729L223.635 29.0078ZM223.834 27.6953L224.314 27.6836C224.314 28.1094 224.268 28.502 224.174 28.8613C224.08 29.2207 223.934 29.5332 223.734 29.7988C223.539 30.0605 223.291 30.2656 222.99 30.4141C222.689 30.5586 222.334 30.6309 221.924 30.6309C221.611 30.6309 221.326 30.5879 221.068 30.502C220.811 30.4121 220.588 30.2734 220.4 30.0859C220.217 29.8945 220.074 29.6504 219.973 29.3535C219.871 29.0527 219.82 28.6914 219.82 28.2695V24.1738H221.367V28.2812C221.367 28.4922 221.391 28.668 221.438 28.8086C221.488 28.9492 221.557 29.0645 221.643 29.1543C221.732 29.2402 221.836 29.3027 221.953 29.3418C222.074 29.377 222.203 29.3945 222.34 29.3945C222.715 29.3945 223.01 29.3203 223.225 29.1719C223.443 29.0195 223.6 28.8164 223.693 28.5625C223.787 28.3047 223.834 28.0156 223.834 27.6953ZM228.205 21.5137V30.5137H226.652V21.5137H228.205ZM233.174 29.166V26.2422C233.174 26.0273 233.137 25.8418 233.062 25.6855C232.988 25.5293 232.875 25.4082 232.723 25.3223C232.57 25.2363 232.377 25.1934 232.143 25.1934C231.936 25.1934 231.754 25.2285 231.598 25.2988C231.445 25.3691 231.328 25.4688 231.246 25.5977C231.164 25.7227 231.123 25.8672 231.123 26.0312H229.57C229.57 25.7695 229.633 25.5215 229.758 25.2871C229.883 25.0488 230.061 24.8379 230.291 24.6543C230.525 24.4668 230.805 24.3203 231.129 24.2148C231.457 24.1094 231.824 24.0566 232.23 24.0566C232.711 24.0566 233.139 24.1387 233.514 24.3027C233.893 24.4629 234.189 24.7051 234.404 25.0293C234.623 25.3535 234.732 25.7617 234.732 26.2539V29.0195C234.732 29.3359 234.752 29.6074 234.791 29.834C234.834 30.0566 234.896 30.25 234.979 30.4141V30.5137H233.402C233.328 30.3535 233.271 30.1504 233.232 29.9043C233.193 29.6543 233.174 29.4082 233.174 29.166ZM233.391 26.6523L233.402 27.5723H232.424C232.182 27.5723 231.969 27.5977 231.785 27.6484C231.602 27.6953 231.451 27.7656 231.334 27.8594C231.217 27.9492 231.129 28.0586 231.07 28.1875C231.012 28.3125 230.982 28.4551 230.982 28.6152C230.982 28.7715 231.018 28.9121 231.088 29.0371C231.162 29.1621 231.268 29.2617 231.404 29.3359C231.545 29.4062 231.709 29.4414 231.896 29.4414C232.17 29.4414 232.408 29.3867 232.611 29.2773C232.814 29.1641 232.973 29.0273 233.086 28.8672C233.199 28.707 233.26 28.5547 233.268 28.4102L233.713 29.0781C233.658 29.2383 233.576 29.4082 233.467 29.5879C233.357 29.7676 233.217 29.9355 233.045 30.0918C232.873 30.248 232.666 30.377 232.424 30.4785C232.182 30.5801 231.9 30.6309 231.58 30.6309C231.17 30.6309 230.803 30.5488 230.479 30.3848C230.154 30.2207 229.898 29.9961 229.711 29.7109C229.523 29.4258 229.43 29.1016 229.43 28.7383C229.43 28.4023 229.492 28.1055 229.617 27.8477C229.742 27.5898 229.928 27.373 230.174 27.1973C230.42 27.0176 230.725 26.8828 231.088 26.793C231.455 26.6992 231.875 26.6523 232.348 26.6523H233.391ZM237.674 25.4688V30.5137H236.127V24.1738H237.592L237.674 25.4688ZM239.602 24.1328L239.578 25.5742C239.492 25.5586 239.395 25.5469 239.285 25.5391C239.18 25.5312 239.08 25.5273 238.986 25.5273C238.748 25.5273 238.539 25.5605 238.359 25.627C238.18 25.6895 238.029 25.7812 237.908 25.9023C237.791 26.0234 237.701 26.1719 237.639 26.3477C237.576 26.5195 237.541 26.7148 237.533 26.9336L237.199 26.8926C237.199 26.4902 237.24 26.1172 237.322 25.7734C237.404 25.4297 237.523 25.1289 237.68 24.8711C237.836 24.6133 238.031 24.4141 238.266 24.2734C238.504 24.1289 238.777 24.0566 239.086 24.0566C239.172 24.0566 239.264 24.0645 239.361 24.0801C239.463 24.0918 239.543 24.1094 239.602 24.1328Z" fill="#3E200A"/>
</svg>
