<svg width="57" height="51" viewBox="0 0 57 51" fill="none" xmlns="http://www.w3.org/2000/svg">
<path d="M25.8019 2.00018L26.9758 5.39535L28.1497 8.79052C29.9853 14.0993 28.5821 15.2479 24.9486 19.1581C21.315 23.0683 17.5976 27.1364 16.1931 28.6817C14.8441 30.2539 12.1411 34.5058 12.1217 38.9355C12.1023 43.3653 13.1759 47.325 13.7152 48.7511" stroke="url(#paint0_linear_3924_37825)" stroke-width="3.29359" stroke-linecap="round"/>
<path d="M24.2652 32.204C13.7566 35.5525 12.2678 44.9352 12.8371 49.208C12.8742 49.5497 13.272 49.7984 13.5732 49.9257C13.6926 49.9761 13.8224 49.9928 13.9519 49.9928H55.1343C56.3953 50.0974 56.7106 48.99 56.7106 48.4232V8.06574C56.7106 7.9394 56.6937 7.81251 56.6521 7.69322C56.1077 6.13309 55.0733 6.62798 54.6088 7.09044L52.2383 9.805C52.0708 9.99677 51.8511 10.1371 51.6051 10.2026C47.4401 11.3124 45.3098 10.6069 44.757 10.0988L41.9153 7.26918C41.7967 7.1511 41.6572 7.05315 41.4987 6.99965C40.4261 6.63772 39.8506 7.13053 39.6116 7.59174C39.5194 7.76965 39.5262 7.97436 39.5542 8.17278C39.869 10.4051 39.3115 15.9798 38.9773 18.6008C38.4518 21.74 34.7738 28.8555 24.2652 32.204Z" fill="#E9BB17"/>
<path d="M21.697 48.1947V45.5777C22.8747 45.5777 22.8747 45.5777 22.8747 44.5309V39.2969H25.0991C25.0555 40.649 25.0991 43.583 25.0991 44.5309C25.0991 45.5777 25.0991 45.5777 26.1459 45.5777V48.1947H21.697Z" fill="#FEFCFF"/>
<path d="M27.2012 48.1947V45.5777C28.3788 45.5777 28.3788 45.5777 28.3788 44.4231V39.0352H30.6033C30.5597 40.427 30.6033 43.4473 30.6033 44.4231C30.6033 45.5777 30.6033 45.5777 31.6501 45.5777V48.1947H27.2012Z" fill="#FEFCFF"/>
<path d="M43.689 48.1947V45.316C44.6311 45.316 44.8666 45.316 44.8666 44.4231V39.0352H47.0911C47.0475 40.427 47.0911 43.4477 47.0911 44.4231C47.0911 45.4468 47.0911 45.316 48.1379 45.316V48.1947H43.689Z" fill="#FEFCFF"/>
<path d="M37.1418 48.1947H32.6929V45.5777C33.8705 45.5777 33.8705 45.7085 33.8705 44.7367V39.0352H37.1418V48.1947Z" fill="#FEFCFF"/>
<path d="M53.8959 48.1947H49.447V45.316C50.7555 45.316 50.6247 45.316 50.6247 44.5758V39.0352H53.8959V48.1947Z" fill="#FEFCFF"/>
<path d="M38.1876 48.1947H42.6365V45.316C41.4588 45.316 41.4588 45.316 41.4588 44.5758V39.0352H38.1876V48.1947Z" fill="#FEFCFF"/>
<path d="M20.3923 48.1948V45.5778C19.2146 45.5778 19.2146 45.4469 19.2146 44.4046V40.3438C17.121 41.7515 16.3359 46.1643 16.2051 48.1948H20.3923Z" fill="#FEFCFF"/>
<ellipse cx="44.7979" cy="15.8965" rx="3.35941" ry="3.35941" fill="white"/>
<ellipse cx="51.5115" cy="15.8965" rx="3.35941" ry="3.35941" fill="white"/>
<path d="M46.3037 16.203C46.4258 16.203 46.5262 16.3023 46.5107 16.4234C46.493 16.5615 46.4587 16.697 46.4085 16.8263C46.3317 17.024 46.2193 17.2035 46.0775 17.3548C45.9357 17.506 45.7673 17.626 45.5821 17.7078C45.3968 17.7897 45.1982 17.8318 44.9977 17.8318C44.7972 17.8318 44.5986 17.7897 44.4133 17.7078C44.2281 17.626 44.0597 17.506 43.918 17.3548C43.7762 17.2035 43.6637 17.024 43.5869 16.8263C43.5367 16.697 43.5024 16.5615 43.4847 16.4234C43.4692 16.3023 43.5696 16.203 43.6917 16.203C43.8137 16.203 43.9106 16.3027 43.9324 16.4228C43.9462 16.4991 43.9672 16.5738 43.9952 16.6459C44.0498 16.7864 44.1297 16.914 44.2304 17.0214C44.3312 17.1289 44.4508 17.2142 44.5825 17.2723C44.7141 17.3305 44.8552 17.3604 44.9977 17.3604C45.1402 17.3604 45.2813 17.3305 45.4129 17.2723C45.5446 17.2142 45.6642 17.1289 45.765 17.0214C45.8657 16.914 45.9457 16.7864 46.0002 16.6459C46.0282 16.5738 46.0492 16.4991 46.063 16.4228C46.0848 16.3027 46.1817 16.203 46.3037 16.203Z" fill="#292626"/>
<path d="M53.0176 16.203C53.1396 16.203 53.24 16.3023 53.2245 16.4234C53.2069 16.5615 53.1726 16.697 53.1223 16.8263C53.0456 17.024 52.9331 17.2035 52.7913 17.3548C52.6495 17.506 52.4812 17.626 52.2959 17.7078C52.1107 17.7897 51.9121 17.8318 51.7116 17.8318C51.511 17.8318 51.3125 17.7897 51.1272 17.7078C50.9419 17.626 50.7736 17.506 50.6318 17.3548C50.49 17.2035 50.3775 17.024 50.3008 16.8263C50.2506 16.697 50.2163 16.5615 50.1986 16.4234C50.1831 16.3023 50.2835 16.203 50.4055 16.203C50.5276 16.203 50.6245 16.3027 50.6462 16.4228C50.6601 16.4991 50.6811 16.5738 50.7091 16.6459C50.7636 16.7864 50.8436 16.914 50.9443 17.0214C51.0451 17.1289 51.1647 17.2142 51.2963 17.2723C51.428 17.3305 51.5691 17.3604 51.7116 17.3604C51.8541 17.3604 51.9952 17.3305 52.1268 17.2723C52.2585 17.2142 52.3781 17.1289 52.4788 17.0214C52.5796 16.914 52.6595 16.7864 52.714 16.6459C52.742 16.5738 52.7631 16.4991 52.7769 16.4228C52.7987 16.3027 52.8956 16.203 53.0176 16.203Z" fill="#292626"/>
<path d="M46.9788 20.5273C47.4199 21.0024 48.5465 21.6675 49.5238 20.5273" stroke="black" stroke-width="0.329359" stroke-linecap="round"/>
<path d="M40.3506 7.08984C40.1131 8.68471 40.2284 11.6912 42.5902 10.9582C44.952 10.2253 42.0812 8.07391 40.3506 7.08984Z" fill="#6F219E"/>
<path d="M56.0146 6.89308C56.3702 8.46585 56.4789 11.4726 54.0692 10.9174C51.6594 10.3623 54.3621 8.00322 56.0146 6.89308Z" fill="#6F219E"/>
<defs>
<linearGradient id="paint0_linear_3924_37825" x1="12.8813" y1="48.8283" x2="14.2047" y2="13.3" gradientUnits="userSpaceOnUse">
<stop stop-color="#E9BB17"/>
<stop offset="0.0001" stop-color="#CCA20F"/>
<stop offset="1" stop-color="#E9BB17"/>
</linearGradient>
</defs>
</svg>