<svg width="428" height="379" viewBox="0 0 428 379" fill="none" xmlns="http://www.w3.org/2000/svg">
<ellipse cx="214.001" cy="349.52" rx="117.911" ry="18.6492" fill="#F0EEEE"/>
<path d="M394.133 173.738C389.971 174.731 377.859 180.083 375.049 185.493C374.05 187.416 376.029 189.044 378.18 189.27C383.907 189.871 392.702 190.979 387.648 193.23C381.164 196.117 377.081 199.246 374.679 199.005" stroke="#F1DBFF" stroke-width="3.60952"/>
<path d="M33.1475 198.285C37.3096 199.278 49.4208 204.63 52.2315 210.041C53.2304 211.964 51.252 213.591 49.1002 213.816C43.3734 214.417 34.5781 215.526 39.6323 217.777C46.117 220.664 50.2 223.793 52.6018 223.552" stroke="#F1DBFF" stroke-width="3.60952"/>
<path d="M393.414 209.832C391.424 209.832 389.811 208.216 389.811 206.223C389.811 204.229 391.424 202.613 393.414 202.613C395.404 202.613 397.017 204.229 397.017 206.223C397.017 208.216 395.404 209.832 393.414 209.832Z" fill="#F1DBFF"/>
<path d="M33.8693 234.383C35.859 234.383 37.4719 232.767 37.4719 230.774C37.4719 228.78 35.859 227.164 33.8693 227.164C31.8796 227.164 30.2666 228.78 30.2666 230.774C30.2666 232.767 31.8796 234.383 33.8693 234.383Z" fill="#F1DBFF"/>
<path d="M402.78 219.219C385.487 219.219 378.282 220.663 376.841 221.384" stroke="#F1DBFF" stroke-width="3.60952"/>
<path d="M24.5029 243.766C41.7957 243.766 49.001 245.209 50.4421 245.931" stroke="#F1DBFF" stroke-width="3.60952"/>
<path d="M99.5484 257.024C82.248 203.102 144.442 160.789 174.719 147.191L180.984 144.053C180.984 137.777 159.963 109.492 193.828 97.2199C215.164 89.4876 222.649 92.8883 229.134 102.995L243.625 131.501L249.89 134.639C263.719 110.936 266.962 106.393 289.659 118.155C310.554 128.984 308.355 144.053 303.135 150.329L293.738 162.881C313.783 175.433 327.148 197.4 331.324 206.814C334.718 214.464 351.928 241.504 325.06 288.403C298.243 335.212 231.097 343.043 193.512 338.612C163.562 335.082 116.58 310.108 99.5484 257.024Z" fill="#E9BB17" stroke="#E9BB17" stroke-width="1.20317"/>
<path d="M212.448 303.827C144.796 301.316 108.299 260.546 95.7705 244.854C98.9025 273.097 110.526 325.469 177.995 338.345C258.933 353.791 289.568 334.187 322.073 297.55C347.129 269.308 344.418 230.975 336.066 214.238C324.582 244.573 280.102 306.337 212.448 303.827Z" fill="#DEB41D" stroke="#D9AF1C" stroke-width="0.240635"/>
<path d="M174.863 253.621C197.35 253.621 215.58 235.356 215.58 212.826C215.58 190.296 197.35 172.031 174.863 172.031C152.375 172.031 134.146 190.296 134.146 212.826C134.146 235.356 152.375 253.621 174.863 253.621Z" fill="white"/>
<path d="M256.296 253.621C278.784 253.621 297.014 235.356 297.014 212.826C297.014 190.296 278.784 172.031 256.296 172.031C233.809 172.031 215.579 190.296 215.579 212.826C215.579 235.356 233.809 253.621 256.296 253.621Z" fill="white"/>
<path d="M194.069 215.961C195.57 215.961 196.808 217.187 196.591 218.675C196.367 220.214 195.954 221.723 195.357 223.166C194.413 225.451 193.028 227.526 191.283 229.274C189.538 231.023 187.467 232.41 185.186 233.356C182.906 234.302 180.462 234.79 177.995 234.79C175.527 234.79 173.084 234.302 170.803 233.356C168.523 232.41 166.452 231.023 164.707 229.274C162.961 227.526 161.577 225.451 160.633 223.166C160.036 221.723 159.623 220.214 159.399 218.675C159.182 217.187 160.42 215.961 161.922 215.961C163.424 215.961 164.613 217.193 164.917 218.667C165.087 219.491 165.335 220.3 165.658 221.081C166.329 222.704 167.312 224.179 168.552 225.421C169.793 226.664 171.264 227.649 172.885 228.321C174.505 228.994 176.241 229.339 177.995 229.339C179.749 229.339 181.485 228.994 183.105 228.321C184.725 227.649 186.198 226.664 187.437 225.421C188.678 224.179 189.66 222.704 190.332 221.081C190.655 220.3 190.903 219.491 191.073 218.667C191.377 217.193 192.566 215.961 194.069 215.961Z" fill="#292626"/>
<path d="M275.501 215.961C277.004 215.961 278.241 217.187 278.025 218.675C277.801 220.214 277.388 221.723 276.791 223.166C275.846 225.451 274.462 227.526 272.717 229.274C270.972 231.023 268.9 232.41 266.62 233.356C264.34 234.302 261.896 234.79 259.429 234.79C256.961 234.79 254.517 234.302 252.237 233.356C249.957 232.41 247.885 231.023 246.14 229.274C244.396 227.526 243.011 225.451 242.067 223.166C241.471 221.723 241.057 220.214 240.832 218.675C240.616 217.187 241.854 215.961 243.356 215.961C244.857 215.961 246.047 217.193 246.352 218.667C246.52 219.491 246.768 220.3 247.091 221.081C247.762 222.704 248.747 224.179 249.986 225.421C251.227 226.664 252.698 227.649 254.318 228.321C255.939 228.994 257.675 229.339 259.429 229.339C261.183 229.339 262.919 228.994 264.539 228.321C266.159 227.649 267.632 226.664 268.871 225.421C270.112 224.179 271.095 222.704 271.766 221.081C272.089 220.3 272.337 219.491 272.507 218.667C272.811 217.193 274 215.961 275.501 215.961Z" fill="#292626"/>
<path d="M370.523 208.129L364.472 208.35L364.914 220.476L365.466 235.633L371.517 235.413C373.673 228.049 371.753 214.155 370.523 208.129Z" fill="#C5A5F3" stroke="#75C973" stroke-width="0.240635"/>
<path d="M64.1818 258.791L70.2334 258.569L69.7916 246.444L69.2392 231.285L63.1876 231.506C61.0322 238.871 62.9523 252.765 64.1818 258.791Z" fill="#C5A5F3" stroke="#75C973" stroke-width="0.240635"/>
<path d="M91.4638 203.457L100.714 280.22L76.8775 275.777C73.6575 271.278 67.4999 253.112 68.6297 216.434L80.0469 209.945L73.5073 145.096C109.608 101.576 212.65 34.5724 336.012 114.715L342.78 181.826L357.578 186.422C361.676 194.64 368.645 218.362 363.737 247.501L341.118 255.123L333.462 178.318L342.78 181.826L336.012 114.715C212.65 34.5724 109.608 101.576 73.5073 145.096L80.0469 209.945L91.4638 203.457Z" fill="#6F219E"/>
<path d="M80.0469 209.945L68.6297 216.434C67.4999 253.112 73.6575 271.278 76.8775 275.777L100.714 280.22L91.4638 203.457L80.0469 209.945ZM80.0469 209.945L73.5073 145.096C109.608 101.576 212.65 34.5724 336.012 114.715L342.78 181.826M342.78 181.826L333.462 178.318L341.118 255.123L363.737 247.501C368.645 218.362 361.676 194.64 357.578 186.422L342.78 181.826Z" stroke="#6F219E" stroke-width="1.20317"/>
<path d="M80.2072 273.441C76.6126 261.735 70.2333 234.465 73.4732 219.047" stroke="#C5A5F3" stroke-width="1.20317"/>
<path d="M352.899 189.504C356.077 201.768 361.419 230.242 357.364 246.027" stroke="#C5A5F3" stroke-width="1.20317"/>
<path d="M190.224 276.254C199.465 284.97 223.068 297.173 243.543 276.254" stroke="black" stroke-width="1.20317" stroke-linecap="round"/>
<path d="M52.1739 105.337C52.1739 104.708 51.8691 104.141 51.4399 103.827C50.9546 103.452 50.345 103.387 49.7956 103.574L19.8967 110.44C19.1628 110.689 18.6735 111.448 18.6735 112.202V135.02C17.1535 133.825 15.2605 133.131 13.191 133.131C8.12965 133.131 4.04688 137.349 4.04688 142.571C4.04688 147.793 8.12965 152.015 13.191 152.015C18.0679 152.015 22.0905 147.98 22.271 142.95V142.693V119.378L48.5162 113.773V142.407C46.9922 141.212 45.1032 140.523 43.0337 140.523C37.9724 140.523 33.8856 144.741 33.8856 149.962C33.8856 155.184 37.9724 159.402 43.0337 159.402C47.9106 159.402 51.9292 155.372 52.1097 150.342V150.085V105.337H52.1739Z" fill="#6F219E"/>
<path d="M226.635 6.67646C226.635 6.04824 226.33 5.4812 225.901 5.16709C225.416 4.79179 224.806 4.72652 224.257 4.91417L194.358 11.7797C193.624 12.0286 193.134 12.7874 193.134 13.542V36.3599C191.614 35.1646 189.721 34.4711 187.652 34.4711C182.591 34.4711 178.508 38.6892 178.508 43.9108C178.508 49.1324 182.591 53.3545 187.652 53.3545C192.529 53.3545 196.551 49.32 196.732 44.2901V44.0332V20.7176L222.977 15.1126V43.7473C221.453 42.552 219.564 41.8626 217.495 41.8626C212.433 41.8626 208.347 46.0807 208.347 51.3022C208.347 56.5238 212.433 60.7419 217.495 60.7419C222.372 60.7419 226.39 56.7115 226.571 51.6816V51.4246V6.67646H226.635Z" fill="#6F219E"/>
<path d="M423.955 74.0554C423.955 73.4271 423.65 72.8601 423.221 72.546C422.736 72.1707 422.126 72.1054 421.577 72.2931L391.678 79.1587C390.944 79.4075 390.455 80.1663 390.455 80.9209V103.739C388.935 102.544 387.042 101.85 384.972 101.85C379.911 101.85 375.828 106.068 375.828 111.29C375.828 116.511 379.911 120.733 384.972 120.733C389.849 120.733 393.872 116.699 394.052 111.669V111.412V88.0965L420.297 82.4915V111.126C418.773 109.931 416.884 109.241 414.815 109.241C409.754 109.241 405.667 113.46 405.667 118.681C405.667 123.903 409.754 128.121 414.815 128.121C419.692 128.121 423.71 124.09 423.891 119.061V118.804V74.0554H423.955Z" fill="#6F219E"/>
</svg>