<svg width="79" height="87" viewBox="0 0 79 87" fill="none" xmlns="http://www.w3.org/2000/svg">
<path d="M38.2361 80.3546C45.2251 79.5275 58.3753 75.7902 57.5913 67.3757C57.521 66.6177 56.9159 66.0467 56.1852 65.8247C50.8394 64.235 43.682 60.1521 50.4987 54.0835C57.8415 47.5477 66.3913 47.3642 69.7466 48.0955" stroke="#F8D867" stroke-width="5"/>
<path d="M46.1014 23.9365C48.9889 24.2679 51.0753 26.7805 50.7616 29.5486C50.4479 32.3166 47.8528 34.2919 44.9653 33.9605C42.0778 33.629 39.9914 31.1164 40.3051 28.3484C40.6188 25.5803 43.2139 23.605 46.1014 23.9365Z" fill="#F8D867"/>
<path d="M17.237 8.45235C41.2474 11.211 51.4847 10.3053 53.6027 9.50453" stroke="#F8D867" stroke-width="5"/>
</svg>
