<svg width="228" height="148" viewBox="0 0 228 148" fill="none" xmlns="http://www.w3.org/2000/svg">
<path d="M71.567 169.921C71.7153 168.862 71.645 167.746 71.2954 166.616C69.7891 161.749 64.6259 160.661 61.0788 162.284L61.0699 162.288L61.0611 162.292C60.1342 162.721 59.267 163.346 58.5282 164.117L26.3513 60.3475L130.615 21.7083L130.617 21.7076C135.446 19.916 138.967 22.0744 139.95 25.2478L139.95 25.2496L166.176 109.827L168.387 116.956L174.114 112.199L177.195 109.64C177.197 109.639 177.198 109.637 177.2 109.636C178.935 108.203 180.833 106.984 182.878 106.046L182.881 106.045C191.177 102.232 198.902 103.887 203.353 108.719C202.391 108.783 201.447 109.018 200.593 109.412C197.286 110.932 194.749 114.944 196.046 119.129L196.048 119.137C196.502 120.59 197.282 121.708 198.249 122.517C196.967 123.332 195.919 124.485 195.232 125.826L195.226 125.839L195.219 125.852C194.461 127.353 194.179 129.188 194.493 130.93C192.79 130.541 190.967 130.738 189.443 131.435L189.434 131.439L189.425 131.443C188.118 132.047 186.93 133.043 186.053 134.285C185.303 133.295 184.244 132.471 182.839 131.949L182.838 131.949C181.754 131.547 180.65 131.427 179.598 131.52C179.746 130.46 179.675 129.342 179.326 128.215C177.82 123.347 172.657 122.26 169.11 123.883L169.101 123.887L169.092 123.891C168.165 124.319 167.298 124.945 166.559 125.716L141.681 45.4871L140.119 40.4501L140.041 40.4791C139.983 40.1088 139.897 39.7354 139.781 39.3606M71.567 169.921L135.02 40.8549M71.567 169.921C72.6197 169.828 73.7221 169.948 74.8057 170.35L71.567 169.921ZM139.781 39.3606C139.78 39.3589 139.78 39.3572 139.779 39.3555L135.02 40.8549M139.781 39.3606C139.781 39.3623 139.782 39.364 139.782 39.3658L135.02 40.8549M139.781 39.3606C139.141 37.2992 137.846 35.9165 136.295 35.131M135.02 40.8549C134.6 39.4981 133.079 38.9339 131.631 39.5963C131.331 39.735 131.057 39.9163 130.815 40.1288C130.679 40.2282 130.565 40.3451 130.473 40.474C129.788 41.2685 129.485 42.3377 129.773 43.269C129.874 43.5965 130.04 43.878 130.253 44.1074L125.456 45.886M136.295 35.131C135.425 36.9544 133.91 38.4282 132.19 39.2235L132.181 39.2275L132.172 39.2316C131.978 39.3204 131.779 39.4011 131.576 39.4735C131.576 39.4736 131.576 39.4736 131.575 39.4737C129.643 40.1629 127.35 40.1002 125.443 39.1343M136.295 35.131C137.09 33.4646 137.346 31.5063 136.727 29.5071C135.221 24.6396 130.057 23.5523 126.51 25.175L126.502 25.1789L126.494 25.1828C123.201 26.7041 120.66 30.7126 121.956 34.8995C122.594 36.9638 123.891 38.3482 125.443 39.1343M136.295 35.131C134.388 34.165 132.095 34.1023 130.162 34.7915C130.162 34.7916 130.162 34.7917 130.162 34.7917C129.959 34.8641 129.76 34.9448 129.566 35.0337L129.557 35.0375L129.549 35.0414C127.828 35.8364 126.313 37.3105 125.443 39.1343M125.443 39.1343C124.648 40.8008 124.392 42.7592 125.011 44.7582C125.135 45.1595 125.284 45.5353 125.456 45.886M125.456 45.886L51.2063 73.4118M125.456 45.886C126.432 47.8852 128.124 49.073 129.983 49.5505L69.1694 148.037M134.326 43.6494C134.235 43.7765 134.123 43.8923 133.988 43.9912C133.743 44.2057 133.466 44.3885 133.162 44.5277M134.326 43.6494L137.183 47.8275C137.195 47.817 137.207 47.8064 137.219 47.7958L136.92 46.979L134.614 47.7016L133.162 44.5277M134.326 43.6494C134.661 43.2615 134.904 42.8079 135.031 42.3364L134.326 43.6494ZM133.162 44.5277L134.601 47.7057L133.162 44.5277ZM69.1694 148.037C70.9043 146.605 72.8025 145.386 74.8476 144.447L74.8499 144.446C83.1468 140.633 90.8706 142.286 95.3219 147.12C94.3608 147.184 93.4185 147.419 92.5658 147.812C89.2554 149.331 86.7194 153.344 88.0143 157.528L88.0175 157.538C88.4719 158.996 89.2554 160.116 90.226 160.925C88.949 161.729 87.9067 162.865 87.2115 164.207L87.1972 164.235L87.1834 164.263C86.4293 165.763 86.1541 167.595 86.4704 169.333C84.7651 168.942 82.9387 169.138 81.4118 169.837L81.4033 169.84L81.3949 169.844C80.0881 170.448 78.8998 171.444 78.0226 172.686C77.2727 171.695 76.2132 170.872 74.8066 170.35L69.1694 148.037ZM69.1694 148.037C69.1676 148.039 69.1658 148.04 69.164 148.042L66.0836 150.6L60.3565 155.357L58.1459 148.228L38.0336 83.3649L36.6236 78.8178L36.7978 78.7533C36.5252 78.2808 36.2953 77.757 36.1168 77.1801C35.4975 75.1802 35.7538 73.2215 36.5491 71.5551C34.9973 70.7681 33.7017 69.384 33.06 67.3298L33.0561 67.3172C31.7619 63.1352 34.295 59.1249 37.6013 57.6037M37.6013 57.6037C37.6007 57.604 37.6 57.6043 37.5993 57.6046L39.6819 62.1595L37.6162 57.5968C37.6112 57.5991 37.6063 57.6014 37.6013 57.6037ZM37.6013 57.6037C41.1718 55.9554 46.3166 57.075 47.8289 61.9163L47.8328 61.929C48.4511 63.9269 48.1959 65.8856 47.4001 67.5525M47.4001 67.5525C48.9525 68.3386 50.2493 69.7232 50.8882 71.7877C51.0572 72.3338 51.161 72.8769 51.2063 73.4118M47.4001 67.5525C45.4922 66.5864 43.1983 66.5242 41.2654 67.2144M47.4001 67.5525C46.5303 69.3746 45.0145 70.848 43.2877 71.6425C43.2884 71.6422 43.289 71.6419 43.2896 71.6416L41.2654 67.2144M51.2063 73.4118L45.89 75.3826M51.2063 73.4118L45.89 75.3826M45.89 75.3826C46.2311 74.7147 46.3373 73.9588 46.1263 73.2768C45.7064 71.92 44.1852 71.3557 42.7373 72.0181C42.4438 72.1538 42.1755 72.33 41.9377 72.5362M45.89 75.3826L41.9377 72.5362M41.5484 72.9319C40.8845 73.7227 40.5944 74.7738 40.8787 75.6909C41.0434 76.2229 41.3773 76.6331 41.8097 76.8952L41.5484 72.9319ZM41.5484 72.9319C41.6487 72.7826 41.7774 72.6478 41.9377 72.5362M41.5484 72.9319L41.9377 72.5362M41.2654 67.2144C41.2652 67.2145 41.2651 67.2145 41.2649 67.2146L41.2654 67.2144ZM8.50986 55.8366L7.09998 51.2896L11.5454 49.6415L126.092 7.17456L126.093 7.17428C137.972 2.77223 150.95 7.68117 154.725 19.8566L150.126 21.2973L154.725 19.8567L177.104 92.0412C177.135 92.0267 177.166 92.0124 177.197 91.9982L177.204 91.9949C195.229 83.7141 215.594 90.4606 221.315 108.908C226.829 126.686 215.936 147.177 198.168 155.347C180.147 163.633 159.777 156.881 154.06 138.439C154.06 138.438 154.06 138.438 154.06 138.438L129.882 60.4597L55.8795 87.8809L69.0742 130.442C69.1049 130.428 69.1357 130.413 69.1664 130.399L69.1737 130.396C87.1982 122.115 107.563 128.862 113.285 147.309C118.798 165.088 107.905 185.578 90.1376 193.748C72.1167 202.034 51.7459 195.282 46.0297 176.839C46.0296 176.839 46.0295 176.839 46.0295 176.839L8.50986 55.8366ZM63.9892 177.025C64.0346 177.075 64.0803 177.124 64.1264 177.172C64.1326 177.119 64.1394 177.066 64.1466 177.013C64.0942 177.018 64.0417 177.022 63.9892 177.025ZM95.5935 169.373C95.7157 169.286 95.8221 169.183 95.9113 169.068C95.8112 169.177 95.7049 169.278 95.5935 169.373ZM92.476 165.465C92.3603 165.548 92.2553 165.647 92.1642 165.765C92.2619 165.659 92.3661 165.559 92.476 165.465ZM96.9578 156.79C97.1124 156.682 97.2383 156.553 97.338 156.41C97.222 156.545 97.0949 156.673 96.9578 156.79ZM93.4665 153.259C93.5825 153.124 93.7096 152.996 93.8468 152.879C93.6919 152.987 93.566 153.116 93.4665 153.259ZM45.0667 76.4321C45.227 76.3204 45.3557 76.1856 45.4561 76.0363C45.3378 76.1772 45.2076 76.3099 45.0667 76.4321ZM172.18 138.612C172.127 138.616 172.074 138.62 172.02 138.624C172.066 138.674 172.113 138.724 172.16 138.774C172.166 138.72 172.173 138.666 172.18 138.612ZM178.204 137.321C178.088 137.408 177.984 137.511 177.895 137.63C177.992 137.52 178.095 137.417 178.204 137.321ZM181.396 141.168C181.514 141.08 181.618 140.976 181.707 140.857C181.609 140.968 181.505 141.072 181.396 141.168ZM201.877 114.478C201.722 114.586 201.597 114.715 201.497 114.858C201.613 114.723 201.74 114.595 201.877 114.478ZM205.369 118.009C205.253 118.144 205.126 118.271 204.989 118.388C205.144 118.281 205.269 118.152 205.369 118.009ZM70.2067 175.698C70.0696 175.794 69.9493 175.912 69.8493 176.052C69.9597 175.926 70.0794 175.807 70.2067 175.698ZM73.6852 179.248C73.575 179.374 73.4567 179.491 73.3318 179.598C73.4633 179.506 73.5826 179.39 73.6852 179.248ZM127.387 30.6515C127.506 30.5101 127.636 30.377 127.778 30.2545C127.617 30.3664 127.488 30.5016 127.387 30.6515ZM131.296 33.7549C131.177 33.8963 131.046 34.0294 130.905 34.1519C131.066 34.0399 131.195 33.9046 131.296 33.7549ZM62.3458 167.364C62.1854 167.476 62.0565 167.61 61.956 167.76C62.0744 167.619 62.2048 167.486 62.3458 167.364ZM65.4736 171.261C65.6339 171.149 65.7628 171.014 65.8633 170.865C65.7449 171.006 65.6146 171.139 65.4736 171.261ZM170.362 128.975C170.217 129.08 170.099 129.203 170.004 129.338C170.114 129.209 170.234 129.088 170.362 128.975ZM173.525 132.845C173.668 132.742 173.785 132.621 173.878 132.487C173.77 132.614 173.652 132.734 173.525 132.845ZM82.6786 174.917C82.5182 175.028 82.3893 175.163 82.2888 175.313C82.4072 175.172 82.5376 175.039 82.6786 174.917ZM85.8067 178.813C85.9674 178.701 86.0962 178.566 86.1966 178.417C86.0782 178.558 85.9478 178.691 85.8067 178.813ZM200.14 127.421C200.246 127.3 200.359 127.186 200.48 127.08C200.35 127.174 200.236 127.288 200.14 127.421ZM204.459 129.902C204.327 130.162 204.165 130.401 203.979 130.613C203.928 130.685 203.873 130.748 203.817 130.803C203.77 130.849 203.716 130.895 203.654 130.94L204.459 129.902ZM190.319 136.912C190.438 136.771 190.568 136.638 190.709 136.515C190.549 136.627 190.42 136.762 190.319 136.912ZM194.227 140.016C194.109 140.157 193.979 140.29 193.837 140.412C193.998 140.3 194.127 140.165 194.227 140.016Z" stroke="#DAA718" stroke-width="10" stroke-linecap="round"/>
</svg>
