<svg width="64" height="103" viewBox="0 0 64 103" fill="none" xmlns="http://www.w3.org/2000/svg">
<path d="M63.1765 76.801C63.4254 76.3599 63.518 75.8485 63.4391 75.3487C63.3602 74.8489 63.115 74.3901 62.7425 74.0458C50.0138 62.2775 38.6357 50.4464 28.7511 38.552C30.6929 37.4177 32.5492 36.1311 34.2926 34.661C44.1294 26.3675 45.6244 12.5479 38.1589 4.72126C34.4142 0.794274 29.1887 -0.48435 23.9398 0.157741C18.6904 0.800338 13.2741 3.21933 8.26385 6.69816C2.96406 10.378 0.498126 16.1437 0.0722095 21.7225C-0.353198 27.3013 1.11588 32.798 4.08711 36.5984C4.38022 36.9737 4.50794 37.0648 4.78425 37.3322C5.06005 37.5995 5.41168 37.9327 5.84166 38.3333C6.70164 39.1349 7.86694 40.2044 9.25765 41.4855C12.0391 44.0483 15.7217 47.4517 19.6048 51.1711C27.1227 58.3733 35.2676 66.7686 39.026 72.2046C38.7935 73.8012 37.7773 75.8561 36.0858 78.0923L33.2576 72.1752C33.197 72.0365 33.109 71.9109 32.9986 71.8066C32.8886 71.7028 32.7584 71.6212 32.6159 71.5686C32.4734 71.5154 32.3218 71.4911 32.1701 71.4977C32.018 71.5043 31.8694 71.5412 31.732 71.6061C31.5946 71.6709 31.472 71.763 31.3707 71.876C31.27 71.9894 31.1931 72.1215 31.1448 72.2648C31.0964 72.4081 31.0776 72.5601 31.0893 72.711C31.101 72.8619 31.1427 73.0087 31.213 73.1429L34.4361 79.8869C34.4549 79.9279 34.4763 79.9679 34.4997 80.0064C33.4759 81.1513 32.2872 82.3165 30.9453 83.4827L29.3821 78.1672C29.2976 77.8801 29.1017 77.6386 28.8381 77.4947C28.574 77.3514 28.2641 77.318 27.9756 77.4021C27.6871 77.4866 27.4443 77.6811 27.2998 77.9434C27.1558 78.2062 27.1222 78.5146 27.2072 78.8017L29.0483 85.0485C27.483 86.2764 25.7793 87.4821 23.9653 88.6513L23.2121 82.5738C23.1969 82.4249 23.1516 82.2801 23.0793 82.1489C23.0071 82.0173 22.9094 81.9013 22.7913 81.8081C22.6738 81.7144 22.5384 81.6456 22.3934 81.6045C22.2489 81.564 22.0972 81.5524 21.9476 81.5706C21.798 81.5888 21.6535 81.6365 21.5232 81.7109C21.3925 81.7853 21.278 81.8851 21.1864 82.0041C21.0948 82.1231 21.0281 82.2588 20.9899 82.4041C20.9518 82.5489 20.9431 82.6998 20.964 82.8482L21.8306 89.8358C21.8357 89.8829 21.8443 89.9289 21.8555 89.9745C20.5691 90.7462 19.2303 91.4861 17.8655 92.2041L16.4148 87.2826C16.3751 87.1383 16.3069 87.0026 16.2143 86.8846C16.1217 86.7666 16.0062 86.6678 15.8744 86.5949C15.7431 86.5215 15.5981 86.4754 15.4484 86.4587C15.2988 86.442 15.1472 86.4552 15.0027 86.4972C14.8582 86.5397 14.7233 86.6101 14.6063 86.7048C14.4898 86.7995 14.3931 86.9165 14.3223 87.0486C14.2516 87.1813 14.2078 87.3261 14.1941 87.4755C14.1804 87.6249 14.1966 87.7753 14.2419 87.9186L15.8133 93.2558C14.4786 93.9121 13.1158 94.5299 11.7368 95.1178L10.6977 91.5879C10.656 91.4461 10.5863 91.3134 10.4932 91.1979C10.4 91.0825 10.2845 90.9868 10.1543 90.9154C10.0235 90.8445 9.87998 90.7999 9.7319 90.7837C9.58382 90.768 9.43422 90.7812 9.29174 90.8227C9.14875 90.8647 9.01543 90.9336 8.89941 91.0268C8.7839 91.1194 8.68721 91.2344 8.61597 91.3645C8.54473 91.4942 8.49945 91.637 8.48368 91.7843C8.4679 91.9317 8.48113 92.0806 8.52286 92.2223L9.63318 95.9863C8.77117 96.3255 7.90765 96.6608 7.038 96.9676C6.56476 97.1347 6.16123 97.4533 5.89001 97.8731C5.61878 98.2934 5.49513 98.7911 5.53889 99.2884C5.58265 99.7856 5.79078 100.255 6.13121 100.622C6.47163 100.988 6.92504 101.232 7.41965 101.315C13.9147 102.396 20.7085 103.376 28.3588 101.548C35.9993 99.7218 44.3339 95.1123 54.0776 85.532L54.0868 85.5245L62.7608 77.3332C62.9257 77.1778 63.0656 76.9985 63.1765 76.801ZM57.9414 75.6672L50.9593 82.2623C50.9486 82.273 50.9374 82.2841 50.9267 82.2947C41.5657 91.5073 34.0051 95.5624 27.3019 97.1646C23.5592 98.0589 20.0282 98.1242 16.5257 97.8842C22.4875 95.0748 28.029 91.6962 32.5197 88.0751C38.9685 82.8761 43.5986 77.3763 43.7203 71.6567C43.7299 71.2009 43.6002 70.7528 43.3483 70.372C39.2194 64.1182 30.583 55.4307 22.7455 47.9226C18.8268 44.1688 15.1218 40.7452 12.3352 38.1778C10.942 36.8942 9.7777 35.8232 8.93859 35.0413C8.51878 34.6504 8.17988 34.3303 7.94326 34.101C7.70664 33.8721 7.50209 33.6235 7.66339 33.8301C5.59742 31.1873 4.24435 26.5883 4.58936 22.0633C4.72166 20.3319 5.08398 18.629 5.70224 17.0273L6.55865 18.8037C6.64668 18.9926 6.7851 19.1536 6.95913 19.2686C7.13316 19.384 7.33569 19.4488 7.54483 19.4564C7.75346 19.4645 7.96056 19.4144 8.14274 19.3121C8.3244 19.2103 8.47502 19.0599 8.57628 18.8781C8.66584 18.7181 8.7152 18.5389 8.71927 18.3556C8.72334 18.1722 8.68263 17.991 8.60071 17.8269L6.98457 14.4787C7.842 13.1079 8.933 11.8592 10.3039 10.8059L12.149 16.9893C12.2111 17.2081 12.3378 17.403 12.5133 17.5489C12.6889 17.6947 12.9041 17.7843 13.1316 17.8061C13.3591 17.8279 13.5875 17.7803 13.7875 17.6704C13.9875 17.5605 14.1493 17.3929 14.2516 17.1899C14.3844 16.9281 14.4094 16.6253 14.3213 16.3457L12.2671 9.46604C13.5143 8.67103 14.7742 7.95146 16.0336 7.33114L16.631 12.0182C16.659 12.2633 16.7664 12.4922 16.9374 12.6709C17.1089 12.8492 17.3338 12.9666 17.5785 13.0056C17.8233 13.0441 18.0742 13.0021 18.2925 12.8856C18.5108 12.7692 18.6848 12.5843 18.7876 12.36C18.8772 12.1635 18.9087 11.9458 18.8777 11.7326L18.1953 6.36647C19.5733 5.80337 20.9319 5.36383 22.2524 5.0519L23.9368 10.6955C23.9983 10.9143 24.125 11.1092 24.3001 11.2546C24.4756 11.4004 24.6909 11.49 24.9178 11.5118C25.1448 11.5336 25.3738 11.487 25.5733 11.3771C25.7732 11.2677 25.9356 11.1006 26.0384 10.8976C26.1707 10.6363 26.1956 10.3335 26.1075 10.054L24.4904 4.63416C24.4914 4.63416 24.4924 4.63365 24.4934 4.63314C26.0165 4.44679 27.4367 4.45287 28.7608 4.65694L30.2329 9.58504C30.295 9.80379 30.4217 9.99824 30.5967 10.1441C30.7718 10.2899 30.987 10.3795 31.2145 10.4013C31.4414 10.4231 31.6699 10.3765 31.8699 10.2666C32.0699 10.1573 32.2317 9.99013 32.335 9.78707C32.4673 9.52578 32.4922 9.22296 32.4042 8.94344L31.3392 5.37398C32.6383 5.91834 33.8199 6.71891 34.8737 7.82383C40.2493 13.4598 39.4886 24.3729 31.3651 31.2212L31.3636 31.2201C28.9887 33.2229 26.6688 34.8838 24.3148 35.8687C23.9907 36.0044 23.7032 36.2136 23.4747 36.4789C23.2457 36.7443 23.0824 37.0592 22.9969 37.398C22.9119 37.7373 22.9068 38.0917 22.9826 38.433C23.0585 38.7743 23.2132 39.0934 23.434 39.3653C33.3939 51.5868 45.0891 63.6701 57.9414 75.6672ZM46.7831 82.8016C46.9703 82.2077 46.6365 81.5747 46.0407 81.3893C45.4448 81.2035 44.8082 81.5347 44.6209 82.1286C44.4347 82.7216 44.767 83.3546 45.3639 83.5409C45.9613 83.7258 46.5984 83.3941 46.7831 82.8016ZM50.0194 71.9975C50.2057 71.4045 49.8724 70.7731 49.2755 70.5867C48.6791 70.4014 48.0451 70.733 47.8578 71.327C47.671 71.921 48.0038 72.5535 48.6007 72.7399C49.1971 72.9242 49.8332 72.592 50.0194 71.9975ZM24.4202 28.6817C24.5632 28.4188 24.5957 28.1105 24.5102 27.8239C24.4248 27.5373 24.2283 27.2962 23.9642 27.1539C23.7001 27.0111 23.3897 26.9792 23.1017 27.0643C22.8142 27.1494 22.572 27.3448 22.4285 27.6076C22.2855 27.8705 22.2529 28.1788 22.3384 28.4654C22.4239 28.752 22.6203 28.9931 22.8844 29.1354C23.1485 29.2777 23.4589 29.3101 23.747 29.225C24.035 29.1399 24.2767 28.9445 24.4202 28.6817ZM14.9686 31.1776C15.1116 30.9148 15.1436 30.6064 15.0582 30.3198C14.9727 30.0332 14.7762 29.7922 14.5121 29.6499C14.2486 29.5071 13.9382 29.4752 13.6501 29.5603C13.3621 29.6453 13.1199 29.8408 12.9769 30.1036C12.8339 30.3664 12.8014 30.6748 12.8868 30.9614C12.9723 31.248 13.1688 31.489 13.4328 31.6313C13.6969 31.7736 14.0068 31.806 14.2949 31.721C14.5829 31.6359 14.8251 31.4404 14.9686 31.1776ZM14.3926 23.4401C14.5356 23.1773 14.5676 22.8689 14.4821 22.5823C14.3966 22.2957 14.2002 22.0547 13.9361 21.9124C13.6725 21.7696 13.3621 21.7377 13.0741 21.8227C12.7861 21.9078 12.5439 22.1033 12.4009 22.3661C12.2579 22.6289 12.2253 22.9373 12.3108 23.2239C12.3963 23.5105 12.5927 23.7516 12.8568 23.8938C13.1209 24.0361 13.4308 24.0686 13.7188 23.9835C14.0069 23.8984 14.2491 23.7029 14.3926 23.4401Z" fill="#DAA718"/>
</svg>
