<svg width="483" height="429" viewBox="0 0 483 429" fill="none" xmlns="http://www.w3.org/2000/svg">
<path opacity="0.7" d="M474.182 351.513L475.213 357.627L469.186 358.972L190.898 421.07L190.897 421.07C164.358 426.987 139.163 412.778 134.796 386.884L141.189 385.787L134.796 386.884L104.363 206.427C102.521 207.268 100.578 208.058 98.5888 208.666L98.579 208.669C56.5786 221.445 15.2187 200.442 8.34362 159.698C1.61745 119.836 31.1152 78.0238 72.7602 65.3409C114.752 52.5524 156.122 73.5687 162.988 114.3L195.636 307.854L385.504 265.521L366.307 151.682C364.466 152.523 362.523 153.312 360.534 153.921L360.524 153.924C318.525 166.698 277.165 145.696 270.29 104.951C263.564 65.0893 293.061 23.2773 334.706 10.5944C376.698 -2.19403 418.068 18.8224 424.933 59.5553L474.182 351.513ZM399.253 65.679L399.253 65.6783C395.23 41.815 371.883 27.3643 344.295 33.9251C349.081 34.5466 353.469 37.7658 354.434 43.5076C355.622 50.5772 350.572 56.8812 344.482 58.7479L344.471 58.7514L344.459 58.7549C338.02 60.7023 330.092 57.5922 328.752 49.6251C327.974 44.9967 329.87 40.6969 332.981 37.7551C324.118 41.6953 316.432 47.4788 310.358 54.3456C314.086 52.2817 318.723 51.7748 322.87 53.9652L322.903 53.9828L322.936 54.0007C329.96 57.8155 330.39 66.3317 326.616 71.8547L326.593 71.8879L326.57 71.9209C324.741 74.5278 322.099 76.4856 319.055 77.4526C315.869 78.5013 312.241 78.3955 309.084 76.7131L309.06 76.7003L309.036 76.6873C304.036 73.9685 302.379 68.8661 303.204 64.1591C296.825 74.9512 294.012 87.2083 295.97 98.8256C300.186 123.8 325.529 138.452 354.773 129.552L354.776 129.551C360.263 127.884 365.442 125.466 370.251 122.482C370.254 122.48 370.257 122.479 370.259 122.477L378.195 117.521L386.393 112.4L388.005 121.956L414.405 278.458L415.436 284.572L411.584 285.432C414.246 287.015 416.295 289.67 416.919 293.375C417.932 299.384 414.436 304.837 409.628 307.487C414.855 307.698 419.88 310.976 420.936 317.159L420.938 317.168L420.939 317.176C422.127 324.243 417.081 330.552 410.967 332.408C404.5 334.385 396.606 331.236 395.25 323.299L395.248 323.291L395.247 323.283C394.238 317.28 397.727 311.822 402.55 309.178C397.326 308.963 392.282 305.704 391.238 299.496C390.603 295.719 391.749 292.161 393.882 289.381L197.09 333.29C199.106 334.911 200.603 337.264 201.119 340.332C202.128 346.335 198.639 351.786 193.835 354.437C199.051 354.659 204.086 357.917 205.128 364.119C206.317 371.188 201.266 377.492 195.176 379.359L195.165 379.362L195.153 379.366C188.715 381.313 180.786 378.203 179.447 370.236C178.437 364.232 181.926 358.782 186.731 356.131C181.517 355.909 176.484 352.653 175.439 346.457C174.901 343.291 175.613 340.278 177.111 337.748L174.083 338.424L172.945 331.677L137.307 120.425L137.307 120.425C133.282 96.5538 109.921 82.0997 82.312 88.6668C87.1122 89.2763 91.5199 92.4972 92.4877 98.2538C93.6762 105.323 88.6277 111.626 82.5371 113.494L82.525 113.498L82.5129 113.501C76.0741 115.449 68.1457 112.339 66.8063 104.371C66.0261 99.7305 67.9346 95.4191 71.061 92.4767C62.1764 96.4254 54.4726 102.226 48.3889 109.113C52.1275 107.02 56.7878 106.519 60.9527 108.746L60.961 108.75C68.0632 112.561 68.4577 121.083 64.6619 126.613L64.6512 126.628L64.6405 126.643C62.832 129.246 60.1615 131.25 57.1099 132.233L57.0884 132.24L57.0668 132.247C53.914 133.238 50.3164 133.146 47.1343 131.431C42.0589 128.709 40.4245 123.572 41.2881 118.851C34.8882 129.658 32.0623 141.937 34.0239 153.574C38.2318 178.534 63.5828 193.199 92.8266 184.298L92.8297 184.297C98.3175 182.63 103.497 180.213 108.306 177.228C108.308 177.226 108.311 177.225 108.313 177.223L116.25 172.266L124.449 167.145L126.061 176.701L160.486 380.772L160.486 380.774C162.362 391.921 173.163 399.28 187.211 396.141L187.214 396.141L445.29 338.588L399.253 65.679ZM296.08 97.1022L296.078 97.0884C294.89 90.0223 299.936 83.7106 306.052 81.8562C312.519 79.881 320.414 83.0292 321.766 90.9695L321.769 90.9833C322.957 98.0507 317.91 104.361 311.792 106.216C305.326 108.19 297.432 105.042 296.08 97.1022ZM389.194 82.6571L389.182 82.6608L389.17 82.6645C382.731 84.6119 374.803 81.5014 373.464 73.5345C372.275 66.4648 377.324 60.1624 383.414 58.2945L383.426 58.2908L383.439 58.2871C389.877 56.3398 397.806 59.4499 399.145 67.417C400.334 74.4863 395.285 80.789 389.194 82.6571ZM34.1345 151.852L34.133 151.843L34.1316 151.835C32.9435 144.767 37.991 138.457 44.1072 136.602C50.5733 134.627 58.4677 137.776 59.82 145.716L59.8218 145.726C61.0137 152.795 55.9642 159.106 49.8503 160.961C43.379 162.939 35.4897 159.785 34.1345 151.852ZM127.248 137.403L127.236 137.407L127.224 137.411C120.785 139.358 112.857 136.248 111.517 128.281C110.333 121.234 115.347 114.891 121.492 113.034C127.931 111.086 135.86 114.196 137.199 122.163C138.387 129.233 133.339 135.535 127.248 137.403ZM373.763 60.8235L373.741 60.8304L373.72 60.8372C370.572 61.8265 366.984 61.736 363.816 60.0442C356.707 56.2483 356.312 47.7011 360.103 42.1766L360.111 42.1657L360.118 42.1548C363.748 36.9115 371.254 33.948 377.615 37.3486C384.705 41.1391 385.128 49.676 381.312 55.2079C379.478 57.8832 376.771 59.855 373.763 60.8235ZM111.845 115.568L111.824 115.575L111.802 115.582C108.665 116.568 105.045 116.487 101.868 114.79L101.867 114.789C94.7659 110.993 94.3634 102.451 98.1571 96.9231L98.1646 96.9121L98.1721 96.9012C101.801 91.659 109.306 88.695 115.666 92.0933C122.785 95.8946 123.151 104.432 119.373 109.943C117.562 112.591 114.895 114.586 111.845 115.568Z" fill="#E9BB18" stroke="#DAA718" stroke-width="13" stroke-linecap="round"/>
</svg>
