<svg width="269" height="240" viewBox="0 0 269 240" fill="none" xmlns="http://www.w3.org/2000/svg">
<path d="M120.334 175.082C114.51 168.478 104.117 166.718 93.8094 172.64L93.8072 172.642C91.4524 173.993 89.3096 175.662 87.39 177.564L87.3944 177.56L85.0751 175.209L84.3766 173.517L128.099 178.265L126.474 178.941C125.118 176.423 122.753 175.219 120.334 175.082ZM120.334 175.082C118.706 174.989 117.055 175.379 115.671 176.176C112.276 178.124 109.998 182.643 111.759 186.917L111.763 186.927C112.583 188.906 113.965 190.205 115.56 190.913M120.334 175.082C121.63 176.552 122.7 178.262 123.492 180.181L115.56 190.913M115.56 190.913C115.473 190.961 115.388 191.011 115.303 191.062C113.598 192.071 112.276 193.619 111.532 195.444L111.52 195.472L111.509 195.501C110.669 197.636 110.717 200.238 111.793 202.374C109.552 201.597 106.991 201.902 104.999 203.042L104.991 203.046L104.983 203.051C103.278 204.035 101.851 205.674 101.083 207.607C100.177 206.148 98.7375 204.973 96.7076 204.423L115.56 190.913ZM118.15 180.528C119.763 179.597 121.596 180.093 122.236 181.636L118.15 180.528ZM118.15 180.528C116.532 181.454 115.733 183.465 116.366 185.003L118.15 180.528ZM44.2473 101.115L43.7963 101.331L45.6122 105.732L75.9424 179.237L78.7894 186.137L84.0623 180.881L87.3848 177.57L85.0798 175.221L85.1554 175.404L80.5489 177.321L77.0355 173.76L78.4839 172.316L50.2187 103.815L51.585 103.162C51.0684 103.279 50.5388 103.348 50.0066 103.367C47.9208 103.442 45.7942 102.749 44.2473 101.115ZM44.2473 101.115C43.6351 100.469 43.1136 99.6749 42.7214 98.723M44.2473 101.115L48.0744 99.2871L49.9869 98.3734C48.8338 98.4678 47.7788 97.9008 47.329 96.8088M42.7214 98.723C41.753 96.3736 42.0062 93.9527 42.9903 91.9248M42.7214 98.723C42.7217 98.7238 42.722 98.7245 42.7224 98.7253L47.329 96.8088M42.7214 98.723L47.329 96.8088M42.9903 91.9248C40.9494 91.3729 39.1133 89.9715 38.1117 87.5584L38.1067 87.5462C36.3446 83.269 38.6283 78.7467 42.0258 76.801M42.9903 91.9248C43.7981 90.2601 45.0984 88.8601 46.6198 87.9817L46.6282 87.9768L46.6366 87.972C46.8528 87.8483 47.0758 87.7344 47.3043 87.6307M42.9903 91.9248L47.3078 87.6291M42.0258 76.801C45.6677 74.7086 51.1509 75.4339 53.1866 80.3384L53.1916 80.3506C54.1587 82.698 53.9072 85.1192 52.9217 87.1479M42.0258 76.801C42.0213 76.8036 42.0168 76.8062 42.0123 76.8088L44.4988 81.1564M42.0258 76.801C42.0267 76.8005 42.0276 76.8 42.0284 76.7995L44.4988 81.1564M52.9217 87.1479C54.9628 87.6984 56.8008 89.0981 57.7999 91.5232C58.1876 92.4642 58.3794 93.4168 58.4068 94.351M52.9217 87.1479C51.0583 86.6452 49.0256 86.8504 47.3078 87.6291M52.9217 87.1479C52.1116 88.8156 50.8055 90.2179 49.2726 91.0958C49.2717 91.0963 49.2708 91.0968 49.2699 91.0973L47.3043 87.6307M58.4068 94.351L144.074 53.4245M58.4068 94.351C58.4907 97.213 57.0315 99.9027 54.9343 101.562L150.007 56.1424C147.805 56.1626 145.587 55.3186 144.074 53.4245M58.4068 94.351L52.2096 97.3116C53.2697 96.2703 53.7105 94.6952 53.1923 93.4374C52.5588 91.8996 50.7251 91.4029 49.1069 92.3289C47.4947 93.2598 46.6949 95.2718 47.329 96.8088M144.074 53.4245C143.632 52.8711 143.25 52.228 142.946 51.4905C141.978 49.1419 142.231 46.7211 143.214 44.6929M144.074 53.4245L149.107 51.02C148.421 50.7977 147.853 50.3026 147.553 49.5764C146.92 48.0386 147.72 46.0266 149.331 45.0964C150.949 44.1705 152.783 44.6671 153.417 46.2048M143.214 44.6929C141.174 44.1422 139.336 42.7426 138.338 40.318C136.576 36.0411 138.86 31.5254 142.237 29.5763L142.245 29.5717L142.253 29.5671C145.874 27.4947 151.383 28.1826 153.416 33.1182C154.384 35.4671 154.131 37.8877 153.147 39.9157M143.214 44.6929C145.077 45.1957 147.109 44.9912 148.826 44.2135C148.828 44.2129 148.829 44.2124 148.83 44.2119C149.059 44.1078 149.284 43.9934 149.501 43.8691L149.509 43.8643L149.518 43.8594C151.04 42.9805 152.34 41.5803 153.147 39.9157M143.214 44.6929C144.022 43.028 145.322 41.6275 146.845 40.7488L146.853 40.7442L146.861 40.7395C147.078 40.6152 147.302 40.5008 147.532 40.3967C147.533 40.3962 147.534 40.3956 147.536 40.3951C149.253 39.6175 151.285 39.413 153.147 39.9157M153.147 39.9157C155.185 40.4658 157.02 41.8622 158.02 44.2807M158.02 44.2807C158.324 45.0145 158.509 45.7556 158.59 46.4896M158.02 44.2807L153.417 46.2048M158.02 44.2807C158.021 44.284 158.023 44.2873 158.024 44.2907L153.417 46.2048M158.59 46.4896L158.876 46.3531L160.887 51.2281L199.008 143.611M158.59 46.4896C158.859 48.9347 157.97 51.302 156.47 53.0662C156.422 53.123 156.373 53.1791 156.323 53.2346L158.425 57.6726L158.195 57.7827L197.223 152.364C202.966 166.287 219.372 170.74 233.99 162.342C248.602 153.939 255.748 135.953 250.005 122.03C244.262 108.108 227.856 103.655 213.238 112.054C210.681 113.521 208.36 115.295 206.282 117.283L206.98 118.974L209.301 121.326L209.296 121.33C211.216 119.428 213.359 117.759 215.713 116.407L215.716 116.406C226.023 110.484 236.418 112.247 242.24 118.848M158.59 46.4896L154.137 48.6172L153.194 49.0676C153.674 48.1588 153.789 47.1025 153.417 46.2048M199.008 143.611C199.821 142.166 201.009 140.956 202.377 140.166L202.385 140.161L202.394 140.156C206.016 138.084 211.524 138.772 213.557 143.707C214.197 145.262 214.304 146.852 214.016 148.341M199.008 143.611C197.814 145.734 197.43 148.362 198.479 150.907C198.591 151.181 198.714 151.441 198.847 151.688C198.848 151.688 198.848 151.688 198.848 151.689C200.203 154.21 202.569 155.406 204.984 155.543M199.008 143.611L201.501 149.652L201.829 150.448L201.829 150.448C202.62 152.365 203.689 154.074 204.984 155.543M214.016 148.341C215.432 147.873 217.022 147.758 218.614 148.189L218.615 148.19C220.644 148.74 222.083 149.915 222.989 151.373M214.016 148.341C213.424 148.536 212.863 148.793 212.345 149.097L212.33 149.106L212.315 149.115C210.791 150.023 209.564 151.373 208.798 152.97L207.171 150.101M214.016 148.341C213.861 149.138 213.593 149.907 213.233 150.625C213.229 150.632 213.225 150.64 213.221 150.648C212.493 152.088 211.393 153.323 210.095 154.18L213.176 155.414M222.989 151.373C223.756 149.441 225.183 147.802 226.888 146.817L226.897 146.813L226.905 146.808C228.893 145.67 231.449 145.364 233.687 146.136M222.989 151.373C222.237 153.267 222.118 155.442 222.99 157.559C223.171 157.998 223.38 158.404 223.612 158.777M222.989 151.373C224.05 153.081 224.379 155.178 224.062 157.113C223.968 157.687 223.817 158.246 223.612 158.777M233.687 146.136C232.612 143.997 232.574 141.391 233.419 139.257L233.425 139.243L233.43 139.23C234.164 137.408 235.496 135.83 237.206 134.811L237.221 134.802L237.236 134.793C237.307 134.752 237.378 134.711 237.45 134.671M233.687 146.136C234.473 147.701 235.815 149.016 237.77 149.713M233.687 146.136C235.341 146.706 236.822 147.865 237.77 149.713M237.45 134.671C235.861 133.962 234.487 132.665 233.669 130.693L233.666 130.685C231.902 126.409 234.184 121.889 237.577 119.942M237.45 134.671C239.265 135.483 241.359 135.527 243.219 134.938L242.203 138.734M237.45 134.671C239.183 133.719 241.338 133.303 243.507 133.897C243.925 134.011 244.317 134.151 244.685 134.314M237.577 119.942C238.963 119.144 240.614 118.755 242.24 118.848M237.577 119.942C237.58 119.94 237.583 119.938 237.586 119.937L240.057 124.293L237.569 119.946C237.572 119.945 237.575 119.943 237.577 119.942ZM242.24 118.848C244.659 118.986 247.024 120.191 248.38 122.707C248.511 122.951 248.633 123.207 248.744 123.475L248.749 123.488C250.101 126.768 249.073 130.192 246.988 132.488M242.24 118.848C243.537 120.318 244.607 122.028 245.399 123.947C245.508 124.211 245.611 124.477 245.708 124.746C245.709 124.748 245.709 124.749 245.71 124.751C246.593 127.187 247.009 129.806 246.988 132.488M246.988 132.488C246.356 133.184 245.626 133.777 244.836 134.23M246.988 132.488C246.98 133.551 246.902 134.624 246.758 135.699M244.836 134.23L231.51 157.991C229.429 159.186 227.345 160.068 225.296 160.66M244.836 134.23C244.786 134.259 244.736 134.287 244.685 134.314M244.836 134.23C244.833 134.231 244.83 134.233 244.828 134.234L242.357 129.878M244.836 134.23C244.839 134.228 244.841 134.227 244.844 134.225L242.357 129.878M244.836 134.23L242.357 129.878M246.758 135.699C249.15 137.996 249.591 141.696 248.466 144.539L248.465 144.54C247.256 147.595 244.148 150.167 240.515 150.187M246.758 135.699C246.428 138.167 245.745 140.645 244.733 143.044C244.733 143.044 244.733 143.044 244.733 143.044C243.677 145.547 242.262 147.963 240.515 150.187M246.758 135.699C246.182 135.146 245.493 134.674 244.685 134.314M240.515 150.187C239.919 150.946 239.284 151.682 238.612 152.392M240.515 150.187C239.823 150.191 239.112 150.102 238.392 149.907L238.385 149.905C238.174 149.848 237.969 149.783 237.77 149.713M238.612 152.392C239.082 155.998 237.013 159.459 234.169 161.101L234.161 161.105L234.153 161.11C233.936 161.234 233.713 161.348 233.483 161.452L233.99 162.342L233.483 161.452C230.919 162.615 227.653 162.5 225.296 160.66M238.612 152.392C236.747 154.361 234.591 156.127 232.168 157.601C232.167 157.602 232.166 157.603 232.165 157.603C231.949 157.734 231.732 157.863 231.512 157.99L242.357 129.878M238.612 152.392C238.524 151.715 238.347 151.034 238.068 150.359C237.976 150.135 237.877 149.919 237.77 149.713M225.296 160.66C224.202 160.976 223.119 161.21 222.051 161.364M225.296 160.66C224.657 160.162 224.086 159.537 223.612 158.777M222.051 161.364C220.072 163.676 216.899 165.121 213.511 164.203C210.322 163.339 208.595 160.939 208.102 158.324M222.051 161.364C219.35 161.755 216.75 161.642 214.345 161.081L214.804 159.362M222.051 161.364C222.701 160.605 223.223 159.752 223.581 158.858L223.584 158.849L223.588 158.839C223.596 158.819 223.604 158.798 223.612 158.777M208.102 158.324C206.959 157.528 205.913 156.597 204.984 155.543M208.102 158.324C207.903 157.269 207.905 156.178 208.092 155.141M208.102 158.324C209.953 159.613 212.061 160.548 214.344 161.081L214.804 159.362M204.984 155.543C206.037 155.603 207.1 155.461 208.092 155.141M208.092 155.141C208.191 154.596 208.341 154.066 208.54 153.562C208.619 153.362 208.705 153.164 208.798 152.971L207.171 150.101M208.092 155.141C208.634 154.965 209.155 154.737 209.641 154.459M207.171 150.101C205.553 151.027 203.72 150.531 203.086 148.993C202.453 147.455 203.252 145.444 204.864 144.513C206.482 143.587 208.316 144.084 208.949 145.622C209.583 147.159 208.789 149.176 207.171 150.101ZM213.176 155.414C213.5 154.589 214.101 153.88 214.862 153.427C215.651 152.964 216.539 152.817 217.32 153.029C218.915 153.462 219.647 155.232 218.954 156.982C218.254 158.729 216.399 159.795 214.804 159.362M213.176 155.414C212.483 157.165 213.208 158.931 214.804 159.362M213.176 155.414L210.088 154.184C209.941 154.281 209.792 154.372 209.641 154.459M214.804 159.362L209.641 154.459M214.804 159.362L209.641 154.459M209.641 154.459C209.641 154.459 209.642 154.458 209.642 154.458L209.311 153.875M209.641 154.459L209.31 153.875L209.311 153.875M209.311 153.875L209.304 153.863L209.303 153.863L209.311 153.875ZM244.685 134.314C244.226 134.565 243.74 134.773 243.236 134.933L242.203 138.734M242.203 138.734C243.798 139.167 244.524 140.932 243.831 142.683C243.138 144.434 241.282 145.5 239.687 145.068C238.086 144.631 237.36 142.866 238.053 141.114C238.383 140.295 238.992 139.576 239.753 139.123C240.542 138.66 241.416 138.518 242.203 138.734ZM47.3078 87.6291L46.7996 86.7405M47.3078 87.6291L46.7996 86.7405M47.3043 87.6307L46.7996 86.7405M47.3043 87.6307L46.7996 86.7405M46.7996 86.7405C45.1879 87.6707 43.3542 87.174 42.7142 85.632C42.0807 84.0943 42.8806 82.0823 44.4988 81.1564M46.7996 86.7405C48.4178 85.8146 49.2176 83.8025 48.5841 82.2648C47.9441 80.7228 46.1104 80.2261 44.4988 81.1564M8.26531 76.7603L6.44953 72.3597L10.7275 70.3158L139.801 8.64987L139.801 8.64953C152.832 2.42669 167.909 6.6947 173.381 19.9567L168.774 21.8734L173.381 19.9568L207.514 102.688C207.82 102.49 208.131 102.298 208.446 102.116L208.453 102.112C228.25 90.7425 252.087 96.4157 260.475 116.742C268.596 136.421 258.319 161.041 238.77 172.277C218.978 183.653 195.135 177.974 186.752 157.653L149.946 68.4505L65.0164 109.009L85.6085 158.922C85.9144 158.723 86.2255 158.531 86.5407 158.35L86.5476 158.346C106.344 146.977 130.181 152.65 138.569 172.976C146.69 192.655 136.413 217.275 116.864 228.512C97.072 239.887 73.2289 234.208 64.8467 213.887C64.8467 213.887 64.8466 213.886 64.8465 213.886L8.26531 76.7603ZM124.852 191.93C124.996 190.856 125.073 189.784 125.082 188.722C124.449 189.418 123.72 190.01 122.93 190.463C122.883 190.49 122.836 190.517 122.788 190.543C123.591 190.904 124.277 191.376 124.852 191.93ZM116.456 206.142C116.255 206.086 116.059 206.023 115.869 205.955C115.973 206.159 116.071 206.372 116.162 206.593C116.44 207.267 116.617 207.946 116.705 208.621C117.375 207.914 118.007 207.181 118.601 206.426C117.92 206.43 117.221 206.345 116.512 206.157L116.484 206.149L116.456 206.142ZM209.291 121.335L206.984 118.985L96.7067 204.423C95.1136 203.992 93.5264 204.105 92.1084 204.576C92.3978 203.09 92.2929 201.5 91.6509 199.942C89.6176 195.006 84.1095 194.318 80.4876 196.39L80.4791 196.395L80.4707 196.4C79.1031 197.19 77.9148 198.4 77.102 199.845L27.6637 80.032L145.883 23.5705L145.885 23.5697C151.681 20.7987 156.594 23.0217 158.298 27.155L158.298 27.1567L197.848 123.004L200.695 129.904L205.968 124.648L209.291 121.335ZM86.1925 214.556C85.9933 213.503 85.9947 212.414 86.1837 211.376C85.1922 211.696 84.1303 211.837 83.0776 211.777C84.0059 212.83 85.0505 213.76 86.1925 214.556ZM101.682 215.073L101.678 215.083L101.674 215.092C101.317 215.985 100.797 216.836 100.148 217.595C101.213 217.44 102.294 217.207 103.385 216.891C102.749 216.393 102.178 215.77 101.706 215.012C101.698 215.032 101.69 215.053 101.682 215.073Z" stroke="#DAA718" stroke-width="10" stroke-linecap="round"/>
</svg>
