<svg width="351" height="172" viewBox="0 0 351 172" fill="none" xmlns="http://www.w3.org/2000/svg">
<rect width="351" height="172" rx="12" fill="#DDB5FD"/>
<rect x="1" y="1" width="349" height="162" rx="11" fill="#ECD6FE"/>
<rect x="1" y="1" width="349" height="162" rx="11" stroke="#DDB5FD" stroke-width="2"/>
<path fill-rule="evenodd" clip-rule="evenodd" d="M179.204 29.7037C179.204 27.6582 177.545 26 175.5 26C173.455 26 171.796 27.6582 171.796 29.7037V52.2963H149.204C147.158 52.2963 145.5 53.9545 145.5 56C145.5 58.0455 147.158 59.7037 149.204 59.7037H171.796V82.2963C171.796 84.3418 173.455 86 175.5 86C177.545 86 179.204 84.3418 179.204 82.2963V59.7037H201.796C203.842 59.7037 205.5 58.0455 205.5 56C205.5 53.9545 203.842 52.2963 201.796 52.2963H179.204V29.7037Z" fill="#6F219E"/>
<path d="M78.7324 118.939L74.6797 131H71.8379L77.1504 116.781H78.9668L78.7324 118.939ZM82.1211 131L78.0488 118.939L77.8047 116.781H79.6309L84.9727 131H82.1211ZM81.9355 125.717V127.836H74.3086V125.717H81.9355ZM92.5801 128.754V116H95.1777V131H92.834L92.5801 128.754ZM85.793 125.844V125.639C85.793 124.831 85.8841 124.099 86.0664 123.441C86.2552 122.777 86.5286 122.208 86.8867 121.732C87.2448 121.257 87.6777 120.889 88.1855 120.629C88.6999 120.368 89.2826 120.238 89.9336 120.238C90.5651 120.238 91.1152 120.365 91.584 120.619C92.0592 120.873 92.4629 121.234 92.7949 121.703C93.1335 122.172 93.4036 122.729 93.6055 123.373C93.8073 124.011 93.9538 124.714 94.0449 125.482V126.039C93.9538 126.788 93.8073 127.475 93.6055 128.1C93.4036 128.725 93.1335 129.271 92.7949 129.74C92.4629 130.202 92.0592 130.561 91.584 130.814C91.1087 131.068 90.5521 131.195 89.9141 131.195C89.2695 131.195 88.6901 131.062 88.1758 130.795C87.668 130.528 87.235 130.154 86.877 129.672C86.5254 129.19 86.2552 128.624 86.0664 127.973C85.8841 127.322 85.793 126.612 85.793 125.844ZM88.3809 125.639V125.844C88.3809 126.299 88.4199 126.726 88.498 127.123C88.5762 127.52 88.7031 127.872 88.8789 128.178C89.0547 128.477 89.2793 128.712 89.5527 128.881C89.8327 129.05 90.1712 129.135 90.5684 129.135C91.0762 129.135 91.4928 129.024 91.8184 128.803C92.1504 128.575 92.4076 128.266 92.5898 127.875C92.7721 127.478 92.8893 127.032 92.9414 126.537V125.004C92.9154 124.613 92.847 124.252 92.7363 123.92C92.6322 123.588 92.4824 123.301 92.2871 123.061C92.0983 122.82 91.8639 122.631 91.584 122.494C91.304 122.357 90.972 122.289 90.5879 122.289C90.1908 122.289 89.8522 122.377 89.5723 122.553C89.2923 122.722 89.0645 122.96 88.8887 123.266C88.7129 123.572 88.5827 123.926 88.498 124.33C88.4199 124.734 88.3809 125.17 88.3809 125.639ZM103.85 128.754V116H106.447V131H104.104L103.85 128.754ZM97.0625 125.844V125.639C97.0625 124.831 97.1536 124.099 97.3359 123.441C97.5247 122.777 97.7982 122.208 98.1562 121.732C98.5143 121.257 98.9473 120.889 99.4551 120.629C99.9694 120.368 100.552 120.238 101.203 120.238C101.835 120.238 102.385 120.365 102.854 120.619C103.329 120.873 103.732 121.234 104.064 121.703C104.403 122.172 104.673 122.729 104.875 123.373C105.077 124.011 105.223 124.714 105.314 125.482V126.039C105.223 126.788 105.077 127.475 104.875 128.1C104.673 128.725 104.403 129.271 104.064 129.74C103.732 130.202 103.329 130.561 102.854 130.814C102.378 131.068 101.822 131.195 101.184 131.195C100.539 131.195 99.9596 131.062 99.4453 130.795C98.9375 130.528 98.5046 130.154 98.1465 129.672C97.7949 129.19 97.5247 128.624 97.3359 127.973C97.1536 127.322 97.0625 126.612 97.0625 125.844ZM99.6504 125.639V125.844C99.6504 126.299 99.6895 126.726 99.7676 127.123C99.8457 127.52 99.9727 127.872 100.148 128.178C100.324 128.477 100.549 128.712 100.822 128.881C101.102 129.05 101.441 129.135 101.838 129.135C102.346 129.135 102.762 129.024 103.088 128.803C103.42 128.575 103.677 128.266 103.859 127.875C104.042 127.478 104.159 127.032 104.211 126.537V125.004C104.185 124.613 104.117 124.252 104.006 123.92C103.902 123.588 103.752 123.301 103.557 123.061C103.368 122.82 103.133 122.631 102.854 122.494C102.574 122.357 102.242 122.289 101.857 122.289C101.46 122.289 101.122 122.377 100.842 122.553C100.562 122.722 100.334 122.96 100.158 123.266C99.9824 123.572 99.8522 123.926 99.7676 124.33C99.6895 124.734 99.6504 125.17 99.6504 125.639ZM116.857 129.828L119.689 120.434H122.453L118.215 132.602C118.117 132.862 117.99 133.145 117.834 133.451C117.684 133.757 117.482 134.047 117.229 134.32C116.975 134.6 116.656 134.828 116.271 135.004C115.894 135.18 115.435 135.268 114.895 135.268C114.66 135.268 114.452 135.251 114.27 135.219C114.087 135.186 113.895 135.144 113.693 135.092V133.158C113.758 133.165 113.833 133.168 113.918 133.168C114.009 133.174 114.087 133.178 114.152 133.178C114.53 133.178 114.842 133.132 115.09 133.041C115.337 132.956 115.536 132.816 115.686 132.621C115.842 132.432 115.972 132.185 116.076 131.879L116.857 129.828ZM115.461 120.434L117.854 128.217L118.273 130.941L116.496 131.264L112.678 120.434H115.461ZM123.088 125.824V125.619C123.088 124.844 123.199 124.132 123.42 123.48C123.641 122.823 123.964 122.253 124.387 121.771C124.81 121.29 125.327 120.915 125.939 120.648C126.551 120.375 127.248 120.238 128.029 120.238C128.824 120.238 129.527 120.375 130.139 120.648C130.757 120.915 131.278 121.29 131.701 121.771C132.124 122.253 132.447 122.823 132.668 123.48C132.889 124.132 133 124.844 133 125.619V125.824C133 126.592 132.889 127.305 132.668 127.963C132.447 128.614 132.124 129.184 131.701 129.672C131.278 130.154 130.76 130.528 130.148 130.795C129.536 131.062 128.837 131.195 128.049 131.195C127.268 131.195 126.568 131.062 125.949 130.795C125.331 130.528 124.81 130.154 124.387 129.672C123.964 129.184 123.641 128.614 123.42 127.963C123.199 127.305 123.088 126.592 123.088 125.824ZM125.666 125.619V125.824C125.666 126.286 125.712 126.719 125.803 127.123C125.894 127.527 126.034 127.882 126.223 128.188C126.411 128.493 126.656 128.734 126.955 128.91C127.261 129.079 127.626 129.164 128.049 129.164C128.465 129.164 128.824 129.079 129.123 128.91C129.423 128.734 129.667 128.493 129.855 128.188C130.051 127.882 130.194 127.527 130.285 127.123C130.376 126.719 130.422 126.286 130.422 125.824V125.619C130.422 125.163 130.376 124.737 130.285 124.34C130.194 123.936 130.051 123.581 129.855 123.275C129.667 122.963 129.419 122.719 129.113 122.543C128.814 122.361 128.452 122.27 128.029 122.27C127.613 122.27 127.255 122.361 126.955 122.543C126.656 122.719 126.411 122.963 126.223 123.275C126.034 123.581 125.894 123.936 125.803 124.34C125.712 124.737 125.666 125.163 125.666 125.619ZM141.164 128.49V120.434H143.762V131H141.32L141.164 128.49ZM141.496 126.303L142.297 126.283C142.297 126.993 142.219 127.647 142.062 128.246C141.906 128.845 141.662 129.366 141.33 129.809C141.005 130.245 140.591 130.587 140.09 130.834C139.589 131.075 138.996 131.195 138.312 131.195C137.792 131.195 137.316 131.124 136.887 130.98C136.457 130.831 136.086 130.6 135.773 130.287C135.467 129.968 135.23 129.561 135.061 129.066C134.891 128.565 134.807 127.963 134.807 127.26V120.434H137.385V127.279C137.385 127.631 137.424 127.924 137.502 128.158C137.587 128.393 137.701 128.585 137.844 128.734C137.993 128.878 138.166 128.982 138.361 129.047C138.563 129.105 138.778 129.135 139.006 129.135C139.631 129.135 140.122 129.011 140.48 128.764C140.845 128.51 141.105 128.171 141.262 127.748C141.418 127.318 141.496 126.837 141.496 126.303ZM148.625 122.592V131H146.047V120.434H148.488L148.625 122.592ZM151.838 120.365L151.799 122.768C151.656 122.742 151.493 122.722 151.311 122.709C151.135 122.696 150.969 122.689 150.812 122.689C150.415 122.689 150.067 122.745 149.768 122.855C149.468 122.96 149.217 123.113 149.016 123.314C148.82 123.516 148.671 123.764 148.566 124.057C148.462 124.343 148.404 124.669 148.391 125.033L147.834 124.965C147.834 124.294 147.902 123.673 148.039 123.1C148.176 122.527 148.374 122.025 148.635 121.596C148.895 121.166 149.221 120.834 149.611 120.6C150.008 120.359 150.464 120.238 150.979 120.238C151.122 120.238 151.275 120.251 151.438 120.277C151.607 120.297 151.74 120.326 151.838 120.365ZM161.496 131H158.898V119.848C158.898 118.975 159.074 118.24 159.426 117.641C159.784 117.035 160.295 116.576 160.959 116.264C161.63 115.951 162.427 115.795 163.352 115.795C163.892 115.795 164.413 115.85 164.914 115.961C165.422 116.065 165.943 116.202 166.477 116.371L166.096 118.461C165.751 118.35 165.373 118.246 164.963 118.148C164.559 118.051 164.081 118.002 163.527 118.002C162.844 118.002 162.333 118.158 161.994 118.471C161.662 118.783 161.496 119.242 161.496 119.848V131ZM163.605 120.434V122.289H157.307V120.434H163.605ZM167.688 120.434V131H165.1V120.434H167.688ZM172.766 122.592V131H170.188V120.434H172.629L172.766 122.592ZM175.979 120.365L175.939 122.768C175.796 122.742 175.633 122.722 175.451 122.709C175.275 122.696 175.109 122.689 174.953 122.689C174.556 122.689 174.208 122.745 173.908 122.855C173.609 122.96 173.358 123.113 173.156 123.314C172.961 123.516 172.811 123.764 172.707 124.057C172.603 124.343 172.544 124.669 172.531 125.033L171.975 124.965C171.975 124.294 172.043 123.673 172.18 123.1C172.316 122.527 172.515 122.025 172.775 121.596C173.036 121.166 173.361 120.834 173.752 120.6C174.149 120.359 174.605 120.238 175.119 120.238C175.262 120.238 175.415 120.251 175.578 120.277C175.747 120.297 175.881 120.326 175.979 120.365ZM183.205 128.109C183.205 127.888 183.146 127.689 183.029 127.514C182.912 127.338 182.691 127.178 182.365 127.035C182.046 126.885 181.577 126.745 180.959 126.615C180.412 126.498 179.908 126.352 179.445 126.176C178.983 126 178.586 125.788 178.254 125.541C177.922 125.287 177.661 124.991 177.473 124.652C177.29 124.307 177.199 123.91 177.199 123.461C177.199 123.025 177.294 122.615 177.482 122.23C177.671 121.84 177.945 121.498 178.303 121.205C178.661 120.906 179.097 120.671 179.611 120.502C180.126 120.326 180.705 120.238 181.35 120.238C182.248 120.238 183.02 120.385 183.664 120.678C184.315 120.971 184.813 121.374 185.158 121.889C185.503 122.396 185.676 122.969 185.676 123.607H183.098C183.098 123.327 183.033 123.074 182.902 122.846C182.779 122.618 182.587 122.436 182.326 122.299C182.066 122.156 181.737 122.084 181.34 122.084C180.982 122.084 180.679 122.143 180.432 122.26C180.191 122.377 180.008 122.53 179.885 122.719C179.761 122.908 179.699 123.116 179.699 123.344C179.699 123.513 179.732 123.666 179.797 123.803C179.868 123.933 179.982 124.053 180.139 124.164C180.295 124.275 180.507 124.376 180.773 124.467C181.047 124.558 181.382 124.646 181.779 124.73C182.567 124.887 183.254 125.095 183.84 125.355C184.432 125.609 184.895 125.948 185.227 126.371C185.559 126.794 185.725 127.335 185.725 127.992C185.725 128.461 185.624 128.891 185.422 129.281C185.22 129.665 184.927 130.001 184.543 130.287C184.159 130.574 183.7 130.798 183.166 130.961C182.632 131.117 182.03 131.195 181.359 131.195C180.389 131.195 179.569 131.023 178.898 130.678C178.228 130.326 177.72 129.883 177.375 129.35C177.03 128.809 176.857 128.249 176.857 127.67H179.328C179.348 128.08 179.458 128.409 179.66 128.656C179.862 128.904 180.116 129.083 180.422 129.193C180.734 129.298 181.063 129.35 181.408 129.35C181.799 129.35 182.128 129.298 182.395 129.193C182.661 129.083 182.863 128.936 183 128.754C183.137 128.565 183.205 128.35 183.205 128.109ZM192.688 120.434V122.289H186.633V120.434H192.688ZM188.254 117.836H190.842V127.953C190.842 128.266 190.884 128.507 190.969 128.676C191.053 128.845 191.18 128.959 191.35 129.018C191.519 129.076 191.721 129.105 191.955 129.105C192.124 129.105 192.281 129.096 192.424 129.076C192.567 129.057 192.688 129.037 192.785 129.018L192.795 130.951C192.58 131.023 192.336 131.081 192.062 131.127C191.796 131.173 191.493 131.195 191.154 131.195C190.575 131.195 190.067 131.098 189.631 130.902C189.195 130.701 188.856 130.378 188.615 129.936C188.374 129.486 188.254 128.894 188.254 128.158V117.836ZM205.197 128.109C205.197 127.888 205.139 127.689 205.021 127.514C204.904 127.338 204.683 127.178 204.357 127.035C204.038 126.885 203.57 126.745 202.951 126.615C202.404 126.498 201.9 126.352 201.438 126.176C200.975 126 200.578 125.788 200.246 125.541C199.914 125.287 199.654 124.991 199.465 124.652C199.283 124.307 199.191 123.91 199.191 123.461C199.191 123.025 199.286 122.615 199.475 122.23C199.663 121.84 199.937 121.498 200.295 121.205C200.653 120.906 201.089 120.671 201.604 120.502C202.118 120.326 202.697 120.238 203.342 120.238C204.24 120.238 205.012 120.385 205.656 120.678C206.307 120.971 206.805 121.374 207.15 121.889C207.495 122.396 207.668 122.969 207.668 123.607H205.09C205.09 123.327 205.025 123.074 204.895 122.846C204.771 122.618 204.579 122.436 204.318 122.299C204.058 122.156 203.729 122.084 203.332 122.084C202.974 122.084 202.671 122.143 202.424 122.26C202.183 122.377 202.001 122.53 201.877 122.719C201.753 122.908 201.691 123.116 201.691 123.344C201.691 123.513 201.724 123.666 201.789 123.803C201.861 123.933 201.975 124.053 202.131 124.164C202.287 124.275 202.499 124.376 202.766 124.467C203.039 124.558 203.374 124.646 203.771 124.73C204.559 124.887 205.246 125.095 205.832 125.355C206.424 125.609 206.887 125.948 207.219 126.371C207.551 126.794 207.717 127.335 207.717 127.992C207.717 128.461 207.616 128.891 207.414 129.281C207.212 129.665 206.919 130.001 206.535 130.287C206.151 130.574 205.692 130.798 205.158 130.961C204.624 131.117 204.022 131.195 203.352 131.195C202.382 131.195 201.561 131.023 200.891 130.678C200.22 130.326 199.712 129.883 199.367 129.35C199.022 128.809 198.85 128.249 198.85 127.67H201.32C201.34 128.08 201.451 128.409 201.652 128.656C201.854 128.904 202.108 129.083 202.414 129.193C202.727 129.298 203.055 129.35 203.4 129.35C203.791 129.35 204.12 129.298 204.387 129.193C204.654 129.083 204.855 128.936 204.992 128.754C205.129 128.565 205.197 128.35 205.197 128.109ZM214.016 129.164C214.38 129.164 214.706 129.092 214.992 128.949C215.279 128.806 215.507 128.604 215.676 128.344C215.852 128.083 215.946 127.781 215.959 127.436H218.391C218.378 128.152 218.176 128.793 217.785 129.359C217.395 129.926 216.874 130.375 216.223 130.707C215.578 131.033 214.855 131.195 214.055 131.195C213.241 131.195 212.531 131.059 211.926 130.785C211.32 130.512 210.816 130.131 210.412 129.643C210.015 129.154 209.715 128.588 209.514 127.943C209.318 127.299 209.221 126.609 209.221 125.873V125.561C209.221 124.825 209.318 124.135 209.514 123.49C209.715 122.846 210.015 122.279 210.412 121.791C210.816 121.303 211.32 120.922 211.926 120.648C212.531 120.375 213.238 120.238 214.045 120.238C214.898 120.238 215.646 120.404 216.291 120.736C216.942 121.068 217.45 121.537 217.814 122.143C218.186 122.748 218.378 123.461 218.391 124.281H215.959C215.946 123.904 215.861 123.565 215.705 123.266C215.549 122.966 215.327 122.725 215.041 122.543C214.755 122.361 214.406 122.27 213.996 122.27C213.56 122.27 213.195 122.361 212.902 122.543C212.616 122.725 212.391 122.976 212.229 123.295C212.072 123.607 211.962 123.959 211.896 124.35C211.838 124.734 211.809 125.137 211.809 125.561V125.873C211.809 126.303 211.838 126.713 211.896 127.104C211.962 127.494 212.072 127.846 212.229 128.158C212.391 128.464 212.616 128.708 212.902 128.891C213.195 129.073 213.566 129.164 214.016 129.164ZM222.639 116V131H220.051V116H222.639ZM222.229 125.336H221.467C221.467 124.6 221.564 123.923 221.76 123.305C221.955 122.686 222.232 122.149 222.59 121.693C222.948 121.231 223.374 120.873 223.869 120.619C224.37 120.365 224.924 120.238 225.529 120.238C226.05 120.238 226.522 120.313 226.945 120.463C227.375 120.606 227.743 120.837 228.049 121.156C228.355 121.475 228.589 121.892 228.752 122.406C228.921 122.914 229.006 123.533 229.006 124.262V131H226.408V124.242C226.408 123.754 226.337 123.37 226.193 123.09C226.05 122.803 225.845 122.598 225.578 122.475C225.318 122.351 224.995 122.289 224.611 122.289C224.195 122.289 223.837 122.37 223.537 122.533C223.238 122.689 222.99 122.908 222.795 123.188C222.606 123.467 222.463 123.79 222.365 124.154C222.274 124.519 222.229 124.913 222.229 125.336ZM236.027 131.195C235.227 131.195 234.507 131.065 233.869 130.805C233.231 130.544 232.688 130.183 232.238 129.721C231.796 129.252 231.454 128.708 231.213 128.09C230.979 127.465 230.861 126.794 230.861 126.078V125.688C230.861 124.874 230.979 124.135 231.213 123.471C231.447 122.8 231.779 122.224 232.209 121.742C232.639 121.26 233.153 120.889 233.752 120.629C234.351 120.368 235.012 120.238 235.734 120.238C236.483 120.238 237.144 120.365 237.717 120.619C238.29 120.867 238.768 121.218 239.152 121.674C239.536 122.13 239.826 122.676 240.021 123.314C240.217 123.946 240.314 124.646 240.314 125.414V126.498H232.033V124.721H237.775V124.525C237.762 124.115 237.684 123.741 237.541 123.402C237.398 123.057 237.176 122.784 236.877 122.582C236.577 122.374 236.19 122.27 235.715 122.27C235.331 122.27 234.995 122.354 234.709 122.523C234.429 122.686 234.195 122.921 234.006 123.227C233.824 123.526 233.687 123.884 233.596 124.301C233.505 124.717 233.459 125.18 233.459 125.688V126.078C233.459 126.521 233.518 126.931 233.635 127.309C233.758 127.686 233.938 128.015 234.172 128.295C234.413 128.568 234.699 128.783 235.031 128.939C235.37 129.089 235.754 129.164 236.184 129.164C236.724 129.164 237.212 129.06 237.648 128.852C238.091 128.637 238.475 128.321 238.801 127.904L240.1 129.252C239.878 129.577 239.579 129.89 239.201 130.189C238.83 130.489 238.381 130.733 237.854 130.922C237.326 131.104 236.717 131.195 236.027 131.195ZM248.381 128.754V116H250.979V131H248.635L248.381 128.754ZM241.594 125.844V125.639C241.594 124.831 241.685 124.099 241.867 123.441C242.056 122.777 242.329 122.208 242.688 121.732C243.046 121.257 243.479 120.889 243.986 120.629C244.501 120.368 245.083 120.238 245.734 120.238C246.366 120.238 246.916 120.365 247.385 120.619C247.86 120.873 248.264 121.234 248.596 121.703C248.934 122.172 249.204 122.729 249.406 123.373C249.608 124.011 249.755 124.714 249.846 125.482V126.039C249.755 126.788 249.608 127.475 249.406 128.1C249.204 128.725 248.934 129.271 248.596 129.74C248.264 130.202 247.86 130.561 247.385 130.814C246.91 131.068 246.353 131.195 245.715 131.195C245.07 131.195 244.491 131.062 243.977 130.795C243.469 130.528 243.036 130.154 242.678 129.672C242.326 129.19 242.056 128.624 241.867 127.973C241.685 127.322 241.594 126.612 241.594 125.844ZM244.182 125.639V125.844C244.182 126.299 244.221 126.726 244.299 127.123C244.377 127.52 244.504 127.872 244.68 128.178C244.855 128.477 245.08 128.712 245.354 128.881C245.633 129.05 245.972 129.135 246.369 129.135C246.877 129.135 247.294 129.024 247.619 128.803C247.951 128.575 248.208 128.266 248.391 127.875C248.573 127.478 248.69 127.032 248.742 126.537V125.004C248.716 124.613 248.648 124.252 248.537 123.92C248.433 123.588 248.283 123.301 248.088 123.061C247.899 122.82 247.665 122.631 247.385 122.494C247.105 122.357 246.773 122.289 246.389 122.289C245.992 122.289 245.653 122.377 245.373 122.553C245.093 122.722 244.865 122.96 244.689 123.266C244.514 123.572 244.383 123.926 244.299 124.33C244.221 124.734 244.182 125.17 244.182 125.639ZM259.602 128.49V120.434H262.199V131H259.758L259.602 128.49ZM259.934 126.303L260.734 126.283C260.734 126.993 260.656 127.647 260.5 128.246C260.344 128.845 260.1 129.366 259.768 129.809C259.442 130.245 259.029 130.587 258.527 130.834C258.026 131.075 257.434 131.195 256.75 131.195C256.229 131.195 255.754 131.124 255.324 130.98C254.895 130.831 254.523 130.6 254.211 130.287C253.905 129.968 253.667 129.561 253.498 129.066C253.329 128.565 253.244 127.963 253.244 127.26V120.434H255.822V127.279C255.822 127.631 255.861 127.924 255.939 128.158C256.024 128.393 256.138 128.585 256.281 128.734C256.431 128.878 256.604 128.982 256.799 129.047C257.001 129.105 257.215 129.135 257.443 129.135C258.068 129.135 258.56 129.011 258.918 128.764C259.283 128.51 259.543 128.171 259.699 127.748C259.855 127.318 259.934 126.837 259.934 126.303ZM267.219 116V131H264.631V116H267.219ZM274.426 131.195C273.625 131.195 272.906 131.065 272.268 130.805C271.63 130.544 271.086 130.183 270.637 129.721C270.194 129.252 269.852 128.708 269.611 128.09C269.377 127.465 269.26 126.794 269.26 126.078V125.688C269.26 124.874 269.377 124.135 269.611 123.471C269.846 122.8 270.178 122.224 270.607 121.742C271.037 121.26 271.551 120.889 272.15 120.629C272.749 120.368 273.41 120.238 274.133 120.238C274.882 120.238 275.542 120.365 276.115 120.619C276.688 120.867 277.167 121.218 277.551 121.674C277.935 122.13 278.225 122.676 278.42 123.314C278.615 123.946 278.713 124.646 278.713 125.414V126.498H270.432V124.721H276.174V124.525C276.161 124.115 276.083 123.741 275.939 123.402C275.796 123.057 275.575 122.784 275.275 122.582C274.976 122.374 274.589 122.27 274.113 122.27C273.729 122.27 273.394 122.354 273.107 122.523C272.827 122.686 272.593 122.921 272.404 123.227C272.222 123.526 272.085 123.884 271.994 124.301C271.903 124.717 271.857 125.18 271.857 125.688V126.078C271.857 126.521 271.916 126.931 272.033 127.309C272.157 127.686 272.336 128.015 272.57 128.295C272.811 128.568 273.098 128.783 273.43 128.939C273.768 129.089 274.152 129.164 274.582 129.164C275.122 129.164 275.611 129.06 276.047 128.852C276.49 128.637 276.874 128.321 277.199 127.904L278.498 129.252C278.277 129.577 277.977 129.89 277.6 130.189C277.229 130.489 276.779 130.733 276.252 130.922C275.725 131.104 275.116 131.195 274.426 131.195Z" fill="#6F219E"/>
</svg>
