<svg width="18" height="18" viewBox="0 0 18 18" fill="none" xmlns="http://www.w3.org/2000/svg">
<path fill-rule="evenodd" clip-rule="evenodd" d="M9 2.6C5.46538 2.6 2.6 5.46538 2.6 9C2.6 12.5346 5.46538 15.4 9 15.4C12.5346 15.4 15.4 12.5346 15.4 9C15.4 5.46538 12.5346 2.6 9 2.6ZM1 9C1 4.58172 4.58172 1 9 1C13.4183 1 17 4.58172 17 9C17 13.4183 13.4183 17 9 17C4.58172 17 1 13.4183 1 9Z" fill="#DAA718"/>
<path fill-rule="evenodd" clip-rule="evenodd" d="M9.00313 3.88281C9.44495 3.88281 9.80313 4.24098 9.80313 4.68281V8.50838L12.2409 9.72727C12.6361 9.92486 12.7963 10.4054 12.5987 10.8006C12.4011 11.1958 11.9205 11.3559 11.5254 11.1584L8.64535 9.71835C8.37433 9.58284 8.20312 9.30583 8.20312 9.00281V4.68281C8.20312 4.24098 8.5613 3.88281 9.00313 3.88281Z" fill="#DAA718"/>
</svg>
