<svg width="19" height="18" viewBox="0 0 19 18" fill="none" xmlns="http://www.w3.org/2000/svg">
<path d="M16.3676 0C16.294 0 16.2239 0.0346996 16.1504 0.108262L15.6299 0.628754L15.4134 0.411536L15.1094 0.693295L15.3481 0.932028L15.0442 1.21448L14.8276 0.997263L14.5237 1.30123L14.7409 1.51775L14.2419 2.03825C14.0927 2.18745 14.0927 2.32278 14.2419 2.47199L11.3362 5.37842C10.688 4.86001 9.99677 4.46721 9.34095 4.2722C8.12092 3.91132 7.03691 4.17157 6.1958 5.00921C5.82451 5.3805 5.59688 5.83367 5.50181 6.37568C5.35052 7.25427 4.57533 7.93993 3.65857 8.00239C2.65853 8.06971 1.77994 8.47153 1.12134 9.13012C-0.616405 10.8679 -0.301333 14.0207 1.83685 16.1568C3.05133 17.3712 4.59893 18 6.02299 18C7.107 18 8.11259 17.6232 8.86349 16.8723C9.52278 16.213 9.92391 15.3351 9.99122 14.335C10.0537 13.419 10.7178 12.6431 11.5964 12.4911C12.1384 12.3967 12.6131 12.1691 12.9844 11.7971C13.822 10.9595 14.0823 9.87269 13.7214 8.65335C13.602 8.24598 13.3883 7.83167 13.1364 7.41666L12.1162 8.43613C12.2252 8.64433 12.3175 8.84559 12.3772 9.04337C12.5909 9.76443 12.4771 10.3522 12.008 10.8214C11.84 10.9872 11.6401 11.0788 11.3792 11.1253C9.87741 11.3856 8.70665 12.7028 8.60324 14.2483C8.56022 14.9069 8.30483 15.4767 7.88774 15.8965C6.68922 17.0916 4.43167 16.7779 2.8348 15.1803C1.23793 13.5841 0.902044 11.3009 2.09709 10.1059C2.51765 9.68809 3.08672 9.4334 3.74532 9.39037C5.29083 9.28696 6.60525 8.1162 6.86827 6.61441C6.91477 6.35417 7.00429 6.1536 7.17224 5.98566C7.49494 5.66295 7.86345 5.50819 8.29997 5.50819C8.49776 5.50819 8.72539 5.54914 8.95024 5.61646C9.38745 5.74692 9.87463 6.0044 10.3382 6.35417L8.01821 8.67487C7.76382 8.61634 7.49951 8.61592 7.24494 8.67364C6.99037 8.73136 6.75208 8.84573 6.54782 9.00825C6.34355 9.17077 6.17855 9.37726 6.0651 9.61235C5.95164 9.84744 5.89266 10.1051 5.89252 10.3661C5.89252 11.3224 6.67048 12.1004 7.6275 12.1004C8.58451 12.1004 9.36247 11.3224 9.36247 10.3654C9.36247 10.2599 9.33818 10.1621 9.31875 10.0615L15.6299 3.7288C15.7791 3.87801 15.9366 3.87801 16.0858 3.7288L16.6063 3.20831L16.8229 3.42553L17.1046 3.14377L16.8881 2.92655L17.1914 2.62328L17.3433 2.92655L17.6251 2.62328L17.4086 2.40606L17.9291 1.88557C18.0783 1.73636 18.0783 1.57952 17.9291 1.43031L16.6056 0.107568C16.543 0.0424172 16.4579 0.00437744 16.3676 0ZM16.3024 0.844585L16.6063 1.14855L15.2614 2.47199L14.9796 2.19023L16.3024 0.844585ZM16.8881 1.36508L17.1914 1.66904L15.8471 2.99179L15.5647 2.68782L16.8881 1.36508ZM4.22278 11.5376L3.24703 12.5133L5.48029 14.7466L6.45604 13.7708L4.22278 11.5376Z" fill="#DAA718"/>
</svg>
