<svg width="351" height="180" viewBox="0 0 351 180" fill="none" xmlns="http://www.w3.org/2000/svg">
<rect width="351" height="180" rx="12" fill="#DDB5FD"/>
<rect x="1" y="1" width="349" height="170" rx="11" fill="white"/>
<rect x="1" y="1" width="349" height="170" rx="11" stroke="#DDB5FD" stroke-width="2"/>
<path d="M18.5293 22.7812H20.8535L24.7402 33.4844L28.6172 22.7812H30.9512L25.668 37H23.8027L18.5293 22.7812ZM17.3574 22.7812H19.6328L20.043 32.6152V37H17.3574V22.7812ZM29.8379 22.7812H32.123V37H29.4375V32.6152L29.8379 22.7812ZM40.9512 34.4902V26.4336H43.5488V37H41.1074L40.9512 34.4902ZM41.2832 32.3027L42.084 32.2832C42.084 32.9928 42.0059 33.6471 41.8496 34.2461C41.6934 34.8451 41.4492 35.3659 41.1172 35.8086C40.7917 36.2448 40.3783 36.5866 39.877 36.834C39.3757 37.0749 38.7832 37.1953 38.0996 37.1953C37.5788 37.1953 37.1035 37.1237 36.6738 36.9805C36.2441 36.8307 35.873 36.5996 35.5605 36.2871C35.2546 35.9681 35.0169 35.5612 34.8477 35.0664C34.6784 34.5651 34.5938 33.9629 34.5938 33.2598V26.4336H37.1719V33.2793C37.1719 33.6309 37.2109 33.9238 37.2891 34.1582C37.3737 34.3926 37.4876 34.5846 37.6309 34.7344C37.7806 34.8776 37.9531 34.9818 38.1484 35.0469C38.3503 35.1055 38.5651 35.1348 38.793 35.1348C39.418 35.1348 39.9095 35.0111 40.2676 34.7637C40.6322 34.5098 40.8926 34.1712 41.0488 33.748C41.2051 33.3184 41.2832 32.8366 41.2832 32.3027ZM51.6445 34.1094C51.6445 33.888 51.5859 33.6895 51.4688 33.5137C51.3516 33.3379 51.1302 33.1784 50.8047 33.0352C50.4857 32.8854 50.0169 32.7454 49.3984 32.6152C48.8516 32.498 48.347 32.3516 47.8848 32.1758C47.4225 32 47.0254 31.7884 46.6934 31.541C46.3613 31.2871 46.1009 30.9909 45.9121 30.6523C45.7298 30.3073 45.6387 29.9102 45.6387 29.4609C45.6387 29.0247 45.7331 28.6146 45.9219 28.2305C46.1107 27.8398 46.3841 27.498 46.7422 27.2051C47.1003 26.9056 47.5365 26.6712 48.0508 26.502C48.5651 26.3262 49.1445 26.2383 49.7891 26.2383C50.6875 26.2383 51.459 26.3848 52.1035 26.6777C52.7546 26.9707 53.2526 27.3743 53.5977 27.8887C53.9427 28.3965 54.1152 28.9694 54.1152 29.6074H51.5371C51.5371 29.3275 51.472 29.0736 51.3418 28.8457C51.2181 28.6178 51.026 28.4355 50.7656 28.2988C50.5052 28.1556 50.1764 28.084 49.7793 28.084C49.4212 28.084 49.1185 28.1426 48.8711 28.2598C48.6302 28.377 48.4479 28.5299 48.3242 28.7188C48.2005 28.9076 48.1387 29.1159 48.1387 29.3438C48.1387 29.513 48.1712 29.666 48.2363 29.8027C48.3079 29.9329 48.4219 30.0534 48.5781 30.1641C48.7344 30.2747 48.946 30.3757 49.2129 30.4668C49.4863 30.5579 49.8216 30.6458 50.2188 30.7305C51.0065 30.8867 51.6934 31.0951 52.2793 31.3555C52.8717 31.6094 53.334 31.9479 53.666 32.3711C53.998 32.7943 54.1641 33.3346 54.1641 33.9922C54.1641 34.4609 54.0632 34.8906 53.8613 35.2812C53.6595 35.6654 53.3665 36.0007 52.9824 36.2871C52.5983 36.5736 52.1393 36.7982 51.6055 36.9609C51.0716 37.1172 50.4694 37.1953 49.7988 37.1953C48.8288 37.1953 48.0085 37.0228 47.3379 36.6777C46.6673 36.3262 46.1595 35.8835 45.8145 35.3496C45.4694 34.8092 45.2969 34.2493 45.2969 33.6699H47.7676C47.7871 34.0801 47.8978 34.4089 48.0996 34.6562C48.3014 34.9036 48.5553 35.0827 48.8613 35.1934C49.1738 35.2975 49.5026 35.3496 49.8477 35.3496C50.2383 35.3496 50.5671 35.2975 50.834 35.1934C51.1009 35.0827 51.3027 34.9362 51.4395 34.7539C51.5762 34.5651 51.6445 34.3503 51.6445 34.1094ZM58.8613 26.4336V37H56.2734V26.4336H58.8613ZM56.0977 23.6699C56.0977 23.2858 56.2279 22.9668 56.4883 22.7129C56.7552 22.459 57.1133 22.332 57.5625 22.332C58.0117 22.332 58.3665 22.459 58.627 22.7129C58.8939 22.9668 59.0273 23.2858 59.0273 23.6699C59.0273 24.0475 58.8939 24.3633 58.627 24.6172C58.3665 24.8711 58.0117 24.998 57.5625 24.998C57.1133 24.998 56.7552 24.8711 56.4883 24.6172C56.2279 24.3633 56.0977 24.0475 56.0977 23.6699ZM65.6582 35.1641C66.0228 35.1641 66.3483 35.0924 66.6348 34.9492C66.9212 34.806 67.1491 34.6042 67.3184 34.3438C67.4941 34.0833 67.5885 33.7806 67.6016 33.4355H70.0332C70.0202 34.1517 69.8184 34.793 69.4277 35.3594C69.0371 35.9258 68.5163 36.375 67.8652 36.707C67.2207 37.0326 66.498 37.1953 65.6973 37.1953C64.8835 37.1953 64.1738 37.0586 63.5684 36.7852C62.9629 36.5117 62.4583 36.1309 62.0547 35.6426C61.6576 35.1543 61.3581 34.5879 61.1562 33.9434C60.9609 33.2988 60.8633 32.6087 60.8633 31.873V31.5605C60.8633 30.8249 60.9609 30.1348 61.1562 29.4902C61.3581 28.8457 61.6576 28.2793 62.0547 27.791C62.4583 27.3027 62.9629 26.9219 63.5684 26.6484C64.1738 26.375 64.8802 26.2383 65.6875 26.2383C66.5404 26.2383 67.2891 26.4043 67.9336 26.7363C68.5846 27.0684 69.0924 27.5371 69.457 28.1426C69.8281 28.748 70.0202 29.4609 70.0332 30.2812H67.6016C67.5885 29.9036 67.5039 29.5651 67.3477 29.2656C67.1914 28.9661 66.9701 28.7253 66.6836 28.543C66.3971 28.3607 66.0488 28.2695 65.6387 28.2695C65.2025 28.2695 64.8379 28.3607 64.5449 28.543C64.2585 28.7253 64.0339 28.9759 63.8711 29.2949C63.7148 29.6074 63.6042 29.959 63.5391 30.3496C63.4805 30.7337 63.4512 31.1374 63.4512 31.5605V31.873C63.4512 32.3027 63.4805 32.7129 63.5391 33.1035C63.6042 33.4941 63.7148 33.8457 63.8711 34.1582C64.0339 34.4642 64.2585 34.7083 64.5449 34.8906C64.8379 35.0729 65.209 35.1641 65.6582 35.1641ZM82.543 34.1094C82.543 33.888 82.4844 33.6895 82.3672 33.5137C82.25 33.3379 82.0286 33.1784 81.7031 33.0352C81.3841 32.8854 80.9154 32.7454 80.2969 32.6152C79.75 32.498 79.2454 32.3516 78.7832 32.1758C78.321 32 77.9238 31.7884 77.5918 31.541C77.2598 31.2871 76.9993 30.9909 76.8105 30.6523C76.6283 30.3073 76.5371 29.9102 76.5371 29.4609C76.5371 29.0247 76.6315 28.6146 76.8203 28.2305C77.0091 27.8398 77.2826 27.498 77.6406 27.2051C77.9987 26.9056 78.4349 26.6712 78.9492 26.502C79.4635 26.3262 80.043 26.2383 80.6875 26.2383C81.5859 26.2383 82.3574 26.3848 83.002 26.6777C83.653 26.9707 84.151 27.3743 84.4961 27.8887C84.8411 28.3965 85.0137 28.9694 85.0137 29.6074H82.4355C82.4355 29.3275 82.3704 29.0736 82.2402 28.8457C82.1165 28.6178 81.9245 28.4355 81.6641 28.2988C81.4036 28.1556 81.0749 28.084 80.6777 28.084C80.3197 28.084 80.0169 28.1426 79.7695 28.2598C79.5286 28.377 79.3464 28.5299 79.2227 28.7188C79.099 28.9076 79.0371 29.1159 79.0371 29.3438C79.0371 29.513 79.0697 29.666 79.1348 29.8027C79.2064 29.9329 79.3203 30.0534 79.4766 30.1641C79.6328 30.2747 79.8444 30.3757 80.1113 30.4668C80.3848 30.5579 80.7201 30.6458 81.1172 30.7305C81.9049 30.8867 82.5918 31.0951 83.1777 31.3555C83.7702 31.6094 84.2324 31.9479 84.5645 32.3711C84.8965 32.7943 85.0625 33.3346 85.0625 33.9922C85.0625 34.4609 84.9616 34.8906 84.7598 35.2812C84.5579 35.6654 84.265 36.0007 83.8809 36.2871C83.4967 36.5736 83.0378 36.7982 82.5039 36.9609C81.9701 37.1172 81.3678 37.1953 80.6973 37.1953C79.7272 37.1953 78.9069 37.0228 78.2363 36.6777C77.5658 36.3262 77.0579 35.8835 76.7129 35.3496C76.3678 34.8092 76.1953 34.2493 76.1953 33.6699H78.666C78.6855 34.0801 78.7962 34.4089 78.998 34.6562C79.1999 34.9036 79.4538 35.0827 79.7598 35.1934C80.0723 35.2975 80.401 35.3496 80.7461 35.3496C81.1367 35.3496 81.4655 35.2975 81.7324 35.1934C81.9993 35.0827 82.2012 34.9362 82.3379 34.7539C82.4746 34.5651 82.543 34.3503 82.543 34.1094ZM92.0254 26.4336V28.2891H85.9707V26.4336H92.0254ZM87.5918 23.8359H90.1797V33.9531C90.1797 34.2656 90.222 34.5065 90.3066 34.6758C90.3913 34.8451 90.5182 34.959 90.6875 35.0176C90.8568 35.0762 91.0586 35.1055 91.293 35.1055C91.4622 35.1055 91.6185 35.0957 91.7617 35.0762C91.9049 35.0566 92.0254 35.0371 92.123 35.0176L92.1328 36.9512C91.918 37.0228 91.6738 37.0814 91.4004 37.127C91.1335 37.1725 90.8307 37.1953 90.4922 37.1953C89.9128 37.1953 89.4049 37.0977 88.9688 36.9023C88.5326 36.7005 88.194 36.3783 87.9531 35.9355C87.7122 35.4863 87.5918 34.8939 87.5918 34.1582V23.8359ZM100.033 34.4902V26.4336H102.631V37H100.189L100.033 34.4902ZM100.365 32.3027L101.166 32.2832C101.166 32.9928 101.088 33.6471 100.932 34.2461C100.775 34.8451 100.531 35.3659 100.199 35.8086C99.8737 36.2448 99.4603 36.5866 98.959 36.834C98.4577 37.0749 97.8652 37.1953 97.1816 37.1953C96.6608 37.1953 96.1855 37.1237 95.7559 36.9805C95.3262 36.8307 94.9551 36.5996 94.6426 36.2871C94.3366 35.9681 94.099 35.5612 93.9297 35.0664C93.7604 34.5651 93.6758 33.9629 93.6758 33.2598V26.4336H96.2539V33.2793C96.2539 33.6309 96.293 33.9238 96.3711 34.1582C96.4557 34.3926 96.5697 34.5846 96.7129 34.7344C96.8626 34.8776 97.0352 34.9818 97.2305 35.0469C97.4323 35.1055 97.6471 35.1348 97.875 35.1348C98.5 35.1348 98.9915 35.0111 99.3496 34.7637C99.7142 34.5098 99.9746 34.1712 100.131 33.748C100.287 33.3184 100.365 32.8366 100.365 32.3027ZM111.254 34.7539V22H113.852V37H111.508L111.254 34.7539ZM104.467 31.8438V31.6387C104.467 30.8314 104.558 30.099 104.74 29.4414C104.929 28.7773 105.202 28.2077 105.561 27.7324C105.919 27.2572 106.352 26.8893 106.859 26.6289C107.374 26.3685 107.956 26.2383 108.607 26.2383C109.239 26.2383 109.789 26.3652 110.258 26.6191C110.733 26.873 111.137 27.2344 111.469 27.7031C111.807 28.1719 112.077 28.7285 112.279 29.373C112.481 30.0111 112.628 30.7142 112.719 31.4824V32.0391C112.628 32.7878 112.481 33.4746 112.279 34.0996C112.077 34.7246 111.807 35.2715 111.469 35.7402C111.137 36.2025 110.733 36.5605 110.258 36.8145C109.783 37.0684 109.226 37.1953 108.588 37.1953C107.943 37.1953 107.364 37.0618 106.85 36.7949C106.342 36.528 105.909 36.1536 105.551 35.6719C105.199 35.1901 104.929 34.6237 104.74 33.9727C104.558 33.3216 104.467 32.612 104.467 31.8438ZM107.055 31.6387V31.8438C107.055 32.2995 107.094 32.7259 107.172 33.123C107.25 33.5202 107.377 33.8717 107.553 34.1777C107.729 34.4772 107.953 34.7116 108.227 34.8809C108.507 35.0501 108.845 35.1348 109.242 35.1348C109.75 35.1348 110.167 35.0241 110.492 34.8027C110.824 34.5749 111.081 34.2656 111.264 33.875C111.446 33.4779 111.563 33.0319 111.615 32.5371V31.0039C111.589 30.6133 111.521 30.252 111.41 29.9199C111.306 29.5879 111.156 29.3014 110.961 29.0605C110.772 28.8197 110.538 28.6309 110.258 28.4941C109.978 28.3574 109.646 28.2891 109.262 28.2891C108.865 28.2891 108.526 28.377 108.246 28.5527C107.966 28.722 107.738 28.9596 107.562 29.2656C107.387 29.5716 107.257 29.9264 107.172 30.3301C107.094 30.7337 107.055 31.1699 107.055 31.6387ZM119.281 35.8281L122.113 26.4336H124.877L120.639 38.6016C120.541 38.862 120.414 39.1452 120.258 39.4512C120.108 39.7572 119.906 40.0469 119.652 40.3203C119.398 40.6003 119.079 40.8281 118.695 41.0039C118.318 41.1797 117.859 41.2676 117.318 41.2676C117.084 41.2676 116.876 41.2513 116.693 41.2188C116.511 41.1862 116.319 41.1439 116.117 41.0918V39.1582C116.182 39.1647 116.257 39.168 116.342 39.168C116.433 39.1745 116.511 39.1777 116.576 39.1777C116.954 39.1777 117.266 39.1322 117.514 39.041C117.761 38.9564 117.96 38.8164 118.109 38.6211C118.266 38.4323 118.396 38.1849 118.5 37.8789L119.281 35.8281ZM117.885 26.4336L120.277 34.2168L120.697 36.9414L118.92 37.2637L115.102 26.4336H117.885Z" fill="#59371D"/>
<rect x="273" y="16" width="62" height="28" rx="4" fill="#F8D867"/>
<path d="M286.731 37L285.464 34.8667L283.064 34.3333L283.297 31.8667L281.664 30L283.297 28.1333L283.064 25.6667L285.464 25.1333L286.731 23L288.997 23.9667L291.264 23L292.531 25.1333L294.931 25.6667L294.697 28.1333L296.331 30L294.697 31.8667L294.931 34.3333L292.531 34.8667L291.264 37L288.997 36.0333L286.731 37ZM287.297 35.3L288.997 34.5667L290.731 35.3L291.664 33.7L293.497 33.2667L293.331 31.4L294.564 30L293.331 28.5667L293.497 26.7L291.664 26.3L290.697 24.7L288.997 25.4333L287.264 24.7L286.331 26.3L284.497 26.7L284.664 28.5667L283.431 30L284.664 31.4L284.497 33.3L286.331 33.7L287.297 35.3ZM288.297 32.3667L292.064 28.6L291.131 27.6333L288.297 30.4667L286.864 29.0667L285.931 30L288.297 32.3667Z" fill="#6A3D19"/>
<path d="M310.67 25.4688V34H309.053L305.426 28.082V34H303.814V25.4688H305.426L309.064 31.3926V25.4688H310.67ZM315.041 34.1172C314.561 34.1172 314.129 34.0391 313.746 33.8828C313.363 33.7266 313.037 33.5098 312.768 33.2324C312.502 32.9512 312.297 32.625 312.152 32.2539C312.012 31.8789 311.941 31.4766 311.941 31.0469V30.8125C311.941 30.3242 312.012 29.8809 312.152 29.4824C312.293 29.0801 312.492 28.7344 312.75 28.4453C313.008 28.1562 313.316 27.9336 313.676 27.7773C314.035 27.6211 314.432 27.543 314.865 27.543C315.314 27.543 315.711 27.6191 316.055 27.7715C316.398 27.9199 316.686 28.1309 316.916 28.4043C317.146 28.6777 317.32 29.0059 317.438 29.3887C317.555 29.7676 317.613 30.1875 317.613 30.6484V31.2988H312.645V30.2324H316.09V30.1152C316.082 29.8691 316.035 29.6445 315.949 29.4414C315.863 29.2344 315.73 29.0703 315.551 28.9492C315.371 28.8242 315.139 28.7617 314.854 28.7617C314.623 28.7617 314.422 28.8125 314.25 28.9141C314.082 29.0117 313.941 29.1523 313.828 29.3359C313.719 29.5156 313.637 29.7305 313.582 29.9805C313.527 30.2305 313.5 30.5078 313.5 30.8125V31.0469C313.5 31.3125 313.535 31.5586 313.605 31.7852C313.68 32.0117 313.787 32.209 313.928 32.377C314.072 32.541 314.244 32.6699 314.443 32.7637C314.646 32.8535 314.877 32.8984 315.135 32.8984C315.459 32.8984 315.752 32.8359 316.014 32.7109C316.279 32.582 316.51 32.3926 316.705 32.1426L317.484 32.9512C317.352 33.1465 317.172 33.334 316.945 33.5137C316.723 33.6934 316.453 33.8398 316.137 33.9531C315.82 34.0625 315.455 34.1172 315.041 34.1172ZM320.414 32.4766L321.803 27.6602H322.787L322.494 29.3242L321.094 34H320.244L320.414 32.4766ZM319.646 27.6602L320.689 32.4883L320.783 34H319.805L318.141 27.6602H319.646ZM324.076 32.418L325.096 27.6602H326.596L324.943 34H323.965L324.076 32.418ZM322.939 27.6602L324.316 32.4297L324.498 34H323.648L322.236 29.3242L321.949 27.6602H322.939Z" fill="#6A3D19"/>
<path d="M16 60H335" stroke="#ECD6FE" stroke-width="2" stroke-linecap="square"/>
<rect x="16" y="82" width="179" height="8" rx="4" fill="#F5E8FF"/>
<path d="M254.383 85.1484V86.8711C254.383 87.6185 254.303 88.2633 254.144 88.8057C253.984 89.3434 253.754 89.7855 253.453 90.1318C253.157 90.4736 252.804 90.7266 252.394 90.8906C251.983 91.0547 251.528 91.1367 251.026 91.1367C250.625 91.1367 250.252 91.0866 249.905 90.9863C249.559 90.8815 249.247 90.7197 248.969 90.501C248.695 90.2822 248.458 90.0065 248.258 89.6738C248.062 89.3366 247.911 88.9355 247.807 88.4707C247.702 88.0059 247.649 87.4727 247.649 86.8711V85.1484C247.649 84.401 247.729 83.7607 247.889 83.2275C248.053 82.6898 248.283 82.25 248.579 81.9082C248.88 81.5664 249.235 81.3158 249.646 81.1562C250.056 80.9922 250.511 80.9102 251.013 80.9102C251.414 80.9102 251.785 80.9626 252.127 81.0674C252.473 81.1676 252.785 81.3249 253.063 81.5391C253.341 81.7533 253.578 82.029 253.774 82.3662C253.97 82.6989 254.121 83.0977 254.226 83.5625C254.33 84.0228 254.383 84.5514 254.383 85.1484ZM252.407 87.1309V84.8818C252.407 84.5218 252.387 84.2074 252.346 83.9385C252.309 83.6696 252.252 83.4417 252.175 83.2549C252.097 83.0635 252.002 82.9085 251.888 82.79C251.774 82.6715 251.644 82.585 251.498 82.5303C251.352 82.4756 251.19 82.4482 251.013 82.4482C250.789 82.4482 250.591 82.4915 250.418 82.5781C250.249 82.6647 250.106 82.8037 249.987 82.9951C249.869 83.182 249.778 83.4326 249.714 83.7471C249.655 84.057 249.625 84.4352 249.625 84.8818V87.1309C249.625 87.4909 249.643 87.8076 249.68 88.0811C249.721 88.3545 249.78 88.5892 249.857 88.7852C249.939 88.9766 250.035 89.1338 250.145 89.2568C250.258 89.3753 250.388 89.4619 250.534 89.5166C250.685 89.5713 250.849 89.5986 251.026 89.5986C251.245 89.5986 251.439 89.5553 251.607 89.4688C251.781 89.3776 251.926 89.2363 252.045 89.0449C252.168 88.849 252.259 88.5938 252.318 88.2793C252.378 87.9648 252.407 87.582 252.407 87.1309ZM269.853 89.9404H269.982C270.712 89.9404 271.304 89.8379 271.76 89.6328C272.215 89.4277 272.566 89.152 272.812 88.8057C273.059 88.4593 273.227 88.0697 273.318 87.6367C273.41 87.1992 273.455 86.7503 273.455 86.29V84.7656C273.455 84.3145 273.403 83.9134 273.298 83.5625C273.198 83.2116 273.056 82.9176 272.874 82.6807C272.696 82.4437 272.493 82.2637 272.266 82.1406C272.038 82.0176 271.796 81.9561 271.541 81.9561C271.249 81.9561 270.987 82.0153 270.755 82.1338C270.527 82.2477 270.333 82.4095 270.174 82.6191C270.019 82.8288 269.9 83.0749 269.818 83.3574C269.736 83.64 269.695 83.9476 269.695 84.2803C269.695 84.5765 269.732 84.8636 269.805 85.1416C269.878 85.4196 269.989 85.6702 270.14 85.8936C270.29 86.1169 270.477 86.2946 270.7 86.4268C270.928 86.5544 271.195 86.6182 271.5 86.6182C271.783 86.6182 272.047 86.5635 272.293 86.4541C272.544 86.3402 272.765 86.1875 272.956 85.9961C273.152 85.8001 273.307 85.5791 273.421 85.333C273.539 85.0869 273.608 84.8294 273.626 84.5605H274.228C274.228 84.9388 274.152 85.3125 274.002 85.6816C273.856 86.0462 273.651 86.3789 273.387 86.6797C273.122 86.9805 272.812 87.222 272.457 87.4043C272.102 87.582 271.714 87.6709 271.295 87.6709C270.803 87.6709 270.377 87.5752 270.017 87.3838C269.657 87.1924 269.36 86.9372 269.128 86.6182C268.9 86.2992 268.729 85.9437 268.615 85.5518C268.506 85.1553 268.451 84.7542 268.451 84.3486C268.451 83.8747 268.517 83.4303 268.649 83.0156C268.782 82.6009 268.978 82.2363 269.237 81.9219C269.497 81.6029 269.818 81.3545 270.201 81.1768C270.589 80.999 271.035 80.9102 271.541 80.9102C272.111 80.9102 272.596 81.0241 272.997 81.252C273.398 81.4798 273.724 81.7852 273.975 82.168C274.23 82.5508 274.417 82.9814 274.535 83.46C274.654 83.9385 274.713 84.4307 274.713 84.9365V85.3945C274.713 85.9095 274.679 86.4336 274.61 86.9668C274.547 87.4954 274.421 88.0013 274.234 88.4844C274.052 88.9674 273.785 89.4004 273.435 89.7832C273.084 90.1615 272.626 90.4622 272.061 90.6855C271.5 90.9043 270.807 91.0137 269.982 91.0137H269.853V89.9404Z" fill="#6F219E"/>
<path d="M263.878 81.0469L259.729 91.8545H258.642L262.798 81.0469H263.878Z" fill="#817676"/>
<path d="M284.386 89.0381C284.386 88.8558 284.345 88.6872 284.263 88.5322C284.185 88.3727 284.023 88.2292 283.777 88.1016C283.536 87.9694 283.171 87.8555 282.684 87.7598C282.273 87.6732 281.902 87.5706 281.569 87.4521C281.241 87.3337 280.961 87.1901 280.729 87.0215C280.501 86.8529 280.325 86.6546 280.202 86.4268C280.079 86.1989 280.018 85.9323 280.018 85.627C280.018 85.3353 280.081 85.0596 280.209 84.7998C280.341 84.54 280.526 84.3099 280.763 84.1094C281.004 83.9089 281.294 83.7516 281.631 83.6377C281.968 83.5238 282.344 83.4668 282.759 83.4668C283.351 83.4668 283.857 83.5716 284.276 83.7812C284.696 83.9909 285.017 84.2712 285.24 84.6221C285.464 84.9684 285.575 85.3535 285.575 85.7773H284.311C284.311 85.5723 284.249 85.374 284.126 85.1826C284.007 84.9867 283.832 84.8249 283.6 84.6973C283.372 84.5697 283.091 84.5059 282.759 84.5059C282.408 84.5059 282.123 84.5605 281.904 84.6699C281.69 84.7747 281.533 84.9092 281.433 85.0732C281.337 85.2373 281.289 85.4105 281.289 85.5928C281.289 85.7295 281.312 85.8525 281.357 85.9619C281.408 86.0667 281.494 86.1647 281.617 86.2559C281.74 86.3424 281.913 86.4245 282.137 86.502C282.36 86.5794 282.645 86.6569 282.991 86.7344C283.597 86.8711 284.096 87.0352 284.488 87.2266C284.88 87.418 285.172 87.6527 285.363 87.9307C285.555 88.2087 285.65 88.5459 285.65 88.9424C285.65 89.266 285.582 89.5622 285.445 89.8311C285.313 90.0999 285.119 90.3324 284.864 90.5283C284.614 90.7197 284.313 90.8701 283.962 90.9795C283.616 91.0843 283.226 91.1367 282.793 91.1367C282.141 91.1367 281.59 91.0205 281.139 90.7881C280.688 90.5557 280.346 90.2549 280.113 89.8857C279.881 89.5166 279.765 89.127 279.765 88.7168H281.036C281.054 89.0632 281.155 89.3389 281.337 89.5439C281.519 89.7445 281.743 89.888 282.007 89.9746C282.271 90.0566 282.533 90.0977 282.793 90.0977C283.139 90.0977 283.429 90.0521 283.661 89.9609C283.898 89.8698 284.078 89.7445 284.201 89.585C284.324 89.4255 284.386 89.2432 284.386 89.0381ZM290.381 91.1367C289.866 91.1367 289.399 91.0501 288.979 90.877C288.565 90.6992 288.207 90.4508 287.906 90.1318C287.61 89.8128 287.382 89.4346 287.223 88.9971C287.063 88.5596 286.983 88.0811 286.983 87.5615V87.2744C286.983 86.6729 287.072 86.1374 287.25 85.668C287.428 85.194 287.669 84.793 287.975 84.4648C288.28 84.1367 288.626 83.8883 289.014 83.7197C289.401 83.5511 289.802 83.4668 290.217 83.4668C290.745 83.4668 291.201 83.5579 291.584 83.7402C291.971 83.9225 292.288 84.1777 292.534 84.5059C292.78 84.8294 292.963 85.2122 293.081 85.6543C293.2 86.0918 293.259 86.5703 293.259 87.0898V87.6572H287.735V86.625H291.994V86.5293C291.976 86.2012 291.908 85.8822 291.789 85.5723C291.675 85.2624 291.493 85.0072 291.242 84.8066C290.992 84.6061 290.65 84.5059 290.217 84.5059C289.93 84.5059 289.665 84.5674 289.424 84.6904C289.182 84.8089 288.975 84.9867 288.802 85.2236C288.629 85.4606 288.494 85.75 288.398 86.0918C288.303 86.4336 288.255 86.8278 288.255 87.2744V87.5615C288.255 87.9124 288.303 88.2428 288.398 88.5527C288.499 88.8581 288.642 89.127 288.829 89.3594C289.021 89.5918 289.251 89.7741 289.52 89.9062C289.793 90.0384 290.103 90.1045 290.449 90.1045C290.896 90.1045 291.274 90.0133 291.584 89.8311C291.894 89.6488 292.165 89.4049 292.397 89.0996L293.163 89.708C293.004 89.9495 292.801 90.1797 292.555 90.3984C292.309 90.6172 292.006 90.7949 291.646 90.9316C291.29 91.0684 290.868 91.1367 290.381 91.1367ZM299.042 89.0381C299.042 88.8558 299.001 88.6872 298.919 88.5322C298.841 88.3727 298.68 88.2292 298.434 88.1016C298.192 87.9694 297.827 87.8555 297.34 87.7598C296.93 87.6732 296.558 87.5706 296.226 87.4521C295.897 87.3337 295.617 87.1901 295.385 87.0215C295.157 86.8529 294.981 86.6546 294.858 86.4268C294.735 86.1989 294.674 85.9323 294.674 85.627C294.674 85.3353 294.738 85.0596 294.865 84.7998C294.997 84.54 295.182 84.3099 295.419 84.1094C295.66 83.9089 295.95 83.7516 296.287 83.6377C296.624 83.5238 297 83.4668 297.415 83.4668C298.007 83.4668 298.513 83.5716 298.933 83.7812C299.352 83.9909 299.673 84.2712 299.896 84.6221C300.12 84.9684 300.231 85.3535 300.231 85.7773H298.967C298.967 85.5723 298.905 85.374 298.782 85.1826C298.664 84.9867 298.488 84.8249 298.256 84.6973C298.028 84.5697 297.748 84.5059 297.415 84.5059C297.064 84.5059 296.779 84.5605 296.561 84.6699C296.346 84.7747 296.189 84.9092 296.089 85.0732C295.993 85.2373 295.945 85.4105 295.945 85.5928C295.945 85.7295 295.968 85.8525 296.014 85.9619C296.064 86.0667 296.15 86.1647 296.273 86.2559C296.396 86.3424 296.57 86.4245 296.793 86.502C297.016 86.5794 297.301 86.6569 297.647 86.7344C298.254 86.8711 298.753 87.0352 299.145 87.2266C299.536 87.418 299.828 87.6527 300.02 87.9307C300.211 88.2087 300.307 88.5459 300.307 88.9424C300.307 89.266 300.238 89.5622 300.102 89.8311C299.969 90.0999 299.776 90.3324 299.521 90.5283C299.27 90.7197 298.969 90.8701 298.618 90.9795C298.272 91.0843 297.882 91.1367 297.449 91.1367C296.798 91.1367 296.246 91.0205 295.795 90.7881C295.344 90.5557 295.002 90.2549 294.77 89.8857C294.537 89.5166 294.421 89.127 294.421 88.7168H295.692C295.711 89.0632 295.811 89.3389 295.993 89.5439C296.175 89.7445 296.399 89.888 296.663 89.9746C296.927 90.0566 297.189 90.0977 297.449 90.0977C297.796 90.0977 298.085 90.0521 298.317 89.9609C298.554 89.8698 298.734 89.7445 298.857 89.585C298.98 89.4255 299.042 89.2432 299.042 89.0381ZM306.274 89.0381C306.274 88.8558 306.233 88.6872 306.151 88.5322C306.074 88.3727 305.912 88.2292 305.666 88.1016C305.424 87.9694 305.06 87.8555 304.572 87.7598C304.162 87.6732 303.791 87.5706 303.458 87.4521C303.13 87.3337 302.85 87.1901 302.617 87.0215C302.389 86.8529 302.214 86.6546 302.091 86.4268C301.968 86.1989 301.906 85.9323 301.906 85.627C301.906 85.3353 301.97 85.0596 302.098 84.7998C302.23 84.54 302.414 84.3099 302.651 84.1094C302.893 83.9089 303.182 83.7516 303.52 83.6377C303.857 83.5238 304.233 83.4668 304.647 83.4668C305.24 83.4668 305.746 83.5716 306.165 83.7812C306.584 83.9909 306.906 84.2712 307.129 84.6221C307.352 84.9684 307.464 85.3535 307.464 85.7773H306.199C306.199 85.5723 306.138 85.374 306.015 85.1826C305.896 84.9867 305.721 84.8249 305.488 84.6973C305.26 84.5697 304.98 84.5059 304.647 84.5059C304.297 84.5059 304.012 84.5605 303.793 84.6699C303.579 84.7747 303.422 84.9092 303.321 85.0732C303.226 85.2373 303.178 85.4105 303.178 85.5928C303.178 85.7295 303.201 85.8525 303.246 85.9619C303.296 86.0667 303.383 86.1647 303.506 86.2559C303.629 86.3424 303.802 86.4245 304.025 86.502C304.249 86.5794 304.534 86.6569 304.88 86.7344C305.486 86.8711 305.985 87.0352 306.377 87.2266C306.769 87.418 307.061 87.6527 307.252 87.9307C307.443 88.2087 307.539 88.5459 307.539 88.9424C307.539 89.266 307.471 89.5622 307.334 89.8311C307.202 90.0999 307.008 90.3324 306.753 90.5283C306.502 90.7197 306.201 90.8701 305.851 90.9795C305.504 91.0843 305.115 91.1367 304.682 91.1367C304.03 91.1367 303.479 91.0205 303.027 90.7881C302.576 90.5557 302.234 90.2549 302.002 89.8857C301.77 89.5166 301.653 89.127 301.653 88.7168H302.925C302.943 89.0632 303.043 89.3389 303.226 89.5439C303.408 89.7445 303.631 89.888 303.896 89.9746C304.16 90.0566 304.422 90.0977 304.682 90.0977C305.028 90.0977 305.317 90.0521 305.55 89.9609C305.787 89.8698 305.967 89.7445 306.09 89.585C306.213 89.4255 306.274 89.2432 306.274 89.0381ZM310.574 83.6035V91H309.303V83.6035H310.574ZM309.207 81.6416C309.207 81.4365 309.269 81.2633 309.392 81.1221C309.519 80.9808 309.706 80.9102 309.952 80.9102C310.194 80.9102 310.378 80.9808 310.506 81.1221C310.638 81.2633 310.704 81.4365 310.704 81.6416C310.704 81.8376 310.638 82.0062 310.506 82.1475C310.378 82.2842 310.194 82.3525 309.952 82.3525C309.706 82.3525 309.519 82.2842 309.392 82.1475C309.269 82.0062 309.207 81.8376 309.207 81.6416ZM312.27 87.3838V87.2266C312.27 86.6934 312.347 86.1989 312.502 85.7432C312.657 85.2829 312.88 84.8841 313.172 84.5469C313.464 84.2051 313.817 83.9408 314.231 83.7539C314.646 83.5625 315.111 83.4668 315.626 83.4668C316.146 83.4668 316.613 83.5625 317.027 83.7539C317.447 83.9408 317.802 84.2051 318.094 84.5469C318.39 84.8841 318.616 85.2829 318.771 85.7432C318.925 86.1989 319.003 86.6934 319.003 87.2266V87.3838C319.003 87.917 318.925 88.4115 318.771 88.8672C318.616 89.3229 318.39 89.7217 318.094 90.0635C317.802 90.4007 317.449 90.665 317.034 90.8564C316.624 91.0433 316.159 91.1367 315.64 91.1367C315.12 91.1367 314.653 91.0433 314.238 90.8564C313.824 90.665 313.468 90.4007 313.172 90.0635C312.88 89.7217 312.657 89.3229 312.502 88.8672C312.347 88.4115 312.27 87.917 312.27 87.3838ZM313.534 87.2266V87.3838C313.534 87.7529 313.577 88.1016 313.664 88.4297C313.751 88.7533 313.881 89.0404 314.054 89.291C314.231 89.5417 314.452 89.7399 314.717 89.8857C314.981 90.027 315.289 90.0977 315.64 90.0977C315.986 90.0977 316.289 90.027 316.549 89.8857C316.813 89.7399 317.032 89.5417 317.205 89.291C317.378 89.0404 317.508 88.7533 317.595 88.4297C317.686 88.1016 317.731 87.7529 317.731 87.3838V87.2266C317.731 86.862 317.686 86.5179 317.595 86.1943C317.508 85.8662 317.376 85.5768 317.198 85.3262C317.025 85.071 316.806 84.8704 316.542 84.7246C316.282 84.5788 315.977 84.5059 315.626 84.5059C315.28 84.5059 314.974 84.5788 314.71 84.7246C314.45 84.8704 314.231 85.071 314.054 85.3262C313.881 85.5768 313.751 85.8662 313.664 86.1943C313.577 86.5179 313.534 86.862 313.534 87.2266ZM321.854 85.1826V91H320.589V83.6035H321.785L321.854 85.1826ZM321.553 87.0215L321.026 87.001C321.031 86.4951 321.106 86.028 321.252 85.5996C321.398 85.1667 321.603 84.7907 321.867 84.4717C322.132 84.1527 322.446 83.9066 322.811 83.7334C323.18 83.5557 323.588 83.4668 324.034 83.4668C324.399 83.4668 324.727 83.5169 325.019 83.6172C325.31 83.7129 325.559 83.8678 325.764 84.082C325.973 84.2962 326.133 84.5742 326.242 84.916C326.352 85.2533 326.406 85.6657 326.406 86.1533V91H325.135V86.1396C325.135 85.7523 325.078 85.4424 324.964 85.21C324.85 84.973 324.684 84.8021 324.465 84.6973C324.246 84.5879 323.977 84.5332 323.658 84.5332C323.344 84.5332 323.057 84.5993 322.797 84.7314C322.542 84.8636 322.321 85.0459 322.134 85.2783C321.951 85.5107 321.808 85.7773 321.703 86.0781C321.603 86.3743 321.553 86.6888 321.553 87.0215ZM332.634 89.0381C332.634 88.8558 332.593 88.6872 332.511 88.5322C332.433 88.3727 332.271 88.2292 332.025 88.1016C331.784 87.9694 331.419 87.8555 330.932 87.7598C330.521 87.6732 330.15 87.5706 329.817 87.4521C329.489 87.3337 329.209 87.1901 328.977 87.0215C328.749 86.8529 328.573 86.6546 328.45 86.4268C328.327 86.1989 328.266 85.9323 328.266 85.627C328.266 85.3353 328.329 85.0596 328.457 84.7998C328.589 84.54 328.774 84.3099 329.011 84.1094C329.252 83.9089 329.542 83.7516 329.879 83.6377C330.216 83.5238 330.592 83.4668 331.007 83.4668C331.599 83.4668 332.105 83.5716 332.524 83.7812C332.944 83.9909 333.265 84.2712 333.488 84.6221C333.712 84.9684 333.823 85.3535 333.823 85.7773H332.559C332.559 85.5723 332.497 85.374 332.374 85.1826C332.256 84.9867 332.08 84.8249 331.848 84.6973C331.62 84.5697 331.34 84.5059 331.007 84.5059C330.656 84.5059 330.371 84.5605 330.152 84.6699C329.938 84.7747 329.781 84.9092 329.681 85.0732C329.585 85.2373 329.537 85.4105 329.537 85.5928C329.537 85.7295 329.56 85.8525 329.605 85.9619C329.656 86.0667 329.742 86.1647 329.865 86.2559C329.988 86.3424 330.161 86.4245 330.385 86.502C330.608 86.5794 330.893 86.6569 331.239 86.7344C331.845 86.8711 332.344 87.0352 332.736 87.2266C333.128 87.418 333.42 87.6527 333.611 87.9307C333.803 88.2087 333.898 88.5459 333.898 88.9424C333.898 89.266 333.83 89.5622 333.693 89.8311C333.561 90.0999 333.368 90.3324 333.112 90.5283C332.862 90.7197 332.561 90.8701 332.21 90.9795C331.864 91.0843 331.474 91.1367 331.041 91.1367C330.389 91.1367 329.838 91.0205 329.387 90.7881C328.936 90.5557 328.594 90.2549 328.361 89.8857C328.129 89.5166 328.013 89.127 328.013 88.7168H329.284C329.302 89.0632 329.403 89.3389 329.585 89.5439C329.767 89.7445 329.991 89.888 330.255 89.9746C330.519 90.0566 330.781 90.0977 331.041 90.0977C331.387 90.0977 331.677 90.0521 331.909 89.9609C332.146 89.8698 332.326 89.7445 332.449 89.585C332.572 89.4255 332.634 89.2432 332.634 89.0381Z" fill="#564E4E"/>
<path d="M32.3676 112C32.294 112 32.2239 112.035 32.1504 112.108L31.6299 112.629L31.4134 112.412L31.1094 112.693L31.3481 112.932L31.0442 113.214L30.8276 112.997L30.5237 113.301L30.7409 113.518L30.2419 114.038C30.0927 114.187 30.0927 114.323 30.2419 114.472L27.3362 117.378C26.688 116.86 25.9968 116.467 25.341 116.272C24.1209 115.911 23.0369 116.172 22.1958 117.009C21.8245 117.38 21.5969 117.834 21.5018 118.376C21.3505 119.254 20.5753 119.94 19.6586 120.002C18.6585 120.07 17.7799 120.472 17.1213 121.13C15.3836 122.868 15.6987 126.021 17.8368 128.157C19.0513 129.371 20.5989 130 22.023 130C23.107 130 24.1126 129.623 24.8635 128.872C25.5228 128.213 25.9239 127.335 25.9912 126.335C26.0537 125.419 26.7178 124.643 27.5964 124.491C28.1384 124.397 28.6131 124.169 28.9844 123.797C29.822 122.959 30.0823 121.873 29.7214 120.653C29.602 120.246 29.3883 119.832 29.1364 119.417L28.1162 120.436C28.2252 120.644 28.3175 120.846 28.3772 121.043C28.5909 121.764 28.4771 122.352 28.008 122.821C27.84 122.987 27.6401 123.079 27.3792 123.125C25.8774 123.386 24.7066 124.703 24.6032 126.248C24.5602 126.907 24.3048 127.477 23.8877 127.897C22.6892 129.092 20.4317 128.778 18.8348 127.18C17.2379 125.584 16.902 123.301 18.0971 122.106C18.5177 121.688 19.0867 121.433 19.7453 121.39C21.2908 121.287 22.6052 120.116 22.8683 118.614C22.9148 118.354 23.0043 118.154 23.1722 117.986C23.4949 117.663 23.8635 117.508 24.3 117.508C24.4978 117.508 24.7254 117.549 24.9502 117.616C25.3875 117.747 25.8746 118.004 26.3382 118.354L24.0182 120.675C23.7638 120.616 23.4995 120.616 23.2449 120.674C22.9904 120.731 22.7521 120.846 22.5478 121.008C22.3435 121.171 22.1785 121.377 22.0651 121.612C21.9516 121.847 21.8927 122.105 21.8925 122.366C21.8925 123.322 22.6705 124.1 23.6275 124.1C24.5845 124.1 25.3625 123.322 25.3625 122.365C25.3625 122.26 25.3382 122.162 25.3187 122.061L31.6299 115.729C31.7791 115.878 31.9366 115.878 32.0858 115.729L32.6063 115.208L32.8229 115.426L33.1046 115.144L32.8881 114.927L33.1914 114.623L33.3433 114.927L33.6251 114.623L33.4086 114.406L33.9291 113.886C34.0783 113.736 34.0783 113.58 33.9291 113.43L32.6056 112.108C32.543 112.042 32.4579 112.004 32.3676 112ZM32.3024 112.845L32.6063 113.149L31.2614 114.472L30.9796 114.19L32.3024 112.845ZM32.8881 113.365L33.1914 113.669L31.8471 114.992L31.5647 114.688L32.8881 113.365ZM20.2228 123.538L19.247 124.513L21.4803 126.747L22.456 125.771L20.2228 123.538Z" fill="#DAA718"/>
<path d="M45.1035 120.959V122.084H38.9512L38.9043 121.234L42.584 115.469H43.7148L42.4902 117.566L40.375 120.959H45.1035ZM44.0371 115.469V124H42.625V115.469H44.0371ZM52.6738 122.283C52.6738 122.143 52.6387 122.016 52.5684 121.902C52.498 121.785 52.3633 121.68 52.1641 121.586C51.9688 121.492 51.6797 121.406 51.2969 121.328C50.9609 121.254 50.6523 121.166 50.3711 121.064C50.0938 120.959 49.8555 120.832 49.6562 120.684C49.457 120.535 49.3027 120.359 49.1934 120.156C49.084 119.953 49.0293 119.719 49.0293 119.453C49.0293 119.195 49.0859 118.951 49.1992 118.721C49.3125 118.49 49.4746 118.287 49.6855 118.111C49.8965 117.936 50.1523 117.797 50.4531 117.695C50.7578 117.594 51.0977 117.543 51.4727 117.543C52.0039 117.543 52.459 117.633 52.8379 117.812C53.2207 117.988 53.5137 118.229 53.7168 118.533C53.9199 118.834 54.0215 119.174 54.0215 119.553H52.6094C52.6094 119.385 52.5664 119.229 52.4805 119.084C52.3984 118.936 52.2734 118.816 52.1055 118.727C51.9375 118.633 51.7266 118.586 51.4727 118.586C51.2305 118.586 51.0293 118.625 50.8691 118.703C50.7129 118.777 50.5957 118.875 50.5176 118.996C50.4434 119.117 50.4062 119.25 50.4062 119.395C50.4062 119.5 50.4258 119.596 50.4648 119.682C50.5078 119.764 50.5781 119.84 50.6758 119.91C50.7734 119.977 50.9062 120.039 51.0742 120.098C51.2461 120.156 51.4609 120.213 51.7188 120.268C52.2031 120.369 52.6191 120.5 52.9668 120.66C53.3184 120.816 53.5879 121.02 53.7754 121.27C53.9629 121.516 54.0566 121.828 54.0566 122.207C54.0566 122.488 53.9961 122.746 53.875 122.98C53.7578 123.211 53.5859 123.412 53.3594 123.584C53.1328 123.752 52.8613 123.883 52.5449 123.977C52.2324 124.07 51.8809 124.117 51.4902 124.117C50.916 124.117 50.4297 124.016 50.0312 123.812C49.6328 123.605 49.3301 123.342 49.123 123.021C48.9199 122.697 48.8184 122.361 48.8184 122.014H50.1836C50.1992 122.275 50.2715 122.484 50.4004 122.641C50.5332 122.793 50.6973 122.904 50.8926 122.975C51.0918 123.041 51.2969 123.074 51.5078 123.074C51.7617 123.074 51.9746 123.041 52.1465 122.975C52.3184 122.904 52.4492 122.811 52.5391 122.693C52.6289 122.572 52.6738 122.436 52.6738 122.283ZM55.0234 120.9V120.766C55.0234 120.309 55.0898 119.885 55.2227 119.494C55.3555 119.1 55.5469 118.758 55.7969 118.469C56.0508 118.176 56.3594 117.949 56.7227 117.789C57.0898 117.625 57.5039 117.543 57.9648 117.543C58.4297 117.543 58.8438 117.625 59.207 117.789C59.5742 117.949 59.8848 118.176 60.1387 118.469C60.3926 118.758 60.5859 119.1 60.7188 119.494C60.8516 119.885 60.918 120.309 60.918 120.766V120.9C60.918 121.357 60.8516 121.781 60.7188 122.172C60.5859 122.562 60.3926 122.904 60.1387 123.197C59.8848 123.486 59.5762 123.713 59.2129 123.877C58.8496 124.037 58.4375 124.117 57.9766 124.117C57.5117 124.117 57.0957 124.037 56.7285 123.877C56.3652 123.713 56.0566 123.486 55.8027 123.197C55.5488 122.904 55.3555 122.562 55.2227 122.172C55.0898 121.781 55.0234 121.357 55.0234 120.9ZM56.4355 120.766V120.9C56.4355 121.186 56.4648 121.455 56.5234 121.709C56.582 121.963 56.6738 122.186 56.7988 122.377C56.9238 122.568 57.084 122.719 57.2793 122.828C57.4746 122.938 57.707 122.992 57.9766 122.992C58.2383 122.992 58.4648 122.938 58.6562 122.828C58.8516 122.719 59.0117 122.568 59.1367 122.377C59.2617 122.186 59.3535 121.963 59.4121 121.709C59.4746 121.455 59.5059 121.186 59.5059 120.9V120.766C59.5059 120.484 59.4746 120.219 59.4121 119.969C59.3535 119.715 59.2598 119.49 59.1309 119.295C59.0059 119.1 58.8457 118.947 58.6504 118.838C58.459 118.725 58.2305 118.668 57.9648 118.668C57.6992 118.668 57.4688 118.725 57.2734 118.838C57.082 118.947 56.9238 119.1 56.7988 119.295C56.6738 119.49 56.582 119.715 56.5234 119.969C56.4648 120.219 56.4355 120.484 56.4355 120.766ZM63.502 119.014V124H62.0898V117.66H63.4199L63.502 119.014ZM63.25 120.596L62.793 120.59C62.7969 120.141 62.8594 119.729 62.9805 119.354C63.1055 118.979 63.2773 118.656 63.4961 118.387C63.7188 118.117 63.9844 117.91 64.293 117.766C64.6016 117.617 64.9453 117.543 65.3242 117.543C65.6289 117.543 65.9043 117.586 66.1504 117.672C66.4004 117.754 66.6133 117.889 66.7891 118.076C66.9688 118.264 67.1055 118.508 67.1992 118.809C67.293 119.105 67.3398 119.471 67.3398 119.904V124H65.9219V119.898C65.9219 119.594 65.877 119.354 65.7871 119.178C65.7012 118.998 65.5742 118.871 65.4062 118.797C65.2422 118.719 65.0371 118.68 64.791 118.68C64.5488 118.68 64.332 118.73 64.1406 118.832C63.9492 118.934 63.7871 119.072 63.6543 119.248C63.5254 119.424 63.4258 119.627 63.3555 119.857C63.2852 120.088 63.25 120.334 63.25 120.596ZM72.8418 117.66H74.125V123.824C74.125 124.395 74.0039 124.879 73.7617 125.277C73.5195 125.676 73.1816 125.979 72.748 126.186C72.3145 126.396 71.8125 126.502 71.2422 126.502C71 126.502 70.7305 126.467 70.4336 126.396C70.1406 126.326 69.8555 126.213 69.5781 126.057C69.3047 125.904 69.0762 125.703 68.8926 125.453L69.5547 124.621C69.7812 124.891 70.0312 125.088 70.3047 125.213C70.5781 125.338 70.8652 125.4 71.166 125.4C71.4902 125.4 71.7656 125.34 71.9922 125.219C72.2227 125.102 72.4004 124.928 72.5254 124.697C72.6504 124.467 72.7129 124.186 72.7129 123.854V119.096L72.8418 117.66ZM68.5352 120.9V120.777C68.5352 120.297 68.5938 119.859 68.7109 119.465C68.8281 119.066 68.9961 118.725 69.2148 118.439C69.4336 118.15 69.6992 117.93 70.0117 117.777C70.3242 117.621 70.6777 117.543 71.0723 117.543C71.4824 117.543 71.832 117.617 72.1211 117.766C72.4141 117.914 72.6582 118.127 72.8535 118.404C73.0488 118.678 73.2012 119.006 73.3105 119.389C73.4238 119.768 73.5078 120.189 73.5625 120.654V121.047C73.5117 121.5 73.4258 121.914 73.3047 122.289C73.1836 122.664 73.0234 122.988 72.8242 123.262C72.625 123.535 72.3789 123.746 72.0859 123.895C71.7969 124.043 71.4551 124.117 71.0605 124.117C70.6738 124.117 70.3242 124.037 70.0117 123.877C69.7031 123.717 69.4375 123.492 69.2148 123.203C68.9961 122.914 68.8281 122.574 68.7109 122.184C68.5938 121.789 68.5352 121.361 68.5352 120.9ZM69.9473 120.777V120.9C69.9473 121.189 69.9746 121.459 70.0293 121.709C70.0879 121.959 70.1758 122.18 70.293 122.371C70.4141 122.559 70.5664 122.707 70.75 122.816C70.9375 122.922 71.1582 122.975 71.4121 122.975C71.7441 122.975 72.0156 122.904 72.2266 122.764C72.4414 122.623 72.6055 122.434 72.7188 122.195C72.8359 121.953 72.918 121.684 72.9648 121.387V120.326C72.9414 120.096 72.8926 119.881 72.8184 119.682C72.748 119.482 72.6523 119.309 72.5312 119.16C72.4102 119.008 72.2578 118.891 72.0742 118.809C71.8906 118.723 71.6738 118.68 71.4238 118.68C71.1699 118.68 70.9492 118.734 70.7617 118.844C70.5742 118.953 70.4199 119.104 70.2988 119.295C70.1816 119.486 70.0938 119.709 70.0352 119.963C69.9766 120.217 69.9473 120.488 69.9473 120.777ZM79.1465 122.283C79.1465 122.143 79.1113 122.016 79.041 121.902C78.9707 121.785 78.8359 121.68 78.6367 121.586C78.4414 121.492 78.1523 121.406 77.7695 121.328C77.4336 121.254 77.125 121.166 76.8438 121.064C76.5664 120.959 76.3281 120.832 76.1289 120.684C75.9297 120.535 75.7754 120.359 75.666 120.156C75.5566 119.953 75.502 119.719 75.502 119.453C75.502 119.195 75.5586 118.951 75.6719 118.721C75.7852 118.49 75.9473 118.287 76.1582 118.111C76.3691 117.936 76.625 117.797 76.9258 117.695C77.2305 117.594 77.5703 117.543 77.9453 117.543C78.4766 117.543 78.9316 117.633 79.3105 117.812C79.6934 117.988 79.9863 118.229 80.1895 118.533C80.3926 118.834 80.4941 119.174 80.4941 119.553H79.082C79.082 119.385 79.0391 119.229 78.9531 119.084C78.8711 118.936 78.7461 118.816 78.5781 118.727C78.4102 118.633 78.1992 118.586 77.9453 118.586C77.7031 118.586 77.502 118.625 77.3418 118.703C77.1855 118.777 77.0684 118.875 76.9902 118.996C76.916 119.117 76.8789 119.25 76.8789 119.395C76.8789 119.5 76.8984 119.596 76.9375 119.682C76.9805 119.764 77.0508 119.84 77.1484 119.91C77.2461 119.977 77.3789 120.039 77.5469 120.098C77.7188 120.156 77.9336 120.213 78.1914 120.268C78.6758 120.369 79.0918 120.5 79.4395 120.66C79.791 120.816 80.0605 121.02 80.248 121.27C80.4355 121.516 80.5293 121.828 80.5293 122.207C80.5293 122.488 80.4688 122.746 80.3477 122.98C80.2305 123.211 80.0586 123.412 79.832 123.584C79.6055 123.752 79.334 123.883 79.0176 123.977C78.7051 124.07 78.3535 124.117 77.9629 124.117C77.3887 124.117 76.9023 124.016 76.5039 123.812C76.1055 123.605 75.8027 123.342 75.5957 123.021C75.3926 122.697 75.291 122.361 75.291 122.014H76.6562C76.6719 122.275 76.7441 122.484 76.873 122.641C77.0059 122.793 77.1699 122.904 77.3652 122.975C77.5645 123.041 77.7695 123.074 77.9805 123.074C78.2344 123.074 78.4473 123.041 78.6191 122.975C78.791 122.904 78.9219 122.811 79.0117 122.693C79.1016 122.572 79.1465 122.436 79.1465 122.283Z" fill="#3F3B3C"/>
<path fill-rule="evenodd" clip-rule="evenodd" d="M25 140.6C21.4654 140.6 18.6 143.465 18.6 147C18.6 150.535 21.4654 153.4 25 153.4C28.5346 153.4 31.4 150.535 31.4 147C31.4 143.465 28.5346 140.6 25 140.6ZM17 147C17 142.582 20.5817 139 25 139C29.4183 139 33 142.582 33 147C33 151.418 29.4183 155 25 155C20.5817 155 17 151.418 17 147Z" fill="#DAA718"/>
<path fill-rule="evenodd" clip-rule="evenodd" d="M25.0031 141.883C25.445 141.883 25.8031 142.241 25.8031 142.683V146.508L28.2409 147.727C28.6361 147.925 28.7963 148.405 28.5987 148.801C28.4011 149.196 27.9205 149.356 27.5254 149.158L24.6454 147.718C24.3743 147.583 24.2031 147.306 24.2031 147.003V142.683C24.2031 142.241 24.5613 141.883 25.0031 141.883Z" fill="#DAA718"/>
<path d="M45.2207 141.469V142.242L41.8105 150H40.3223L43.7266 142.594H39.3086V141.469H45.2207ZM50.8398 141V150H49.4336V141H50.8398ZM50.5938 146.596L50.1367 146.59C50.1406 146.152 50.2012 145.748 50.3184 145.377C50.4395 145.006 50.6074 144.684 50.8223 144.41C51.041 144.133 51.3027 143.92 51.6074 143.771C51.9121 143.619 52.25 143.543 52.6211 143.543C52.9336 143.543 53.2148 143.586 53.4648 143.672C53.7188 143.758 53.9375 143.896 54.1211 144.088C54.3047 144.275 54.4434 144.521 54.5371 144.826C54.6348 145.127 54.6836 145.494 54.6836 145.928V150H53.2656V145.916C53.2656 145.611 53.2207 145.369 53.1309 145.189C53.0449 145.01 52.918 144.881 52.75 144.803C52.582 144.721 52.377 144.68 52.1348 144.68C51.8809 144.68 51.6562 144.73 51.4609 144.832C51.2695 144.934 51.1094 145.072 50.9805 145.248C50.8516 145.424 50.7539 145.627 50.6875 145.857C50.625 146.088 50.5938 146.334 50.5938 146.596ZM55.8438 146.9V146.766C55.8438 146.309 55.9102 145.885 56.043 145.494C56.1758 145.1 56.3672 144.758 56.6172 144.469C56.8711 144.176 57.1797 143.949 57.543 143.789C57.9102 143.625 58.3242 143.543 58.7852 143.543C59.25 143.543 59.6641 143.625 60.0273 143.789C60.3945 143.949 60.7051 144.176 60.959 144.469C61.2129 144.758 61.4062 145.1 61.5391 145.494C61.6719 145.885 61.7383 146.309 61.7383 146.766V146.9C61.7383 147.357 61.6719 147.781 61.5391 148.172C61.4062 148.562 61.2129 148.904 60.959 149.197C60.7051 149.486 60.3965 149.713 60.0332 149.877C59.6699 150.037 59.2578 150.117 58.7969 150.117C58.332 150.117 57.916 150.037 57.5488 149.877C57.1855 149.713 56.877 149.486 56.623 149.197C56.3691 148.904 56.1758 148.562 56.043 148.172C55.9102 147.781 55.8438 147.357 55.8438 146.9ZM57.2559 146.766V146.9C57.2559 147.186 57.2852 147.455 57.3438 147.709C57.4023 147.963 57.4941 148.186 57.6191 148.377C57.7441 148.568 57.9043 148.719 58.0996 148.828C58.2949 148.938 58.5273 148.992 58.7969 148.992C59.0586 148.992 59.2852 148.938 59.4766 148.828C59.6719 148.719 59.832 148.568 59.957 148.377C60.082 148.186 60.1738 147.963 60.2324 147.709C60.2949 147.455 60.3262 147.186 60.3262 146.9V146.766C60.3262 146.484 60.2949 146.219 60.2324 145.969C60.1738 145.715 60.0801 145.49 59.9512 145.295C59.8262 145.1 59.666 144.947 59.4707 144.838C59.2793 144.725 59.0508 144.668 58.7852 144.668C58.5195 144.668 58.2891 144.725 58.0938 144.838C57.9023 144.947 57.7441 145.1 57.6191 145.295C57.4941 145.49 57.4023 145.715 57.3438 145.969C57.2852 146.219 57.2559 146.484 57.2559 146.766ZM66.7363 148.506V143.66H68.1543V150H66.8184L66.7363 148.506ZM66.9355 147.188L67.4102 147.176C67.4102 147.602 67.3633 147.994 67.2695 148.354C67.1758 148.709 67.0312 149.02 66.8359 149.285C66.6406 149.547 66.3906 149.752 66.0859 149.9C65.7812 150.045 65.416 150.117 64.9902 150.117C64.6816 150.117 64.3984 150.072 64.1406 149.982C63.8828 149.893 63.6602 149.754 63.4727 149.566C63.2891 149.379 63.1465 149.135 63.0449 148.834C62.9434 148.533 62.8926 148.174 62.8926 147.756V143.66H64.3047V147.768C64.3047 147.998 64.332 148.191 64.3867 148.348C64.4414 148.5 64.5156 148.623 64.6094 148.717C64.7031 148.811 64.8125 148.877 64.9375 148.916C65.0625 148.955 65.1953 148.975 65.3359 148.975C65.7383 148.975 66.0547 148.896 66.2852 148.74C66.5195 148.58 66.6855 148.365 66.7832 148.096C66.8848 147.826 66.9355 147.523 66.9355 147.188ZM71.0195 144.867V150H69.6074V143.66H70.9551L71.0195 144.867ZM72.959 143.619L72.9473 144.932C72.8613 144.916 72.7676 144.904 72.666 144.896C72.5684 144.889 72.4707 144.885 72.373 144.885C72.1309 144.885 71.918 144.92 71.7344 144.99C71.5508 145.057 71.3965 145.154 71.2715 145.283C71.1504 145.408 71.0566 145.561 70.9902 145.74C70.9238 145.92 70.8848 146.121 70.873 146.344L70.5508 146.367C70.5508 145.969 70.5898 145.6 70.668 145.26C70.7461 144.92 70.8633 144.621 71.0195 144.363C71.1797 144.105 71.3789 143.904 71.6172 143.76C71.8594 143.615 72.1387 143.543 72.4551 143.543C72.541 143.543 72.6328 143.551 72.7305 143.566C72.832 143.582 72.9082 143.6 72.959 143.619ZM77.4004 148.283C77.4004 148.143 77.3652 148.016 77.2949 147.902C77.2246 147.785 77.0898 147.68 76.8906 147.586C76.6953 147.492 76.4062 147.406 76.0234 147.328C75.6875 147.254 75.3789 147.166 75.0977 147.064C74.8203 146.959 74.582 146.832 74.3828 146.684C74.1836 146.535 74.0293 146.359 73.9199 146.156C73.8105 145.953 73.7559 145.719 73.7559 145.453C73.7559 145.195 73.8125 144.951 73.9258 144.721C74.0391 144.49 74.2012 144.287 74.4121 144.111C74.623 143.936 74.8789 143.797 75.1797 143.695C75.4844 143.594 75.8242 143.543 76.1992 143.543C76.7305 143.543 77.1855 143.633 77.5645 143.812C77.9473 143.988 78.2402 144.229 78.4434 144.533C78.6465 144.834 78.748 145.174 78.748 145.553H77.3359C77.3359 145.385 77.293 145.229 77.207 145.084C77.125 144.936 77 144.816 76.832 144.727C76.6641 144.633 76.4531 144.586 76.1992 144.586C75.957 144.586 75.7559 144.625 75.5957 144.703C75.4395 144.777 75.3223 144.875 75.2441 144.996C75.1699 145.117 75.1328 145.25 75.1328 145.395C75.1328 145.5 75.1523 145.596 75.1914 145.682C75.2344 145.764 75.3047 145.84 75.4023 145.91C75.5 145.977 75.6328 146.039 75.8008 146.098C75.9727 146.156 76.1875 146.213 76.4453 146.268C76.9297 146.369 77.3457 146.5 77.6934 146.66C78.0449 146.816 78.3145 147.02 78.502 147.27C78.6895 147.516 78.7832 147.828 78.7832 148.207C78.7832 148.488 78.7227 148.746 78.6016 148.98C78.4844 149.211 78.3125 149.412 78.0859 149.584C77.8594 149.752 77.5879 149.883 77.2715 149.977C76.959 150.07 76.6074 150.117 76.2168 150.117C75.6426 150.117 75.1562 150.016 74.7578 149.812C74.3594 149.605 74.0566 149.342 73.8496 149.021C73.6465 148.697 73.5449 148.361 73.5449 148.014H74.9102C74.9258 148.275 74.998 148.484 75.127 148.641C75.2598 148.793 75.4238 148.904 75.6191 148.975C75.8184 149.041 76.0234 149.074 76.2344 149.074C76.4883 149.074 76.7012 149.041 76.873 148.975C77.0449 148.904 77.1758 148.811 77.2656 148.693C77.3555 148.572 77.4004 148.436 77.4004 148.283ZM83.7285 141.469L80.4062 150.732H79.2988L82.627 141.469H83.7285ZM88.5742 148.688V141H89.9922V150H88.709L88.5742 148.688ZM84.4492 146.9V146.777C84.4492 146.297 84.5059 145.859 84.6191 145.465C84.7324 145.066 84.8965 144.725 85.1113 144.439C85.3262 144.15 85.5879 143.93 85.8965 143.777C86.2051 143.621 86.5527 143.543 86.9395 143.543C87.3223 143.543 87.6582 143.617 87.9473 143.766C88.2363 143.914 88.4824 144.127 88.6855 144.404C88.8887 144.678 89.0508 145.006 89.1719 145.389C89.293 145.768 89.3789 146.189 89.4297 146.654V147.047C89.3789 147.5 89.293 147.914 89.1719 148.289C89.0508 148.664 88.8887 148.988 88.6855 149.262C88.4824 149.535 88.2344 149.746 87.9414 149.895C87.6523 150.043 87.3145 150.117 86.9277 150.117C86.5449 150.117 86.1992 150.037 85.8906 149.877C85.5859 149.717 85.3262 149.492 85.1113 149.203C84.8965 148.914 84.7324 148.574 84.6191 148.184C84.5059 147.789 84.4492 147.361 84.4492 146.9ZM85.8613 146.777V146.9C85.8613 147.189 85.8867 147.459 85.9375 147.709C85.9922 147.959 86.0762 148.18 86.1895 148.371C86.3027 148.559 86.4492 148.707 86.6289 148.816C86.8125 148.922 87.0312 148.975 87.2852 148.975C87.6055 148.975 87.8691 148.904 88.0762 148.764C88.2832 148.623 88.4453 148.434 88.5625 148.195C88.6836 147.953 88.7656 147.684 88.8086 147.387V146.326C88.7852 146.096 88.7363 145.881 88.6621 145.682C88.5918 145.482 88.4961 145.309 88.375 145.16C88.2539 145.008 88.1035 144.891 87.9238 144.809C87.748 144.723 87.5391 144.68 87.2969 144.68C87.0391 144.68 86.8203 144.734 86.6406 144.844C86.4609 144.953 86.3125 145.104 86.1953 145.295C86.082 145.486 85.998 145.709 85.9434 145.963C85.8887 146.217 85.8613 146.488 85.8613 146.777ZM95.043 148.729V145.705C95.043 145.479 95.002 145.283 94.9199 145.119C94.8379 144.955 94.7129 144.828 94.5449 144.738C94.3809 144.648 94.1738 144.604 93.9238 144.604C93.6934 144.604 93.4941 144.643 93.3262 144.721C93.1582 144.799 93.0273 144.904 92.9336 145.037C92.8398 145.17 92.793 145.32 92.793 145.488H91.3867C91.3867 145.238 91.4473 144.996 91.5684 144.762C91.6895 144.527 91.8652 144.318 92.0957 144.135C92.3262 143.951 92.6016 143.807 92.9219 143.701C93.2422 143.596 93.6016 143.543 94 143.543C94.4766 143.543 94.8984 143.623 95.2656 143.783C95.6367 143.943 95.9277 144.186 96.1387 144.51C96.3535 144.83 96.4609 145.232 96.4609 145.717V148.535C96.4609 148.824 96.4805 149.084 96.5195 149.314C96.5625 149.541 96.623 149.738 96.7012 149.906V150H95.2539C95.1875 149.848 95.1348 149.654 95.0957 149.42C95.0605 149.182 95.043 148.951 95.043 148.729ZM95.248 146.145L95.2598 147.018H94.2461C93.9844 147.018 93.7539 147.043 93.5547 147.094C93.3555 147.141 93.1895 147.211 93.0566 147.305C92.9238 147.398 92.8242 147.512 92.7578 147.645C92.6914 147.777 92.6582 147.928 92.6582 148.096C92.6582 148.264 92.6973 148.418 92.7754 148.559C92.8535 148.695 92.9668 148.803 93.1152 148.881C93.2676 148.959 93.4512 148.998 93.666 148.998C93.9551 148.998 94.207 148.939 94.4219 148.822C94.6406 148.701 94.8125 148.555 94.9375 148.383C95.0625 148.207 95.1289 148.041 95.1367 147.885L95.5938 148.512C95.5469 148.672 95.4668 148.844 95.3535 149.027C95.2402 149.211 95.0918 149.387 94.9082 149.555C94.7285 149.719 94.5117 149.854 94.2578 149.959C94.0078 150.064 93.7188 150.117 93.3906 150.117C92.9766 150.117 92.6074 150.035 92.2832 149.871C91.959 149.703 91.7051 149.479 91.5215 149.197C91.3379 148.912 91.2461 148.59 91.2461 148.23C91.2461 147.895 91.3086 147.598 91.4336 147.34C91.5625 147.078 91.75 146.859 91.9961 146.684C92.2461 146.508 92.5508 146.375 92.9102 146.285C93.2695 146.191 93.6797 146.145 94.1406 146.145H95.248ZM99.6836 149.309L101.406 143.66H102.918L100.375 150.967C100.316 151.123 100.24 151.293 100.146 151.477C100.053 151.66 99.9297 151.834 99.7773 151.998C99.6289 152.166 99.4434 152.301 99.2207 152.402C98.998 152.508 98.7285 152.561 98.4121 152.561C98.2871 152.561 98.166 152.549 98.0488 152.525C97.9355 152.506 97.8281 152.484 97.7266 152.461L97.7207 151.383C97.7598 151.387 97.8066 151.391 97.8613 151.395C97.9199 151.398 97.9668 151.4 98.002 151.4C98.2363 151.4 98.4316 151.371 98.5879 151.312C98.7441 151.258 98.8711 151.168 98.9688 151.043C99.0703 150.918 99.1562 150.75 99.2266 150.539L99.6836 149.309ZM98.7109 143.66L100.217 148.406L100.469 149.895L99.4902 150.146L97.1875 143.66H98.7109Z" fill="#3F3B3C"/>
<circle cx="319" cy="134" r="16" fill="#6F219E"/>
<g clip-path="url(#clip0_10028_43315)">
<path d="M315.858 127.321C315.757 127.415 315.676 127.527 315.619 127.651C315.562 127.776 315.53 127.91 315.524 128.047C315.519 128.184 315.541 128.321 315.589 128.449C315.636 128.578 315.709 128.696 315.802 128.796L320.709 134L315.802 139.203C315.709 139.303 315.636 139.421 315.589 139.55C315.541 139.678 315.519 139.815 315.524 139.952C315.53 140.089 315.562 140.223 315.619 140.348C315.676 140.472 315.757 140.584 315.858 140.678C315.958 140.771 316.076 140.843 316.204 140.891C316.333 140.939 316.47 140.96 316.607 140.955C316.743 140.95 316.878 140.918 317.003 140.861C317.127 140.804 317.239 140.722 317.332 140.622L322.897 134.709C323.076 134.516 323.176 134.263 323.176 134C323.176 133.736 323.076 133.483 322.897 133.29L317.332 127.377C317.239 127.277 317.127 127.195 317.003 127.138C316.878 127.081 316.743 127.049 316.607 127.044C316.47 127.039 316.333 127.06 316.204 127.108C316.076 127.156 315.958 127.228 315.858 127.321Z" fill="white"/>
</g>
<defs>
<clipPath id="clip0_10028_43315">
<rect width="13.913" height="13.913" fill="white" transform="translate(325.957 127.043) rotate(90)"/>
</clipPath>
</defs>
</svg>
