<svg width="77" height="28" viewBox="0 0 77 28" fill="none" xmlns="http://www.w3.org/2000/svg">
<rect width="77" height="28" rx="4" fill="#DDDADA"/>
<path d="M12.0013 20.666C11.6346 20.666 11.3207 20.5355 11.0596 20.2743C10.7985 20.0132 10.668 19.6993 10.668 19.3327V12.666C10.668 12.2993 10.7985 11.9855 11.0596 11.7243C11.3207 11.4632 11.6346 11.3327 12.0013 11.3327H12.668V9.99935C12.668 9.07713 12.993 8.29102 13.643 7.64102C14.293 6.99102 15.0791 6.66602 16.0013 6.66602C16.9235 6.66602 17.7096 6.99102 18.3596 7.64102C19.0096 8.29102 19.3346 9.07713 19.3346 9.99935V11.3327H20.0013C20.368 11.3327 20.6819 11.4632 20.943 11.7243C21.2041 11.9855 21.3346 12.2993 21.3346 12.666V19.3327C21.3346 19.6993 21.2041 20.0132 20.943 20.2743C20.6819 20.5355 20.368 20.666 20.0013 20.666H12.0013ZM12.0013 19.3327H20.0013V12.666H12.0013V19.3327ZM16.0013 17.3327C16.368 17.3327 16.6819 17.2021 16.943 16.941C17.2041 16.6799 17.3346 16.366 17.3346 15.9993C17.3346 15.6327 17.2041 15.3188 16.943 15.0577C16.6819 14.7966 16.368 14.666 16.0013 14.666C15.6346 14.666 15.3207 14.7966 15.0596 15.0577C14.7985 15.3188 14.668 15.6327 14.668 15.9993C14.668 16.366 14.7985 16.6799 15.0596 16.941C15.3207 17.2021 15.6346 17.3327 16.0013 17.3327ZM14.0013 11.3327H18.0013V9.99935C18.0013 9.44379 17.8069 8.97157 17.418 8.58268C17.0291 8.19379 16.5569 7.99935 16.0013 7.99935C15.4457 7.99935 14.9735 8.19379 14.5846 8.58268C14.1957 8.97157 14.0013 9.44379 14.0013 9.99935V11.3327Z" fill="#564E4E"/>
<path d="M36.2285 16.7344V18H31.9395V16.7344H36.2285ZM32.4258 9.46875V18H30.8145V9.46875H32.4258ZM36.9141 14.8945V14.7715C36.9141 14.3066 36.9805 13.8789 37.1133 13.4883C37.2461 13.0938 37.4395 12.752 37.6934 12.4629C37.9473 12.1738 38.2578 11.9492 38.625 11.7891C38.9922 11.625 39.4102 11.543 39.8789 11.543C40.3555 11.543 40.7773 11.625 41.1445 11.7891C41.5156 11.9492 41.8281 12.1738 42.082 12.4629C42.3359 12.752 42.5293 13.0938 42.6621 13.4883C42.7949 13.8789 42.8613 14.3066 42.8613 14.7715V14.8945C42.8613 15.3555 42.7949 15.7832 42.6621 16.1777C42.5293 16.5684 42.3359 16.9102 42.082 17.2031C41.8281 17.4922 41.5176 17.7168 41.1504 17.877C40.7832 18.0371 40.3633 18.1172 39.8906 18.1172C39.4219 18.1172 39.002 18.0371 38.6309 17.877C38.2598 17.7168 37.9473 17.4922 37.6934 17.2031C37.4395 16.9102 37.2461 16.5684 37.1133 16.1777C36.9805 15.7832 36.9141 15.3555 36.9141 14.8945ZM38.4609 14.7715V14.8945C38.4609 15.1719 38.4883 15.4316 38.543 15.6738C38.5977 15.916 38.6816 16.1289 38.7949 16.3125C38.9082 16.4961 39.0547 16.6406 39.2344 16.7461C39.418 16.8477 39.6367 16.8984 39.8906 16.8984C40.1406 16.8984 40.3555 16.8477 40.5352 16.7461C40.7148 16.6406 40.8613 16.4961 40.9746 16.3125C41.0918 16.1289 41.1777 15.916 41.2324 15.6738C41.2871 15.4316 41.3145 15.1719 41.3145 14.8945V14.7715C41.3145 14.498 41.2871 14.2422 41.2324 14.0039C41.1777 13.7617 41.0918 13.5488 40.9746 13.3652C40.8613 13.1777 40.7129 13.0312 40.5293 12.9258C40.3496 12.8164 40.1328 12.7617 39.8789 12.7617C39.6289 12.7617 39.4141 12.8164 39.2344 12.9258C39.0547 13.0312 38.9082 13.1777 38.7949 13.3652C38.6816 13.5488 38.5977 13.7617 38.543 14.0039C38.4883 14.2422 38.4609 14.498 38.4609 14.7715ZM46.5879 16.8984C46.8066 16.8984 47.002 16.8555 47.1738 16.7695C47.3457 16.6836 47.4824 16.5625 47.584 16.4062C47.6895 16.25 47.7461 16.0684 47.7539 15.8613H49.2129C49.2051 16.291 49.084 16.6758 48.8496 17.0156C48.6152 17.3555 48.3027 17.625 47.9121 17.8242C47.5254 18.0195 47.0918 18.1172 46.6113 18.1172C46.123 18.1172 45.6973 18.0352 45.334 17.8711C44.9707 17.707 44.668 17.4785 44.4258 17.1855C44.1875 16.8926 44.0078 16.5527 43.8867 16.166C43.7695 15.7793 43.7109 15.3652 43.7109 14.9238V14.7363C43.7109 14.2949 43.7695 13.8809 43.8867 13.4941C44.0078 13.1074 44.1875 12.7676 44.4258 12.4746C44.668 12.1816 44.9707 11.9531 45.334 11.7891C45.6973 11.625 46.1211 11.543 46.6055 11.543C47.1172 11.543 47.5664 11.6426 47.9531 11.8418C48.3438 12.041 48.6484 12.3223 48.8672 12.6855C49.0898 13.0488 49.2051 13.4766 49.2129 13.9688H47.7539C47.7461 13.7422 47.6953 13.5391 47.6016 13.3594C47.5078 13.1797 47.375 13.0352 47.2031 12.9258C47.0312 12.8164 46.8223 12.7617 46.5762 12.7617C46.3145 12.7617 46.0957 12.8164 45.9199 12.9258C45.748 13.0352 45.6133 13.1855 45.5156 13.377C45.4219 13.5645 45.3555 13.7754 45.3164 14.0098C45.2812 14.2402 45.2637 14.4824 45.2637 14.7363V14.9238C45.2637 15.1816 45.2812 15.4277 45.3164 15.6621C45.3555 15.8965 45.4219 16.1074 45.5156 16.2949C45.6133 16.4785 45.748 16.625 45.9199 16.7344C46.0957 16.8438 46.3184 16.8984 46.5879 16.8984ZM51.791 8.99414V18H50.2441V8.99414H51.791ZM55.7637 11.6602L53.0039 14.7598L51.5098 16.2773L51.0176 15.0762L52.1719 13.623L53.8945 11.6602H55.7637ZM54.1816 18L52.2188 15.0469L53.25 14.0449L55.9746 18H54.1816ZM59.3145 18.1172C58.834 18.1172 58.4023 18.0391 58.0195 17.8828C57.6367 17.7266 57.3105 17.5098 57.041 17.2324C56.7754 16.9512 56.5703 16.625 56.4258 16.2539C56.2852 15.8789 56.2148 15.4766 56.2148 15.0469V14.8125C56.2148 14.3242 56.2852 13.8809 56.4258 13.4824C56.5664 13.0801 56.7656 12.7344 57.0234 12.4453C57.2812 12.1562 57.5898 11.9336 57.9492 11.7773C58.3086 11.6211 58.7051 11.543 59.1387 11.543C59.5879 11.543 59.9844 11.6191 60.3281 11.7715C60.6719 11.9199 60.959 12.1309 61.1895 12.4043C61.4199 12.6777 61.5938 13.0059 61.7109 13.3887C61.8281 13.7676 61.8867 14.1875 61.8867 14.6484V15.2988H56.918V14.2324H60.3633V14.1152C60.3555 13.8691 60.3086 13.6445 60.2227 13.4414C60.1367 13.2344 60.0039 13.0703 59.8242 12.9492C59.6445 12.8242 59.4121 12.7617 59.127 12.7617C58.8965 12.7617 58.6953 12.8125 58.5234 12.9141C58.3555 13.0117 58.2148 13.1523 58.1016 13.3359C57.9922 13.5156 57.9102 13.7305 57.8555 13.9805C57.8008 14.2305 57.7734 14.5078 57.7734 14.8125V15.0469C57.7734 15.3125 57.8086 15.5586 57.8789 15.7852C57.9531 16.0117 58.0605 16.209 58.2012 16.377C58.3457 16.541 58.5176 16.6699 58.7168 16.7637C58.9199 16.8535 59.1504 16.8984 59.4082 16.8984C59.7324 16.8984 60.0254 16.8359 60.2871 16.7109C60.5527 16.582 60.7832 16.3926 60.9785 16.1426L61.7578 16.9512C61.625 17.1465 61.4453 17.334 61.2188 17.5137C60.9961 17.6934 60.7266 17.8398 60.4102 17.9531C60.0938 18.0625 59.7285 18.1172 59.3145 18.1172ZM66.7266 16.6523V9H68.2852V18H66.8789L66.7266 16.6523ZM62.6543 14.9062V14.7832C62.6543 14.2988 62.709 13.8594 62.8184 13.4648C62.9316 13.0664 63.0957 12.7246 63.3105 12.4395C63.5254 12.1543 63.7852 11.9336 64.0898 11.7773C64.3984 11.6211 64.748 11.543 65.1387 11.543C65.5176 11.543 65.8477 11.6191 66.1289 11.7715C66.4141 11.9238 66.6562 12.1406 66.8555 12.4219C67.0586 12.7031 67.2207 13.0371 67.3418 13.4238C67.4629 13.8066 67.5508 14.2285 67.6055 14.6895V15.0234C67.5508 15.4727 67.4629 15.8848 67.3418 16.2598C67.2207 16.6348 67.0586 16.9629 66.8555 17.2441C66.6562 17.5215 66.4141 17.7363 66.1289 17.8887C65.8438 18.041 65.5098 18.1172 65.127 18.1172C64.7402 18.1172 64.3926 18.0371 64.084 17.877C63.7793 17.7168 63.5195 17.4922 63.3047 17.2031C63.0938 16.9141 62.9316 16.5742 62.8184 16.1836C62.709 15.793 62.6543 15.3672 62.6543 14.9062ZM64.207 14.7832V14.9062C64.207 15.1797 64.2305 15.4355 64.2773 15.6738C64.3242 15.9121 64.4004 16.123 64.5059 16.3066C64.6113 16.4863 64.7461 16.627 64.9102 16.7285C65.0781 16.8301 65.2812 16.8809 65.5195 16.8809C65.8242 16.8809 66.0742 16.8145 66.2695 16.6816C66.4688 16.5449 66.623 16.3594 66.7324 16.125C66.8418 15.8867 66.9121 15.6191 66.9434 15.3223V14.4023C66.9277 14.168 66.8867 13.9512 66.8203 13.752C66.7578 13.5527 66.668 13.3809 66.5508 13.2363C66.4375 13.0918 66.2969 12.9785 66.1289 12.8965C65.9609 12.8145 65.7617 12.7734 65.5312 12.7734C65.293 12.7734 65.0898 12.8262 64.9219 12.9316C64.7539 13.0332 64.6172 13.1758 64.5117 13.3594C64.4062 13.543 64.3281 13.7559 64.2773 13.998C64.2305 14.2402 64.207 14.502 64.207 14.7832Z" fill="#564E4E"/>
</svg>
