<svg width="16" height="16" viewBox="0 0 16 16" fill="none" xmlns="http://www.w3.org/2000/svg">
<path d="M7.33268 12.6668H8.66602V12.0002H9.33268C9.52157 12.0002 9.6799 11.9363 9.80768 11.8085C9.93546 11.6807 9.99935 11.5224 9.99935 11.3335V9.3335C9.99935 9.14461 9.93546 8.98627 9.80768 8.8585C9.6799 8.73072 9.52157 8.66683 9.33268 8.66683H7.33268V8.00016H9.99935V6.66683H8.66602V6.00016H7.33268V6.66683H6.66602C6.47713 6.66683 6.31879 6.73072 6.19102 6.8585C6.06324 6.98627 5.99935 7.14461 5.99935 7.3335V9.3335C5.99935 9.52238 6.06324 9.68072 6.19102 9.8085C6.31879 9.93627 6.47713 10.0002 6.66602 10.0002H8.66602V10.6668H5.99935V12.0002H7.33268V12.6668ZM3.99935 14.6668C3.63268 14.6668 3.31879 14.5363 3.05768 14.2752C2.79657 14.0141 2.66602 13.7002 2.66602 13.3335V2.66683C2.66602 2.30016 2.79657 1.98627 3.05768 1.72516C3.31879 1.46405 3.63268 1.3335 3.99935 1.3335H9.33268L13.3327 5.3335V13.3335C13.3327 13.7002 13.2021 14.0141 12.941 14.2752C12.6799 14.5363 12.366 14.6668 11.9993 14.6668H3.99935ZM8.66602 5.3335V2.66683H3.99935V13.3335H11.9993V5.3335H8.66602Z" fill="black"/>
</svg>
