<svg width="140" height="100" viewBox="0 0 140 100" fill="none" xmlns="http://www.w3.org/2000/svg">
<path d="M102.479 -7.08593C103.284 -6.77457 103.948 -6.23433 104.364 -5.55019C104.786 -4.85983 104.94 -4.06145 104.799 -3.28556C99.9988 23.2299 97.0868 48.54 96.2616 72.5153C100.079 72.0677 103.942 71.8878 107.843 72.0387C129.867 72.9007 146.441 88.4533 144.601 105.143C143.676 113.511 137.966 120.037 130.198 124.222C122.43 128.408 112.564 130.569 102.132 131.046C91.1007 131.555 81.6951 126.809 75.2426 120.361C68.7961 113.918 64.9888 105.772 65.0027 98.2923C65.0039 97.5543 65.0805 97.3214 65.1711 96.7299C65.261 96.1389 65.384 95.3953 65.5436 94.4965C65.8626 92.6989 66.3114 90.2823 66.8408 87.391C67.8996 81.6083 69.285 73.933 70.616 65.6884C73.1879 49.7205 75.3481 31.691 74.6974 21.4503C72.7033 19.712 69.1653 18.1506 64.5231 17.0053L66.937 26.955C66.9992 27.1803 67.0136 27.4192 66.9764 27.6544C66.9346 27.883 66.844 28.1059 66.7102 28.3094C66.5711 28.5066 66.3929 28.6815 66.1827 28.819C65.9718 28.957 65.7284 29.048 65.4735 29.0974C65.2239 29.153 64.9569 29.1511 64.7028 29.1103C64.4494 29.069 64.2069 28.9802 63.9869 28.8456C63.7723 28.7173 63.5869 28.5486 63.4427 28.351C63.2985 28.1533 63.2002 27.9335 63.1564 27.7053L60.4066 16.3676C60.3894 16.3 60.3756 16.23 60.3699 16.1643C57.7762 15.7232 54.9438 15.4197 51.9045 15.2613L55.3926 23.2721C55.5772 23.7004 55.5685 24.1845 55.3618 24.6084C55.1597 25.0391 54.7731 25.3701 54.298 25.5441C53.8176 25.7119 53.287 25.7056 52.8144 25.5192C52.3426 25.3324 51.9719 24.9849 51.7827 24.5499L47.6939 15.1379C44.2835 15.1105 40.7129 15.2452 37.0303 15.5282L42.418 23.7101C42.5521 23.9049 42.6403 24.122 42.6813 24.3521C42.7224 24.5823 42.713 24.8179 42.6549 25.0479C42.5921 25.2712 42.4839 25.4866 42.3306 25.6738C42.1781 25.8605 41.984 26.0167 41.7659 26.1399C41.5424 26.2568 41.2992 26.3378 41.0432 26.368C40.7866 26.3987 40.5306 26.3891 40.2789 26.3266C40.0325 26.2704 39.7984 26.1657 39.5922 26.0216C39.386 25.8774 39.2196 25.7053 39.0878 25.4989L32.8987 16.0964C32.8575 16.0356 32.8212 15.9714 32.7883 15.9048C30.24 16.1789 27.6528 16.5401 25.0519 16.9506L28.2759 24.3698C28.3717 24.5815 28.4236 24.814 28.4211 25.0448C28.424 25.2818 28.3693 25.5095 28.2659 25.7214C28.1685 25.9391 28.0206 26.1326 27.8346 26.293C27.6538 26.4597 27.4329 26.5847 27.195 26.672C26.9518 26.753 26.695 26.7938 26.4409 26.7928C26.1822 26.7851 25.9289 26.7336 25.6947 26.639C25.4604 26.5444 25.2467 26.4055 25.0681 26.232C24.8949 26.0647 24.7569 25.8627 24.6687 25.6457L21.1703 17.6023C18.6739 18.059 16.1824 18.592 13.7009 19.1778L16.0145 24.4967C16.1074 24.7104 16.1572 24.9444 16.1488 25.1694C16.1457 25.4007 16.0909 25.6283 15.9896 25.8388C15.8876 26.0498 15.7418 26.2418 15.5577 26.4008C15.3737 26.5598 15.161 26.6892 14.9205 26.7683C14.6847 26.8541 14.4352 26.8996 14.1772 26.8914C13.9252 26.8889 13.6719 26.8375 13.4423 26.7496C13.2074 26.6554 12.9969 26.5243 12.8209 26.3589C12.645 26.1935 12.5028 25.9945 12.4099 25.7808L9.9472 20.1083C8.42541 20.5086 6.90696 20.9167 5.40687 21.3617C4.59159 21.605 3.71049 21.5957 2.90145 21.3367C2.09241 21.0776 1.40276 20.5855 0.939235 19.9346C0.470371 19.2775 0.260859 18.5082 0.331404 17.7316C0.407284 16.9612 0.763761 16.233 1.34125 15.6585C8.97925 8.17793 17.122 0.532328 29.3817 -4.47383C41.6283 -9.47082 57.7404 -11.7119 80.993 -9.1821L81.0161 -9.17833L101.357 -7.34477C101.745 -7.30828 102.126 -7.21708 102.479 -7.08593ZM96.6015 -0.731141L80.2259 -2.20954C80.2008 -2.21183 80.175 -2.21369 80.1499 -2.216C57.7981 -4.66074 43.3129 -2.47547 32.5725 1.91293C26.578 4.36586 21.7388 7.63166 17.2581 11.2436C28.2716 9.04407 39.3146 7.93936 49.1941 8.12908C63.3827 8.40297 75.4292 10.7675 81.6146 17.6726C82.1077 18.2231 82.4071 18.8995 82.4668 19.6046C83.4757 31.1976 80.9608 50.0537 78.2772 66.6975C76.9408 75.0256 75.541 82.7408 74.4808 88.5345C73.948 91.4283 73.5059 93.8501 73.1936 95.603C73.0372 96.4797 72.9207 97.1989 72.8411 97.703C72.7614 98.2071 72.7464 98.7056 72.7456 98.2978C72.7387 103.502 75.7535 110.431 80.9874 115.663C82.99 117.664 85.2714 119.41 87.7972 120.795L87.0821 117.801C87.0037 117.487 87.02 117.157 87.1324 116.849C87.2449 116.541 87.4491 116.268 87.7263 116.064C87.9975 115.854 88.3306 115.719 88.6834 115.671C89.0408 115.63 89.3989 115.667 89.7277 115.795C90.0193 115.909 90.2727 116.08 90.4702 116.3C90.6677 116.52 90.8047 116.782 90.87 117.065L92.212 122.707C94.8156 123.58 97.6013 124.075 100.562 124.069L96.5432 114.728C96.3977 114.402 96.3609 114.039 96.4487 113.699C96.5312 113.352 96.7259 113.036 97.0119 112.796C97.2978 112.555 97.6545 112.395 98.0419 112.342C98.4241 112.283 98.8187 112.335 99.1755 112.493C99.6269 112.684 99.9806 113.033 100.155 113.459L104.628 123.857C107.15 123.651 109.609 123.339 111.961 122.904L107.835 116.586C107.611 116.255 107.516 115.874 107.561 115.494C107.606 115.114 107.782 114.751 108.075 114.476C108.363 114.194 108.745 114.006 109.167 113.948C109.585 113.884 110.012 113.943 110.385 114.119C110.714 114.277 110.986 114.515 111.168 114.805L115.9 122.043C118.353 121.427 120.653 120.681 122.762 119.808L119.096 111.285C118.95 110.959 118.913 110.597 119 110.257C119.083 109.91 119.277 109.594 119.563 109.354C119.842 109.108 120.205 108.953 120.587 108.894C120.974 108.842 121.369 108.893 121.722 109.044C122.178 109.242 122.531 109.592 122.706 110.017L126.228 118.203C126.229 118.202 126.23 118.201 126.232 118.2C128.486 116.987 130.4 115.635 131.975 114.131L128.769 106.679C128.624 106.353 128.592 105.996 128.674 105.65C128.756 105.304 128.95 104.988 129.236 104.748C129.522 104.508 129.878 104.347 130.266 104.294C130.648 104.235 131.043 104.287 131.395 104.438C131.851 104.636 132.205 104.985 132.38 105.411L134.701 110.804C135.88 108.901 136.633 106.799 136.894 104.445C138.22 92.4286 125.699 79.7493 107.515 79.0417L107.513 79.0431C102.193 78.8316 97.31 78.9909 93.0955 80.0157C92.5136 80.1551 91.9065 80.1726 91.3152 80.0596C90.7286 79.9532 90.1773 79.7226 89.7045 79.387C89.2324 79.0509 88.8522 78.6204 88.5919 78.1257C88.337 77.6372 88.21 77.0989 88.2204 76.5538C88.8059 52.1091 91.8794 26.1876 96.6015 -0.731141ZM74.0191 1.08954C74.8961 1.63959 75.1118 2.7333 74.4988 3.52194C73.8912 4.31678 72.6846 4.51596 71.8024 3.95971C70.9268 3.4087 70.709 2.31644 71.3233 1.52685C71.933 0.730547 73.1403 0.530867 74.0191 1.08954ZM89.7666 11.2856C90.6422 11.8366 90.8586 12.9298 90.2496 13.7256C89.6359 14.5147 88.4328 14.7115 87.5505 14.1552C86.6743 13.6047 86.4572 12.512 87.0715 11.7224C87.6798 10.9271 88.891 10.7345 89.7666 11.2856ZM100.806 88.7395C101.276 88.9273 101.645 89.2758 101.834 89.7113C102.017 90.1405 102.008 90.6251 101.8 91.0496C101.593 91.474 101.206 91.8055 100.731 91.979C100.252 92.1458 99.7168 92.1328 99.2457 91.9455C98.7752 91.7577 98.4059 91.4093 98.2227 90.98C98.0342 90.5446 98.0489 90.0661 98.251 89.6354C98.4584 89.211 98.8457 88.8796 99.3255 88.7123C99.8052 88.545 100.334 88.5522 100.806 88.7395ZM85.4085 94.6323C85.879 94.8201 86.2476 95.169 86.4361 95.6044C86.6193 96.0337 86.6099 96.5183 86.4025 96.9427C86.1958 97.3667 85.8085 97.6982 85.3341 97.8717C84.8544 98.039 84.3192 98.0261 83.8487 97.8382C83.3782 97.6504 83.0089 97.3019 82.8257 96.8727C82.6372 96.4372 82.6519 95.9588 82.8593 95.5344C83.0614 95.1038 83.448 94.7727 83.9277 94.6054C84.4075 94.4382 84.9374 94.4449 85.4085 94.6323ZM92.7795 104.68C93.2499 104.867 93.6186 105.216 93.8071 105.652C93.9903 106.081 93.9809 106.566 93.7735 106.99C93.5667 107.414 93.1794 107.746 92.7051 107.919C92.2253 108.086 91.6901 108.073 91.2196 107.886C90.7491 107.698 90.3798 107.349 90.1967 106.92C90.0081 106.485 90.0228 106.006 90.2302 105.582C90.4323 105.151 90.819 104.82 91.2987 104.653C91.7784 104.486 92.3083 104.492 92.7795 104.68Z" fill="#D9E6D9"/>
</svg>
