<svg width="93" height="58" viewBox="0 0 93 58" fill="none" xmlns="http://www.w3.org/2000/svg">
<path d="M0.757938 -31.2935C0.481543 -30.7243 0.423829 -30.094 0.594782 -29.5024C0.766406 -28.9047 1.15654 -28.3757 1.70251 -28.0029C20.3599 -15.2634 37.2089 -2.28996 52.0579 10.9407C49.5947 12.545 47.2662 14.3231 45.1136 16.3086C32.9686 27.5218 32.7648 44.4344 43.8287 53.0282C49.378 57.3359 56.5733 58.2666 63.5484 56.8643C70.5242 55.4619 77.4921 51.8874 83.7755 47.0793C90.4225 41.9977 92.9849 34.7201 92.8281 27.9117C92.6713 21.1095 89.9765 14.6243 85.4839 10.378C85.0407 9.95904 84.857 9.86386 84.4503 9.57167C84.0443 9.27942 83.5277 8.91647 82.8971 8.4831C81.636 7.61634 79.929 6.46079 77.8912 5.07451C73.8154 2.30196 68.4171 -1.38764 62.7088 -5.4275C51.6565 -13.2546 39.6048 -22.4544 33.839 -28.5941C33.9432 -30.5534 35.0411 -33.1638 37.0233 -36.0752L41.601 -29.2425C41.7003 -29.0842 41.8352 -28.9413 41.9977 -28.8257C42.1587 -28.7161 42.3445 -28.6334 42.5434 -28.5828C42.7416 -28.5384 42.9489 -28.5258 43.1522 -28.5499C43.3561 -28.5741 43.5507 -28.6409 43.7268 -28.7369C43.9037 -28.8268 44.056 -28.9579 44.1777 -29.1048C44.2986 -29.2517 44.3847 -29.4203 44.4306 -29.6039C44.477 -29.7813 44.4825 -29.9675 44.4469 -30.1501C44.4112 -30.3327 44.3359 -30.5055 44.2243 -30.6566L39.0076 -38.442C38.977 -38.4889 38.943 -38.5354 38.9069 -38.5755C40.1335 -40.0892 41.5799 -41.6408 43.2323 -43.2106L46.0299 -36.9574C46.1805 -36.624 46.4758 -36.353 46.8488 -36.2126C47.2232 -36.0661 47.644 -36.0661 48.0214 -36.1985C48.3982 -36.337 48.6995 -36.5989 48.8594 -36.9349C49.0186 -37.2709 49.0234 -37.649 48.8714 -37.9884L45.5791 -45.3308C47.5233 -47.0069 49.6569 -48.6688 51.9437 -50.3008L53.7518 -43.0254C53.7915 -42.8494 53.871 -42.683 53.9853 -42.5322C54.0997 -42.3813 54.2463 -42.2519 54.4177 -42.1494C54.5877 -42.053 54.779 -41.9832 54.9794 -41.9514C55.179 -41.9195 55.3843 -41.9252 55.5835 -41.9614C55.7821 -42.0037 55.9705 -42.0761 56.1357 -42.1835C56.3017 -42.291 56.4431 -42.4211 56.5504 -42.5792C56.6583 -42.7311 56.7301 -42.9046 56.7623 -43.087C56.7944 -43.2694 56.7868 -43.4482 56.7389 -43.6297L54.6597 -51.9894C54.6469 -52.044 54.6293 -52.0981 54.6083 -52.152C56.2377 -53.2369 57.9417 -54.2912 59.6831 -55.3241L62.2778 -49.5359C62.3497 -49.3689 62.4593 -49.2114 62.599 -49.0813C62.7395 -48.9452 62.9074 -48.8424 63.094 -48.7722C63.2805 -48.6958 63.4814 -48.6578 63.6846 -48.6572C63.8885 -48.6505 64.0905 -48.6869 64.2795 -48.7531C64.4679 -48.8255 64.64 -48.9273 64.7855 -49.0516C64.9296 -49.182 65.0444 -49.3345 65.1223 -49.5024C65.2002 -49.6702 65.2399 -49.8532 65.2385 -50.0388C65.2378 -50.2183 65.1961 -50.4003 65.1166 -50.5666L62.3054 -56.8435C64.0145 -57.7992 65.7664 -58.7092 67.5442 -59.5843L69.4032 -55.4336C69.4778 -55.2668 69.5895 -55.1095 69.7293 -54.9857C69.8698 -54.8557 70.0377 -54.7529 70.2222 -54.6826C70.4073 -54.6122 70.6062 -54.5741 70.8074 -54.5733C71.0085 -54.5725 71.2084 -54.6025 71.3941 -54.6746C71.5811 -54.7406 71.7518 -54.8362 71.8952 -54.9665C72.0386 -55.0906 72.1534 -55.2432 72.2327 -55.4049C72.3113 -55.5728 72.3537 -55.7499 72.3557 -55.9296C72.3577 -56.1093 72.3201 -56.2917 72.2454 -56.4585L70.2602 -60.8829C71.3752 -61.3962 72.4928 -61.9034 73.622 -62.3808C74.2366 -62.6394 74.7376 -63.0737 75.0474 -63.6149C75.3572 -64.1561 75.4587 -64.7717 75.3349 -65.3674C75.2105 -65.9693 74.8697 -66.5088 74.3635 -66.916C73.858 -67.3171 73.2165 -67.5576 72.54 -67.6031C63.6638 -68.1377 54.3984 -68.5205 44.3486 -65.398C34.3119 -62.2766 23.7052 -55.7062 11.8536 -42.9465L11.8426 -42.9331L1.24752 -31.9868C1.04631 -31.7771 0.881971 -31.5397 0.757938 -31.2935ZM7.94696 -30.5418L16.4751 -39.3553C16.4882 -39.3689 16.5019 -39.3825 16.515 -39.396C27.8996 -51.6688 37.5375 -57.4789 46.3435 -60.2129C51.2604 -61.7368 56.0006 -62.236 60.7422 -62.3638C53.0916 -58.2522 46.0805 -53.5037 40.5144 -48.5857C32.5214 -41.5217 27.0134 -34.312 27.5973 -27.3742C27.6439 -26.8212 27.8773 -26.2908 28.2657 -25.8608C34.6363 -18.7778 47.3875 -9.2807 58.9093 -1.1236C64.6708 2.96108 70.1012 6.66642 74.1845 9.4445C76.2258 10.8305 77.932 11.9923 79.1624 12.837C79.778 13.2593 80.2762 13.6115 80.6242 13.8593C80.9722 14.1072 81.2798 14.3833 81.0357 14.151C84.1598 17.1067 86.5807 22.5142 86.7086 28.0374C86.7571 30.1504 86.4923 32.2539 85.8707 34.2713L84.4865 32.2205C84.3436 32.0041 84.1363 31.8243 83.887 31.7039C83.6377 31.5835 83.3567 31.5279 83.0748 31.5466C82.7929 31.5591 82.5209 31.6451 82.2892 31.7893C82.0588 31.9397 81.8754 32.1354 81.763 32.3682C81.6638 32.5751 81.6206 32.7956 81.6389 33.0168C81.6573 33.2381 81.7359 33.454 81.8679 33.6467L84.4791 37.5081C83.5053 39.2718 82.201 40.91 80.495 42.3483L77.2051 35.0799C77.0931 34.8236 76.8969 34.5995 76.6422 34.4487C76.3869 34.2917 76.0855 34.2069 75.777 34.2094C75.4684 34.2118 75.1671 34.2942 74.9127 34.4529C74.6577 34.6054 74.4619 34.827 74.3515 35.0906C74.2066 35.4191 74.2128 35.79 74.3676 36.1168L78.0301 44.2066C76.4567 45.3175 74.8563 46.338 73.2432 47.2357L71.8274 41.6343C71.7573 41.3371 71.5831 41.0739 71.33 40.8796C71.0762 40.6853 70.7578 40.5649 70.424 40.551C70.0895 40.531 69.7574 40.6099 69.4797 40.7831C69.2013 40.95 68.9911 41.1914 68.882 41.4734C68.7874 41.7232 68.7734 41.9907 68.843 42.2445L70.4625 48.6638C68.6827 49.5082 66.9131 50.203 65.1775 50.734L62.1747 44.1026C62.0635 43.8463 61.8672 43.6222 61.6133 43.4713C61.358 43.3143 61.0566 43.2294 60.7487 43.2319C60.4402 43.2282 60.1388 43.3167 59.8844 43.4692C59.63 43.6278 59.4336 43.8495 59.3218 44.107C59.1783 44.4416 59.1845 44.8125 59.3393 45.1393L62.2226 51.5088C62.2213 51.5089 62.2199 51.509 62.2185 51.5091C60.1947 51.9169 58.284 52.0795 56.4768 51.9915L53.8521 46.1935C53.7401 45.9371 53.5445 45.7192 53.2899 45.5621C53.0353 45.4051 52.7339 45.3203 52.4253 45.3228C52.1175 45.3252 51.8161 45.4075 51.5617 45.5662C51.3067 45.7187 51.1109 45.9404 50.9985 46.1979C50.855 46.5325 50.8612 46.9034 51.016 47.2302L52.9151 51.427C51.0964 50.919 49.4027 50.0905 47.8411 48.8788C39.8746 42.6921 39.4709 29.3866 49.501 20.1308L49.503 20.1306C52.4348 17.4201 55.3377 15.1332 58.3751 13.6639C58.7932 13.4598 59.1527 13.1742 59.4249 12.822C59.6984 12.4759 59.877 12.0764 59.9476 11.6553C60.0176 11.2344 59.9781 10.8045 59.8311 10.3965C59.6847 9.99464 59.435 9.62671 59.1022 9.3218C44.1095 -4.29236 26.8011 -17.5349 7.94696 -30.5418ZM22.0215 -40.5015C21.8471 -39.7618 22.3788 -39.0348 23.2041 -38.8849C24.03 -38.7288 24.8431 -39.2029 25.0168 -39.9488C25.1898 -40.6884 24.6601 -41.4155 23.8335 -41.5654C23.0056 -41.7213 22.1918 -41.247 22.0215 -40.5015ZM19.0811 -27.0369C18.9081 -26.2973 19.4392 -25.5703 20.2664 -25.4143C21.0923 -25.2644 21.902 -25.7383 22.0757 -26.4841C22.2494 -27.2238 21.7191 -27.9508 20.8925 -28.1007C20.0659 -28.2567 19.2542 -27.7765 19.0811 -27.0369ZM59.1729 22.3781C59.015 22.714 59.0116 23.0919 59.1643 23.4313C59.3164 23.7646 59.6123 24.0356 59.986 24.1759C60.3597 24.3162 60.7812 24.3162 61.1579 24.1839C61.5334 24.0455 61.8333 23.7775 61.9919 23.4416C62.1497 23.1057 62.1531 22.7278 62.0011 22.3945C61.8484 22.0551 61.5531 21.7902 61.1787 21.6437C60.805 21.5034 60.3836 21.5035 60.0075 21.642C59.6314 21.7805 59.3315 22.0422 59.1729 22.3781ZM71.5579 18.2322C71.4 18.5681 71.3973 18.9459 71.55 19.2853C71.702 19.6186 71.998 19.8895 72.3717 20.0299C72.7447 20.1703 73.1662 20.1702 73.5429 20.0379C73.919 19.8994 74.2189 19.6315 74.3768 19.2957C74.5347 18.9598 74.5381 18.5818 74.3861 18.2486C74.2334 17.9092 73.9381 17.6443 73.5644 17.504C73.19 17.3575 72.7692 17.3575 72.3931 17.496C72.017 17.6344 71.7165 17.8963 71.5579 18.2322ZM73.3442 27.5339C73.1863 27.8697 73.1836 28.2477 73.3364 28.5871C73.4884 28.9203 73.7843 29.1913 74.1581 29.3316C74.5311 29.472 74.9525 29.472 75.3293 29.3396C75.7054 29.2012 76.0053 28.9332 76.1632 28.5973C76.3211 28.2615 76.3245 27.8836 76.1724 27.5503C76.0197 27.2109 75.7244 26.946 75.3507 26.8057C74.9763 26.6592 74.5556 26.6593 74.1795 26.7977C73.8034 26.9362 73.5028 27.198 73.3442 27.5339Z" fill="#D9E6D9"/>
</svg>
