<svg width="64" height="36" viewBox="0 0 64 36" fill="none" xmlns="http://www.w3.org/2000/svg">
<path d="M22.4528 0.217481C22.1079 0.317831 21.8117 0.517343 21.6114 0.784692C21.4086 1.05442 21.3114 1.37789 21.3365 1.70228C22.1916 12.7883 22.3201 23.3125 21.6456 33.2148C20.0923 32.8983 18.5093 32.6905 16.8961 32.6177C7.78958 32.2105 0.306044 38.0419 0.357667 44.9786C0.384733 48.457 2.46008 51.3422 5.48204 53.3346C8.50427 55.3273 12.4759 56.5589 16.7519 57.1163C21.2734 57.7076 25.3476 56.0788 28.2778 53.6463C31.2052 51.216 33.1178 47.9932 33.4285 44.9123C33.4592 44.6084 33.4375 44.5098 33.4252 44.2631C33.4132 44.0166 33.394 43.706 33.3663 43.3304C33.311 42.579 33.2284 41.5683 33.1327 40.3592C32.9413 37.9411 32.6954 34.7323 32.4961 31.2908C32.1124 24.6258 31.9855 17.1259 32.6868 12.931C33.5815 12.2841 35.1046 11.7635 37.0649 11.4525L35.6498 15.4666C35.6147 15.5572 35.5987 15.6551 35.604 15.7533C35.6116 15.8488 35.6394 15.9438 35.6859 16.0322C35.7349 16.1183 35.8009 16.1964 35.8816 16.2603C35.9626 16.3245 36.059 16.3704 36.1619 16.3995C36.2624 16.4311 36.3724 16.4395 36.4788 16.4315C36.5849 16.4233 36.6885 16.3951 36.7848 16.3473C36.8786 16.3019 36.9621 16.2388 37.0298 16.1624C37.0976 16.086 37.1473 15.9989 37.175 15.9064L38.7871 11.3324C38.7971 11.3052 38.8057 11.2768 38.8109 11.25C39.8977 11.158 41.077 11.1311 42.3354 11.171L40.56 14.3494C40.4658 14.5194 40.4489 14.7191 40.5161 14.9008C40.5811 15.0852 40.7263 15.2349 40.9146 15.323C41.1054 15.4087 41.3242 15.4245 41.5267 15.3641C41.7289 15.3034 41.8962 15.1732 41.9926 15.0006L44.0746 11.2659C45.4803 11.3727 46.9451 11.5518 48.4497 11.7958L45.8848 14.9788C45.8213 15.0544 45.7758 15.1407 45.7492 15.2341C45.7225 15.3275 45.7164 15.4248 45.7306 15.5216C45.747 15.6157 45.7825 15.7082 45.8377 15.7906C45.8926 15.8727 45.9659 15.9438 46.0505 16.002C46.1376 16.0579 46.2343 16.0997 46.3385 16.121C46.4429 16.1425 46.5487 16.1474 46.655 16.1304C46.7589 16.1158 46.8597 16.0808 46.9507 16.0285C47.0418 15.9763 47.1175 15.9112 47.1805 15.8308L50.1272 12.1727C50.1467 12.1491 50.1644 12.1239 50.1807 12.0977C51.2186 12.2987 52.2688 12.537 53.3226 12.7961L51.681 15.7399C51.6326 15.8238 51.6014 15.9178 51.5926 16.0129C51.5814 16.1104 51.5943 16.2061 51.6279 16.2969C51.6588 16.39 51.7115 16.4747 51.7814 16.5472C51.8488 16.6221 51.9345 16.6813 52.0287 16.7254C52.1255 16.7672 52.2295 16.7929 52.3342 16.8013C52.4411 16.8071 52.5476 16.7947 52.648 16.7638C52.7485 16.7329 52.8424 16.6832 52.9233 16.6179C53.0017 16.555 53.067 16.4766 53.1125 16.3902L54.8936 13.1988C55.9023 13.4733 56.9058 13.779 57.903 14.1061L56.7252 16.2166C56.6779 16.3013 56.6475 16.396 56.6415 16.489C56.633 16.5843 56.6459 16.6799 56.6787 16.7701C56.7118 16.8606 56.7637 16.9447 56.8328 17.0165C56.9018 17.0884 56.984 17.149 57.0797 17.1899C57.1731 17.2334 57.2739 17.2608 57.3806 17.2663C57.4845 17.2741 57.591 17.2617 57.6892 17.2334C57.7899 17.2027 57.8822 17.156 57.9616 17.094C58.0411 17.032 58.1081 16.9549 58.1554 16.8701L59.4096 14.6192C60.0193 14.8368 60.6274 15.0574 61.2264 15.2926C61.5518 15.421 61.9151 15.4477 62.2592 15.369C62.6034 15.2903 62.9082 15.1115 63.1267 14.8595C63.3475 14.6051 63.4664 14.2955 63.4702 13.9733C63.4715 13.6534 63.3555 13.3411 63.142 13.0846C60.3129 9.73948 57.2829 6.30899 52.4458 3.82302C47.6137 1.34127 41.0731 -0.139274 31.3899 0.0978091L31.3803 0.0985614L22.9256 0.149693C22.7643 0.151297 22.6035 0.175671 22.4528 0.217481ZM24.6044 3.03798L31.4109 2.99587C31.4213 2.99578 31.432 2.99592 31.4425 2.99584C40.751 2.76259 46.624 4.16386 50.8616 6.34284C53.2265 7.56049 55.0813 9.07292 56.7737 10.7155C52.3311 9.4285 47.83 8.59137 43.7533 8.32758C37.8985 7.94933 32.8373 8.50622 29.9979 11.1359C29.7715 11.3455 29.6196 11.6137 29.5652 11.902C28.6592 16.6414 28.8972 24.494 29.2983 31.4413C29.4963 34.9173 29.7464 38.1431 29.9379 40.5658C30.0349 41.776 30.1146 42.7886 30.169 43.5213C30.1963 43.8878 30.2139 44.188 30.2254 44.3984C30.2368 44.6087 30.2219 44.8145 30.2395 44.6466C30.0222 46.79 28.4875 49.5391 26.1107 51.5127C25.2013 52.2676 24.1879 52.9076 23.0891 53.3907L23.5102 52.1823C23.5558 52.0559 23.563 51.9193 23.5298 51.7886C23.4965 51.6579 23.4239 51.5385 23.3184 51.4447C23.2156 51.3487 23.0841 51.282 22.9409 51.2499C22.7954 51.2204 22.6464 51.2235 22.5056 51.2647C22.3806 51.3016 22.2691 51.3632 22.1784 51.447C22.0878 51.5308 22.0202 51.6341 21.9814 51.7484L21.19 54.0255C20.0809 54.2947 18.9127 54.4024 17.6934 54.2974L19.7439 50.5895C19.8176 50.4602 19.8481 50.3121 19.8263 50.1689C19.807 50.0232 19.7402 49.8864 19.6326 49.7774C19.525 49.6685 19.3849 49.59 19.2276 49.5549C19.0727 49.5174 18.908 49.5251 18.7544 49.5778C18.5604 49.641 18.3999 49.7726 18.3101 49.9418L16.0282 54.0691C14.9982 53.897 13.9986 53.6837 13.0484 53.4232L15.015 50.964C15.121 50.8353 15.1763 50.6814 15.1741 50.5235C15.1717 50.3654 15.1146 50.2101 15.0054 50.0865C14.8988 49.9605 14.7496 49.8698 14.5778 49.8315C14.4086 49.7907 14.2302 49.8002 14.069 49.8598C13.9268 49.9133 13.8048 50.0017 13.7175 50.1151L11.4627 52.9322C10.4784 52.5937 9.56305 52.2065 8.73135 51.7743L10.6017 48.391C10.6756 48.2619 10.7061 48.1138 10.6846 47.9708C10.6653 47.8251 10.5985 47.6883 10.4912 47.5796C10.3863 47.4685 10.2435 47.3922 10.0889 47.3549C9.93152 47.3197 9.76658 47.3272 9.61514 47.3773C9.41895 47.4431 9.25851 47.5747 9.16868 47.7439L7.37193 50.9934C7.3714 50.9929 7.37088 50.9925 7.37036 50.992C6.49314 50.4143 5.76242 49.7911 5.17728 49.1174L6.81283 46.1594C6.88654 46.0301 6.91457 45.8844 6.89553 45.739C6.87649 45.5935 6.80965 45.4567 6.70206 45.3478C6.59474 45.2391 6.45465 45.1606 6.29731 45.1255C6.14242 45.0879 5.97771 45.0957 5.82601 45.1456C5.62982 45.2113 5.46941 45.343 5.37958 45.5121L4.19549 47.6529C3.79047 46.8285 3.56909 45.9366 3.56122 44.9579C3.52352 39.9635 9.2163 35.1751 16.735 35.5131L16.7358 35.5137C18.9357 35.6107 20.9399 35.8453 22.6323 36.4132C22.866 36.4908 23.1153 36.519 23.3636 36.4929C23.6097 36.4694 23.8464 36.3935 24.0554 36.2717C24.264 36.1496 24.4388 35.9855 24.5669 35.7907C24.6925 35.5984 24.7676 35.3811 24.7864 35.1562C25.5794 25.0689 25.4103 14.2873 24.6044 3.03798ZM33.8275 4.56933C33.443 4.76551 33.3079 5.20846 33.527 5.55446C33.7436 5.90283 34.2321 6.02662 34.619 5.82807C35.0029 5.63145 35.1388 5.18916 34.9192 4.84273C34.7018 4.49369 34.213 4.36967 33.8275 4.56933ZM26.9108 8.22335C26.5269 8.41997 26.3916 8.86271 26.6087 9.21152C26.828 9.55774 27.3152 9.68041 27.7021 9.48186C28.0862 9.28546 28.2219 8.84297 28.0023 8.49653C27.7854 8.14794 27.2947 8.02673 26.9108 8.22335ZM19.088 39.7391C18.8863 39.8002 18.7194 39.9309 18.6233 40.1037C18.5298 40.2742 18.5131 40.4741 18.5806 40.656C18.6481 40.838 18.7935 40.988 18.9816 41.0758C19.1718 41.1611 19.3928 41.1743 19.5947 41.1134C19.7964 41.0524 19.9633 40.9217 20.0569 40.7512C20.1529 40.5784 20.1671 40.3809 20.1021 40.1965C20.0346 40.0145 19.8891 39.8646 19.6986 39.7791C19.5082 39.6936 19.2899 39.6783 19.088 39.7391ZM25.1796 42.6988C24.9779 42.7599 24.8113 42.8908 24.7153 43.0636C24.6217 43.234 24.605 43.4339 24.6725 43.6159C24.7397 43.7977 24.8852 43.9476 25.0732 44.0355C25.2637 44.121 25.4846 44.1342 25.6864 44.0731C25.8881 44.012 26.0549 43.8813 26.1485 43.7109C26.2446 43.538 26.2587 43.3405 26.1913 43.1586C26.1263 42.9742 25.9811 42.8245 25.7906 42.739C25.6001 42.6535 25.3816 42.638 25.1796 42.6988ZM21.719 46.5815C21.5173 46.6426 21.3507 46.7735 21.2546 46.9463C21.161 47.1168 21.1444 47.3167 21.2119 47.4987C21.2791 47.6804 21.4245 47.8303 21.6126 47.9182C21.8031 48.0037 22.024 48.0169 22.2257 47.9558C22.4275 47.8947 22.5943 47.764 22.6879 47.5936C22.7839 47.4208 22.7981 47.2232 22.7307 47.0413C22.6657 46.8569 22.5204 46.7072 22.3299 46.6217C22.1394 46.5362 21.921 46.5207 21.719 46.5815Z" fill="#D9E6D9"/>
</svg>
