<svg width="30" height="44" viewBox="0 0 30 44" fill="none" xmlns="http://www.w3.org/2000/svg">
<path d="M0.805724 8.14663C0.654425 8.31552 0.569925 8.52353 0.565905 8.73774C0.561472 8.95407 0.637221 9.16562 0.781243 9.33757C5.70261 15.2141 9.99507 21.0171 13.5921 26.7381C12.6025 27.072 11.6399 27.476 10.7148 27.9648C5.49368 30.7267 3.67622 36.4209 6.48713 40.2566C7.89728 42.1796 10.2071 43.1011 12.6846 43.2161C15.1624 43.3312 17.8622 42.712 20.4607 41.6186C23.209 40.4635 24.8186 38.222 25.4704 35.9096C26.1215 33.5992 25.8911 31.1818 24.828 29.3687C24.7231 29.1898 24.6715 29.1422 24.5658 29.0092C24.4602 28.8762 24.325 28.7101 24.159 28.5105C23.8269 28.1114 23.3756 27.5771 22.8375 26.937C21.7614 25.6568 20.3378 23.9553 18.8467 22.1093C15.9604 18.5334 12.8819 14.4097 11.5888 11.8498C11.8263 11.1969 12.4635 10.408 13.4274 9.59211L14.2515 12.2858C14.2683 12.3477 14.2987 12.4073 14.341 12.46C14.3836 12.5106 14.4371 12.5542 14.4984 12.5881C14.5601 12.6198 14.6281 12.6416 14.6986 12.6506C14.7693 12.6596 14.8412 12.6535 14.9101 12.6359C14.9785 12.6205 15.043 12.5891 15.0989 12.5497C15.1545 12.5103 15.2008 12.4607 15.2351 12.4025C15.269 12.3465 15.2901 12.2841 15.297 12.2195C15.304 12.1548 15.2967 12.0901 15.275 12.0296L14.3358 8.96028C14.3304 8.94188 14.3238 8.9233 14.3159 8.9067C14.8827 8.49905 15.5268 8.09712 16.2417 7.70643L16.5305 10.0542C16.5464 10.1795 16.6171 10.296 16.7273 10.3748C16.8373 10.4559 16.978 10.4914 17.118 10.4786C17.2583 10.4636 17.3861 10.4006 17.4744 10.3006C17.5624 10.2005 17.6031 10.0733 17.5873 9.94582L17.2458 7.18846C18.0693 6.78651 18.9547 6.40535 19.8882 6.04718L19.7403 8.65665C19.7354 8.71944 19.7447 8.78233 19.7674 8.84293C19.79 8.90353 19.8257 8.95959 19.8724 9.00867C19.9193 9.05557 19.976 9.09529 20.0397 9.12294C20.1032 9.15056 20.1724 9.16595 20.2428 9.17055C20.3136 9.17302 20.384 9.16448 20.4504 9.14213C20.517 9.11983 20.5778 9.08783 20.63 9.04351C20.6818 9.00131 20.7238 8.94877 20.7534 8.8899C20.783 8.83102 20.7989 8.76998 20.8017 8.70465L20.9711 5.70613C20.9724 5.68662 20.9722 5.66684 20.9707 5.64688C21.6278 5.418 22.3066 5.20575 22.9958 5.00389L23.2648 7.17754C23.2716 7.24 23.2919 7.30243 23.3252 7.35814C23.3581 7.41598 23.4036 7.46486 23.4587 7.5043C23.5132 7.54583 23.5765 7.57562 23.6444 7.59298C23.7118 7.61246 23.7831 7.61719 23.8532 7.61078C23.9237 7.60225 23.9918 7.58238 24.0533 7.55269C24.115 7.52083 24.1691 7.479 24.2125 7.42889C24.2559 7.37879 24.2881 7.32033 24.3069 7.25753C24.3252 7.19687 24.3301 7.13187 24.3207 7.069L24.0299 4.7121C24.7002 4.53356 25.3802 4.3741 26.0652 4.22858L26.2575 5.78716C26.2652 5.84977 26.2863 5.91232 26.3202 5.96594C26.3538 6.02168 26.3993 6.07055 26.4537 6.10989C26.5083 6.14926 26.5709 6.17893 26.6381 6.19618C26.7053 6.21342 26.7752 6.22015 26.8448 6.21147C26.9141 6.20495 26.9811 6.18707 27.0425 6.15518C27.1033 6.12537 27.1575 6.08355 27.2007 6.0356C27.2444 5.98554 27.2769 5.92932 27.2961 5.8688C27.3154 5.80828 27.3217 5.74351 27.314 5.6809L27.1077 4.01924C27.5337 3.94 27.9599 3.86301 28.3868 3.79709C28.6191 3.76163 28.8316 3.65724 28.9911 3.50062C29.1507 3.344 29.2483 3.14467 29.2686 2.93304C29.2892 2.71928 29.231 2.50834 29.1039 2.32811C28.9763 2.15001 28.7867 2.01466 28.5652 1.94221C25.6523 1.01264 22.5935 0.101532 18.9099 0.307953C15.2308 0.515087 11.0043 1.83888 5.72139 5.14775L5.71633 5.15133L1.04114 7.95384C0.952169 8.00767 0.872666 8.07395 0.805724 8.14663ZM3.13198 9.00714L6.89539 6.75045C6.90115 6.74698 6.90716 6.74354 6.91292 6.74007C11.9893 3.55625 15.8132 2.40748 19.0407 2.22728C20.8425 2.12759 22.4793 2.35902 24.0781 2.71597C21.0945 3.45887 18.2588 4.4708 15.8888 5.66192C12.4853 7.37292 9.89774 9.34284 9.37543 11.735C9.3338 11.9257 9.357 12.1245 9.44241 12.3025C10.8401 15.232 14.1218 19.5152 17.131 23.2421C18.6352 25.1077 20.0679 26.8172 21.146 28.1C21.6853 28.7403 22.1356 29.2766 22.4598 29.6657C22.6219 29.8602 22.7521 30.0212 22.8428 30.1343C22.9336 30.2473 23.0078 30.3665 22.9502 30.2675C23.6892 31.5293 23.9395 33.5597 23.411 35.4357C23.2087 36.1533 22.9025 36.8413 22.486 37.4701L22.2353 36.6608C22.2099 36.5756 22.1591 36.4974 22.0882 36.4357C22.0173 36.374 21.9291 36.3315 21.8329 36.3141C21.7373 36.2945 21.6375 36.3006 21.5451 36.3297C21.4525 36.3611 21.3709 36.4117 21.3093 36.4808C21.2547 36.5423 21.2174 36.6131 21.2007 36.6894C21.1839 36.7657 21.1879 36.8452 21.2121 36.9214L21.6859 38.4458C21.1778 38.9592 20.5722 39.4023 19.853 39.7441L19.5046 37.012C19.4937 36.9159 19.4512 36.8237 19.3817 36.7513C19.3125 36.6767 19.2205 36.6226 19.1171 36.5975C19.0137 36.5723 18.9044 36.5746 18.8029 36.6068C18.7018 36.6367 18.6134 36.6951 18.5493 36.7748C18.4668 36.8735 18.4305 36.9992 18.4485 37.1227L18.8365 40.1637C18.1955 40.4061 17.5547 40.6156 16.9225 40.7826L17.0284 38.7716C17.0357 38.6653 17.0047 38.5617 16.9401 38.4747C16.8753 38.3877 16.7813 38.3202 16.6711 38.2873C16.5613 38.2523 16.4421 38.251 16.3314 38.286C16.221 38.3189 16.1257 38.3827 16.0601 38.4687C16.0026 38.5451 15.9703 38.6342 15.9673 38.7258L15.8449 41.0303C15.1624 41.1652 14.4988 41.2505 13.8635 41.2834L13.5452 38.7906C13.5345 38.6946 13.4921 38.6024 13.4228 38.53C13.3537 38.4554 13.2616 38.4014 13.1584 38.3762C13.0556 38.3489 12.9457 38.3534 12.8449 38.3834C12.7434 38.4155 12.6548 38.4738 12.5908 38.5513C12.5082 38.6522 12.4719 38.778 12.4899 38.9014L12.7952 41.2957C12.7948 41.2956 12.7943 41.2955 12.7938 41.2955C12.0749 41.2624 11.4191 41.1561 10.8239 40.9739L10.5459 38.7944C10.535 38.6984 10.4921 38.6082 10.4232 38.5337C10.3543 38.4592 10.2623 38.4051 10.1588 38.3799C10.0556 38.3548 9.94635 38.3571 9.84487 38.3893C9.74381 38.4192 9.65542 38.4776 9.59117 38.5551C9.50858 38.6559 9.47229 38.7817 9.49026 38.9051L9.69126 40.4827C9.13563 40.1576 8.65495 39.7349 8.25806 39.194C6.23395 36.4325 7.47516 31.9051 11.7866 29.6258L11.7873 29.6259C13.048 28.958 14.2552 28.4306 15.4229 28.1908C15.5838 28.1571 15.7336 28.091 15.861 27.9951C15.9883 27.9013 16.0894 27.7814 16.1565 27.6452C16.2235 27.5089 16.2547 27.3604 16.2478 27.2103C16.2404 27.0622 16.1949 26.9169 16.1152 26.7858C12.5098 20.9232 8.09149 14.9906 3.13198 9.00714ZM8.86864 6.83143C8.73382 7.06652 8.83645 7.35687 9.09689 7.47715C9.35692 7.59956 9.67786 7.50804 9.8131 7.27083C9.94745 7.03566 9.84554 6.74543 9.58462 6.62507C9.32389 6.50254 9.0027 6.59403 8.86864 6.83143ZM6.49274 11.1303C6.35838 11.3655 6.46077 11.6558 6.72127 11.7783C6.98195 11.8986 7.30171 11.8069 7.43695 11.5697C7.57154 11.3345 7.4694 11.0443 7.20849 10.9239C6.94822 10.8015 6.62709 10.8952 6.49274 11.1303ZM14.7884 31.2009C14.7009 31.301 14.6606 31.4284 14.6766 31.5558C14.693 31.6812 14.7639 31.7977 14.8744 31.8766C14.9848 31.9556 15.1258 31.9911 15.2654 31.9782C15.4053 31.9632 15.5333 31.898 15.6211 31.7979C15.7086 31.6978 15.7488 31.5705 15.7325 31.4451C15.7165 31.3176 15.6451 31.2032 15.5351 31.1222C15.4246 31.0432 15.2837 31.0077 15.1436 31.0227C15.0035 31.0378 14.8762 31.1008 14.7884 31.2009ZM19.3588 30.8459C19.2712 30.946 19.2312 31.0734 19.2472 31.2009C19.2636 31.3263 19.3345 31.4428 19.445 31.5217C19.5552 31.6006 19.6961 31.6361 19.8358 31.6232C19.9759 31.6082 20.1039 31.543 20.1914 31.4429C20.2789 31.3428 20.3192 31.2155 20.3028 31.0901C20.2868 30.9626 20.2155 30.8483 20.105 30.7693C19.995 30.6883 19.8543 30.6528 19.7142 30.6678C19.5741 30.6828 19.4465 30.7459 19.3588 30.8459ZM18.994 34.1379C18.9065 34.238 18.8665 34.3653 18.8825 34.4928C18.8988 34.6182 18.9698 34.7347 19.0802 34.8136C19.1905 34.8925 19.3314 34.9281 19.4711 34.9152C19.6111 34.9001 19.7392 34.835 19.8267 34.7349C19.9142 34.6348 19.9545 34.5074 19.9381 34.3821C19.9221 34.2546 19.8508 34.1402 19.7403 34.0613C19.6303 33.9802 19.4896 33.9447 19.3495 33.9597C19.2094 33.9748 19.0818 34.0378 18.994 34.1379Z" fill="#D9E6D9"/>
</svg>
