<svg width="258" height="140" viewBox="0 0 258 140" fill="none" xmlns="http://www.w3.org/2000/svg">
<mask id="mask0_5_266" style="mask-type:luminance" maskUnits="userSpaceOnUse" x="0" y="0" width="169" height="135">
<path d="M152.753 0.0291181L0 22.0664L16.238 134.621L168.991 112.584L152.753 0.0291181Z" fill="white"/>
</mask>
<g mask="url(#mask0_5_266)">
<g opacity="0.9">
<mask id="mask1_5_266" style="mask-type:luminance" maskUnits="userSpaceOnUse" x="80" y="63" width="3" height="3">
<path d="M82.6369 65.8116L82.6953 63.7012L80.3923 63.6988L80.3339 65.8093L82.6369 65.8116Z" fill="white"/>
</mask>
<g mask="url(#mask1_5_266)">
<path d="M80.5698 64.2114L81.24 64.355L81.7066 63.8762L81.7491 64.5094L82.378 64.7563L81.7355 65.0019L81.658 65.6349L81.2178 65.1552L80.5398 65.2974L80.9122 64.7548L80.5698 64.2114Z" fill="#9C9495"/>
</g>
<mask id="mask2_5_266" style="mask-type:luminance" maskUnits="userSpaceOnUse" x="82" y="61" width="3" height="2">
<path d="M84.1681 62.6443L84.207 61.2373L82.6716 61.2357L82.6327 62.6427L84.1681 62.6443Z" fill="white"/>
</mask>
<g mask="url(#mask2_5_266)">
<path d="M82.79 61.5775L83.2368 61.6732L83.5479 61.354L83.5762 61.7761L83.9955 61.9407L83.5671 62.1044L83.5155 62.5265L83.2221 62.2067L82.77 62.3015L83.0183 61.9397L82.79 61.5775Z" fill="#9C9495"/>
</g>
<mask id="mask3_5_266" style="mask-type:luminance" maskUnits="userSpaceOnUse" x="77" y="64" width="2" height="2">
<path d="M78.6994 65.9865L78.7383 64.5796L77.2029 64.578L77.164 65.985L78.6994 65.9865Z" fill="white"/>
</mask>
<g mask="url(#mask3_5_266)">
<path d="M77.3213 64.9202L77.7681 65.016L78.0792 64.6968L78.1075 65.1189L78.5268 65.2835L78.0984 65.4472L78.0467 65.8693L77.7533 65.5494L77.3013 65.6442L77.5496 65.2825L77.3213 64.9202Z" fill="#9C9495"/>
</g>
<mask id="mask4_5_266" style="mask-type:luminance" maskUnits="userSpaceOnUse" x="78" y="62" width="2" height="2">
<path d="M79.0773 63.082L79.1016 62.2026L78.142 62.2016L78.1177 63.081L79.0773 63.082Z" fill="white"/>
</mask>
<g mask="url(#mask4_5_266)">
<path d="M70.8989 56.5202L77.2789 57.9369L81.727 53.2124L82.1253 59.4604L88.1116 61.8963L81.991 64.3196L81.2471 70.5665L77.0605 65.833L70.6026 67.2364L74.1544 61.8818L70.8989 56.5202Z" fill="#9C9495"/>
</g>
<mask id="mask5_5_266" style="mask-type:luminance" maskUnits="userSpaceOnUse" x="79" y="67" width="2" height="2">
<path d="M80.0812 68.0107L80.1055 67.1313L79.1459 67.1303L79.1216 68.0097L80.0812 68.0107Z" fill="white"/>
</mask>
<g mask="url(#mask5_5_266)">
<path d="M71.8989 61.4445L78.2789 62.8612L82.727 58.1367L83.1253 64.3848L89.1116 66.8206L82.991 69.2439L82.2471 75.4908L78.0605 70.7573L71.6026 72.1607L75.1544 66.8061L71.8989 61.4445Z" fill="#9C9495"/>
</g>
</g>
<g opacity="0.85">
<mask id="mask6_5_266" style="mask-type:luminance" maskUnits="userSpaceOnUse" x="65" y="72" width="7" height="6">
<path d="M71.1543 75.5733L69.1719 72.5303L65.797 74.4356L67.7794 77.4786L71.1543 75.5733Z" fill="white"/>
</mask>
<g mask="url(#mask6_5_266)">
<path d="M66.5582 75.0153L67.6803 74.6637L67.8946 73.5975L68.5772 74.4608L69.7401 74.2899L69.0397 75.1709L69.5466 76.1334L68.432 75.8175L67.5783 76.5812L67.5921 75.5025L66.5582 75.0153Z" fill="#9C9495"/>
</g>
<mask id="mask7_5_266" style="mask-type:luminance" maskUnits="userSpaceOnUse" x="66" y="67" width="5" height="5">
<path d="M70.2825 69.8173L68.9609 67.7886L66.711 69.0588L68.0326 71.0875L70.2825 69.8173Z" fill="white"/>
</mask>
<g mask="url(#mask7_5_266)">
<path d="M67.2185 69.4456L67.9666 69.2112L68.1094 68.5004L68.5645 69.0759L69.3397 68.962L68.8729 69.5493L69.2107 70.191L68.4677 69.9804L67.8986 70.4895L67.9077 69.7704L67.2185 69.4456Z" fill="#9C9495"/>
</g>
<mask id="mask8_5_266" style="mask-type:luminance" maskUnits="userSpaceOnUse" x="61" y="77" width="5" height="4">
<path d="M65.5599 79.0761L64.2383 77.0474L61.9884 78.3176L63.31 80.3463L65.5599 79.0761Z" fill="white"/>
</mask>
<g mask="url(#mask8_5_266)">
<path d="M62.4958 78.7049L63.2439 78.4704L63.3867 77.7597L63.8418 78.3352L64.6171 78.2213L64.1502 78.8086L64.4881 79.4502L63.745 79.2396L63.1759 79.7488L63.1851 79.0297L62.4958 78.7049Z" fill="#9C9495"/>
</g>
<mask id="mask9_5_266" style="mask-type:luminance" maskUnits="userSpaceOnUse" x="61" y="73" width="3" height="3">
<path d="M63.2479 74.6512L62.4219 73.3833L61.0157 74.1772L61.8417 75.4451L63.2479 74.6512Z" fill="white"/>
</mask>
<g mask="url(#mask9_5_266)">
<path d="M51.718 74.0676L58.0775 72.0938L59.2548 66.0076L63.1636 70.9634L69.7616 70.024L65.8169 75.0363L68.7311 80.5536L62.3893 78.7123L57.5696 83.0497L57.6077 76.8854L51.718 74.0676Z" fill="#9C9495"/>
</g>
<mask id="mask10_5_266" style="mask-type:luminance" maskUnits="userSpaceOnUse" x="67" y="79" width="3" height="3">
<path d="M69.576 80.8075L68.75 79.5396L67.3438 80.3335L68.1698 81.6014L69.576 80.8075Z" fill="white"/>
</mask>
<g mask="url(#mask10_5_266)">
<path d="M58.0422 80.2204L64.4018 78.2467L65.579 72.1605L69.4878 77.1163L76.0858 76.1768L72.1412 81.1891L75.0553 86.7064L68.7135 84.8651L63.8938 89.2025L63.9319 83.0382L58.0422 80.2204Z" fill="#9C9495"/>
</g>
</g>
<g opacity="0.73">
<mask id="mask11_5_266" style="mask-type:luminance" maskUnits="userSpaceOnUse" x="78" y="79" width="5" height="5">
<path d="M82.408 80.479L79.3984 79.8853L78.6802 82.6559L81.6898 83.2496L82.408 80.479Z" fill="white"/>
</mask>
<g mask="url(#mask11_5_266)">
<path d="M79.4697 82.5693L79.8837 81.7985L79.3416 81.1182L80.2632 81.2242L80.8126 80.5286L80.9655 81.3627L81.8497 81.613L81.0248 82.0236L81.0184 82.8748L80.3555 82.292L79.4697 82.5693Z" fill="#9C9495"/>
</g>
<mask id="mask12_5_266" style="mask-type:luminance" maskUnits="userSpaceOnUse" x="75" y="77" width="4" height="3">
<path d="M78.3502 77.8572L76.3438 77.4614L75.865 79.3085L77.8714 79.7043L78.3502 77.8572Z" fill="white"/>
</mask>
<g mask="url(#mask12_5_266)">
<path d="M76.3939 79.2509L76.6699 78.7371L76.3085 78.2836L76.9229 78.3542L77.2891 77.8905L77.391 78.4465L77.9805 78.6134L77.4306 78.8872L77.4263 79.4546L76.9844 79.0661L76.3939 79.2509Z" fill="#9C9495"/>
</g>
<mask id="mask13_5_266" style="mask-type:luminance" maskUnits="userSpaceOnUse" x="78" y="84" width="4" height="4">
<path d="M81.4244 85.2669L79.418 84.8711L78.9392 86.7182L80.9456 87.114L81.4244 85.2669Z" fill="white"/>
</mask>
<g mask="url(#mask13_5_266)">
<path d="M79.4681 86.6606L79.7441 86.1467L79.3827 85.6932L79.9971 85.7639L80.3633 85.3002L80.4653 85.8562L81.0547 86.0231L80.5048 86.2968L80.5005 86.8643L80.0586 86.4758L79.4681 86.6606Z" fill="#9C9495"/>
</g>
<mask id="mask14_5_266" style="mask-type:luminance" maskUnits="userSpaceOnUse" x="75" y="83" width="3" height="3">
<path d="M77.3829 84.1058L76.1289 83.8584L75.8297 85.0128L77.0837 85.2602L77.3829 84.1058Z" fill="white"/>
</mask>
<g mask="url(#mask14_5_266)">
<path d="M69.1943 92.015L72.1888 86.0746L68.6308 80.9798L74.9057 81.6366L78.8091 76.2473L79.6747 82.5774L85.6631 84.3397L79.9384 87.6033L79.7117 94.0897L75.307 89.7577L69.1943 92.015Z" fill="#9C9495"/>
</g>
<mask id="mask15_5_266" style="mask-type:luminance" maskUnits="userSpaceOnUse" x="83" y="83" width="2" height="3">
<path d="M84.7579 84.0984L83.5039 83.8511L83.2047 85.0055L84.4587 85.2529L84.7579 84.0984Z" fill="white"/>
</mask>
<g mask="url(#mask15_5_266)">
<path d="M76.5614 92.0072L79.5559 86.0667L75.9979 80.972L82.2729 81.6288L86.1763 76.2395L87.0419 82.5696L93.0302 84.3319L87.3056 87.5955L87.0789 94.0819L82.6742 89.7499L76.5614 92.0072Z" fill="#9C9495"/>
</g>
</g>
<g opacity="0.79">
<mask id="mask16_5_266" style="mask-type:luminance" maskUnits="userSpaceOnUse" x="91" y="78" width="7" height="6">
<path d="M94.9283 78.1795L91.8594 80.3364L94.1254 83.0931L97.1943 80.9362L94.9283 78.1795Z" fill="white"/>
</mask>
<g mask="url(#mask16_5_266)">
<path d="M94.6814 82.3401L94.226 81.3872L93.0829 81.3342L93.9446 80.6154L93.6772 79.6027L94.6607 80.1121L95.6404 79.5368L95.3896 80.5693L96.2606 81.2302L95.1193 81.3573L94.6814 82.3401Z" fill="#9C9495"/>
</g>
<mask id="mask17_5_266" style="mask-type:luminance" maskUnits="userSpaceOnUse" x="86" y="79" width="5" height="4">
<path d="M88.9053 79.6851L86.8594 81.123L88.3701 82.9608L90.416 81.5229L88.9053 79.6851Z" fill="white"/>
</mask>
<g mask="url(#mask17_5_266)">
<path d="M88.7407 82.4587L88.4371 81.8234L87.6751 81.7881L88.2495 81.3088L88.0712 80.6338L88.7269 80.9733L89.38 80.5898L89.2128 81.2781L89.7936 81.7187L89.0327 81.8035L88.7407 82.4587Z" fill="#9C9495"/>
</g>
<mask id="mask18_5_266" style="mask-type:luminance" maskUnits="userSpaceOnUse" x="97" y="82" width="4" height="4">
<path d="M99.0537 82.7148L97.0078 84.1528L98.5185 85.9906L100.564 84.5527L99.0537 82.7148Z" fill="white"/>
</mask>
<g mask="url(#mask18_5_266)">
<path d="M98.8892 85.488L98.5855 84.8527L97.8235 84.8174L98.398 84.3381L98.2197 83.6631L98.8754 84.0026L99.5285 83.6191L99.3613 84.3074L99.942 84.748L99.1811 84.8328L98.8892 85.488Z" fill="#9C9495"/>
</g>
<mask id="mask19_5_266" style="mask-type:luminance" maskUnits="userSpaceOnUse" x="93" y="85" width="3" height="3">
<path d="M94.5599 85.3293L93.2812 86.228L94.2254 87.3766L95.5041 86.4779L94.5599 85.3293Z" fill="white"/>
</mask>
<g mask="url(#mask19_5_266)">
<path d="M95.4004 96.1482L92.4785 90.3784L85.8666 89.7635L90.6173 85.7286L88.7619 79.6547L94.5942 82.9334L100.07 79.7808L98.9411 85.8363L104.171 89.9839L97.6245 90.4367L95.4004 96.1482Z" fill="#9C9495"/>
</g>
<mask id="mask20_5_266" style="mask-type:luminance" maskUnits="userSpaceOnUse" x="99" y="78" width="3" height="3">
<path d="M100.576 78.927L99.2969 79.8257L100.241 80.9743L101.52 80.0756L100.576 78.927Z" fill="white"/>
</mask>
<g mask="url(#mask20_5_266)">
<path d="M101.412 89.7493L98.4902 83.9795L91.8783 83.3646L96.629 79.3297L94.7736 73.2557L100.606 76.5345L106.082 73.3819L104.953 79.4374L110.183 83.585L103.636 84.0378L101.412 89.7493Z" fill="#9C9495"/>
</g>
</g>
<g opacity="0.97">
<mask id="mask21_5_266" style="mask-type:luminance" maskUnits="userSpaceOnUse" x="94" y="57" width="5" height="6">
<path d="M95.5924 62.1098L98.7148 60.606L97.1627 57.7839L94.0404 59.2877L95.5924 62.1098Z" fill="white"/>
</mask>
<g mask="url(#mask21_5_266)">
<path d="M96.5354 58.3839L96.7783 59.3118L97.7929 59.5259L96.8966 60.0505L96.9607 61.005L96.168 60.4014L95.1909 60.779L95.5944 59.882L94.9286 59.1577L95.9729 59.2088L96.5354 58.3839Z" fill="#9C9495"/>
</g>
<mask id="mask22_5_266" style="mask-type:luminance" maskUnits="userSpaceOnUse" x="100" y="58" width="4" height="4">
<path d="M101.25 61.6241L103.332 60.6216L102.297 58.7402L100.216 59.7427L101.25 61.6241Z" fill="white"/>
</mask>
<g mask="url(#mask22_5_266)">
<path d="M101.876 59.1406L102.038 59.7591L102.715 59.9019L102.117 60.2516L102.16 60.8879L101.632 60.4855L100.98 60.7373L101.249 60.1393L100.805 59.6564L101.501 59.6905L101.876 59.1406Z" fill="#9C9495"/>
</g>
<mask id="mask23_5_266" style="mask-type:luminance" maskUnits="userSpaceOnUse" x="91" y="54" width="4" height="4">
<path d="M92.6801 57.4083L94.7617 56.4058L93.727 54.5244L91.6454 55.5269L92.6801 57.4083Z" fill="white"/>
</mask>
<g mask="url(#mask23_5_266)">
<path d="M93.3061 54.9247L93.4681 55.5433L94.1445 55.6861L93.5469 56.0358L93.5897 56.6721L93.0612 56.2697L92.4098 56.5215L92.6788 55.9234L92.235 55.4406L92.9312 55.4747L93.3061 54.9247Z" fill="#9C9495"/>
</g>
<mask id="mask24_5_266" style="mask-type:luminance" maskUnits="userSpaceOnUse" x="96" y="53" width="3" height="3">
<path d="M97.1638 55.6979L98.4648 55.0713L97.8181 53.8954L96.5171 54.522L97.1638 55.6979Z" fill="white"/>
</mask>
<g mask="url(#mask24_5_266)">
<path d="M98.1661 44.8398L99.9885 51.0762L106.331 52.8064L100.976 56.0186L101.703 62.3773L96.596 58.1278L90.69 60.3392L92.8718 54.5036L88.5077 49.4913L94.9771 50.1479L98.1661 44.8398Z" fill="#9C9495"/>
</g>
<mask id="mask25_5_266" style="mask-type:luminance" maskUnits="userSpaceOnUse" x="90" y="58" width="2" height="3">
<path d="M90.6638 60.61L91.9648 59.9834L91.3181 58.8076L90.0171 59.4341L90.6638 60.61Z" fill="white"/>
</mask>
<g mask="url(#mask25_5_266)">
<path d="M91.67 49.7495L93.4924 55.9858L99.8351 57.716L94.4795 60.9283L95.2068 67.2869L90.0999 63.0375L84.194 65.2489L86.3757 59.4133L82.0116 54.401L88.481 55.0575L91.67 49.7495Z" fill="#9C9495"/>
</g>
</g>
<g opacity="0.9">
<mask id="mask26_5_266" style="mask-type:luminance" maskUnits="userSpaceOnUse" x="107" y="88" width="5" height="4">
<path d="M107.807 88.8342L107.613 91.7866L110.833 91.8934L111.027 88.941L107.807 88.8342Z" fill="white"/>
</mask>
<g mask="url(#mask26_5_266)">
<path d="M110.611 91.1677L109.682 90.9366L109.004 91.586L108.978 90.6975L108.112 90.3235L109.023 90.0086L109.165 89.1256L109.755 89.8171L110.711 89.6485L110.161 90.3915L110.611 91.1677Z" fill="#9C9495"/>
</g>
<mask id="mask27_5_266" style="mask-type:luminance" maskUnits="userSpaceOnUse" x="105" y="93" width="3" height="3">
<path d="M105.504 93.2006L105.375 95.1689L107.522 95.2401L107.651 93.2718L105.504 93.2006Z" fill="white"/>
</mask>
<g mask="url(#mask27_5_266)">
<path d="M107.372 94.7564L106.753 94.6022L106.301 95.0352L106.284 94.4428L105.706 94.1936L106.314 93.9836L106.408 93.395L106.802 93.8559L107.439 93.7435L107.072 94.2389L107.372 94.7564Z" fill="#9C9495"/>
</g>
<mask id="mask28_5_266" style="mask-type:luminance" maskUnits="userSpaceOnUse" x="113" y="88" width="3" height="3">
<path d="M113.32 88.7661L113.191 90.7344L115.338 90.8056L115.467 88.8373L113.32 88.7661Z" fill="white"/>
</mask>
<g mask="url(#mask28_5_266)">
<path d="M115.189 90.3213L114.569 90.1672L114.117 90.6001L114.1 90.0078L113.523 89.7585L114.13 89.5485L114.225 88.9599L114.618 89.4209L115.255 89.3085L114.889 89.8038L115.189 90.3213Z" fill="#9C9495"/>
</g>
<mask id="mask29_5_266" style="mask-type:luminance" maskUnits="userSpaceOnUse" x="112" y="92" width="2" height="3">
<path d="M112.647 92.8172L112.566 94.0474L113.908 94.0919L113.988 92.8617L112.647 92.8172Z" fill="white"/>
</mask>
<g mask="url(#mask29_5_266)">
<path d="M121.616 99.0237L115.293 97.4034L110.668 101.981L110.506 95.7255L104.615 93.0995L110.825 90.8749L111.805 84.6574L115.81 89.5212L122.318 88.3265L118.565 93.5623L121.616 99.0237Z" fill="#9C9495"/>
</g>
<mask id="mask30_5_266" style="mask-type:luminance" maskUnits="userSpaceOnUse" x="111" y="85" width="2" height="3">
<path d="M111.499 85.8689L111.418 87.0991L112.76 87.1436L112.84 85.9134L111.499 85.8689Z" fill="white"/>
</mask>
<g mask="url(#mask30_5_266)">
<path d="M120.467 92.0799L114.144 90.4595L109.519 95.037L109.358 88.7817L103.467 86.1557L109.676 83.9311L110.656 77.7136L114.662 82.5774L121.169 81.3827L117.416 86.6184L120.467 92.0799Z" fill="#9C9495"/>
</g>
</g>
<g opacity="0.7">
<mask id="mask31_5_266" style="mask-type:luminance" maskUnits="userSpaceOnUse" x="77" y="122" width="6" height="5">
<path d="M81.1055 126.152L82.1289 122.95L78.6561 122.086L77.6326 125.288L81.1055 126.152Z" fill="white"/>
</mask>
<g mask="url(#mask31_5_266)">
<path d="M78.6969 122.936L79.6442 123.405L80.5603 122.848L80.3437 123.831L81.1829 124.443L80.1049 124.579L79.7074 125.517L79.2561 124.619L78.1703 124.583L78.9726 123.894L78.6969 122.936Z" fill="#9C9495"/>
</g>
<mask id="mask32_5_266" style="mask-type:luminance" maskUnits="userSpaceOnUse" x="82" y="119" width="4" height="3">
<path d="M84.8099 121.883L85.4922 119.749L83.177 119.173L82.4947 121.308L84.8099 121.883Z" fill="white"/>
</mask>
<g mask="url(#mask32_5_266)">
<path d="M83.2029 119.739L83.8344 120.052L84.4451 119.681L84.3007 120.336L84.8602 120.744L84.1415 120.834L83.8766 121.46L83.5757 120.862L82.8518 120.838L83.3867 120.378L83.2029 119.739Z" fill="#9C9495"/>
</g>
<mask id="mask33_5_266" style="mask-type:luminance" maskUnits="userSpaceOnUse" x="72" y="122" width="4" height="3">
<path d="M75.0872 124.95L75.7695 122.816L73.4543 122.24L72.772 124.375L75.0872 124.95Z" fill="white"/>
</mask>
<g mask="url(#mask33_5_266)">
<path d="M73.4803 122.807L74.1117 123.12L74.7225 122.749L74.5781 123.404L75.1376 123.812L74.4189 123.902L74.1539 124.528L73.853 123.93L73.1292 123.906L73.664 123.446L73.4803 122.807Z" fill="#9C9495"/>
</g>
<mask id="mask34_5_266" style="mask-type:luminance" maskUnits="userSpaceOnUse" x="75" y="118" width="3" height="3">
<path d="M76.9291 120.65L77.3555 119.316L75.9085 118.956L75.4821 120.29L76.9291 120.65Z" fill="white"/>
</mask>
<g mask="url(#mask34_5_266)">
<path d="M69.6963 112.603L75.4959 115.495L81.1261 112.031L79.7773 118.122L84.9117 121.898L78.2972 122.752L75.8401 128.567L73.0908 123.019L66.4322 122.814L71.3673 118.53L69.6963 112.603Z" fill="#9C9495"/>
</g>
<mask id="mask35_5_266" style="mask-type:luminance" maskUnits="userSpaceOnUse" x="74" y="126" width="3" height="3">
<path d="M76.2767 128.56L76.7031 127.226L75.2561 126.866L74.8297 128.2L76.2767 128.56Z" fill="white"/>
</mask>
<g mask="url(#mask35_5_266)">
<path d="M69.044 120.508L74.8436 123.401L80.4737 119.936L79.125 126.027L84.2593 129.803L77.6449 130.657L75.1877 136.473L72.4385 130.925L65.7799 130.719L70.7149 126.435L69.044 120.508Z" fill="#9C9495"/>
</g>
</g>
<g opacity="0.88">
<mask id="mask36_5_266" style="mask-type:luminance" maskUnits="userSpaceOnUse" x="107" y="109" width="4" height="4">
<path d="M109.712 109.927L107.641 110.576L108.292 112.458L110.364 111.809L109.712 109.927Z" fill="white"/>
</mask>
<g mask="url(#mask36_5_266)">
<path d="M108.74 112.144L108.69 111.549L108.091 111.326L108.696 111.082L108.758 110.487L109.179 110.931L109.817 110.785L109.475 111.303L109.806 111.81L109.172 111.685L108.74 112.144Z" fill="#9C9495"/>
</g>
<mask id="mask37_5_266" style="mask-type:luminance" maskUnits="userSpaceOnUse" x="104" y="109" width="3" height="3">
<path d="M106.197 109.72L104.816 110.153L105.25 111.408L106.631 110.975L106.197 109.72Z" fill="white"/>
</mask>
<g mask="url(#mask37_5_266)">
<path d="M105.548 111.198L105.515 110.802L105.116 110.653L105.518 110.49L105.56 110.094L105.841 110.39L106.266 110.292L106.038 110.638L106.259 110.976L105.836 110.892L105.548 111.198Z" fill="#9C9495"/>
</g>
<mask id="mask38_5_266" style="mask-type:luminance" maskUnits="userSpaceOnUse" x="109" y="113" width="3" height="2">
<path d="M111.002 113.089L109.621 113.522L110.055 114.777L111.436 114.344L111.002 113.089Z" fill="white"/>
</mask>
<g mask="url(#mask38_5_266)">
<path d="M110.353 114.567L110.319 114.171L109.92 114.022L110.323 113.86L110.364 113.463L110.645 113.759L111.071 113.662L110.843 114.007L111.063 114.345L110.641 114.261L110.353 114.567Z" fill="#9C9495"/>
</g>
<mask id="mask39_5_266" style="mask-type:luminance" maskUnits="userSpaceOnUse" x="107" y="113" width="2" height="2">
<path d="M108.07 113.746L107.207 114.016L107.478 114.8L108.341 114.53L108.07 113.746Z" fill="white"/>
</mask>
<g mask="url(#mask39_5_266)">
<path d="M104.526 123.614L103.772 117.126L97.8461 114.461L103.623 112.052L103.963 105.605L108.262 110.599L114.413 109.27L111.31 114.764L114.755 120.409L108.527 118.795L104.526 123.614Z" fill="#9C9495"/>
</g>
<mask id="mask40_5_266" style="mask-type:luminance" maskUnits="userSpaceOnUse" x="111" y="111" width="2" height="2">
<path d="M112.574 111.292L111.711 111.562L111.982 112.346L112.845 112.076L112.574 111.292Z" fill="white"/>
</mask>
<g mask="url(#mask40_5_266)">
<path d="M109.026 121.163L108.272 114.675L102.346 112.01L108.123 109.601L108.463 103.154L112.762 108.148L118.913 106.819L115.81 112.313L119.255 117.957L113.027 116.344L109.026 121.163Z" fill="#9C9495"/>
</g>
</g>
<path d="M155.392 45.0187C153.772 45.6576 149.199 48.5014 148.378 50.8278C148.086 51.6546 148.978 52.1901 149.858 52.1554C152.201 52.0626 155.809 51.9944 153.902 53.188C151.455 54.7195 149.99 56.2075 149.008 56.2509" stroke="#F1DBFF" stroke-width="3.92523"/>
<path d="M11.3086 75.8218C13.0434 75.9767 18.2334 77.412 19.6782 79.4117C20.1918 80.1224 19.4882 80.888 18.634 81.1032C16.3605 81.6763 12.8796 82.631 15.0464 83.2369C17.8266 84.0143 19.6526 85.0277 20.6068 84.7916" stroke="#F1DBFF" stroke-width="3.92523"/>
<path d="M157.179 59.4915C156.377 59.6072 155.634 59.0549 155.519 58.258C155.404 57.461 155.961 56.7212 156.763 56.6055C157.565 56.4898 158.308 57.0421 158.423 57.839C158.538 58.636 157.981 59.3758 157.179 59.4915Z" fill="#F1DBFF"/>
<path d="M13.6848 90.2102C14.4867 90.0945 15.0436 89.3547 14.9286 88.5577C14.8137 87.7608 14.0704 87.2085 13.2684 87.3242C12.4665 87.4399 11.9096 88.1797 12.0246 88.9767C12.1396 89.7736 12.8829 90.3259 13.6848 90.2102Z" fill="#F1DBFF"/>
<path d="M161.494 62.6973C154.524 63.7028 151.703 64.699 151.164 65.0714" stroke="#F1DBFF" stroke-width="3.92523"/>
<path d="M10.4492 94.5044C17.4189 93.4989 20.4062 93.6571 21.0287 93.8619" stroke="#F1DBFF" stroke-width="3.92523"/>
<path d="M41.4617 95.4407C31.379 74.8901 54.0052 54.3579 65.424 47.1611L67.7678 45.5423C67.4058 43.0333 57.3022 32.9481 70.2434 26.0728C78.3969 21.741 81.6098 22.6653 84.8063 26.3288L92.2909 36.8819L94.9967 37.7722C99.2037 27.4924 100.248 25.4877 110.075 28.8701C119.121 31.9842 119.104 38.1362 117.362 40.9488L114.298 46.5133C123.101 50.3658 129.755 58.3704 131.981 61.8912C133.79 64.7523 142.286 74.5615 134.162 94.873C126.053 115.145 99.4421 122.18 84.0385 122.594C71.7638 122.924 51.3879 115.672 41.4617 95.4407Z" fill="#E9BB17" stroke="#E9BB17" stroke-width="1.30841"/>
<path d="M89.6656 107.591C62.2539 110.521 45.1929 96.3437 39.2384 90.7991C42.1296 101.908 49.8351 122.169 77.7705 123.394C111.282 124.862 122.499 115.244 133.487 98.7073C141.956 85.9598 138.653 70.7927 134.321 64.5874C131.443 77.3822 117.078 104.661 89.6656 107.591Z" fill="#DEB41D" stroke="#D9AF1C" stroke-width="0.261682"/>
<path d="M71.6164 89.7028C80.6798 88.3952 86.9737 80.0335 85.6743 71.0264C84.3749 62.0193 75.9741 55.7775 66.9107 57.0851C57.8473 58.3927 51.5534 66.7544 52.8528 75.7615C54.1523 84.7686 62.553 91.0104 71.6164 89.7028Z" fill="white"/>
<path d="M104.445 84.967C113.508 83.6594 119.802 75.2977 118.502 66.2906C117.203 57.2834 108.802 51.0417 99.7389 52.3493C90.6755 53.6568 84.3815 62.0185 85.681 71.0256C86.9804 80.0328 95.3811 86.2745 104.445 84.967Z" fill="white"/>
<path d="M77.1865 73.5325C77.7917 73.4451 78.3613 73.8632 78.3595 74.471C78.3582 75.0992 78.2785 75.7265 78.1213 76.3378C77.8727 77.3064 77.4342 78.2163 76.8316 79.0168C76.2291 79.8173 75.4745 80.4924 74.6097 81.0031C73.7454 81.5137 72.7885 81.8509 71.7941 81.9944C70.7992 82.1379 69.7866 82.0848 68.8126 81.8394C67.8393 81.5939 66.9244 81.1596 66.1202 80.5621C65.316 79.9646 64.6385 79.2156 64.126 78.3568C63.8024 77.8149 63.5486 77.2358 63.3696 76.6335C63.1965 76.051 63.6246 75.489 64.23 75.4017C64.8353 75.3143 65.3858 75.7375 65.5933 76.3092C65.7093 76.6289 65.8557 76.9377 66.031 77.2312C66.3951 77.8409 66.8766 78.3737 67.448 78.7979C68.0195 79.2228 68.6693 79.5309 69.3615 79.7056C70.0531 79.8804 70.7729 79.9174 71.4798 79.8154C72.1866 79.7134 72.8666 79.4745 73.4806 79.1114C74.0946 78.7482 74.6314 78.2689 75.0592 77.6999C75.4877 77.1313 75.7987 76.4843 75.9757 75.7965C76.0608 75.4654 76.1141 75.1278 76.135 74.7883C76.1726 74.1813 76.5807 73.6198 77.1865 73.5325Z" fill="#292626"/>
<path d="M110.01 68.7967C110.616 68.7093 111.185 69.1274 111.184 69.7351C111.183 70.3634 111.103 70.9906 110.946 71.6019C110.696 72.5706 110.259 73.4805 109.656 74.2809C109.054 75.0814 108.298 75.7566 107.434 76.2672C106.57 76.7778 105.613 77.115 104.619 77.2585C103.624 77.402 102.61 77.349 101.637 77.1035C100.664 76.858 99.7484 76.4238 98.9442 75.8263C98.1406 75.2287 97.4628 74.4798 96.9505 73.621C96.6269 73.079 96.3732 72.4999 96.1938 71.8977C96.0208 71.3151 96.4491 70.7531 97.0543 70.6658C97.6595 70.5785 98.2102 71.0016 98.4178 71.5733C98.5333 71.8931 98.6798 72.2019 98.855 72.4954C99.2192 73.1051 99.701 73.6378 100.272 74.0621C100.844 74.4869 101.494 74.795 102.185 74.9698C102.878 75.1445 103.597 75.1815 104.304 75.0796C105.011 74.9776 105.691 74.7387 106.305 74.3755C106.919 74.0123 107.456 73.5331 107.884 72.964C108.312 72.3955 108.623 71.7484 108.8 71.0606C108.885 70.7296 108.938 70.3919 108.959 70.0525C108.997 69.4455 109.405 68.884 110.01 68.7967Z" fill="#292626"/>
<path d="M147.853 60.1394L145.427 60.5795L146.305 65.4017L147.401 71.4291L149.827 70.9889C150.271 67.9199 148.696 62.4771 147.853 60.1394Z" fill="#C5A5F3" stroke="#75C973" stroke-width="0.261682"/>
<path d="M27.3132 98.2066L29.7394 97.7658L28.862 92.9441L27.7651 86.9162L25.3388 87.3564C24.8948 90.426 26.47 95.8688 27.3132 98.2066Z" fill="#C5A5F3" stroke="#75C973" stroke-width="0.261682"/>
<path d="M35.1127 74.4968L43.2681 104.647L33.4049 104.257C31.8476 102.646 28.3182 95.7412 26.6581 81.0123L30.8854 77.7545L24.5096 52.2095C36.5495 32.7122 74.2153 -0.0658007 128.558 24.8002L135.156 51.2363L141.385 52.2132C143.511 55.2605 147.688 64.3388 147.39 76.2733L138.713 80.6355L131.198 50.3756L135.156 51.2363L128.558 24.8002C74.2153 -0.0658007 36.5495 32.7122 24.5096 52.2095L30.8854 77.7545L35.1127 74.4968Z" fill="#6F219E"/>
<path d="M30.8854 77.7545L26.6581 81.0123C28.3182 95.7412 31.8476 102.646 33.4049 104.257L43.2681 104.647L35.1127 74.4968L30.8854 77.7545ZM30.8854 77.7545L24.5096 52.2095C36.5495 32.7122 74.2153 -0.0657988 128.558 24.8002L135.156 51.2363M135.156 51.2363L131.198 50.3756L138.713 80.6355L147.39 76.2733C147.688 64.3388 143.511 55.2605 141.385 52.2132L135.156 51.2363Z" stroke="#6F219E" stroke-width="1.30841"/>
<path d="M34.6163 103.128C32.4923 98.6574 28.3485 88.1267 28.765 81.7744" stroke="#C5A5F3" stroke-width="1.30841"/>
<path d="M139.68 53.7178C141.668 58.4359 145.463 69.5085 144.739 76.0548" stroke="#C5A5F3" stroke-width="1.30841"/>
<path d="M79.1211 97.8564C83.3485 100.804 93.5654 104.31 100.611 94.7561" stroke="black" stroke-width="1.30841" stroke-linecap="round"/>
</g>
<mask id="mask41_5_266" style="mask-type:luminance" maskUnits="userSpaceOnUse" x="178" y="48" width="51" height="51">
<path d="M178 79.9096L209.911 98.3333L228.316 66.4237L196.405 48L178 79.9096Z" fill="white"/>
</mask>
<g mask="url(#mask41_5_266)">
<path d="M219.037 64.6098L211.489 72.7026L215.111 83.1685L205.059 78.4723L196.255 85.1313L197.613 74.1735L188.519 67.8154L199.389 65.7169L202.616 55.1293L207.97 64.8221L219.037 64.6098Z" fill="#E2C862"/>
</g>
<mask id="mask42_5_266" style="mask-type:luminance" maskUnits="userSpaceOnUse" x="206" y="4" width="34" height="34">
<path d="M206 25.2731L227.274 37.5556L239.544 16.2825L218.27 4.00001L206 25.2731Z" fill="white"/>
</mask>
<g mask="url(#mask42_5_266)">
<path d="M233.355 15.0723L228.323 20.4675L230.738 27.4448L224.037 24.314L218.168 28.7533L219.073 21.4481L213.01 17.2093L220.257 15.8103L222.408 8.75192L225.977 15.2139L233.355 15.0723Z" fill="#E2C862"/>
</g>
<mask id="mask43_5_266" style="mask-type:luminance" maskUnits="userSpaceOnUse" x="237" y="38" width="21" height="21">
<path d="M237 51.2957L250.296 58.9723L257.965 45.6765L244.669 38L237 51.2957Z" fill="white"/>
</mask>
<g mask="url(#mask43_5_266)">
<path d="M256.458 43.6377L252.029 48.4928L253.969 54.5981L248.271 51.9678L243.142 55.9963L244.062 49.5373L238.934 45.9175L245.188 44.5431L247.174 38.2774L250.116 43.9059L256.458 43.6377Z" fill="#E2C862"/>
</g>
<mask id="mask44_5_266" style="mask-type:luminance" maskUnits="userSpaceOnUse" x="214" y="106" width="34" height="34">
<path d="M214 127.273L235.274 139.556L247.544 118.283L226.27 106L214 127.273Z" fill="white"/>
</mask>
<g mask="url(#mask44_5_266)">
<path d="M241.351 117.071L236.319 122.466L238.735 129.443L232.033 126.313L226.164 130.752L227.069 123.447L221.006 119.208L228.253 117.809L230.404 110.75L233.973 117.212L241.351 117.071Z" fill="#E2C862"/>
</g>
<mask id="mask45_5_266" style="mask-type:luminance" maskUnits="userSpaceOnUse" x="173" y="21" width="21" height="21">
<path d="M173 34.2957L186.296 41.9723L193.965 28.6765L180.669 21L173 34.2957Z" fill="white"/>
</mask>
<g mask="url(#mask45_5_266)">
<path d="M192.462 26.639L188.033 31.4942L189.973 37.5995L184.275 34.9692L179.146 38.9977L180.065 32.5387L174.938 28.9189L181.192 27.5445L183.178 21.2788L186.119 26.9073L192.462 26.639Z" fill="#E2C862"/>
</g>
</svg>
