<svg width="20" height="19" viewBox="0 0 20 19" fill="none" xmlns="http://www.w3.org/2000/svg">
<path d="M9.20745 15.2125H10.721V14.4558H11.4777C11.6921 14.4558 11.8719 14.3832 12.0169 14.2382C12.162 14.0932 12.2345 13.9134 12.2345 13.699V11.4287C12.2345 11.2143 12.162 11.0346 12.0169 10.8895C11.8719 10.7445 11.6921 10.672 11.4777 10.672H9.20745V9.91522H12.2345V8.40171H10.721V7.64495H9.20745V8.40171H8.4507C8.23628 8.40171 8.05655 8.47423 7.91151 8.61928C7.76646 8.76432 7.69394 8.94405 7.69394 9.15847V11.4287C7.69394 11.6432 7.76646 11.8229 7.91151 11.9679C8.05655 12.113 8.23628 12.1855 8.4507 12.1855H10.721V12.9423H7.69394V14.4558H9.20745V15.2125ZM5.42367 17.4828C5.00745 17.4828 4.65115 17.3346 4.35475 17.0382C4.05835 16.7418 3.91016 16.3855 3.91016 15.9693V3.86117C3.91016 3.44495 4.05835 3.08865 4.35475 2.79225C4.65115 2.49585 5.00745 2.34766 5.42367 2.34766H11.4777L16.0183 6.8882V15.9693C16.0183 16.3855 15.8701 16.7418 15.5737 17.0382C15.2773 17.3346 14.921 17.4828 14.5048 17.4828H5.42367ZM10.721 6.8882V3.86117H5.42367V15.9693H14.5048V6.8882H10.721Z" fill="black"/>
</svg>
