<svg width="54" height="45" viewBox="0 0 54 45" fill="none" xmlns="http://www.w3.org/2000/svg">
<circle cx="27" cy="22" r="20" fill="#F5E8FF"/>
<path d="M37 22.0372C37 16.4932 32.5234 12 27 12C21.4766 12 17 16.4932 17 22.0372C17 26.7422 20.2305 30.6944 24.5859 31.7804L24.5859 25.1033L22.5234 25.1033L22.5234 22.0372L24.5859 22.0372L24.5859 20.7159C24.5859 17.3009 26.125 15.7169 29.4687 15.7169C30.1016 15.7169 31.1953 15.8424 31.6445 15.9678L31.6445 18.7438C31.4102 18.7203 31 18.7046 30.4883 18.7046C28.8477 18.7046 28.2148 19.328 28.2148 20.9473L28.2148 22.0372L31.4805 22.0372L30.918 25.1033L28.2109 25.1033L28.2109 32C33.1641 31.4001 37 27.1696 37 22.0372Z" fill="#6F219E"/>
</svg>