<svg width="54" height="45" viewBox="0 0 54 45" fill="none" xmlns="http://www.w3.org/2000/svg">
<circle cx="26" cy="22" r="20" fill="#F5E8FF"/>
<g clip-path="url(#clip0_6323_111)">
<path d="M16.9894 31.9288L16.1638 31.8932L20.2492 27.4804C22.4912 25.0534 24.3132 23.032 24.299 22.9822C24.2776 22.9395 22.5552 20.6192 20.4698 17.8221C18.3844 15.032 16.5552 12.5765 16.4058 12.3772L16.1282 12H19.2385H22.3417L25.0534 15.6299C26.541 17.6228 27.7794 19.2598 27.8079 19.2598C27.8364 19.2598 29.3595 17.6299 31.1958 15.637L34.541 12.0071H35.4164L36.299 12L35.4164 12.9466C28.7474 20.1352 28.5766 20.3203 28.6905 20.4911C28.7474 20.5765 30.6905 23.1815 32.9965 26.2705L37.2029 31.8932L34.1282 31.9288L31.0534 31.9644L28.1211 28.0498C26.5054 25.9004 25.1602 24.1352 25.1317 24.1352C25.0961 24.1352 23.6513 25.6726 21.9075 27.5516C20.1709 29.4306 18.541 31.1957 18.2848 31.4662L17.815 31.9644L16.9894 31.9288ZM34.5837 30.5267C34.541 30.4555 31.6513 26.5694 28.1495 21.8932L21.7865 13.3879L20.2776 13.3665C19.3239 13.3594 18.7687 13.3737 18.7901 13.4164C18.7972 13.4591 21.694 17.3452 25.2171 22.0641L31.6228 30.6406L33.1388 30.6477C34.5623 30.6477 34.6477 30.6406 34.5837 30.5267Z" fill="#6F219E"/>
</g>
<defs>
<clipPath id="clip0_6323_111">
<rect width="21.3523" height="20" fill="white" transform="translate(16 12)"/>
</clipPath>
</defs>
</svg>