<svg width="54" height="45" viewBox="0 0 54 45" fill="none" xmlns="http://www.w3.org/2000/svg">
<circle cx="27" cy="22" r="20" fill="#F0D454"/>
<g clip-path="url(#clip0_5418_3513)">
<path d="M17.9894 31.9288L17.1638 31.8932L21.2492 27.4804C23.4912 25.0534 25.3132 23.032 25.299 22.9822C25.2776 22.9395 23.5552 20.6192 21.4698 17.8221C19.3844 15.032 17.5552 12.5765 17.4058 12.3772L17.1282 12H20.2385H23.3417L26.0534 15.6299C27.541 17.6228 28.7794 19.2598 28.8079 19.2598C28.8364 19.2598 30.3595 17.6299 32.1958 15.637L35.541 12.0071H36.4164L37.299 12L36.4164 12.9466C29.7474 20.1352 29.5766 20.3203 29.6905 20.4911C29.7474 20.5765 31.6905 23.1815 33.9965 26.2705L38.2029 31.8932L35.1282 31.9288L32.0534 31.9644L29.1211 28.0498C27.5054 25.9004 26.1602 24.1352 26.1317 24.1352C26.0961 24.1352 24.6513 25.6726 22.9075 27.5516C21.1709 29.4306 19.541 31.1957 19.2848 31.4662L18.815 31.9644L17.9894 31.9288ZM35.5837 30.5267C35.541 30.4555 32.6513 26.5694 29.1495 21.8932L22.7865 13.3879L21.2776 13.3665C20.3239 13.3594 19.7687 13.3737 19.7901 13.4164C19.7972 13.4591 22.694 17.3452 26.2171 22.0641L32.6228 30.6406L34.1388 30.6477C35.5623 30.6477 35.6477 30.6406 35.5837 30.5267Z" fill="#6F219E"/>
</g>
<defs>
<clipPath id="clip0_5418_3513">
<rect width="21.3523" height="20" fill="white" transform="translate(17 12)"/>
</clipPath>
</defs>
</svg>
