<svg width="54" height="45" viewBox="0 0 54 45" fill="none" xmlns="http://www.w3.org/2000/svg">
<circle cx="27" cy="22" r="20" fill="#F0D454"/>
<path d="M34.357 14L20.074 14C17.2717 14 15 16.2717 15 19.074L15 26.214C15 29.0163 17.2717 31.288 20.074 31.288L34.357 31.288C37.1593 31.288 39.431 29.0163 39.431 26.214L39.431 19.074C39.431 16.2717 37.1593 14 34.357 14ZM30.9255 22.9914L24.2449 26.1777C24.0669 26.2626 23.8612 26.1328 23.8612 25.9356L23.8612 19.3639C23.8612 19.1639 24.0723 19.0343 24.2507 19.1247L30.9313 22.5101C31.1299 22.6107 31.1265 22.8956 30.9255 22.9914Z" fill="#6F219E"/>
</svg>
