<svg width="1368" height="270" viewBox="0 0 1368 270" fill="none" xmlns="http://www.w3.org/2000/svg">
<path d="M0 16H35.9833V266C35.9833 268.209 34.1925 270 31.9833 270H4.00001C1.79087 270 0 268.209 0 266V16Z" fill="#DDDADA"/>
<path d="M0.5 0.5H35.5V250C35.5 251.933 33.933 253.5 32 253.5H4C2.067 253.5 0.5 251.933 0.5 250V0.5Z" fill="white" stroke="#DDDADA"/>
<path d="M36 16H71.9833V266C71.9833 268.209 70.1925 270 67.9833 270H40C37.7909 270 36 268.209 36 266V16Z" fill="#DDDADA"/>
<path d="M36.5 0.5H71.5V250C71.5 251.933 69.933 253.5 68 253.5H40C38.067 253.5 36.5 251.933 36.5 250V0.5Z" fill="white" stroke="#DDDADA"/>
<path d="M72 16H107.983V266C107.983 268.209 106.192 270 103.983 270H76C73.7909 270 72 268.209 72 266V16Z" fill="#DDDADA"/>
<path d="M72.5 0.5H107.5V250C107.5 251.933 105.933 253.5 104 253.5H76C74.067 253.5 72.5 251.933 72.5 250V0.5Z" fill="white" stroke="#DDDADA"/>
<path d="M108 16H143.983V266C143.983 268.209 142.192 270 139.983 270H112C109.791 270 108 268.209 108 266V16Z" fill="#DDDADA"/>
<path d="M108.5 0.5H143.5V250C143.5 251.933 141.933 253.5 140 253.5H112C110.067 253.5 108.5 251.933 108.5 250V0.5Z" fill="white" stroke="#DDDADA"/>
<path d="M144 16H179.983V266C179.983 268.209 178.192 270 175.983 270H148C145.791 270 144 268.209 144 266V16Z" fill="#DDDADA"/>
<path d="M144.5 0.5H179.5V250C179.5 251.933 177.933 253.5 176 253.5H148C146.067 253.5 144.5 251.933 144.5 250V0.5Z" fill="white" stroke="#DDDADA"/>
<path d="M180 16H215.983V266C215.983 268.209 214.192 270 211.983 270H184C181.791 270 180 268.209 180 266V16Z" fill="#DDDADA"/>
<path d="M180.5 0.5H215.5V250C215.5 251.933 213.933 253.5 212 253.5H184C182.067 253.5 180.5 251.933 180.5 250V0.5Z" fill="white" stroke="#DDDADA"/>
<path d="M216 16H251.983V266C251.983 268.209 250.192 270 247.983 270H220C217.791 270 216 268.209 216 266V16Z" fill="#DDDADA"/>
<path d="M216.5 0.5H251.5V250C251.5 251.933 249.933 253.5 248 253.5H220C218.067 253.5 216.5 251.933 216.5 250V0.5Z" fill="white" stroke="#DDDADA"/>
<path d="M23 16H49V170C49 172.209 47.2091 174 45 174H27C24.7909 174 23 172.209 23 170V16Z" fill="#1C1A1A"/>
<path d="M23.5 0.5H48.5V154C48.5 155.933 46.933 157.5 45 157.5H27C25.067 157.5 23.5 155.933 23.5 154V0.5Z" fill="#3F3B3C" stroke="#1C1A1A"/>
<path d="M59 16H85V170C85 172.209 83.2091 174 81 174H63C60.7909 174 59 172.209 59 170V16Z" fill="#1C1A1A"/>
<path d="M59.5 0.5H84.5V154C84.5 155.933 82.933 157.5 81 157.5H63C61.067 157.5 59.5 155.933 59.5 154V0.5Z" fill="#3F3B3C" stroke="#1C1A1A"/>
<path d="M131 16H157V170C157 172.209 155.209 174 153 174H135C132.791 174 131 172.209 131 170V16Z" fill="#1C1A1A"/>
<path d="M131.5 0.5H156.5V154C156.5 155.933 154.933 157.5 153 157.5H135C133.067 157.5 131.5 155.933 131.5 154V0.5Z" fill="#3F3B3C" stroke="#1C1A1A"/>
<path d="M167 16H193V170C193 172.209 191.209 174 189 174H171C168.791 174 167 172.209 167 170V16Z" fill="#1C1A1A"/>
<path d="M167.5 0.5H192.5V154C192.5 155.933 190.933 157.5 189 157.5H171C169.067 157.5 167.5 155.933 167.5 154V0.5Z" fill="#3F3B3C" stroke="#1C1A1A"/>
<path d="M203 16H229V170C229 172.209 227.209 174 225 174H207C204.791 174 203 172.209 203 170V16Z" fill="#1C1A1A"/>
<path d="M203.5 0.5H228.5V154C228.5 155.933 226.933 157.5 225 157.5H207C205.067 157.5 203.5 155.933 203.5 154V0.5Z" fill="#3F3B3C" stroke="#1C1A1A"/>
<path d="M252 16H287.983V266C287.983 268.209 286.192 270 283.983 270H256C253.791 270 252 268.209 252 266V16Z" fill="#DDDADA"/>
<path d="M252.5 0.5H287.5V250C287.5 251.933 285.933 253.5 284 253.5H256C254.067 253.5 252.5 251.933 252.5 250V0.5Z" fill="white" stroke="#DDDADA"/>
<path d="M288 16H323.983V266C323.983 268.209 322.192 270 319.983 270H292C289.791 270 288 268.209 288 266V16Z" fill="#DDDADA"/>
<path d="M288.5 0.5H323.5V250C323.5 251.933 321.933 253.5 320 253.5H292C290.067 253.5 288.5 251.933 288.5 250V0.5Z" fill="white" stroke="#DDDADA"/>
<path d="M324 16H359.983V266C359.983 268.209 358.192 270 355.983 270H328C325.791 270 324 268.209 324 266V16Z" fill="#DDDADA"/>
<path d="M324.5 0.5H359.5V250C359.5 251.933 357.933 253.5 356 253.5H328C326.067 253.5 324.5 251.933 324.5 250V0.5Z" fill="white" stroke="#DDDADA"/>
<path d="M360 16H395.983V266C395.983 268.209 394.192 270 391.983 270H364C361.791 270 360 268.209 360 266V16Z" fill="#DDDADA"/>
<path d="M360.5 0.5H395.5V250C395.5 251.933 393.933 253.5 392 253.5H364C362.067 253.5 360.5 251.933 360.5 250V0.5Z" fill="white" stroke="#DDDADA"/>
<path d="M396 16H431.983V266C431.983 268.209 430.192 270 427.983 270H400C397.791 270 396 268.209 396 266V16Z" fill="#DDDADA"/>
<path d="M396.5 0.5H431.5V250C431.5 251.933 429.933 253.5 428 253.5H400C398.067 253.5 396.5 251.933 396.5 250V0.5Z" fill="white" stroke="#DDDADA"/>
<path d="M432 16H467.983V266C467.983 268.209 466.192 270 463.983 270H436C433.791 270 432 268.209 432 266V16Z" fill="#DDDADA"/>
<path d="M432.5 0.5H467.5V250C467.5 251.933 465.933 253.5 464 253.5H436C434.067 253.5 432.5 251.933 432.5 250V0.5Z" fill="white" stroke="#DDDADA"/>
<path d="M468 16H503.983V266C503.983 268.209 502.192 270 499.983 270H472C469.791 270 468 268.209 468 266V16Z" fill="#DDDADA"/>
<path d="M468.5 0.5H503.5V250C503.5 251.933 501.933 253.5 500 253.5H472C470.067 253.5 468.5 251.933 468.5 250V0.5Z" fill="white" stroke="#DDDADA"/>
<path d="M275 16H301V170C301 172.209 299.209 174 297 174H279C276.791 174 275 172.209 275 170V16Z" fill="#1C1A1A"/>
<path d="M275.5 0.5H300.5V154C300.5 155.933 298.933 157.5 297 157.5H279C277.067 157.5 275.5 155.933 275.5 154V0.5Z" fill="#3F3B3C" stroke="#1C1A1A"/>
<path d="M311 16H337V170C337 172.209 335.209 174 333 174H315C312.791 174 311 172.209 311 170V16Z" fill="#1C1A1A"/>
<path d="M311.5 0.5H336.5V154C336.5 155.933 334.933 157.5 333 157.5H315C313.067 157.5 311.5 155.933 311.5 154V0.5Z" fill="#3F3B3C" stroke="#1C1A1A"/>
<path d="M383 16H409V170C409 172.209 407.209 174 405 174H387C384.791 174 383 172.209 383 170V16Z" fill="#1C1A1A"/>
<path d="M383.5 0.5H408.5V154C408.5 155.933 406.933 157.5 405 157.5H387C385.067 157.5 383.5 155.933 383.5 154V0.5Z" fill="#3F3B3C" stroke="#1C1A1A"/>
<path d="M419 16H445V170C445 172.209 443.209 174 441 174H423C420.791 174 419 172.209 419 170V16Z" fill="#1C1A1A"/>
<path d="M419.5 0.5H444.5V154C444.5 155.933 442.933 157.5 441 157.5H423C421.067 157.5 419.5 155.933 419.5 154V0.5Z" fill="#3F3B3C" stroke="#1C1A1A"/>
<path d="M455 16H481V170C481 172.209 479.209 174 477 174H459C456.791 174 455 172.209 455 170V16Z" fill="#1C1A1A"/>
<path d="M455.5 0.5H480.5V154C480.5 155.933 478.933 157.5 477 157.5H459C457.067 157.5 455.5 155.933 455.5 154V0.5Z" fill="#3F3B3C" stroke="#1C1A1A"/>
<path d="M504 16H539.983V266C539.983 268.209 538.192 270 535.983 270H508C505.791 270 504 268.209 504 266V16Z" fill="#DDDADA"/>
<path d="M504.5 0.5H539.5V250C539.5 251.933 537.933 253.5 536 253.5H508C506.067 253.5 504.5 251.933 504.5 250V0.5Z" fill="white" stroke="#DDDADA"/>
<path d="M540 16H575.983V266C575.983 268.209 574.192 270 571.983 270H544C541.791 270 540 268.209 540 266V16Z" fill="#DDDADA"/>
<path d="M540.5 0.5H575.5V250C575.5 251.933 573.933 253.5 572 253.5H544C542.067 253.5 540.5 251.933 540.5 250V0.5Z" fill="white" stroke="#DDDADA"/>
<path d="M576 16H611.983V266C611.983 268.209 610.192 270 607.983 270H580C577.791 270 576 268.209 576 266V16Z" fill="#DDDADA"/>
<path d="M576.5 0.5H611.5V250C611.5 251.933 609.933 253.5 608 253.5H580C578.067 253.5 576.5 251.933 576.5 250V0.5Z" fill="white" stroke="#DDDADA"/>
<path d="M612 16H647.983V266C647.983 268.209 646.192 270 643.983 270H616C613.791 270 612 268.209 612 266V16Z" fill="#DDDADA"/>
<path d="M612.5 0.5H647.5V250C647.5 251.933 645.933 253.5 644 253.5H616C614.067 253.5 612.5 251.933 612.5 250V0.5Z" fill="white" stroke="#DDDADA"/>
<path d="M648 16H683.983V266C683.983 268.209 682.192 270 679.983 270H652C649.791 270 648 268.209 648 266V16Z" fill="#DDDADA"/>
<path d="M648.5 0.5H683.5V250C683.5 251.933 681.933 253.5 680 253.5H652C650.067 253.5 648.5 251.933 648.5 250V0.5Z" fill="white" stroke="#DDDADA"/>
<path d="M684 16H719.983V266C719.983 268.209 718.192 270 715.983 270H688C685.791 270 684 268.209 684 266V16Z" fill="#DDDADA"/>
<path d="M684.5 0.5H719.5V250C719.5 251.933 717.933 253.5 716 253.5H688C686.067 253.5 684.5 251.933 684.5 250V0.5Z" fill="white" stroke="#DDDADA"/>
<path d="M720 16H755.983V266C755.983 268.209 754.192 270 751.983 270H724C721.791 270 720 268.209 720 266V16Z" fill="#DDDADA"/>
<path d="M720.5 0.5H755.5V250C755.5 251.933 753.933 253.5 752 253.5H724C722.067 253.5 720.5 251.933 720.5 250V0.5Z" fill="white" stroke="#DDDADA"/>
<path d="M527 16H553V170C553 172.209 551.209 174 549 174H531C528.791 174 527 172.209 527 170V16Z" fill="#1C1A1A"/>
<path d="M527.5 0.5H552.5V154C552.5 155.933 550.933 157.5 549 157.5H531C529.067 157.5 527.5 155.933 527.5 154V0.5Z" fill="#3F3B3C" stroke="#1C1A1A"/>
<path d="M563 16H589V170C589 172.209 587.209 174 585 174H567C564.791 174 563 172.209 563 170V16Z" fill="#1C1A1A"/>
<path d="M563.5 0.5H588.5V154C588.5 155.933 586.933 157.5 585 157.5H567C565.067 157.5 563.5 155.933 563.5 154V0.5Z" fill="#3F3B3C" stroke="#1C1A1A"/>
<path d="M635 16H661V170C661 172.209 659.209 174 657 174H639C636.791 174 635 172.209 635 170V16Z" fill="#1C1A1A"/>
<path d="M635.5 0.5H660.5V154C660.5 155.933 658.933 157.5 657 157.5H639C637.067 157.5 635.5 155.933 635.5 154V0.5Z" fill="#3F3B3C" stroke="#1C1A1A"/>
<path d="M671 16H697V170C697 172.209 695.209 174 693 174H675C672.791 174 671 172.209 671 170V16Z" fill="#1C1A1A"/>
<path d="M671.5 0.5H696.5V154C696.5 155.933 694.933 157.5 693 157.5H675C673.067 157.5 671.5 155.933 671.5 154V0.5Z" fill="#3F3B3C" stroke="#1C1A1A"/>
<path d="M707 16H733V170C733 172.209 731.209 174 729 174H711C708.791 174 707 172.209 707 170V16Z" fill="#1C1A1A"/>
<path d="M707.5 0.5H732.5V154C732.5 155.933 730.933 157.5 729 157.5H711C709.067 157.5 707.5 155.933 707.5 154V0.5Z" fill="#3F3B3C" stroke="#1C1A1A"/>
<path d="M756 16H791.983V266C791.983 268.209 790.192 270 787.983 270H760C757.791 270 756 268.209 756 266V16Z" fill="#DDDADA"/>
<path d="M756.5 0.5H791.5V250C791.5 251.933 789.933 253.5 788 253.5H760C758.067 253.5 756.5 251.933 756.5 250V0.5Z" fill="white" stroke="#DDDADA"/>
<path d="M792 16H827.983V266C827.983 268.209 826.192 270 823.983 270H796C793.791 270 792 268.209 792 266V16Z" fill="#DDDADA"/>
<path d="M792.5 0.5H827.5V250C827.5 251.933 825.933 253.5 824 253.5H796C794.067 253.5 792.5 251.933 792.5 250V0.5Z" fill="white" stroke="#DDDADA"/>
<path d="M828 16H863.983V266C863.983 268.209 862.192 270 859.983 270H832C829.791 270 828 268.209 828 266V16Z" fill="#DDDADA"/>
<path d="M828.5 0.5H863.5V250C863.5 251.933 861.933 253.5 860 253.5H832C830.067 253.5 828.5 251.933 828.5 250V0.5Z" fill="white" stroke="#DDDADA"/>
<path d="M864 16H899.983V266C899.983 268.209 898.192 270 895.983 270H868C865.791 270 864 268.209 864 266V16Z" fill="#DDDADA"/>
<path d="M864.5 0.5H899.5V250C899.5 251.933 897.933 253.5 896 253.5H868C866.067 253.5 864.5 251.933 864.5 250V0.5Z" fill="white" stroke="#DDDADA"/>
<path d="M900 16H935.983V266C935.983 268.209 934.192 270 931.983 270H904C901.791 270 900 268.209 900 266V16Z" fill="#DDDADA"/>
<path d="M900.5 0.5H935.5V250C935.5 251.933 933.933 253.5 932 253.5H904C902.067 253.5 900.5 251.933 900.5 250V0.5Z" fill="white" stroke="#DDDADA"/>
<path d="M936 16H971.983V266C971.983 268.209 970.192 270 967.983 270H940C937.791 270 936 268.209 936 266V16Z" fill="#DDDADA"/>
<path d="M936.5 0.5H971.5V250C971.5 251.933 969.933 253.5 968 253.5H940C938.067 253.5 936.5 251.933 936.5 250V0.5Z" fill="white" stroke="#DDDADA"/>
<path d="M972 16H1007.98V266C1007.98 268.209 1006.19 270 1003.98 270H976C973.791 270 972 268.209 972 266V16Z" fill="#DDDADA"/>
<path d="M972.5 0.5H1007.5V250C1007.5 251.933 1005.93 253.5 1004 253.5H976C974.067 253.5 972.5 251.933 972.5 250V0.5Z" fill="white" stroke="#DDDADA"/>
<path d="M779 16H805V170C805 172.209 803.209 174 801 174H783C780.791 174 779 172.209 779 170V16Z" fill="#1C1A1A"/>
<path d="M779.5 0.5H804.5V154C804.5 155.933 802.933 157.5 801 157.5H783C781.067 157.5 779.5 155.933 779.5 154V0.5Z" fill="#3F3B3C" stroke="#1C1A1A"/>
<path d="M815 16H841V170C841 172.209 839.209 174 837 174H819C816.791 174 815 172.209 815 170V16Z" fill="#1C1A1A"/>
<path d="M815.5 0.5H840.5V154C840.5 155.933 838.933 157.5 837 157.5H819C817.067 157.5 815.5 155.933 815.5 154V0.5Z" fill="#3F3B3C" stroke="#1C1A1A"/>
<path d="M887 16H913V170C913 172.209 911.209 174 909 174H891C888.791 174 887 172.209 887 170V16Z" fill="#1C1A1A"/>
<path d="M887.5 0.5H912.5V154C912.5 155.933 910.933 157.5 909 157.5H891C889.067 157.5 887.5 155.933 887.5 154V0.5Z" fill="#3F3B3C" stroke="#1C1A1A"/>
<path d="M923 16H949V170C949 172.209 947.209 174 945 174H927C924.791 174 923 172.209 923 170V16Z" fill="#1C1A1A"/>
<path d="M923.5 0.5H948.5V154C948.5 155.933 946.933 157.5 945 157.5H927C925.067 157.5 923.5 155.933 923.5 154V0.5Z" fill="#3F3B3C" stroke="#1C1A1A"/>
<path d="M959 16H985V170C985 172.209 983.209 174 981 174H963C960.791 174 959 172.209 959 170V16Z" fill="#1C1A1A"/>
<path d="M959.5 0.5H984.5V154C984.5 155.933 982.933 157.5 981 157.5H963C961.067 157.5 959.5 155.933 959.5 154V0.5Z" fill="#3F3B3C" stroke="#1C1A1A"/>
<path d="M1008 16H1043.98V266C1043.98 268.209 1042.19 270 1039.98 270H1012C1009.79 270 1008 268.209 1008 266V16Z" fill="#DDDADA"/>
<path d="M1008.5 0.5H1043.5V250C1043.5 251.933 1041.93 253.5 1040 253.5H1012C1010.07 253.5 1008.5 251.933 1008.5 250V0.5Z" fill="white" stroke="#DDDADA"/>
<path d="M1044 16H1079.98V266C1079.98 268.209 1078.19 270 1075.98 270H1048C1045.79 270 1044 268.209 1044 266V16Z" fill="#DDDADA"/>
<path d="M1044.5 0.5H1079.5V250C1079.5 251.933 1077.93 253.5 1076 253.5H1048C1046.07 253.5 1044.5 251.933 1044.5 250V0.5Z" fill="white" stroke="#DDDADA"/>
<path d="M1080 16H1115.98V266C1115.98 268.209 1114.19 270 1111.98 270H1084C1081.79 270 1080 268.209 1080 266V16Z" fill="#DDDADA"/>
<path d="M1080.5 0.5H1115.5V250C1115.5 251.933 1113.93 253.5 1112 253.5H1084C1082.07 253.5 1080.5 251.933 1080.5 250V0.5Z" fill="white" stroke="#DDDADA"/>
<path d="M1116 16H1151.98V266C1151.98 268.209 1150.19 270 1147.98 270H1120C1117.79 270 1116 268.209 1116 266V16Z" fill="#DDDADA"/>
<path d="M1116.5 0.5H1151.5V250C1151.5 251.933 1149.93 253.5 1148 253.5H1120C1118.07 253.5 1116.5 251.933 1116.5 250V0.5Z" fill="white" stroke="#DDDADA"/>
<path d="M1152 16H1187.98V266C1187.98 268.209 1186.19 270 1183.98 270H1156C1153.79 270 1152 268.209 1152 266V16Z" fill="#DDDADA"/>
<path d="M1152.5 0.5H1187.5V250C1187.5 251.933 1185.93 253.5 1184 253.5H1156C1154.07 253.5 1152.5 251.933 1152.5 250V0.5Z" fill="white" stroke="#DDDADA"/>
<path d="M1188 16H1223.98V266C1223.98 268.209 1222.19 270 1219.98 270H1192C1189.79 270 1188 268.209 1188 266V16Z" fill="#DDDADA"/>
<path d="M1188.5 0.5H1223.5V250C1223.5 251.933 1221.93 253.5 1220 253.5H1192C1190.07 253.5 1188.5 251.933 1188.5 250V0.5Z" fill="white" stroke="#DDDADA"/>
<path d="M1224 16H1259.98V266C1259.98 268.209 1258.19 270 1255.98 270H1228C1225.79 270 1224 268.209 1224 266V16Z" fill="#DDDADA"/>
<path d="M1224.5 0.5H1259.5V250C1259.5 251.933 1257.93 253.5 1256 253.5H1228C1226.07 253.5 1224.5 251.933 1224.5 250V0.5Z" fill="white" stroke="#DDDADA"/>
<path d="M1031 16H1057V170C1057 172.209 1055.21 174 1053 174H1035C1032.79 174 1031 172.209 1031 170V16Z" fill="#1C1A1A"/>
<path d="M1031.5 0.5H1056.5V154C1056.5 155.933 1054.93 157.5 1053 157.5H1035C1033.07 157.5 1031.5 155.933 1031.5 154V0.5Z" fill="#3F3B3C" stroke="#1C1A1A"/>
<path d="M1067 16H1093V170C1093 172.209 1091.21 174 1089 174H1071C1068.79 174 1067 172.209 1067 170V16Z" fill="#1C1A1A"/>
<path d="M1067.5 0.5H1092.5V154C1092.5 155.933 1090.93 157.5 1089 157.5H1071C1069.07 157.5 1067.5 155.933 1067.5 154V0.5Z" fill="#3F3B3C" stroke="#1C1A1A"/>
<path d="M1139 16H1165V170C1165 172.209 1163.21 174 1161 174H1143C1140.79 174 1139 172.209 1139 170V16Z" fill="#1C1A1A"/>
<path d="M1139.5 0.5H1164.5V154C1164.5 155.933 1162.93 157.5 1161 157.5H1143C1141.07 157.5 1139.5 155.933 1139.5 154V0.5Z" fill="#3F3B3C" stroke="#1C1A1A"/>
<path d="M1175 16H1201V170C1201 172.209 1199.21 174 1197 174H1179C1176.79 174 1175 172.209 1175 170V16Z" fill="#1C1A1A"/>
<path d="M1175.5 0.5H1200.5V154C1200.5 155.933 1198.93 157.5 1197 157.5H1179C1177.07 157.5 1175.5 155.933 1175.5 154V0.5Z" fill="#3F3B3C" stroke="#1C1A1A"/>
<path d="M1211 16H1237V170C1237 172.209 1235.21 174 1233 174H1215C1212.79 174 1211 172.209 1211 170V16Z" fill="#1C1A1A"/>
<path d="M1211.5 0.5H1236.5V154C1236.5 155.933 1234.93 157.5 1233 157.5H1215C1213.07 157.5 1211.5 155.933 1211.5 154V0.5Z" fill="#3F3B3C" stroke="#1C1A1A"/>
<path d="M1260 16H1295.98V266C1295.98 268.209 1294.19 270 1291.98 270H1264C1261.79 270 1260 268.209 1260 266V16Z" fill="#DDDADA"/>
<path d="M1260.5 0.5H1295.5V250C1295.5 251.933 1293.93 253.5 1292 253.5H1264C1262.07 253.5 1260.5 251.933 1260.5 250V0.5Z" fill="white" stroke="#DDDADA"/>
<path d="M1296 16H1331.98V266C1331.98 268.209 1330.19 270 1327.98 270H1300C1297.79 270 1296 268.209 1296 266V16Z" fill="#DDDADA"/>
<path d="M1296.5 0.5H1331.5V250C1331.5 251.933 1329.93 253.5 1328 253.5H1300C1298.07 253.5 1296.5 251.933 1296.5 250V0.5Z" fill="white" stroke="#DDDADA"/>
<path d="M1332 16H1367.98V266C1367.98 268.209 1366.19 270 1363.98 270H1336C1333.79 270 1332 268.209 1332 266V16Z" fill="#DDDADA"/>
<path d="M1332.5 0.5H1367.5V250C1367.5 251.933 1365.93 253.5 1364 253.5H1336C1334.07 253.5 1332.5 251.933 1332.5 250V0.5Z" fill="white" stroke="#DDDADA"/>
<path d="M1283 16H1309V170C1309 172.209 1307.21 174 1305 174H1287C1284.79 174 1283 172.209 1283 170V16Z" fill="#1C1A1A"/>
<path d="M1283.5 0.5H1308.5V154C1308.5 155.933 1306.93 157.5 1305 157.5H1287C1285.07 157.5 1283.5 155.933 1283.5 154V0.5Z" fill="#3F3B3C" stroke="#1C1A1A"/>
<path d="M1319 16H1345V170C1345 172.209 1343.21 174 1341 174H1323C1320.79 174 1319 172.209 1319 170V16Z" fill="#1C1A1A"/>
<path d="M1319.5 0.5H1344.5V154C1344.5 155.933 1342.93 157.5 1341 157.5H1323C1321.07 157.5 1319.5 155.933 1319.5 154V0.5Z" fill="#3F3B3C" stroke="#1C1A1A"/>
</svg>
