<svg width="126" height="108" viewBox="0 0 126 108" fill="none" xmlns="http://www.w3.org/2000/svg">
<g filter="url(#filter0_d_10014_110266)">
<path d="M114.082 61.1953C113.164 61.131 110.793 61.357 109.175 62.0054C107.782 62.564 108.438 63.9707 109.787 64.629C110.928 65.1855 111.812 65.7672 110.687 65.8967C108.694 66.1261 107.328 66.6234 106.7 66.3555" stroke="#F1DBFF" stroke-width="3"/>
<path d="M14.6016 37.2852C15.392 37.7562 17.2102 39.2949 18.1686 40.7505C18.9943 42.0045 17.6525 42.7851 16.1687 42.5557C14.9144 42.3617 13.8568 42.3351 14.7065 43.0832C16.2127 44.4092 17.0504 45.597 17.7188 45.7353" stroke="#F1DBFF" stroke-width="3"/>
<circle cx="1.01877" cy="1.01877" r="1.01877" transform="matrix(-0.954249 -0.299014 -0.299014 0.954249 112.426 69.2188)" fill="#F1DBFF"/>
<circle cx="12.0543" cy="46.0932" r="1.01877" transform="rotate(17.3984 12.0543 46.0932)" fill="#F1DBFF"/>
<path d="M112.578 74.1758C107.912 72.7136 105.846 72.4932 105.396 72.5658" stroke="#F1DBFF" stroke-width="3"/>
<path d="M8.42969 48.8008C13.0961 50.263 14.9185 51.2611 15.2465 51.5774" stroke="#F1DBFF" stroke-width="3"/>
<path d="M27.5635 58.7206C27.4457 42.7351 47.7994 36.5976 57.1172 35.4953L59.0724 35.1798C59.6021 33.4894 56.3169 24.0942 66.4909 23.6523C72.9012 23.3739 74.6338 24.9227 75.5307 28.1932L77.0354 37.0959L78.4609 38.4707C84.1932 33.2563 85.4516 32.3069 90.5836 37.394C95.3082 42.0773 93.4431 45.9498 91.5048 47.1988L87.9099 49.785C92.2597 54.8607 94.012 61.907 94.3444 64.7956C94.6145 67.1431 96.9769 75.881 85.7682 86.2406C74.5814 96.5801 55.8015 93.0116 46.0332 88.6404C38.2494 85.1572 27.6794 74.4581 27.5635 58.7206Z" fill="#E9BB17" stroke="#E9BB17"/>
<path d="M54.0806 80.8756C36.0365 74.4789 29.6289 60.412 27.5724 55.1267C26.034 62.9982 24.7507 78.0865 41.8704 87.2593C62.4074 98.2632 72.3286 95.5735 84.1916 88.4545C93.3366 82.9666 95.8402 72.4132 94.9989 67.1993C89.3398 74.3983 72.1246 87.2722 54.0806 80.8756Z" fill="#DEB41D" stroke="#D9AF1C" stroke-width="0.2"/>
<circle cx="51.6148" cy="53.1861" r="11.5141" transform="rotate(17.3984 51.6148 53.1861)" fill="white"/>
<circle cx="73.5913" cy="60.0728" r="11.5141" transform="rotate(17.3984 73.5913 60.0728)" fill="white"/>
<path d="M56.5342 55.654C56.9395 55.781 57.17 56.2158 56.9859 56.5986C56.7956 56.9941 56.5567 57.3654 56.2739 57.7036C55.8263 58.239 55.2775 58.681 54.6591 59.0043C54.0407 59.3276 53.3646 59.526 52.6695 59.588C51.9744 59.6501 51.2738 59.5746 50.6079 59.366C49.9419 59.1573 49.3236 58.8195 48.7882 58.3719C48.2528 57.9242 47.8108 57.3755 47.4875 56.7571C47.1642 56.1386 46.9658 55.4625 46.9037 54.7674C46.8645 54.3283 46.8802 53.8871 46.9497 53.4537C47.0169 53.0344 47.4544 52.8088 47.8596 52.9358C48.2649 53.0628 48.482 53.4952 48.4396 53.9178C48.4158 54.1542 48.4144 54.3929 48.4356 54.6307C48.4797 55.1246 48.6207 55.605 48.8505 56.0445C49.0802 56.484 49.3943 56.8739 49.7747 57.1919C50.1552 57.51 50.5946 57.7501 51.0678 57.8983C51.541 58.0466 52.0388 58.1002 52.5327 58.0561C53.0266 58.0121 53.5071 57.8711 53.9465 57.6413C54.386 57.4116 54.7759 57.0975 55.094 56.7171C55.2471 56.5339 55.3821 56.3371 55.4976 56.1294C55.7039 55.7582 56.1289 55.527 56.5342 55.654Z" fill="#292626"/>
<path d="M78.5068 62.5407C78.9121 62.6677 79.1426 63.1026 78.9585 63.4853C78.7683 63.8808 78.5293 64.2521 78.2465 64.5903C77.7989 65.1257 77.2502 65.5677 76.6318 65.891C76.0133 66.2144 75.3372 66.4127 74.6421 66.4748C73.947 66.5368 73.2465 66.4614 72.5805 66.2527C71.9146 66.044 71.2963 65.7062 70.7609 65.2586C70.2255 64.8109 69.7835 64.2622 69.4602 63.6438C69.1368 63.0253 68.9385 62.3493 68.8764 61.6542C68.8372 61.215 68.8529 60.7738 68.9223 60.3404C68.9896 59.9211 69.427 59.6955 69.8323 59.8225C70.2376 59.9495 70.4546 60.382 70.4122 60.8045C70.3885 61.0409 70.3871 61.2796 70.4083 61.5174C70.4524 62.0113 70.5933 62.4917 70.8231 62.9312C71.0529 63.3707 71.3669 63.7606 71.7474 64.0787C72.1278 64.3967 72.5672 64.6368 73.0404 64.7851C73.5136 64.9333 74.0114 64.987 74.5054 64.9429C74.9993 64.8988 75.4797 64.7578 75.9192 64.5281C76.3586 64.2983 76.7485 63.9842 77.0666 63.6038C77.2198 63.4206 77.3548 63.2238 77.4702 63.0162C77.6765 62.645 78.1016 62.4137 78.5068 62.5407Z" fill="#292626"/>
<path d="M104.808 68.4658L103.156 68.0137L102.252 71.317L101.122 75.4462L102.774 75.8983C103.977 74.0971 104.631 70.1928 104.808 68.4658Z" fill="#C5A5F3" stroke="#75C973" stroke-width="0.2"/>
<path d="M17.8679 56.21L19.5195 56.6621L20.4237 53.3588L21.5539 49.2296L19.9022 48.7775C18.6991 50.5787 18.0447 54.483 17.8679 56.21Z" fill="#C5A5F3" stroke="#75C973" stroke-width="0.2"/>
<path d="M29.9006 43.6088L25.9182 65.0657L19.8611 61.8536C19.3718 60.3697 19.2434 54.9562 22.6438 45.1729L26.2722 44.3909L29.9805 26.372C43.3949 17.7033 76.8551 8.3698 103.38 40.3857L99.5426 59.0332L103.148 61.5223C103.56 64.0824 103.439 71.0606 99.6552 78.4937L92.9082 78.6339L97.324 57.3004L99.5426 59.0332L103.38 40.3857C76.8551 8.3698 43.3949 17.7033 29.9805 26.372L26.2722 44.3909L29.9006 43.6088Z" fill="#6F219E"/>
<path d="M26.2722 44.3909L22.6438 45.1729C19.2434 54.9562 19.3718 60.3697 19.8611 61.8536L25.9182 65.0657L29.9006 43.6088L26.2722 44.3909ZM26.2722 44.3909L29.9805 26.372C43.3949 17.7033 76.8551 8.3698 103.38 40.3857L99.5426 59.0332M99.5426 59.0332L97.324 57.3004L92.9082 78.6339L99.6552 78.4937C103.439 71.0606 103.56 64.0824 103.148 61.5224L99.5426 59.0332Z" stroke="#6F219E"/>
<path d="M20.9579 61.5104C20.976 58.0533 21.5559 50.1695 23.7314 46.2909" stroke="#C5A5F3"/>
<path d="M101.627 61.9597C101.45 65.5315 100.488 73.6523 98.0619 77.5605" stroke="#C5A5F3"/>
<path d="M50.4102 71.5664C52.1685 74.6954 57.5077 79.9778 64.7981 76.0749" stroke="black" stroke-linecap="round"/>
</g>
<defs>
<filter id="filter0_d_10014_110266" x="3.98047" y="17.5703" width="114.207" height="85.1934" filterUnits="userSpaceOnUse" color-interpolation-filters="sRGB">
<feFlood flood-opacity="0" result="BackgroundImageFix"/>
<feColorMatrix in="SourceAlpha" type="matrix" values="0 0 0 0 0 0 0 0 0 0 0 0 0 0 0 0 0 0 127 0" result="hardAlpha"/>
<feOffset dy="4"/>
<feGaussianBlur stdDeviation="2"/>
<feComposite in2="hardAlpha" operator="out"/>
<feColorMatrix type="matrix" values="0 0 0 0 0 0 0 0 0 0 0 0 0 0 0 0 0 0 0.25 0"/>
<feBlend mode="normal" in2="BackgroundImageFix" result="effect1_dropShadow_10014_110266"/>
<feBlend mode="normal" in="SourceGraphic" in2="effect1_dropShadow_10014_110266" result="shape"/>
</filter>
</defs>
</svg>
