<svg width="438" height="421" viewBox="0 0 438 421" fill="none" xmlns="http://www.w3.org/2000/svg">
<g filter="url(#filter0_f_6906_81057)">
<rect x="2.5" y="2" width="433" height="417" rx="208.5" fill="url(#paint0_radial_6906_81057)"/>
</g>
<g clip-path="url(#clip0_6906_81057)">
<path d="M343.073 190.467C340.218 191.143 331.908 194.786 329.981 198.468C329.296 199.777 330.653 200.885 332.129 201.039C336.058 201.448 342.091 202.202 338.624 203.734C334.175 205.7 331.375 207.829 329.727 207.666" stroke="#F1DBFF" stroke-width="3"/>
<path d="M95.4336 207.174C98.2889 207.85 106.597 211.493 108.526 215.176C109.211 216.485 107.854 217.592 106.377 217.746C102.449 218.155 96.415 218.909 99.8823 220.441C104.331 222.407 107.132 224.537 108.78 224.373" stroke="#F1DBFF" stroke-width="3"/>
<path d="M342.579 215.037C341.214 215.037 340.108 213.937 340.108 212.58C340.108 211.223 341.214 210.123 342.579 210.123C343.944 210.123 345.051 211.223 345.051 212.58C345.051 213.937 343.944 215.037 342.579 215.037Z" fill="#F1DBFF"/>
<path d="M95.9246 231.744C97.2896 231.744 98.3961 230.644 98.3961 229.287C98.3961 227.93 97.2896 226.83 95.9246 226.83C94.5596 226.83 93.4531 227.93 93.4531 229.287C93.4531 230.644 94.5596 231.744 95.9246 231.744Z" fill="#F1DBFF"/>
<path d="M349.006 221.426C337.142 221.426 332.2 222.409 331.211 222.9" stroke="#F1DBFF" stroke-width="3"/>
<path d="M89.5 238.131C101.363 238.131 106.306 239.114 107.295 239.605" stroke="#F1DBFF" stroke-width="3"/>
<path d="M140.983 247.156C129.114 210.452 171.78 181.65 192.551 172.394L196.848 170.258C196.848 165.986 182.428 146.733 205.66 138.379C220.297 133.116 225.432 135.431 229.88 142.31L239.822 161.714L244.119 163.85C253.607 147.716 255.831 144.623 271.401 152.63C285.736 160.001 284.227 170.258 280.647 174.53L274.2 183.074C287.951 191.618 297.119 206.571 299.984 212.979C302.313 218.187 314.119 236.592 295.687 268.516C277.29 300.378 231.227 305.709 205.443 302.693C184.897 300.29 152.667 283.29 140.983 247.156Z" fill="#E9BB17" stroke="#E9BB17"/>
<path d="M218.433 279.019C172.023 277.31 146.985 249.558 138.391 238.877C140.539 258.101 148.513 293.751 194.798 302.516C250.322 313.03 271.339 299.685 293.638 274.747C310.826 255.523 308.967 229.43 303.237 218.037C295.359 238.685 264.845 280.728 218.433 279.019Z" fill="#DEB41D" stroke="#D9AF1C" stroke-width="0.2"/>
<path d="M192.651 244.84C208.078 244.84 220.584 232.408 220.584 217.071C220.584 201.735 208.078 189.303 192.651 189.303C177.225 189.303 164.719 201.735 164.719 217.071C164.719 232.408 177.225 244.84 192.651 244.84Z" fill="white"/>
<path d="M248.515 244.84C263.942 244.84 276.447 232.408 276.447 217.071C276.447 201.735 263.942 189.303 248.515 189.303C233.088 189.303 220.582 201.735 220.582 217.071C220.582 232.408 233.088 244.84 248.515 244.84Z" fill="white"/>
<path d="M205.825 219.209C206.855 219.209 207.704 220.043 207.555 221.057C207.401 222.104 207.118 223.131 206.708 224.113C206.061 225.669 205.111 227.081 203.914 228.271C202.716 229.461 201.296 230.406 199.731 231.05C198.167 231.693 196.49 232.026 194.798 232.026C193.104 232.026 191.429 231.693 189.864 231.05C188.3 230.406 186.879 229.461 185.682 228.271C184.484 227.081 183.535 225.669 182.887 224.113C182.478 223.131 182.194 222.104 182.04 221.057C181.892 220.043 182.741 219.209 183.771 219.209C184.802 219.209 185.618 220.047 185.826 221.051C185.943 221.612 186.112 222.162 186.334 222.694C186.795 223.799 187.469 224.803 188.32 225.648C189.171 226.494 190.18 227.165 191.292 227.623C192.403 228.081 193.595 228.316 194.798 228.316C196.001 228.316 197.192 228.081 198.303 227.623C199.414 227.165 200.425 226.494 201.275 225.648C202.126 224.803 202.8 223.799 203.261 222.694C203.483 222.162 203.653 221.612 203.769 221.051C203.978 220.047 204.793 219.209 205.825 219.209Z" fill="#292626"/>
<path d="M261.691 219.209C262.722 219.209 263.57 220.043 263.422 221.057C263.269 222.104 262.985 223.131 262.576 224.113C261.927 225.669 260.978 227.081 259.781 228.271C258.584 229.461 257.162 230.406 255.598 231.05C254.034 231.693 252.358 232.026 250.665 232.026C248.972 232.026 247.295 231.693 245.731 231.05C244.167 230.406 242.746 229.461 241.548 228.271C240.352 227.081 239.402 225.669 238.755 224.113C238.345 223.131 238.062 222.104 237.908 221.057C237.759 220.043 238.608 219.209 239.639 219.209C240.669 219.209 241.485 220.047 241.694 221.051C241.809 221.612 241.98 222.162 242.201 222.694C242.662 223.799 243.337 224.803 244.187 225.648C245.038 226.494 246.048 227.165 247.159 227.623C248.271 228.081 249.462 228.316 250.665 228.316C251.868 228.316 253.06 228.081 254.171 227.623C255.282 227.165 256.292 226.494 257.143 225.648C257.994 224.803 258.668 223.799 259.129 222.694C259.35 222.162 259.52 221.612 259.637 221.051C259.845 220.047 260.661 219.209 261.691 219.209Z" fill="#292626"/>
<path d="M326.874 213.875L322.723 214.025L323.026 222.28L323.405 232.597L327.556 232.447C329.035 227.435 327.718 217.977 326.874 213.875Z" fill="#C5A5F3" stroke="#75C973" stroke-width="0.2"/>
<path d="M116.721 248.364L120.873 248.212L120.57 239.959L120.191 229.641L116.039 229.791C114.56 234.804 115.878 244.262 116.721 248.364Z" fill="#C5A5F3" stroke="#75C973" stroke-width="0.2"/>
<path d="M135.438 210.693L141.784 262.945L125.431 259.921C123.222 256.858 118.998 244.493 119.773 219.526L127.606 215.11L123.119 170.967C147.885 141.344 218.573 95.735 303.202 150.287L307.844 195.969L317.996 199.098C320.808 204.692 325.589 220.839 322.222 240.674L306.705 245.862L301.452 193.581L307.844 195.969L303.202 150.287C218.573 95.735 147.885 141.344 123.119 170.967L127.606 215.11L135.438 210.693Z" fill="#6F219E"/>
<path d="M127.606 215.11L119.773 219.526C118.998 244.493 123.222 256.858 125.431 259.921L141.784 262.945L135.438 210.693L127.606 215.11ZM127.606 215.11L123.119 170.967C147.885 141.344 218.573 95.735 303.202 150.287L307.844 195.969M307.844 195.969L301.452 193.581L306.705 245.862L322.222 240.674C325.589 220.839 320.808 204.692 317.996 199.098L307.844 195.969Z" stroke="#6F219E"/>
<path d="M127.715 258.332C125.249 250.364 120.872 231.802 123.095 221.307" stroke="#C5A5F3"/>
<path d="M314.789 201.199C316.969 209.547 320.634 228.929 317.852 239.674" stroke="#C5A5F3"/>
<path d="M203.188 260.246C209.527 266.179 225.72 274.486 239.765 260.246" stroke="black" stroke-linecap="round"/>
</g>
<path d="M172.347 115.641C174.181 115.641 176.956 114.266 176.956 110.624V99.2887C176.956 98.6693 177.055 98.5578 177.612 98.4464L183.521 97.1456C183.955 97.0466 184.24 96.6997 184.24 96.2661V91.5959C184.24 90.9021 183.682 90.4438 183.001 90.5925L176.435 92.0171C175.581 92.2029 175.122 92.6488 175.122 93.3921L175.197 107.167C175.197 107.737 174.936 108.109 174.429 108.208L172.459 108.629C169.932 109.149 168.755 110.45 168.755 112.345C168.755 114.278 170.254 115.641 172.347 115.641ZM159.452 96.8979H170.526C170.997 96.8979 171.369 96.5138 171.369 96.0555C171.369 95.5972 170.997 95.2255 170.526 95.2255H159.452C158.993 95.2255 158.609 95.5972 158.609 96.0555C158.609 96.5138 158.993 96.8979 159.452 96.8979ZM159.452 101.308H170.526C171.01 101.308 171.369 100.924 171.369 100.453C171.369 99.9948 170.997 99.6356 170.526 99.6356H159.452C158.993 99.6356 158.609 99.9948 158.609 100.453C158.609 100.924 158.981 101.308 159.452 101.308ZM159.452 105.718H170.526C171.01 105.718 171.369 105.346 171.369 104.876C171.369 104.417 170.997 104.046 170.526 104.046H159.452C158.993 104.046 158.609 104.417 158.609 104.876C158.609 105.346 158.981 105.718 159.452 105.718Z" fill="black"/>
<path d="M346.625 153.254C348.458 153.254 351.233 151.879 351.233 148.237V136.902C351.233 136.283 351.332 136.171 351.89 136.06L357.799 134.759C358.232 134.66 358.517 134.313 358.517 133.879V129.209C358.517 128.515 357.96 128.057 357.278 128.206L350.713 129.63C349.858 129.816 349.4 130.262 349.4 131.005L349.474 144.781C349.474 145.35 349.214 145.722 348.706 145.821L346.736 146.242C344.209 146.763 343.032 148.063 343.032 149.959C343.032 151.891 344.531 153.254 346.625 153.254ZM333.729 134.511H344.804C345.275 134.511 345.646 134.127 345.646 133.669C345.646 133.21 345.275 132.839 344.804 132.839H333.729C333.271 132.839 332.887 133.21 332.887 133.669C332.887 134.127 333.271 134.511 333.729 134.511ZM333.729 138.921H344.804C345.287 138.921 345.646 138.537 345.646 138.066C345.646 137.608 345.275 137.249 344.804 137.249H333.729C333.271 137.249 332.887 137.608 332.887 138.066C332.887 138.537 333.258 138.921 333.729 138.921ZM333.729 143.331H344.804C345.287 143.331 345.646 142.96 345.646 142.489C345.646 142.031 345.275 141.659 344.804 141.659H333.729C333.271 141.659 332.887 142.031 332.887 142.489C332.887 142.96 333.258 143.331 333.729 143.331Z" fill="black"/>
<path d="M389.254 254.812C391.087 254.812 393.862 253.437 393.862 249.795V238.461C393.862 237.841 393.961 237.73 394.519 237.618L400.428 236.317C400.861 236.218 401.146 235.872 401.146 235.438V230.768C401.146 230.074 400.588 229.616 399.907 229.764L393.342 231.189C392.487 231.375 392.029 231.821 392.029 232.564L392.103 246.339C392.103 246.909 391.843 247.281 391.335 247.38L389.365 247.801C386.838 248.321 385.661 249.622 385.661 251.517C385.661 253.45 387.16 254.812 389.254 254.812ZM376.358 236.07H387.433C387.903 236.07 388.275 235.686 388.275 235.227C388.275 234.769 387.903 234.397 387.433 234.397H376.358C375.9 234.397 375.516 234.769 375.516 235.227C375.516 235.686 375.9 236.07 376.358 236.07ZM376.358 240.48H387.433C387.916 240.48 388.275 240.096 388.275 239.625C388.275 239.167 387.903 238.807 387.433 238.807H376.358C375.9 238.807 375.516 239.167 375.516 239.625C375.516 240.096 375.887 240.48 376.358 240.48ZM376.358 244.89H387.433C387.916 244.89 388.275 244.518 388.275 244.047C388.275 243.589 387.903 243.217 387.433 243.217H376.358C375.9 243.217 375.516 243.589 375.516 244.047C375.516 244.518 375.887 244.89 376.358 244.89Z" fill="black"/>
<path d="M53.2381 217.195C55.0715 217.195 57.8463 215.82 57.8463 212.178V200.843C57.8463 200.224 57.9454 200.113 58.5029 200.001L64.412 198.7C64.8456 198.601 65.1305 198.254 65.1305 197.821V193.151C65.1305 192.457 64.5729 191.999 63.8917 192.147L57.326 193.572C56.4713 193.758 56.0129 194.204 56.0129 194.947L56.0873 208.722C56.0873 209.292 55.8271 209.664 55.3192 209.763L53.3496 210.184C50.8225 210.704 49.6456 212.005 49.6456 213.9C49.6456 215.833 51.1445 217.195 53.2381 217.195ZM40.3424 198.453H51.4171C51.8878 198.453 52.2594 198.069 52.2594 197.61C52.2594 197.152 51.8878 196.78 51.4171 196.78H40.3424C39.884 196.78 39.5 197.152 39.5 197.61C39.5 198.069 39.884 198.453 40.3424 198.453ZM40.3424 202.863H51.4171C51.9002 202.863 52.2594 202.479 52.2594 202.008C52.2594 201.55 51.8878 201.19 51.4171 201.19H40.3424C39.884 201.19 39.5 201.55 39.5 202.008C39.5 202.479 39.8716 202.863 40.3424 202.863ZM40.3424 207.273H51.4171C51.9002 207.273 52.2594 206.901 52.2594 206.43C52.2594 205.972 51.8878 205.6 51.4171 205.6H40.3424C39.884 205.6 39.5 205.972 39.5 206.43C39.5 206.901 39.8716 207.273 40.3424 207.273Z" fill="black"/>
<defs>
<filter id="filter0_f_6906_81057" x="0.5" y="0" width="437" height="421" filterUnits="userSpaceOnUse" color-interpolation-filters="sRGB">
<feFlood flood-opacity="0" result="BackgroundImageFix"/>
<feBlend mode="normal" in="SourceGraphic" in2="BackgroundImageFix" result="shape"/>
<feGaussianBlur stdDeviation="1" result="effect1_foregroundBlur_6906_81057"/>
</filter>
<radialGradient id="paint0_radial_6906_81057" cx="0" cy="0" r="1" gradientUnits="userSpaceOnUse" gradientTransform="translate(219 211.184) rotate(-90) scale(160.269 163.433)">
<stop stop-color="#FFD1AB"/>
<stop offset="1" stop-color="#FDB274" stop-opacity="0"/>
</radialGradient>
<clipPath id="clip0_6906_81057">
<rect width="260" height="183" fill="white" transform="translate(89.5 123)"/>
</clipPath>
</defs>
</svg>
