<svg width="26" height="26" viewBox="0 0 26 26" fill="none" xmlns="http://www.w3.org/2000/svg">
<path d="M10.8307 12.9987C10.8307 14.1953 11.8008 15.1654 12.9974 15.1654C14.194 15.1654 15.1641 14.1953 15.1641 12.9987C15.1641 11.8021 14.194 10.832 12.9974 10.832C11.8008 10.832 10.8307 11.8021 10.8307 12.9987Z" fill="#6F219E"/>
<path d="M18.4167 12.9987C18.4167 14.1953 19.3867 15.1654 20.5833 15.1654C21.78 15.1654 22.75 14.1953 22.75 12.9987C22.75 11.8021 21.78 10.832 20.5833 10.832C19.3867 10.832 18.4167 11.8021 18.4167 12.9987Z" fill="#6F219E"/>
<path d="M3.2526 12.9987C3.2526 14.1953 4.22265 15.1654 5.41927 15.1654C6.61589 15.1654 7.58594 14.1953 7.58594 12.9987C7.58594 11.8021 6.61589 10.832 5.41927 10.832C4.22265 10.832 3.2526 11.8021 3.2526 12.9987Z" fill="#6F219E"/>
</svg>
