<svg width="16" height="16" viewBox="0 0 16 16" fill="none" xmlns="http://www.w3.org/2000/svg">
<path d="M8 16C6.89333 16 5.85333 15.79 4.88 15.37C3.90667 14.95 3.06 14.38 2.34 13.66C1.62 12.94 1.05 12.0933 0.63 11.12C0.21 10.1467 0 9.10667 0 8C0 6.89333 0.21 5.85333 0.63 4.88C1.05 3.90667 1.62 3.06 2.34 2.34C3.06 1.62 3.90667 1.05 4.88 0.63C5.85333 0.21 6.89333 0 8 0C9.10667 0 10.1467 0.21 11.12 0.63C12.0933 1.05 12.94 1.62 13.66 2.34C14.38 3.06 14.95 3.90667 15.37 4.88C15.79 5.85333 16 6.89333 16 8C16 9.10667 15.79 10.1467 15.37 11.12C14.95 12.0933 14.38 12.94 13.66 13.66C12.94 14.38 12.0933 14.95 11.12 15.37C10.1467 15.79 9.10667 16 8 16ZM8 14.4C8.72 14.4 9.41333 14.2833 10.08 14.05C10.7467 13.8167 11.36 13.48 11.92 13.04L2.96 4.08C2.52 4.64 2.18333 5.25333 1.95 5.92C1.71667 6.58667 1.6 7.28 1.6 8C1.6 9.78667 2.22 11.3 3.46 12.54C4.7 13.78 6.21333 14.4 8 14.4ZM13.04 11.92C13.48 11.36 13.8167 10.7467 14.05 10.08C14.2833 9.41333 14.4 8.72 14.4 8C14.4 6.21333 13.78 4.7 12.54 3.46C11.3 2.22 9.78667 1.6 8 1.6C7.28 1.6 6.58667 1.71667 5.92 1.95C5.25333 2.18333 4.64 2.52 4.08 2.96L13.04 11.92Z" fill="#817676"/>
</svg>
