<svg width="68" height="54" viewBox="0 0 68 54" fill="none" xmlns="http://www.w3.org/2000/svg">
<path d="M6.18876 31.3887L4.89137 31.8388C2.02054 32.8451 1.39944 38.1014 3.48356 43.6093C5.56767 49.1039 9.58408 52.7581 12.4411 51.7519L13.7385 51.3017" stroke="#6F219E" stroke-width="1.5" stroke-miterlimit="10"/>
<path d="M13.4986 27.4314L7.01377 29.6956C6.29747 29.9457 5.92814 30.7055 6.18886 31.3926L13.7418 51.2992C14.0025 51.9863 14.7945 52.3406 15.5108 52.0905L21.9957 49.8263C22.712 49.5762 23.0813 48.8164 22.8206 48.1293L15.2677 28.2227C15.0069 27.5356 14.2149 27.1813 13.4986 27.4314Z" stroke="#6F219E" stroke-width="1.5" stroke-miterlimit="10"/>
<path d="M34.0001 1.82422C19.5217 1.82422 7.77612 13.0915 7.77612 26.9804C7.77612 27.788 7.81753 28.5956 7.90034 29.39M13.3108 27.51C13.3108 27.3378 13.3108 27.1657 13.3108 26.9804C13.3108 16.0176 22.5858 7.12025 34.0139 7.12025" stroke="#6F219E" stroke-width="1.5" stroke-miterlimit="10"/>
<path d="M61.8112 31.3887L63.1086 31.8388C65.9794 32.8451 66.6005 38.1014 64.5164 43.6093C62.4323 49.1039 58.4159 52.7581 55.5589 51.7519L54.2615 51.3017" stroke="#6F219E" stroke-width="1.5" stroke-miterlimit="10"/>
<path d="M45.9972 49.8357L52.4821 52.0999C53.1984 52.35 53.9904 51.9957 54.2511 51.3086L61.8041 31.402C62.0648 30.7149 61.6954 29.9551 60.9791 29.705L54.4943 27.4408C53.778 27.1907 52.986 27.545 52.7253 28.2322L45.1723 48.1387C44.9116 48.8258 45.2809 49.5856 45.9972 49.8357Z" stroke="#6F219E" stroke-width="1.5" stroke-miterlimit="10"/>
<path d="M33.9999 1.82422C48.4783 1.82422 60.2238 13.0915 60.2238 26.9804C60.2238 27.788 60.1824 28.5956 60.0996 29.39M54.6892 27.51C54.6892 27.3378 54.6892 27.1657 54.6892 26.9804C54.6892 16.0176 45.4142 7.12025 33.9861 7.12025" stroke="#6F219E" stroke-width="1.5" stroke-miterlimit="10"/>
</svg>
