<svg width="68" height="56" viewBox="0 0 68 56" fill="none" xmlns="http://www.w3.org/2000/svg">
<path d="M47.9341 2H17.0836C10.9858 2 6 6.37855 6 11.7335V38.8185C6 44.1735 10.9858 48.5521 17.0836 48.5521H35.7827C44.016 48.5521 42.7188 53.2096 42.1364 54.6123C42.0569 54.806 42.2246 55.0075 42.454 54.9998C51.6051 54.7208 59 46.9092 59 38.8185V11.7335C59 6.37855 54.0141 2 47.9164 2H47.9341Z" stroke="#F96616" stroke-width="1.5" stroke-linecap="round" stroke-linejoin="round"/>
<path d="M3.14429 45.1796L1.96729 45.0234" stroke="#F96616" stroke-width="1.5" stroke-linecap="round" stroke-linejoin="round"/>
<path d="M7.25111 49.2129L7.04492 50.136" stroke="#F96616" stroke-width="1.5" stroke-linecap="round" stroke-linejoin="round"/>
<path d="M4.48473 47.5957L3.51392 48.1387" stroke="#F96616" stroke-width="1.5" stroke-linecap="round" stroke-linejoin="round"/>
<path d="M26.109 36.6006C25.5849 34.6185 22.4405 33.4578 19.0899 34.0076C15.7393 34.5642 13.4541 36.6209 13.9781 38.603C14.5022 40.585 17.6466 41.7458 20.9972 41.1959C24.3478 40.6393 26.6331 38.5826 26.109 36.6006Z" stroke="#F96616" stroke-width="1.5" stroke-linecap="round" stroke-linejoin="round"/>
<path d="M46.8138 33.5459C46.2898 31.5638 43.1454 30.4031 39.7948 30.9529C36.4442 31.5095 34.1589 33.5662 34.683 35.5483C35.207 37.5304 38.3514 38.6911 41.702 38.1413C45.0526 37.5847 47.3379 35.5279 46.8138 33.5459Z" stroke="#F96616" stroke-width="1.5" stroke-linecap="round" stroke-linejoin="round"/>
<path d="M47 32.9319V8L26 12.0681V37" stroke="#F96616" stroke-width="1.5" stroke-linecap="round" stroke-linejoin="round"/>
<path d="M47 14L26 17" stroke="#F96616" stroke-width="1.5" stroke-linecap="round" stroke-linejoin="round"/>
</svg>
