<svg width="72" height="56" viewBox="0 0 72 56" fill="none" xmlns="http://www.w3.org/2000/svg">
<path d="M8.13379 47.9681V7.94507C8.13379 4.10514 10.3935 1 13.188 1H58.8402C61.6347 1 63.8944 4.10514 63.8944 7.94507V47.9681" stroke="#E9BB18" stroke-width="1.5" stroke-linecap="round" stroke-linejoin="round"/>
<path d="M1.97437 47.9727H70.0256C70.293 47.9727 70.5 48.269 70.5 48.6245V50.4852C70.5 52.9741 69.0251 55.0007 67.2139 55.0007H4.78612C2.97488 55.0007 1.5 52.9741 1.5 50.4852V48.6245C1.5 48.2571 1.71562 47.9727 1.97437 47.9727Z" stroke="#E9BB18" stroke-width="1.5" stroke-linecap="round" stroke-linejoin="round"/>
<path d="M34.9656 5.69336H37.0528" stroke="#E9BB18" stroke-linecap="round" stroke-linejoin="round"/>
<path d="M8.13379 10.1914H63.8858" stroke="#E9BB18" stroke-width="1.5" stroke-linecap="round" stroke-linejoin="round"/>
<path d="M14.4341 27.1445V31.2215" stroke="#E9BB18" stroke-linecap="round" stroke-linejoin="round"/>
<path d="M18.0291 23.5762V34.7878" stroke="#E9BB18" stroke-linecap="round" stroke-linejoin="round"/>
<path d="M21.6238 20.5273V37.8545" stroke="#E9BB18" stroke-linecap="round" stroke-linejoin="round"/>
<path d="M25.2188 16.4414V41.9225" stroke="#E9BB18" stroke-linecap="round" stroke-linejoin="round"/>
<path d="M36.0034 31.2215V27.1445" stroke="#E9BB18" stroke-linecap="round" stroke-linejoin="round"/>
<path d="M32.4084 34.7878V23.5762" stroke="#E9BB18" stroke-linecap="round" stroke-linejoin="round"/>
<path d="M28.8137 37.8545V20.5273" stroke="#E9BB18" stroke-linecap="round" stroke-linejoin="round"/>
<path d="M39.5981 23.5762V34.7878" stroke="#E9BB18" stroke-linecap="round" stroke-linejoin="round"/>
<path d="M43.1931 20.5273V37.8545" stroke="#E9BB18" stroke-linecap="round" stroke-linejoin="round"/>
<path d="M46.7881 16.4414V41.9225" stroke="#E9BB18" stroke-linecap="round" stroke-linejoin="round"/>
<path d="M57.5725 31.2215V27.1445" stroke="#E9BB18" stroke-linecap="round" stroke-linejoin="round"/>
<path d="M53.9778 34.7878V23.5762" stroke="#E9BB18" stroke-linecap="round" stroke-linejoin="round"/>
<path d="M50.3828 37.8545V20.5273" stroke="#E9BB18" stroke-linecap="round" stroke-linejoin="round"/>
</svg>
