<svg width="68" height="56" viewBox="0 0 68 56" fill="none" xmlns="http://www.w3.org/2000/svg">
<g clip-path="url(#clip0_3924_37252)">
<path d="M51.3778 46.3224C51.3778 48.6199 49.0054 50.9747 46.0889 51.5634C43.1725 52.1522 40.8 50.7593 40.8 48.4619C40.8 46.1645 43.1725 43.8096 46.0889 43.2209C49.0054 42.6322 51.3778 44.025 51.3778 46.3224Z" stroke="#438342" stroke-width="1.5" stroke-miterlimit="10"/>
<path d="M51.3777 45.9481V18.666C54.3999 25.2137 58.9332 21.7532 58.9332 29.9665" stroke="#438342" stroke-width="1.5" stroke-linejoin="round"/>
<path d="M16.6222 36.2716C16.6222 38.5691 14.2498 40.9239 11.3333 41.5127C8.41688 42.1014 6.04443 40.7086 6.04443 38.4111C6.04443 36.1137 8.41688 33.7588 11.3333 33.1701C14.2498 32.5814 16.6222 33.9742 16.6222 36.2716Z" stroke="#438342" stroke-width="1.5" stroke-miterlimit="10"/>
<path d="M37.7777 29.092C37.7777 31.3894 35.4053 33.7443 32.4888 34.333C29.5724 34.9217 27.2 33.5289 27.2 31.2314C27.2 28.934 29.5724 26.5791 32.4888 25.9904C35.4053 25.4017 37.7777 26.7945 37.7777 29.092Z" stroke="#438342" stroke-width="1.5" stroke-miterlimit="10"/>
<path d="M37.7779 28.7176V1.43555L16.6223 8.61503V35.8971" stroke="#438342" stroke-width="1.5" stroke-linejoin="round"/>
<path d="M37.7779 8.61523L16.6223 15.7947" stroke="#438342" stroke-width="2" stroke-linejoin="round"/>
<path d="M24.1777 47.3848V56.0001" stroke="#438342" stroke-width="2" stroke-linejoin="round"/>
<path d="M28.7112 51.6914H19.6445" stroke="#438342" stroke-width="1.5" stroke-linejoin="round"/>
</g>
<defs>
<clipPath id="clip0_3924_37252">
<rect width="68" height="56" fill="white"/>
</clipPath>
</defs>
</svg>
