<svg width="69" height="54" viewBox="0 0 69 54" fill="none" xmlns="http://www.w3.org/2000/svg">
<g clip-path="url(#clip0_3924_37309)">
<path d="M27.84 39.2024C27.296 36.2636 24.0568 34.5562 20.5949 35.3679C17.1414 36.1889 14.7758 39.2304 15.3198 42.1692C15.8638 45.1081 19.1031 46.8154 22.5649 46.0037C26.0185 45.1827 28.384 42.1412 27.84 39.2024Z" stroke="#DA6A1C" stroke-width="1.5" stroke-linecap="round" stroke-linejoin="round"/>
<path d="M49.2128 34.679C48.6688 31.7401 45.4296 30.0328 41.9677 30.8445C38.5142 31.6655 36.1486 34.707 36.6926 37.6458C37.2366 40.5846 40.4759 42.292 43.9377 41.4803C47.3913 40.6593 49.7568 37.6178 49.2128 34.679Z" stroke="#DA6A1C" stroke-width="1.5" stroke-linecap="round" stroke-linejoin="round"/>
<path d="M49.2952 35.555V7.80859L27.9143 12.3335V40.0798" stroke="#DA6A1C" stroke-width="1.5" stroke-linecap="round" stroke-linejoin="round"/>
<path d="M49.2952 13.8359L27.9143 18.3608" stroke="#DA6A1C" stroke-width="1.5" stroke-linecap="round" stroke-linejoin="round"/>
<path d="M1.53027 1.16602H67.4697" stroke="#DA6A1C" stroke-width="1.5" stroke-linecap="round" stroke-linejoin="round"/>
<path d="M54.793 13.6035H67.4698" stroke="#DA6A1C" stroke-width="1.5" stroke-linecap="round" stroke-linejoin="round"/>
<path d="M1.53027 13.6035H22.6638" stroke="#DA6A1C" stroke-width="1.5" stroke-linecap="round" stroke-linejoin="round"/>
<path d="M54.6445 26.0488H67.4697" stroke="#DA6A1C" stroke-width="1.5" stroke-linecap="round" stroke-linejoin="round"/>
<path d="M32.53 26.0488H38.6047H44.9266" stroke="#DA6A1C" stroke-width="1.5" stroke-linecap="round" stroke-linejoin="round"/>
<path d="M1.53027 26.0488H22.6638" stroke="#DA6A1C" stroke-width="1.5" stroke-linecap="round" stroke-linejoin="round"/>
<path d="M53.3833 39.4453H67.4696" stroke="#DA6A1C" stroke-width="1.5" stroke-linecap="round" stroke-linejoin="round"/>
<path d="M1.53027 39.4453H10.6876" stroke="#DA6A1C" stroke-width="1.5" stroke-linecap="round" stroke-linejoin="round"/>
<path d="M1.53027 52.834H67.4697" stroke="#DA6A1C" stroke-width="1.5" stroke-linecap="round" stroke-linejoin="round"/>
</g>
<defs>
<clipPath id="clip0_3924_37309">
<rect width="68" height="54" fill="white" transform="translate(0.5)"/>
</clipPath>
</defs>
</svg>
