<svg width="68" height="53" viewBox="0 0 68 53" fill="none" xmlns="http://www.w3.org/2000/svg">
<path d="M31.0659 51.8585C31.0659 48.8461 28.9137 46.4088 26.2537 46.4088H1.75757V1.14062H26.2537C28.9137 1.14062 31.0659 3.57793 31.0659 6.59033V51.8585Z" stroke="#438342" stroke-width="1.5" stroke-linecap="round" stroke-linejoin="round"/>
<path d="M60.3743 18.4665V1.14062H35.8781C33.2181 1.14062 31.0659 3.57793 31.0659 6.59033V51.8585C31.0659 48.8461 33.2181 46.4088 35.8781 46.4088" stroke="#438342" stroke-width="1.5" stroke-linecap="round" stroke-linejoin="round"/>
<path d="M28 24H4" stroke="#438342" stroke-width="1.5" stroke-linecap="round" stroke-linejoin="round"/>
<path d="M28 15H4" stroke="#438342" stroke-width="1.5" stroke-linecap="round" stroke-linejoin="round"/>
<path d="M28 33H4" stroke="#438342" stroke-width="1.5" stroke-linecap="round" stroke-linejoin="round"/>
<path d="M49.7423 46.0624C49.3231 43.8077 46.8324 42.4841 44.1724 43.1139C41.5124 43.7438 39.6988 46.0898 40.1099 48.3446C40.529 50.5993 43.0197 51.9229 45.6797 51.2931C48.3397 50.6632 50.1534 48.3172 49.7423 46.0624Z" stroke="#438342" stroke-width="1.5" stroke-linecap="round" stroke-linejoin="round"/>
<path d="M66.1859 42.5839C65.7667 40.3292 63.276 39.0055 60.616 39.6354C57.956 40.2653 56.1424 42.6113 56.5535 44.866C56.9726 47.1208 59.4633 48.4444 62.1233 47.8145C64.7833 47.1847 66.597 44.8387 66.1859 42.5839Z" stroke="#438342" stroke-width="1.5" stroke-linecap="round" stroke-linejoin="round"/>
<path d="M66.2425 43.2597V21.9082L49.7988 25.3862V46.7468" stroke="#438342" stroke-width="1.5" stroke-linecap="round" stroke-linejoin="round"/>
<path d="M66.2425 26.5449L49.7988 30.032" stroke="#438342" stroke-width="1.5" stroke-linecap="round" stroke-linejoin="round"/>
<path d="M39.2959 21.8537L40.1261 20.9043" stroke="#438342" stroke-width="2" stroke-linecap="round" stroke-linejoin="round"/>
<path d="M43.7856 16.7605L44.6159 15.8203" stroke="#438342" stroke-width="2" stroke-linecap="round" stroke-linejoin="round"/>
<path d="M44.6159 21.8537L43.7856 20.9043" stroke="#438342" stroke-width="2" stroke-linecap="round" stroke-linejoin="round"/>
<path d="M40.1261 16.7605L39.2959 15.8203" stroke="#438342" stroke-width="2" stroke-linecap="round" stroke-linejoin="round"/>
<path d="M51.8299 9.32069L51.6042 9.07422" stroke="#438342" stroke-width="2" stroke-linecap="round" stroke-linejoin="round"/>
<path d="M55.0221 12.9359L54.7964 12.6895" stroke="#438342" stroke-width="2" stroke-linecap="round" stroke-linejoin="round"/>
<path d="M51.8299 12.6895L51.6042 12.9359" stroke="#438342" stroke-width="2" stroke-linecap="round" stroke-linejoin="round"/>
<path d="M55.0221 9.07422L54.7964 9.32069" stroke="#438342" stroke-width="2" stroke-linecap="round" stroke-linejoin="round"/>
</svg>
