<svg width="32" height="32" viewBox="0 0 32 32" fill="none" xmlns="http://www.w3.org/2000/svg">
<rect x="0.615385" y="0.615385" width="30.7692" height="30.7692" rx="15.3846" stroke="#DDDADA" stroke-width="1.23077"/>
<path d="M10.4388 20.6127C11.2075 20.0249 12.0666 19.5614 13.0162 19.2222C13.9657 18.8831 14.9605 18.7136 16.0005 18.7136C17.0405 18.7136 18.0353 18.8831 18.9849 19.2222C19.9344 19.5614 20.7936 20.0249 21.5622 20.6127C22.0898 19.9947 22.5005 19.2938 22.7944 18.5101C23.0883 17.7263 23.2353 16.8898 23.2353 16.0005C23.2353 13.9959 22.5307 12.2889 21.1214 10.8796C19.7121 9.47036 18.0051 8.76573 16.0005 8.76573C13.9959 8.76573 12.2889 9.47036 10.8796 10.8796C9.47036 12.2889 8.76573 13.9959 8.76573 16.0005C8.76573 16.8898 8.91268 17.7263 9.2066 18.5101C9.50051 19.2938 9.91123 19.9947 10.4388 20.6127ZM16.0005 16.9049C15.1112 16.9049 14.3614 16.5996 13.7509 15.9892C13.1405 15.3788 12.8353 14.6289 12.8353 13.7396C12.8353 12.8504 13.1405 12.1005 13.7509 11.4901C14.3614 10.8796 15.1112 10.5744 16.0005 10.5744C16.8898 10.5744 17.6396 10.8796 18.2501 11.4901C18.8605 12.1005 19.1657 12.8504 19.1657 13.7396C19.1657 14.6289 18.8605 15.3788 18.2501 15.9892C17.6396 16.5996 16.8898 16.9049 16.0005 16.9049ZM16.0005 25.044C14.7495 25.044 13.5738 24.8066 12.4736 24.3318C11.3733 23.857 10.4162 23.2127 9.60225 22.3988C8.78834 21.5849 8.14399 20.6278 7.66921 19.5275C7.19442 18.4272 6.95703 17.2515 6.95703 16.0005C6.95703 14.7495 7.19442 13.5738 7.66921 12.4736C8.14399 11.3733 8.78834 10.4162 9.60225 9.60225C10.4162 8.78834 11.3733 8.14399 12.4736 7.66921C13.5738 7.19442 14.7495 6.95703 16.0005 6.95703C17.2515 6.95703 18.4272 7.19442 19.5275 7.66921C20.6278 8.14399 21.5849 8.78834 22.3988 9.60225C23.2127 10.4162 23.857 11.3733 24.3318 12.4736C24.8066 13.5738 25.044 14.7495 25.044 16.0005C25.044 17.2515 24.8066 18.4272 24.3318 19.5275C23.857 20.6278 23.2127 21.5849 22.3988 22.3988C21.5849 23.2127 20.6278 23.857 19.5275 24.3318C18.4272 24.8066 17.2515 25.044 16.0005 25.044ZM16.0005 23.2353C16.7993 23.2353 17.553 23.1185 18.2614 22.8849C18.9698 22.6512 19.6179 22.3159 20.2057 21.8788C19.6179 21.4417 18.9698 21.1063 18.2614 20.8727C17.553 20.6391 16.7993 20.5222 16.0005 20.5222C15.2017 20.5222 14.448 20.6391 13.7396 20.8727C13.0312 21.1063 12.3831 21.4417 11.7953 21.8788C12.3831 22.3159 13.0312 22.6512 13.7396 22.8849C14.448 23.1185 15.2017 23.2353 16.0005 23.2353ZM16.0005 15.0962C16.3924 15.0962 16.7165 14.968 16.9727 14.7118C17.2289 14.4556 17.357 14.1315 17.357 13.7396C17.357 13.3478 17.2289 13.0237 16.9727 12.7675C16.7165 12.5112 16.3924 12.3831 16.0005 12.3831C15.6086 12.3831 15.2846 12.5112 15.0283 12.7675C14.7721 13.0237 14.644 13.3478 14.644 13.7396C14.644 14.1315 14.7721 14.4556 15.0283 14.7118C15.2846 14.968 15.6086 15.0962 16.0005 15.0962Z" fill="#B457F5"/>
</svg>
