<svg width="32" height="32" viewBox="0 0 32 32" fill="none" xmlns="http://www.w3.org/2000/svg">
<rect x="0.615385" y="0.615385" width="30.7692" height="30.7692" rx="15.3846" stroke="#DDDADA" stroke-width="1.23077"/>
<path d="M8.76573 16.9049V18.7136H23.2353V16.9049H8.76573ZM8.76573 6.95703H23.2353C23.7327 6.95703 24.1585 7.13413 24.5127 7.48834C24.8669 7.84254 25.044 8.26834 25.044 8.76573V18.7136C25.044 19.2109 24.8669 19.6367 24.5127 19.9909C24.1585 20.3451 23.7327 20.5222 23.2353 20.5222H19.6179V25.044L16.0005 23.2353L12.3831 25.044V20.5222H8.76573C8.26834 20.5222 7.84254 20.3451 7.48834 19.9909C7.13413 19.6367 6.95703 19.2109 6.95703 18.7136V8.76573C6.95703 8.26834 7.13413 7.84254 7.48834 7.48834C7.84254 7.13413 8.26834 6.95703 8.76573 6.95703ZM8.76573 14.1918H23.2353V8.76573H8.76573V14.1918Z" fill="#B457F5"/>
</svg>
