<svg width="32" height="33" viewBox="0 0 32 33" fill="none" xmlns="http://www.w3.org/2000/svg">
<rect x="0.615385" y="0.615385" width="30.7692" height="30.7907" rx="15.3846" stroke="#DDDADA" stroke-width="1.23077"/>
<path d="M10.2051 14.1709L11.9645 14.9153C12.175 14.4942 12.393 14.0882 12.6186 13.6973C12.8441 13.3063 13.0923 12.9153 13.3629 12.5244L12.0998 12.2762L10.2051 14.1709ZM13.408 16.0431L15.9794 18.5919C16.611 18.3513 17.2877 17.9829 18.0095 17.4867C18.7312 16.9904 19.4079 16.4265 20.0395 15.795C21.0921 14.7424 21.9154 13.5732 22.5094 12.2875C23.1033 11.0018 23.3627 9.81764 23.2876 8.73495C22.2049 8.65976 21.0169 8.91916 19.7237 9.51313C18.4305 10.1071 17.2576 10.9304 16.205 11.983C15.5734 12.6146 15.0095 13.2913 14.5133 14.013C14.0171 14.7348 13.6486 15.4115 13.408 16.0431ZM17.423 14.5769C17.0771 14.2311 16.9042 13.8063 16.9042 13.3025C16.9042 12.7988 17.0771 12.374 17.423 12.0281C17.7689 11.6823 18.1974 11.5093 18.7087 11.5093C19.22 11.5093 19.6485 11.6823 19.9944 12.0281C20.3402 12.374 20.5132 12.7988 20.5132 13.3025C20.5132 13.8063 20.3402 14.2311 19.9944 14.5769C19.6485 14.9228 19.22 15.0957 18.7087 15.0957C18.1974 15.0957 17.7689 14.9228 17.423 14.5769ZM17.8516 21.8174L19.7463 19.9227L19.4982 18.6596C19.1072 18.9302 18.7162 19.1746 18.3252 19.3926C17.9343 19.6107 17.5283 19.825 17.1072 20.0355L17.8516 21.8174ZM24.9116 7.08837C25.1973 8.90788 25.0206 10.6785 24.3815 12.4003C23.7424 14.1221 22.641 15.7649 21.0771 17.3288L21.5282 19.5618C21.5883 19.8626 21.5733 20.1558 21.4831 20.4415C21.3929 20.7272 21.2425 20.9753 21.032 21.1858L17.2426 24.9752L15.3479 20.5317L11.4908 16.6747L7.04726 14.78L10.8141 10.9905C11.0246 10.78 11.2765 10.6297 11.5697 10.5394C11.863 10.4492 12.1599 10.4342 12.4607 10.4943L14.6937 10.9454C16.2576 9.38156 17.8967 8.27631 19.6109 7.62971C21.3252 6.9831 23.0921 6.80266 24.9116 7.08837ZM8.64873 19.5393C9.17504 19.013 9.81788 18.746 10.5773 18.7385C11.3366 18.731 11.9795 18.9904 12.5058 19.5167C13.0321 20.043 13.2915 20.6859 13.284 21.4452C13.2765 22.2046 13.0096 22.8475 12.4832 23.3738C12.1073 23.7497 11.4795 24.073 10.5998 24.3437C9.72014 24.6144 8.50587 24.855 6.95703 25.0655C7.16755 23.5166 7.40815 22.3024 7.67882 21.4227C7.94949 20.543 8.2728 19.9152 8.64873 19.5393ZM9.93442 20.8024C9.78405 20.9528 9.63367 21.2272 9.4833 21.6257C9.33293 22.0242 9.22767 22.4264 9.16752 22.8324C9.57352 22.7723 9.97577 22.6708 10.3743 22.5279C10.7727 22.3851 11.0472 22.2385 11.1976 22.0881C11.378 21.9076 11.4757 21.6896 11.4908 21.434C11.5058 21.1783 11.4231 20.9603 11.2427 20.7798C11.0622 20.5994 10.8442 20.5129 10.5885 20.5204C10.3329 20.528 10.1149 20.6219 9.93442 20.8024Z" fill="#B457F5"/>
</svg>
