<svg width="264" height="164" viewBox="0 0 264 164" fill="none" xmlns="http://www.w3.org/2000/svg">
<mask id="mask0_15287_43715" style="mask-type:alpha" maskUnits="userSpaceOnUse" x="-34" y="-4" width="350" height="169">
<path d="M-34 -3.4707H316V164.004H-34V-3.4707Z" fill="#FFEBD5"/>
</mask>
<g mask="url(#mask0_15287_43715)">
<path d="M-36.918 -10.9355H319.888V180.007H-36.918V-10.9355Z" fill="#FBF8EB"/>
<path d="M-14.4345 36.7965C-14.5152 36.8501 -14.5901 36.9131 -14.6599 36.9812C-14.7785 37.0466 -14.8948 37.1146 -15.006 37.1884L-15.0139 37.1928L-15.0211 37.1979C-15.7021 37.6541 -16.3367 38.3129 -16.8473 39.1148L-17.1 39.2283C-17.2861 38.704 -17.3624 38.2059 -17.3702 37.7575L-14.7002 36.2777L-14.4345 36.7965ZM-14.4345 36.7965C-14.2083 36.6451 -13.9709 36.5795 -13.748 36.5872C-12.9154 36.3174 -11.988 36.2407 -11.0741 36.411C-11.3694 35.8044 -11.7813 35.3 -12.2593 34.925L-14.6983 36.2768L-14.4345 36.7965ZM-13.493 39.413C-13.7196 39.4948 -13.9252 39.5994 -14.1047 39.7184L-13.1562 41.5887L-12.5564 41.2568L-13.493 39.413ZM-13.493 39.413L-12.5503 41.2533L-11.1248 40.4635C-11.0007 40.2545 -10.8988 40.0324 -10.8196 39.8019C-10.8133 39.7835 -10.8085 39.7638 -10.8023 39.7447C-11.0505 39.5911 -11.3111 39.4699 -11.5786 39.3857C-12.2967 39.1596 -12.955 39.2189 -13.493 39.413ZM24.9968 18.3424C24.404 18.7416 23.991 19.3357 23.7638 19.9994C23.7581 20.0162 23.7536 20.0339 23.7479 20.0513C23.9967 20.2054 24.2586 20.3257 24.5268 20.4101C24.6496 20.4487 24.7705 20.4798 24.8895 20.5026L25.8347 19.9777M24.9968 18.3424L25.8347 19.9777M24.9968 18.3424L25.8347 19.9777M24.9968 18.3424C24.9998 18.3404 25.0028 18.3384 25.0058 18.3364C25.008 18.335 25.0103 18.3336 25.0125 18.3321M25.8347 19.9777L25.8457 19.9723M25.0125 18.3321L25.8457 19.9723M25.0125 18.3321L25.8457 19.9723M25.0125 18.3321C25.2797 18.1556 25.5999 18.0085 25.9603 17.926L26.7452 19.473L25.8457 19.9723M59.6665 59.0542L59.665 59.0514M59.6665 59.0542L59.6917 59.0424M59.6665 59.0542L59.665 59.0514M59.6665 59.0542L59.6917 59.0424M59.665 59.0514L59.6901 59.0395M59.665 59.0514L59.6901 59.0395M59.6901 59.0395L59.6917 59.0424M59.6901 59.0395L59.6917 59.0424M62.7986 80.751C71.2843 75.0924 76.1057 62.486 72.3215 51.8467C68.5986 41.3804 58.8069 38.3143 50.5044 42.2575L38.3293 8.02024C35.4931 0.04503 27.8901 -2.15762 21.8101 1.01296L21.5215 1.16826L-28.8555 29.0924L-32.6921 31.2182L-31.0375 35.8705L-8.9542 97.9634C-4.87449 109.439 6.50901 112.022 15.2187 106.214C23.7045 100.555 28.5261 87.9491 24.7416 77.3098C21.0186 66.8438 11.2268 63.7776 2.92453 67.7205L-3.01984 51.005L25.3841 35.2679L38.6257 72.5004C42.7058 83.9745 54.089 86.5586 62.7986 80.751ZM-17.095 39.2412L-16.8602 39.1345C-16.9182 39.2262 -16.9734 39.3207 -17.028 39.416C-17.0512 39.3585 -17.0738 39.3004 -17.095 39.2412ZM-13.7882 41.939C-14.0451 41.928 -14.3149 41.8841 -14.5929 41.7966C-14.8613 41.7121 -15.1229 41.5921 -15.371 41.4385C-15.3652 41.4207 -15.3612 41.4023 -15.3553 41.3851C-15.1289 40.7238 -14.7166 40.1281 -14.1204 39.7287L-13.1659 41.594L-13.7882 41.939ZM-7.73142 38.5823C-7.8583 38.4059 -7.99101 38.2415 -8.12856 38.0876C-8.11621 37.3202 -8.21955 36.5215 -8.46689 35.7121L-8.57985 35.3696L-8.58482 35.3566C-8.85298 34.607 -9.19636 33.9747 -9.58987 33.446L19.3058 17.4348C19.3613 18.0664 19.4969 18.7139 19.7287 19.3665C20.0719 20.333 20.5355 21.1072 21.0758 21.7112C21.0712 22.0014 21.0843 22.2959 21.1145 22.594L-7.73142 38.5823ZM28.0442 15.0231C27.1283 14.8523 26.1987 14.9294 25.3646 15.2005C25.1433 15.1942 24.9075 15.2594 24.6825 15.4087L24.5685 15.493C24.5299 15.5245 24.4935 15.559 24.4578 15.5941C24.4407 15.6036 24.4236 15.6128 24.4066 15.6224L24.0047 14.8315L26.3754 13.5169L26.3773 13.516C26.4746 13.462 26.5663 13.4209 26.6509 13.3865C27.2154 13.7707 27.7053 14.3287 28.0442 15.0231ZM24.3987 15.6268C24.3008 15.6824 24.2042 15.7383 24.1116 15.7998L23.8949 15.9525C23.208 16.4599 22.5787 17.173 22.089 18.0282C22.0641 17.9665 22.0396 17.9041 22.017 17.8405C21.7893 17.1992 21.7278 16.5977 21.7527 16.0786L23.995 14.8368L24.3987 15.6268ZM27.1169 19.2666L26.7586 19.4659L25.9698 17.9244C26.4375 17.819 26.9715 17.8196 27.5411 17.9992C27.8087 18.0835 28.0696 18.2048 28.3181 18.3588C28.3124 18.3762 28.3079 18.394 28.3022 18.4108C28.2729 18.4963 28.2403 18.5807 28.2048 18.6638L27.1169 19.2666ZM8.91307 88.7338C8.50388 88.8769 8.11876 89.0639 7.77286 89.2935L7.75842 89.3037C7.52511 89.4599 7.29829 89.6413 7.07898 89.8425C6.90353 89.7679 6.72224 89.6962 6.53261 89.6367L6.53274 89.6381C6.50945 89.6308 6.48589 89.6252 6.46264 89.6182L6.43061 89.5222L6.27273 89.1114C5.30099 86.7665 3.57293 85.6789 1.83717 85.458L2.93571 84.1867L4.22757 82.6927C4.8371 81.9916 5.50351 81.3929 6.21874 80.9167L6.22114 80.9151C7.52341 80.0471 8.7114 79.6784 9.75038 79.6606C8.8848 81.3466 8.56313 83.5184 9.35542 85.7496L9.35829 85.7605C9.43856 85.9852 9.52849 86.198 9.62131 86.4022C9.48118 86.6825 9.35579 86.9735 9.24965 87.2755L9.23884 87.3054L9.2293 87.3353C9.08306 87.7664 8.97735 88.2385 8.91307 88.7338ZM3.37575 89.6892C2.90291 89.853 2.46401 90.0774 2.07199 90.3442L2.05811 90.3536L2.04481 90.3622C1.86027 90.4898 1.68286 90.6311 1.51082 90.7813C1.41197 90.7509 1.30784 90.7383 1.20065 90.7414L0.352238 88.3562C0.744381 88.3085 1.17592 88.336 1.63192 88.4794C2.28139 88.6837 2.89159 89.1027 3.37575 89.6892ZM4.19565 93.9511C4.07368 94.3075 3.8968 94.6438 3.66743 94.9414C3.10816 94.5738 2.64983 94.0785 2.30484 93.5169C2.51191 93.2469 2.7536 93.0182 3.02202 92.8395C3.35458 92.6182 3.83045 92.4099 4.40624 92.3671C4.43909 93.0086 4.33024 93.5578 4.19565 93.9511ZM13.5475 83.0776C12.9048 83.2373 12.3107 83.5173 11.7903 83.874L11.7894 83.8719C11.776 83.881 11.7631 83.8914 11.7498 83.9006C11.7387 83.9084 11.727 83.9151 11.7159 83.9229L11.7168 83.9251C11.6707 83.9573 11.6248 83.9897 11.5797 84.0233C11.2377 82.9066 11.3846 81.9273 11.5939 81.3174C11.7155 80.9635 11.892 80.6303 12.1196 80.334C12.8695 80.8272 13.4387 81.548 13.7948 82.3542C13.6653 82.576 13.5804 82.8254 13.5475 83.0776ZM8.08984 95.1576C7.80154 95.2773 7.5203 95.3709 7.24702 95.4423C7.16019 94.7907 7.22743 94.2152 7.34144 93.7717C7.6488 94.1581 7.89385 94.5999 8.06113 95.0701C8.07145 95.0991 8.08018 95.1286 8.08984 95.1576ZM14.1535 86.7932C13.7593 86.6691 13.3808 86.4667 13.0364 86.1971C13.3766 86.0274 13.8123 85.8914 14.3207 85.8902C14.3014 86.194 14.2676 86.502 14.2204 86.8126C14.1983 86.8062 14.1758 86.8002 14.1535 86.7932ZM12.0675 91.9697C12.0446 91.936 12.023 91.9013 12.0011 91.8669C12.0334 91.8873 12.0654 91.9084 12.0973 91.9299C12.0874 91.9432 12.0775 91.9564 12.0675 91.9697ZM56.4915 63.2694C56.0827 63.4124 55.6977 63.6003 55.352 63.8298L55.1353 63.9825C54.9727 64.1027 54.814 64.2356 54.6587 64.378C54.484 64.3037 54.3032 64.2336 54.1145 64.1742L54.1131 64.1728C54.0892 64.1653 54.0649 64.1609 54.0411 64.1538L54.0098 64.0584L53.8519 63.6477C52.8801 61.3028 51.1526 60.2144 49.4169 59.9935L50.5149 58.723L51.8073 57.2282L52.0385 56.9708C52.5842 56.3799 53.1726 55.869 53.7985 55.4522L53.8003 55.4513C55.1024 54.5834 56.2905 54.2146 57.3296 54.1969C56.4639 55.8831 56.1417 58.0557 56.9354 60.2881L56.9387 60.2967C57.019 60.5213 57.1077 60.7344 57.2005 60.9385C57.057 61.226 56.929 61.5243 56.8217 61.8332L56.8173 61.8477L56.8126 61.8608C56.6647 62.2942 56.5567 62.7699 56.4915 63.2694ZM50.9549 64.2255C50.4789 64.39 50.0382 64.6156 49.6462 64.8824L49.6329 64.891L49.619 64.9004C49.4347 65.0279 49.2584 65.1684 49.088 65.317C48.9901 65.2872 48.8871 65.2746 48.7811 65.2776L47.9327 62.8924C48.3247 62.8448 48.7565 62.8722 49.2124 63.0156C49.8616 63.2199 50.4709 63.6392 50.9549 64.2255ZM51.7748 68.4874C51.6529 68.8436 51.4763 69.1794 51.2472 69.4769C50.6879 69.1092 50.2289 68.6147 49.884 68.0532C50.0911 67.7831 50.3327 67.5546 50.6012 67.3758C50.9336 67.1546 51.4094 66.9472 51.9848 66.9041C52.0175 67.5454 51.9094 68.0942 51.7748 68.4874ZM61.1265 57.6124C60.4755 57.7725 59.878 58.0535 59.3613 58.4051L59.3474 58.4145L59.3341 58.4231C59.2739 58.4647 59.2151 58.5091 59.1563 58.5531C58.817 57.4393 58.9642 56.4624 59.1731 55.8537C59.2946 55.4997 59.4714 55.1665 59.6987 54.8703C60.4495 55.3636 61.0196 56.0844 61.3753 56.8904C61.2457 57.1119 61.1596 57.3605 61.1265 57.6124ZM55.6704 69.6952C55.382 69.8148 55.1009 69.9087 54.8276 69.9799C54.7404 69.3276 54.8066 68.7515 54.9206 68.308C55.229 68.6955 55.475 69.1392 55.6427 69.6114C55.6525 69.6392 55.6611 69.6675 55.6704 69.6952ZM61.7327 61.3295C61.3381 61.2052 60.9593 61.0025 60.6149 60.7327C60.9594 60.5605 61.3956 60.425 61.9002 60.4227C61.881 60.7278 61.8469 61.037 61.7996 61.3489C61.7774 61.3424 61.755 61.3365 61.7327 61.3295ZM59.6468 66.5074C59.6232 66.4726 59.6008 66.4367 59.5781 66.4012C59.6118 66.4223 59.6447 66.4452 59.6779 66.4676C59.6678 66.4811 59.657 66.4939 59.6468 66.5074Z" stroke="#F8D867" stroke-opacity="0.4" stroke-width="10" stroke-linecap="round"/>
<path d="M372.982 124.948L373.626 127.474L377.12 126.61C377.224 126.471 377.323 126.327 377.415 126.179C378.087 125.1 378.672 123.387 378.36 121.33L376.485 121.733C376.051 122.037 375.603 122.308 375.145 122.545C374.897 123.53 374.188 124.424 373.25 124.843L372.982 124.948ZM372.982 124.948C371.735 125.372 370.55 124.829 370.098 123.72C369.044 123.695 367.988 123.51 366.972 123.166L366.791 123.206C366.822 123.409 366.865 123.608 366.911 123.803M372.982 124.948L373.617 127.476L370.346 128.285C370.214 128.219 370.08 128.15 369.949 128.072C368.497 127.212 367.36 125.684 366.911 123.803M361.518 124.981L361.517 124.969L361.514 124.957L361.469 124.633C361.229 122.757 361.391 120.967 361.852 119.324C361.268 118.487 360.78 117.53 360.418 116.448L293.942 132.886C293.885 133.851 293.722 134.783 293.473 135.671C294.436 137.052 295.137 138.764 295.448 140.812C295.778 142.987 295.569 145.051 294.972 146.911L363.423 129.995C362.498 128.634 361.823 126.965 361.518 124.981ZM361.518 124.981L366.911 123.803M361.518 124.981L366.911 123.803M377.619 120.843C377.797 120.685 377.971 120.52 378.142 120.351C378.233 120.66 378.306 120.978 378.357 121.305L376.525 121.705C376.897 121.443 377.26 121.159 377.609 120.851M377.619 120.843L375.211 121.369M377.619 120.843C377.616 120.846 377.612 120.848 377.609 120.851M377.619 120.843L375.211 121.369M377.609 120.851L375.211 121.369M377.609 120.851L375.211 121.369M289.437 142.106C288.665 142.787 287.828 143.359 286.957 143.81C286.729 144.71 286.116 145.53 285.298 145.986L286.093 149.104L288.349 148.547C288.689 148.211 288.987 147.836 289.238 147.432C289.905 146.357 290.491 144.647 290.179 142.591C290.147 142.381 290.104 142.175 290.056 141.972M289.437 142.106L290.056 141.972M289.437 142.106L290.056 141.972M289.437 142.106C289.615 141.948 289.789 141.783 289.961 141.614C289.995 141.732 290.027 141.851 290.056 141.972M278.735 144.409C279.767 144.765 280.843 144.955 281.915 144.981C282.365 146.086 283.55 146.628 284.801 146.209C284.967 146.153 285.126 146.079 285.279 145.995L286.062 149.113L282.985 149.873C282.578 149.747 282.169 149.57 281.767 149.331C280.168 148.384 278.932 146.617 278.602 144.439M278.735 144.409L278.602 144.439M278.735 144.409L278.602 144.439M278.735 144.409C278.687 144.393 278.639 144.377 278.592 144.36C278.596 144.386 278.598 144.413 278.602 144.439M283.032 137.044C283.362 136.969 283.708 136.924 284.066 136.915M283.032 137.044L283.599 139.302M283.032 137.044C282.861 137.083 282.695 137.129 282.534 137.183L283.076 139.341C283.253 139.337 283.428 139.323 283.599 139.302M283.032 137.044L283.599 139.302M284.066 136.915L284.608 139.074M284.066 136.915L284.608 139.074M284.066 136.915C284.074 136.915 284.083 136.914 284.092 136.914M284.608 139.074C284.289 139.181 283.95 139.258 283.599 139.302M284.608 139.074C284.613 139.073 284.618 139.071 284.624 139.069C284.629 139.067 284.635 139.065 284.641 139.063M284.092 136.914C284.981 136.895 285.936 137.1 286.863 137.614C286.259 138.257 285.509 138.766 284.641 139.063M284.092 136.914L284.641 139.063M284.092 136.914L284.641 139.063M225.984 47.4212C226.355 48.5906 226.89 49.6824 227.574 50.6612C228.529 50.1793 229.304 49.4284 229.854 48.5439C230.526 47.4644 231.112 45.752 230.8 43.6954L227.671 44.3687C227.592 45.4783 226.898 46.5587 225.903 47.1004M225.984 47.4212L225.903 47.1004M225.984 47.4212L225.903 47.1004M225.984 47.4212C225.951 47.3171 225.919 47.2124 225.889 47.1072C225.894 47.1047 225.899 47.1029 225.903 47.1004M234.031 0.641194C214.502 7.23196 200.101 29.1124 203.417 50.886C206.661 72.1937 225.023 83.1853 243.714 79.025L255.088 153.76C257.486 169.512 271.259 177.615 284.891 174.247L284.892 174.246L398.608 146.127L406.761 144.111L405.389 135.101L385.265 2.89613L385.264 2.89595C381.798 -19.888 361.03 -30.8855 341.069 -24.1488C321.54 -17.558 307.138 4.32285 310.454 26.0967C313.699 47.4039 332.06 58.3944 350.751 54.2348L356.583 92.5618L290.586 108.868L278.228 27.6854L278.227 27.6846C274.76 4.90188 253.992 -6.09554 234.031 0.641194ZM372.275 115.655C373.167 115.637 374.121 115.844 375.047 116.356C374.444 116.997 373.695 117.507 372.823 117.803L372.275 115.655ZM366.929 123.151L366.788 123.183C366.784 123.155 366.781 123.127 366.777 123.1C366.828 123.118 366.878 123.134 366.929 123.151ZM371.216 115.783C371.546 115.709 371.892 115.665 372.248 115.656L372.789 117.814C372.472 117.92 372.135 117.998 371.783 118.042L371.216 115.783ZM368.462 117.383C369.065 116.741 369.814 116.231 370.684 115.933C370.852 115.876 371.025 115.826 371.203 115.785L371.778 118.043C370.741 118.172 369.582 118.003 368.462 117.383ZM280.277 138.642C280.88 138.001 281.63 137.491 282.503 137.194L283.051 139.342C282.155 139.361 281.201 139.153 280.277 138.642ZM345.372 10.5643C346.297 10.5159 347.209 10.348 348.078 10.0569L348.094 10.0511L348.109 10.0458C348.777 9.81881 349.434 9.51551 350.07 9.14857C350.516 9.52105 351.003 9.86669 351.533 10.1804L351.532 10.1818C351.846 10.3676 352.165 10.5315 352.485 10.6779C352.51 11.0699 352.552 11.4662 352.613 11.8663C353.554 18.0683 358.078 21.1813 362.593 21.395L357.369 25.0119L354.14 27.2458L353.557 27.6336C352.187 28.5134 350.754 29.2167 349.273 29.7154L349.27 29.7171C345.04 31.1437 341.378 30.8072 338.557 29.3452C341.728 26.6504 343.878 22.1884 343.11 17.1308L343.109 17.1218L343.107 17.112C343.003 16.4362 342.855 15.797 342.671 15.1938C343.175 14.6372 343.638 14.0332 344.049 13.384L344.079 13.334L344.111 13.2848C344.624 12.452 345.047 11.5333 345.372 10.5643ZM358.224 11.4443C358.867 11.3433 359.496 11.1871 360.098 10.9773L360.126 10.9673L360.156 10.9575C360.496 10.8362 360.831 10.6953 361.161 10.5404C361.54 11.5906 362.565 12.1635 363.705 11.9506L364.283 15.7459C363.26 15.828 362.131 15.6217 361.047 14.9795C359.796 14.2385 358.77 12.994 358.224 11.4443ZM358.823 5.24777C359.374 4.35973 360.151 3.60468 361.111 3.12278C361.292 3.38317 361.463 3.65183 361.624 3.92762C360.94 4.74225 360.088 5.31948 359.167 5.62963C358.966 5.69727 358.749 5.75338 358.519 5.79851C358.617 5.60026 358.718 5.41601 358.823 5.24777ZM337.837 18.9047C338.149 20.9614 337.564 22.6744 336.892 23.754C336.342 24.6381 335.567 25.3889 334.612 25.8712C333.868 24.8055 333.299 23.6057 332.927 22.3173C333.93 21.7779 334.63 20.6926 334.709 19.5773L337.837 18.9047ZM334.704 19.105C335.744 19.0572 336.764 18.849 337.728 18.5089L337.728 18.5126C337.74 18.5084 337.752 18.5028 337.765 18.4986C337.791 18.626 337.814 18.7555 337.834 18.8859L334.71 19.565C334.72 19.4115 334.718 19.2581 334.704 19.105ZM345.199 1.15804C345.399 1.1394 345.605 1.09968 345.812 1.03044L346.077 0.925603C346.098 0.916116 346.118 0.903769 346.139 0.89381C346.209 2.21348 346.47 3.52383 346.947 4.75945C346.668 4.83378 346.376 4.88583 346.074 4.91356C345.973 3.62723 345.69 2.35486 345.199 1.15804ZM337.401 7.48962C338.269 8.37882 339.267 9.07018 340.333 9.57396C340.209 9.9211 340.064 10.2429 339.903 10.5319C338.995 9.63869 337.955 8.95026 336.845 8.46411C336.934 8.35445 337.02 8.24092 337.097 8.1194C337.223 7.91531 337.322 7.7033 337.401 7.48962ZM238.336 35.3538C239.26 35.3053 240.171 35.1378 241.04 34.8469L241.057 34.8412L241.073 34.8353C241.741 34.6083 242.397 34.306 243.032 33.9393C243.478 34.3113 243.964 34.6574 244.492 34.9708L244.494 34.9717C244.808 35.1576 245.127 35.3223 245.448 35.4687C245.466 35.7551 245.493 36.0439 245.53 36.3345L245.575 36.6562L245.636 37.0256C246.697 42.9826 251.131 45.9751 255.556 46.1844L250.331 49.8012L247.081 52.0505C245.543 53.1062 243.921 53.9382 242.236 54.5055L242.232 54.507C238.002 55.9334 234.341 55.5956 231.521 54.1339C234.691 51.4389 236.842 46.9771 236.072 41.917L236.069 41.9019C235.965 41.2268 235.818 40.5881 235.634 39.9853C236.148 39.4167 236.618 38.8001 237.033 38.1389L237.062 38.0916C237.58 37.2546 238.008 36.3303 238.336 35.3538ZM251.186 36.235C251.835 36.134 252.467 35.9771 253.071 35.7666L253.101 35.7568L253.13 35.7462C253.468 35.6257 253.799 35.4867 254.124 35.3342C254.505 36.3821 255.528 36.9531 256.667 36.7405L257.245 40.5358C256.222 40.6179 255.093 40.4123 254.009 39.7702C252.758 39.0294 251.733 37.7846 251.186 36.235ZM251.481 30.5899C251.579 30.391 251.681 30.2058 251.785 30.0371C252.337 29.1492 253.113 28.3953 254.073 27.9135C254.255 28.1737 254.425 28.4421 254.586 28.7176C253.902 29.5322 253.05 30.1094 252.129 30.4196C251.928 30.4873 251.711 30.5447 251.481 30.5899ZM227.665 43.8964C228.718 43.8509 229.744 43.6475 230.705 43.3127L230.729 43.3042C230.754 43.4253 230.776 43.5477 230.795 43.6714L227.672 44.3521C227.682 44.2 227.679 44.0481 227.665 43.8964ZM238.169 25.9476C238.367 25.9286 238.57 25.8887 238.773 25.8204C238.886 25.7822 238.994 25.7348 239.101 25.6838C239.171 27.0034 239.432 28.3139 239.909 29.5494C239.632 29.6231 239.343 29.6752 239.044 29.7031C238.944 28.4169 238.661 27.1445 238.169 25.9476ZM230.364 32.2805C231.239 33.1763 232.245 33.8718 233.321 34.3763C233.192 34.7194 233.043 35.0401 232.876 35.3337C231.966 34.4355 230.923 33.7426 229.81 33.2544C229.898 33.1443 229.983 33.0301 230.059 32.9093C230.185 32.7052 230.285 32.4935 230.364 32.2805Z" stroke="#FCE19E" stroke-opacity="0.7" stroke-width="18" stroke-linecap="round"/>
<path d="M86.8015 141.289C85.4563 145.382 84.9947 147.987 82.7659 147.987C79.1788 147.987 77.6094 146.105 77.6094 142.405C77.6094 138.706 80.9855 131.986 83.2143 131.986C85.4431 131.986 88.595 135.831 86.8015 141.289Z" fill="#FCE19E"/>
<path d="M219.727 148.721C215.423 155.543 213.945 159.885 206.813 159.885C195.335 159.885 190.312 156.747 190.312 150.582C190.312 144.417 201.116 133.217 208.248 133.217C215.38 133.217 225.467 139.625 219.727 148.721Z" fill="#FCE19E"/>
<path d="M175.06 -0.76688C170.218 6.05515 168.556 10.3964 160.532 10.3964C147.619 10.3964 141.969 7.259 141.969 1.09367C141.969 -5.07166 154.123 -16.2715 162.147 -16.2715C170.17 -16.2715 181.517 -9.86291 175.06 -0.76688Z" fill="#FCE19E"/>
<path d="M98.7755 18.9051C97.6994 22.1797 97.3301 24.2635 95.5471 24.2635C92.6774 24.2635 91.4219 22.7575 91.4219 19.7982C91.4219 16.8388 94.1228 11.4629 95.9058 11.4629C97.6888 11.4629 100.21 14.539 98.7755 18.9051Z" fill="#FCE19E"/>
<path d="M193.501 44.0011C193.501 47.2012 192.486 47.7346 191.233 47.7346C189.98 47.7346 187.668 46.5964 187.668 44.5344C187.668 42.4725 189.98 40.2676 191.233 40.2676C192.486 40.2676 193.501 41.3343 193.501 44.0011Z" fill="#FCE19E"/>
</g>
</svg>
