<svg width="57" height="58" viewBox="0 0 57 58" fill="none" xmlns="http://www.w3.org/2000/svg">
<rect y="0.5" width="57" height="57" rx="8" fill="#438342"/>
<path d="M14.2247 48.9358C13.0629 48.9358 12.0683 48.5179 11.241 47.682C10.4137 46.8461 10 45.8413 10 44.6674V14.7887C10 13.6149 10.4137 12.61 11.241 11.7741C12.0683 10.9382 13.0629 10.5203 14.2247 10.5203H43.7975C44.9593 10.5203 45.9539 10.9382 46.7812 11.7741C47.6086 12.61 48.0222 13.6149 48.0222 14.7887V44.6674C48.0222 45.8413 47.6086 46.8461 46.7812 47.682C45.9539 48.5179 44.9593 48.9358 43.7975 48.9358H14.2247ZM18.4494 40.3991H22.6741V19.0571H18.4494V40.3991ZM35.3481 36.1307H39.5728V19.0571H35.3481V36.1307ZM26.8988 29.7281H31.1235V19.0571H26.8988V29.7281Z" fill="white"/>
</svg>
