<svg width="57" height="58" viewBox="0 0 57 58" fill="none" xmlns="http://www.w3.org/2000/svg">
<rect y="0.5" width="57" height="57" rx="8" fill="#E98427"/>
<path d="M17.2222 43.7625C16.3361 43.7625 15.5775 43.4333 14.9465 42.7748C14.3155 42.1163 14 41.3247 14 40.4V16.8625C14 15.9378 14.3155 15.1462 14.9465 14.4877C15.5775 13.8292 16.3361 13.5 17.2222 13.5H39.7778C40.6639 13.5 41.4225 13.8292 42.0535 14.4877C42.6845 15.1462 43 15.9378 43 16.8625V40.4C43 41.3247 42.6845 42.1163 42.0535 42.7748C41.4225 43.4333 40.6639 43.7625 39.7778 43.7625H17.2222ZM17.2222 40.4H22.4583V32.8344H22.0556C21.5991 32.8344 21.2164 32.6733 20.9076 32.351C20.5988 32.0288 20.4444 31.6295 20.4444 31.1531V16.8625H17.2222V40.4ZM34.5417 40.4H39.7778V16.8625H36.5556V31.1531C36.5556 31.6295 36.4012 32.0288 36.0924 32.351C35.7836 32.6733 35.4009 32.8344 34.9444 32.8344H34.5417V40.4ZM24.875 40.4H32.125V32.8344H31.7222C31.2657 32.8344 30.8831 32.6733 30.5743 32.351C30.2655 32.0288 30.1111 31.6295 30.1111 31.1531V16.8625H26.8889V31.1531C26.8889 31.6295 26.7345 32.0288 26.4257 32.351C26.1169 32.6733 25.7343 32.8344 25.2778 32.8344H24.875V40.4Z" fill="white"/>
</svg>
