<svg width="271" height="204" viewBox="0 0 271 204" fill="none" xmlns="http://www.w3.org/2000/svg">
<g filter="url(#filter0_d_5429_62277)">
<path d="M260.903 77.1196C258.009 77.8086 249.588 81.5232 247.637 85.2777C246.945 86.6101 248.319 87.7369 249.812 87.8933C253.792 88.3101 259.91 89.0791 256.396 90.6409C251.889 92.644 249.051 94.8141 247.382 94.6471" stroke="#F1DBFF" stroke-width="3"/>
<path d="M10.0095 94.147C12.9032 94.8359 21.325 98.5506 23.2751 102.305C23.9672 103.637 22.5941 104.764 21.1008 104.921C17.1207 105.337 11.0027 106.106 14.5166 107.668C19.0237 109.671 21.8615 111.841 23.5307 111.674" stroke="#F1DBFF" stroke-width="3"/>
<circle cx="2.50393" cy="2.50393" r="2.50393" transform="matrix(-1 0 0 1 262.906 97.1515)" fill="#F1DBFF"/>
<circle cx="10.5103" cy="116.683" r="2.50393" fill="#F1DBFF"/>
<path d="M266.913 108.668C254.894 108.668 249.886 109.67 248.884 110.171" stroke="#F1DBFF" stroke-width="3"/>
<path d="M4 125.697C16.0189 125.697 21.0267 126.698 22.0283 127.199" stroke="#F1DBFF" stroke-width="3"/>
<path d="M56.1587 134.893C44.1345 97.4883 87.3606 68.1356 108.404 58.7025L112.758 56.5256C112.758 52.1718 98.148 32.5511 121.685 24.0377C136.515 18.6738 141.716 21.0329 146.223 28.0441L156.295 47.8182L160.649 49.995C170.261 33.5528 172.515 30.4013 188.29 38.5606C202.812 46.0724 201.284 56.5256 197.656 60.8794L191.125 69.5869C205.057 78.2944 214.345 93.5326 217.248 100.063C219.607 105.37 231.569 124.128 212.894 156.662C194.256 189.133 147.588 194.565 121.465 191.492C100.65 189.043 67.9964 171.718 56.1587 134.893Z" fill="#E9BB17" stroke="#E9BB17"/>
<path d="M134.627 167.365C87.6065 165.624 62.2405 137.341 53.533 126.457C55.7098 146.049 63.7886 182.379 110.681 191.311C166.935 202.026 188.227 188.426 210.818 163.012C228.233 143.42 226.349 116.828 220.544 105.218C212.562 126.261 181.648 169.107 134.627 167.365Z" fill="#DEB41D" stroke="#D9AF1C" stroke-width="0.2"/>
<circle cx="108.504" cy="104.235" r="28.2994" fill="white"/>
<circle cx="165.103" cy="104.235" r="28.2994" fill="white"/>
<path d="M121.853 106.411C122.896 106.411 123.757 107.261 123.606 108.294C123.451 109.361 123.163 110.408 122.748 111.409C122.092 112.994 121.13 114.433 119.917 115.646C118.704 116.859 117.264 117.821 115.68 118.478C114.095 119.134 112.397 119.472 110.681 119.472C108.966 119.472 107.268 119.134 105.683 118.478C104.098 117.821 102.659 116.859 101.446 115.646C100.233 114.433 99.2707 112.994 98.6143 111.409C98.1997 110.408 97.9122 109.361 97.7566 108.294C97.6061 107.261 98.4663 106.411 99.5102 106.411C100.554 106.411 101.381 107.265 101.592 108.288C101.71 108.859 101.882 109.42 102.107 109.962C102.573 111.088 103.257 112.111 104.119 112.973C104.98 113.835 106.004 114.519 107.13 114.985C108.256 115.452 109.463 115.692 110.681 115.692C111.9 115.692 113.107 115.452 114.233 114.985C115.359 114.519 116.382 113.835 117.244 112.973C118.106 112.111 118.79 111.088 119.256 109.962C119.481 109.42 119.653 108.859 119.771 108.288C119.982 107.265 120.809 106.411 121.853 106.411Z" fill="#292626"/>
<path d="M178.451 106.411C179.495 106.411 180.355 107.261 180.205 108.294C180.049 109.361 179.762 110.408 179.347 111.409C178.691 112.994 177.729 114.433 176.516 115.646C175.303 116.859 173.863 117.821 172.278 118.478C170.694 119.134 168.995 119.472 167.28 119.472C165.565 119.472 163.866 119.134 162.282 118.478C160.697 117.821 159.257 116.859 158.044 115.646C156.831 114.433 155.869 112.994 155.213 111.409C154.798 110.408 154.511 109.361 154.355 108.294C154.205 107.261 155.065 106.411 156.109 106.411C157.153 106.411 157.979 107.265 158.191 108.288C158.309 108.859 158.481 109.42 158.705 109.962C159.172 111.088 159.855 112.111 160.717 112.973C161.579 113.835 162.602 114.519 163.728 114.985C164.854 115.452 166.061 115.692 167.28 115.692C168.499 115.692 169.706 115.452 170.832 114.985C171.958 114.519 172.981 113.835 173.843 112.973C174.705 112.111 175.388 111.088 175.855 109.962C176.079 109.42 176.251 108.859 176.369 108.288C176.581 107.265 177.407 106.411 178.451 106.411Z" fill="#292626"/>
<path d="M244.492 100.977L240.286 101.13L240.593 109.542L240.977 120.057L245.183 119.903C246.681 114.795 245.346 105.157 244.492 100.977Z" fill="#C5A5F3" stroke="#75C973" stroke-width="0.2"/>
<path d="M31.5787 136.124L35.7847 135.971L35.4776 127.559L35.0937 117.044L30.8878 117.197C29.3896 122.306 30.7242 131.944 31.5787 136.124Z" fill="#C5A5F3" stroke="#75C973" stroke-width="0.2"/>
<path d="M50.5401 97.7337L56.9689 150.984L40.4022 147.902C38.1642 144.781 33.8846 132.179 34.6699 106.735L42.605 102.234L38.0599 57.2485C63.1506 27.0589 134.767 -19.4216 220.507 36.1731L225.21 82.7283L235.495 85.9166C238.344 91.6177 243.187 108.073 239.776 128.287L224.055 133.574L218.734 80.2947L225.21 82.7283L220.507 36.1731C134.767 -19.4216 63.1506 27.0589 38.0599 57.2485L42.605 102.234L50.5401 97.7337Z" fill="#6F219E"/>
<path d="M42.605 102.234L34.6699 106.735C33.8846 132.179 38.1642 144.781 40.4022 147.902L56.9689 150.984L50.5401 97.7337L42.605 102.234ZM42.605 102.234L38.0599 57.2485C63.1506 27.0589 134.767 -19.4216 220.507 36.1731L225.21 82.7283M225.21 82.7283L218.734 80.2947L224.055 133.574L239.776 128.287C243.187 108.073 238.344 91.6177 235.495 85.9166L225.21 82.7283Z" stroke="#6F219E"/>
<path d="M42.718 146.283C40.2196 138.162 35.7859 119.246 38.0377 108.55" stroke="#C5A5F3"/>
<path d="M232.244 88.0574C234.452 96.565 238.165 116.318 235.347 127.267" stroke="#C5A5F3"/>
<path d="M119.181 148.232C125.604 154.279 142.009 162.744 156.239 148.232" stroke="black" stroke-linecap="round"/>
</g>
<defs>
<filter id="filter0_d_5429_62277" x="0" y="9.71375" width="270.913" height="193.385" filterUnits="userSpaceOnUse" color-interpolation-filters="sRGB">
<feFlood flood-opacity="0" result="BackgroundImageFix"/>
<feColorMatrix in="SourceAlpha" type="matrix" values="0 0 0 0 0 0 0 0 0 0 0 0 0 0 0 0 0 0 127 0" result="hardAlpha"/>
<feOffset dy="4"/>
<feGaussianBlur stdDeviation="2"/>
<feComposite in2="hardAlpha" operator="out"/>
<feColorMatrix type="matrix" values="0 0 0 0 0 0 0 0 0 0 0 0 0 0 0 0 0 0 0.25 0"/>
<feBlend mode="normal" in2="BackgroundImageFix" result="effect1_dropShadow_5429_62277"/>
<feBlend mode="normal" in="SourceGraphic" in2="effect1_dropShadow_5429_62277" result="shape"/>
</filter>
</defs>
</svg>
