<svg width="230" height="28" viewBox="0 0 230 28" fill="none" xmlns="http://www.w3.org/2000/svg">
<rect width="229.988" height="28" rx="14" fill="#601D86"/>
<rect x="35.988" y="19.4818" width="3.19761" height="10.9637" rx="1.5988" transform="rotate(180 35.988 19.4818)" fill="#734920"/>
<rect x="31.7905" y="20.4149" width="3.19761" height="12.8299" rx="1.5988" transform="rotate(180 31.7905 20.4149)" fill="#B457F5"/>
<rect x="27.5928" y="24.0306" width="3.19761" height="20.0613" rx="1.5988" transform="rotate(180 27.5928 24.0306)" fill="#E9BB18"/>
<rect x="23.3953" y="19.4818" width="3.19761" height="10.9637" rx="1.5988" transform="rotate(180 23.3953 19.4818)" fill="#438342"/>
<rect x="19.1975" y="21.2314" width="3.19761" height="14.4628" rx="1.5988" transform="rotate(180 19.1975 21.2314)" fill="#E98427"/>
<path d="M48.2185 10.9277L45.8982 18H44.0291L47.199 9.46875H48.3884L48.2185 10.9277ZM50.1462 18L47.8201 10.9277L47.6326 9.46875H48.8337L52.0212 18H50.1462ZM50.0408 14.8242V16.2012H45.5349V14.8242L50.0408 14.8242ZM56.4509 16.6172V9L58.1501 9V18H56.6208L56.4509 16.6172ZM52.4431 14.9063V14.7832C52.4431 14.2988 52.4978 13.8594 52.6072 13.4648C52.7166 13.0664 52.8767 12.7246 53.0876 12.4395C53.2986 12.1543 53.5583 11.9336 53.8669 11.7773C54.1755 11.6211 54.5271 11.543 54.9216 11.543C55.2927 11.543 55.6169 11.6211 55.8943 11.7773C56.1755 11.9336 56.4138 12.1563 56.6091 12.4453C56.8083 12.7305 56.9685 13.0684 57.0896 13.459C57.2107 13.8457 57.2986 14.2695 57.3533 14.7305V15C57.2986 15.4414 57.2107 15.8516 57.0896 16.2305C56.9685 16.6094 56.8083 16.9414 56.6091 17.2266C56.4138 17.5078 56.1755 17.7266 55.8943 17.8828C55.613 18.0391 55.2849 18.1172 54.9099 18.1172C54.5154 18.1172 54.1638 18.0371 53.8552 17.877C53.5505 17.7168 53.2927 17.4922 53.0818 17.2031C52.8748 16.9141 52.7166 16.5742 52.6072 16.1836C52.4978 15.793 52.4431 15.3672 52.4431 14.9063ZM54.1306 14.7832V14.9063C54.1306 15.168 54.1501 15.4121 54.1892 15.6387C54.2322 15.8652 54.3005 16.0664 54.3943 16.2422C54.4919 16.4141 54.6169 16.5488 54.7693 16.6465C54.9255 16.7402 55.115 16.7871 55.3376 16.7871C55.6267 16.7871 55.865 16.7227 56.0525 16.5938C56.24 16.4609 56.3826 16.2793 56.4802 16.0488C56.5818 15.8184 56.6404 15.5527 56.656 15.252V14.4844C56.6443 14.2383 56.6091 14.0176 56.5505 13.8223C56.4958 13.623 56.4138 13.4531 56.3044 13.3125C56.199 13.1719 56.0662 13.0625 55.906 12.9844C55.7498 12.9063 55.5642 12.8672 55.3494 12.8672C55.1306 12.8672 54.9431 12.918 54.7869 13.0195C54.6306 13.1172 54.5037 13.252 54.406 13.4238C54.3123 13.5957 54.2419 13.7988 54.1951 14.0332C54.1521 14.2637 54.1306 14.5137 54.1306 14.7832ZM61.156 13.043V18L59.4685 18V11.6602H61.0564L61.156 13.043ZM63.0662 11.6191L63.0369 13.1836C62.9548 13.1719 62.8552 13.1621 62.738 13.1543C62.6248 13.1426 62.5212 13.1367 62.4275 13.1367C62.1892 13.1367 61.9822 13.168 61.8064 13.2305C61.6345 13.2891 61.49 13.377 61.3728 13.4941C61.2595 13.6113 61.1736 13.7539 61.115 13.9219C61.0603 14.0898 61.0291 14.2813 61.0212 14.4961L60.6814 14.3906C60.6814 13.9805 60.7224 13.6035 60.8044 13.2598C60.8865 12.9121 61.0056 12.6094 61.1619 12.3516C61.322 12.0938 61.5173 11.8945 61.7478 11.7539C61.9783 11.6133 62.2419 11.543 62.5388 11.543C62.6326 11.543 62.7283 11.5508 62.8259 11.5664C62.9236 11.5781 63.0037 11.5957 63.0662 11.6191ZM65.6443 11.6602V18H63.9509V11.6602H65.6443ZM63.8455 10.0078C63.8455 9.76172 63.9314 9.55859 64.1033 9.39844C64.2751 9.23828 64.5056 9.1582 64.7947 9.1582C65.0798 9.1582 65.3083 9.23828 65.4802 9.39844C65.656 9.55859 65.7439 9.76172 65.7439 10.0078C65.7439 10.2539 65.656 10.457 65.4802 10.6172C65.3083 10.7773 65.0798 10.8574 64.7947 10.8574C64.5056 10.8574 64.2751 10.7773 64.1033 10.6172C63.9314 10.457 63.8455 10.2539 63.8455 10.0078ZM70.4607 16.5703V13.7461C70.4607 13.543 70.4275 13.3691 70.3611 13.2246C70.2947 13.0762 70.1912 12.9609 70.0505 12.8789C69.9138 12.7969 69.7361 12.7559 69.5173 12.7559C69.3298 12.7559 69.1677 12.7891 69.031 12.8555C68.8943 12.918 68.7888 13.0098 68.7146 13.1309C68.6404 13.248 68.6033 13.3867 68.6033 13.5469H66.9158C66.9158 13.2773 66.9783 13.0215 67.1033 12.7793C67.2283 12.5371 67.4099 12.3242 67.6482 12.1406C67.8865 11.9531 68.1697 11.8066 68.4978 11.7012C68.8298 11.5957 69.2009 11.543 69.6111 11.543C70.1033 11.543 70.5408 11.625 70.9236 11.7891C71.3064 11.9531 71.6072 12.1992 71.8259 12.5273C72.0486 12.8555 72.1599 13.2656 72.1599 13.7578V16.4707C72.1599 16.8184 72.1814 17.1035 72.2244 17.3262C72.2673 17.5449 72.3298 17.7363 72.4119 17.9004V18L70.7068 18C70.6248 17.8281 70.5623 17.6133 70.5193 17.3555C70.4802 17.0938 70.4607 16.832 70.4607 16.5703ZM70.6833 14.1387L70.6951 15.0938H69.7517C69.5291 15.0938 69.3357 15.1191 69.1716 15.1699C69.0076 15.2207 68.8728 15.293 68.7673 15.3867C68.6619 15.4766 68.5837 15.582 68.533 15.7031C68.4861 15.8242 68.4626 15.957 68.4626 16.1016C68.4626 16.2461 68.4958 16.377 68.5623 16.4941C68.6287 16.6074 68.7244 16.6973 68.8494 16.7637C68.9744 16.8262 69.1208 16.8574 69.2888 16.8574C69.5427 16.8574 69.7634 16.8066 69.9509 16.7051C70.1384 16.6035 70.283 16.4785 70.3845 16.3301C70.49 16.1816 70.5447 16.041 70.5486 15.9082L70.9939 16.623C70.9314 16.7832 70.8455 16.9492 70.7361 17.1211C70.6306 17.293 70.4958 17.4551 70.3318 17.6074C70.1677 17.7559 69.9705 17.8789 69.74 17.9766C69.5095 18.0703 69.2361 18.1172 68.9197 18.1172C68.5173 18.1172 68.1521 18.0371 67.824 17.877C67.4998 17.7129 67.2419 17.4883 67.0505 17.2031C66.863 16.9141 66.7693 16.5859 66.7693 16.2188C66.7693 15.8867 66.8318 15.5918 66.9568 15.334C67.0818 15.0762 67.2654 14.8594 67.5076 14.6836C67.7537 14.5039 68.0603 14.3691 68.4275 14.2793C68.7947 14.1855 69.2205 14.1387 69.7048 14.1387H70.6833ZM75.113 13.0137V18H73.4255V11.6602L75.0076 11.6602L75.113 13.0137ZM74.8669 14.6074H74.4099C74.4099 14.1387 74.4705 13.7168 74.5916 13.3418C74.7126 12.9629 74.8826 12.6406 75.1013 12.375C75.3201 12.1055 75.5798 11.9004 75.8806 11.7598C76.1853 11.6152 76.5251 11.543 76.9001 11.543C77.197 11.543 77.4685 11.5859 77.7146 11.6719C77.9607 11.7578 78.1716 11.8945 78.3474 12.082C78.5271 12.2695 78.6638 12.5176 78.7576 12.8262C78.8552 13.1348 78.9041 13.5117 78.9041 13.957V18H77.2048V13.9512C77.2048 13.6699 77.1658 13.4512 77.0876 13.2949C77.0095 13.1387 76.8943 13.0293 76.7419 12.9668C76.5935 12.9004 76.4099 12.8672 76.1912 12.8672C75.9646 12.8672 75.7673 12.9121 75.5994 13.002C75.4353 13.0918 75.2986 13.2168 75.1892 13.377C75.0837 13.5332 75.0037 13.7168 74.949 13.9277C74.8943 14.1387 74.8669 14.3652 74.8669 14.6074ZM86.6208 14.2559H84.4294L84.4177 13.0488H86.2576C86.5818 13.0488 86.8474 13.0078 87.0544 12.9258C87.2615 12.8398 87.4158 12.7168 87.5173 12.5566C87.6228 12.3926 87.6755 12.1934 87.6755 11.959C87.6755 11.6934 87.6248 11.4785 87.5232 11.3145C87.4255 11.1504 87.2712 11.0313 87.0603 10.957C86.8533 10.8828 86.5857 10.8457 86.2576 10.8457H85.0388V18H83.281V9.46875H86.2576C86.7537 9.46875 87.197 9.51563 87.5876 9.60938C87.9822 9.70313 88.3162 9.8457 88.5896 10.0371C88.863 10.2285 89.072 10.4707 89.2166 10.7637C89.3611 11.0527 89.4333 11.3965 89.4333 11.7949C89.4333 12.1465 89.3533 12.4707 89.1931 12.7676C89.0369 13.0645 88.7888 13.3066 88.449 13.4941C88.113 13.6816 87.6736 13.7852 87.1306 13.8047L86.6208 14.2559ZM86.5447 18H83.949L84.6345 16.6289H86.5447C86.8533 16.6289 87.1052 16.5801 87.3005 16.4824C87.4958 16.3809 87.6404 16.2441 87.7341 16.0723C87.8279 15.9004 87.8748 15.7031 87.8748 15.4805C87.8748 15.2305 87.8318 15.0137 87.7458 14.8301C87.6638 14.6465 87.531 14.5059 87.3474 14.4082C87.1638 14.3066 86.9216 14.2559 86.6208 14.2559H84.9275L84.9392 13.0488H87.0486L87.4529 13.5234C87.9724 13.5156 88.3904 13.6074 88.7068 13.7988C89.0271 13.9863 89.2595 14.2305 89.4041 14.5313C89.5525 14.832 89.6267 15.1543 89.6267 15.498C89.6267 16.0449 89.5076 16.5059 89.2693 16.8809C89.031 17.252 88.6814 17.5313 88.2205 17.7188C87.7634 17.9063 87.2048 18 86.5447 18ZM93.7576 18.1172C93.2654 18.1172 92.824 18.0391 92.4333 17.8828C92.0427 17.7227 91.7107 17.502 91.4373 17.2207C91.1677 16.9395 90.9607 16.6133 90.8162 16.2422C90.6716 15.8672 90.5994 15.4688 90.5994 15.0469V14.8125C90.5994 14.332 90.6677 13.8926 90.8044 13.4941C90.9412 13.0957 91.1365 12.75 91.3904 12.457C91.6482 12.1641 91.9607 11.9395 92.3279 11.7832C92.6951 11.623 93.1091 11.543 93.5701 11.543C94.0193 11.543 94.4177 11.6172 94.7654 11.7656C95.113 11.9141 95.4041 12.125 95.6384 12.3984C95.8767 12.6719 96.0564 13 96.1775 13.3828C96.2986 13.7617 96.3591 14.1836 96.3591 14.6484V15.3516L91.3201 15.3516V14.2266L94.7009 14.2266V14.0977C94.7009 13.8633 94.658 13.6543 94.572 13.4707C94.49 13.2832 94.365 13.1348 94.197 13.0254C94.0291 12.916 93.8142 12.8613 93.5525 12.8613C93.3298 12.8613 93.1384 12.9102 92.9783 13.0078C92.8181 13.1055 92.6873 13.2422 92.5857 13.418C92.488 13.5938 92.4138 13.8008 92.363 14.0391C92.3162 14.2734 92.2927 14.5313 92.2927 14.8125V15.0469C92.2927 15.3008 92.3279 15.5352 92.3982 15.75C92.4724 15.9648 92.5759 16.1504 92.7087 16.3066C92.8455 16.4629 93.0095 16.584 93.2009 16.6699C93.3962 16.7559 93.6169 16.7988 93.863 16.7988C94.1677 16.7988 94.4509 16.7402 94.7126 16.623C94.9783 16.502 95.2068 16.3203 95.3982 16.0781L96.2185 16.9688C96.0857 17.1602 95.9041 17.3438 95.6736 17.5195C95.447 17.6953 95.1736 17.8398 94.8533 17.9531C94.533 18.0625 94.1677 18.1172 93.7576 18.1172ZM99.0076 13.043V18H97.3201V11.6602H98.908L99.0076 13.043ZM100.918 11.6191L100.888 13.1836C100.806 13.1719 100.707 13.1621 100.59 13.1543C100.476 13.1426 100.373 13.1367 100.279 13.1367C100.041 13.1367 99.8337 13.168 99.658 13.2305C99.4861 13.2891 99.3416 13.377 99.2244 13.4941C99.1111 13.6113 99.0251 13.7539 98.9666 13.9219C98.9119 14.0898 98.8806 14.2813 98.8728 14.4961L98.533 14.3906C98.533 13.9805 98.574 13.6035 98.656 13.2598C98.738 12.9121 98.8572 12.6094 99.0134 12.3516C99.1736 12.0938 99.3689 11.8945 99.5994 11.7539C99.8298 11.6133 100.094 11.543 100.39 11.543C100.484 11.543 100.58 11.5508 100.677 11.5664C100.775 11.5781 100.855 11.5957 100.918 11.6191ZM104.515 18.1172C104.023 18.1172 103.582 18.0391 103.191 17.8828C102.801 17.7227 102.469 17.502 102.195 17.2207C101.926 16.9395 101.719 16.6133 101.574 16.2422C101.429 15.8672 101.357 15.4688 101.357 15.0469V14.8125C101.357 14.332 101.426 13.8926 101.562 13.4941C101.699 13.0957 101.894 12.75 102.148 12.457C102.406 12.1641 102.719 11.9395 103.086 11.7832C103.453 11.623 103.867 11.543 104.328 11.543C104.777 11.543 105.176 11.6172 105.523 11.7656C105.871 11.9141 106.162 12.125 106.396 12.3984C106.635 12.6719 106.814 13 106.935 13.3828C107.056 13.7617 107.117 14.1836 107.117 14.6484V15.3516L102.078 15.3516V14.2266L105.459 14.2266V14.0977C105.459 13.8633 105.416 13.6543 105.33 13.4707C105.248 13.2832 105.123 13.1348 104.955 13.0254C104.787 12.916 104.572 12.8613 104.31 12.8613C104.088 12.8613 103.896 12.9102 103.736 13.0078C103.576 13.1055 103.445 13.2422 103.344 13.418C103.246 13.5938 103.172 13.8008 103.121 14.0391C103.074 14.2734 103.051 14.5313 103.051 14.8125V15.0469C103.051 15.3008 103.086 15.5352 103.156 15.75C103.23 15.9648 103.334 16.1504 103.467 16.3066C103.603 16.4629 103.767 16.584 103.959 16.6699C104.154 16.7559 104.375 16.7988 104.621 16.7988C104.926 16.7988 105.209 16.7402 105.47 16.623C105.736 16.502 105.965 16.3203 106.156 16.0781L106.976 16.9688C106.844 17.1602 106.662 17.3438 106.431 17.5195C106.205 17.6953 105.931 17.8398 105.611 17.9531C105.291 18.0625 104.926 18.1172 104.515 18.1172ZM109.73 13.0137V18H108.043V11.6602H109.625L109.73 13.0137ZM109.484 14.6074H109.027C109.027 14.1387 109.088 13.7168 109.209 13.3418C109.33 12.9629 109.5 12.6406 109.719 12.375C109.937 12.1055 110.197 11.9004 110.498 11.7598C110.802 11.6152 111.142 11.543 111.517 11.543C111.814 11.543 112.086 11.5859 112.332 11.6719C112.578 11.7578 112.789 11.8945 112.965 12.082C113.144 12.2695 113.281 12.5176 113.375 12.8262C113.472 13.1348 113.521 13.5117 113.521 13.957V18H111.822V13.9512C111.822 13.6699 111.783 13.4512 111.705 13.2949C111.627 13.1387 111.511 13.0293 111.359 12.9668C111.211 12.9004 111.027 12.8672 110.808 12.8672C110.582 12.8672 110.385 12.9121 110.217 13.002C110.052 13.0918 109.916 13.2168 109.806 13.377C109.701 13.5332 109.621 13.7168 109.566 13.9277C109.511 14.1387 109.484 14.3652 109.484 14.6074ZM118.818 11.6602H120.347V17.7891C120.347 18.3672 120.219 18.8574 119.961 19.2598C119.707 19.666 119.351 19.9727 118.894 20.1797C118.437 20.3906 117.906 20.4961 117.301 20.4961C117.035 20.4961 116.754 20.4609 116.457 20.3906C116.164 20.3203 115.883 20.2109 115.613 20.0625C115.347 19.9141 115.125 19.7266 114.945 19.5L115.689 18.5039C115.885 18.7305 116.111 18.9063 116.369 19.0313C116.627 19.1602 116.912 19.2246 117.224 19.2246C117.529 19.2246 117.787 19.168 117.998 19.0547C118.209 18.9453 118.371 18.7832 118.484 18.5684C118.597 18.3574 118.654 18.1016 118.654 17.8008V13.125L118.818 11.6602ZM114.552 14.9063V14.7832C114.552 14.2988 114.611 13.8594 114.728 13.4648C114.849 13.0664 115.019 12.7246 115.238 12.4395C115.461 12.1543 115.73 11.9336 116.047 11.7773C116.363 11.6211 116.72 11.543 117.119 11.543C117.541 11.543 117.894 11.6211 118.179 11.7773C118.465 11.9336 118.699 12.1563 118.883 12.4453C119.066 12.7305 119.209 13.0684 119.31 13.459C119.416 13.8457 119.498 14.2695 119.556 14.7305V15C119.498 15.4414 119.41 15.8516 119.293 16.2305C119.176 16.6094 119.021 16.9414 118.83 17.2266C118.638 17.5078 118.4 17.7266 118.115 17.8828C117.834 18.0391 117.498 18.1172 117.107 18.1172C116.717 18.1172 116.363 18.0371 116.047 17.877C115.734 17.7168 115.467 17.4922 115.244 17.2031C115.021 16.9141 114.849 16.5742 114.728 16.1836C114.611 15.793 114.552 15.3672 114.552 14.9063ZM116.24 14.7832V14.9063C116.24 15.168 116.265 15.4121 116.316 15.6387C116.367 15.8652 116.445 16.0664 116.551 16.2422C116.66 16.4141 116.795 16.5488 116.955 16.6465C117.119 16.7402 117.312 16.7871 117.535 16.7871C117.844 16.7871 118.095 16.7227 118.291 16.5938C118.486 16.4609 118.633 16.2793 118.73 16.0488C118.828 15.8184 118.885 15.5527 118.9 15.252V14.4844C118.892 14.2383 118.859 14.0176 118.801 13.8223C118.742 13.623 118.66 13.4531 118.554 13.3125C118.449 13.1719 118.312 13.0625 118.144 12.9844C117.976 12.9063 117.777 12.8672 117.547 12.8672C117.324 12.8672 117.131 12.918 116.967 13.0195C116.806 13.1172 116.672 13.252 116.562 13.4238C116.457 13.5957 116.377 13.7988 116.322 14.0332C116.267 14.2637 116.24 14.5137 116.24 14.7832ZM125.41 16.4824V11.6602H127.097V18H125.51L125.41 16.4824ZM125.597 15.1816L126.095 15.1699C126.095 15.5918 126.047 15.9844 125.949 16.3477C125.851 16.707 125.705 17.0195 125.51 17.2852C125.314 17.5469 125.068 17.752 124.771 17.9004C124.474 18.0449 124.125 18.1172 123.722 18.1172C123.414 18.1172 123.129 18.0742 122.867 17.9883C122.609 17.8984 122.386 17.7598 122.199 17.5723C122.015 17.3809 121.871 17.1367 121.765 16.8398C121.664 16.5391 121.613 16.1777 121.613 15.7559V11.6602H123.301V15.7676C123.301 15.9551 123.322 16.1133 123.365 16.2422C123.412 16.3711 123.476 16.4766 123.558 16.5586C123.64 16.6406 123.736 16.6992 123.845 16.7344C123.959 16.7695 124.084 16.7871 124.22 16.7871C124.568 16.7871 124.842 16.7168 125.041 16.5762C125.244 16.4355 125.386 16.2441 125.469 16.002C125.554 15.7559 125.597 15.4824 125.597 15.1816ZM131.304 18.1172C130.812 18.1172 130.371 18.0391 129.98 17.8828C129.59 17.7227 129.258 17.502 128.984 17.2207C128.715 16.9395 128.508 16.6133 128.363 16.2422C128.219 15.8672 128.146 15.4688 128.146 15.0469V14.8125C128.146 14.332 128.215 13.8926 128.351 13.4941C128.488 13.0957 128.683 12.75 128.937 12.457C129.195 12.1641 129.508 11.9395 129.875 11.7832C130.242 11.623 130.656 11.543 131.117 11.543C131.566 11.543 131.965 11.6172 132.312 11.7656C132.66 11.9141 132.951 12.125 133.185 12.3984C133.424 12.6719 133.603 13 133.724 13.3828C133.845 13.7617 133.906 14.1836 133.906 14.6484V15.3516H128.867V14.2266H132.248V14.0977C132.248 13.8633 132.205 13.6543 132.119 13.4707C132.037 13.2832 131.912 13.1348 131.744 13.0254C131.576 12.916 131.361 12.8613 131.099 12.8613C130.877 12.8613 130.685 12.9102 130.525 13.0078C130.365 13.1055 130.234 13.2422 130.133 13.418C130.035 13.5938 129.961 13.8008 129.91 14.0391C129.863 14.2734 129.84 14.5313 129.84 14.8125V15.0469C129.84 15.3008 129.875 15.5352 129.945 15.75C130.019 15.9648 130.123 16.1504 130.256 16.3066C130.392 16.4629 130.556 16.584 130.748 16.6699C130.943 16.7559 131.164 16.7988 131.41 16.7988C131.715 16.7988 131.998 16.7402 132.26 16.623C132.525 16.502 132.754 16.3203 132.945 16.0781L133.765 16.9688C133.633 17.1602 133.451 17.3438 133.22 17.5195C132.994 17.6953 132.72 17.8398 132.4 17.9531C132.08 18.0625 131.715 18.1172 131.304 18.1172ZM136.554 13.043V18H134.867V11.6602H136.455L136.554 13.043ZM138.465 11.6191L138.435 13.1836C138.353 13.1719 138.254 13.1621 138.136 13.1543C138.023 13.1426 137.92 13.1367 137.826 13.1367C137.588 13.1367 137.381 13.168 137.205 13.2305C137.033 13.2891 136.888 13.377 136.771 13.4941C136.658 13.6113 136.572 13.7539 136.513 13.9219C136.459 14.0898 136.427 14.2813 136.42 14.4961L136.08 14.3906C136.08 13.9805 136.121 13.6035 136.203 13.2598C136.285 12.9121 136.404 12.6094 136.56 12.3516C136.72 12.0938 136.916 11.8945 137.146 11.7539C137.377 11.6133 137.64 11.543 137.937 11.543C138.031 11.543 138.127 11.5508 138.224 11.5664C138.322 11.5781 138.402 11.5957 138.465 11.6191ZM142.39 13.7344V13.5117C142.39 13.1211 142.515 12.8027 142.765 12.5566C143.015 12.3066 143.351 12.1816 143.773 12.1816C144.211 12.1816 144.552 12.3066 144.799 12.5566C145.049 12.8027 145.174 13.1211 145.174 13.5117V13.7344C145.174 14.1211 145.051 14.4375 144.804 14.6836C144.558 14.9297 144.219 15.0527 143.785 15.0527C143.359 15.0527 143.019 14.9297 142.765 14.6836C142.515 14.4375 142.39 14.1211 142.39 13.7344ZM155.14 16.6289V18H150.845V16.6289H155.14ZM151.414 9.46875V18H149.656V9.46875H151.414ZM157.824 11.6602V18H156.131V11.6602H157.824ZM156.025 10.0078C156.025 9.76172 156.111 9.55859 156.283 9.39844C156.455 9.23828 156.685 9.1582 156.974 9.1582C157.26 9.1582 157.488 9.23828 157.66 9.39844C157.836 9.55859 157.924 9.76172 157.924 10.0078C157.924 10.2539 157.836 10.457 157.66 10.6172C157.488 10.7773 157.26 10.8574 156.974 10.8574C156.685 10.8574 156.455 10.7773 156.283 10.6172C156.111 10.457 156.025 10.2539 156.025 10.0078ZM162.324 11.6602V12.8555L158.633 12.8555V11.6602H162.324ZM159.547 10.0957H161.234V16.0898C161.234 16.2734 161.258 16.4141 161.304 16.5117C161.355 16.6094 161.429 16.6777 161.527 16.7168C161.625 16.752 161.748 16.7695 161.896 16.7695C162.002 16.7695 162.095 16.7656 162.177 16.7578C162.263 16.7461 162.336 16.7344 162.394 16.7227L162.4 17.9648C162.256 18.0117 162.099 18.0488 161.931 18.0762C161.763 18.1035 161.578 18.1172 161.375 18.1172C161.004 18.1172 160.679 18.0566 160.402 17.9355C160.129 17.8105 159.918 17.6113 159.769 17.3379C159.621 17.0645 159.547 16.7051 159.547 16.2598V10.0957ZM166.39 11.6602V12.8555H162.699V11.6602L166.39 11.6602ZM163.613 10.0957H165.301V16.0898C165.301 16.2734 165.324 16.4141 165.371 16.5117C165.422 16.6094 165.496 16.6777 165.594 16.7168C165.691 16.752 165.814 16.7695 165.963 16.7695C166.068 16.7695 166.162 16.7656 166.244 16.7578C166.33 16.7461 166.402 16.7344 166.461 16.7227L166.467 17.9648C166.322 18.0117 166.166 18.0488 165.998 18.0762C165.83 18.1035 165.644 18.1172 165.441 18.1172C165.07 18.1172 164.746 18.0566 164.469 17.9355C164.195 17.8105 163.984 17.6113 163.836 17.3379C163.687 17.0645 163.613 16.7051 163.613 16.2598V10.0957ZM169.133 9V18H167.439V9L169.133 9ZM173.445 18.1172C172.953 18.1172 172.511 18.0391 172.121 17.8828C171.73 17.7227 171.398 17.502 171.125 17.2207C170.855 16.9395 170.648 16.6133 170.504 16.2422C170.359 15.8672 170.287 15.4688 170.287 15.0469V14.8125C170.287 14.332 170.355 13.8926 170.492 13.4941C170.629 13.0957 170.824 12.75 171.078 12.457C171.336 12.1641 171.648 11.9395 172.015 11.7832C172.383 11.623 172.797 11.543 173.258 11.543C173.707 11.543 174.105 11.6172 174.453 11.7656C174.801 11.9141 175.092 12.125 175.326 12.3984C175.564 12.6719 175.744 13 175.865 13.3828C175.986 13.7617 176.047 14.1836 176.047 14.6484V15.3516L171.008 15.3516V14.2266L174.388 14.2266V14.0977C174.388 13.8633 174.345 13.6543 174.26 13.4707C174.177 13.2832 174.052 13.1348 173.885 13.0254C173.717 12.916 173.502 12.8613 173.24 12.8613C173.017 12.8613 172.826 12.9102 172.666 13.0078C172.506 13.1055 172.375 13.2422 172.273 13.418C172.176 13.5938 172.101 13.8008 172.051 14.0391C172.004 14.2734 171.98 14.5313 171.98 14.8125V15.0469C171.98 15.3008 172.015 15.5352 172.086 15.75C172.16 15.9648 172.263 16.1504 172.396 16.3066C172.533 16.4629 172.697 16.584 172.888 16.6699C173.084 16.7559 173.304 16.7988 173.551 16.7988C173.855 16.7988 174.138 16.7402 174.4 16.623C174.666 16.502 174.894 16.3203 175.086 16.0781L175.906 16.9688C175.773 17.1602 175.592 17.3438 175.361 17.5195C175.135 17.6953 174.861 17.8398 174.541 17.9531C174.22 18.0625 173.855 18.1172 173.445 18.1172ZM183.101 11.6602V12.8555L179.41 12.8555V11.6602H183.101ZM180.324 10.0957H182.011V16.0898C182.011 16.2734 182.035 16.4141 182.082 16.5117C182.133 16.6094 182.207 16.6777 182.304 16.7168C182.402 16.752 182.525 16.7695 182.674 16.7695C182.779 16.7695 182.873 16.7656 182.955 16.7578C183.041 16.7461 183.113 16.7344 183.172 16.7227L183.177 17.9648C183.033 18.0117 182.877 18.0488 182.709 18.0762C182.541 18.1035 182.355 18.1172 182.152 18.1172C181.781 18.1172 181.457 18.0566 181.179 17.9355C180.906 17.8105 180.695 17.6113 180.547 17.3379C180.398 17.0645 180.324 16.7051 180.324 16.2598V10.0957ZM185.709 9V18H184.021V9L185.709 9ZM185.469 14.6074H185.006C185.01 14.166 185.068 13.7598 185.181 13.3887C185.295 13.0137 185.457 12.6895 185.668 12.416C185.879 12.1387 186.131 11.9238 186.424 11.7715C186.72 11.6191 187.049 11.543 187.408 11.543C187.72 11.543 188.004 11.5879 188.258 11.6777C188.515 11.7637 188.736 11.9043 188.92 12.0996C189.107 12.291 189.252 12.543 189.353 12.8555C189.455 13.168 189.506 13.5469 189.506 13.9922V18H187.806V13.9805C187.806 13.6992 187.765 13.4785 187.683 13.3184C187.605 13.1543 187.49 13.0391 187.338 12.9727C187.189 12.9023 187.006 12.8672 186.787 12.8672C186.545 12.8672 186.338 12.9121 186.166 13.002C185.998 13.0918 185.863 13.2168 185.761 13.377C185.66 13.5332 185.586 13.7168 185.539 13.9277C185.492 14.1387 185.469 14.3652 185.469 14.6074ZM192.57 11.6602V18H190.877V11.6602H192.57ZM190.771 10.0078C190.771 9.76172 190.857 9.55859 191.029 9.39844C191.201 9.23828 191.431 9.1582 191.72 9.1582C192.006 9.1582 192.234 9.23828 192.406 9.39844C192.582 9.55859 192.67 9.76172 192.67 10.0078C192.67 10.2539 192.582 10.457 192.406 10.6172C192.234 10.7773 192.006 10.8574 191.72 10.8574C191.431 10.8574 191.201 10.7773 191.029 10.6172C190.857 10.457 190.771 10.2539 190.771 10.0078ZM195.617 13.0137V18H193.929V11.6602H195.511L195.617 13.0137ZM195.371 14.6074H194.914C194.914 14.1387 194.974 13.7168 195.095 13.3418C195.217 12.9629 195.386 12.6406 195.605 12.375C195.824 12.1055 196.084 11.9004 196.385 11.7598C196.689 11.6152 197.029 11.543 197.404 11.543C197.701 11.543 197.972 11.5859 198.219 11.6719C198.465 11.7578 198.676 11.8945 198.851 12.082C199.031 12.2695 199.168 12.5176 199.261 12.8262C199.359 13.1348 199.408 13.5117 199.408 13.957V18H197.709V13.9512C197.709 13.6699 197.67 13.4512 197.592 13.2949C197.513 13.1387 197.398 13.0293 197.246 12.9668C197.097 12.9004 196.914 12.8672 196.695 12.8672C196.469 12.8672 196.271 12.9121 196.103 13.002C195.939 13.0918 195.802 13.2168 195.693 13.377C195.588 13.5332 195.508 13.7168 195.453 13.9277C195.398 14.1387 195.371 14.3652 195.371 14.6074ZM204.705 11.6602H206.234V17.7891C206.234 18.3672 206.105 18.8574 205.847 19.2598C205.594 19.666 205.238 19.9727 204.781 20.1797C204.324 20.3906 203.793 20.4961 203.187 20.4961C202.922 20.4961 202.64 20.4609 202.344 20.3906C202.051 20.3203 201.769 20.2109 201.5 20.0625C201.234 19.9141 201.011 19.7266 200.832 19.5L201.576 18.5039C201.771 18.7305 201.998 18.9063 202.256 19.0313C202.513 19.1602 202.799 19.2246 203.111 19.2246C203.416 19.2246 203.674 19.168 203.885 19.0547C204.095 18.9453 204.258 18.7832 204.371 18.5684C204.484 18.3574 204.541 18.1016 204.541 17.8008V13.125L204.705 11.6602ZM200.439 14.9063V14.7832C200.439 14.2988 200.498 13.8594 200.615 13.4648C200.736 13.0664 200.906 12.7246 201.125 12.4395C201.347 12.1543 201.617 11.9336 201.933 11.7773C202.25 11.6211 202.607 11.543 203.006 11.543C203.427 11.543 203.781 11.6211 204.066 11.7773C204.351 11.9336 204.586 12.1563 204.769 12.4453C204.953 12.7305 205.095 13.0684 205.197 13.459C205.302 13.8457 205.385 14.2695 205.443 14.7305V15C205.385 15.4414 205.297 15.8516 205.179 16.2305C205.062 16.6094 204.908 16.9414 204.717 17.2266C204.525 17.5078 204.287 17.7266 204.002 17.8828C203.72 18.0391 203.385 18.1172 202.994 18.1172C202.603 18.1172 202.25 18.0371 201.933 17.877C201.621 17.7168 201.353 17.4922 201.131 17.2031C200.908 16.9141 200.736 16.5742 200.615 16.1836C200.498 15.793 200.439 15.3672 200.439 14.9063ZM202.127 14.7832V14.9063C202.127 15.168 202.152 15.4121 202.203 15.6387C202.254 15.8652 202.332 16.0664 202.437 16.2422C202.547 16.4141 202.681 16.5488 202.842 16.6465C203.006 16.7402 203.199 16.7871 203.422 16.7871C203.73 16.7871 203.982 16.7227 204.177 16.5938C204.373 16.4609 204.519 16.2793 204.617 16.0488C204.715 15.8184 204.771 15.5527 204.787 15.252V14.4844C204.779 14.2383 204.746 14.0176 204.687 13.8223C204.629 13.623 204.547 13.4531 204.441 13.3125C204.336 13.1719 204.199 13.0625 204.031 12.9844C203.863 12.9063 203.664 12.8672 203.433 12.8672C203.211 12.8672 203.017 12.918 202.853 13.0195C202.693 13.1172 202.558 13.252 202.449 13.4238C202.344 13.5957 202.263 13.7988 202.209 14.0332C202.154 14.2637 202.127 14.5137 202.127 14.7832ZM210.974 16.248C210.974 16.127 210.939 16.0176 210.869 15.9199C210.799 15.8223 210.668 15.7324 210.476 15.6504C210.289 15.5645 210.017 15.4863 209.662 15.416C209.342 15.3457 209.043 15.2578 208.765 15.1523C208.492 15.043 208.254 14.9121 208.051 14.7598C207.851 14.6074 207.695 14.4277 207.582 14.2207C207.469 14.0098 207.412 13.7695 207.412 13.5C207.412 13.2344 207.469 12.9844 207.582 12.75C207.699 12.5156 207.865 12.3086 208.08 12.1289C208.299 11.9453 208.564 11.8027 208.877 11.7012C209.193 11.5957 209.549 11.543 209.943 11.543C210.494 11.543 210.967 11.6309 211.361 11.8066C211.76 11.9824 212.064 12.2246 212.275 12.5332C212.49 12.8379 212.597 13.1855 212.597 13.5762H210.91C210.91 13.4121 210.875 13.2656 210.804 13.1367C210.738 13.0039 210.633 12.9004 210.488 12.8262C210.347 12.748 210.164 12.709 209.937 12.709C209.75 12.709 209.588 12.7422 209.451 12.8086C209.314 12.8711 209.209 12.957 209.135 13.0664C209.064 13.1719 209.029 13.2891 209.029 13.418C209.029 13.5156 209.049 13.6035 209.088 13.6816C209.131 13.7559 209.199 13.8242 209.293 13.8867C209.386 13.9492 209.508 14.0078 209.656 14.0625C209.808 14.1133 209.996 14.1602 210.219 14.2031C210.676 14.2969 211.084 14.4199 211.443 14.5723C211.802 14.7207 212.088 14.9238 212.299 15.1816C212.51 15.4355 212.615 15.7695 212.615 16.1836C212.615 16.4648 212.552 16.7227 212.427 16.957C212.302 17.1914 212.123 17.3965 211.888 17.5723C211.654 17.7441 211.373 17.8789 211.045 17.9766C210.72 18.0703 210.355 18.1172 209.949 18.1172C209.359 18.1172 208.859 18.0117 208.449 17.8008C208.043 17.5898 207.734 17.3223 207.523 16.998C207.316 16.6699 207.213 16.334 207.213 15.9902H208.812C208.82 16.2207 208.879 16.4063 208.988 16.5469C209.101 16.6875 209.244 16.7891 209.416 16.8516C209.592 16.9141 209.781 16.9453 209.984 16.9453C210.203 16.9453 210.385 16.916 210.529 16.8574C210.674 16.7949 210.783 16.7129 210.857 16.6113C210.935 16.5059 210.974 16.3848 210.974 16.248Z" fill="white"/>
</svg>
