<svg width="25" height="24" viewBox="0 0 25 24" fill="none" xmlns="http://www.w3.org/2000/svg">
<path d="M7 16C7.78333 16 8.54583 16.0875 9.2875 16.2625C10.0292 16.4375 10.7667 16.7 11.5 17.05V7.2C10.8167 6.8 10.0917 6.5 9.325 6.3C8.55833 6.1 7.78333 6 7 6C6.4 6 5.80417 6.05833 5.2125 6.175C4.62083 6.29167 4.05 6.46667 3.5 6.7V16.6C4.08333 16.4 4.6625 16.25 5.2375 16.15C5.8125 16.05 6.4 16 7 16ZM13.5 17.05C14.2333 16.7 14.9708 16.4375 15.7125 16.2625C16.4542 16.0875 17.2167 16 18 16C18.6 16 19.1875 16.05 19.7625 16.15C20.3375 16.25 20.9167 16.4 21.5 16.6V6.7C20.95 6.46667 20.3792 6.29167 19.7875 6.175C19.1958 6.05833 18.6 6 18 6C17.2167 6 16.4417 6.1 15.675 6.3C14.9083 6.5 14.1833 6.8 13.5 7.2V17.05ZM12.5 19.475C12.2667 19.475 12.0458 19.4458 11.8375 19.3875C11.6292 19.3292 11.4333 19.25 11.25 19.15C10.6 18.7667 9.91667 18.4792 9.2 18.2875C8.48333 18.0958 7.75 18 7 18C6.3 18 5.6125 18.0917 4.9375 18.275C4.2625 18.4583 3.61667 18.7167 3 19.05C2.65 19.2333 2.3125 19.225 1.9875 19.025C1.6625 18.825 1.5 18.5333 1.5 18.15V6.1C1.5 5.91667 1.54583 5.74167 1.6375 5.575C1.72917 5.40833 1.86667 5.28333 2.05 5.2C2.81667 4.8 3.61667 4.5 4.45 4.3C5.28333 4.1 6.13333 4 7 4C7.96667 4 8.9125 4.125 9.8375 4.375C10.7625 4.625 11.65 5 12.5 5.5C13.35 5 14.2375 4.625 15.1625 4.375C16.0875 4.125 17.0333 4 18 4C18.8667 4 19.7167 4.1 20.55 4.3C21.3833 4.5 22.1833 4.8 22.95 5.2C23.1333 5.28333 23.2708 5.40833 23.3625 5.575C23.4542 5.74167 23.5 5.91667 23.5 6.1V18.15C23.5 18.5333 23.3375 18.825 23.0125 19.025C22.6875 19.225 22.35 19.2333 22 19.05C21.3833 18.7167 20.7375 18.4583 20.0625 18.275C19.3875 18.0917 18.7 18 18 18C17.25 18 16.5167 18.0958 15.8 18.2875C15.0833 18.4792 14.4 18.7667 13.75 19.15C13.5667 19.25 13.3708 19.3292 13.1625 19.3875C12.9542 19.4458 12.7333 19.475 12.5 19.475Z" fill="#6F219E"/>
</svg>
