<svg width="25" height="24" viewBox="0 0 25 24" fill="none" xmlns="http://www.w3.org/2000/svg">
<path d="M16 16.9L17.4 15.5C17.5 15.4 17.55 15.2833 17.55 15.15C17.55 15.0167 17.5 14.9 17.4 14.8L14 11.375C14.0667 11.1917 14.1167 11.0083 14.15 10.825C14.1833 10.6417 14.2 10.4333 14.2 10.2C14.2 9.25 13.8625 8.4375 13.1875 7.7625C12.5125 7.0875 11.7 6.75 10.75 6.75C10.4667 6.75 10.1833 6.7875 9.9 6.8625C9.61667 6.9375 9.34167 7.04167 9.075 7.175L11.425 9.525L10.025 10.925L7.675 8.575C7.54167 8.84167 7.4375 9.11667 7.3625 9.4C7.2875 9.68333 7.25 9.96667 7.25 10.25C7.25 11.2 7.5875 12.0125 8.2625 12.6875C8.9375 13.3625 9.75 13.7 10.7 13.7C10.9167 13.7 11.1208 13.6833 11.3125 13.65C11.5042 13.6167 11.6917 13.5667 11.875 13.5L15.3 16.9C15.4 17 15.5167 17.05 15.65 17.05C15.7833 17.05 15.9 17 16 16.9ZM12.5 22C11.1167 22 9.81667 21.7375 8.6 21.2125C7.38333 20.6875 6.325 19.975 5.425 19.075C4.525 18.175 3.8125 17.1167 3.2875 15.9C2.7625 14.6833 2.5 13.3833 2.5 12C2.5 10.6167 2.7625 9.31667 3.2875 8.1C3.8125 6.88333 4.525 5.825 5.425 4.925C6.325 4.025 7.38333 3.3125 8.6 2.7875C9.81667 2.2625 11.1167 2 12.5 2C13.8833 2 15.1833 2.2625 16.4 2.7875C17.6167 3.3125 18.675 4.025 19.575 4.925C20.475 5.825 21.1875 6.88333 21.7125 8.1C22.2375 9.31667 22.5 10.6167 22.5 12C22.5 13.3833 22.2375 14.6833 21.7125 15.9C21.1875 17.1167 20.475 18.175 19.575 19.075C18.675 19.975 17.6167 20.6875 16.4 21.2125C15.1833 21.7375 13.8833 22 12.5 22ZM12.5 20C14.7333 20 16.625 19.225 18.175 17.675C19.725 16.125 20.5 14.2333 20.5 12C20.5 9.76667 19.725 7.875 18.175 6.325C16.625 4.775 14.7333 4 12.5 4C10.2667 4 8.375 4.775 6.825 6.325C5.275 7.875 4.5 9.76667 4.5 12C4.5 14.2333 5.275 16.125 6.825 17.675C8.375 19.225 10.2667 20 12.5 20Z" fill="#6F219E"/>
</svg>
