<svg width="25" height="24" viewBox="0 0 25 24" fill="none" xmlns="http://www.w3.org/2000/svg">
<path d="M14.5833 17C14 17 13.5069 16.7986 13.1042 16.3959C12.7014 15.9931 12.5 15.5 12.5 14.9167C12.5 14.3334 12.7014 13.8403 13.1042 13.4375C13.5069 13.0347 14 12.8334 14.5833 12.8334C15.1667 12.8334 15.6597 13.0347 16.0625 13.4375C16.4653 13.8403 16.6667 14.3334 16.6667 14.9167C16.6667 15.5 16.4653 15.9931 16.0625 16.3959C15.6597 16.7986 15.1667 17 14.5833 17ZM6.66667 20.3334C6.20833 20.3334 5.81597 20.1702 5.48958 19.8438C5.16319 19.5174 5 19.125 5 18.6667V7.00002C5 6.54169 5.16319 6.14933 5.48958 5.82294C5.81597 5.49655 6.20833 5.33335 6.66667 5.33335H7.5V3.66669H9.16667V5.33335H15.8333V3.66669H17.5V5.33335H18.3333C18.7917 5.33335 19.184 5.49655 19.5104 5.82294C19.8368 6.14933 20 6.54169 20 7.00002V18.6667C20 19.125 19.8368 19.5174 19.5104 19.8438C19.184 20.1702 18.7917 20.3334 18.3333 20.3334H6.66667ZM6.66667 18.6667H18.3333V10.3334H6.66667V18.6667ZM6.66667 8.66669H18.3333V7.00002H6.66667V8.66669Z" fill="#6F219E"/>
</svg>
