<svg width="71" height="59" viewBox="0 0 71 59" fill="none" xmlns="http://www.w3.org/2000/svg">
<path d="M5.70345 58.8673H64.3676C65.8796 58.8654 67.3293 58.2445 68.3985 57.141C69.4677 56.0374 70.0692 54.5412 70.071 52.9805V5.88673C70.0692 4.32605 69.4677 2.82984 68.3985 1.72628C67.3293 0.622712 65.8796 0.0018961 64.3676 0H5.70345C4.19137 0.0018961 2.74174 0.622712 1.67253 1.72628C0.603325 2.82984 0.00183707 4.32605 0 5.88673V52.9805C0.00183707 54.5412 0.603325 56.0374 1.67253 57.141C2.74174 58.2445 4.19137 58.8654 5.70345 58.8673ZM21.999 10.9325C22.9659 10.9325 23.9111 11.2284 24.715 11.7829C25.519 12.3373 26.1456 13.1253 26.5156 14.0473C26.8856 14.9693 26.9824 15.9839 26.7938 16.9626C26.6052 17.9414 26.1395 18.8405 25.4559 19.5462C24.7722 20.2518 23.9011 20.7324 22.9528 20.9271C22.0045 21.1218 21.0215 21.0218 20.1282 20.6399C19.2349 20.258 18.4714 19.6113 17.9343 18.7815C17.3971 17.9518 17.1104 16.9762 17.1104 15.9783C17.1104 14.6401 17.6255 13.3567 18.5423 12.4104C19.4591 11.4642 20.7025 10.9326 21.999 10.9325ZM10.4935 44.4691L22.1247 32.4657C22.5508 32.0256 23.0662 31.6886 23.6338 31.4791C24.2013 31.2695 24.8068 31.1926 25.4067 31.2539C26.0065 31.3152 26.5857 31.5131 27.1024 31.8335C27.6191 32.1538 28.0605 32.5885 28.3947 33.1063L32.0645 38.786L43.3964 25.7906C43.7789 25.3524 44.2462 25.002 44.7682 24.7621C45.2901 24.5222 45.855 24.398 46.4264 24.3977H46.4566C47.032 24.4025 47.5998 24.5328 48.1229 24.7803C48.6459 25.0277 49.1123 25.3865 49.4914 25.8333L59.6888 37.8629C60.1133 38.3669 60.3269 39.024 60.2829 39.6902C60.2389 40.3564 59.9408 40.9774 59.4541 41.4172C58.9673 41.8571 58.3314 42.0799 57.6858 42.0368C57.0402 41.9937 56.4375 41.6882 56.0096 41.1874L46.4169 29.8705L34.9972 42.9678C34.5816 43.4441 34.066 43.816 33.4899 44.0552C32.9138 44.2944 32.2923 44.3945 31.6729 44.3479C31.0536 44.3013 30.4527 44.1092 29.9163 43.7864C29.3798 43.4635 28.9219 43.0183 28.5776 42.4849L24.8778 36.7592L13.95 48.0366C13.4911 48.5068 12.8703 48.7702 12.2236 48.769C11.577 48.7677 10.9571 48.5021 10.4999 48.0301C10.0426 47.5581 9.78519 46.9184 9.78401 46.2509C9.78283 45.5835 10.0379 44.9428 10.4935 44.4691Z" fill="#F5E8FF"/>
</svg>