<svg width="18" height="18" viewBox="0 0 18 18" fill="none" xmlns="http://www.w3.org/2000/svg">
<path d="M9 16.5C7.9625 16.5 6.9875 16.3031 6.075 15.9094C5.1625 15.5156 4.36875 14.9812 3.69375 14.3062C3.01875 13.6312 2.48438 12.8375 2.09062 11.925C1.69688 11.0125 1.5 10.0375 1.5 9C1.5 7.9625 1.69688 6.9875 2.09062 6.075C2.48438 5.1625 3.01875 4.36875 3.69375 3.69375C4.36875 3.01875 5.1625 2.48438 6.075 2.09062C6.9875 1.69688 7.9625 1.5 9 1.5C10.0375 1.5 11.0125 1.69688 11.925 2.09062C12.8375 2.48438 13.6312 3.01875 14.3062 3.69375C14.9812 4.36875 15.5156 5.1625 15.9094 6.075C16.3031 6.9875 16.5 7.9625 16.5 9C16.5 10.0375 16.3031 11.0125 15.9094 11.925C15.5156 12.8375 14.9812 13.6312 14.3062 14.3062C13.6312 14.9812 12.8375 15.5156 11.925 15.9094C11.0125 16.3031 10.0375 16.5 9 16.5ZM9 15C10.6625 15 12.0781 14.4156 13.2469 13.2469C14.4156 12.0781 15 10.6625 15 9C15 7.3375 14.4156 5.92188 13.2469 4.75312C12.0781 3.58437 10.6625 3 9 3C7.3375 3 5.92188 3.58437 4.75312 4.75312C3.58437 5.92188 3 7.3375 3 9C3 10.6625 3.58437 12.0781 4.75312 13.2469C5.92188 14.4156 7.3375 15 9 15Z" fill="#AC7A22"/>
<path d="M9.55176 3.7627V5.20312H8.79004V3.7627H9.55176ZM9.45898 11.7363V13.0498H8.69727V11.7363H9.45898ZM9.99609 10.1348C9.99609 9.94922 9.96191 9.79134 9.89355 9.66113C9.82845 9.53092 9.72103 9.41536 9.57129 9.31445C9.4248 9.21354 9.22624 9.11589 8.97559 9.02148C8.55241 8.85872 8.17969 8.6862 7.85742 8.50391C7.53841 8.31836 7.28939 8.08887 7.11035 7.81543C6.93132 7.53874 6.8418 7.1888 6.8418 6.76562C6.8418 6.36198 6.93783 6.01204 7.12988 5.71582C7.32194 5.4196 7.58724 5.19173 7.92578 5.03223C8.26758 4.86947 8.66471 4.78809 9.11719 4.78809C9.46224 4.78809 9.77474 4.84017 10.0547 4.94434C10.3346 5.04525 10.5755 5.19499 10.7773 5.39355C10.9792 5.58887 11.1338 5.82812 11.2412 6.11133C11.3486 6.39453 11.4023 6.71842 11.4023 7.08301H10.001C10.001 6.8877 9.97982 6.71517 9.9375 6.56543C9.89518 6.41569 9.83333 6.29036 9.75195 6.18945C9.67383 6.08854 9.57943 6.01367 9.46875 5.96484C9.35807 5.91276 9.236 5.88672 9.10254 5.88672C8.90397 5.88672 8.74121 5.92578 8.61426 6.00391C8.4873 6.08203 8.39453 6.18783 8.33594 6.32129C8.2806 6.4515 8.25293 6.60124 8.25293 6.77051C8.25293 6.93652 8.28223 7.08138 8.34082 7.20508C8.40267 7.32878 8.50846 7.44271 8.6582 7.54688C8.80794 7.64779 9.01302 7.75195 9.27344 7.85938C9.69661 8.02214 10.0677 8.19792 10.3867 8.38672C10.7057 8.57552 10.9548 8.80664 11.1338 9.08008C11.3128 9.35352 11.4023 9.70182 11.4023 10.125C11.4023 10.5449 11.3047 10.903 11.1094 11.1992C10.9141 11.4922 10.6406 11.7168 10.2891 11.873C9.9375 12.026 9.5306 12.1025 9.06836 12.1025C8.76888 12.1025 8.47103 12.0635 8.1748 11.9854C7.87858 11.904 7.61003 11.7738 7.36914 11.5947C7.12826 11.4157 6.9362 11.1781 6.79297 10.8818C6.64974 10.5824 6.57812 10.2145 6.57812 9.77832H7.98438C7.98438 10.016 8.0153 10.2145 8.07715 10.374C8.139 10.5303 8.22038 10.6556 8.32129 10.75C8.42546 10.8411 8.54264 10.9062 8.67285 10.9453C8.80306 10.9844 8.9349 11.0039 9.06836 11.0039C9.27669 11.0039 9.44759 10.9665 9.58105 10.8916C9.71777 10.8167 9.82031 10.7142 9.88867 10.584C9.96029 10.4505 9.99609 10.3008 9.99609 10.1348Z" fill="#AC7A22"/>
</svg>
