<svg width="60" height="60" viewBox="0 0 60 60" fill="none" xmlns="http://www.w3.org/2000/svg">
<path d="M0 30C0 13.4274 13.4274 0 30 0C46.5726 0 60 13.4274 60 30C60 46.5726 46.5726 60 30 60C13.4274 60 0 46.5726 0 30ZM17.371 33.496L26.129 24.3629V46.4516C26.129 48.0605 27.4234 49.3548 29.0323 49.3548H30.9677C32.5766 49.3548 33.871 48.0605 33.871 46.4516V24.3629L42.629 33.496C43.754 34.6694 45.629 34.6935 46.7782 33.5444L48.0968 32.2137C49.2339 31.0766 49.2339 29.2379 48.0968 28.1129L32.0564 12.0605C30.9194 10.9234 29.0806 10.9234 27.9556 12.0605L11.8911 28.1129C10.754 29.25 10.754 31.0887 11.8911 32.2137L13.2097 33.5444C14.371 34.6935 16.246 34.6694 17.371 33.496Z" fill="#438342"/>
</svg>
