<svg width="20" height="20" viewBox="0 0 20 20" fill="none" xmlns="http://www.w3.org/2000/svg">
<path d="M8.79099 15.1678L13.1035 10.0012H9.77016L10.3743 5.272L6.52016 10.8345H9.41599L8.79099 15.1678ZM7.49932 12.5012H4.91599C4.58266 12.5012 4.33613 12.3519 4.17641 12.0533C4.01668 11.7546 4.03405 11.4664 4.22849 11.1887L10.4577 2.23034C10.5965 2.03589 10.7771 1.90048 10.9993 1.82409C11.2215 1.7477 11.4507 1.75117 11.6868 1.8345C11.9229 1.91784 12.0965 2.06367 12.2077 2.272C12.3188 2.48034 12.3604 2.70256 12.3327 2.93867L11.666 8.3345H14.8952C15.2563 8.3345 15.5097 8.49423 15.6556 8.81367C15.8014 9.13312 15.7563 9.43173 15.5202 9.7095L8.66599 17.9178C8.51321 18.0984 8.32571 18.2164 8.10349 18.272C7.88127 18.3276 7.66599 18.3067 7.45766 18.2095C7.24932 18.1123 7.08613 17.963 6.96807 17.7616C6.85002 17.5602 6.80488 17.3414 6.83266 17.1053L7.49932 12.5012Z" fill="#AC7A22"/>
</svg>
