<svg width="20" height="20" viewBox="0 0 20 20" fill="none" xmlns="http://www.w3.org/2000/svg">
<path d="M5.41732 13.3333C6.0701 13.3333 6.70551 13.4062 7.32357 13.552C7.94162 13.6978 8.55621 13.9166 9.16732 14.2083V5.99992C8.59787 5.66659 7.99371 5.41659 7.35482 5.24992C6.71593 5.08325 6.0701 4.99992 5.41732 4.99992C4.91732 4.99992 4.42079 5.04853 3.92773 5.14575C3.43468 5.24297 2.95898 5.38881 2.50065 5.58325V13.8333C2.98676 13.6666 3.4694 13.5416 3.94857 13.4583C4.42773 13.3749 4.91732 13.3333 5.41732 13.3333ZM10.834 14.2083C11.4451 13.9166 12.0597 13.6978 12.6777 13.552C13.2958 13.4062 13.9312 13.3333 14.584 13.3333C15.084 13.3333 15.5736 13.3749 16.0527 13.4583C16.5319 13.5416 17.0145 13.6666 17.5007 13.8333V5.58325C17.0423 5.38881 16.5666 5.24297 16.0736 5.14575C15.5805 5.04853 15.084 4.99992 14.584 4.99992C13.9312 4.99992 13.2854 5.08325 12.6465 5.24992C12.0076 5.41659 11.4034 5.66659 10.834 5.99992V14.2083ZM10.0007 16.2291C9.80621 16.2291 9.62218 16.2048 9.44857 16.1562C9.27496 16.1076 9.11176 16.0416 8.95898 15.9583C8.41732 15.6388 7.84787 15.3992 7.25065 15.2395C6.65343 15.0798 6.04232 14.9999 5.41732 14.9999C4.83398 14.9999 4.26107 15.0763 3.69857 15.2291C3.13607 15.3819 2.59787 15.5971 2.08398 15.8749C1.79232 16.0277 1.51107 16.0208 1.24023 15.8541C0.969401 15.6874 0.833984 15.4444 0.833984 15.1249V5.08325C0.833984 4.93047 0.872179 4.78464 0.948568 4.64575C1.02496 4.50686 1.13954 4.4027 1.29232 4.33325C1.93121 3.99992 2.59787 3.74992 3.29232 3.58325C3.98676 3.41659 4.6951 3.33325 5.41732 3.33325C6.22287 3.33325 7.01107 3.43742 7.7819 3.64575C8.55273 3.85409 9.29232 4.16659 10.0007 4.58325C10.709 4.16659 11.4486 3.85409 12.2194 3.64575C12.9902 3.43742 13.7784 3.33325 14.584 3.33325C15.3062 3.33325 16.0145 3.41659 16.709 3.58325C17.4034 3.74992 18.0701 3.99992 18.709 4.33325C18.8618 4.4027 18.9763 4.50686 19.0527 4.64575C19.1291 4.78464 19.1673 4.93047 19.1673 5.08325V15.1249C19.1673 15.4444 19.0319 15.6874 18.7611 15.8541C18.4902 16.0208 18.209 16.0277 17.9173 15.8749C17.4034 15.5971 16.8652 15.3819 16.3027 15.2291C15.7402 15.0763 15.1673 14.9999 14.584 14.9999C13.959 14.9999 13.3479 15.0798 12.7507 15.2395C12.1534 15.3992 11.584 15.6388 11.0423 15.9583C10.8895 16.0416 10.7263 16.1076 10.5527 16.1562C10.3791 16.2048 10.1951 16.2291 10.0007 16.2291Z" fill="#BC8212"/>
</svg>
