<svg width="16" height="16" viewBox="0 0 16 16" fill="none" xmlns="http://www.w3.org/2000/svg">
<path d="M5.73268 15L4.46602 12.8667L2.06602 12.3333L2.29935 9.86667L0.666016 8L2.29935 6.13333L2.06602 3.66667L4.46602 3.13333L5.73268 1L7.99935 1.96667L10.266 1L11.5327 3.13333L13.9327 3.66667L13.6993 6.13333L15.3327 8L13.6993 9.86667L13.9327 12.3333L11.5327 12.8667L10.266 15L7.99935 14.0333L5.73268 15ZM6.29935 13.3L7.99935 12.5667L9.73268 13.3L10.666 11.7L12.4993 11.2667L12.3327 9.4L13.566 8L12.3327 6.56667L12.4993 4.7L10.666 4.3L9.69935 2.7L7.99935 3.43333L6.26602 2.7L5.33268 4.3L3.49935 4.7L3.66602 6.56667L2.43268 8L3.66602 9.4L3.49935 11.3L5.33268 11.7L6.29935 13.3ZM7.29935 10.3667L11.066 6.6L10.1327 5.63333L7.29935 8.46667L5.86602 7.06667L4.93268 8L7.29935 10.3667Z" fill="#6A3D19"/>
</svg>
