<svg width="229" height="344" viewBox="0 0 229 344" fill="none" xmlns="http://www.w3.org/2000/svg">
<g filter="url(#filter0_d_5578_97535)">
<rect x="2" y="2" width="221" height="336" rx="12" fill="#FEF8EE" shape-rendering="crispEdges"/>
<rect width="221" height="56" transform="translate(2 2)" fill="#FEF8EE"/>
<path d="M23.5156 30.5391H20.4766V29.3125H23.5156C24.1042 29.3125 24.5807 29.2188 24.9453 29.0312C25.3099 28.8438 25.5755 28.5833 25.7422 28.25C25.9141 27.9167 26 27.5365 26 27.1094C26 26.7188 25.9141 26.3516 25.7422 26.0078C25.5755 25.6641 25.3099 25.388 24.9453 25.1797C24.5807 24.9661 24.1042 24.8594 23.5156 24.8594H20.8281V35H19.3203V23.625H23.5156C24.375 23.625 25.1016 23.7734 25.6953 24.0703C26.2891 24.3672 26.7396 24.7786 27.0469 25.3047C27.3542 25.8255 27.5078 26.4219 27.5078 27.0938C27.5078 27.8229 27.3542 28.4453 27.0469 28.9609C26.7396 29.4766 26.2891 29.8698 25.6953 30.1406C25.1016 30.4062 24.375 30.5391 23.5156 30.5391ZM30.6406 27.875V35H29.1953V26.5469H30.6016L30.6406 27.875ZM33.2812 26.5L33.2734 27.8438C33.1536 27.8177 33.0391 27.8021 32.9297 27.7969C32.8255 27.7865 32.7057 27.7812 32.5703 27.7812C32.237 27.7812 31.9427 27.8333 31.6875 27.9375C31.4323 28.0417 31.2161 28.1875 31.0391 28.375C30.862 28.5625 30.7214 28.7865 30.6172 29.0469C30.5182 29.3021 30.4531 29.5833 30.4219 29.8906L30.0156 30.125C30.0156 29.6146 30.0651 29.1354 30.1641 28.6875C30.2682 28.2396 30.4271 27.8438 30.6406 27.5C30.8542 27.151 31.125 26.8802 31.4531 26.6875C31.7865 26.4896 32.1823 26.3906 32.6406 26.3906C32.7448 26.3906 32.8646 26.4036 33 26.4297C33.1354 26.4505 33.2292 26.474 33.2812 26.5ZM34.0781 30.8672V30.6875C34.0781 30.0781 34.1667 29.513 34.3438 28.9922C34.5208 28.4661 34.776 28.0104 35.1094 27.625C35.4427 27.2344 35.8464 26.9323 36.3203 26.7188C36.7943 26.5 37.3255 26.3906 37.9141 26.3906C38.5078 26.3906 39.0417 26.5 39.5156 26.7188C39.9948 26.9323 40.401 27.2344 40.7344 27.625C41.0729 28.0104 41.3307 28.4661 41.5078 28.9922C41.6849 29.513 41.7734 30.0781 41.7734 30.6875V30.8672C41.7734 31.4766 41.6849 32.0417 41.5078 32.5625C41.3307 33.0833 41.0729 33.5391 40.7344 33.9297C40.401 34.3151 39.9974 34.6172 39.5234 34.8359C39.0547 35.0495 38.5234 35.1562 37.9297 35.1562C37.3359 35.1562 36.8021 35.0495 36.3281 34.8359C35.8542 34.6172 35.4479 34.3151 35.1094 33.9297C34.776 33.5391 34.5208 33.0833 34.3438 32.5625C34.1667 32.0417 34.0781 31.4766 34.0781 30.8672ZM35.5234 30.6875V30.8672C35.5234 31.2891 35.5729 31.6875 35.6719 32.0625C35.7708 32.4323 35.9193 32.7604 36.1172 33.0469C36.3203 33.3333 36.5729 33.5599 36.875 33.7266C37.1771 33.888 37.5286 33.9688 37.9297 33.9688C38.3255 33.9688 38.6719 33.888 38.9688 33.7266C39.2708 33.5599 39.5208 33.3333 39.7188 33.0469C39.9167 32.7604 40.0651 32.4323 40.1641 32.0625C40.2682 31.6875 40.3203 31.2891 40.3203 30.8672V30.6875C40.3203 30.2708 40.2682 29.8776 40.1641 29.5078C40.0651 29.1328 39.9141 28.8021 39.7109 28.5156C39.513 28.224 39.263 27.9948 38.9609 27.8281C38.6641 27.6615 38.3151 27.5781 37.9141 27.5781C37.5182 27.5781 37.1693 27.6615 36.8672 27.8281C36.5703 27.9948 36.3203 28.224 36.1172 28.5156C35.9193 28.8021 35.7708 29.1328 35.6719 29.5078C35.5729 29.8776 35.5234 30.2708 35.5234 30.6875ZM45.5156 35H44.0703V25.8125C44.0703 25.1719 44.1953 24.6302 44.4453 24.1875C44.6953 23.7448 45.0521 23.4089 45.5156 23.1797C45.9792 22.9505 46.5286 22.8359 47.1641 22.8359C47.5391 22.8359 47.9062 22.8828 48.2656 22.9766C48.625 23.0651 48.9948 23.1771 49.375 23.3125L49.1328 24.5312C48.8932 24.4375 48.6146 24.349 48.2969 24.2656C47.9844 24.1771 47.6406 24.1328 47.2656 24.1328C46.6458 24.1328 46.1979 24.2734 45.9219 24.5547C45.651 24.8307 45.5156 25.25 45.5156 25.8125V35ZM47.2422 26.5469V27.6562H42.7344V26.5469H47.2422ZM50.0859 26.5469V35H48.6406V26.5469H50.0859ZM54.0312 23V35H52.5781V23H54.0312ZM59.8594 35.1562C59.2708 35.1562 58.737 35.0573 58.2578 34.8594C57.7839 34.6562 57.375 34.3724 57.0312 34.0078C56.6927 33.6432 56.4323 33.2109 56.25 32.7109C56.0677 32.2109 55.9766 31.6641 55.9766 31.0703V30.7422C55.9766 30.0547 56.0781 29.4427 56.2812 28.9062C56.4844 28.3646 56.7604 27.9062 57.1094 27.5312C57.4583 27.1562 57.8542 26.8724 58.2969 26.6797C58.7396 26.487 59.1979 26.3906 59.6719 26.3906C60.276 26.3906 60.7969 26.4948 61.2344 26.7031C61.6771 26.9115 62.0391 27.2031 62.3203 27.5781C62.6016 27.9479 62.8099 28.3854 62.9453 28.8906C63.0807 29.3906 63.1484 29.9375 63.1484 30.5312V31.1797H56.8359V30H61.7031V29.8906C61.6823 29.5156 61.6042 29.151 61.4688 28.7969C61.3385 28.4427 61.1302 28.151 60.8438 27.9219C60.5573 27.6927 60.1667 27.5781 59.6719 27.5781C59.3438 27.5781 59.0417 27.6484 58.7656 27.7891C58.4896 27.9245 58.2526 28.1276 58.0547 28.3984C57.8568 28.6693 57.7031 29 57.5938 29.3906C57.4844 29.7812 57.4297 30.2318 57.4297 30.7422V31.0703C57.4297 31.4714 57.4844 31.849 57.5938 32.2031C57.7083 32.5521 57.8724 32.8594 58.0859 33.125C58.3047 33.3906 58.5677 33.599 58.875 33.75C59.1875 33.901 59.5417 33.9766 59.9375 33.9766C60.4479 33.9766 60.8802 33.8724 61.2344 33.6641C61.5885 33.4557 61.8984 33.1771 62.1641 32.8281L63.0391 33.5234C62.8568 33.7995 62.625 34.0625 62.3438 34.3125C62.0625 34.5625 61.7161 34.7656 61.3047 34.9219C60.8984 35.0781 60.4167 35.1562 59.8594 35.1562Z" fill="#1C1A1A"/>
<rect width="221" height="56" transform="translate(2 58)" fill="#FEF8EE"/>
<path d="M19.7969 79.625H21.2578L24.9844 88.8984L28.7031 79.625H30.1719L25.5469 91H24.4062L19.7969 79.625ZM19.3203 79.625H20.6094L20.8203 86.5625V91H19.3203V79.625ZM29.3516 79.625H30.6406V91H29.1406V86.5625L29.3516 79.625ZM36.5781 91.1562C35.9896 91.1562 35.4557 91.0573 34.9766 90.8594C34.5026 90.6562 34.0938 90.3724 33.75 90.0078C33.4115 89.6432 33.151 89.2109 32.9688 88.7109C32.7865 88.2109 32.6953 87.6641 32.6953 87.0703V86.7422C32.6953 86.0547 32.7969 85.4427 33 84.9062C33.2031 84.3646 33.4792 83.9062 33.8281 83.5312C34.1771 83.1562 34.5729 82.8724 35.0156 82.6797C35.4583 82.487 35.9167 82.3906 36.3906 82.3906C36.9948 82.3906 37.5156 82.4948 37.9531 82.7031C38.3958 82.9115 38.7578 83.2031 39.0391 83.5781C39.3203 83.9479 39.5286 84.3854 39.6641 84.8906C39.7995 85.3906 39.8672 85.9375 39.8672 86.5312V87.1797H33.5547V86H38.4219V85.8906C38.401 85.5156 38.3229 85.151 38.1875 84.7969C38.0573 84.4427 37.849 84.151 37.5625 83.9219C37.276 83.6927 36.8854 83.5781 36.3906 83.5781C36.0625 83.5781 35.7604 83.6484 35.4844 83.7891C35.2083 83.9245 34.9714 84.1276 34.7734 84.3984C34.5755 84.6693 34.4219 85 34.3125 85.3906C34.2031 85.7812 34.1484 86.2318 34.1484 86.7422V87.0703C34.1484 87.4714 34.2031 87.849 34.3125 88.2031C34.4271 88.5521 34.5911 88.8594 34.8047 89.125C35.0234 89.3906 35.2865 89.599 35.5938 89.75C35.9062 89.901 36.2604 89.9766 36.6562 89.9766C37.1667 89.9766 37.599 89.8724 37.9531 89.6641C38.3073 89.4557 38.6172 89.1771 38.8828 88.8281L39.7578 89.5234C39.5755 89.7995 39.3438 90.0625 39.0625 90.3125C38.7812 90.5625 38.4349 90.7656 38.0234 90.9219C37.6172 91.0781 37.1354 91.1562 36.5781 91.1562ZM42.9922 84.2266V91H41.5391V82.5469H42.9141L42.9922 84.2266ZM42.6953 86.4531L42.0234 86.4297C42.0286 85.8516 42.1042 85.3177 42.25 84.8281C42.3958 84.3333 42.612 83.9036 42.8984 83.5391C43.1849 83.1745 43.5417 82.8932 43.9688 82.6953C44.3958 82.4922 44.8906 82.3906 45.4531 82.3906C45.849 82.3906 46.2135 82.4479 46.5469 82.5625C46.8802 82.6719 47.1693 82.8464 47.4141 83.0859C47.6589 83.3255 47.849 83.6328 47.9844 84.0078C48.1198 84.3828 48.1875 84.8359 48.1875 85.3672V91H46.7422V85.4375C46.7422 84.9948 46.6667 84.6406 46.5156 84.375C46.3698 84.1094 46.1615 83.9167 45.8906 83.7969C45.6198 83.6719 45.3021 83.6094 44.9375 83.6094C44.5104 83.6094 44.1536 83.6849 43.8672 83.8359C43.5807 83.987 43.3516 84.1953 43.1797 84.4609C43.0078 84.7266 42.8828 85.0312 42.8047 85.375C42.7318 85.7135 42.6953 86.0729 42.6953 86.4531ZM48.1719 85.6562L47.2031 85.9531C47.2083 85.4896 47.2839 85.0443 47.4297 84.6172C47.5807 84.1901 47.7969 83.8099 48.0781 83.4766C48.3646 83.1432 48.7161 82.8802 49.1328 82.6875C49.5495 82.4896 50.026 82.3906 50.5625 82.3906C51.0156 82.3906 51.4167 82.4505 51.7656 82.5703C52.1198 82.6901 52.4167 82.875 52.6562 83.125C52.901 83.3698 53.0859 83.6849 53.2109 84.0703C53.3359 84.4557 53.3984 84.9141 53.3984 85.4453V91H51.9453V85.4297C51.9453 84.9557 51.8698 84.5885 51.7188 84.3281C51.5729 84.0625 51.3646 83.8776 51.0938 83.7734C50.8281 83.6641 50.5104 83.6094 50.1406 83.6094C49.8229 83.6094 49.5417 83.6641 49.2969 83.7734C49.0521 83.8828 48.8464 84.0339 48.6797 84.2266C48.513 84.4141 48.3854 84.6302 48.2969 84.875C48.2135 85.1198 48.1719 85.3802 48.1719 85.6562ZM55.5781 79H57.0312V89.3594L56.9062 91H55.5781V79ZM62.7422 86.7031V86.8672C62.7422 87.4818 62.6693 88.0521 62.5234 88.5781C62.3776 89.099 62.1641 89.5521 61.8828 89.9375C61.6016 90.3229 61.2578 90.6224 60.8516 90.8359C60.4453 91.0495 59.9792 91.1562 59.4531 91.1562C58.9167 91.1562 58.4453 91.0651 58.0391 90.8828C57.638 90.6953 57.2995 90.4271 57.0234 90.0781C56.7474 89.7292 56.526 89.3073 56.3594 88.8125C56.1979 88.3177 56.0859 87.7604 56.0234 87.1406V86.4219C56.0859 85.7969 56.1979 85.237 56.3594 84.7422C56.526 84.2474 56.7474 83.8255 57.0234 83.4766C57.2995 83.1224 57.638 82.8542 58.0391 82.6719C58.4401 82.4844 58.9062 82.3906 59.4375 82.3906C59.9688 82.3906 60.4401 82.4948 60.8516 82.7031C61.263 82.9062 61.6068 83.1979 61.8828 83.5781C62.1641 83.9583 62.3776 84.4141 62.5234 84.9453C62.6693 85.4714 62.7422 86.0573 62.7422 86.7031ZM61.2891 86.8672V86.7031C61.2891 86.2812 61.25 85.8854 61.1719 85.5156C61.0938 85.1406 60.9688 84.8125 60.7969 84.5312C60.625 84.2448 60.3984 84.0208 60.1172 83.8594C59.8359 83.6927 59.4896 83.6094 59.0781 83.6094C58.7135 83.6094 58.3958 83.6719 58.125 83.7969C57.8594 83.9219 57.6328 84.0911 57.4453 84.3047C57.2578 84.513 57.1042 84.7526 56.9844 85.0234C56.8698 85.2891 56.7839 85.5651 56.7266 85.8516V87.7344C56.8099 88.099 56.9453 88.4505 57.1328 88.7891C57.3255 89.1224 57.5807 89.3958 57.8984 89.6094C58.2214 89.8229 58.6198 89.9297 59.0938 89.9297C59.4844 89.9297 59.8177 89.8516 60.0938 89.6953C60.375 89.5339 60.6016 89.3125 60.7734 89.0312C60.9505 88.75 61.0807 88.4245 61.1641 88.0547C61.2474 87.6849 61.2891 87.2891 61.2891 86.8672ZM68.0781 91.1562C67.4896 91.1562 66.9557 91.0573 66.4766 90.8594C66.0026 90.6562 65.5938 90.3724 65.25 90.0078C64.9115 89.6432 64.651 89.2109 64.4688 88.7109C64.2865 88.2109 64.1953 87.6641 64.1953 87.0703V86.7422C64.1953 86.0547 64.2969 85.4427 64.5 84.9062C64.7031 84.3646 64.9792 83.9062 65.3281 83.5312C65.6771 83.1562 66.0729 82.8724 66.5156 82.6797C66.9583 82.487 67.4167 82.3906 67.8906 82.3906C68.4948 82.3906 69.0156 82.4948 69.4531 82.7031C69.8958 82.9115 70.2578 83.2031 70.5391 83.5781C70.8203 83.9479 71.0286 84.3854 71.1641 84.8906C71.2995 85.3906 71.3672 85.9375 71.3672 86.5312V87.1797H65.0547V86H69.9219V85.8906C69.901 85.5156 69.8229 85.151 69.6875 84.7969C69.5573 84.4427 69.349 84.151 69.0625 83.9219C68.776 83.6927 68.3854 83.5781 67.8906 83.5781C67.5625 83.5781 67.2604 83.6484 66.9844 83.7891C66.7083 83.9245 66.4714 84.1276 66.2734 84.3984C66.0755 84.6693 65.9219 85 65.8125 85.3906C65.7031 85.7812 65.6484 86.2318 65.6484 86.7422V87.0703C65.6484 87.4714 65.7031 87.849 65.8125 88.2031C65.9271 88.5521 66.0911 88.8594 66.3047 89.125C66.5234 89.3906 66.7865 89.599 67.0938 89.75C67.4062 89.901 67.7604 89.9766 68.1562 89.9766C68.6667 89.9766 69.099 89.8724 69.4531 89.6641C69.8073 89.4557 70.1172 89.1771 70.3828 88.8281L71.2578 89.5234C71.0755 89.7995 70.8438 90.0625 70.5625 90.3125C70.2812 90.5625 69.9349 90.7656 69.5234 90.9219C69.1172 91.0781 68.6354 91.1562 68.0781 91.1562ZM74.5 83.875V91H73.0547V82.5469H74.4609L74.5 83.875ZM77.1406 82.5L77.1328 83.8438C77.013 83.8177 76.8984 83.8021 76.7891 83.7969C76.6849 83.7865 76.5651 83.7812 76.4297 83.7812C76.0964 83.7812 75.8021 83.8333 75.5469 83.9375C75.2917 84.0417 75.0755 84.1875 74.8984 84.375C74.7214 84.5625 74.5807 84.7865 74.4766 85.0469C74.3776 85.3021 74.3125 85.5833 74.2812 85.8906L73.875 86.125C73.875 85.6146 73.9245 85.1354 74.0234 84.6875C74.1276 84.2396 74.2865 83.8438 74.5 83.5C74.7135 83.151 74.9844 82.8802 75.3125 82.6875C75.6458 82.4896 76.0417 82.3906 76.5 82.3906C76.6042 82.3906 76.724 82.4036 76.8594 82.4297C76.9948 82.4505 77.0885 82.474 77.1406 82.5ZM83.3984 88.7578C83.3984 88.5495 83.3516 88.3568 83.2578 88.1797C83.1693 87.9974 82.9844 87.8333 82.7031 87.6875C82.4271 87.5365 82.0104 87.4062 81.4531 87.2969C80.9844 87.1979 80.5599 87.0807 80.1797 86.9453C79.8047 86.8099 79.4844 86.6458 79.2188 86.4531C78.9583 86.2604 78.7578 86.0339 78.6172 85.7734C78.4766 85.513 78.4062 85.2083 78.4062 84.8594C78.4062 84.526 78.4792 84.2109 78.625 83.9141C78.776 83.6172 78.987 83.3542 79.2578 83.125C79.5339 82.8958 79.8646 82.7161 80.25 82.5859C80.6354 82.4557 81.0651 82.3906 81.5391 82.3906C82.2161 82.3906 82.7943 82.5104 83.2734 82.75C83.7526 82.9896 84.1198 83.3099 84.375 83.7109C84.6302 84.1068 84.7578 84.5469 84.7578 85.0312H83.3125C83.3125 84.7969 83.2422 84.5703 83.1016 84.3516C82.9661 84.1276 82.7656 83.9427 82.5 83.7969C82.2396 83.651 81.9193 83.5781 81.5391 83.5781C81.138 83.5781 80.8125 83.6406 80.5625 83.7656C80.3177 83.8854 80.138 84.0391 80.0234 84.2266C79.9141 84.4141 79.8594 84.612 79.8594 84.8203C79.8594 84.9766 79.8854 85.1172 79.9375 85.2422C79.9948 85.362 80.0938 85.474 80.2344 85.5781C80.375 85.6771 80.5729 85.7708 80.8281 85.8594C81.0833 85.9479 81.4089 86.0365 81.8047 86.125C82.4974 86.2812 83.0677 86.4688 83.5156 86.6875C83.9635 86.9062 84.2969 87.1745 84.5156 87.4922C84.7344 87.8099 84.8438 88.1953 84.8438 88.6484C84.8438 89.0182 84.7656 89.3568 84.6094 89.6641C84.4583 89.9714 84.237 90.237 83.9453 90.4609C83.6589 90.6797 83.3151 90.8516 82.9141 90.9766C82.5182 91.0964 82.0729 91.1562 81.5781 91.1562C80.8333 91.1562 80.2031 91.0234 79.6875 90.7578C79.1719 90.4922 78.7812 90.1484 78.5156 89.7266C78.25 89.3047 78.1172 88.8594 78.1172 88.3906H79.5703C79.5911 88.7865 79.7057 89.1016 79.9141 89.3359C80.1224 89.5651 80.3776 89.7292 80.6797 89.8281C80.9818 89.9219 81.2812 89.9688 81.5781 89.9688C81.974 89.9688 82.3047 89.9167 82.5703 89.8125C82.8411 89.7083 83.0469 89.5651 83.1875 89.3828C83.3281 89.2005 83.3984 88.9922 83.3984 88.7578ZM88.1875 79V91H86.7422V79H88.1875ZM87.8438 86.4531L87.2422 86.4297C87.2474 85.8516 87.3333 85.3177 87.5 84.8281C87.6667 84.3333 87.901 83.9036 88.2031 83.5391C88.5052 83.1745 88.8646 82.8932 89.2812 82.6953C89.7031 82.4922 90.1693 82.3906 90.6797 82.3906C91.0964 82.3906 91.4714 82.4479 91.8047 82.5625C92.138 82.6719 92.4219 82.849 92.6562 83.0938C92.8958 83.3385 93.0781 83.6562 93.2031 84.0469C93.3281 84.4323 93.3906 84.9036 93.3906 85.4609V91H91.9375V85.4453C91.9375 85.0026 91.8724 84.6484 91.7422 84.3828C91.612 84.112 91.4219 83.9167 91.1719 83.7969C90.9219 83.6719 90.6146 83.6094 90.25 83.6094C89.8906 83.6094 89.5625 83.6849 89.2656 83.8359C88.974 83.987 88.7214 84.1953 88.5078 84.4609C88.2995 84.7266 88.1354 85.0312 88.0156 85.375C87.901 85.7135 87.8438 86.0729 87.8438 86.4531ZM97.125 82.5469V91H95.6719V82.5469H97.125ZM95.5625 80.3047C95.5625 80.0703 95.6328 79.8724 95.7734 79.7109C95.9193 79.5495 96.1328 79.4688 96.4141 79.4688C96.6901 79.4688 96.901 79.5495 97.0469 79.7109C97.1979 79.8724 97.2734 80.0703 97.2734 80.3047C97.2734 80.5286 97.1979 80.7214 97.0469 80.8828C96.901 81.0391 96.6901 81.1172 96.4141 81.1172C96.1328 81.1172 95.9193 81.0391 95.7734 80.8828C95.6328 80.7214 95.5625 80.5286 95.5625 80.3047ZM100.891 84.1719V94.25H99.4375V82.5469H100.766L100.891 84.1719ZM106.586 86.7031V86.8672C106.586 87.4818 106.513 88.0521 106.367 88.5781C106.221 89.099 106.008 89.5521 105.727 89.9375C105.451 90.3229 105.109 90.6224 104.703 90.8359C104.297 91.0495 103.831 91.1562 103.305 91.1562C102.768 91.1562 102.294 91.0677 101.883 90.8906C101.471 90.7135 101.122 90.4557 100.836 90.1172C100.549 89.7786 100.32 89.3724 100.148 88.8984C99.9818 88.4245 99.8672 87.8906 99.8047 87.2969V86.4219C99.8672 85.7969 99.9844 85.237 100.156 84.7422C100.328 84.2474 100.555 83.8255 100.836 83.4766C101.122 83.1224 101.469 82.8542 101.875 82.6719C102.281 82.4844 102.75 82.3906 103.281 82.3906C103.812 82.3906 104.284 82.4948 104.695 82.7031C105.107 82.9062 105.453 83.1979 105.734 83.5781C106.016 83.9583 106.227 84.4141 106.367 84.9453C106.513 85.4714 106.586 86.0573 106.586 86.7031ZM105.133 86.8672V86.7031C105.133 86.2812 105.089 85.8854 105 85.5156C104.911 85.1406 104.773 84.8125 104.586 84.5312C104.404 84.2448 104.169 84.0208 103.883 83.8594C103.596 83.6927 103.255 83.6094 102.859 83.6094C102.495 83.6094 102.177 83.6719 101.906 83.7969C101.641 83.9219 101.414 84.0911 101.227 84.3047C101.039 84.513 100.885 84.7526 100.766 85.0234C100.651 85.2891 100.565 85.5651 100.508 85.8516V87.875C100.612 88.2396 100.758 88.5833 100.945 88.9062C101.133 89.224 101.383 89.4818 101.695 89.6797C102.008 89.8724 102.401 89.9688 102.875 89.9688C103.266 89.9688 103.602 89.888 103.883 89.7266C104.169 89.5599 104.404 89.3333 104.586 89.0469C104.773 88.7604 104.911 88.4323 105 88.0625C105.089 87.6875 105.133 87.2891 105.133 86.8672Z" fill="#1C1A1A"/>
<rect width="221" height="56" transform="translate(2 114)" fill="#FEF8EE"/>
<path d="M23.5156 142.539H20.4766V141.312H23.5156C24.1042 141.312 24.5807 141.219 24.9453 141.031C25.3099 140.844 25.5755 140.583 25.7422 140.25C25.9141 139.917 26 139.536 26 139.109C26 138.719 25.9141 138.352 25.7422 138.008C25.5755 137.664 25.3099 137.388 24.9453 137.18C24.5807 136.966 24.1042 136.859 23.5156 136.859H20.8281V147H19.3203V135.625H23.5156C24.375 135.625 25.1016 135.773 25.6953 136.07C26.2891 136.367 26.7396 136.779 27.0469 137.305C27.3542 137.826 27.5078 138.422 27.5078 139.094C27.5078 139.823 27.3542 140.445 27.0469 140.961C26.7396 141.477 26.2891 141.87 25.6953 142.141C25.1016 142.406 24.375 142.539 23.5156 142.539ZM34.0859 145.555V141.203C34.0859 140.87 34.0182 140.581 33.8828 140.336C33.7526 140.086 33.5547 139.893 33.2891 139.758C33.0234 139.622 32.6953 139.555 32.3047 139.555C31.9401 139.555 31.6198 139.617 31.3438 139.742C31.0729 139.867 30.8594 140.031 30.7031 140.234C30.5521 140.438 30.4766 140.656 30.4766 140.891H29.0312C29.0312 140.589 29.1094 140.289 29.2656 139.992C29.4219 139.695 29.6458 139.427 29.9375 139.188C30.2344 138.943 30.5885 138.75 31 138.609C31.4167 138.464 31.8802 138.391 32.3906 138.391C33.0052 138.391 33.5469 138.495 34.0156 138.703C34.4896 138.911 34.8594 139.227 35.125 139.648C35.3958 140.065 35.5312 140.589 35.5312 141.219V145.156C35.5312 145.438 35.5547 145.737 35.6016 146.055C35.6536 146.372 35.7292 146.646 35.8281 146.875V147H34.3203C34.2474 146.833 34.1901 146.612 34.1484 146.336C34.1068 146.055 34.0859 145.794 34.0859 145.555ZM34.3359 141.875L34.3516 142.891H32.8906C32.4792 142.891 32.112 142.924 31.7891 142.992C31.4661 143.055 31.1953 143.151 30.9766 143.281C30.7578 143.411 30.5911 143.576 30.4766 143.773C30.362 143.966 30.3047 144.193 30.3047 144.453C30.3047 144.719 30.3646 144.961 30.4844 145.18C30.6042 145.398 30.7839 145.573 31.0234 145.703C31.2682 145.828 31.5677 145.891 31.9219 145.891C32.3646 145.891 32.7552 145.797 33.0938 145.609C33.4323 145.422 33.7005 145.193 33.8984 144.922C34.1016 144.651 34.2109 144.388 34.2266 144.133L34.8438 144.828C34.8073 145.047 34.7083 145.289 34.5469 145.555C34.3854 145.82 34.1693 146.076 33.8984 146.32C33.6328 146.56 33.3151 146.76 32.9453 146.922C32.5807 147.078 32.1693 147.156 31.7109 147.156C31.138 147.156 30.6354 147.044 30.2031 146.82C29.776 146.596 29.4427 146.297 29.2031 145.922C28.9688 145.542 28.8516 145.117 28.8516 144.648C28.8516 144.195 28.9401 143.797 29.1172 143.453C29.2943 143.104 29.5495 142.815 29.8828 142.586C30.2161 142.352 30.6172 142.174 31.0859 142.055C31.5547 141.935 32.0781 141.875 32.6562 141.875H34.3359ZM40.0547 146.125L42.4062 138.547H43.9531L40.5625 148.305C40.4844 148.513 40.3802 148.737 40.25 148.977C40.125 149.221 39.9635 149.453 39.7656 149.672C39.5677 149.891 39.3281 150.068 39.0469 150.203C38.7708 150.344 38.4401 150.414 38.0547 150.414C37.9401 150.414 37.7943 150.398 37.6172 150.367C37.4401 150.336 37.3151 150.31 37.2422 150.289L37.2344 149.117C37.276 149.122 37.3411 149.128 37.4297 149.133C37.5234 149.143 37.5885 149.148 37.625 149.148C37.9531 149.148 38.2318 149.104 38.4609 149.016C38.6901 148.932 38.8828 148.789 39.0391 148.586C39.2005 148.388 39.3385 148.115 39.4531 147.766L40.0547 146.125ZM38.3281 138.547L40.5234 145.109L40.8984 146.633L39.8594 147.164L36.75 138.547H38.3281ZM46.6953 140.227V147H45.2422V138.547H46.6172L46.6953 140.227ZM46.3984 142.453L45.7266 142.43C45.7318 141.852 45.8073 141.318 45.9531 140.828C46.099 140.333 46.3151 139.904 46.6016 139.539C46.888 139.174 47.2448 138.893 47.6719 138.695C48.099 138.492 48.5938 138.391 49.1562 138.391C49.5521 138.391 49.9167 138.448 50.25 138.562C50.5833 138.672 50.8724 138.846 51.1172 139.086C51.362 139.326 51.5521 139.633 51.6875 140.008C51.8229 140.383 51.8906 140.836 51.8906 141.367V147H50.4453V141.438C50.4453 140.995 50.3698 140.641 50.2188 140.375C50.0729 140.109 49.8646 139.917 49.5938 139.797C49.3229 139.672 49.0052 139.609 48.6406 139.609C48.2135 139.609 47.8568 139.685 47.5703 139.836C47.2839 139.987 47.0547 140.195 46.8828 140.461C46.7109 140.727 46.5859 141.031 46.5078 141.375C46.4349 141.714 46.3984 142.073 46.3984 142.453ZM51.875 141.656L50.9062 141.953C50.9115 141.49 50.987 141.044 51.1328 140.617C51.2839 140.19 51.5 139.81 51.7812 139.477C52.0677 139.143 52.4193 138.88 52.8359 138.688C53.2526 138.49 53.7292 138.391 54.2656 138.391C54.7188 138.391 55.1198 138.451 55.4688 138.57C55.8229 138.69 56.1198 138.875 56.3594 139.125C56.6042 139.37 56.7891 139.685 56.9141 140.07C57.0391 140.456 57.1016 140.914 57.1016 141.445V147H55.6484V141.43C55.6484 140.956 55.5729 140.589 55.4219 140.328C55.276 140.062 55.0677 139.878 54.7969 139.773C54.5312 139.664 54.2135 139.609 53.8438 139.609C53.526 139.609 53.2448 139.664 53 139.773C52.7552 139.883 52.5495 140.034 52.3828 140.227C52.2161 140.414 52.0885 140.63 52 140.875C51.9167 141.12 51.875 141.38 51.875 141.656ZM62.7969 147.156C62.2083 147.156 61.6745 147.057 61.1953 146.859C60.7214 146.656 60.3125 146.372 59.9688 146.008C59.6302 145.643 59.3698 145.211 59.1875 144.711C59.0052 144.211 58.9141 143.664 58.9141 143.07V142.742C58.9141 142.055 59.0156 141.443 59.2188 140.906C59.4219 140.365 59.6979 139.906 60.0469 139.531C60.3958 139.156 60.7917 138.872 61.2344 138.68C61.6771 138.487 62.1354 138.391 62.6094 138.391C63.2135 138.391 63.7344 138.495 64.1719 138.703C64.6146 138.911 64.9766 139.203 65.2578 139.578C65.5391 139.948 65.7474 140.385 65.8828 140.891C66.0182 141.391 66.0859 141.938 66.0859 142.531V143.18H59.7734V142H64.6406V141.891C64.6198 141.516 64.5417 141.151 64.4062 140.797C64.276 140.443 64.0677 140.151 63.7812 139.922C63.4948 139.693 63.1042 139.578 62.6094 139.578C62.2812 139.578 61.9792 139.648 61.7031 139.789C61.4271 139.924 61.1901 140.128 60.9922 140.398C60.7943 140.669 60.6406 141 60.5312 141.391C60.4219 141.781 60.3672 142.232 60.3672 142.742V143.07C60.3672 143.471 60.4219 143.849 60.5312 144.203C60.6458 144.552 60.8099 144.859 61.0234 145.125C61.2422 145.391 61.5052 145.599 61.8125 145.75C62.125 145.901 62.4792 145.977 62.875 145.977C63.3854 145.977 63.8177 145.872 64.1719 145.664C64.526 145.456 64.8359 145.177 65.1016 144.828L65.9766 145.523C65.7943 145.799 65.5625 146.062 65.2812 146.312C65 146.562 64.6536 146.766 64.2422 146.922C63.8359 147.078 63.3542 147.156 62.7969 147.156ZM69.2188 140.352V147H67.7734V138.547H69.1406L69.2188 140.352ZM68.875 142.453L68.2734 142.43C68.2786 141.852 68.3646 141.318 68.5312 140.828C68.6979 140.333 68.9323 139.904 69.2344 139.539C69.5365 139.174 69.8958 138.893 70.3125 138.695C70.7344 138.492 71.2005 138.391 71.7109 138.391C72.1276 138.391 72.5026 138.448 72.8359 138.562C73.1693 138.672 73.4531 138.849 73.6875 139.094C73.9271 139.339 74.1094 139.656 74.2344 140.047C74.3594 140.432 74.4219 140.904 74.4219 141.461V147H72.9688V141.445C72.9688 141.003 72.9036 140.648 72.7734 140.383C72.6432 140.112 72.4531 139.917 72.2031 139.797C71.9531 139.672 71.6458 139.609 71.2812 139.609C70.9219 139.609 70.5938 139.685 70.2969 139.836C70.0052 139.987 69.7526 140.195 69.5391 140.461C69.3307 140.727 69.1667 141.031 69.0469 141.375C68.9323 141.714 68.875 142.073 68.875 142.453ZM80.1562 138.547V139.656H75.5859V138.547H80.1562ZM77.1328 136.492H78.5781V144.906C78.5781 145.193 78.6224 145.409 78.7109 145.555C78.7995 145.701 78.9141 145.797 79.0547 145.844C79.1953 145.891 79.3464 145.914 79.5078 145.914C79.6276 145.914 79.7526 145.904 79.8828 145.883C80.0182 145.857 80.1198 145.836 80.1875 145.82L80.1953 147C80.0807 147.036 79.9297 147.07 79.7422 147.102C79.5599 147.138 79.3385 147.156 79.0781 147.156C78.724 147.156 78.3984 147.086 78.1016 146.945C77.8047 146.805 77.5677 146.57 77.3906 146.242C77.2188 145.909 77.1328 145.461 77.1328 144.898V136.492ZM87.2578 140.227V147H85.8047V138.547H87.1797L87.2578 140.227ZM86.9609 142.453L86.2891 142.43C86.2943 141.852 86.3698 141.318 86.5156 140.828C86.6615 140.333 86.8776 139.904 87.1641 139.539C87.4505 139.174 87.8073 138.893 88.2344 138.695C88.6615 138.492 89.1562 138.391 89.7188 138.391C90.1146 138.391 90.4792 138.448 90.8125 138.562C91.1458 138.672 91.4349 138.846 91.6797 139.086C91.9245 139.326 92.1146 139.633 92.25 140.008C92.3854 140.383 92.4531 140.836 92.4531 141.367V147H91.0078V141.438C91.0078 140.995 90.9323 140.641 90.7812 140.375C90.6354 140.109 90.4271 139.917 90.1562 139.797C89.8854 139.672 89.5677 139.609 89.2031 139.609C88.776 139.609 88.4193 139.685 88.1328 139.836C87.8464 139.987 87.6172 140.195 87.4453 140.461C87.2734 140.727 87.1484 141.031 87.0703 141.375C86.9974 141.714 86.9609 142.073 86.9609 142.453ZM92.4375 141.656L91.4688 141.953C91.474 141.49 91.5495 141.044 91.6953 140.617C91.8464 140.19 92.0625 139.81 92.3438 139.477C92.6302 139.143 92.9818 138.88 93.3984 138.688C93.8151 138.49 94.2917 138.391 94.8281 138.391C95.2812 138.391 95.6823 138.451 96.0312 138.57C96.3854 138.69 96.6823 138.875 96.9219 139.125C97.1667 139.37 97.3516 139.685 97.4766 140.07C97.6016 140.456 97.6641 140.914 97.6641 141.445V147H96.2109V141.43C96.2109 140.956 96.1354 140.589 95.9844 140.328C95.8385 140.062 95.6302 139.878 95.3594 139.773C95.0938 139.664 94.776 139.609 94.4062 139.609C94.0885 139.609 93.8073 139.664 93.5625 139.773C93.3177 139.883 93.112 140.034 92.9453 140.227C92.7786 140.414 92.651 140.63 92.5625 140.875C92.4792 141.12 92.4375 141.38 92.4375 141.656ZM103.359 147.156C102.771 147.156 102.237 147.057 101.758 146.859C101.284 146.656 100.875 146.372 100.531 146.008C100.193 145.643 99.9323 145.211 99.75 144.711C99.5677 144.211 99.4766 143.664 99.4766 143.07V142.742C99.4766 142.055 99.5781 141.443 99.7812 140.906C99.9844 140.365 100.26 139.906 100.609 139.531C100.958 139.156 101.354 138.872 101.797 138.68C102.24 138.487 102.698 138.391 103.172 138.391C103.776 138.391 104.297 138.495 104.734 138.703C105.177 138.911 105.539 139.203 105.82 139.578C106.102 139.948 106.31 140.385 106.445 140.891C106.581 141.391 106.648 141.938 106.648 142.531V143.18H100.336V142H105.203V141.891C105.182 141.516 105.104 141.151 104.969 140.797C104.839 140.443 104.63 140.151 104.344 139.922C104.057 139.693 103.667 139.578 103.172 139.578C102.844 139.578 102.542 139.648 102.266 139.789C101.99 139.924 101.753 140.128 101.555 140.398C101.357 140.669 101.203 141 101.094 141.391C100.984 141.781 100.93 142.232 100.93 142.742V143.07C100.93 143.471 100.984 143.849 101.094 144.203C101.208 144.552 101.372 144.859 101.586 145.125C101.805 145.391 102.068 145.599 102.375 145.75C102.688 145.901 103.042 145.977 103.438 145.977C103.948 145.977 104.38 145.872 104.734 145.664C105.089 145.456 105.398 145.177 105.664 144.828L106.539 145.523C106.357 145.799 106.125 146.062 105.844 146.312C105.562 146.562 105.216 146.766 104.805 146.922C104.398 147.078 103.917 147.156 103.359 147.156ZM111.875 138.547V139.656H107.305V138.547H111.875ZM108.852 136.492H110.297V144.906C110.297 145.193 110.341 145.409 110.43 145.555C110.518 145.701 110.633 145.797 110.773 145.844C110.914 145.891 111.065 145.914 111.227 145.914C111.346 145.914 111.471 145.904 111.602 145.883C111.737 145.857 111.839 145.836 111.906 145.82L111.914 147C111.799 147.036 111.648 147.07 111.461 147.102C111.279 147.138 111.057 147.156 110.797 147.156C110.443 147.156 110.117 147.086 109.82 146.945C109.523 146.805 109.286 146.57 109.109 146.242C108.938 145.909 108.852 145.461 108.852 144.898V136.492ZM115.016 135V147H113.57V135H115.016ZM114.672 142.453L114.07 142.43C114.076 141.852 114.161 141.318 114.328 140.828C114.495 140.333 114.729 139.904 115.031 139.539C115.333 139.174 115.693 138.893 116.109 138.695C116.531 138.492 116.997 138.391 117.508 138.391C117.924 138.391 118.299 138.448 118.633 138.562C118.966 138.672 119.25 138.849 119.484 139.094C119.724 139.339 119.906 139.656 120.031 140.047C120.156 140.432 120.219 140.904 120.219 141.461V147H118.766V141.445C118.766 141.003 118.701 140.648 118.57 140.383C118.44 140.112 118.25 139.917 118 139.797C117.75 139.672 117.443 139.609 117.078 139.609C116.719 139.609 116.391 139.685 116.094 139.836C115.802 139.987 115.549 140.195 115.336 140.461C115.128 140.727 114.964 141.031 114.844 141.375C114.729 141.714 114.672 142.073 114.672 142.453ZM122 142.867V142.688C122 142.078 122.089 141.513 122.266 140.992C122.443 140.466 122.698 140.01 123.031 139.625C123.365 139.234 123.768 138.932 124.242 138.719C124.716 138.5 125.247 138.391 125.836 138.391C126.43 138.391 126.964 138.5 127.438 138.719C127.917 138.932 128.323 139.234 128.656 139.625C128.995 140.01 129.253 140.466 129.43 140.992C129.607 141.513 129.695 142.078 129.695 142.688V142.867C129.695 143.477 129.607 144.042 129.43 144.562C129.253 145.083 128.995 145.539 128.656 145.93C128.323 146.315 127.919 146.617 127.445 146.836C126.977 147.049 126.445 147.156 125.852 147.156C125.258 147.156 124.724 147.049 124.25 146.836C123.776 146.617 123.37 146.315 123.031 145.93C122.698 145.539 122.443 145.083 122.266 144.562C122.089 144.042 122 143.477 122 142.867ZM123.445 142.688V142.867C123.445 143.289 123.495 143.688 123.594 144.062C123.693 144.432 123.841 144.76 124.039 145.047C124.242 145.333 124.495 145.56 124.797 145.727C125.099 145.888 125.451 145.969 125.852 145.969C126.247 145.969 126.594 145.888 126.891 145.727C127.193 145.56 127.443 145.333 127.641 145.047C127.839 144.76 127.987 144.432 128.086 144.062C128.19 143.688 128.242 143.289 128.242 142.867V142.688C128.242 142.271 128.19 141.878 128.086 141.508C127.987 141.133 127.836 140.802 127.633 140.516C127.435 140.224 127.185 139.995 126.883 139.828C126.586 139.661 126.237 139.578 125.836 139.578C125.44 139.578 125.091 139.661 124.789 139.828C124.492 139.995 124.242 140.224 124.039 140.516C123.841 140.802 123.693 141.133 123.594 141.508C123.495 141.878 123.445 142.271 123.445 142.688ZM136.836 145.359V135H138.289V147H136.961L136.836 145.359ZM131.148 142.867V142.703C131.148 142.057 131.227 141.471 131.383 140.945C131.544 140.414 131.771 139.958 132.062 139.578C132.359 139.198 132.711 138.906 133.117 138.703C133.529 138.495 133.987 138.391 134.492 138.391C135.023 138.391 135.487 138.484 135.883 138.672C136.284 138.854 136.622 139.122 136.898 139.477C137.18 139.826 137.401 140.247 137.562 140.742C137.724 141.237 137.836 141.797 137.898 142.422V143.141C137.841 143.76 137.729 144.318 137.562 144.812C137.401 145.307 137.18 145.729 136.898 146.078C136.622 146.427 136.284 146.695 135.883 146.883C135.482 147.065 135.013 147.156 134.477 147.156C133.982 147.156 133.529 147.049 133.117 146.836C132.711 146.622 132.359 146.323 132.062 145.938C131.771 145.552 131.544 145.099 131.383 144.578C131.227 144.052 131.148 143.482 131.148 142.867ZM132.602 142.703V142.867C132.602 143.289 132.643 143.685 132.727 144.055C132.815 144.424 132.951 144.75 133.133 145.031C133.315 145.312 133.547 145.534 133.828 145.695C134.109 145.852 134.445 145.93 134.836 145.93C135.315 145.93 135.708 145.828 136.016 145.625C136.328 145.422 136.578 145.154 136.766 144.82C136.953 144.487 137.099 144.125 137.203 143.734V141.852C137.141 141.565 137.049 141.289 136.93 141.023C136.815 140.753 136.664 140.513 136.477 140.305C136.294 140.091 136.068 139.922 135.797 139.797C135.531 139.672 135.216 139.609 134.852 139.609C134.456 139.609 134.115 139.693 133.828 139.859C133.547 140.021 133.315 140.245 133.133 140.531C132.951 140.812 132.815 141.141 132.727 141.516C132.643 141.885 132.602 142.281 132.602 142.703ZM145.461 144.758C145.461 144.549 145.414 144.357 145.32 144.18C145.232 143.997 145.047 143.833 144.766 143.688C144.49 143.536 144.073 143.406 143.516 143.297C143.047 143.198 142.622 143.081 142.242 142.945C141.867 142.81 141.547 142.646 141.281 142.453C141.021 142.26 140.82 142.034 140.68 141.773C140.539 141.513 140.469 141.208 140.469 140.859C140.469 140.526 140.542 140.211 140.688 139.914C140.839 139.617 141.049 139.354 141.32 139.125C141.596 138.896 141.927 138.716 142.312 138.586C142.698 138.456 143.128 138.391 143.602 138.391C144.279 138.391 144.857 138.51 145.336 138.75C145.815 138.99 146.182 139.31 146.438 139.711C146.693 140.107 146.82 140.547 146.82 141.031H145.375C145.375 140.797 145.305 140.57 145.164 140.352C145.029 140.128 144.828 139.943 144.562 139.797C144.302 139.651 143.982 139.578 143.602 139.578C143.201 139.578 142.875 139.641 142.625 139.766C142.38 139.885 142.201 140.039 142.086 140.227C141.977 140.414 141.922 140.612 141.922 140.82C141.922 140.977 141.948 141.117 142 141.242C142.057 141.362 142.156 141.474 142.297 141.578C142.438 141.677 142.635 141.771 142.891 141.859C143.146 141.948 143.471 142.036 143.867 142.125C144.56 142.281 145.13 142.469 145.578 142.688C146.026 142.906 146.359 143.174 146.578 143.492C146.797 143.81 146.906 144.195 146.906 144.648C146.906 145.018 146.828 145.357 146.672 145.664C146.521 145.971 146.299 146.237 146.008 146.461C145.721 146.68 145.378 146.852 144.977 146.977C144.581 147.096 144.135 147.156 143.641 147.156C142.896 147.156 142.266 147.023 141.75 146.758C141.234 146.492 140.844 146.148 140.578 145.727C140.312 145.305 140.18 144.859 140.18 144.391H141.633C141.654 144.786 141.768 145.102 141.977 145.336C142.185 145.565 142.44 145.729 142.742 145.828C143.044 145.922 143.344 145.969 143.641 145.969C144.036 145.969 144.367 145.917 144.633 145.812C144.904 145.708 145.109 145.565 145.25 145.383C145.391 145.201 145.461 144.992 145.461 144.758Z" fill="#1C1A1A"/>
<rect width="221" height="56" transform="translate(2 170)" fill="#FEF8EE"/>
<path d="M28.0703 191.625V203H26.5547L20.8281 194.227V203H19.3203V191.625H20.8281L26.5781 200.422V191.625H28.0703ZM30.1406 198.867V198.688C30.1406 198.078 30.2292 197.513 30.4062 196.992C30.5833 196.466 30.8385 196.01 31.1719 195.625C31.5052 195.234 31.9089 194.932 32.3828 194.719C32.8568 194.5 33.388 194.391 33.9766 194.391C34.5703 194.391 35.1042 194.5 35.5781 194.719C36.0573 194.932 36.4635 195.234 36.7969 195.625C37.1354 196.01 37.3932 196.466 37.5703 196.992C37.7474 197.513 37.8359 198.078 37.8359 198.688V198.867C37.8359 199.477 37.7474 200.042 37.5703 200.562C37.3932 201.083 37.1354 201.539 36.7969 201.93C36.4635 202.315 36.0599 202.617 35.5859 202.836C35.1172 203.049 34.5859 203.156 33.9922 203.156C33.3984 203.156 32.8646 203.049 32.3906 202.836C31.9167 202.617 31.5104 202.315 31.1719 201.93C30.8385 201.539 30.5833 201.083 30.4062 200.562C30.2292 200.042 30.1406 199.477 30.1406 198.867ZM31.5859 198.688V198.867C31.5859 199.289 31.6354 199.688 31.7344 200.062C31.8333 200.432 31.9818 200.76 32.1797 201.047C32.3828 201.333 32.6354 201.56 32.9375 201.727C33.2396 201.888 33.5911 201.969 33.9922 201.969C34.388 201.969 34.7344 201.888 35.0312 201.727C35.3333 201.56 35.5833 201.333 35.7812 201.047C35.9792 200.76 36.1276 200.432 36.2266 200.062C36.3307 199.688 36.3828 199.289 36.3828 198.867V198.688C36.3828 198.271 36.3307 197.878 36.2266 197.508C36.1276 197.133 35.9766 196.802 35.7734 196.516C35.5755 196.224 35.3255 195.995 35.0234 195.828C34.7266 195.661 34.3776 195.578 33.9766 195.578C33.5807 195.578 33.2318 195.661 32.9297 195.828C32.6328 195.995 32.3828 196.224 32.1797 196.516C31.9818 196.802 31.8333 197.133 31.7344 197.508C31.6354 197.878 31.5859 198.271 31.5859 198.688ZM43.1875 194.547V195.656H38.6172V194.547H43.1875ZM40.1641 192.492H41.6094V200.906C41.6094 201.193 41.6536 201.409 41.7422 201.555C41.8307 201.701 41.9453 201.797 42.0859 201.844C42.2266 201.891 42.3776 201.914 42.5391 201.914C42.6589 201.914 42.7839 201.904 42.9141 201.883C43.0495 201.857 43.151 201.836 43.2188 201.82L43.2266 203C43.112 203.036 42.9609 203.07 42.7734 203.102C42.5911 203.138 42.3698 203.156 42.1094 203.156C41.7552 203.156 41.4297 203.086 41.1328 202.945C40.8359 202.805 40.599 202.57 40.4219 202.242C40.25 201.909 40.1641 201.461 40.1641 200.898V192.492ZM46.4531 194.547V203H45V194.547H46.4531ZM44.8906 192.305C44.8906 192.07 44.9609 191.872 45.1016 191.711C45.2474 191.549 45.4609 191.469 45.7422 191.469C46.0182 191.469 46.2292 191.549 46.375 191.711C46.526 191.872 46.6016 192.07 46.6016 192.305C46.6016 192.529 46.526 192.721 46.375 192.883C46.2292 193.039 46.0182 193.117 45.7422 193.117C45.4609 193.117 45.2474 193.039 45.1016 192.883C44.9609 192.721 44.8906 192.529 44.8906 192.305ZM50.7031 203H49.2578V193.812C49.2578 193.172 49.3828 192.63 49.6328 192.188C49.8828 191.745 50.2396 191.409 50.7031 191.18C51.1667 190.951 51.7161 190.836 52.3516 190.836C52.7266 190.836 53.0938 190.883 53.4531 190.977C53.8125 191.065 54.1823 191.177 54.5625 191.312L54.3203 192.531C54.0807 192.438 53.8021 192.349 53.4844 192.266C53.1719 192.177 52.8281 192.133 52.4531 192.133C51.8333 192.133 51.3854 192.273 51.1094 192.555C50.8385 192.831 50.7031 193.25 50.7031 193.812V203ZM52.4297 194.547V195.656H47.9219V194.547H52.4297ZM55.2734 194.547V203H53.8281V194.547H55.2734ZM61.0312 201.969C61.375 201.969 61.6927 201.898 61.9844 201.758C62.276 201.617 62.5156 201.424 62.7031 201.18C62.8906 200.93 62.9974 200.646 63.0234 200.328H64.3984C64.3724 200.828 64.2031 201.294 63.8906 201.727C63.5833 202.154 63.1797 202.5 62.6797 202.766C62.1797 203.026 61.6302 203.156 61.0312 203.156C60.3958 203.156 59.8411 203.044 59.3672 202.82C58.8984 202.596 58.5078 202.289 58.1953 201.898C57.888 201.508 57.6562 201.06 57.5 200.555C57.349 200.044 57.2734 199.505 57.2734 198.938V198.609C57.2734 198.042 57.349 197.505 57.5 197C57.6562 196.49 57.888 196.039 58.1953 195.648C58.5078 195.258 58.8984 194.951 59.3672 194.727C59.8411 194.503 60.3958 194.391 61.0312 194.391C61.6927 194.391 62.2708 194.526 62.7656 194.797C63.2604 195.062 63.6484 195.427 63.9297 195.891C64.2161 196.349 64.3724 196.87 64.3984 197.453H63.0234C62.9974 197.104 62.8984 196.789 62.7266 196.508C62.5599 196.227 62.3307 196.003 62.0391 195.836C61.7526 195.664 61.4167 195.578 61.0312 195.578C60.5885 195.578 60.2161 195.667 59.9141 195.844C59.6172 196.016 59.3802 196.25 59.2031 196.547C59.0312 196.839 58.9062 197.164 58.8281 197.523C58.7552 197.878 58.7188 198.24 58.7188 198.609V198.938C58.7188 199.307 58.7552 199.672 58.8281 200.031C58.901 200.391 59.0234 200.716 59.1953 201.008C59.3724 201.299 59.6094 201.534 59.9062 201.711C60.2083 201.883 60.5833 201.969 61.0312 201.969ZM71.0078 201.555V197.203C71.0078 196.87 70.9401 196.581 70.8047 196.336C70.6745 196.086 70.4766 195.893 70.2109 195.758C69.9453 195.622 69.6172 195.555 69.2266 195.555C68.862 195.555 68.5417 195.617 68.2656 195.742C67.9948 195.867 67.7812 196.031 67.625 196.234C67.474 196.438 67.3984 196.656 67.3984 196.891H65.9531C65.9531 196.589 66.0312 196.289 66.1875 195.992C66.3438 195.695 66.5677 195.427 66.8594 195.188C67.1562 194.943 67.5104 194.75 67.9219 194.609C68.3385 194.464 68.8021 194.391 69.3125 194.391C69.9271 194.391 70.4688 194.495 70.9375 194.703C71.4115 194.911 71.7812 195.227 72.0469 195.648C72.3177 196.065 72.4531 196.589 72.4531 197.219V201.156C72.4531 201.438 72.4766 201.737 72.5234 202.055C72.5755 202.372 72.651 202.646 72.75 202.875V203H71.2422C71.1693 202.833 71.112 202.612 71.0703 202.336C71.0286 202.055 71.0078 201.794 71.0078 201.555ZM71.2578 197.875L71.2734 198.891H69.8125C69.401 198.891 69.0339 198.924 68.7109 198.992C68.388 199.055 68.1172 199.151 67.8984 199.281C67.6797 199.411 67.513 199.576 67.3984 199.773C67.2839 199.966 67.2266 200.193 67.2266 200.453C67.2266 200.719 67.2865 200.961 67.4062 201.18C67.526 201.398 67.7057 201.573 67.9453 201.703C68.1901 201.828 68.4896 201.891 68.8438 201.891C69.2865 201.891 69.6771 201.797 70.0156 201.609C70.3542 201.422 70.6224 201.193 70.8203 200.922C71.0234 200.651 71.1328 200.388 71.1484 200.133L71.7656 200.828C71.7292 201.047 71.6302 201.289 71.4688 201.555C71.3073 201.82 71.0911 202.076 70.8203 202.32C70.5547 202.56 70.237 202.76 69.8672 202.922C69.5026 203.078 69.0911 203.156 68.6328 203.156C68.0599 203.156 67.5573 203.044 67.125 202.82C66.6979 202.596 66.3646 202.297 66.125 201.922C65.8906 201.542 65.7734 201.117 65.7734 200.648C65.7734 200.195 65.862 199.797 66.0391 199.453C66.2161 199.104 66.4714 198.815 66.8047 198.586C67.138 198.352 67.5391 198.174 68.0078 198.055C68.4766 197.935 69 197.875 69.5781 197.875H71.2578ZM78.2656 194.547V195.656H73.6953V194.547H78.2656ZM75.2422 192.492H76.6875V200.906C76.6875 201.193 76.7318 201.409 76.8203 201.555C76.9089 201.701 77.0234 201.797 77.1641 201.844C77.3047 201.891 77.4557 201.914 77.6172 201.914C77.737 201.914 77.862 201.904 77.9922 201.883C78.1276 201.857 78.2292 201.836 78.2969 201.82L78.3047 203C78.1901 203.036 78.0391 203.07 77.8516 203.102C77.6693 203.138 77.4479 203.156 77.1875 203.156C76.8333 203.156 76.5078 203.086 76.2109 202.945C75.9141 202.805 75.6771 202.57 75.5 202.242C75.3281 201.909 75.2422 201.461 75.2422 200.898V192.492ZM81.5312 194.547V203H80.0781V194.547H81.5312ZM79.9688 192.305C79.9688 192.07 80.0391 191.872 80.1797 191.711C80.3255 191.549 80.5391 191.469 80.8203 191.469C81.0964 191.469 81.3073 191.549 81.4531 191.711C81.6042 191.872 81.6797 192.07 81.6797 192.305C81.6797 192.529 81.6042 192.721 81.4531 192.883C81.3073 193.039 81.0964 193.117 80.8203 193.117C80.5391 193.117 80.3255 193.039 80.1797 192.883C80.0391 192.721 79.9688 192.529 79.9688 192.305ZM83.4688 198.867V198.688C83.4688 198.078 83.5573 197.513 83.7344 196.992C83.9115 196.466 84.1667 196.01 84.5 195.625C84.8333 195.234 85.237 194.932 85.7109 194.719C86.1849 194.5 86.7161 194.391 87.3047 194.391C87.8984 194.391 88.4323 194.5 88.9062 194.719C89.3854 194.932 89.7917 195.234 90.125 195.625C90.4635 196.01 90.7214 196.466 90.8984 196.992C91.0755 197.513 91.1641 198.078 91.1641 198.688V198.867C91.1641 199.477 91.0755 200.042 90.8984 200.562C90.7214 201.083 90.4635 201.539 90.125 201.93C89.7917 202.315 89.388 202.617 88.9141 202.836C88.4453 203.049 87.9141 203.156 87.3203 203.156C86.7266 203.156 86.1927 203.049 85.7188 202.836C85.2448 202.617 84.8385 202.315 84.5 201.93C84.1667 201.539 83.9115 201.083 83.7344 200.562C83.5573 200.042 83.4688 199.477 83.4688 198.867ZM84.9141 198.688V198.867C84.9141 199.289 84.9635 199.688 85.0625 200.062C85.1615 200.432 85.3099 200.76 85.5078 201.047C85.7109 201.333 85.9635 201.56 86.2656 201.727C86.5677 201.888 86.9193 201.969 87.3203 201.969C87.7161 201.969 88.0625 201.888 88.3594 201.727C88.6615 201.56 88.9115 201.333 89.1094 201.047C89.3073 200.76 89.4557 200.432 89.5547 200.062C89.6589 199.688 89.7109 199.289 89.7109 198.867V198.688C89.7109 198.271 89.6589 197.878 89.5547 197.508C89.4557 197.133 89.3047 196.802 89.1016 196.516C88.9036 196.224 88.6536 195.995 88.3516 195.828C88.0547 195.661 87.7057 195.578 87.3047 195.578C86.9089 195.578 86.5599 195.661 86.2578 195.828C85.9609 195.995 85.7109 196.224 85.5078 196.516C85.3099 196.802 85.1615 197.133 85.0625 197.508C84.9635 197.878 84.9141 198.271 84.9141 198.688ZM94.4219 196.352V203H92.9766V194.547H94.3438L94.4219 196.352ZM94.0781 198.453L93.4766 198.43C93.4818 197.852 93.5677 197.318 93.7344 196.828C93.901 196.333 94.1354 195.904 94.4375 195.539C94.7396 195.174 95.099 194.893 95.5156 194.695C95.9375 194.492 96.4036 194.391 96.9141 194.391C97.3307 194.391 97.7057 194.448 98.0391 194.562C98.3724 194.672 98.6562 194.849 98.8906 195.094C99.1302 195.339 99.3125 195.656 99.4375 196.047C99.5625 196.432 99.625 196.904 99.625 197.461V203H98.1719V197.445C98.1719 197.003 98.1068 196.648 97.9766 196.383C97.8464 196.112 97.6562 195.917 97.4062 195.797C97.1562 195.672 96.849 195.609 96.4844 195.609C96.125 195.609 95.7969 195.685 95.5 195.836C95.2083 195.987 94.9557 196.195 94.7422 196.461C94.5339 196.727 94.3698 197.031 94.25 197.375C94.1354 197.714 94.0781 198.073 94.0781 198.453ZM106.742 200.758C106.742 200.549 106.695 200.357 106.602 200.18C106.513 199.997 106.328 199.833 106.047 199.688C105.771 199.536 105.354 199.406 104.797 199.297C104.328 199.198 103.904 199.081 103.523 198.945C103.148 198.81 102.828 198.646 102.562 198.453C102.302 198.26 102.102 198.034 101.961 197.773C101.82 197.513 101.75 197.208 101.75 196.859C101.75 196.526 101.823 196.211 101.969 195.914C102.12 195.617 102.331 195.354 102.602 195.125C102.878 194.896 103.208 194.716 103.594 194.586C103.979 194.456 104.409 194.391 104.883 194.391C105.56 194.391 106.138 194.51 106.617 194.75C107.096 194.99 107.464 195.31 107.719 195.711C107.974 196.107 108.102 196.547 108.102 197.031H106.656C106.656 196.797 106.586 196.57 106.445 196.352C106.31 196.128 106.109 195.943 105.844 195.797C105.583 195.651 105.263 195.578 104.883 195.578C104.482 195.578 104.156 195.641 103.906 195.766C103.661 195.885 103.482 196.039 103.367 196.227C103.258 196.414 103.203 196.612 103.203 196.82C103.203 196.977 103.229 197.117 103.281 197.242C103.339 197.362 103.438 197.474 103.578 197.578C103.719 197.677 103.917 197.771 104.172 197.859C104.427 197.948 104.753 198.036 105.148 198.125C105.841 198.281 106.411 198.469 106.859 198.688C107.307 198.906 107.641 199.174 107.859 199.492C108.078 199.81 108.188 200.195 108.188 200.648C108.188 201.018 108.109 201.357 107.953 201.664C107.802 201.971 107.581 202.237 107.289 202.461C107.003 202.68 106.659 202.852 106.258 202.977C105.862 203.096 105.417 203.156 104.922 203.156C104.177 203.156 103.547 203.023 103.031 202.758C102.516 202.492 102.125 202.148 101.859 201.727C101.594 201.305 101.461 200.859 101.461 200.391H102.914C102.935 200.786 103.049 201.102 103.258 201.336C103.466 201.565 103.721 201.729 104.023 201.828C104.326 201.922 104.625 201.969 104.922 201.969C105.318 201.969 105.648 201.917 105.914 201.812C106.185 201.708 106.391 201.565 106.531 201.383C106.672 201.201 106.742 200.992 106.742 200.758ZM115.5 196.172V206.25H114.047V194.547H115.375L115.5 196.172ZM121.195 198.703V198.867C121.195 199.482 121.122 200.052 120.977 200.578C120.831 201.099 120.617 201.552 120.336 201.938C120.06 202.323 119.719 202.622 119.312 202.836C118.906 203.049 118.44 203.156 117.914 203.156C117.378 203.156 116.904 203.068 116.492 202.891C116.081 202.714 115.732 202.456 115.445 202.117C115.159 201.779 114.93 201.372 114.758 200.898C114.591 200.424 114.477 199.891 114.414 199.297V198.422C114.477 197.797 114.594 197.237 114.766 196.742C114.938 196.247 115.164 195.826 115.445 195.477C115.732 195.122 116.078 194.854 116.484 194.672C116.891 194.484 117.359 194.391 117.891 194.391C118.422 194.391 118.893 194.495 119.305 194.703C119.716 194.906 120.062 195.198 120.344 195.578C120.625 195.958 120.836 196.414 120.977 196.945C121.122 197.471 121.195 198.057 121.195 198.703ZM119.742 198.867V198.703C119.742 198.281 119.698 197.885 119.609 197.516C119.521 197.141 119.383 196.812 119.195 196.531C119.013 196.245 118.779 196.021 118.492 195.859C118.206 195.693 117.865 195.609 117.469 195.609C117.104 195.609 116.786 195.672 116.516 195.797C116.25 195.922 116.023 196.091 115.836 196.305C115.648 196.513 115.495 196.753 115.375 197.023C115.26 197.289 115.174 197.565 115.117 197.852V199.875C115.221 200.24 115.367 200.583 115.555 200.906C115.742 201.224 115.992 201.482 116.305 201.68C116.617 201.872 117.01 201.969 117.484 201.969C117.875 201.969 118.211 201.888 118.492 201.727C118.779 201.56 119.013 201.333 119.195 201.047C119.383 200.76 119.521 200.432 119.609 200.062C119.698 199.688 119.742 199.289 119.742 198.867ZM124.484 195.875V203H123.039V194.547H124.445L124.484 195.875ZM127.125 194.5L127.117 195.844C126.997 195.818 126.883 195.802 126.773 195.797C126.669 195.786 126.549 195.781 126.414 195.781C126.081 195.781 125.786 195.833 125.531 195.938C125.276 196.042 125.06 196.188 124.883 196.375C124.706 196.562 124.565 196.786 124.461 197.047C124.362 197.302 124.297 197.583 124.266 197.891L123.859 198.125C123.859 197.615 123.909 197.135 124.008 196.688C124.112 196.24 124.271 195.844 124.484 195.5C124.698 195.151 124.969 194.88 125.297 194.688C125.63 194.49 126.026 194.391 126.484 194.391C126.589 194.391 126.708 194.404 126.844 194.43C126.979 194.451 127.073 194.474 127.125 194.5ZM131.812 203.156C131.224 203.156 130.69 203.057 130.211 202.859C129.737 202.656 129.328 202.372 128.984 202.008C128.646 201.643 128.385 201.211 128.203 200.711C128.021 200.211 127.93 199.664 127.93 199.07V198.742C127.93 198.055 128.031 197.443 128.234 196.906C128.438 196.365 128.714 195.906 129.062 195.531C129.411 195.156 129.807 194.872 130.25 194.68C130.693 194.487 131.151 194.391 131.625 194.391C132.229 194.391 132.75 194.495 133.188 194.703C133.63 194.911 133.992 195.203 134.273 195.578C134.555 195.948 134.763 196.385 134.898 196.891C135.034 197.391 135.102 197.938 135.102 198.531V199.18H128.789V198H133.656V197.891C133.635 197.516 133.557 197.151 133.422 196.797C133.292 196.443 133.083 196.151 132.797 195.922C132.51 195.693 132.12 195.578 131.625 195.578C131.297 195.578 130.995 195.648 130.719 195.789C130.443 195.924 130.206 196.128 130.008 196.398C129.81 196.669 129.656 197 129.547 197.391C129.438 197.781 129.383 198.232 129.383 198.742V199.07C129.383 199.471 129.438 199.849 129.547 200.203C129.661 200.552 129.826 200.859 130.039 201.125C130.258 201.391 130.521 201.599 130.828 201.75C131.141 201.901 131.495 201.977 131.891 201.977C132.401 201.977 132.833 201.872 133.188 201.664C133.542 201.456 133.852 201.177 134.117 200.828L134.992 201.523C134.81 201.799 134.578 202.062 134.297 202.312C134.016 202.562 133.669 202.766 133.258 202.922C132.852 203.078 132.37 203.156 131.812 203.156ZM138.945 203H137.5V193.656C137.5 193.047 137.609 192.534 137.828 192.117C138.052 191.695 138.372 191.378 138.789 191.164C139.206 190.945 139.701 190.836 140.273 190.836C140.44 190.836 140.607 190.846 140.773 190.867C140.945 190.888 141.112 190.919 141.273 190.961L141.195 192.141C141.086 192.115 140.961 192.096 140.82 192.086C140.685 192.076 140.549 192.07 140.414 192.07C140.107 192.07 139.841 192.133 139.617 192.258C139.398 192.378 139.232 192.555 139.117 192.789C139.003 193.023 138.945 193.312 138.945 193.656V203ZM140.742 194.547V195.656H136.164V194.547H140.742ZM145.672 203.156C145.083 203.156 144.549 203.057 144.07 202.859C143.596 202.656 143.188 202.372 142.844 202.008C142.505 201.643 142.245 201.211 142.062 200.711C141.88 200.211 141.789 199.664 141.789 199.07V198.742C141.789 198.055 141.891 197.443 142.094 196.906C142.297 196.365 142.573 195.906 142.922 195.531C143.271 195.156 143.667 194.872 144.109 194.68C144.552 194.487 145.01 194.391 145.484 194.391C146.089 194.391 146.609 194.495 147.047 194.703C147.49 194.911 147.852 195.203 148.133 195.578C148.414 195.948 148.622 196.385 148.758 196.891C148.893 197.391 148.961 197.938 148.961 198.531V199.18H142.648V198H147.516V197.891C147.495 197.516 147.417 197.151 147.281 196.797C147.151 196.443 146.943 196.151 146.656 195.922C146.37 195.693 145.979 195.578 145.484 195.578C145.156 195.578 144.854 195.648 144.578 195.789C144.302 195.924 144.065 196.128 143.867 196.398C143.669 196.669 143.516 197 143.406 197.391C143.297 197.781 143.242 198.232 143.242 198.742V199.07C143.242 199.471 143.297 199.849 143.406 200.203C143.521 200.552 143.685 200.859 143.898 201.125C144.117 201.391 144.38 201.599 144.688 201.75C145 201.901 145.354 201.977 145.75 201.977C146.26 201.977 146.693 201.872 147.047 201.664C147.401 201.456 147.711 201.177 147.977 200.828L148.852 201.523C148.669 201.799 148.438 202.062 148.156 202.312C147.875 202.562 147.529 202.766 147.117 202.922C146.711 203.078 146.229 203.156 145.672 203.156ZM152.094 195.875V203H150.648V194.547H152.055L152.094 195.875ZM154.734 194.5L154.727 195.844C154.607 195.818 154.492 195.802 154.383 195.797C154.279 195.786 154.159 195.781 154.023 195.781C153.69 195.781 153.396 195.833 153.141 195.938C152.885 196.042 152.669 196.188 152.492 196.375C152.315 196.562 152.174 196.786 152.07 197.047C151.971 197.302 151.906 197.583 151.875 197.891L151.469 198.125C151.469 197.615 151.518 197.135 151.617 196.688C151.721 196.24 151.88 195.844 152.094 195.5C152.307 195.151 152.578 194.88 152.906 194.688C153.24 194.49 153.635 194.391 154.094 194.391C154.198 194.391 154.318 194.404 154.453 194.43C154.589 194.451 154.682 194.474 154.734 194.5ZM159.422 203.156C158.833 203.156 158.299 203.057 157.82 202.859C157.346 202.656 156.938 202.372 156.594 202.008C156.255 201.643 155.995 201.211 155.812 200.711C155.63 200.211 155.539 199.664 155.539 199.07V198.742C155.539 198.055 155.641 197.443 155.844 196.906C156.047 196.365 156.323 195.906 156.672 195.531C157.021 195.156 157.417 194.872 157.859 194.68C158.302 194.487 158.76 194.391 159.234 194.391C159.839 194.391 160.359 194.495 160.797 194.703C161.24 194.911 161.602 195.203 161.883 195.578C162.164 195.948 162.372 196.385 162.508 196.891C162.643 197.391 162.711 197.938 162.711 198.531V199.18H156.398V198H161.266V197.891C161.245 197.516 161.167 197.151 161.031 196.797C160.901 196.443 160.693 196.151 160.406 195.922C160.12 195.693 159.729 195.578 159.234 195.578C158.906 195.578 158.604 195.648 158.328 195.789C158.052 195.924 157.815 196.128 157.617 196.398C157.419 196.669 157.266 197 157.156 197.391C157.047 197.781 156.992 198.232 156.992 198.742V199.07C156.992 199.471 157.047 199.849 157.156 200.203C157.271 200.552 157.435 200.859 157.648 201.125C157.867 201.391 158.13 201.599 158.438 201.75C158.75 201.901 159.104 201.977 159.5 201.977C160.01 201.977 160.443 201.872 160.797 201.664C161.151 201.456 161.461 201.177 161.727 200.828L162.602 201.523C162.419 201.799 162.188 202.062 161.906 202.312C161.625 202.562 161.279 202.766 160.867 202.922C160.461 203.078 159.979 203.156 159.422 203.156ZM165.844 196.352V203H164.398V194.547H165.766L165.844 196.352ZM165.5 198.453L164.898 198.43C164.904 197.852 164.99 197.318 165.156 196.828C165.323 196.333 165.557 195.904 165.859 195.539C166.161 195.174 166.521 194.893 166.938 194.695C167.359 194.492 167.826 194.391 168.336 194.391C168.753 194.391 169.128 194.448 169.461 194.562C169.794 194.672 170.078 194.849 170.312 195.094C170.552 195.339 170.734 195.656 170.859 196.047C170.984 196.432 171.047 196.904 171.047 197.461V203H169.594V197.445C169.594 197.003 169.529 196.648 169.398 196.383C169.268 196.112 169.078 195.917 168.828 195.797C168.578 195.672 168.271 195.609 167.906 195.609C167.547 195.609 167.219 195.685 166.922 195.836C166.63 195.987 166.378 196.195 166.164 196.461C165.956 196.727 165.792 197.031 165.672 197.375C165.557 197.714 165.5 198.073 165.5 198.453ZM176.625 201.969C176.969 201.969 177.286 201.898 177.578 201.758C177.87 201.617 178.109 201.424 178.297 201.18C178.484 200.93 178.591 200.646 178.617 200.328H179.992C179.966 200.828 179.797 201.294 179.484 201.727C179.177 202.154 178.773 202.5 178.273 202.766C177.773 203.026 177.224 203.156 176.625 203.156C175.99 203.156 175.435 203.044 174.961 202.82C174.492 202.596 174.102 202.289 173.789 201.898C173.482 201.508 173.25 201.06 173.094 200.555C172.943 200.044 172.867 199.505 172.867 198.938V198.609C172.867 198.042 172.943 197.505 173.094 197C173.25 196.49 173.482 196.039 173.789 195.648C174.102 195.258 174.492 194.951 174.961 194.727C175.435 194.503 175.99 194.391 176.625 194.391C177.286 194.391 177.865 194.526 178.359 194.797C178.854 195.062 179.242 195.427 179.523 195.891C179.81 196.349 179.966 196.87 179.992 197.453H178.617C178.591 197.104 178.492 196.789 178.32 196.508C178.154 196.227 177.924 196.003 177.633 195.836C177.346 195.664 177.01 195.578 176.625 195.578C176.182 195.578 175.81 195.667 175.508 195.844C175.211 196.016 174.974 196.25 174.797 196.547C174.625 196.839 174.5 197.164 174.422 197.523C174.349 197.878 174.312 198.24 174.312 198.609V198.938C174.312 199.307 174.349 199.672 174.422 200.031C174.495 200.391 174.617 200.716 174.789 201.008C174.966 201.299 175.203 201.534 175.5 201.711C175.802 201.883 176.177 201.969 176.625 201.969ZM185.125 203.156C184.536 203.156 184.003 203.057 183.523 202.859C183.049 202.656 182.641 202.372 182.297 202.008C181.958 201.643 181.698 201.211 181.516 200.711C181.333 200.211 181.242 199.664 181.242 199.07V198.742C181.242 198.055 181.344 197.443 181.547 196.906C181.75 196.365 182.026 195.906 182.375 195.531C182.724 195.156 183.12 194.872 183.562 194.68C184.005 194.487 184.464 194.391 184.938 194.391C185.542 194.391 186.062 194.495 186.5 194.703C186.943 194.911 187.305 195.203 187.586 195.578C187.867 195.948 188.076 196.385 188.211 196.891C188.346 197.391 188.414 197.938 188.414 198.531V199.18H182.102V198H186.969V197.891C186.948 197.516 186.87 197.151 186.734 196.797C186.604 196.443 186.396 196.151 186.109 195.922C185.823 195.693 185.432 195.578 184.938 195.578C184.609 195.578 184.307 195.648 184.031 195.789C183.755 195.924 183.518 196.128 183.32 196.398C183.122 196.669 182.969 197 182.859 197.391C182.75 197.781 182.695 198.232 182.695 198.742V199.07C182.695 199.471 182.75 199.849 182.859 200.203C182.974 200.552 183.138 200.859 183.352 201.125C183.57 201.391 183.833 201.599 184.141 201.75C184.453 201.901 184.807 201.977 185.203 201.977C185.714 201.977 186.146 201.872 186.5 201.664C186.854 201.456 187.164 201.177 187.43 200.828L188.305 201.523C188.122 201.799 187.891 202.062 187.609 202.312C187.328 202.562 186.982 202.766 186.57 202.922C186.164 203.078 185.682 203.156 185.125 203.156ZM195.023 200.758C195.023 200.549 194.977 200.357 194.883 200.18C194.794 199.997 194.609 199.833 194.328 199.688C194.052 199.536 193.635 199.406 193.078 199.297C192.609 199.198 192.185 199.081 191.805 198.945C191.43 198.81 191.109 198.646 190.844 198.453C190.583 198.26 190.383 198.034 190.242 197.773C190.102 197.513 190.031 197.208 190.031 196.859C190.031 196.526 190.104 196.211 190.25 195.914C190.401 195.617 190.612 195.354 190.883 195.125C191.159 194.896 191.49 194.716 191.875 194.586C192.26 194.456 192.69 194.391 193.164 194.391C193.841 194.391 194.419 194.51 194.898 194.75C195.378 194.99 195.745 195.31 196 195.711C196.255 196.107 196.383 196.547 196.383 197.031H194.938C194.938 196.797 194.867 196.57 194.727 196.352C194.591 196.128 194.391 195.943 194.125 195.797C193.865 195.651 193.544 195.578 193.164 195.578C192.763 195.578 192.438 195.641 192.188 195.766C191.943 195.885 191.763 196.039 191.648 196.227C191.539 196.414 191.484 196.612 191.484 196.82C191.484 196.977 191.51 197.117 191.562 197.242C191.62 197.362 191.719 197.474 191.859 197.578C192 197.677 192.198 197.771 192.453 197.859C192.708 197.948 193.034 198.036 193.43 198.125C194.122 198.281 194.693 198.469 195.141 198.688C195.589 198.906 195.922 199.174 196.141 199.492C196.359 199.81 196.469 200.195 196.469 200.648C196.469 201.018 196.391 201.357 196.234 201.664C196.083 201.971 195.862 202.237 195.57 202.461C195.284 202.68 194.94 202.852 194.539 202.977C194.143 203.096 193.698 203.156 193.203 203.156C192.458 203.156 191.828 203.023 191.312 202.758C190.797 202.492 190.406 202.148 190.141 201.727C189.875 201.305 189.742 200.859 189.742 200.391H191.195C191.216 200.786 191.331 201.102 191.539 201.336C191.747 201.565 192.003 201.729 192.305 201.828C192.607 201.922 192.906 201.969 193.203 201.969C193.599 201.969 193.93 201.917 194.195 201.812C194.466 201.708 194.672 201.565 194.812 201.383C194.953 201.201 195.023 200.992 195.023 200.758Z" fill="#1C1A1A"/>
<rect width="221" height="56" transform="translate(2 226)" fill="#FEF8EE"/>
<path d="M23.5234 247.625V259H22.0391V247.625H23.5234ZM27.1797 247.625V248.859H18.3906V247.625H27.1797ZM30.2188 250.547V259H28.7656V250.547H30.2188ZM28.6562 248.305C28.6562 248.07 28.7266 247.872 28.8672 247.711C29.013 247.549 29.2266 247.469 29.5078 247.469C29.7839 247.469 29.9948 247.549 30.1406 247.711C30.2917 247.872 30.3672 248.07 30.3672 248.305C30.3672 248.529 30.2917 248.721 30.1406 248.883C29.9948 249.039 29.7839 249.117 29.5078 249.117C29.2266 249.117 29.013 249.039 28.8672 248.883C28.7266 248.721 28.6562 248.529 28.6562 248.305ZM33.9766 252.227V259H32.5234V250.547H33.8984L33.9766 252.227ZM33.6797 254.453L33.0078 254.43C33.013 253.852 33.0885 253.318 33.2344 252.828C33.3802 252.333 33.5964 251.904 33.8828 251.539C34.1693 251.174 34.526 250.893 34.9531 250.695C35.3802 250.492 35.875 250.391 36.4375 250.391C36.8333 250.391 37.1979 250.448 37.5312 250.562C37.8646 250.672 38.1536 250.846 38.3984 251.086C38.6432 251.326 38.8333 251.633 38.9688 252.008C39.1042 252.383 39.1719 252.836 39.1719 253.367V259H37.7266V253.438C37.7266 252.995 37.651 252.641 37.5 252.375C37.3542 252.109 37.1458 251.917 36.875 251.797C36.6042 251.672 36.2865 251.609 35.9219 251.609C35.4948 251.609 35.138 251.685 34.8516 251.836C34.5651 251.987 34.3359 252.195 34.1641 252.461C33.9922 252.727 33.8672 253.031 33.7891 253.375C33.7161 253.714 33.6797 254.073 33.6797 254.453ZM39.1562 253.656L38.1875 253.953C38.1927 253.49 38.2682 253.044 38.4141 252.617C38.5651 252.19 38.7812 251.81 39.0625 251.477C39.349 251.143 39.7005 250.88 40.1172 250.688C40.5339 250.49 41.0104 250.391 41.5469 250.391C42 250.391 42.401 250.451 42.75 250.57C43.1042 250.69 43.401 250.875 43.6406 251.125C43.8854 251.37 44.0703 251.685 44.1953 252.07C44.3203 252.456 44.3828 252.914 44.3828 253.445V259H42.9297V253.43C42.9297 252.956 42.8542 252.589 42.7031 252.328C42.5573 252.062 42.349 251.878 42.0781 251.773C41.8125 251.664 41.4948 251.609 41.125 251.609C40.8073 251.609 40.526 251.664 40.2812 251.773C40.0365 251.883 39.8307 252.034 39.6641 252.227C39.4974 252.414 39.3698 252.63 39.2812 252.875C39.1979 253.12 39.1562 253.38 39.1562 253.656ZM50.0781 259.156C49.4896 259.156 48.9557 259.057 48.4766 258.859C48.0026 258.656 47.5938 258.372 47.25 258.008C46.9115 257.643 46.651 257.211 46.4688 256.711C46.2865 256.211 46.1953 255.664 46.1953 255.07V254.742C46.1953 254.055 46.2969 253.443 46.5 252.906C46.7031 252.365 46.9792 251.906 47.3281 251.531C47.6771 251.156 48.0729 250.872 48.5156 250.68C48.9583 250.487 49.4167 250.391 49.8906 250.391C50.4948 250.391 51.0156 250.495 51.4531 250.703C51.8958 250.911 52.2578 251.203 52.5391 251.578C52.8203 251.948 53.0286 252.385 53.1641 252.891C53.2995 253.391 53.3672 253.938 53.3672 254.531V255.18H47.0547V254H51.9219V253.891C51.901 253.516 51.8229 253.151 51.6875 252.797C51.5573 252.443 51.349 252.151 51.0625 251.922C50.776 251.693 50.3854 251.578 49.8906 251.578C49.5625 251.578 49.2604 251.648 48.9844 251.789C48.7083 251.924 48.4714 252.128 48.2734 252.398C48.0755 252.669 47.9219 253 47.8125 253.391C47.7031 253.781 47.6484 254.232 47.6484 254.742V255.07C47.6484 255.471 47.7031 255.849 47.8125 256.203C47.9271 256.552 48.0911 256.859 48.3047 257.125C48.5234 257.391 48.7865 257.599 49.0938 257.75C49.4062 257.901 49.7604 257.977 50.1562 257.977C50.6667 257.977 51.099 257.872 51.4531 257.664C51.8073 257.456 52.1172 257.177 52.3828 256.828L53.2578 257.523C53.0755 257.799 52.8438 258.062 52.5625 258.312C52.2812 258.562 51.9349 258.766 51.5234 258.922C51.1172 259.078 50.6354 259.156 50.0781 259.156ZM63.9453 256.758C63.9453 256.549 63.8984 256.357 63.8047 256.18C63.7161 255.997 63.5312 255.833 63.25 255.688C62.974 255.536 62.5573 255.406 62 255.297C61.5312 255.198 61.1068 255.081 60.7266 254.945C60.3516 254.81 60.0312 254.646 59.7656 254.453C59.5052 254.26 59.3047 254.034 59.1641 253.773C59.0234 253.513 58.9531 253.208 58.9531 252.859C58.9531 252.526 59.026 252.211 59.1719 251.914C59.3229 251.617 59.5339 251.354 59.8047 251.125C60.0807 250.896 60.4115 250.716 60.7969 250.586C61.1823 250.456 61.612 250.391 62.0859 250.391C62.763 250.391 63.3411 250.51 63.8203 250.75C64.2995 250.99 64.6667 251.31 64.9219 251.711C65.1771 252.107 65.3047 252.547 65.3047 253.031H63.8594C63.8594 252.797 63.7891 252.57 63.6484 252.352C63.513 252.128 63.3125 251.943 63.0469 251.797C62.7865 251.651 62.4661 251.578 62.0859 251.578C61.6849 251.578 61.3594 251.641 61.1094 251.766C60.8646 251.885 60.6849 252.039 60.5703 252.227C60.4609 252.414 60.4062 252.612 60.4062 252.82C60.4062 252.977 60.4323 253.117 60.4844 253.242C60.5417 253.362 60.6406 253.474 60.7812 253.578C60.9219 253.677 61.1198 253.771 61.375 253.859C61.6302 253.948 61.9557 254.036 62.3516 254.125C63.0443 254.281 63.6146 254.469 64.0625 254.688C64.5104 254.906 64.8438 255.174 65.0625 255.492C65.2812 255.81 65.3906 256.195 65.3906 256.648C65.3906 257.018 65.3125 257.357 65.1562 257.664C65.0052 257.971 64.7839 258.237 64.4922 258.461C64.2057 258.68 63.862 258.852 63.4609 258.977C63.0651 259.096 62.6198 259.156 62.125 259.156C61.3802 259.156 60.75 259.023 60.2344 258.758C59.7188 258.492 59.3281 258.148 59.0625 257.727C58.7969 257.305 58.6641 256.859 58.6641 256.391H60.1172C60.138 256.786 60.2526 257.102 60.4609 257.336C60.6693 257.565 60.9245 257.729 61.2266 257.828C61.5286 257.922 61.8281 257.969 62.125 257.969C62.5208 257.969 62.8516 257.917 63.1172 257.812C63.388 257.708 63.5938 257.565 63.7344 257.383C63.875 257.201 63.9453 256.992 63.9453 256.758ZM68.7344 252.172V262.25H67.2812V250.547H68.6094L68.7344 252.172ZM74.4297 254.703V254.867C74.4297 255.482 74.3568 256.052 74.2109 256.578C74.0651 257.099 73.8516 257.552 73.5703 257.938C73.2943 258.323 72.9531 258.622 72.5469 258.836C72.1406 259.049 71.6745 259.156 71.1484 259.156C70.612 259.156 70.138 259.068 69.7266 258.891C69.3151 258.714 68.9661 258.456 68.6797 258.117C68.3932 257.779 68.1641 257.372 67.9922 256.898C67.8255 256.424 67.7109 255.891 67.6484 255.297V254.422C67.7109 253.797 67.8281 253.237 68 252.742C68.1719 252.247 68.3984 251.826 68.6797 251.477C68.9661 251.122 69.3125 250.854 69.7188 250.672C70.125 250.484 70.5938 250.391 71.125 250.391C71.6562 250.391 72.1276 250.495 72.5391 250.703C72.9505 250.906 73.2969 251.198 73.5781 251.578C73.8594 251.958 74.0703 252.414 74.2109 252.945C74.3568 253.471 74.4297 254.057 74.4297 254.703ZM72.9766 254.867V254.703C72.9766 254.281 72.9323 253.885 72.8438 253.516C72.7552 253.141 72.6172 252.812 72.4297 252.531C72.2474 252.245 72.013 252.021 71.7266 251.859C71.4401 251.693 71.099 251.609 70.7031 251.609C70.3385 251.609 70.0208 251.672 69.75 251.797C69.4844 251.922 69.2578 252.091 69.0703 252.305C68.8828 252.513 68.7292 252.753 68.6094 253.023C68.4948 253.289 68.4089 253.565 68.3516 253.852V255.875C68.4557 256.24 68.6016 256.583 68.7891 256.906C68.9766 257.224 69.2266 257.482 69.5391 257.68C69.8516 257.872 70.2448 257.969 70.7188 257.969C71.1094 257.969 71.4453 257.888 71.7266 257.727C72.013 257.56 72.2474 257.333 72.4297 257.047C72.6172 256.76 72.7552 256.432 72.8438 256.062C72.9323 255.688 72.9766 255.289 72.9766 254.867ZM79.7812 259.156C79.1927 259.156 78.6589 259.057 78.1797 258.859C77.7057 258.656 77.2969 258.372 76.9531 258.008C76.6146 257.643 76.3542 257.211 76.1719 256.711C75.9896 256.211 75.8984 255.664 75.8984 255.07V254.742C75.8984 254.055 76 253.443 76.2031 252.906C76.4062 252.365 76.6823 251.906 77.0312 251.531C77.3802 251.156 77.776 250.872 78.2188 250.68C78.6615 250.487 79.1198 250.391 79.5938 250.391C80.1979 250.391 80.7188 250.495 81.1562 250.703C81.599 250.911 81.9609 251.203 82.2422 251.578C82.5234 251.948 82.7318 252.385 82.8672 252.891C83.0026 253.391 83.0703 253.938 83.0703 254.531V255.18H76.7578V254H81.625V253.891C81.6042 253.516 81.526 253.151 81.3906 252.797C81.2604 252.443 81.0521 252.151 80.7656 251.922C80.4792 251.693 80.0885 251.578 79.5938 251.578C79.2656 251.578 78.9635 251.648 78.6875 251.789C78.4115 251.924 78.1745 252.128 77.9766 252.398C77.7786 252.669 77.625 253 77.5156 253.391C77.4062 253.781 77.3516 254.232 77.3516 254.742V255.07C77.3516 255.471 77.4062 255.849 77.5156 256.203C77.6302 256.552 77.7943 256.859 78.0078 257.125C78.2266 257.391 78.4896 257.599 78.7969 257.75C79.1094 257.901 79.4635 257.977 79.8594 257.977C80.3698 257.977 80.8021 257.872 81.1562 257.664C81.5104 257.456 81.8203 257.177 82.0859 256.828L82.9609 257.523C82.7786 257.799 82.5469 258.062 82.2656 258.312C81.9844 258.562 81.638 258.766 81.2266 258.922C80.8203 259.078 80.3385 259.156 79.7812 259.156ZM86.2031 252.352V259H84.7578V250.547H86.125L86.2031 252.352ZM85.8594 254.453L85.2578 254.43C85.263 253.852 85.349 253.318 85.5156 252.828C85.6823 252.333 85.9167 251.904 86.2188 251.539C86.5208 251.174 86.8802 250.893 87.2969 250.695C87.7188 250.492 88.1849 250.391 88.6953 250.391C89.112 250.391 89.487 250.448 89.8203 250.562C90.1536 250.672 90.4375 250.849 90.6719 251.094C90.9115 251.339 91.0938 251.656 91.2188 252.047C91.3438 252.432 91.4062 252.904 91.4062 253.461V259H89.9531V253.445C89.9531 253.003 89.888 252.648 89.7578 252.383C89.6276 252.112 89.4375 251.917 89.1875 251.797C88.9375 251.672 88.6302 251.609 88.2656 251.609C87.9062 251.609 87.5781 251.685 87.2812 251.836C86.9896 251.987 86.737 252.195 86.5234 252.461C86.3151 252.727 86.151 253.031 86.0312 253.375C85.9167 253.714 85.8594 254.073 85.8594 254.453ZM97.1406 250.547V251.656H92.5703V250.547H97.1406ZM94.1172 248.492H95.5625V256.906C95.5625 257.193 95.6068 257.409 95.6953 257.555C95.7839 257.701 95.8984 257.797 96.0391 257.844C96.1797 257.891 96.3307 257.914 96.4922 257.914C96.612 257.914 96.737 257.904 96.8672 257.883C97.0026 257.857 97.1042 257.836 97.1719 257.82L97.1797 259C97.0651 259.036 96.9141 259.07 96.7266 259.102C96.5443 259.138 96.3229 259.156 96.0625 259.156C95.7083 259.156 95.3828 259.086 95.0859 258.945C94.7891 258.805 94.5521 258.57 94.375 258.242C94.2031 257.909 94.1172 257.461 94.1172 256.898V248.492Z" fill="#1C1A1A"/>
<rect width="221" height="56" transform="translate(2 282)" fill="#FEF8EE"/>
<path d="M26.2188 313.773V315H20.5312V313.773H26.2188ZM20.8281 303.625V315H19.3203V303.625H20.8281ZM27.3438 310.867V310.688C27.3438 310.078 27.4323 309.513 27.6094 308.992C27.7865 308.466 28.0417 308.01 28.375 307.625C28.7083 307.234 29.112 306.932 29.5859 306.719C30.0599 306.5 30.5911 306.391 31.1797 306.391C31.7734 306.391 32.3073 306.5 32.7812 306.719C33.2604 306.932 33.6667 307.234 34 307.625C34.3385 308.01 34.5964 308.466 34.7734 308.992C34.9505 309.513 35.0391 310.078 35.0391 310.688V310.867C35.0391 311.477 34.9505 312.042 34.7734 312.562C34.5964 313.083 34.3385 313.539 34 313.93C33.6667 314.315 33.263 314.617 32.7891 314.836C32.3203 315.049 31.7891 315.156 31.1953 315.156C30.6016 315.156 30.0677 315.049 29.5938 314.836C29.1198 314.617 28.7135 314.315 28.375 313.93C28.0417 313.539 27.7865 313.083 27.6094 312.562C27.4323 312.042 27.3438 311.477 27.3438 310.867ZM28.7891 310.688V310.867C28.7891 311.289 28.8385 311.688 28.9375 312.062C29.0365 312.432 29.1849 312.76 29.3828 313.047C29.5859 313.333 29.8385 313.56 30.1406 313.727C30.4427 313.888 30.7943 313.969 31.1953 313.969C31.5911 313.969 31.9375 313.888 32.2344 313.727C32.5365 313.56 32.7865 313.333 32.9844 313.047C33.1823 312.76 33.3307 312.432 33.4297 312.062C33.5339 311.688 33.5859 311.289 33.5859 310.867V310.688C33.5859 310.271 33.5339 309.878 33.4297 309.508C33.3307 309.133 33.1797 308.802 32.9766 308.516C32.7786 308.224 32.5286 307.995 32.2266 307.828C31.9297 307.661 31.5807 307.578 31.1797 307.578C30.7839 307.578 30.4349 307.661 30.1328 307.828C29.8359 307.995 29.5859 308.224 29.3828 308.516C29.1849 308.802 29.0365 309.133 28.9375 309.508C28.8385 309.878 28.7891 310.271 28.7891 310.688ZM42.3281 306.547H43.6406V314.82C43.6406 315.565 43.4896 316.201 43.1875 316.727C42.8854 317.253 42.4635 317.651 41.9219 317.922C41.3854 318.198 40.7656 318.336 40.0625 318.336C39.7708 318.336 39.4271 318.289 39.0312 318.195C38.6406 318.107 38.2552 317.953 37.875 317.734C37.5 317.521 37.1849 317.232 36.9297 316.867L37.6875 316.008C38.0417 316.435 38.4115 316.732 38.7969 316.898C39.1875 317.065 39.5729 317.148 39.9531 317.148C40.4115 317.148 40.8073 317.062 41.1406 316.891C41.474 316.719 41.7318 316.464 41.9141 316.125C42.1016 315.792 42.1953 315.38 42.1953 314.891V308.406L42.3281 306.547ZM36.5078 310.867V310.703C36.5078 310.057 36.5833 309.471 36.7344 308.945C36.8906 308.414 37.112 307.958 37.3984 307.578C37.6901 307.198 38.0417 306.906 38.4531 306.703C38.8646 306.495 39.3281 306.391 39.8438 306.391C40.375 306.391 40.8385 306.484 41.2344 306.672C41.6354 306.854 41.974 307.122 42.25 307.477C42.5312 307.826 42.7526 308.247 42.9141 308.742C43.0755 309.237 43.1875 309.797 43.25 310.422V311.141C43.1927 311.76 43.0807 312.318 42.9141 312.812C42.7526 313.307 42.5312 313.729 42.25 314.078C41.974 314.427 41.6354 314.695 41.2344 314.883C40.8333 315.065 40.3646 315.156 39.8281 315.156C39.3229 315.156 38.8646 315.049 38.4531 314.836C38.0469 314.622 37.6979 314.323 37.4062 313.938C37.1146 313.552 36.8906 313.099 36.7344 312.578C36.5833 312.052 36.5078 311.482 36.5078 310.867ZM37.9531 310.703V310.867C37.9531 311.289 37.9948 311.685 38.0781 312.055C38.1667 312.424 38.2995 312.75 38.4766 313.031C38.6589 313.312 38.8906 313.534 39.1719 313.695C39.4531 313.852 39.7891 313.93 40.1797 313.93C40.6589 313.93 41.0547 313.828 41.3672 313.625C41.6797 313.422 41.9271 313.154 42.1094 312.82C42.2969 312.487 42.4427 312.125 42.5469 311.734V309.852C42.4896 309.565 42.401 309.289 42.2812 309.023C42.1667 308.753 42.0156 308.513 41.8281 308.305C41.6458 308.091 41.4193 307.922 41.1484 307.797C40.8776 307.672 40.5599 307.609 40.1953 307.609C39.7995 307.609 39.4583 307.693 39.1719 307.859C38.8906 308.021 38.6589 308.245 38.4766 308.531C38.2995 308.812 38.1667 309.141 38.0781 309.516C37.9948 309.885 37.9531 310.281 37.9531 310.703ZM49.4219 310.867V310.688C49.4219 310.078 49.5104 309.513 49.6875 308.992C49.8646 308.466 50.1198 308.01 50.4531 307.625C50.7865 307.234 51.1901 306.932 51.6641 306.719C52.138 306.5 52.6693 306.391 53.2578 306.391C53.8516 306.391 54.3854 306.5 54.8594 306.719C55.3385 306.932 55.7448 307.234 56.0781 307.625C56.4167 308.01 56.6745 308.466 56.8516 308.992C57.0286 309.513 57.1172 310.078 57.1172 310.688V310.867C57.1172 311.477 57.0286 312.042 56.8516 312.562C56.6745 313.083 56.4167 313.539 56.0781 313.93C55.7448 314.315 55.3411 314.617 54.8672 314.836C54.3984 315.049 53.8672 315.156 53.2734 315.156C52.6797 315.156 52.1458 315.049 51.6719 314.836C51.1979 314.617 50.7917 314.315 50.4531 313.93C50.1198 313.539 49.8646 313.083 49.6875 312.562C49.5104 312.042 49.4219 311.477 49.4219 310.867ZM50.8672 310.688V310.867C50.8672 311.289 50.9167 311.688 51.0156 312.062C51.1146 312.432 51.263 312.76 51.4609 313.047C51.6641 313.333 51.9167 313.56 52.2188 313.727C52.5208 313.888 52.8724 313.969 53.2734 313.969C53.6693 313.969 54.0156 313.888 54.3125 313.727C54.6146 313.56 54.8646 313.333 55.0625 313.047C55.2604 312.76 55.4089 312.432 55.5078 312.062C55.612 311.688 55.6641 311.289 55.6641 310.867V310.688C55.6641 310.271 55.612 309.878 55.5078 309.508C55.4089 309.133 55.2578 308.802 55.0547 308.516C54.8568 308.224 54.6068 307.995 54.3047 307.828C54.0078 307.661 53.6589 307.578 53.2578 307.578C52.862 307.578 52.513 307.661 52.2109 307.828C51.9141 307.995 51.6641 308.224 51.4609 308.516C51.263 308.802 51.1146 309.133 51.0156 309.508C50.9167 309.878 50.8672 310.271 50.8672 310.688ZM64.1016 313.047V306.547H65.5547V315H64.1719L64.1016 313.047ZM64.375 311.266L64.9766 311.25C64.9766 311.812 64.9167 312.333 64.7969 312.812C64.6823 313.286 64.4948 313.698 64.2344 314.047C63.974 314.396 63.6328 314.669 63.2109 314.867C62.7891 315.06 62.276 315.156 61.6719 315.156C61.2604 315.156 60.8828 315.096 60.5391 314.977C60.2005 314.857 59.9089 314.672 59.6641 314.422C59.4193 314.172 59.2292 313.846 59.0938 313.445C58.9635 313.044 58.8984 312.562 58.8984 312V306.547H60.3438V312.016C60.3438 312.396 60.3854 312.711 60.4688 312.961C60.5573 313.206 60.6745 313.401 60.8203 313.547C60.9714 313.688 61.138 313.786 61.3203 313.844C61.5078 313.901 61.7005 313.93 61.8984 313.93C62.513 313.93 63 313.812 63.3594 313.578C63.7188 313.339 63.9766 313.018 64.1328 312.617C64.2943 312.211 64.375 311.76 64.375 311.266ZM71.2969 306.547V307.656H66.7266V306.547H71.2969ZM68.2734 304.492H69.7188V312.906C69.7188 313.193 69.763 313.409 69.8516 313.555C69.9401 313.701 70.0547 313.797 70.1953 313.844C70.3359 313.891 70.487 313.914 70.6484 313.914C70.7682 313.914 70.8932 313.904 71.0234 313.883C71.1589 313.857 71.2604 313.836 71.3281 313.82L71.3359 315C71.2214 315.036 71.0703 315.07 70.8828 315.102C70.7005 315.138 70.4792 315.156 70.2188 315.156C69.8646 315.156 69.5391 315.086 69.2422 314.945C68.9453 314.805 68.7083 314.57 68.5312 314.242C68.3594 313.909 68.2734 313.461 68.2734 312.898V304.492Z" fill="#1C1A1A"/>
</g>
<defs>
<filter id="filter0_d_5578_97535" x="0" y="0" width="229" height="344" filterUnits="userSpaceOnUse" color-interpolation-filters="sRGB">
<feFlood flood-opacity="0" result="BackgroundImageFix"/>
<feColorMatrix in="SourceAlpha" type="matrix" values="0 0 0 0 0 0 0 0 0 0 0 0 0 0 0 0 0 0 127 0" result="hardAlpha"/>
<feOffset dx="2" dy="2"/>
<feGaussianBlur stdDeviation="2"/>
<feComposite in2="hardAlpha" operator="out"/>
<feColorMatrix type="matrix" values="0 0 0 0 0.67451 0 0 0 0 0.478431 0 0 0 0 0.133333 0 0 0 0.5 0"/>
<feBlend mode="normal" in2="BackgroundImageFix" result="effect1_dropShadow_5578_97535"/>
<feBlend mode="normal" in="SourceGraphic" in2="effect1_dropShadow_5578_97535" result="shape"/>
</filter>
</defs>
</svg>
