<svg width="704" height="472" viewBox="0 0 704 472" fill="none" xmlns="http://www.w3.org/2000/svg">
<g filter="url(#filter0_d_8123_24619)">
<path d="M689.478 48.8116C689.478 31.4963 706.72 2.51654 679.503 2.51654C674.547 1.4794 668.526 1.32086 672.768 8.78885C672.768 11.7437 612.876 13.7582 609.763 15.2856C606.514 16.8793 594.52 18.4145 592.94 20.1582C589.93 23.4805 583.287 23.4861 579.042 21.7825C573.767 19.6654 567.696 21.0396 562.588 18.534C558.347 16.4536 552.016 12.8493 546.953 12.8493C532.2 12.8493 518.246 14.4735 503.724 14.4735C491.101 14.4735 480.578 24.2187 467.036 24.2187C455.844 24.2187 440.722 26.5453 431.881 20.1582C410.124 4.44071 371.828 19.3461 347.57 19.3461C336.221 19.3461 325.582 25.3145 317.05 18.534C308.117 11.4356 280.847 19.3461 269.595 19.3461C238.665 19.3461 237.463 28.9569 207.91 28.9569C195.425 28.9569 184.199 33.9638 171.728 33.9638C159.374 33.9638 149.211 29.5399 137.325 28.9568C125.275 28.3658 116.728 21.5226 105.469 20.9703C93.5119 20.3837 80.7968 12.0114 68.6793 17.361C56.9328 22.5468 24.6471 10.2592 17.1729 20.1581C9.18473 30.7379 15.3334 56.271 15.3334 70.5082C15.3334 76.3849 17.1729 81.834 17.1729 87.4721C17.1729 94.9697 15.6132 104.249 19.9321 111.113C22.5988 115.352 23.7956 129.675 20.7497 125.641C15.76 119.032 20.852 130.36 20.852 134.664C20.852 144.837 25.8397 159.534 31.0714 168.772C37.1211 179.455 43.5091 185.133 34.7505 197.286C24.8159 211.07 10.1137 229.297 16.2531 246.643C20.0755 257.443 24.5308 268.042 24.5308 279.308C24.5308 285.568 25.9802 293.355 24.4286 299.52C22.7811 306.066 19.0124 311.121 19.0124 318.198C19.0124 330.358 19.9832 339.15 23.6112 350.682C25.5509 356.848 28.9711 361.939 31.8889 367.736C35.1585 374.231 35.568 378.07 35.568 385.512C35.568 400.761 23.8477 408.916 16.3553 422.147C11.2038 431.244 9.76734 438.627 4.29639 447.322C-2.79114 458.586 7.77435 466 19.0124 466C33.1309 466 41.152 464.376 54.8828 464.376C75.114 464.376 93.0042 451.382 113.747 451.382C127.298 451.382 139.154 452.009 151.866 455.894C166.712 460.431 181.818 459.503 197.445 459.503C221.547 459.503 246.057 460.328 269.595 461.127C282.614 461.57 295.997 462.752 309.655 462.752C329.591 462.752 347.307 453.862 366.68 453.006C382.665 452.301 398.923 453.006 414.916 453.006C422.783 453.006 431.218 453.789 438.421 456.616C443.712 458.692 449.182 462.183 454.977 462.752C481.836 465.387 506.992 461.127 533.974 461.127C557.415 461.127 579.704 462.752 603.058 462.752C608.67 462.752 612.503 466 617.774 466L636.169 466C654.694 466 676.718 454.2 695.927 457.969C701.259 459.015 692.877 452.022 691.329 448.946C689.069 444.458 693.648 433.8 691.329 429.191C687.179 420.948 693.701 410.232 693.701 401.195C693.701 383.481 695.927 383.05 693.701 360.239C691.408 356.391 686.691 343.051 683.258 340.02L683.258 326.54C683.258 318.764 686.223 321.01 686.223 315.135C686.223 312.945 697.318 308.216 698 306.107C697.853 303.729 696.979 302.601 697.26 300.618C697.843 296.499 695.927 293.657 695.927 288.694C695.927 283.822 699.633 274.178 695.927 265.365C695.927 255.943 694.888 257.586 694.888 247.889C694.888 244.377 696.835 238.821 695.649 238.63C695.649 234.335 696.534 229.548 694.395 225.769C690.862 213.938 688.975 212.756 689.684 202.106C691.127 198.267 694.912 194.908 695.65 191.511C698.017 187.33 694.394 182.782 694.394 177.929C694.394 167.927 696.49 161.183 692.135 152.53C687.493 143.308 684.332 135.263 685.021 124.919C686.454 121.219 693.319 117.249 692.379 113.549C692.678 109.059 697.245 105.551 697.245 100.556C697.245 91.05 698.079 81.7647 689.478 74.9297C683.615 70.2712 689.478 71.1377 689.478 63.2151C689.478 58.3425 690.664 53.6841 689.478 48.8116Z" fill="#ECD6FE"/>
</g>
<defs>
<filter id="filter0_d_8123_24619" x="0" y="0" width="704" height="472" filterUnits="userSpaceOnUse" color-interpolation-filters="sRGB">
<feFlood flood-opacity="0" result="BackgroundImageFix"/>
<feColorMatrix in="SourceAlpha" type="matrix" values="0 0 0 0 0 0 0 0 0 0 0 0 0 0 0 0 0 0 127 0" result="hardAlpha"/>
<feOffset dx="2" dy="2"/>
<feGaussianBlur stdDeviation="2"/>
<feComposite in2="hardAlpha" operator="out"/>
<feColorMatrix type="matrix" values="0 0 0 0 0.435294 0 0 0 0 0.129412 0 0 0 0 0.619608 0 0 0 0.25 0"/>
<feBlend mode="normal" in2="BackgroundImageFix" result="effect1_dropShadow_8123_24619"/>
<feBlend mode="normal" in="SourceGraphic" in2="effect1_dropShadow_8123_24619" result="shape"/>
</filter>
</defs>
</svg>
