<svg width="530" height="472" viewBox="0 0 530 472" fill="none" xmlns="http://www.w3.org/2000/svg">
<g filter="url(#filter0_d_2295_18145)">
<path d="M517.608 48.8115C517.608 31.4962 530.54 2.51651 510.127 2.51651C506.41 1.47937 501.894 1.32083 505.076 8.78885C505.076 11.7436 460.157 13.7582 457.822 15.2856C455.385 16.8793 446.39 18.4144 445.205 20.1582C442.948 23.4805 437.965 23.4861 434.781 21.7824C430.825 19.6654 426.272 21.0395 422.441 18.534C419.261 16.4536 414.512 12.8493 410.714 12.8493C399.65 12.8493 389.184 14.4735 378.293 14.4735C368.826 14.4735 360.933 24.2187 350.777 24.2187C342.383 24.2187 331.042 26.5453 324.411 20.1582C308.093 4.44069 279.371 19.3461 261.177 19.3461C252.666 19.3461 244.687 25.3145 238.287 18.5339C231.588 11.4356 211.136 19.346 202.696 19.346C179.499 19.346 178.597 28.9568 156.432 28.9568C147.069 28.9568 138.649 33.9638 129.296 33.9638C120.03 33.9638 112.408 29.5399 103.494 28.9568C94.4564 28.3657 88.0461 21.5225 79.602 20.9703C70.634 20.3837 61.0976 12.0114 52.0095 17.361C43.1996 22.5467 18.9853 10.2591 13.3797 20.1582C7.38859 30.7378 12.0001 56.271 12.0001 70.5082C12.0001 76.3849 13.3797 81.834 13.3797 87.4721C13.3797 94.9697 12.2099 104.249 15.4491 111.113C17.4492 115.351 18.3467 129.675 16.0623 125.641C12.32 119.032 16.1389 130.36 16.1389 134.664C16.1389 144.837 19.8798 159.534 23.8036 168.772C28.3408 179.455 33.1318 185.133 26.5628 197.286C19.112 211.07 8.08523 229.297 12.6898 246.643C15.5566 257.443 18.8981 268.042 18.8981 279.308C18.8981 285.568 19.9852 293.355 18.8215 299.52C17.5858 306.066 14.7593 311.121 14.7593 318.198C14.7593 330.358 15.4874 339.15 18.2084 350.682C19.6631 356.848 22.2283 361.939 24.4167 367.736C26.8688 374.231 27.176 378.07 27.176 385.512C27.176 400.761 18.3857 408.916 12.7665 422.147C8.90284 431.244 7.8255 438.627 3.72229 447.322C-1.59338 458.586 6.33075 466 14.7593 466C25.3482 466 31.364 464.376 41.6621 464.376C56.8355 464.376 70.2532 451.382 85.8104 451.382C95.9737 451.382 104.866 452.009 114.4 455.894C125.534 460.431 136.864 459.503 148.584 459.503C166.66 459.503 185.043 460.328 202.696 461.127C212.46 461.57 222.498 462.752 232.741 462.752C247.693 462.752 260.98 453.862 275.51 453.006C287.498 452.301 299.692 453.006 311.687 453.006C317.587 453.006 323.913 453.789 329.316 456.616C333.284 458.692 337.386 462.183 341.733 462.752C361.877 465.387 380.744 461.127 400.98 461.127C418.561 461.127 435.278 462.752 452.793 462.752C457.003 462.752 459.877 466 463.83 466L477.627 466C491.52 466 508.039 454.2 522.445 457.969C526.444 459.015 520.158 452.022 518.996 448.946C517.302 444.458 520.736 433.8 518.996 429.191C515.885 420.948 520.776 410.232 520.776 401.195C520.776 383.481 522.446 383.05 520.776 360.239C519.056 356.391 515.518 343.051 512.943 340.02L512.943 326.54C512.943 318.764 515.168 321.01 515.168 315.135C515.168 312.945 523.488 308.216 524 306.107C523.89 303.729 523.235 302.601 523.445 300.618C523.883 296.499 522.445 293.657 522.445 288.694C522.445 283.822 525.225 274.178 522.445 265.365C522.445 255.943 521.666 257.586 521.666 247.889C521.666 244.377 523.126 238.821 522.237 238.63C522.237 234.335 522.901 229.548 521.296 225.769C518.647 213.938 517.231 212.756 517.763 202.106C518.845 198.267 521.684 194.908 522.237 191.511C524.013 187.33 521.295 182.782 521.295 177.929C521.295 167.927 522.868 161.183 519.601 152.53C516.12 143.308 513.749 135.263 514.266 124.919C515.341 121.219 520.489 117.249 519.784 113.549C520.009 109.059 523.433 105.551 523.433 100.556C523.433 91.05 524.059 81.7647 517.608 74.9297C513.212 70.2712 517.608 71.1377 517.608 63.2151C517.608 58.3425 518.498 53.6841 517.608 48.8115Z" fill="#ECD6FE"/>
</g>
<defs>
<filter id="filter0_d_2295_18145" x="0" y="0" width="530" height="472" filterUnits="userSpaceOnUse" color-interpolation-filters="sRGB">
<feFlood flood-opacity="0" result="BackgroundImageFix"/>
<feColorMatrix in="SourceAlpha" type="matrix" values="0 0 0 0 0 0 0 0 0 0 0 0 0 0 0 0 0 0 127 0" result="hardAlpha"/>
<feOffset dx="2" dy="2"/>
<feGaussianBlur stdDeviation="2"/>
<feComposite in2="hardAlpha" operator="out"/>
<feColorMatrix type="matrix" values="0 0 0 0 0.67451 0 0 0 0 0.478431 0 0 0 0 0.133333 0 0 0 1 0"/>
<feBlend mode="normal" in2="BackgroundImageFix" result="effect1_dropShadow_2295_18145"/>
<feBlend mode="normal" in="SourceGraphic" in2="effect1_dropShadow_2295_18145" result="shape"/>
</filter>
</defs>
</svg>
