<svg width="24" height="24" viewBox="0 0 24 24" fill="none" xmlns="http://www.w3.org/2000/svg">
<circle cx="12" cy="12" r="12" fill="#6F219E"/>
<g clip-path="url(#clip0_8123_25242)">
<path d="M9.64421 6.99102C9.56883 7.0609 9.50796 7.14494 9.46508 7.23835C9.42218 7.33175 9.39812 7.4327 9.39424 7.53541C9.39036 7.63812 9.40676 7.74059 9.44249 7.83696C9.47821 7.93333 9.53258 8.02172 9.60247 8.09709L13.2827 11.9996L9.60247 15.9022C9.53259 15.9775 9.47823 16.0659 9.44251 16.1623C9.40678 16.2587 9.39039 16.3611 9.39427 16.4639C9.39814 16.5666 9.42221 16.6675 9.46509 16.7609C9.50798 16.8543 9.56884 16.9384 9.64421 17.0082C9.71957 17.0781 9.80796 17.1325 9.90433 17.1682C10.0007 17.2039 10.1032 17.2203 10.2059 17.2165C10.3086 17.2126 10.4095 17.1885 10.5029 17.1456C10.5963 17.1027 10.6804 17.0419 10.7503 16.9665L14.924 12.5318C15.0582 12.3871 15.1328 12.197 15.1328 11.9996C15.1328 11.8023 15.0582 11.6122 14.924 11.4675L10.7503 7.03276C10.6804 6.95738 10.5963 6.89651 10.5029 6.85362C10.4095 6.81073 10.3086 6.78666 10.2059 6.78278C10.1032 6.77891 10.0007 6.7953 9.90433 6.83103C9.80796 6.86676 9.71957 6.92112 9.64421 6.99102Z" fill="white"/>
</g>
<defs>
<clipPath id="clip0_8123_25242">
<rect width="10.4348" height="10.4348" fill="white" transform="translate(17.2188 6.78223) rotate(90)"/>
</clipPath>
</defs>
</svg>
