<svg width="16" height="14" viewBox="0 0 16 14" fill="none" xmlns="http://www.w3.org/2000/svg">
<path d="M5.73268 14L4.46602 11.8667L2.06602 11.3333L2.29935 8.86667L0.666016 7L2.29935 5.13333L2.06602 2.66667L4.46602 2.13333L5.73268 0L7.99935 0.966667L10.266 0L11.5327 2.13333L13.9327 2.66667L13.6993 5.13333L15.3327 7L13.6993 8.86667L13.9327 11.3333L11.5327 11.8667L10.266 14L7.99935 13.0333L5.73268 14ZM6.29935 12.3L7.99935 11.5667L9.73268 12.3L10.666 10.7L12.4993 10.2667L12.3327 8.4L13.566 7L12.3327 5.56667L12.4993 3.7L10.666 3.3L9.69935 1.7L7.99935 2.43333L6.26602 1.7L5.33268 3.3L3.49935 3.7L3.66602 5.56667L2.43268 7L3.66602 8.4L3.49935 10.3L5.33268 10.7L6.29935 12.3ZM7.29935 9.36667L11.066 5.6L10.1327 4.63333L7.29935 7.46667L5.86602 6.06667L4.93268 7L7.29935 9.36667Z" fill="#6A3D19"/>
</svg>
