<svg width="20" height="20" viewBox="0 0 20 20" fill="none" xmlns="http://www.w3.org/2000/svg">
<path d="M12.916 14.0837L14.0827 12.917C14.166 12.8337 14.2077 12.7364 14.2077 12.6253C14.2077 12.5142 14.166 12.417 14.0827 12.3337L11.2493 9.47949C11.3049 9.32671 11.3466 9.17394 11.3743 9.02116C11.4021 8.86838 11.416 8.69477 11.416 8.50033C11.416 7.70866 11.1348 7.03158 10.5723 6.46908C10.0098 5.90658 9.33268 5.62533 8.54102 5.62533C8.3049 5.62533 8.06879 5.65658 7.83268 5.71908C7.59657 5.78158 7.3674 5.86838 7.14518 5.97949L9.10352 7.93783L7.93685 9.10449L5.97852 7.14616C5.8674 7.36838 5.7806 7.59755 5.7181 7.83366C5.6556 8.06977 5.62435 8.30588 5.62435 8.54199C5.62435 9.33366 5.9056 10.0107 6.4681 10.5732C7.0306 11.1357 7.70768 11.417 8.49935 11.417C8.6799 11.417 8.85004 11.4031 9.00977 11.3753C9.16949 11.3475 9.32574 11.3059 9.47852 11.2503L12.3327 14.0837C12.416 14.167 12.5132 14.2087 12.6243 14.2087C12.7355 14.2087 12.8327 14.167 12.916 14.0837ZM9.99935 18.3337C8.84657 18.3337 7.76324 18.1149 6.74935 17.6774C5.73546 17.2399 4.85352 16.6462 4.10352 15.8962C3.35352 15.1462 2.75977 14.2642 2.32227 13.2503C1.88477 12.2364 1.66602 11.1531 1.66602 10.0003C1.66602 8.84755 1.88477 7.76421 2.32227 6.75033C2.75977 5.73644 3.35352 4.85449 4.10352 4.10449C4.85352 3.35449 5.73546 2.76074 6.74935 2.32324C7.76324 1.88574 8.84657 1.66699 9.99935 1.66699C11.1521 1.66699 12.2355 1.88574 13.2493 2.32324C14.2632 2.76074 15.1452 3.35449 15.8952 4.10449C16.6452 4.85449 17.2389 5.73644 17.6764 6.75033C18.1139 7.76421 18.3327 8.84755 18.3327 10.0003C18.3327 11.1531 18.1139 12.2364 17.6764 13.2503C17.2389 14.2642 16.6452 15.1462 15.8952 15.8962C15.1452 16.6462 14.2632 17.2399 13.2493 17.6774C12.2355 18.1149 11.1521 18.3337 9.99935 18.3337ZM9.99935 16.667C11.8605 16.667 13.4368 16.0212 14.7285 14.7295C16.0202 13.4378 16.666 11.8614 16.666 10.0003C16.666 8.13921 16.0202 6.56283 14.7285 5.27116C13.4368 3.97949 11.8605 3.33366 9.99935 3.33366C8.13824 3.33366 6.56185 3.97949 5.27018 5.27116C3.97852 6.56283 3.33268 8.13921 3.33268 10.0003C3.33268 11.8614 3.97852 13.4378 5.27018 14.7295C6.56185 16.0212 8.13824 16.667 9.99935 16.667Z" fill="#BC8212"/>
</svg>
