<svg width="688" height="605" viewBox="0 0 688 605" fill="none" xmlns="http://www.w3.org/2000/svg">
<path d="M486.986 584.144C481.93 588.102 473.723 593.485 462.463 597.594C456.788 599.63 450.383 601.422 442.835 602.433C438.84 602.781 434.736 603.133 430.543 603.508C425.867 603.449 420.952 603.234 416.039 603.079C414.867 603.116 413.376 602.753 412.035 602.59C410.658 602.388 409.279 602.165 407.883 601.963C405.109 601.538 402.336 601.134 399.525 600.71C398.168 600.588 396.601 600.085 395.11 599.723L390.58 598.555C387.56 597.77 384.54 596.985 381.502 596.2C369.093 592.335 356.453 588.006 344.052 583.833C331.631 579.559 319.408 575.319 307.643 571.27C299.269 568.342 291.206 565.526 283.689 562.898C271.03 558.529 258.403 554.037 245.79 549.421L226.931 542.383L208.76 535.447C197.145 531.005 186.597 527.224 176.998 524.354C167.455 521.544 158.934 519.683 151.457 518.913C150.552 518.839 149.518 518.667 148.742 518.65C147.946 518.613 147.169 518.555 146.372 518.478C144.785 518.486 143.192 518.352 141.625 518.441C138.487 518.518 135.356 518.779 132.557 519.315C129.758 519.831 127.033 520.406 124.837 521.189C122.605 521.932 120.716 522.706 119.095 523.39C117.565 524.112 116.376 524.762 115.222 525.37C115.098 525.455 114.957 525.541 114.814 525.607L114.583 525.716L114.458 525.761L114.423 525.783L114.405 525.783C115.071 526.314 108.524 521.184 111.316 523.365L111.446 523.484C112.187 524.095 112.888 524.604 113.587 525.012C113.734 525.109 113.99 525.224 114.028 525.284L113.956 525.286L113.739 525.252C113.667 525.254 113.52 525.198 113.449 525.22C113.378 525.263 113.307 525.306 113.218 525.35C112.751 525.426 112.494 525.842 111.927 526.187C111.636 526.686 111.055 527.154 110.75 527.797C109.992 528.965 109.173 530.502 108.685 531.641L108.514 531.953L108.431 532.181C108.364 532.346 108.279 532.512 108.159 532.72C107.987 532.991 107.988 533.012 107.849 533.18C107.727 533.326 107.535 533.537 107.325 533.748C107.184 533.854 106.972 534.004 106.69 534.217L106.232 534.599C106.075 534.747 105.949 534.771 105.773 534.899C105.649 534.985 105.349 535.198 105.103 535.41C104.839 535.623 104.592 535.835 104.329 536.068L103.961 536.427L103.732 536.618C103.557 536.766 103.452 536.872 103.224 537.083C102.715 537.569 102.157 538.199 101.567 538.953C101.01 539.604 100.456 540.357 99.8345 541.275C99.2133 542.193 98.5606 543.256 97.8761 544.462C97.1923 545.689 96.5793 546.873 95.8844 548.325C93.0645 553.991 90.0718 562.238 85.0763 572.242C79.8399 582.622 74.2258 591.297 67.0074 597.12C63.4163 600.031 59.425 602.259 55.2907 603.368C53.1971 603.944 51.0252 604.318 48.7735 604.449C46.5038 604.581 44.1911 604.489 41.9758 604.047C37.5098 603.184 32.5471 601.437 28.2322 598.465C26.0213 597.001 23.7847 595.292 21.6314 593.356C19.6217 591.395 17.6411 589.209 15.7256 586.796C8.28186 577.197 2.80262 564.023 1.23681 549.603C-0.748335 532.131 0.346516 515.055 4.18331 498.526C5.26404 494.385 6.27393 490.287 7.6102 486.241C9.0547 482.191 10.3922 478.185 12.165 474.247C13.0605 472.278 13.9745 470.329 14.9066 468.379C15.8207 466.43 16.772 464.52 17.9044 462.626C19.0006 460.732 20.0976 458.859 21.2311 457.005L22.9318 454.234L24.6265 451.852C33.5787 439.089 44.2971 428.58 55.5241 420.508C66.7679 412.394 78.4625 406.596 90.0815 402.434C101.718 398.273 113.316 395.747 124.841 394.368C127.717 394.014 130.598 393.822 133.478 393.569C136.359 393.378 139.226 393.309 142.092 393.2L150.702 393.24L158.907 393.639C180.644 395.132 200.702 399.476 219.43 403.432C231.601 406.018 243.032 409.199 253.831 412.359L269.66 417.099L285.312 421.948C295.736 425.221 306.109 428.599 316.483 432.017L324.25 434.576C326.603 435.381 330.358 436.593 329.955 436.422L333.159 437.303C337.347 438.522 341.471 439.988 345.794 441.489C347.946 442.22 350.201 442.783 352.437 442.714C353.555 442.679 354.666 442.44 355.642 441.899C356.636 441.378 357.438 440.454 357.927 439.335C358.973 436.994 358.321 434.01 357.054 431.577C355.823 429.101 354.281 427.085 352.902 425.125C351.507 423.186 350.151 421.348 348.78 419.613C347.426 417.857 346.057 416.182 344.688 414.529C343.994 413.692 343.319 412.875 342.59 412.06L338.791 407.682C336.957 405.552 335.104 403.423 333.161 401.297C302.959 367.166 268.756 332.608 235.377 292.036L229.489 284.903C227.52 282.512 225.6 279.956 223.665 277.502L217.822 270.04L214.891 266.31L212.045 262.413L206.335 254.6L203.471 250.684C202.51 249.385 201.588 248.147 200.489 246.485C198.39 243.382 196.291 240.28 194.277 237.011C193.27 235.387 192.228 233.805 191.256 232.119L188.206 226.88C187.063 224.933 185.737 222.317 184.509 219.965C183.279 217.551 182.067 215.115 180.89 212.679L177.591 205.2C176.503 202.7 175.343 200.222 174.451 197.634L171.578 189.938L170.868 188.018L170.284 186.054L169.097 182.086C168.347 179.452 167.472 176.843 166.831 174.207C166.189 171.549 165.584 168.891 165.014 166.232C160.419 144.897 160.225 122.935 164.506 102.081C166.874 91.729 170.097 81.6159 174.604 72.1578C179.094 62.741 184.723 53.9634 191.174 46.0798C203.978 30.091 220.816 18.4524 239.492 10.8438C241.826 9.89277 244.238 9.08237 246.631 8.27254C249.042 7.46214 251.434 6.63189 253.926 6.08467L261.356 4.19911C263.826 3.55037 266.399 3.28672 268.929 2.82004L272.735 2.19119L274.639 1.88697L276.564 1.70469L284.283 0.974998C286.873 0.690378 289.433 0.61103 292.01 0.51071L295.869 0.411546L299.477 0.381452C306.553 0.42781 313.509 0.702652 320.098 1.35671L322.595 1.58583L324.769 1.84542L329.081 2.38615L337.688 3.5294C377.288 9.00475 415.956 21.0687 452.989 36.882C490.059 52.7351 525.445 72.4618 559.857 93.3426C563.904 95.8328 568.371 97.8809 573.103 99.7573C577.851 101.592 582.696 103.608 587.698 105.456C592.666 107.366 597.759 109.252 602.629 111.512C607.449 113.876 612.149 116.469 616.465 119.502C620.01 122.07 624.281 124.798 628.609 128.179C632.97 131.497 637.61 135.052 642.198 138.69C646.821 142.266 651.202 146.238 655.219 150.057C659.235 153.877 662.87 157.627 665.793 161.092C670.799 167.149 675.522 173.991 682.067 177.283C689.635 181.013 694.935 185.467 698.29 190.083C701.628 194.721 702.883 199.688 702.005 205.151C700.287 216.076 689.909 228.863 671.339 245.726C663.216 253.191 656.666 266.616 646.927 267.98C646.532 268.033 645.724 268.16 645.295 268.296C641.094 269.591 637.31 270.342 633.872 270.633C632.162 270.767 630.521 270.798 628.984 270.723C627.413 270.669 625.893 270.553 624.46 270.311C618.692 269.366 613.996 266.896 609.78 263.614C608.725 262.788 607.706 261.921 606.703 261.012C605.666 260.145 604.664 259.256 603.661 258.327C601.672 256.468 599.734 254.505 597.797 252.542C593.887 248.658 590.077 244.505 585.53 241.621C563.716 226.603 540.982 213.33 517.836 201.337C494.639 189.427 470.957 178.778 446.757 170.026C422.557 161.294 397.939 154.169 373.101 148.727C366.873 147.49 360.675 146.067 354.415 144.974L335.662 141.938C329.392 141.09 323.11 140.447 316.842 139.681L312.133 139.132L308.099 138.808C305.478 138.664 302.874 138.499 300.438 138.514L298.308 138.477L297.623 138.519C297.154 138.534 296.723 138.588 296.309 138.621C295.463 138.709 294.619 138.817 293.794 138.985C292.144 139.322 290.499 139.823 288.992 140.667C285.957 142.314 283.773 145.815 283.675 149.639C283.523 153.465 285.099 157.156 287.061 159.895L287.888 160.973C288.04 161.193 288.095 161.232 288.305 161.593L288.895 162.576C289.293 163.218 289.657 163.881 290.11 164.521C290.998 165.821 291.815 167.124 292.757 168.403L294.169 170.321C294.64 170.96 295.056 171.561 295.714 172.398C300.599 178.623 305.231 184.855 310.666 190.776C316.284 197.366 323.369 202.95 329.783 209.025C336.539 215.069 342.642 221.582 347.652 230.091L347.463 229.832C361.315 243.564 376.828 256.182 390.973 271.785C397.25 278.682 403.564 285.597 409.897 292.533C416.362 299.689 422.861 306.742 429.465 314.282C435.449 321.045 441.552 328.151 447.225 335.352L464.604 356.904C466.121 358.676 467.351 360.538 468.672 362.377L472.614 367.895L480.499 378.931C483.104 382.61 485.799 386.307 488.331 389.989L495.081 401.06L501.83 412.131L505.196 417.667L506.87 420.435C507.313 421.341 507.646 422.209 508.054 423.116C511.125 430.234 514.197 437.353 517.251 444.451L519.527 449.776C519.989 450.701 520.048 451.456 520.272 452.266L520.834 454.68C521.565 457.887 522.315 461.113 523.046 464.319C523.777 467.525 524.508 470.731 525.238 473.937C525.558 475.521 526.061 477.181 526.215 478.668C526.37 480.155 526.578 481.64 526.714 483.128C527.73 494.949 527.196 506.246 525.029 517.838C523.854 523.596 522.378 529.527 520.125 535.442L518.405 539.929C517.747 541.401 517.016 542.854 516.339 544.305C514.842 547.233 513.363 550.16 511.865 553.088C509.205 556.93 506.684 560.585 504.249 564.134C502.928 565.749 501.624 567.342 500.317 568.854C498.972 570.265 497.627 571.717 496.279 573.046C493.514 575.829 491.143 580.868 486.986 584.144Z" fill="#F5E8FF"/>
</svg>
