<svg width="315" height="216" viewBox="0 0 315 216" fill="none" xmlns="http://www.w3.org/2000/svg">
<path d="M184.311 58.2984C389.703 203.886 225.972 290.767 118.433 316.012C59.3373 336.204 13.5829 281.86 -1.90632 252.161C-77.5842 -22.1305 90.703 8.64218 184.311 58.2984Z" fill="#FBF5FF"/>
<path d="M253.743 194.95C249.006 190.096 241.231 190.001 236.378 194.738C231.524 199.476 231.429 207.251 236.165 212.105C240.902 216.96 248.676 217.054 253.53 212.317C258.384 207.579 258.479 199.804 253.743 194.95Z" fill="#F5E8FF"/>
<path d="M238.926 144.61C234.189 139.756 226.415 139.661 221.561 144.399C216.707 149.136 216.612 156.912 221.348 161.766C226.085 166.62 233.86 166.714 238.713 161.977C243.567 157.239 243.662 149.464 238.926 144.61Z" fill="#F5E8FF"/>
<path d="M197.584 98.2151C192.847 93.361 185.073 93.2664 180.219 98.0039C175.365 102.741 175.27 110.517 180.006 115.371C184.743 120.225 192.517 120.32 197.371 115.582C202.225 110.845 202.32 103.069 197.584 98.2151Z" fill="#F5E8FF"/>
<path d="M64.1312 76.7656L69.5254 283.002C70.2105 263.813 84.8377 225.283 113.649 207.094C138.393 191.482 146.771 190.616 140.176 192.725M140.176 192.725C150.224 189.509 170.455 184.085 178.348 201.955C186.246 219.797 175.405 231.947 169.004 235.764C161.172 240.381 143.172 244.902 133.853 226.038C124.536 207.175 134.181 195.98 140.176 192.725Z" stroke="#F5E8FF" stroke-width="10" stroke-linecap="round"/>
</svg>
