<svg width="304" height="366" viewBox="0 0 304 366" fill="none" xmlns="http://www.w3.org/2000/svg">
<path d="M255.311 58.2984C460.703 203.886 296.972 290.767 189.433 316.012C130.337 336.204 84.5829 281.86 69.0937 252.161C-6.58421 -22.1305 161.703 8.64218 255.311 58.2984Z" fill="#FBF5FF"/>
<path d="M324.743 194.95C320.006 190.096 312.231 190.001 307.378 194.738C302.524 199.476 302.429 207.251 307.165 212.105C311.902 216.96 319.676 217.054 324.53 212.317C329.384 207.579 329.479 199.804 324.743 194.95Z" fill="#F5E8FF"/>
<path d="M309.926 144.61C305.189 139.756 297.415 139.661 292.561 144.399C287.707 149.136 287.612 156.912 292.348 161.766C297.085 166.62 304.86 166.714 309.713 161.977C314.567 157.239 314.663 149.464 309.926 144.61Z" fill="#F5E8FF"/>
<path d="M268.584 98.2151C263.847 93.361 256.073 93.2664 251.219 98.0039C246.365 102.741 246.27 110.517 251.006 115.371C255.743 120.225 263.517 120.32 268.371 115.582C273.225 110.845 273.32 103.069 268.584 98.2151Z" fill="#F5E8FF"/>
<path d="M135.131 76.7656L140.525 283.002C141.211 263.813 155.838 225.283 184.649 207.094C209.393 191.482 217.771 190.616 211.176 192.725M211.176 192.725C221.224 189.509 241.454 184.085 249.348 201.955C257.246 219.797 246.405 231.947 240.004 235.764C232.172 240.381 214.172 244.902 204.853 226.038C195.535 207.175 205.181 195.98 211.176 192.725Z" stroke="#F5E8FF" stroke-width="10" stroke-linecap="round"/>
</svg>
