<svg width="60" height="66" viewBox="0 0 60 66" fill="none" xmlns="http://www.w3.org/2000/svg">
<g clip-path="url(#clip0_11114_132326)">
<mask id="mask0_11114_132326" style="mask-type:luminance" maskUnits="userSpaceOnUse" x="0" y="0" width="60" height="66">
<path d="M60 0.619141H0V65.6191H60V0.619141Z" fill="white"/>
</mask>
<g mask="url(#mask0_11114_132326)">
<path d="M53.9 10.8183C53.7 9.31824 52.8 8.51824 51.5 8.51824C47.6 8.81824 27.7 8.21824 26.1 8.51824C24.7 8.81824 24.1 9.61824 24 11.2183V27.9183H54C54 22.4183 53.8 13.1183 54 10.7183L53.9 10.8183Z" fill="#E8BB20" stroke="#1B1919" stroke-linecap="round" stroke-linejoin="round"/>
<path d="M23.9999 27.6191V31.3191C23.9999 32.8191 24.5999 33.7191 25.8999 34.0191C26.3999 34.1191 34.0999 34.0191 35.5999 34.0191C35.8999 34.0191 36.2999 34.0191 36.6999 34.0191C38.1999 34.0191 39.7999 34.0191 41.2999 34.0191C42.8999 34.0191 51.5999 34.1191 52.0999 34.0191C53.0999 33.8191 53.6999 33.0191 53.8999 31.8191C53.8999 31.4191 53.8999 29.8191 53.8999 27.6191H23.8999H23.9999Z" fill="#A7A9AC" stroke="#1B1919" stroke-linecap="round" stroke-linejoin="round"/>
<path d="M44 38.4199C43.6 37.1199 43.1 35.7199 42.7 34.4199H35.3C34.9 35.7199 34.4 37.1199 34 38.4199H44Z" fill="#A7A9AC" stroke="#1B1919" stroke-linecap="round" stroke-linejoin="round"/>
<path d="M39 18.9199C45 18.9199 45 24.9199 45 24.9199H33C33 24.9199 33 18.9199 39 18.9199Z" fill="#F8D868" stroke="white" stroke-miterlimit="10"/>
<path d="M38.5001 12.0199C41.3001 11.7199 43.1001 14.8199 41.2001 16.9199C39.1001 19.3199 35.3001 17.2199 36.1001 14.0199C36.4001 13.0199 37.4001 12.1199 38.5001 11.9199V12.0199Z" fill="#F8D868" stroke="white" stroke-miterlimit="10"/>
<path d="M40 29.6191H38V31.6191H40V29.6191Z" fill="#1B1919"/>
<path d="M14.6999 24.1195C14.5999 24.1195 14.4999 24.1195 14.3999 24.1195C14.3999 29.2195 14.3999 34.4195 14.3999 39.5195C15.2999 39.5195 16.2999 39.5195 17.1999 39.5195C17.2999 39.5195 17.3999 39.5195 17.4999 39.5195C17.4999 35.6195 17.4999 31.7195 17.4999 27.8195H17.5999H18.5999H18.6999C18.6999 31.8195 18.6999 35.6195 18.6999 39.4195H18.9999H21.7999C21.7999 34.3195 21.7999 29.1195 21.7999 24.0195C21.6999 24.0195 21.5999 24.0195 21.4999 24.0195C19.1999 24.0195 16.8999 24.0195 14.4999 24.0195L14.6999 24.1195Z" fill="#1B1919" stroke="#1B1919" stroke-linecap="round" stroke-linejoin="round"/>
<path d="M25.4 20.1189H25.7C26.2 16.4189 24.4 12.1189 20.1 12.5189C18.8 13.4189 17.5 13.4189 16.2 12.5189C13.9 12.2189 12.7 14.5189 11 15.6189C11 16.8189 11.9 17.0189 12.7 17.9189C13.3 17.3189 13.8 16.6189 14.4 16.1189C14.4 18.8189 14.4 21.5189 14.4 24.1189C16.9 24.1189 19.5 24.1189 22 24.1189C22 21.5189 22 18.8189 22 16.2189C22 16.7189 22 17.1189 22 17.6189C23.3 17.5189 23.3 18.9189 23.2 20.0189C23.3 20.0189 25.2 20.0189 25.4 20.0189V20.1189Z" fill="white" stroke="#E8BB20" stroke-linecap="round" stroke-linejoin="round"/>
<path d="M11.0001 15.6184C11.0001 15.2184 11.2001 13.9184 11.2001 13.3184C11.9001 12.3184 14.1001 10.3184 11.2001 11.0184C10.9001 10.1184 11.4001 9.11839 10.7001 8.91839C10.1001 8.71839 9.2001 9.71839 9.1001 10.6184C9.1001 11.0184 9.1001 17.7184 9.1001 18.1184C9.6001 19.3184 11.1001 19.5184 12.7001 18.0184L12.5001 17.8184C11.8001 16.9184 11.1001 16.8184 11.0001 15.7184V15.6184Z" fill="#F8D868"/>
<path d="M25.7 20.1191H25.4H23.5H23.2C23.2 21.0191 23.2 24.6191 23.2 24.8191C23.5 26.3191 25.1 26.3191 25.5 25.0191C25.5 24.8191 25.6 20.8191 25.5 20.1191H25.7Z" fill="#F8D868"/>
<path d="M18.1999 11.2191C19.6999 11.2191 20.9999 10.0191 20.9999 8.41914C20.9999 6.81914 19.7999 5.61914 18.1999 5.61914C16.5999 5.61914 15.3999 6.81914 15.3999 8.41914C15.3999 10.0191 16.5999 11.2191 18.1999 11.2191Z" fill="#F8D868"/>
<path d="M19.226 14.8829L19.0491 14.8495C19.0491 14.8495 18.0985 19.8804 18.0837 19.9591C17.9854 19.9405 17.9057 19.8237 17.7325 19.7706C17.4611 19.6989 17.0458 19.7426 16.7999 19.859C16.3193 20.0328 15.8563 20.7594 16.4481 21.0748C17.0828 21.3779 17.9124 21.1886 18.1948 20.4482C18.2282 20.2713 18.8409 17.0287 18.9114 16.6553C19.9318 17.072 20.5849 18.3556 19.3971 19.9019C19.3934 19.9216 19.3663 19.9572 19.3429 19.9731C19.6504 19.7462 20.6608 18.492 20.0742 17.1803C19.8356 16.5043 19.1604 16.0917 19.1873 15.303C19.2142 14.5143 19.226 14.8829 19.226 14.8829Z" fill="#231F20"/>
<path d="M30 60.6191C41.0457 60.6191 50 58.8282 50 56.6191C50 54.41 41.0457 52.6191 30 52.6191C18.9543 52.6191 10 54.41 10 56.6191C10 58.8282 18.9543 60.6191 30 60.6191Z" fill="#F8D868"/>
<path d="M32 38.4199H46" stroke="#1B1919" stroke-linecap="round" stroke-linejoin="round"/>
<path d="M30.1 48.2191C34 47.3191 38.2 45.6191 42.4 43.1191C43.2 42.8191 44 42.6191 44.8 42.6191H47.4L35.8 51.8191L30 48.1191L30.1 48.2191Z" fill="white" stroke="#1B1919" stroke-width="0.9" stroke-linecap="round" stroke-linejoin="round"/>
<path d="M17.1 44.1191H8.5V55.2191H17.1V44.1191Z" fill="#1B1919" stroke="#1B1919" stroke-width="0.9" stroke-linecap="round" stroke-linejoin="round"/>
<path d="M16.8 55.2191C16.8 55.2191 28.1 55.2191 34.2001 55.2191C40.3001 55.2191 51.6 44.1191 51.6 44.1191H50.1C48.4 44.1191 46.8 44.5191 45.3 45.2191C42.4 46.6191 38.7 48.7191 34.3 49.6191L24.7001 45.9191L32.3 41.3191L32.5 40.9191C33.3 39.4191 32.2 37.6191 30.5 37.6191L23.1 41.4191L17 44.0191V55.1191L16.8 55.2191Z" fill="white" stroke="#1B1919" stroke-width="0.9" stroke-linecap="round" stroke-linejoin="round"/>
</g>
</g>
<defs>
<clipPath id="clip0_11114_132326">
<rect width="60" height="65" fill="white" transform="translate(0 0.619141)"/>
</clipPath>
</defs>
</svg>
