<svg width="62" height="62" viewBox="0 0 62 62" fill="none" xmlns="http://www.w3.org/2000/svg">
<path d="M0 0H62V62H0V0Z" fill="white" fill-opacity="0.01"/>
<path d="M6.46354 20.666H55.5469C56.2603 20.666 56.8385 21.2443 56.8385 21.9577V50.3743C56.8385 51.0877 56.2603 51.666 55.5469 51.666H38.7552L31.0159 43.9177L23.2552 51.666H6.46354C5.75018 51.666 5.17188 51.0877 5.17188 50.3743V21.9577C5.17188 21.2443 5.75018 20.666 6.46354 20.666Z" fill="#F8D867" stroke="#6F219E" stroke-width="3" stroke-linejoin="round"/>
<path d="M18.0885 41.3333C20.942 41.3333 23.2552 39.0201 23.2552 36.1667C23.2552 33.3132 20.942 31 18.0885 31C15.2351 31 12.9219 33.3132 12.9219 36.1667C12.9219 39.0201 15.2351 41.3333 18.0885 41.3333Z" fill="#E9BB18" stroke="white" stroke-width="3" stroke-linecap="round" stroke-linejoin="round"/>
<path d="M43.922 41.3333C46.7755 41.3333 49.0887 39.0201 49.0887 36.1667C49.0887 33.3132 46.7755 31 43.922 31C41.0686 31 38.7554 33.3132 38.7554 36.1667C38.7554 39.0201 41.0686 41.3333 43.922 41.3333Z" fill="#E9BB18" stroke="white" stroke-width="3" stroke-linecap="round" stroke-linejoin="round"/>
<path d="M7.75 12.916H54.25" stroke="#6F219E" stroke-width="3" stroke-linecap="round" stroke-linejoin="round"/>
</svg>
