<svg width="60" height="66" viewBox="0 0 60 66" fill="none" xmlns="http://www.w3.org/2000/svg">
<g clip-path="url(#clip0_11114_132276)">
<mask id="mask0_11114_132276" style="mask-type:luminance" maskUnits="userSpaceOnUse" x="0" y="0" width="60" height="66">
<path d="M60 0.619141H0V65.6191H60V0.619141Z" fill="white"/>
</mask>
<g mask="url(#mask0_11114_132276)">
<path d="M29 6.61992L29.4 8.01992C29.6 8.81992 30.2 9.41992 31 9.61992C30.2 10.0199 29.6 10.6199 29.4 11.2199L29 12.6199L28.6 11.2199C28.4 10.4199 27.8 9.81992 27 9.61992C27.8 9.41992 28.4 8.61992 28.6 7.81992L29 6.41992V6.61992Z" fill="#E88426"/>
<path d="M49 20.6191L49.4 21.9191C49.6 22.7191 50.2 23.3191 51 23.6191C50.2 23.9191 49.7 24.5192 49.4 25.3192L49 26.6191L48.6 25.3192C48.4 24.5192 47.8 23.9191 47 23.6191C47.8 23.3191 48.4 22.7191 48.6 21.9191L49 20.6191Z" fill="#E88426"/>
<path d="M30 60.6191C41.0457 60.6191 50 58.8283 50 56.6191C50 54.41 41.0457 52.6191 30 52.6191C18.9543 52.6191 10 54.41 10 56.6191C10 58.8283 18.9543 60.6191 30 60.6191Z" fill="#F5AD69"/>
<path d="M17.8999 11.6207H17.5999C17.5999 11.6207 19.0999 20.4207 19.0999 20.5207C18.8999 20.5207 18.6999 20.4207 18.3999 20.5207C17.8999 20.5207 17.1999 20.9207 16.8999 21.2207C16.1999 21.8207 15.8999 23.2207 16.9999 23.4207C18.1999 23.4207 19.4999 22.6207 19.4999 21.3207C19.4999 21.0207 18.4999 15.4207 18.3999 14.8207C20.3999 14.8207 22.2999 16.4207 21.1999 19.7207V19.8207C21.5999 19.2207 22.4999 16.6207 20.6999 14.8207C19.8999 13.9207 18.4999 13.6207 18.0999 12.3207C17.6999 11.0207 17.8999 11.6207 17.8999 11.6207Z" fill="#1B1919"/>
<path d="M30.9999 23.7191H30.5999C30.5999 23.6191 30.5999 23.6191 30.5999 23.6191H24.9999L22.5999 31.0191C22.2999 30.6191 21.7999 30.4191 21.1999 30.4191C20.1999 30.4191 19.3999 31.0192 19.2999 31.8192C19.2999 32.6192 19.8999 33.2191 20.8999 33.2191C21.8999 33.2191 22.6999 32.6192 22.7999 31.8192C22.7999 31.8192 23.9999 28.3191 24.6999 25.9191H29.7999L28.0999 31.0191C27.7999 30.6191 27.2999 30.4191 26.6999 30.4191C25.6999 30.4191 24.8999 31.0192 24.7999 31.8192C24.7999 32.6192 25.3999 33.2191 26.3999 33.2191C27.3999 33.2191 28.1999 32.6192 28.2999 31.8192L30.9999 23.8192V23.7191ZM24.9999 25.2191C25.0999 24.9191 25.1999 24.6191 25.2999 24.4191H30.3999L30.0999 25.2191H24.9999Z" fill="#1B1919"/>
<path d="M50.3999 31.2205L52.4999 38.2205H52.8999C52.8999 38.1205 50.8999 31.6205 50.8999 31.6205C51.2999 31.7205 51.7999 31.6205 52.1999 31.4205C52.8999 30.9205 53.1999 30.0205 52.8999 29.4205C52.5999 28.8205 51.7999 28.7205 51.0999 29.2205C50.3999 29.7205 50.0999 30.6205 50.3999 31.2205Z" fill="#231F20"/>
<path d="M46.1999 32.5194L48.2999 39.5195H48.6999C48.6999 39.4195 46.6999 32.9194 46.6999 32.9194C47.0999 33.0194 47.5999 32.9194 47.9999 32.7194C48.6999 32.2194 48.9999 31.3194 48.6999 30.7194C48.3999 30.1194 47.5999 30.0194 46.8999 30.5194C46.1999 31.0194 45.8999 31.9194 46.1999 32.5194Z" fill="#231F20"/>
<path d="M48.425 39.6259L52.922 38.2596L52.7476 37.6855L48.2506 39.0518L48.425 39.6259Z" fill="#231F20"/>
<path d="M47 15.4191C47 16.9191 46.7 18.2191 46 19.4191C45.3 20.6191 44.4 21.5191 43.3 22.2191V33.7191L39.5 37.6191L33.9 31.7191L35.8 29.1191L33.9 26.5191L35.8 23.7191V22.2191C34.7 21.5191 33.8 20.6191 33.1 19.4191C32.4 18.2191 32.1 16.9191 32.1 15.4191C32.1 13.2191 32.8 11.4191 34.3 9.91914C35.8 8.41914 37.5 7.61914 39.6 7.61914C41.7 7.61914 43.4 8.41914 44.9 9.91914C46.4 11.4191 47.1 13.3191 47.1 15.4191H47ZM43.4 18.6191C44.1 17.7191 44.5 16.6191 44.5 15.4191C44.5 14.2191 44 12.7191 43 11.7191C42 10.7191 40.8 10.2191 39.5 10.2191C38.2 10.2191 36.9 10.7191 36 11.7191C35.1 12.7191 34.5 13.9191 34.5 15.4191C34.5 16.9191 34.9 17.7191 35.6 18.6191C36.3 19.5191 37.2 20.1191 38.3 20.4191V24.5191L37 26.4191L38.9 29.1191L37.2 31.4191L39.5 33.8192L40.8 32.5191V20.4191C41.9 20.1191 42.8 19.5191 43.5 18.6191H43.4Z" fill="#F5AD69"/>
<path d="M44.4999 15.4207C44.4999 16.6207 44.0999 17.7207 43.3999 18.6207C42.6999 19.5207 41.7999 20.1207 40.6999 20.4207V32.5207L39.3999 33.8208L37.0999 31.4207L38.7999 29.1207L36.8999 26.4207L38.1999 24.5207V20.4207C37.0999 20.1207 36.1999 19.5207 35.4999 18.6207C34.7999 17.7207 34.3999 16.6207 34.3999 15.4207C34.3999 14.2207 34.8999 12.7207 35.8999 11.7207C36.8999 10.7207 38.0999 10.2207 39.3999 10.2207C40.6999 10.2207 41.9999 10.7207 42.8999 11.7207C43.7999 12.7207 44.3999 13.9207 44.3999 15.4207H44.4999ZM41.9999 15.4207C41.9999 14.7207 41.7999 14.1207 41.2999 13.6207C40.7999 13.1207 40.1999 12.8207 39.4999 12.8207C38.7999 12.8207 38.1999 13.1207 37.6999 13.6207C37.1999 14.1207 36.9999 14.7207 36.9999 15.4207C36.9999 16.1207 37.1999 16.7207 37.6999 17.2207C38.1999 17.7207 38.7999 18.0207 39.4999 18.0207C40.1999 18.0207 40.7999 17.7207 41.2999 17.2207C41.7999 16.7207 41.9999 16.1207 41.9999 15.4207Z" fill="#E88426"/>
<path d="M41.3 13.6203C41.8 14.1203 42 14.7203 42 15.4203C42 16.1203 41.8 16.7203 41.3 17.2203C40.8 17.7203 40.2 18.0203 39.5 18.0203C38.8 18.0203 38.2 17.7203 37.7 17.2203C37.2 16.7203 37 16.1203 37 15.4203C37 14.7203 37.2 14.1203 37.7 13.6203C38.2 13.1203 38.8 12.8203 39.5 12.8203C40.2 12.8203 40.8 13.1203 41.3 13.6203Z" fill="#F5AD69"/>
<path d="M8.09996 15.619C8.59996 15.419 9.69996 17.219 9.89996 17.619C9.89996 17.819 10.0999 18.019 10.1999 18.119C11.0999 20.219 10.5999 22.619 9.49996 24.419C9.79996 25.119 10.0999 25.719 10.3999 26.419C13.0999 25.419 15.1999 28.4191 14.2999 30.8191C13.9999 31.4191 13.5999 31.919 13.0999 32.419C13.3999 33.219 13.7999 33.919 14.0999 34.719C14.2999 35.219 14.4999 35.7191 14.3999 36.3191C14.3999 38.3191 11.3999 39.319 10.0999 37.719C8.99996 36.419 10.2999 34.519 11.5999 35.219C12.6999 35.819 12.4999 37.419 11.1999 37.619C11.1999 37.919 11.5999 38.0191 11.7999 38.0191C12.6999 38.0191 13.6999 37.419 13.8999 36.419C14.0999 35.219 13.0999 33.719 12.5999 32.619C10.1999 33.919 7.49996 32.7191 6.39996 30.3191C5.19996 27.5191 6.79996 25.1191 8.19996 22.8191C7.79996 22.1191 7.39996 21.119 7.19996 20.419C6.89996 19.219 6.79996 17.419 7.39996 16.319C7.39996 16.119 7.79996 15.619 7.99996 15.619H8.09996ZM8.69996 17.519C8.39996 17.519 8.09996 18.0191 7.99996 18.3191C7.49996 19.5191 7.79996 21.419 8.49996 22.519C9.09996 21.719 9.59996 20.719 9.69996 19.719C9.69996 19.119 9.69996 17.819 9.09996 17.519C8.99996 17.519 8.79996 17.519 8.69996 17.519ZM9.09996 24.919C8.19996 26.219 7.19996 27.819 7.19996 29.419C7.19996 32.319 9.99994 33.6191 12.4999 32.3191C11.8999 30.9191 11.2999 29.619 10.6999 28.219C9.69996 28.719 9.29996 30.319 10.2999 31.119C10.7999 31.519 11.2999 31.419 11.2999 31.619C11.2999 31.919 10.3999 31.619 10.2999 31.519C9.59996 31.119 8.99996 30.419 8.89996 29.619C8.69996 28.619 9.29996 27.4191 10.1999 26.8191C9.89996 26.2191 9.69996 25.619 9.39996 25.019L9.09996 24.919ZM10.9999 28.019C11.5999 29.419 12.1999 30.719 12.7999 32.119C14.5999 30.519 13.3999 27.619 10.9999 28.019Z" fill="#231F20"/>
<mask id="mask1_11114_132276" style="mask-type:luminance" maskUnits="userSpaceOnUse" x="8" y="37" width="44" height="19">
<path d="M51.9 37.2207H8V55.6207H51.9V37.2207Z" fill="white"/>
</mask>
<g mask="url(#mask1_11114_132276)">
<path d="M30.1 48.2211C34 47.3211 38.2 45.6211 42.4 43.1211C43.2 42.8211 44 42.6211 44.8 42.6211H47.4L35.8 51.8211L30 48.1211L30.1 48.2211Z" fill="white" stroke="#1B1919" stroke-width="0.9" stroke-linecap="round" stroke-linejoin="round"/>
<path d="M17.1 44.1211H8.5V55.2211H17.1V44.1211Z" fill="#1B1919" stroke="#1B1919" stroke-width="0.9" stroke-linecap="round" stroke-linejoin="round"/>
<path d="M16.8 55.2211C16.8 55.2211 28.1 55.2211 34.2001 55.2211C40.3001 55.2211 51.6 44.1211 51.6 44.1211H50.1C48.4 44.1211 46.8 44.5211 45.3 45.2211C42.4 46.6211 38.7 48.7211 34.3 49.6211L24.7001 45.9211L32.3 41.3211L32.5 40.9211C33.3 39.4211 32.2 37.6211 30.5 37.6211L23.1 41.4211L17 44.0211V55.1211L16.8 55.2211Z" fill="white" stroke="#1B1919" stroke-width="0.9" stroke-linecap="round" stroke-linejoin="round"/>
</g>
</g>
</g>
<defs>
<clipPath id="clip0_11114_132276">
<rect width="60" height="65" fill="white" transform="translate(0 0.619141)"/>
</clipPath>
</defs>
</svg>
