<svg width="62" height="62" viewBox="0 0 62 62" fill="none" xmlns="http://www.w3.org/2000/svg">
<path d="M0 0H62V62H0V0Z" fill="white" fill-opacity="0.01"/>
<path d="M29.4477 5.42656L5.70073 29.1736C4.69189 30.1824 4.69187 31.8181 5.70073 32.8269L29.4477 56.574C30.4565 57.5828 32.0923 57.5828 33.1011 56.574L56.8481 32.8269C57.8569 31.8181 57.8569 30.1824 56.8481 29.1736L33.1011 5.42656C32.0923 4.41771 30.4565 4.41771 29.4477 5.42656Z" fill="#F8D867" stroke="#6F219E" stroke-width="3" stroke-linejoin="round"/>
<path d="M30.9993 41.3327C36.7063 41.3327 41.3327 36.7063 41.3327 30.9993C41.3327 25.2924 36.7063 20.666 30.9993 20.666C25.2924 20.666 20.666 25.2924 20.666 30.9993C20.666 36.7063 25.2924 41.3327 30.9993 41.3327Z" fill="#E9BB18" stroke="white" stroke-width="3" stroke-linejoin="round"/>
</svg>
