<svg width="60" height="66" viewBox="0 0 60 66" fill="none" xmlns="http://www.w3.org/2000/svg">
<mask id="mask0_11114_132349" style="mask-type:luminance" maskUnits="userSpaceOnUse" x="0" y="0" width="60" height="66">
<path d="M60 0.619141H0V65.6191H60V0.619141Z" fill="white"/>
</mask>
<g mask="url(#mask0_11114_132349)">
<path d="M30 60.6191C41.0457 60.6191 50 58.8282 50 56.6191C50 54.41 41.0457 52.6191 30 52.6191C18.9543 52.6191 10 54.41 10 56.6191C10 58.8282 18.9543 60.6191 30 60.6191Z" fill="#D0BBDB"/>
<path d="M15.6 29.6191C16.2 29.6191 18.5 29.6191 19.1 29.7191C20 29.9191 21.3 30.7191 21.4 30.9191V31.5191C21.4 31.7191 19.9 32.4191 19 35.2191C18.8 35.7191 18.9 36.8191 18.2 37.1191C17.9 37.2191 11.8 37.1191 10.9 37.1191C11.1 35.7191 10.7 34.2191 11.3 32.8191C12 30.9191 13.6 29.8191 15.6 29.6191Z" fill="#D0BBDB"/>
<path d="M16.2001 17.6202C16.2001 17.6202 16.3001 17.6202 16.4001 17.6202C21.6001 17.2202 22.3001 25.1202 17.1001 25.6202C11.9001 26.1202 11.1001 18.3202 16.2001 17.6202Z" fill="#D0BBDB" stroke="#6D3293" stroke-linecap="round" stroke-linejoin="round"/>
<path d="M42.9999 17.6202C48.1999 17.2202 48.8999 25.1202 43.6999 25.6202C38.4999 26.1202 37.6999 18.2202 42.8999 17.6202H42.9999Z" stroke="#6D3293" stroke-linecap="round" stroke-linejoin="round"/>
<path d="M22.3 29.4191C22.3 29.1191 20.5 28.1191 19.4 27.8191C18.6 27.6191 15.8 27.6191 14.9 27.6191C12.4 27.9191 10.4 29.3191 9.49998 31.6191C8.79998 33.3191 9.29998 35.2191 9.09998 37.0191C10.3 37.0191 17.8 37.3191 18.2 37.0191" stroke="#6D3293" stroke-linecap="round" stroke-linejoin="round"/>
<path d="M37.9 29.4187C38 28.9187 40.2 27.8188 41.8 27.7188C42.3 27.7188 45.2 27.7188 45.6 27.7188C50.4 28.4187 51.7 33.1187 50.7 37.2187H41.8" fill="#D0BBDB"/>
<path d="M37.9 29.4187C38 28.9187 40.2 27.8188 41.8 27.7188C42.3 27.7188 45.2 27.7188 45.6 27.7188C50.4 28.4187 51.7 33.1187 50.7 37.2187H41.8" fill="#D0BBDB"/>
<path d="M37.9 29.4187C38 28.9187 40.2 27.8188 41.8 27.7188C42.3 27.7188 45.2 27.7188 45.6 27.7188C50.4 28.4187 51.7 33.1187 50.7 37.2187H41.8" stroke="#6D3293" stroke-linecap="round" stroke-linejoin="round"/>
<path d="M39.2 41.6203C38.9 37.7203 39.8 34.9203 36.6 31.9203C33.8 29.3203 27.3 29.2203 24.3 31.4203C20.7 34.1203 21 37.6203 21.2 41.6203H39.3H39.2Z" fill="#D0BBDB"/>
<path d="M39.2 41.6203C38.9 37.7203 39.8 34.9203 36.6 31.9203C33.8 29.3203 27.3 29.2203 24.3 31.4203C20.7 34.1203 21 37.6203 21.2 41.6203H39.3H39.2Z" fill="#D0BBDB"/>
<path d="M39.2 41.6203C38.9 37.7203 39.8 34.9203 36.6 31.9203C33.8 29.3203 27.3 29.2203 24.3 31.4203C20.7 34.1203 21 37.6203 21.2 41.6203H39.3H39.2Z" stroke="#6D3293" stroke-linecap="round" stroke-linejoin="round"/>
<path d="M29.9 17.6193C33.2 17.5193 35.8 20.9193 34.8 24.1193C33.4 28.3193 27.9 28.9193 25.7 25.0193C24 21.9193 26.4 17.8193 29.9 17.7193V17.6193Z" stroke="#6D3293" stroke-linecap="round" stroke-linejoin="round"/>
<path d="M42.7999 19.7203C45.3999 19.5203 45.6999 23.4203 43.1999 23.6203C40.5999 23.8203 40.1999 19.9203 42.7999 19.7203Z" fill="#D0BBDB"/>
<path d="M46.7999 13.7203C49.3999 13.5203 49.6999 17.4203 47.1999 17.6203C44.5999 17.8203 44.1999 13.9203 46.7999 13.7203Z" fill="#6D3293" stroke="#6D3293" stroke-linecap="round" stroke-linejoin="round"/>
<path d="M13 11.6191L13.1 17.9191L16.9 16.6191L13 11.6191Z" fill="#6D3293" stroke="#6D3293" stroke-linecap="round" stroke-linejoin="round"/>
<path d="M35 13.6191H25V19.6191H35V13.6191Z" fill="#6D3293" stroke="#6D3293" stroke-linecap="round" stroke-linejoin="round"/>
<path d="M39.1 41.6193C38.9 39.0193 39.5 37.0193 37.3 35.0193C35.4 33.2193 30.9 33.1193 28.9 34.7193C26.5 36.5193 26.7 38.9193 26.8 41.6193H39.1Z" fill="#6D3293" stroke="#6D3293" stroke-linecap="round" stroke-linejoin="round"/>
<path d="M20.9001 5.91963H20.6001C20.6001 5.91963 21.8001 13.0196 21.8001 13.1196C21.7001 13.1196 21.5001 13.1196 21.2001 13.1196C20.8001 13.1196 20.3001 13.4196 20.0001 13.7196C19.4001 14.2196 19.2001 15.4196 20.1001 15.5196C21.1001 15.5196 22.1001 14.9196 22.2001 13.8196C22.2001 13.6196 21.4001 9.01963 21.3001 8.51963C22.9001 8.51963 24.4001 9.81963 23.6001 12.5196C23.6001 12.5196 23.6001 12.5196 23.6001 12.6196C23.9001 12.1196 24.7001 10.0196 23.2001 8.61963C22.5001 7.91963 21.4001 7.71963 21.1001 6.61963C20.8001 5.51963 21.0001 6.01963 21.0001 6.01963L20.9001 5.91963Z" fill="#1B1919"/>
<path d="M39.7 13.4191L37.3 8.11914H37C37 8.21914 39.2 13.1191 39.2 13.1191C38.9 13.1191 38.5 13.1191 38.2 13.4191C37.7 13.9191 37.6 14.6191 37.9 15.0191C38.2 15.4191 38.9 15.4191 39.3 15.0191C39.8 14.5191 39.9 13.8191 39.6 13.4191H39.7Z" fill="#231F20"/>
<path d="M42.8 11.9191L40.4 6.61914H40.1C40.1 6.71914 42.3 11.6191 42.3 11.6191C42 11.6191 41.6 11.6191 41.3 11.9191C40.8 12.4191 40.7 13.1191 41 13.5191C41.3 13.9191 42 13.9191 42.4 13.5191C42.9 13.0191 43 12.3191 42.7 11.9191H42.8Z" fill="#231F20"/>
<path d="M40.3081 6.66211L36.9493 8.21408L37.159 8.66797L40.5178 7.116L40.3081 6.66211Z" fill="#231F20"/>
<path d="M30.1 48.2191C34 47.3191 38.2 45.6191 42.4 43.1191C43.2 42.8191 44 42.6191 44.8 42.6191H47.4L35.8 51.8191L30 48.1191L30.1 48.2191Z" fill="white" stroke="#1B1919" stroke-width="0.9" stroke-linecap="round" stroke-linejoin="round"/>
<path d="M17.1 44.1191H8.5V55.2191H17.1V44.1191Z" fill="#1B1919" stroke="#1B1919" stroke-width="0.9" stroke-linecap="round" stroke-linejoin="round"/>
<path d="M16.8 55.2191C16.8 55.2191 28.1 55.2191 34.2001 55.2191C40.3001 55.2191 51.6 44.1191 51.6 44.1191H50.1C48.4 44.1191 46.8 44.5191 45.3 45.2191C42.4 46.6191 38.7 48.7191 34.3 49.6191L24.7001 45.9191L32.3 41.3191L32.5 40.9191C33.3 39.4191 32.2 37.6191 30.5 37.6191L23.1 41.4191L17 44.0191V55.1191L16.8 55.2191Z" fill="white" stroke="#1B1919" stroke-width="0.9" stroke-linecap="round" stroke-linejoin="round"/>
</g>
</svg>
