<svg width="56" height="56" viewBox="0 0 56 56" fill="none" xmlns="http://www.w3.org/2000/svg">
<path fill-rule="evenodd" clip-rule="evenodd" d="M7.33415 12.4993C10.1876 12.4993 12.5008 10.1861 12.5008 7.33268C12.5008 4.47921 10.1876 2.16602 7.33415 2.16602C4.48067 2.16602 2.16748 4.47921 2.16748 7.33268C2.16748 10.1861 4.48067 12.4993 7.33415 12.4993Z" fill="#F8D867" stroke="#6F219E" stroke-width="3" stroke-linecap="round" stroke-linejoin="round"/>
<path fill-rule="evenodd" clip-rule="evenodd" d="M9.91748 51.25C14.1977 51.25 17.6675 47.7802 17.6675 43.5C17.6675 39.2198 14.1977 35.75 9.91748 35.75C5.63727 35.75 2.16748 39.2198 2.16748 43.5C2.16748 47.7802 5.63727 51.25 9.91748 51.25Z" fill="#F8D867" stroke="#6F219E" stroke-width="3" stroke-linecap="round" stroke-linejoin="round"/>
<path fill-rule="evenodd" clip-rule="evenodd" d="M46.0842 53.832C50.3644 53.832 53.8342 50.3622 53.8342 46.082C53.8342 41.8018 50.3644 38.332 46.0842 38.332C41.804 38.332 38.3342 41.8018 38.3342 46.082C38.3342 50.3622 41.804 53.832 46.0842 53.832Z" fill="#F8D867" stroke="#6F219E" stroke-width="3" stroke-linecap="round" stroke-linejoin="round"/>
<path fill-rule="evenodd" clip-rule="evenodd" d="M25.4173 33.1667C31.1243 33.1667 35.7507 28.5403 35.7507 22.8333C35.7507 17.1264 31.1243 12.5 25.4173 12.5C19.7103 12.5 15.084 17.1264 15.084 22.8333C15.084 28.5403 19.7103 33.1667 25.4173 33.1667Z" fill="#F8D867" stroke="#6F219E" stroke-width="3" stroke-linecap="round" stroke-linejoin="round"/>
<path fill-rule="evenodd" clip-rule="evenodd" d="M40.9176 12.4993C43.7711 12.4993 46.0843 10.1861 46.0843 7.33268C46.0843 4.47921 43.7711 2.16602 40.9176 2.16602C38.0642 2.16602 35.751 4.47921 35.751 7.33268C35.751 10.1861 38.0642 12.4993 40.9176 12.4993Z" fill="#F8D867" stroke="#6F219E" stroke-width="3" stroke-linecap="round" stroke-linejoin="round"/>
<path d="M11.2092 11.209L16.3759 16.3757" stroke="#6F219E" stroke-width="3" stroke-linecap="round" stroke-linejoin="round"/>
<path d="M35.7508 12.5L33.1675 15.0833" stroke="#6F219E" stroke-width="3" stroke-linecap="round" stroke-linejoin="round"/>
<path d="M40.9175 40.2695L33.1675 30.582" stroke="#6F219E" stroke-width="3" stroke-linecap="round" stroke-linejoin="round"/>
<path d="M15.084 37.0417L20.2507 31.875" stroke="#6F219E" stroke-width="3" stroke-linecap="round" stroke-linejoin="round"/>
</svg>
