<svg width="60" height="66" viewBox="0 0 60 66" fill="none" xmlns="http://www.w3.org/2000/svg">
<g clip-path="url(#clip0_11114_132300)">
<mask id="mask0_11114_132300" style="mask-type:luminance" maskUnits="userSpaceOnUse" x="0" y="0" width="60" height="66">
<path d="M60 0.619141H0V65.6191H60V0.619141Z" fill="white"/>
</mask>
<g mask="url(#mask0_11114_132300)">
<path d="M48.3783 24.5374L17.4243 20.627L15.9203 32.5324L46.8743 36.4428L48.3783 24.5374Z" fill="#448341" stroke="#78C374" stroke-miterlimit="10"/>
<path d="M45.6964 26.6174L19.5046 23.3086L18.6022 30.4518L44.794 33.7606L45.6964 26.6174Z" fill="#78C374"/>
<path d="M32.2 32.118C34.1882 32.118 35.8 30.5063 35.8 28.518C35.8 26.5298 34.1882 24.918 32.2 24.918C30.2118 24.918 28.6 26.5298 28.6 28.518C28.6 30.5063 30.2118 32.118 32.2 32.118Z" fill="#448341"/>
<path d="M33.4 27.8184C33.4 27.8184 33.4 27.8184 33.1 27.6184C32.8 27.4184 32.8 27.4183 32.7 27.4183C32.5 27.4183 32.3 27.4184 32.3 27.7184C32.3 28.0184 32.3 27.9184 32.6 28.1184C32.9 28.3184 33.1 28.5184 33.2 28.5184C33.4 28.7184 33.5 28.9184 33.4 29.2184C33.4 29.7184 32.9 30.0184 32.2 30.1184C32.2 30.4184 32.2 30.6184 32.2 30.6184C32.2 30.6184 32.2 30.6184 32.1 30.6184C32.1 30.6184 32.1 30.6184 32 30.6184C32 30.6184 32 30.6184 31.9 30.6184C31.9 30.6184 31.9 30.6184 31.9 30.5184C31.9 30.4184 31.9 30.3184 31.9 30.2184C31.3 30.2184 31.1 30.1184 31.1 30.0184C31.1 30.0184 31.1 29.8184 31.1 29.7184C31.1 29.7184 31.1 29.7184 31.1 29.5184C31.1 29.5184 31.1 29.4184 31.1 29.3184C31.1 29.3184 31.2 29.3184 31.4 29.3184C31.5 29.3184 31.6 29.3184 31.7 29.3184C32.1 29.3184 32.3 29.3184 32.3 29.1184C32.3 28.9184 32.3 28.9184 32 28.7184C31.7 28.4184 31.5 28.3184 31.5 28.2184C31.3 28.0184 31.2 27.8184 31.3 27.5184C31.4 27.2184 31.5 27.0183 31.7 26.9183C31.9 26.7183 32.2 26.7184 32.4 26.6184C32.4 26.6184 32.4 26.6184 32.4 26.5184C32.4 26.5184 32.4 26.4184 32.4 26.3184H32.9C32.9 26.3184 32.9 26.4184 32.9 26.5184C32.9 26.5184 32.9 26.6184 32.9 26.7184V26.8184C33 26.8184 33.2 26.8184 33.5 27.0184C33.8 27.1184 33.9 27.2184 33.9 27.3184C33.9 27.3184 33.9 27.4184 33.8 27.5184C33.8 27.5184 33.8 27.7184 33.7 27.8184H33.4Z" fill="white"/>
<path d="M22.7 28.5191C23.3627 28.5191 23.9 27.9818 23.9 27.3191C23.9 26.6564 23.3627 26.1191 22.7 26.1191C22.0373 26.1191 21.5 26.6564 21.5 27.3191C21.5 27.9818 22.0373 28.5191 22.7 28.5191Z" fill="white"/>
<path d="M41.8 30.9176C42.4627 30.9176 43 30.3804 43 29.7176C43 29.0549 42.4627 28.5176 41.8 28.5176C41.1372 28.5176 40.6 29.0549 40.6 29.7176C40.6 30.3804 41.1372 30.9176 41.8 30.9176Z" fill="white"/>
<path d="M37.1403 6.61133L6.828 14.0007L9.67006 25.6593L39.9824 18.27L37.1403 6.61133Z" fill="#448341" stroke="#78C374" stroke-miterlimit="10"/>
<path d="M35.377 9.51172L9.72815 15.7642L11.4334 22.7594L37.0823 16.5069L35.377 9.51172Z" fill="#78C374"/>
<path d="M23.3999 19.7176C25.3881 19.7176 26.9999 18.1058 26.9999 16.1176C26.9999 14.1294 25.3881 12.5176 23.3999 12.5176C21.4117 12.5176 19.7999 14.1294 19.7999 16.1176C19.7999 18.1058 21.4117 19.7176 23.3999 19.7176Z" fill="#448341"/>
<path d="M24.2 15.018C24.2 15.018 24.1 15.018 23.9 15.018C23.7 15.018 23.5 15.018 23.4 15.018C23.2 15.018 23.1 15.218 23.1 15.418C23.1 15.618 23.3 15.618 23.5 15.718C23.9 15.818 24.1 15.918 24.2 15.918C24.5 16.018 24.6 16.218 24.7 16.418C24.8 16.918 24.6 17.318 23.9 17.718C23.9 18.018 24 18.218 24 18.218C24 18.218 24 18.218 23.9 18.218C23.9 18.218 23.9 18.218 23.8 18.218C23.8 18.218 23.8 18.218 23.7 18.218C23.7 18.218 23.7 18.218 23.7 18.118C23.7 18.018 23.7 17.918 23.7 17.818C23.2 17.918 22.9 18.018 22.8 17.818C22.8 17.818 22.8 17.618 22.8 17.518C22.8 17.518 22.8 17.518 22.8 17.318C22.8 17.318 22.8 17.218 22.8 17.118C22.8 17.118 22.9 17.118 23.1 17.118C23.2 17.118 23.3 17.118 23.4 17.118C23.8 17.118 23.9 16.918 23.9 16.718C23.9 16.518 23.7 16.518 23.5 16.418C23.1 16.318 22.9 16.218 22.8 16.218C22.6 16.118 22.4 15.918 22.3 15.718C22.2 15.518 22.3 15.218 22.4 15.018C22.5 14.818 22.7 14.618 23 14.518C23 14.518 23 14.518 23 14.418C23 14.418 23 14.318 23 14.218V14.118H23.5C23.5 14.018 23.5 14.018 23.5 14.118C23.5 14.118 23.5 14.118 23.5 14.318V14.418C23.6 14.418 23.8 14.418 24.1 14.418C24.4 14.418 24.6 14.418 24.6 14.518C24.6 14.518 24.6 14.718 24.6 14.818C24.6 14.818 24.6 15.018 24.6 15.118L24.2 15.018Z" fill="white"/>
<path d="M14.0999 19.5191C14.7627 19.5191 15.2999 18.9818 15.2999 18.3191C15.2999 17.6564 14.7627 17.1191 14.0999 17.1191C13.4372 17.1191 12.8999 17.6564 12.8999 18.3191C12.8999 18.9818 13.4372 19.5191 14.0999 19.5191Z" fill="white"/>
<path d="M32.7 15.0191C33.3627 15.0191 33.9 14.4818 33.9 13.8191C33.9 13.1564 33.3627 12.6191 32.7 12.6191C32.0373 12.6191 31.5 13.1564 31.5 13.8191C31.5 14.4818 32.0373 15.0191 32.7 15.0191Z" fill="white"/>
<path d="M30.3999 60.6191C41.4456 60.6191 50.3999 58.8282 50.3999 56.6191C50.3999 54.41 41.4456 52.6191 30.3999 52.6191C19.3542 52.6191 10.3999 54.41 10.3999 56.6191C10.3999 58.8282 19.3542 60.6191 30.3999 60.6191Z" fill="#78C374"/>
<path d="M45.3999 38.5176C48.7136 38.5176 51.3999 35.8313 51.3999 32.5176C51.3999 29.2039 48.7136 26.5176 45.3999 26.5176C42.0862 26.5176 39.3999 29.2039 39.3999 32.5176C39.3999 35.8313 42.0862 38.5176 45.3999 38.5176Z" fill="#1B1919"/>
<path d="M43.3999 30.5176L47.3999 34.5176" stroke="white" stroke-linecap="round" stroke-linejoin="round"/>
<path d="M47.3999 30.5176L43.3999 34.5176" stroke="white" stroke-linecap="round" stroke-linejoin="round"/>
<path d="M8.90001 28.3182H8.60001C8.60001 28.3182 10 36.5181 10 36.6181C9.80001 36.6181 9.60001 36.6181 9.30001 36.6181C8.80001 36.6181 8.20001 37.0182 7.90001 37.3182C7.20001 37.8182 6.90001 39.2182 8.00001 39.3182C9.20001 39.3182 10.4 38.6182 10.4 37.3182C10.4 37.0182 9.50001 31.8181 9.40001 31.2181C11.3 31.2181 13 32.7182 12 35.8182C12 35.8182 12 35.8181 12 35.9181C12.4 35.4181 13.2 32.9181 11.6 31.3182C10.8 30.4181 9.50001 30.2181 9.10001 29.0181C8.70001 27.8181 8.90001 28.3182 8.90001 28.3182Z" fill="#1B1919"/>
<path d="M52.8 8.51758H52.4L46.8 10.0176L46.2 18.1176C45.8 17.8176 45.3 17.7176 44.6 17.8176C43.6 18.0176 42.9 18.9176 43 19.7176C43 20.5176 44 20.9176 44.9 20.7176C45.9 20.5176 46.6 19.6176 46.5 18.8176C46.5 18.8176 46.8 15.0176 47 12.4176L52.1 11.1176L51.7 16.7176C51.3 16.4176 50.8 16.3176 50.1 16.4176C49.1 16.6176 48.4 17.5176 48.5 18.3176C48.5 19.1176 49.5 19.5176 50.4 19.3176C51.4 19.1176 52.1 18.2176 52 17.4176L52.7 8.71758L52.8 8.51758ZM47.1 11.5176C47.1 11.1176 47.1 10.8176 47.1 10.6176L52.2 9.31758V10.2176L47 11.5176H47.1Z" fill="#1B1919"/>
<path d="M30.6 48.2191C34.5 47.3191 38.7 45.6191 42.9 43.1191C43.7 42.8191 44.5 42.6191 45.3 42.6191H47.9L36.3 51.8191L30.5 48.1191L30.6 48.2191Z" fill="white" stroke="#1B1919" stroke-width="0.9" stroke-linecap="round" stroke-linejoin="round"/>
<path d="M17.6 44.1191H9V55.2191H17.6V44.1191Z" fill="#1B1919" stroke="#1B1919" stroke-width="0.9" stroke-linecap="round" stroke-linejoin="round"/>
<path d="M17.2999 55.2191C17.2999 55.2191 28.5999 55.2191 34.6999 55.2191C40.7999 55.2191 52.0999 44.1191 52.0999 44.1191H50.5999C48.8999 44.1191 47.2999 44.5191 45.7999 45.2191C42.8999 46.6191 39.1999 48.7191 34.7999 49.6191L25.1999 45.9191L32.7999 41.3191L32.9999 40.9191C33.7999 39.4191 32.6999 37.6191 30.9999 37.6191L23.5999 41.4191L17.4999 44.0191V55.1191L17.2999 55.2191Z" fill="white" stroke="#1B1919" stroke-width="0.9" stroke-linecap="round" stroke-linejoin="round"/>
</g>
</g>
<defs>
<clipPath id="clip0_11114_132300">
<rect width="60" height="65" fill="white" transform="translate(0 0.619141)"/>
</clipPath>
</defs>
</svg>
