<svg width="38" height="39" viewBox="0 0 38 39" fill="none" xmlns="http://www.w3.org/2000/svg">
<rect x="4" y="3" width="30" height="30" rx="15" fill="#F6E892"/>
<path d="M14.7104 21.866C15.3176 21.866 15.9086 21.9356 16.4835 22.0749C17.0584 22.2142 17.63 22.4231 18.1985 22.7016V14.8625C17.6688 14.5442 17.1068 14.3054 16.5126 14.1463C15.9183 13.9871 15.3176 13.9075 14.7104 13.9075C14.2454 13.9075 13.7835 13.9539 13.3249 14.0468C12.8663 14.1396 12.4238 14.2789 11.9975 14.4646V22.3435C12.4497 22.1843 12.8986 22.065 13.3443 21.9854C13.79 21.9058 14.2454 21.866 14.7104 21.866ZM19.7487 22.7016C20.3171 22.4231 20.8888 22.2142 21.4637 22.0749C22.0385 21.9356 22.6296 21.866 23.2367 21.866C23.7018 21.866 24.1572 21.9058 24.6029 21.9854C25.0486 22.065 25.4975 22.1843 25.9497 22.3435V14.4646C25.5233 14.2789 25.0809 14.1396 24.6223 14.0468C24.1637 13.9539 23.7018 13.9075 23.2367 13.9075C22.6296 13.9075 22.0288 13.9871 21.4346 14.1463C20.8403 14.3054 20.2784 14.5442 19.7487 14.8625V22.7016ZM18.9736 24.6316C18.7927 24.6316 18.6215 24.6084 18.4601 24.5619C18.2986 24.5155 18.1468 24.4525 18.0047 24.3729C17.5009 24.0679 16.9712 23.8391 16.4157 23.6865C15.8602 23.534 15.2918 23.4577 14.7104 23.4577C14.1678 23.4577 13.6349 23.5307 13.1117 23.6766C12.5885 23.8225 12.0879 24.0281 11.6099 24.2933C11.3387 24.4393 11.0771 24.4326 10.8251 24.2735C10.5732 24.1143 10.4473 23.8822 10.4473 23.5771V13.9871C10.4473 13.8412 10.4828 13.7019 10.5538 13.5693C10.6249 13.4366 10.7315 13.3371 10.8736 13.2708C11.4678 12.9525 12.0879 12.7137 12.7339 12.5546C13.3798 12.3954 14.0387 12.3158 14.7104 12.3158C15.4597 12.3158 16.1928 12.4153 16.9098 12.6142C17.6268 12.8132 18.3147 13.1116 18.9736 13.5096C19.6324 13.1116 20.3204 12.8132 21.0373 12.6142C21.7543 12.4153 22.4875 12.3158 23.2367 12.3158C23.9085 12.3158 24.5674 12.3954 25.2133 12.5546C25.8592 12.7137 26.4793 12.9525 27.0736 13.2708C27.2157 13.3371 27.3223 13.4366 27.3933 13.5693C27.4644 13.7019 27.4999 13.8412 27.4999 13.9871V23.5771C27.4999 23.8822 27.3739 24.1143 27.122 24.2735C26.8701 24.4326 26.6085 24.4393 26.3372 24.2933C25.8592 24.0281 25.3586 23.8225 24.8354 23.6766C24.3122 23.5307 23.7793 23.4577 23.2367 23.4577C22.6554 23.4577 22.087 23.534 21.5315 23.6865C20.976 23.8391 20.4463 24.0679 19.9425 24.3729C19.8004 24.4525 19.6486 24.5155 19.4871 24.5619C19.3256 24.6084 19.1544 24.6316 18.9736 24.6316Z" fill="#59371D"/>
</svg>