<svg width="37" height="38" viewBox="0 0 37 38" fill="none" xmlns="http://www.w3.org/2000/svg">
<rect x="4" y="1.5" width="30" height="30" rx="15" fill="#F6E892"/>
<path d="M18.7492 22.224L23.0752 16.9648H19.7314L20.3374 12.1509L16.4712 17.813H19.3761L18.7492 22.224ZM17.4534 19.5096H14.862C14.5276 19.5096 14.2803 19.3576 14.1201 19.0536C13.9599 18.7497 13.9773 18.4563 14.1724 18.1736L20.421 9.0547C20.5604 8.85677 20.7415 8.71893 20.9644 8.64117C21.1873 8.56341 21.4172 8.56695 21.6541 8.65177C21.8909 8.7366 22.0651 8.88505 22.1765 9.09711C22.288 9.30918 22.3298 9.53538 22.3019 9.77573L21.6332 15.2682H24.8725C25.2347 15.2682 25.489 15.4308 25.6353 15.756C25.7815 16.0812 25.7363 16.3851 25.4994 16.6679L18.6238 25.0233C18.4705 25.2071 18.2824 25.3273 18.0595 25.3838C17.8366 25.4404 17.6206 25.4192 17.4116 25.3202C17.2027 25.2212 17.0389 25.0692 16.9205 24.8642C16.8021 24.6593 16.7568 24.4366 16.7847 24.1962L17.4534 19.5096Z" fill="#59371D"/>
</svg>