<svg width="69" height="56" viewBox="0 0 69 56" fill="none" xmlns="http://www.w3.org/2000/svg">
<g clip-path="url(#clip0_3924_37446)">
<path d="M51.8778 46.3224C51.8778 48.6199 49.5053 50.9747 46.5889 51.5634C43.6724 52.1522 41.3 50.7593 41.3 48.4619C41.3 46.1645 43.6724 43.8096 46.5889 43.2209C49.5053 42.6322 51.8778 44.025 51.8778 46.3224Z" stroke="#9C9495" stroke-width="1.5" stroke-miterlimit="10"/>
<path d="M51.8777 45.9481V18.666C54.9 25.2137 59.4333 21.7532 59.4333 29.9665" stroke="#9C9495" stroke-width="1.5" stroke-linejoin="round"/>
<path d="M17.1222 36.2716C17.1222 38.5691 14.7498 40.9239 11.8333 41.5127C8.91688 42.1014 6.54443 40.7086 6.54443 38.4111C6.54443 36.1137 8.91688 33.7588 11.8333 33.1701C14.7498 32.5814 17.1222 33.9742 17.1222 36.2716Z" stroke="#9C9495" stroke-width="1.5" stroke-miterlimit="10"/>
<path d="M38.2778 29.092C38.2778 31.3894 35.9053 33.7443 32.9889 34.333C30.0725 34.9217 27.7 33.5289 27.7 31.2314C27.7 28.934 30.0725 26.5791 32.9889 25.9904C35.9053 25.4017 38.2778 26.7945 38.2778 29.092Z" stroke="#9C9495" stroke-width="1.5" stroke-miterlimit="10"/>
<path d="M38.2777 28.7176V1.43555L17.1222 8.61503V35.8971" stroke="#9C9495" stroke-width="1.5" stroke-linejoin="round"/>
<path d="M38.2777 8.61523L17.1222 15.7947" stroke="#9C9495" stroke-width="2" stroke-linejoin="round"/>
<path d="M24.6778 47.3848V56.0001" stroke="#9C9495" stroke-width="2" stroke-linejoin="round"/>
<path d="M29.2111 51.6914H20.1445" stroke="#9C9495" stroke-width="1.5" stroke-linejoin="round"/>
</g>
<defs>
<clipPath id="clip0_3924_37446">
<rect width="68" height="56" fill="white" transform="translate(0.5)"/>
</clipPath>
</defs>
</svg>
