<svg width="115" height="95" viewBox="0 0 115 95" fill="none" xmlns="http://www.w3.org/2000/svg">
<g clip-path="url(#clip0_3924_37445)">
<mask id="mask0_3924_37445" style="mask-type:luminance" maskUnits="userSpaceOnUse" x="23" y="0" width="69" height="55">
<path d="M91.5 0H23.5V55H91.5V0Z" fill="white"/>
</mask>
<g mask="url(#mask0_3924_37445)">
<path d="M32.2 14.2003C31.5 14.4003 31.7 14.7003 30.6 14.9003V15.0003C27.8 15.5003 26.3 12.3003 27.8 10.4003C29.2 8.70034 32.4 9.50034 32.7 11.7003C32.9 13.2003 32.1 13.7003 32.2 14.1003V14.2003Z" fill="#78C374"/>
<path d="M84.6 15.0992C84.2 15.0992 83.3 14.4992 83 14.1992C81.1 11.9992 83.6 8.49922 86.5 9.89922C89.2 11.1992 87.8 15.5992 84.6 15.0992Z" fill="#78C374"/>
<path d="M58.3 6.29954C58 6.29954 57.2 6.39954 56.9 6.29954C54.4 5.79954 54.2 1.49954 57.1 1.09954C60.8 0.599536 61.2 5.59954 58.3 6.19954V6.29954Z" fill="#78C374"/>
<path d="M44.0001 15.3997C43.8001 15.5997 42.9001 16.1997 42.6001 16.1997C39.5001 16.5997 39.1001 11.9997 41.8001 11.6997C44.3001 11.3997 45.3001 13.9997 44.1001 15.3997H44.0001Z" fill="#78C374"/>
<path d="M72.8 16.2003C72.3 16.2003 71.6 15.8003 71.3 15.5003C69.6 13.6003 71.7 10.7003 74.2 12.0003C76.2 13.1003 75.3 16.5003 72.8 16.3003V16.2003Z" fill="#78C374"/>
<path d="M58.3 6.29883C60.7 11.4988 63.6 16.3988 67.3 20.7988L71.4 15.4988C71.7 15.7988 72.4 16.1988 72.9 16.1988L73.8 25.0988C77.4 21.9988 80.4 17.9988 83.2 14.0988C83.5 14.3988 84.3 14.9988 84.8 14.9988C81.9 20.6988 80.4 26.9988 78.2 32.9988V38.5988L78.1 38.7988H37.3V32.9988C35.6 27.6988 34 21.7988 31.7 16.7988C31.5 16.2988 30.9 15.0988 30.6 14.9988V14.8988C31.7 14.5988 31.4 14.3988 32.2 14.1988C34.9 18.0988 38 21.7988 41.4 24.9988C41.9 22.0988 42.2 19.0988 42.5 16.1988C42.8 16.1988 43.7 15.5988 43.9 15.3988L48.1 20.6988C51.7 16.3988 54.5 11.3988 56.9 6.39883C57.2 6.39883 58 6.39883 58.3 6.39883V6.29883Z" fill="#448341"/>
<path d="M57.5 6.59961C57.9 6.59961 57.9 6.59961 58.1 6.89961C58.3 7.19961 60.8 12.2996 61.7 13.7996C63.2 16.2996 65.3 19.3996 67.3 21.4996H67.5C69.1 23.1996 70.7 24.8996 72.6 26.2996C73 26.2996 73.1 25.8996 73.7 25.9996C75.2 25.2996 78.7 21.2996 79.9 19.7996C80.9 18.4996 83.2 14.9996 83.5 14.7996C83.7 14.6996 84.2 14.9996 84.2 15.1996C84.2 15.4996 82.2 19.3996 82 20.0996C79.2 23.5996 76.3 26.9996 73 30.0996C66 23.9996 63.1 19.5996 58.2 11.8996H57.6C52.7 19.4996 49.4 24.3996 42.5 30.4996C38.9 26.8996 35.5 23.6996 33.2 18.9996C33 18.4996 31.5 15.1996 31.6 14.8996C32 14.1996 33.3 16.6996 33.9 17.4996C36.3 20.7996 39.2 23.6996 42 26.7996C42.1 26.7996 42.7 26.3996 43.4 26.7996C44 25.9996 47.4 21.7996 47.7 21.5996H48.1C49.1 20.8996 53.5 14.0996 54.4 12.5996C55.2 11.0996 56.8 7.29961 57 7.09961C57.1 6.99961 57.4 6.79961 57.5 6.79961V6.59961Z" fill="#78C374"/>
<path d="M44.4 22.3996C44.2 22.1996 45.4 21.4996 44.8 21.5996C44.8 21.5996 43.9 22.4996 43.8 22.6996C43.4 23.0996 43.1 23.3996 42.8 23.7996H42.7C42.9 23.4996 43.8 22.1996 43.5 22.1996C43.5 22.1996 42.8 23.4996 42.7 23.1996L43.2 22.4996C42.8 22.3996 42.9 23.0996 42.5 22.7996C42.6 21.8996 43.2 16.5996 43.3 16.2996C43.3 16.2996 43.6 16.0996 43.7 16.0996C44.1 16.0996 46.7 19.4996 45.4 18.1996C45.2 18.1996 46.9 20.0996 46.6 20.0996C45 18.2996 46.4 19.9996 46.6 20.2996C46.6 20.3996 46.6 20.4996 46.6 20.4996C46.4 20.3996 45.7 19.1996 45.6 19.0996C45.3 19.0996 46 19.6996 45.4 19.3996C45.8 20.3996 45 18.7996 44.7 18.6996L46.8 21.7996L45.5 22.9996H45.4C47 21.1996 46.7 21.2996 45.2 22.7996H45.1C46.7 20.9996 45.4 22.3996 45.2 22.4996C45 22.4996 45.2 22.2996 45.1 22.2996C45.1 22.2996 44.9 22.4996 44.8 22.5996C44.8 22.5996 44.7 22.5996 44.6 22.5996L44.4 22.3996Z" fill="#78C374"/>
<path d="M70.6 19.2C70.8 18.9 71.1 18.7 71.3 18.4C71.3 18.2 70.6001 19 71.2001 18.1H71.1C71 18.2 70.9001 18.4 70.7001 18.5C69.8001 19.5 70.7001 18.3 70.7001 18.3C70.7001 17.8 69.3001 20 69.2001 20.1H69.1C69.8 19 71.7 16.6 70.5 17.9C70.3 18.1 69.5 19.3 69.6 18.9C69.6 18.7 71.5 16.5 68.8 19.6C69 19.2 71.3 16 71.6 16C71.7 16 72.2001 16.3 72.2001 16.4C72.3001 16.7 72.7 21.9 72.8 22.8C71.4 21.7 72.8 23.4 72.6 23.4L71.8 22.2C70.6 21.2 72.2 22.8 72.3 23.1C72.7 24 71.2 21.6 71 22L71.3 22.3C70.6 22.1 71.3 22.6 71.5 22.8C72.2 23.8 70.9 22.2 70.8 22.6C70.8 22.6 71.1 22.8 70.8 22.9C68.2 20.5 70.7001 22.8 71.2001 23.5C71.8001 24.4 70 22.4 69.3 21.7L71.1 19.1C71.1 18.6 69.3001 21.4 69.7001 20.5C69.7001 20.5 70.4 19.5 70.6 19.2Z" fill="#78C374"/>
<path d="M39.3 38.1992L77.6 38.3992H37.8C37.2 38.0992 38.8 38.3992 39.4 38.1992H39.3Z" fill="#78C374"/>
<path d="M44.4 22.3996C44 22.6996 43.3 23.5996 42.9 24.0996C42.5 24.0996 43.7 22.8996 43.7 22.6996C43.9 22.4996 44.6 21.5996 44.7 21.5996C45.2 21.4996 44 22.1996 44.3 22.3996H44.4Z" fill="#78C374"/>
<path d="M70.6 19.2C70.3 19.2 69.6 20.6 69.7 20.1C69.7 20 71.1 18.5 70.7 18.5C70.8 18.4 71 18.2 71.1 18H71.2C70.6 18.9 71.2 18.1 71.3 18.3C71.1 18.6 70.8 18.9 70.6 19.1V19.2Z" fill="#78C374"/>
<path d="M44.8 22.4004C44.8 22.9004 43.7 23.4004 43.4 23.8004C43.3 23.8004 44 22.8004 44.1 22.7004C44.7 22.1004 44.2 22.7004 44 23.2004L44.7 22.4004H44.8Z" fill="#78C374"/>
<path d="M45.7 18.4004C45.9 18.4004 46.8 19.6004 46.6 19.6004L45.7 18.4004Z" fill="#78C374"/>
<path d="M70.2 19H70.3C69.3 20.5 69.2 20.3 70.2 19Z" fill="#78C374"/>
<path d="M77.7 26.9004C78 26.9004 77.8 26.9004 77.7 27.3004C77.5 27.7004 77.3 27.9004 77.1 28.3004L77.6 27.8004V28.1004C77.7 27.9004 77.8 27.9004 77.9 27.8004C77.9 28.2004 77.9 27.8004 78.2 27.8004C77.8 28.5004 78.5 27.6004 78.5 27.8004L77.4 29.3004H77.5C78 28.8004 79.6 26.5004 79.6 27.1004C79.6 27.4004 78.1 31.5004 77.9 32.1004H37.6C37.2 32.1004 35 24.3004 34.9 23.8004C34.9 23.4004 34.6 22.9004 35.3 23.1004C35.5 23.1004 37.7 26.3004 38 26.8004V28.7004C38.3 29.1004 38.6 29.6004 39 29.9004C40 30.9004 39.4 30.1004 39.4 30.0004C39.4 29.9004 39.7 30.0004 39.7 30.0004L39.4 29.7004C39.4 29.7004 39.7 29.3004 39.4 29.0004C39.9 29.0004 39.4 28.9004 39.4 28.8004L39.7 28.6004C39.9 28.6004 42 31.2004 42.4 31.2004C48.8 26.9004 53.7 19.3004 57.7 12.9004C57.9 12.9004 58.4 14.2004 58.6 14.5004C62.3 20.8004 67.6 26.6004 73.4 31.0004C75 29.8004 76.2 28.3004 77.6 26.9004H77.7Z" fill="#78C374"/>
<path d="M57.4 21.5996L57.9 23.4996C58.2 24.5996 59.1 25.4996 60.2 25.8996H60.1C59 26.2996 58.2 27.1996 57.9 28.2996L57.4 30.1996L56.9 28.2996C56.6 27.1996 55.8 26.3996 54.7 25.9996H54.6C55.7 25.5996 56.6 24.6996 56.9 23.5996L57.4 21.6996V21.5996Z" fill="white"/>
<path d="M37.7 33.0996H39.2C39.2 33.1996 77.5 33.1996 77.5 33.1996C77.5 34.6996 77.5 36.1996 77.5 37.5996L77.2999 37.7996H37.7V33.0996Z" fill="#78C374"/>
<path d="M56.8 34.5996L59 34.6996V36.7996L58.9001 36.9996L56.8 36.8996V34.5996Z" fill="white"/>
<path d="M73.4 34.5996L75.6 34.6996V36.7996L75.4 36.9996L73.4 36.8996V34.5996Z" fill="white"/>
<path d="M39.7 34.5996L41.9 34.6996L41.8 36.8996H39.6L39.7 34.5996Z" fill="white"/>
<path d="M43.7 34.5996L45.9 34.6996L45.8 36.8996H43.6L43.7 34.5996Z" fill="white"/>
<path d="M47.8 34.5996L50 34.6996L49.9 36.8996H47.8V34.5996Z" fill="white"/>
<path d="M52.3 34.5996L54.5 34.6996L54.4 36.8996H52.3V34.5996Z" fill="white"/>
<path d="M61 34.5996L63.1 34.6996L63 36.8996H60.9L61 34.5996Z" fill="white"/>
<path d="M65 34.5996L67.1 34.6996L67 36.8996H64.9L65 34.5996Z" fill="white"/>
<path d="M69.5544 34.5508L69.5183 36.8505L71.618 36.8835L71.6541 34.5838L69.5544 34.5508Z" fill="white"/>
<path d="M34.3 25.5995C30.3 28.4995 25.8 33.6995 28.6 38.7995C31.4 43.8995 31.9 42.2995 34.1 43.1995C36.3 44.0995 40.5 44.6995 43.7 44.1995C50.6 43.0995 55.7 37.7995 61.5 34.3995C67.3 30.9995 65.1 32.7995 67.2 33.2995C69.3 33.7995 70.8 34.9995 72.3 36.1995C74.9 38.2995 77.7 41.3995 81.3 41.1995C84.9 40.9995 86.6 38.8995 86.7 36.0995C86.8 33.2995 84.9 30.9995 82.4 29.8995C79.9 28.7995 80.5 29.1995 79.6 28.8995C78.7 28.5995 79 29.0995 79.5 29.2995C81.2 29.8995 83.1 30.3995 84.4 31.7995C85.7 33.1995 85.8 33.8995 85.9 35.0995C86.1 37.7995 84.2 40.1995 81.6 40.7995C79 41.3995 77.9 40.1995 76.4 39.0995C74.9 37.9995 73.7 36.6995 72.2 35.5995C69.7 33.6995 66.6 32.1995 63.4 32.8995C60.2 33.5995 60.3 34.2995 58.9 35.1995C57.5 36.0995 56.2 37.0995 54.8 37.9995C52.2 39.8995 49.4 41.6995 46.4 42.8995C43.4 44.0995 40 44.1995 36.7 43.5995C33.4 42.9995 31.8 41.9995 30.2 39.9995C28.6 37.9995 28.4 36.1995 28.9 34.0995C29.4 31.9995 31.2 29.2995 33.2 27.4995C35.2 25.6995 34.5 26.3995 35.2 25.8995C35.9 25.3995 34.6 25.3995 34.4 25.4995L34.3 25.5995Z" fill="#448341"/>
<path d="M35 27.4992C32.6 29.2992 30.2 31.5992 29.1 34.4992C28 37.3992 28.4 39.1992 29.7 41.1992C32.5 45.6992 39.1 46.7992 44 45.9992C48.9 45.1992 50 43.9992 52.7 42.2992C55.4 40.5992 58.4 37.9992 61.6 36.3992C64.8 34.7992 65.3 34.9992 67.4 35.6992C69.5 36.3992 70.8 37.4992 72.3 38.5992C74.8 40.3992 77.7 42.7992 81 42.3992C84.3 41.9992 86.2 39.4992 85.8 36.5992C85.4 33.1992 82.2 31.6992 79.2 30.6992C76.2 29.6992 78.7 30.5992 78.6 30.6992C78.5 30.7992 78.6 30.8992 78.7 30.9992C81.4 31.8992 84.3 33.1992 84.8 36.3992C85.3 39.5992 83.6 41.3992 81.1 41.9992C78.6 42.5992 77.6 41.5992 76.2 40.6992C74.8 39.7992 73.3 38.6992 71.9 37.6992C69.5 35.9992 66.6 34.4992 63.6 35.0992C60.6 35.6992 60.5 36.1992 59.1 36.9992C57.7 37.7992 56.2 38.8992 54.7 39.9992C52.3 41.7992 49.7 43.5992 46.9 44.6992C44.1 45.7992 40.8 46.1992 37.8 45.5992C34.8 44.9992 33.1 44.1992 31.4 42.3992C29.7 40.5992 29 37.9992 29.7 35.5992C30.4 33.1992 33.1 29.7992 35.7 27.7992C38.3 25.7992 35.1 27.3992 34.9 27.4992H35Z" fill="#51914B"/>
<path d="M35.6 29.3999C33.2 31.2999 30.8 33.6999 29.8 36.6999C28.8 39.6999 29.3 41.5999 30.8 43.5999C33.8 47.8999 40.4 48.8999 45.2 47.7999C50 46.6999 51 45.5999 53.6 43.7999C56.2 41.9999 59 39.3999 62.2 38.0999C65.4 36.7999 65.6 37.1999 67.3 37.7999C69 38.3999 70.4 39.5999 71.9 40.5999C74.3 42.2999 77 44.1999 80 44.0999C83 43.9999 85.3 41.4999 85 38.4999C84.7 35.4999 81.5 33.4999 78.6 32.5999C75.7 31.6999 77.7 32.6999 78.3 32.8999C81 33.6999 83.7 35.1999 84.1 38.2999C84.5 41.3999 82.4 43.5999 79.6 43.6999C76.8 43.7999 73.8 41.3999 71.5 39.6999C69.2 37.9999 66.5 36.4999 63.5 37.0999C60.5 37.6999 58 39.4999 55.6 41.2999C53.2 43.0999 50.8 44.8999 48.1 46.1999C43.3 48.3999 36.5 48.4999 32.6 44.4999C28.7 40.4999 30 39.8999 30.7 37.2999C31.4 34.6999 34.1 31.5999 36.6 29.5999C39.1 27.5999 36 29.1999 35.8 29.2999L35.6 29.3999Z" fill="#5D9F56"/>
<path d="M36.2 31.1986C33.9 33.0986 31.6 35.3986 30.6 38.3986C29.6 41.3986 30.2 43.5986 31.8 45.6986C34.9 49.7986 41.3 50.6986 46 49.4986C50.7 48.2986 51.8 46.9986 54.3 45.0986C56.8 43.1986 59.4 40.5986 62.6 39.4986C65.8 38.3986 65.6 38.8986 67 39.4986C68.4 40.0986 70 41.2986 71.3 42.3986C73.5 44.1986 75.9 46.1986 78.9 46.0986C81.9 45.9986 84.4 43.5986 84.2 40.5986C84 37.5986 80.8 35.2986 77.8 34.3986C74.8 33.4986 77.2 34.5986 77.8 34.6986C80.6 35.4986 83.4 37.4986 83.4 40.6986C83.4 43.8986 81.1 45.5986 78.5 45.6986C75.9 45.7986 73.2 43.0986 71 41.3986C68.8 39.6986 66.4 38.3986 63.6 38.7986C60.8 39.1986 58.4 40.9986 56.2 42.7986C54 44.5986 51.4 46.5986 48.6 47.9986C44 50.1986 37.6 50.4986 33.5 46.7986C29.4 43.0986 30.6 41.9986 31.3 39.2986C32 36.5986 34.6 33.6986 37 31.5986C39.4 29.4986 36.4 31.0986 36.2 31.2986V31.1986Z" fill="#6AAF63"/>
<path d="M36.8 33.1003C34.5 35.2003 32.1 37.6003 31.2 40.7003C30.3 43.8003 31.2 46.1003 32.9 48.1003C36.1 51.7003 42 52.6003 46.5 51.4003C51 50.2003 52.4 48.6003 54.9 46.7003C57.4 44.8003 57.6 44.6003 58.9 43.5003C60.2 42.4003 61.6 41.4003 63.3 41.0003C66.7 40.1003 69.2 42.5003 71.5 44.7003C73.8 46.9003 75.8 49.0003 78.7 48.8003C81.6 48.6003 84 45.4003 83.5 42.4003C83 39.4003 80 37.3003 77.1 36.5003C74.2 35.7003 76.5 36.7003 77 36.8003C79.6 37.5003 82.2 39.4003 82.6 42.2003C83 45.0003 81.2 48.0003 78.3 48.4003C75.4 48.8003 75.4 47.7003 74.3 46.7003C73.2 45.7003 72.2 44.8003 71.1 43.8003C69.2 42.0003 66.8 40.3003 64 40.4003C61.2 40.5003 58.8 42.6003 56.6 44.3003C54.4 46.0003 51.9 48.2003 49.2 49.7003C44.8 52.1003 38.7 52.6003 34.6 49.2003C30.5 45.8003 31.3 44.6003 31.8 41.8003C32.3 39.0003 35 35.8003 37.5 33.5003C40 31.2003 36.9 33.0003 36.7 33.1003H36.8Z" fill="#78C374"/>
<path d="M39.7 43.9004C40.9 44.1004 41.9 45.3004 40.9 47.1004C41.2 46.8004 42 45.3004 41.1 44.1004C40.7 43.5004 39.9 43.2004 39.7 42.4004C39.5 41.6004 39.7 42.0004 39.7 42.0004" fill="#1B1919"/>
<path d="M39.7 41.5996C41.1 41.7996 42.3 42.9996 41.1 44.7996C41.5 44.4996 42.4999 42.9996 41.4 41.7996C40.9 41.1996 39.8999 40.8996 39.7999 40.0996C39.6999 39.2996 39.7999 39.6996 39.7999 39.6996" fill="#1B1919"/>
<path d="M39.8 39.6992H39.6C39.6 39.6992 39.6 46.4992 39.6 46.5992C39.5 46.5992 39.3 46.4992 39.1 46.4992C38.7 46.4992 38.2 46.5992 37.9 46.7992C37.3 47.0992 36.9 48.1992 37.7 48.4992C38.6 48.6992 39.6 48.2992 39.8 47.1992C39.8 46.9992 39.8 42.5992 39.8 42.0992" fill="#1B1919"/>
<path d="M76.3001 38.7H76.0001L73.0001 40.3L73.8001 45C73.5001 44.9 73.2001 44.9 72.9001 45C72.4001 45.3 72.1001 45.9 72.2001 46.3C72.4001 46.7 72.9001 46.9 73.5001 46.6C74.0001 46.3 74.3001 45.7 74.2001 45.3C74.2001 45.3 73.8001 43.1 73.6001 41.5L76.4001 40L76.9001 43.3C76.6001 43.2 76.3001 43.2 76.0001 43.3C75.5001 43.6 75.2001 44.2 75.3001 44.6C75.5001 45 76.0001 45.2 76.6001 44.9C77.1001 44.6 77.4001 44 77.3001 43.6L76.5001 38.5L76.3001 38.7ZM73.5001 41.2C73.5001 41 73.5001 40.8 73.5001 40.7L76.3001 39.2V39.7L73.6001 41.2H73.5001Z" fill="#1B1919"/>
<path d="M50.7 43.7988C50.3 44.2988 50.2 44.9988 50.6 45.3988C50.6 45.3988 52.8 48.8988 54.1 50.8988L52.1 53.3988L48.9 48.3988C49.2 48.3988 49.6 48.2988 49.8 47.8988C50.2 47.3988 50.3 46.6988 49.9 46.2988C49.5 45.8988 48.9 45.9988 48.5 46.4988C48.1 46.9988 48 47.6988 48.4 48.0988L52.1 53.8988L54.5 50.9988L51 45.5988C51.3 45.5988 51.7 45.4988 51.9 45.0988C52.3 44.5988 52.4 43.8988 52 43.4988C51.6 43.0988 51 43.1988 50.6 43.6988L50.7 43.7988Z" fill="#1B1919"/>
<path d="M61.1 44.0988L62 43.7988V43.9988C62.3 44.4988 62.9 44.5988 63.5 44.1988C63.9 43.8988 64.1 43.4988 64.1 43.0988L65.1 42.7988V42.4988L64.1 42.7988C64.1 42.7988 64.1 42.6988 64.1 42.5988L62.3 36.7988H62L63.6 42.1988C63.3 42.0988 62.9 42.1988 62.5 42.3988C62.1 42.6988 61.9 43.0988 61.9 43.4988L60.9 43.7988V44.0988H61.1Z" fill="#1B1919"/>
</g>
</g>
<path d="M19.1504 82.8145H15.4883V80.7051H19.1504C19.7493 80.7051 20.2344 80.6074 20.6055 80.4121C20.9831 80.2103 21.2598 79.9368 21.4355 79.5918C21.6113 79.2402 21.6992 78.8398 21.6992 78.3906C21.6992 77.9544 21.6113 77.5475 21.4355 77.1699C21.2598 76.7923 20.9831 76.4863 20.6055 76.252C20.2344 76.0176 19.7493 75.9004 19.1504 75.9004H16.3672V88H13.6816V73.7812H19.1504C20.2572 73.7812 21.2012 73.9798 21.9824 74.377C22.7702 74.7676 23.3691 75.3112 23.7793 76.0078C24.196 76.6979 24.4043 77.4857 24.4043 78.3711C24.4043 79.2891 24.196 80.0801 23.7793 80.7441C23.3691 81.4082 22.7702 81.9193 21.9824 82.2773C21.2012 82.6354 20.2572 82.8145 19.1504 82.8145ZM28.8965 79.5918V88H26.3184V77.4336H28.7598L28.8965 79.5918ZM32.1094 77.3652L32.0703 79.7676C31.9271 79.7415 31.7643 79.722 31.582 79.709C31.4062 79.696 31.2402 79.6895 31.084 79.6895C30.6868 79.6895 30.3385 79.7448 30.0391 79.8555C29.7396 79.9596 29.4889 80.1126 29.2871 80.3145C29.0918 80.5163 28.9421 80.7637 28.8379 81.0566C28.7337 81.3431 28.6751 81.6686 28.6621 82.0332L28.1055 81.9648C28.1055 81.2943 28.1738 80.6725 28.3105 80.0996C28.4473 79.5267 28.6458 79.0254 28.9062 78.5957C29.1667 78.166 29.4922 77.834 29.8828 77.5996C30.2799 77.3587 30.7357 77.2383 31.25 77.2383C31.3932 77.2383 31.5462 77.2513 31.709 77.2773C31.8783 77.2969 32.0117 77.3262 32.1094 77.3652ZM38.0762 88.1953C37.2754 88.1953 36.556 88.0651 35.918 87.8047C35.2799 87.5443 34.7363 87.1829 34.2871 86.7207C33.8444 86.252 33.5026 85.7083 33.2617 85.0898C33.0273 84.4648 32.9102 83.7943 32.9102 83.0781V82.6875C32.9102 81.8737 33.0273 81.1348 33.2617 80.4707C33.4961 79.8001 33.8281 79.224 34.2578 78.7422C34.6875 78.2604 35.2018 77.8893 35.8008 77.6289C36.3997 77.3685 37.0605 77.2383 37.7832 77.2383C38.5319 77.2383 39.1927 77.3652 39.7656 77.6191C40.3385 77.8665 40.8171 78.2181 41.2012 78.6738C41.5853 79.1296 41.875 79.6764 42.0703 80.3145C42.2656 80.946 42.3633 81.6458 42.3633 82.4141V83.498H34.082V81.7207H39.8242V81.5254C39.8112 81.1152 39.7331 80.7409 39.5898 80.4023C39.4466 80.0573 39.2253 79.7839 38.9258 79.582C38.6263 79.3737 38.2389 79.2695 37.7637 79.2695C37.3796 79.2695 37.0443 79.3542 36.7578 79.5234C36.4779 79.6862 36.2435 79.9206 36.0547 80.2266C35.8724 80.526 35.7357 80.8841 35.6445 81.3008C35.5534 81.7174 35.5078 82.1797 35.5078 82.6875V83.0781C35.5078 83.5208 35.5664 83.931 35.6836 84.3086C35.8073 84.6862 35.9863 85.015 36.2207 85.2949C36.4616 85.5684 36.748 85.7832 37.0801 85.9395C37.4186 86.0892 37.8027 86.1641 38.2324 86.1641C38.7728 86.1641 39.2611 86.0599 39.6973 85.8516C40.14 85.6367 40.5241 85.321 40.8496 84.9043L42.1484 86.252C41.9271 86.5775 41.6276 86.89 41.25 87.1895C40.8789 87.4889 40.4297 87.7331 39.9023 87.9219C39.375 88.1042 38.7663 88.1953 38.0762 88.1953ZM49.9023 85.1094C49.9023 84.888 49.8438 84.6895 49.7266 84.5137C49.6094 84.3379 49.388 84.1784 49.0625 84.0352C48.7435 83.8854 48.2747 83.7454 47.6562 83.6152C47.1094 83.498 46.6048 83.3516 46.1426 83.1758C45.6803 83 45.2832 82.7884 44.9512 82.541C44.6191 82.2871 44.3587 81.9909 44.1699 81.6523C43.9876 81.3073 43.8965 80.9102 43.8965 80.4609C43.8965 80.0247 43.9909 79.6146 44.1797 79.2305C44.3685 78.8398 44.6419 78.498 45 78.2051C45.3581 77.9056 45.7943 77.6712 46.3086 77.502C46.8229 77.3262 47.4023 77.2383 48.0469 77.2383C48.9453 77.2383 49.7168 77.3848 50.3613 77.6777C51.0124 77.9707 51.5104 78.3743 51.8555 78.8887C52.2005 79.3965 52.373 79.9694 52.373 80.6074H49.7949C49.7949 80.3275 49.7298 80.0736 49.5996 79.8457C49.4759 79.6178 49.2839 79.4355 49.0234 79.2988C48.763 79.1556 48.4342 79.084 48.0371 79.084C47.679 79.084 47.3763 79.1426 47.1289 79.2598C46.888 79.377 46.7057 79.5299 46.582 79.7188C46.4583 79.9076 46.3965 80.1159 46.3965 80.3438C46.3965 80.513 46.429 80.666 46.4941 80.8027C46.5658 80.9329 46.6797 81.0534 46.8359 81.1641C46.9922 81.2747 47.2038 81.3757 47.4707 81.4668C47.7441 81.5579 48.0794 81.6458 48.4766 81.7305C49.2643 81.8867 49.9512 82.0951 50.5371 82.3555C51.1296 82.6094 51.5918 82.9479 51.9238 83.3711C52.2559 83.7943 52.4219 84.3346 52.4219 84.9922C52.4219 85.4609 52.321 85.8906 52.1191 86.2812C51.9173 86.6654 51.6243 87.0007 51.2402 87.2871C50.8561 87.5736 50.3971 87.7982 49.8633 87.9609C49.3294 88.1172 48.7272 88.1953 48.0566 88.1953C47.0866 88.1953 46.2663 88.0228 45.5957 87.6777C44.9251 87.3262 44.4173 86.8835 44.0723 86.3496C43.7272 85.8092 43.5547 85.2493 43.5547 84.6699H46.0254C46.0449 85.0801 46.1556 85.4089 46.3574 85.6562C46.5592 85.9036 46.8132 86.0827 47.1191 86.1934C47.4316 86.2975 47.7604 86.3496 48.1055 86.3496C48.4961 86.3496 48.8249 86.2975 49.0918 86.1934C49.3587 86.0827 49.5605 85.9362 49.6973 85.7539C49.834 85.5651 49.9023 85.3503 49.9023 85.1094ZM58.7207 86.1641C59.0853 86.1641 59.4108 86.0924 59.6973 85.9492C59.9837 85.806 60.2116 85.6042 60.3809 85.3438C60.5566 85.0833 60.651 84.7806 60.6641 84.4355H63.0957C63.0827 85.1517 62.8809 85.793 62.4902 86.3594C62.0996 86.9258 61.5788 87.375 60.9277 87.707C60.2832 88.0326 59.5605 88.1953 58.7598 88.1953C57.946 88.1953 57.2363 88.0586 56.6309 87.7852C56.0254 87.5117 55.5208 87.1309 55.1172 86.6426C54.7201 86.1543 54.4206 85.5879 54.2188 84.9434C54.0234 84.2988 53.9258 83.6087 53.9258 82.873V82.5605C53.9258 81.8249 54.0234 81.1348 54.2188 80.4902C54.4206 79.8457 54.7201 79.2793 55.1172 78.791C55.5208 78.3027 56.0254 77.9219 56.6309 77.6484C57.2363 77.375 57.9427 77.2383 58.75 77.2383C59.6029 77.2383 60.3516 77.4043 60.9961 77.7363C61.6471 78.0684 62.1549 78.5371 62.5195 79.1426C62.8906 79.748 63.0827 80.4609 63.0957 81.2812H60.6641C60.651 80.9036 60.5664 80.5651 60.4102 80.2656C60.2539 79.9661 60.0326 79.7253 59.7461 79.543C59.4596 79.3607 59.1113 79.2695 58.7012 79.2695C58.265 79.2695 57.9004 79.3607 57.6074 79.543C57.321 79.7253 57.0964 79.9759 56.9336 80.2949C56.7773 80.6074 56.6667 80.959 56.6016 81.3496C56.543 81.7337 56.5137 82.1374 56.5137 82.5605V82.873C56.5137 83.3027 56.543 83.7129 56.6016 84.1035C56.6667 84.4941 56.7773 84.8457 56.9336 85.1582C57.0964 85.4642 57.321 85.7083 57.6074 85.8906C57.9004 86.0729 58.2715 86.1641 58.7207 86.1641ZM67.3438 73V88H64.7559V73H67.3438ZM66.9336 82.3359H66.1719C66.1719 81.6003 66.2695 80.9232 66.4648 80.3047C66.6602 79.6862 66.9368 79.1491 67.2949 78.6934C67.653 78.2311 68.0794 77.873 68.5742 77.6191C69.0755 77.3652 69.6289 77.2383 70.2344 77.2383C70.7552 77.2383 71.2272 77.3132 71.6504 77.4629C72.0801 77.6061 72.4479 77.8372 72.7539 78.1562C73.0599 78.4753 73.2943 78.8919 73.457 79.4062C73.6263 79.9141 73.7109 80.5326 73.7109 81.2617V88H71.1133V81.2422C71.1133 80.7539 71.0417 80.3698 70.8984 80.0898C70.7552 79.8034 70.5501 79.5983 70.2832 79.4746C70.0228 79.3509 69.7005 79.2891 69.3164 79.2891C68.8997 79.2891 68.5417 79.3704 68.2422 79.5332C67.9427 79.6895 67.6953 79.9076 67.5 80.1875C67.3112 80.4674 67.168 80.7897 67.0703 81.1543C66.9792 81.5189 66.9336 81.9128 66.9336 82.3359ZM75.5273 82.8242V82.6191C75.5273 81.8444 75.638 81.1315 75.8594 80.4805C76.0807 79.8229 76.403 79.2533 76.8262 78.7715C77.2493 78.2897 77.7669 77.9154 78.3789 77.6484C78.9909 77.375 79.6875 77.2383 80.4688 77.2383C81.263 77.2383 81.9661 77.375 82.5781 77.6484C83.1966 77.9154 83.7174 78.2897 84.1406 78.7715C84.5638 79.2533 84.8861 79.8229 85.1074 80.4805C85.3288 81.1315 85.4395 81.8444 85.4395 82.6191V82.8242C85.4395 83.5924 85.3288 84.3053 85.1074 84.9629C84.8861 85.6139 84.5638 86.1836 84.1406 86.6719C83.7174 87.1536 83.1999 87.528 82.5879 87.7949C81.9759 88.0618 81.276 88.1953 80.4883 88.1953C79.707 88.1953 79.0072 88.0618 78.3887 87.7949C77.7702 87.528 77.2493 87.1536 76.8262 86.6719C76.403 86.1836 76.0807 85.6139 75.8594 84.9629C75.638 84.3053 75.5273 83.5924 75.5273 82.8242ZM78.1055 82.6191V82.8242C78.1055 83.2865 78.151 83.7194 78.2422 84.123C78.3333 84.5267 78.4733 84.8815 78.6621 85.1875C78.8509 85.4935 79.0951 85.7344 79.3945 85.9102C79.7005 86.0794 80.0651 86.1641 80.4883 86.1641C80.9049 86.1641 81.263 86.0794 81.5625 85.9102C81.862 85.7344 82.1061 85.4935 82.2949 85.1875C82.4902 84.8815 82.6335 84.5267 82.7246 84.123C82.8158 83.7194 82.8613 83.2865 82.8613 82.8242V82.6191C82.8613 82.1634 82.8158 81.737 82.7246 81.3398C82.6335 80.9362 82.4902 80.5814 82.2949 80.2754C82.1061 79.9629 81.8587 79.7188 81.5527 79.543C81.2533 79.3607 80.8919 79.2695 80.4688 79.2695C80.0521 79.2695 79.694 79.3607 79.3945 79.543C79.0951 79.7188 78.8509 79.9629 78.6621 80.2754C78.4733 80.5814 78.3333 80.9362 78.2422 81.3398C78.151 81.737 78.1055 82.1634 78.1055 82.6191ZM86.8555 82.8242V82.6191C86.8555 81.8444 86.9661 81.1315 87.1875 80.4805C87.4089 79.8229 87.7311 79.2533 88.1543 78.7715C88.5775 78.2897 89.0951 77.9154 89.707 77.6484C90.319 77.375 91.0156 77.2383 91.7969 77.2383C92.5911 77.2383 93.2943 77.375 93.9062 77.6484C94.5247 77.9154 95.0456 78.2897 95.4688 78.7715C95.8919 79.2533 96.2142 79.8229 96.4355 80.4805C96.6569 81.1315 96.7676 81.8444 96.7676 82.6191V82.8242C96.7676 83.5924 96.6569 84.3053 96.4355 84.9629C96.2142 85.6139 95.8919 86.1836 95.4688 86.6719C95.0456 87.1536 94.528 87.528 93.916 87.7949C93.304 88.0618 92.6042 88.1953 91.8164 88.1953C91.0352 88.1953 90.3353 88.0618 89.7168 87.7949C89.0983 87.528 88.5775 87.1536 88.1543 86.6719C87.7311 86.1836 87.4089 85.6139 87.1875 84.9629C86.9661 84.3053 86.8555 83.5924 86.8555 82.8242ZM89.4336 82.6191V82.8242C89.4336 83.2865 89.4792 83.7194 89.5703 84.123C89.6615 84.5267 89.8014 84.8815 89.9902 85.1875C90.179 85.4935 90.4232 85.7344 90.7227 85.9102C91.0286 86.0794 91.3932 86.1641 91.8164 86.1641C92.2331 86.1641 92.5911 86.0794 92.8906 85.9102C93.1901 85.7344 93.4342 85.4935 93.623 85.1875C93.8184 84.8815 93.9616 84.5267 94.0527 84.123C94.1439 83.7194 94.1895 83.2865 94.1895 82.8242V82.6191C94.1895 82.1634 94.1439 81.737 94.0527 81.3398C93.9616 80.9362 93.8184 80.5814 93.623 80.2754C93.4342 79.9629 93.1868 79.7188 92.8809 79.543C92.5814 79.3607 92.2201 79.2695 91.7969 79.2695C91.3802 79.2695 91.0221 79.3607 90.7227 79.543C90.4232 79.7188 90.179 79.9629 89.9902 80.2754C89.8014 80.5814 89.6615 80.9362 89.5703 81.3398C89.4792 81.737 89.4336 82.1634 89.4336 82.6191ZM101.377 73V88H98.7891V73H101.377Z" fill="#696061"/>
<defs>
<clipPath id="clip0_3924_37445">
<rect width="68" height="55" fill="white" transform="translate(23.5)"/>
</clipPath>
</defs>
</svg>
