<svg width="128" height="95" viewBox="0 0 128 95" fill="none" xmlns="http://www.w3.org/2000/svg">
<g clip-path="url(#clip0_3924_37459)">
<mask id="mask0_3924_37459" style="mask-type:luminance" maskUnits="userSpaceOnUse" x="30" y="0" width="68" height="55">
<path d="M98 0H30V55H98V0Z" fill="white"/>
</mask>
<g mask="url(#mask0_3924_37459)">
<path d="M38.6 14.1007C37.9 14.3007 38.1 14.6007 37 14.8007V14.9007C34.2 15.4007 32.7 12.2007 34.2 10.3007C35.6 8.60073 38.8 9.40073 39.1 11.6007C39.3 13.1007 38.5 13.6007 38.6 14.0007V14.1007Z" fill="#F5AD69"/>
<path d="M91 14.9996C90.6 14.9996 89.7 14.3996 89.4 14.0996C87.5 11.8996 90 8.39961 92.9 9.79961C95.6 11.0996 94.2 15.4996 91 14.9996Z" fill="#F5AD69"/>
<path d="M64.7 6.19993C64.4 6.19993 63.6 6.29993 63.3 6.19993C60.8 5.69993 60.6 1.39993 63.5 0.999927C67.2 0.499927 67.6 5.49993 64.7 6.09993V6.19993Z" fill="#F5AD69"/>
<path d="M50.4001 15.3C50.2001 15.5 49.3001 16.1 49.0001 16.1C45.9001 16.5 45.5001 11.9 48.2001 11.6C50.7001 11.3 51.7001 13.9 50.5001 15.3H50.4001Z" fill="#F5AD69"/>
<path d="M79.2 16.2003C78.7 16.2003 78 15.8003 77.7 15.5003C76 13.6003 78.1 10.7003 80.6 12.0003C82.6 13.1003 81.7 16.5003 79.2 16.3003V16.2003Z" fill="#F5AD69"/>
<path d="M64.7 6.19922C67.1 11.3992 70 16.2992 73.7 20.6992L77.8 15.3992C78.1 15.6992 78.8 16.0992 79.3 16.0992L80.2 24.9992C83.8 21.8992 86.8 17.8992 89.6 13.9992C89.9 14.2992 90.7 14.8992 91.2 14.8992C88.3 20.5992 86.8 26.8992 84.6 32.8992V38.4992L84.5 38.6992H43.7V32.8992C42 27.5992 40.4 21.6992 38.1 16.6992C37.9 16.1992 37.3 14.9992 37 14.8992V14.7992C38.1 14.4992 37.8 14.2992 38.6 14.0992C41.3 17.9992 44.4 21.6992 47.8 24.8992C48.3 21.9992 48.6 18.9992 48.9 16.0992C49.2 16.0992 50.1 15.4992 50.3 15.2992L54.5 20.5992C58.1 16.2992 60.9 11.2992 63.3 6.29922C63.6 6.29922 64.4 6.29922 64.7 6.29922V6.19922Z" fill="#E88426"/>
<path d="M63.9 6.59961C64.3 6.59961 64.3 6.59961 64.5 6.89961C64.7 7.19961 67.2 12.2996 68.1 13.7996C69.6 16.2996 71.7 19.3996 73.7 21.4996H73.9C75.5 23.1996 77.1 24.8996 79 26.2996C79.4 26.2996 79.5 25.8996 80.1 25.9996C81.6 25.2996 85.1 21.2996 86.3 19.7996C87.3 18.4996 89.6 14.9996 89.9 14.7996C90.1 14.6996 90.6 14.9996 90.6 15.1996C90.6 15.4996 88.6 19.3996 88.4 20.0996C85.6 23.5996 82.7 26.9996 79.4 30.0996C72.4 23.9996 69.5 19.5996 64.6 11.8996H64C59.1 19.4996 55.8 24.3996 48.9 30.4996C45.3 26.8996 41.9 23.6996 39.6 18.9996C39.4 18.4996 37.9 15.1996 38 14.8996C38.4 14.1996 39.7 16.6996 40.3 17.4996C42.7 20.7996 45.6 23.6996 48.4 26.7996C48.5 26.7996 49.1 26.3996 49.8 26.7996C50.4 25.9996 53.8 21.7996 54.1 21.5996H54.5C55.5 20.8996 59.9 14.0996 60.8 12.5996C61.6 11.0996 63.2 7.29961 63.4 7.09961C63.5 6.99961 63.8 6.79961 63.9 6.79961V6.59961Z" fill="#F5AD69"/>
<path d="M50.8 22.3C50.6 22.1 51.8 21.4 51.2 21.5C51.2 21.5 50.3 22.4 50.2 22.6C49.8 23 49.5 23.3 49.2 23.7H49.1C49.3 23.4 50.2 22.1 49.9 22.1C49.9 22.1 49.2 23.4 49.1 23.1L49.6 22.4C49.2 22.3 49.3 23 48.9 22.7C49 21.8 49.6 16.5 49.7 16.2C49.7 16.2 50 16 50.1 16C50.5 16 53.1 19.4 51.8 18.1C51.6 18.1 53.3 20 53 20C51.4 18.2 52.8 19.9 53 20.2C53 20.3 53 20.4 53 20.4C52.8 20.3 52.1 19.1 52 19C51.7 19 52.4 19.6 51.8 19.3C52.2 20.3 51.4 18.7 51.1 18.6L53.2 21.7L51.9 22.9H51.8C53.4 21.1 53.1 21.2 51.6 22.7H51.5C53.1 20.9 51.8 22.3 51.6 22.4C51.4 22.4 51.6 22.2 51.5 22.2C51.5 22.2 51.3 22.4 51.2 22.5C51.2 22.5 51.1 22.5 51 22.5L50.8 22.3Z" fill="#F5AD69"/>
<path d="M77.0001 19.1004C77.2001 18.8004 77.5001 18.6004 77.7001 18.3004C77.7001 18.1004 77.0001 18.9004 77.6001 18.0004H77.5001C77.4001 18.1004 77.3001 18.3004 77.1001 18.4004C76.2001 19.4004 77.1001 18.2004 77.1001 18.2004C77.1001 17.7004 75.7001 19.9004 75.6001 20.0004H75.5001C76.2001 18.9004 78.1001 16.5004 76.9001 17.8004C76.7001 18.0004 75.9001 19.2004 76.0001 18.8004C76.0001 18.6004 77.9001 16.4004 75.2001 19.5004C75.4001 19.1004 77.7001 15.9004 78.0001 15.9004C78.1001 15.9004 78.6001 16.2004 78.6001 16.3004C78.7001 16.6004 79.1001 21.8004 79.2001 22.7004C77.8001 21.6004 79.2001 23.3004 79.0001 23.3004L78.2001 22.1004C77.0001 21.1004 78.6001 22.7004 78.7001 23.0004C79.1001 23.9004 77.6001 21.5004 77.4001 21.9004L77.7001 22.2004C77.0001 22.0004 77.7001 22.5004 77.9001 22.7004C78.6001 23.7004 77.3001 22.1004 77.2001 22.5004C77.2001 22.5004 77.5001 22.7004 77.2001 22.8004C74.6001 20.4004 77.1001 22.7004 77.6001 23.4004C78.2001 24.3004 76.4001 22.3004 75.7001 21.6004L77.5001 19.0004C77.5001 18.5004 75.7001 21.3004 76.1001 20.4004C76.1001 20.4004 76.8001 19.4004 77.0001 19.1004Z" fill="#F5AD69"/>
<path d="M50.8 22.3C50.4 22.6 49.7 23.5 49.3 24C48.9 24 50.1 22.8 50.1 22.6C50.3 22.4 51 21.5 51.1 21.5C51.6 21.4 50.4 22.1 50.7 22.3H50.8Z" fill="#F5AD69"/>
<path d="M77 19.1004C76.7 19.1004 76 20.5004 76.1 20.0004C76.1 19.9004 77.5 18.4004 77.1 18.4004C77.2 18.3004 77.4 18.1004 77.5 17.9004H77.6C77 18.8004 77.6 18.0004 77.7 18.2004C77.5 18.5004 77.2 18.8004 77 19.0004V19.1004Z" fill="#F5AD69"/>
<path d="M51.2 22.4004C51.2 22.9004 50.1 23.4004 49.8 23.8004C49.7 23.8004 50.4 22.8004 50.5 22.7004C51.1 22.1004 50.6 22.7004 50.4 23.2004L51.1 22.4004H51.2Z" fill="#F5AD69"/>
<path d="M52.1 18.4004C52.3 18.4004 53.2 19.6004 53 19.6004L52.1 18.4004Z" fill="#F5AD69"/>
<path d="M76.6001 18.9004H76.7001C75.7001 20.4004 75.6001 20.2004 76.6001 18.9004Z" fill="#F5AD69"/>
<path d="M84.1 26.8008C84.4 26.8008 84.2 26.8008 84.1 27.2008C83.9 27.6008 83.7 27.8008 83.5 28.2008L84 27.7008V28.0008C84.1 27.8008 84.2 27.8008 84.3 27.7008C84.3 28.1008 84.3 27.7008 84.6 27.7008C84.2 28.4008 84.9 27.5008 84.9 27.7008L83.8 29.2008H83.9C84.4 28.7008 86 26.4008 86 27.0008C86 27.3008 84.5 31.4008 84.3 32.0008H44C43.6 32.0008 41.4 24.2008 41.3 23.7008C41.3 23.3008 41 22.8008 41.7 23.0008C41.9 23.0008 44.1 26.2008 44.4 26.7008V28.6008C44.7 29.0008 45 29.5008 45.4 29.8008C46.4 30.8008 45.8 30.0008 45.8 29.9008C45.8 29.8008 46.1 29.9008 46.1 29.9008L45.8 29.6008C45.8 29.6008 46.1 29.2008 45.8 28.9008C46.3 28.9008 45.8 28.8008 45.8 28.7008L46.1 28.5008C46.3 28.5008 48.4 31.1008 48.8 31.1008C55.2 26.8008 60.1 19.2008 64.1 12.8008C64.3 12.8008 64.8 14.1008 65 14.4008C68.7 20.7008 74 26.5008 79.8 30.9008C81.4 29.7008 82.6 28.2008 84 26.8008H84.1Z" fill="#F5AD69"/>
<path d="M64.4 17.9004L64.9 19.8004C65.2 20.9004 66.1 21.8004 67.2 22.2004H67.1C66 22.6004 65.2 23.5004 64.9 24.6004L64.4 26.5004L63.9 24.6004C63.6 23.5004 62.8 22.7004 61.7 22.3004H61.6C62.7 21.9004 63.6 21.0004 63.9 19.9004L64.4 18.0004V17.9004Z" fill="white"/>
<path d="M59.6 24.3008L60 25.9008C60.3 26.8008 61 27.6008 61.9 27.9008C61 28.3008 60.3 29.0008 60.1 29.9008L59.7 31.5008L59.3 29.9008C59.1 29.0008 58.4 28.3008 57.5 28.0008C58.4 27.7008 59.2 26.9008 59.4 26.0008L59.8 24.4008L59.6 24.3008Z" fill="white"/>
<path d="M68.9001 24.3008L69.3 25.9008C69.6 26.8008 70.3001 27.6008 71.2001 27.9008C70.3001 28.3008 69.6001 29.0008 69.4001 29.9008L69 31.5008L68.6 29.9008C68.4 29.0008 67.7 28.3008 66.8 28.0008C67.7 27.7008 68.5001 26.9008 68.7001 26.0008L69.1 24.4008L68.9001 24.3008Z" fill="white"/>
<path d="M44.1 33.0996H45.6C45.6 33.1996 83.9 33.1996 83.9 33.1996C83.9 34.6996 83.9 36.1996 83.9 37.5996L83.7 37.7996H44.1V33.0996Z" fill="#F5AD69"/>
<path d="M63.2001 34.5L65.4001 34.6V36.7L65.3001 36.9L63.2001 36.8V34.5Z" fill="white"/>
<path d="M79.8 34.5L82 34.6V36.7L81.8 36.9L79.8 36.8V34.5Z" fill="white"/>
<path d="M46.1 34.5L48.3 34.6L48.2 36.8H46L46.1 34.5Z" fill="white"/>
<path d="M50.1 34.5L52.3 34.6L52.2 36.8H50L50.1 34.5Z" fill="white"/>
<path d="M54.2001 34.5L56.4001 34.6L56.3001 36.8H54.2001V34.5Z" fill="white"/>
<path d="M58.7001 34.5L60.9001 34.6L60.8001 36.8H58.7001V34.5Z" fill="white"/>
<path d="M67.4001 34.5L69.5 34.6L69.4001 36.8H67.3L67.4001 34.5Z" fill="white"/>
<path d="M71.4001 34.5L73.5 34.6L73.4001 36.8H71.3L71.4001 34.5Z" fill="white"/>
<path d="M75.9529 34.4492L75.9167 36.7489L78.0164 36.7819L78.0527 34.4822L75.9529 34.4492Z" fill="white"/>
<path d="M40.7 25.4999C36.7 28.3999 32.2 33.5999 35 38.6999C37.8 43.7999 38.3 42.1999 40.5 43.0999C42.7 43.9999 46.9 44.5999 50.1 44.0999C57 42.9999 62.1 37.6999 67.9 34.2999C73.7 30.8999 71.5 32.6999 73.6 33.1999C75.7 33.6999 77.2 34.8999 78.7 36.0999C81.3 38.1999 84.1 41.2999 87.7 41.0999C91.3 40.8999 93 38.7999 93.1 35.9999C93.2 33.1999 91.3 30.8999 88.8 29.7999C86.3 28.6999 86.9 29.0999 86 28.7999C85.1 28.4999 85.4 28.9999 85.9 29.1999C87.6 29.7999 89.5 30.2999 90.8 31.6999C92.1 33.0999 92.2 33.7999 92.3 34.9999C92.5 37.6999 90.6 40.0999 88 40.6999C85.4 41.2999 84.3 40.0999 82.8 38.9999C81.3 37.8999 80.1 36.5999 78.6 35.4999C76.1 33.5999 73 32.0999 69.8 32.7999C66.6 33.4999 66.7 34.1999 65.3 35.0999C63.9 35.9999 62.6 36.9999 61.2 37.8999C58.6 39.7999 55.8 41.5999 52.8 42.7999C49.8 43.9999 46.4 44.0999 43.1 43.4999C39.8 42.8999 38.2 41.8999 36.6 39.8999C35 37.8999 34.8 36.0999 35.3 33.9999C35.8 31.8999 37.6 29.1999 39.6 27.3999C41.6 25.5999 40.9 26.2999 41.6 25.7999C42.3 25.2999 41 25.2999 40.8 25.3999L40.7 25.4999Z" fill="#E88426"/>
<path d="M41.3001 27.4003C38.8001 29.2003 36.5001 31.6003 35.4001 34.5003C34.3001 37.4003 34.8001 39.2003 36.1001 41.1003C39.0001 45.5003 45.5001 46.6003 50.4001 45.8003C55.3001 45.0003 56.4001 43.8003 59.1001 42.1003C61.8001 40.4003 64.9001 37.7003 68.2001 36.1003C71.5001 34.5003 72.0001 34.8003 74.0001 35.6003C76.0001 36.4003 77.2001 37.4003 78.7001 38.4003C81.2001 40.2003 84.1001 42.6003 87.5001 42.2003C90.9001 41.8003 92.6001 39.2003 92.2001 36.3003C91.8001 33.4003 88.5001 31.5003 85.6001 30.5003C82.7001 29.5003 84.7001 30.6003 85.3001 30.8003C86.9001 31.3003 88.5001 31.9003 89.7001 33.1003C90.9001 34.3003 91.2001 35.1003 91.3001 36.3003C91.6001 38.8003 89.9001 41.3003 87.4001 41.8003C84.9001 42.3003 83.9001 41.3003 82.5001 40.4003C81.1001 39.5003 79.7001 38.4003 78.3001 37.5003C75.8001 35.8003 72.9001 34.2003 69.8001 34.9003C66.7001 35.6003 66.7001 36.1003 65.4001 36.9003C64.1001 37.7003 62.6001 38.8003 61.2001 39.8003C58.7001 41.6003 56.2001 43.4003 53.3001 44.5003C50.4001 45.6003 47.3001 45.9003 44.2001 45.3003C41.1001 44.7003 39.5001 43.9003 37.8001 42.1003C36.1001 40.3003 35.5001 37.7003 36.2001 35.2003C36.9001 32.7003 39.6001 29.5003 42.2001 27.5003C44.8001 25.5003 41.6001 27.1003 41.3001 27.2003V27.4003Z" fill="#EB8E35"/>
<path d="M42 29.3004C39.6 31.2004 37.3 33.5004 36.3 36.4004C35.3 39.3004 35.7 41.3004 37.2 43.4004C40.2 47.7004 46.8 48.6004 51.5 47.6004C56.2 46.6004 57.3 45.4004 59.9 43.6004C62.5 41.8004 65.3 39.2004 68.5 37.9004C71.7 36.6004 71.9 37.0004 73.7 37.7004C75.5 38.4004 76.8 39.4004 78.2 40.5004C80.6 42.2004 83.2 44.1004 86.3 44.0004C89.4 43.9004 91.7 41.4004 91.4 38.4004C91.1 35.4004 88 33.4004 85.1 32.5004C82.2 31.6004 84.1 32.6004 84.6 32.8004C87.3 33.6004 90 35.1004 90.5 38.2004C91 41.3004 88.9 43.5004 86.1 43.6004C83.3 43.7004 80.3 41.3004 78 39.6004C75.7 37.9004 73 36.5004 70 37.1004C67 37.7004 64.4 39.5004 62 41.3004C59.6 43.1004 57.2 44.9004 54.5 46.2004C49.7 48.4004 43 48.4004 39 44.5004C35 40.6004 36.4 40.0004 37 37.4004C37.6 34.8004 40.3 31.6004 42.9 29.6004C45.5 27.6004 42.3 29.2004 42.1 29.4004L42 29.3004Z" fill="#EE9846"/>
<path d="M42.6 31.2993C40.3 33.1993 38 35.4993 37 38.3993C36 41.2993 36.5 43.4993 38 45.5993C41.1 49.7993 47.6 50.5993 52.3 49.3993C57 48.1993 58 46.9993 60.4 45.0993C62.8 43.1993 65.5 40.4993 68.7 39.3993C75.4 37.0993 78.6 46.1993 84.9 45.9993C91.2 45.7993 90.4 43.6993 90.4 40.6993C90.4 37.6993 87.3 35.1993 84.3 34.2993C81.3 33.3993 83.3 34.4993 83.7 34.5993C86.4 35.3993 89.2 37.1993 89.5 40.2993C89.8 43.3993 87.6 45.6993 84.8 45.5993C82 45.4993 79.4 42.9993 77.3 41.2993C75.2 39.5993 72.7 38.2993 69.9 38.6993C67.1 39.0993 64.8 40.8993 62.6 42.5993C60.4 44.2993 57.8 46.3993 55.1 47.7993C50.4 50.0993 43.9 50.1993 39.9 46.4993C35.9 42.7993 37 41.6993 37.7 38.9993C38.4 36.2993 41 33.3993 43.4 31.2993C45.8 29.1993 42.8 30.9993 42.6 31.1993V31.2993Z" fill="#F1A258"/>
<path d="M43.2 33.0006C40.9 35.1006 38.5 37.5006 37.6 40.6006C36.7 43.7006 37.6 46.0006 39.3 48.0006C42.5 51.6006 48.4 52.5006 52.9 51.3006C57.4 50.1006 58.8 48.5006 61.3 46.6006C63.8 44.7006 64 44.5007 65.3 43.4007C66.6 42.3006 68 41.3006 69.7 40.9007C73.1 40.0006 75.6 42.4006 77.9 44.6006C80.2 46.8006 82.2 48.9007 85.1 48.7006C88 48.5006 90.4 45.3006 89.9 42.3006C89.4 39.3006 86.4 37.2007 83.5 36.4007C80.6 35.6007 82.9 36.6006 83.4 36.7006C86 37.4006 88.6 39.3006 89 42.1006C89.4 44.9006 87.6 47.9006 84.7 48.3006C81.8 48.7006 81.8 47.6006 80.7 46.6006C79.6 45.6006 78.6 44.7006 77.5 43.7006C75.6 41.9006 73.2 40.2006 70.4 40.3006C67.6 40.4006 65.2 42.5006 63 44.2006C60.8 45.9006 58.3 48.1006 55.6 49.6006C51.2 52.0006 45.1 52.5006 41 49.1006C36.9 45.7006 37.7 44.5006 38.2 41.7006C38.7 38.9006 41.4 35.7007 43.9 33.4007C46.4 31.1007 43.3 32.9006 43.1 33.0006H43.2Z" fill="#F5AD69"/>
<path d="M46.1 43.8008C47.3 44.0008 48.3 45.2008 47.3 47.0008C47.6 46.7008 48.4 45.2008 47.5 44.0008C47.1 43.4008 46.3 43.1008 46.1 42.3008C45.9 41.5008 46.1 41.9008 46.1 41.9008" fill="#1B1919"/>
<path d="M46.1 41.5C47.5 41.7 48.7 42.9 47.5 44.7C47.9 44.4 48.9 42.9 47.8 41.7C47.3 41.1 46.3 40.8 46.2 40C46.1 39.2 46.2 39.6 46.2 39.6" fill="#1B1919"/>
<path d="M46.2 39.5996H46C46 39.5996 46 46.3996 46 46.4996C45.9 46.4996 45.7 46.3996 45.5 46.3996C45.1 46.3996 44.6 46.4996 44.3 46.6996C43.7 46.9996 43.3 48.0996 44.1 48.3996C45 48.5996 46 48.1996 46.2 47.0996C46.2 46.8996 46.2 42.4996 46.2 41.9996" fill="#1B1919"/>
<path d="M82.7 38.6004H82.4L79.4 40.2004L80.2 44.9004C79.9 44.8004 79.6 44.8004 79.3 44.9004C78.8 45.2004 78.5 45.8004 78.6 46.2004C78.8 46.6004 79.3 46.8004 79.9 46.5004C80.4 46.2004 80.7 45.6004 80.6 45.2004C80.6 45.2004 80.2 43.0004 80 41.4004L82.8 39.9004L83.3 43.2004C83 43.1004 82.7 43.1004 82.4 43.2004C81.9 43.5004 81.6 44.1004 81.7 44.5004C81.9 44.9004 82.4 45.1004 83 44.8004C83.5 44.5004 83.8 43.9004 83.7 43.5004L82.9 38.4004L82.7 38.6004ZM79.9 41.1004C79.9 40.9004 79.9 40.7004 79.9 40.6004L82.7 39.1004V39.6004L80 41.1004H79.9Z" fill="#1B1919"/>
<path d="M57.1001 43.8007C56.7001 44.3007 56.6001 45.0007 57.0001 45.4007C57.0001 45.4007 59.2001 48.9007 60.5001 50.9007L58.5001 53.4007L55.3 48.4007C55.6 48.4007 56.0001 48.3007 56.2001 47.9007C56.6001 47.4007 56.7 46.7007 56.3 46.3007C55.9 45.9007 55.3001 46.0007 54.9001 46.5007C54.5001 47.0007 54.4 47.7007 54.8 48.1007L58.5001 53.9007L60.9001 51.0007L57.4001 45.6007C57.7001 45.6007 58.1 45.5007 58.3 45.1007C58.7 44.6007 58.8001 43.9007 58.4001 43.5007C58.0001 43.1007 57.4001 43.2007 57.0001 43.7007L57.1001 43.8007Z" fill="#1B1919"/>
<path d="M67.5 44.1008L68.4001 43.8008V44.0008C68.7001 44.5008 69.3001 44.6008 69.9001 44.2008C70.3001 43.9008 70.5 43.5008 70.5 43.1008L71.5 42.8008V42.5008L70.5 42.8008C70.5 42.8008 70.5 42.7008 70.5 42.6008L68.7001 36.8008H68.4001L70 42.2008C69.7 42.1008 69.3001 42.2008 68.9001 42.4008C68.5001 42.7008 68.3 43.1008 68.3 43.5008L67.3 43.8008V44.1008H67.5Z" fill="#1B1919"/>
</g>
</g>
<path d="M2.61328 73.7812H4.9375L8.82422 84.4844L12.7012 73.7812H15.0352L9.75195 88H7.88672L2.61328 73.7812ZM1.44141 73.7812H3.7168L4.12695 83.6152V88H1.44141V73.7812ZM13.9219 73.7812H16.207V88H13.5215V83.6152L13.9219 73.7812ZM21.4805 77.4336V88H18.8926V77.4336H21.4805ZM18.7168 74.6699C18.7168 74.2858 18.847 73.9668 19.1074 73.7129C19.3743 73.459 19.7324 73.332 20.1816 73.332C20.6309 73.332 20.9857 73.459 21.2461 73.7129C21.513 73.9668 21.6465 74.2858 21.6465 74.6699C21.6465 75.0475 21.513 75.3633 21.2461 75.6172C20.9857 75.8711 20.6309 75.998 20.1816 75.998C19.7324 75.998 19.3743 75.8711 19.1074 75.6172C18.847 75.3633 18.7168 75.0475 18.7168 74.6699ZM30.2793 85.7539V73H32.877V88H30.5332L30.2793 85.7539ZM23.4922 82.8438V82.6387C23.4922 81.8314 23.5833 81.099 23.7656 80.4414C23.9544 79.7773 24.2279 79.2077 24.5859 78.7324C24.944 78.2572 25.377 77.8893 25.8848 77.6289C26.3991 77.3685 26.9818 77.2383 27.6328 77.2383C28.2643 77.2383 28.8145 77.3652 29.2832 77.6191C29.7585 77.873 30.1621 78.2344 30.4941 78.7031C30.8327 79.1719 31.1029 79.7285 31.3047 80.373C31.5065 81.0111 31.653 81.7142 31.7441 82.4824V83.0391C31.653 83.7878 31.5065 84.4746 31.3047 85.0996C31.1029 85.7246 30.8327 86.2715 30.4941 86.7402C30.1621 87.2025 29.7585 87.5605 29.2832 87.8145C28.8079 88.0684 28.2513 88.1953 27.6133 88.1953C26.9688 88.1953 26.3893 88.0618 25.875 87.7949C25.3672 87.528 24.9342 87.1536 24.5762 86.6719C24.2246 86.1901 23.9544 85.6237 23.7656 84.9727C23.5833 84.3216 23.4922 83.612 23.4922 82.8438ZM26.0801 82.6387V82.8438C26.0801 83.2995 26.1191 83.7259 26.1973 84.123C26.2754 84.5202 26.4023 84.8717 26.5781 85.1777C26.7539 85.4772 26.9785 85.7116 27.252 85.8809C27.5319 86.0501 27.8704 86.1348 28.2676 86.1348C28.7754 86.1348 29.1921 86.0241 29.5176 85.8027C29.8496 85.5749 30.1068 85.2656 30.2891 84.875C30.4714 84.4779 30.5885 84.0319 30.6406 83.5371V82.0039C30.6146 81.6133 30.5462 81.252 30.4355 80.9199C30.3314 80.5879 30.1816 80.3014 29.9863 80.0605C29.7975 79.8197 29.5632 79.6309 29.2832 79.4941C29.0033 79.3574 28.6712 79.2891 28.2871 79.2891C27.89 79.2891 27.5514 79.377 27.2715 79.5527C26.9915 79.722 26.7637 79.9596 26.5879 80.2656C26.4121 80.5716 26.2819 80.9264 26.1973 81.3301C26.1191 81.7337 26.0801 82.1699 26.0801 82.6387ZM41.5488 85.7539V73H44.1465V88H41.8027L41.5488 85.7539ZM34.7617 82.8438V82.6387C34.7617 81.8314 34.8529 81.099 35.0352 80.4414C35.224 79.7773 35.4974 79.2077 35.8555 78.7324C36.2135 78.2572 36.6465 77.8893 37.1543 77.6289C37.6686 77.3685 38.2513 77.2383 38.9023 77.2383C39.5339 77.2383 40.084 77.3652 40.5527 77.6191C41.028 77.873 41.4316 78.2344 41.7637 78.7031C42.1022 79.1719 42.3724 79.7285 42.5742 80.373C42.776 81.0111 42.9225 81.7142 43.0137 82.4824V83.0391C42.9225 83.7878 42.776 84.4746 42.5742 85.0996C42.3724 85.7246 42.1022 86.2715 41.7637 86.7402C41.4316 87.2025 41.028 87.5605 40.5527 87.8145C40.0775 88.0684 39.5208 88.1953 38.8828 88.1953C38.2383 88.1953 37.6589 88.0618 37.1445 87.7949C36.6367 87.528 36.2038 87.1536 35.8457 86.6719C35.4941 86.1901 35.224 85.6237 35.0352 84.9727C34.8529 84.3216 34.7617 83.612 34.7617 82.8438ZM37.3496 82.6387V82.8438C37.3496 83.2995 37.3887 83.7259 37.4668 84.123C37.5449 84.5202 37.6719 84.8717 37.8477 85.1777C38.0234 85.4772 38.248 85.7116 38.5215 85.8809C38.8014 86.0501 39.14 86.1348 39.5371 86.1348C40.0449 86.1348 40.4616 86.0241 40.7871 85.8027C41.1191 85.5749 41.3763 85.2656 41.5586 84.875C41.7409 84.4779 41.8581 84.0319 41.9102 83.5371V82.0039C41.8841 81.6133 41.8158 81.252 41.7051 80.9199C41.6009 80.5879 41.4512 80.3014 41.2559 80.0605C41.0671 79.8197 40.8327 79.6309 40.5527 79.4941C40.2728 79.3574 39.9408 79.2891 39.5566 79.2891C39.1595 79.2891 38.821 79.377 38.541 79.5527C38.2611 79.722 38.0332 79.9596 37.8574 80.2656C37.6816 80.5716 37.5514 80.9264 37.4668 81.3301C37.3887 81.7337 37.3496 82.1699 37.3496 82.6387ZM49.2148 73V88H46.627V73H49.2148ZM56.4219 88.1953C55.6211 88.1953 54.9017 88.0651 54.2637 87.8047C53.6257 87.5443 53.082 87.1829 52.6328 86.7207C52.1901 86.252 51.8483 85.7083 51.6074 85.0898C51.373 84.4648 51.2559 83.7943 51.2559 83.0781V82.6875C51.2559 81.8737 51.373 81.1348 51.6074 80.4707C51.8418 79.8001 52.1738 79.224 52.6035 78.7422C53.0332 78.2604 53.5475 77.8893 54.1465 77.6289C54.7454 77.3685 55.4062 77.2383 56.1289 77.2383C56.8776 77.2383 57.5384 77.3652 58.1113 77.6191C58.6842 77.8665 59.1628 78.2181 59.5469 78.6738C59.931 79.1296 60.2207 79.6764 60.416 80.3145C60.6113 80.946 60.709 81.6458 60.709 82.4141V83.498H52.4277V81.7207H58.1699V81.5254C58.1569 81.1152 58.0788 80.7409 57.9355 80.4023C57.7923 80.0573 57.571 79.7839 57.2715 79.582C56.972 79.3737 56.5846 79.2695 56.1094 79.2695C55.7253 79.2695 55.39 79.3542 55.1035 79.5234C54.8236 79.6862 54.5892 79.9206 54.4004 80.2266C54.2181 80.526 54.0814 80.8841 53.9902 81.3008C53.8991 81.7174 53.8535 82.1797 53.8535 82.6875V83.0781C53.8535 83.5208 53.9121 83.931 54.0293 84.3086C54.153 84.6862 54.332 85.015 54.5664 85.2949C54.8073 85.5684 55.0938 85.7832 55.4258 85.9395C55.7643 86.0892 56.1484 86.1641 56.5781 86.1641C57.1185 86.1641 57.6068 86.0599 58.043 85.8516C58.4857 85.6367 58.8698 85.321 59.1953 84.9043L60.4941 86.252C60.2728 86.5775 59.9733 86.89 59.5957 87.1895C59.2246 87.4889 58.7754 87.7331 58.248 87.9219C57.7207 88.1042 57.112 88.1953 56.4219 88.1953ZM75.0547 84.3086C75.0547 84.0352 75.0124 83.791 74.9277 83.5762C74.8496 83.3548 74.7031 83.1562 74.4883 82.9805C74.2799 82.7982 73.9837 82.6224 73.5996 82.4531C73.222 82.2773 72.7337 82.0951 72.1348 81.9062C71.4707 81.6979 70.8522 81.4635 70.2793 81.2031C69.7064 80.9427 69.2018 80.64 68.7656 80.2949C68.3359 79.9499 68.0007 79.5527 67.7598 79.1035C67.5189 78.6478 67.3984 78.1204 67.3984 77.5215C67.3984 76.9355 67.5221 76.4017 67.7695 75.9199C68.0234 75.4382 68.3815 75.0247 68.8438 74.6797C69.306 74.3281 69.8496 74.0579 70.4746 73.8691C71.1061 73.6803 71.8027 73.5859 72.5645 73.5859C73.6191 73.5859 74.5306 73.778 75.2988 74.1621C76.0736 74.5462 76.6725 75.0671 77.0957 75.7246C77.5189 76.3822 77.7305 77.1211 77.7305 77.9414H75.0547C75.0547 77.4987 74.9603 77.1081 74.7715 76.7695C74.5892 76.431 74.3092 76.1641 73.9316 75.9688C73.5605 75.7734 73.0918 75.6758 72.5254 75.6758C71.9785 75.6758 71.5228 75.7572 71.1582 75.9199C70.8001 76.0827 70.5299 76.304 70.3477 76.584C70.1719 76.8639 70.084 77.1764 70.084 77.5215C70.084 77.7819 70.1458 78.0163 70.2695 78.2246C70.3932 78.4264 70.5788 78.6185 70.8262 78.8008C71.0736 78.9766 71.3796 79.1426 71.7441 79.2988C72.1152 79.4486 72.5449 79.5983 73.0332 79.748C73.8145 79.9824 74.498 80.2428 75.084 80.5293C75.6764 80.8158 76.168 81.1413 76.5586 81.5059C76.9557 81.8704 77.252 82.2806 77.4473 82.7363C77.6491 83.1921 77.75 83.7096 77.75 84.2891C77.75 84.901 77.6296 85.4479 77.3887 85.9297C77.1478 86.4115 76.8027 86.8216 76.3535 87.1602C75.9043 87.4987 75.3639 87.7559 74.7324 87.9316C74.1074 88.1074 73.4076 88.1953 72.6328 88.1953C71.9427 88.1953 71.2591 88.1042 70.582 87.9219C69.9115 87.7331 69.3027 87.4531 68.7559 87.082C68.209 86.7044 67.7728 86.2292 67.4473 85.6562C67.1217 85.0768 66.959 84.3997 66.959 83.625H69.6543C69.6543 84.0742 69.7259 84.4583 69.8691 84.7773C70.0189 85.0898 70.2272 85.347 70.4941 85.5488C70.7676 85.7441 71.0866 85.8874 71.4512 85.9785C71.8158 86.0697 72.2096 86.1152 72.6328 86.1152C73.1797 86.1152 73.6289 86.0404 73.9805 85.8906C74.3385 85.7344 74.6055 85.5195 74.7812 85.2461C74.9635 84.9727 75.0547 84.6602 75.0547 84.3086ZM83.9609 86.1641C84.3255 86.1641 84.651 86.0924 84.9375 85.9492C85.224 85.806 85.4518 85.6042 85.6211 85.3438C85.7969 85.0833 85.8913 84.7806 85.9043 84.4355H88.3359C88.3229 85.1517 88.1211 85.793 87.7305 86.3594C87.3398 86.9258 86.819 87.375 86.168 87.707C85.5234 88.0326 84.8008 88.1953 84 88.1953C83.1862 88.1953 82.4766 88.0586 81.8711 87.7852C81.2656 87.5117 80.7611 87.1309 80.3574 86.6426C79.9603 86.1543 79.6608 85.5879 79.459 84.9434C79.2637 84.2988 79.166 83.6087 79.166 82.873V82.5605C79.166 81.8249 79.2637 81.1348 79.459 80.4902C79.6608 79.8457 79.9603 79.2793 80.3574 78.791C80.7611 78.3027 81.2656 77.9219 81.8711 77.6484C82.4766 77.375 83.1829 77.2383 83.9902 77.2383C84.8431 77.2383 85.5918 77.4043 86.2363 77.7363C86.8874 78.0684 87.3952 78.5371 87.7598 79.1426C88.1309 79.748 88.3229 80.4609 88.3359 81.2812H85.9043C85.8913 80.9036 85.8066 80.5651 85.6504 80.2656C85.4941 79.9661 85.2728 79.7253 84.9863 79.543C84.6999 79.3607 84.3516 79.2695 83.9414 79.2695C83.5052 79.2695 83.1406 79.3607 82.8477 79.543C82.5612 79.7253 82.3366 79.9759 82.1738 80.2949C82.0176 80.6074 81.9069 80.959 81.8418 81.3496C81.7832 81.7337 81.7539 82.1374 81.7539 82.5605V82.873C81.7539 83.3027 81.7832 83.7129 81.8418 84.1035C81.9069 84.4941 82.0176 84.8457 82.1738 85.1582C82.3366 85.4642 82.5612 85.7083 82.8477 85.8906C83.1406 86.0729 83.5117 86.1641 83.9609 86.1641ZM92.584 73V88H89.9961V73H92.584ZM92.1738 82.3359H91.4121C91.4121 81.6003 91.5098 80.9232 91.7051 80.3047C91.9004 79.6862 92.1771 79.1491 92.5352 78.6934C92.8932 78.2311 93.3197 77.873 93.8145 77.6191C94.3158 77.3652 94.8691 77.2383 95.4746 77.2383C95.9954 77.2383 96.4674 77.3132 96.8906 77.4629C97.3203 77.6061 97.6882 77.8372 97.9941 78.1562C98.3001 78.4753 98.5345 78.8919 98.6973 79.4062C98.8665 79.9141 98.9512 80.5326 98.9512 81.2617V88H96.3535V81.2422C96.3535 80.7539 96.2819 80.3698 96.1387 80.0898C95.9954 79.8034 95.7904 79.5983 95.5234 79.4746C95.263 79.3509 94.9408 79.2891 94.5566 79.2891C94.14 79.2891 93.7819 79.3704 93.4824 79.5332C93.1829 79.6895 92.9355 79.9076 92.7402 80.1875C92.5514 80.4674 92.4082 80.7897 92.3105 81.1543C92.2194 81.5189 92.1738 81.9128 92.1738 82.3359ZM100.768 82.8242V82.6191C100.768 81.8444 100.878 81.1315 101.1 80.4805C101.321 79.8229 101.643 79.2533 102.066 78.7715C102.49 78.2897 103.007 77.9154 103.619 77.6484C104.231 77.375 104.928 77.2383 105.709 77.2383C106.503 77.2383 107.206 77.375 107.818 77.6484C108.437 77.9154 108.958 78.2897 109.381 78.7715C109.804 79.2533 110.126 79.8229 110.348 80.4805C110.569 81.1315 110.68 81.8444 110.68 82.6191V82.8242C110.68 83.5924 110.569 84.3053 110.348 84.9629C110.126 85.6139 109.804 86.1836 109.381 86.6719C108.958 87.1536 108.44 87.528 107.828 87.7949C107.216 88.0618 106.516 88.1953 105.729 88.1953C104.947 88.1953 104.247 88.0618 103.629 87.7949C103.01 87.528 102.49 87.1536 102.066 86.6719C101.643 86.1836 101.321 85.6139 101.1 84.9629C100.878 84.3053 100.768 83.5924 100.768 82.8242ZM103.346 82.6191V82.8242C103.346 83.2865 103.391 83.7194 103.482 84.123C103.574 84.5267 103.714 84.8815 103.902 85.1875C104.091 85.4935 104.335 85.7344 104.635 85.9102C104.941 86.0794 105.305 86.1641 105.729 86.1641C106.145 86.1641 106.503 86.0794 106.803 85.9102C107.102 85.7344 107.346 85.4935 107.535 85.1875C107.73 84.8815 107.874 84.5267 107.965 84.123C108.056 83.7194 108.102 83.2865 108.102 82.8242V82.6191C108.102 82.1634 108.056 81.737 107.965 81.3398C107.874 80.9362 107.73 80.5814 107.535 80.2754C107.346 79.9629 107.099 79.7188 106.793 79.543C106.493 79.3607 106.132 79.2695 105.709 79.2695C105.292 79.2695 104.934 79.3607 104.635 79.543C104.335 79.7188 104.091 79.9629 103.902 80.2754C103.714 80.5814 103.574 80.9362 103.482 81.3398C103.391 81.737 103.346 82.1634 103.346 82.6191ZM112.096 82.8242V82.6191C112.096 81.8444 112.206 81.1315 112.428 80.4805C112.649 79.8229 112.971 79.2533 113.395 78.7715C113.818 78.2897 114.335 77.9154 114.947 77.6484C115.559 77.375 116.256 77.2383 117.037 77.2383C117.831 77.2383 118.535 77.375 119.146 77.6484C119.765 77.9154 120.286 78.2897 120.709 78.7715C121.132 79.2533 121.454 79.8229 121.676 80.4805C121.897 81.1315 122.008 81.8444 122.008 82.6191V82.8242C122.008 83.5924 121.897 84.3053 121.676 84.9629C121.454 85.6139 121.132 86.1836 120.709 86.6719C120.286 87.1536 119.768 87.528 119.156 87.7949C118.544 88.0618 117.844 88.1953 117.057 88.1953C116.275 88.1953 115.576 88.0618 114.957 87.7949C114.339 87.528 113.818 87.1536 113.395 86.6719C112.971 86.1836 112.649 85.6139 112.428 84.9629C112.206 84.3053 112.096 83.5924 112.096 82.8242ZM114.674 82.6191V82.8242C114.674 83.2865 114.719 83.7194 114.811 84.123C114.902 84.5267 115.042 84.8815 115.23 85.1875C115.419 85.4935 115.663 85.7344 115.963 85.9102C116.269 86.0794 116.633 86.1641 117.057 86.1641C117.473 86.1641 117.831 86.0794 118.131 85.9102C118.43 85.7344 118.674 85.4935 118.863 85.1875C119.059 84.8815 119.202 84.5267 119.293 84.123C119.384 83.7194 119.43 83.2865 119.43 82.8242V82.6191C119.43 82.1634 119.384 81.737 119.293 81.3398C119.202 80.9362 119.059 80.5814 118.863 80.2754C118.674 79.9629 118.427 79.7188 118.121 79.543C117.822 79.3607 117.46 79.2695 117.037 79.2695C116.62 79.2695 116.262 79.3607 115.963 79.543C115.663 79.7188 115.419 79.9629 115.23 80.2754C115.042 80.5814 114.902 80.9362 114.811 81.3398C114.719 81.737 114.674 82.1634 114.674 82.6191ZM126.617 73V88H124.029V73H126.617Z" fill="#696061"/>
<defs>
<clipPath id="clip0_3924_37459">
<rect width="68" height="55" fill="white" transform="translate(30)"/>
</clipPath>
</defs>
</svg>
