<svg width="143" height="95" viewBox="0 0 143 95" fill="none" xmlns="http://www.w3.org/2000/svg">
<g clip-path="url(#clip0_3924_37473)">
<mask id="mask0_3924_37473" style="mask-type:luminance" maskUnits="userSpaceOnUse" x="37" y="0" width="69" height="55">
<path d="M105.5 0H37.5V55H105.5V0Z" fill="white"/>
</mask>
<g mask="url(#mask0_3924_37473)">
<path d="M46.1 14.1007C45.4 14.3007 45.6 14.6007 44.5 14.8007V14.9007C41.7 15.4007 40.2 12.2007 41.7 10.3007C43.1 8.60073 46.3 9.40073 46.6 11.6007C46.8 13.1007 46 13.6007 46.1 14.0007V14.1007Z" fill="#D0BBDB"/>
<path d="M98.5 14.9996C98.1 14.9996 97.2 14.3996 96.9 14.0996C95 11.8996 97.5 8.39961 100.4 9.79961C103.1 11.0996 101.7 15.4996 98.5 14.9996Z" fill="#D0BBDB"/>
<path d="M72.2 6.19993C71.9 6.19993 71.1 6.29993 70.8 6.19993C68.3 5.69993 68.1 1.39993 71 0.999927C74.7 0.499927 75.1 5.49993 72.2 6.09993V6.19993Z" fill="#D0BBDB"/>
<path d="M57.9001 15.3C57.7001 15.5 56.8001 16.1 56.5001 16.1C53.4001 16.5 53.0001 11.9 55.7001 11.6C58.2001 11.3 59.2001 13.9 58.0001 15.3H57.9001Z" fill="#D0BBDB"/>
<path d="M86.7 16.2003C86.2 16.2003 85.5 15.8003 85.2 15.5003C83.5 13.6003 85.6 10.7003 88.1 12.0003C90.1 13.1003 89.2 16.5003 86.7 16.3003V16.2003Z" fill="#D0BBDB"/>
<path d="M72.2 6.19922C74.6 11.3992 77.5 16.2992 81.2 20.6992L85.3 15.3992C85.6 15.6992 86.3 16.0992 86.8 16.0992L87.7 24.9992C91.3 21.8992 94.3 17.8992 97.1 13.9992C97.4 14.2992 98.2 14.8992 98.7 14.8992C95.8 20.5992 94.3 26.8992 92.1 32.8992V38.4992L92 38.6992H51.2V32.8992C49.5 27.5992 47.9 21.6992 45.6 16.6992C45.4 16.1992 44.8 14.9992 44.5 14.8992V14.7992C45.6 14.4992 45.3 14.2992 46.1 14.0992C48.8 17.9992 51.9 21.6992 55.3 24.8992C55.8 21.9992 56.1 18.9992 56.4 16.0992C56.7 16.0992 57.6 15.4992 57.8 15.2992L62 20.5992C65.6 16.2992 68.4 11.2992 70.8 6.29922C71.1 6.29922 71.9 6.29922 72.2 6.29922V6.19922Z" fill="#6D3293"/>
<path d="M71.4 6.59961C71.8 6.59961 71.8 6.59961 72 6.89961C72.2 7.19961 74.7 12.2996 75.6 13.7996C77.1 16.2996 79.2 19.3996 81.2 21.4996H81.4C83 23.1996 84.6 24.8996 86.5 26.2996C86.9 26.2996 87 25.8996 87.6 25.9996C89.1 25.2996 92.6 21.2996 93.8 19.7996C94.8 18.4996 97.1 14.9996 97.4 14.7996C97.6 14.6996 98.1 14.9996 98.1 15.1996C98.1 15.4996 96.1 19.3996 95.9 20.0996C93.1 23.5996 90.2 26.9996 86.9 30.0996C79.9 23.9996 77 19.5996 72.1 11.8996H71.5C66.6 19.4996 63.3 24.3996 56.4 30.4996C52.8 26.8996 49.4 23.6996 47.1 18.9996C46.9 18.4996 45.4 15.1996 45.5 14.8996C45.9 14.1996 47.2 16.6996 47.8 17.4996C50.2 20.7996 53.1 23.6996 55.9 26.7996C56 26.7996 56.6 26.3996 57.3 26.7996C57.9 25.9996 61.3 21.7996 61.6 21.5996H62C63 20.8996 67.4 14.0996 68.3 12.5996C69.1 11.0996 70.7 7.29961 70.9 7.09961C71 6.99961 71.3 6.79961 71.4 6.79961V6.59961Z" fill="#D0BBDB"/>
<path d="M58.3 22.3C58.1 22.1 59.3 21.4 58.7 21.5C58.7 21.5 57.8 22.4 57.7 22.6C57.3 23 57 23.3 56.7 23.7H56.6C56.8 23.4 57.7 22.1 57.4 22.1C57.4 22.1 56.7 23.4 56.6 23.1L57.1 22.4C56.7 22.3 56.8 23 56.4 22.7C56.5 21.8 57.1 16.5 57.2 16.2C57.2 16.2 57.5 16 57.6 16C58 16 60.6 19.4 59.3 18.1C59.1 18.1 60.8 20 60.5 20C58.9 18.2 60.3 19.9 60.5 20.2C60.5 20.3 60.5 20.4 60.5 20.4C60.3 20.3 59.6 19.1 59.5 19C59.2 19 59.9 19.6 59.3 19.3C59.7 20.3 58.9 18.7 58.6 18.6L60.7 21.7L59.4 22.9H59.3C60.9 21.1 60.6 21.2 59.1 22.7H59C60.6 20.9 59.3 22.3 59.1 22.4C58.9 22.4 59.1 22.2 59 22.2C59 22.2 58.8 22.4 58.7 22.5C58.7 22.5 58.6 22.5 58.5 22.5L58.3 22.3Z" fill="#D0BBDB"/>
<path d="M84.5001 19.1004C84.7001 18.8004 85.0001 18.6004 85.2001 18.3004C85.2001 18.1004 84.5001 18.9004 85.1001 18.0004H85.0001C84.9001 18.1004 84.8001 18.3004 84.6001 18.4004C83.7001 19.4004 84.6001 18.2004 84.6001 18.2004C84.6001 17.7004 83.2001 19.9004 83.1001 20.0004H83.0001C83.7001 18.9004 85.6001 16.5004 84.4001 17.8004C84.2001 18.0004 83.4001 19.2004 83.5001 18.8004C83.5001 18.6004 85.4001 16.4004 82.7001 19.5004C82.9001 19.1004 85.2001 15.9004 85.5001 15.9004C85.6001 15.9004 86.1001 16.2004 86.1001 16.3004C86.2001 16.6004 86.6001 21.8004 86.7001 22.7004C85.3001 21.6004 86.7001 23.3004 86.5001 23.3004L85.7001 22.1004C84.5001 21.1004 86.1001 22.7004 86.2001 23.0004C86.6001 23.9004 85.1001 21.5004 84.9001 21.9004L85.2001 22.2004C84.5001 22.0004 85.2001 22.5004 85.4001 22.7004C86.1001 23.7004 84.8001 22.1004 84.7001 22.5004C84.7001 22.5004 85.0001 22.7004 84.7001 22.8004C82.1001 20.4004 84.6001 22.7004 85.1001 23.4004C85.7001 24.3004 83.9001 22.3004 83.2001 21.6004L85.0001 19.0004C85.0001 18.5004 83.2001 21.3004 83.6001 20.4004C83.6001 20.4004 84.3001 19.4004 84.5001 19.1004Z" fill="#D0BBDB"/>
<path d="M58.3 22.3C57.9 22.6 57.2 23.5 56.8 24C56.4 24 57.6 22.8 57.6 22.6C57.8 22.4 58.5 21.5 58.6 21.5C59.1 21.4 57.9 22.1 58.2 22.3H58.3Z" fill="#D0BBDB"/>
<path d="M84.5 19.1004C84.2 19.1004 83.5 20.5004 83.6 20.0004C83.6 19.9004 85 18.4004 84.6 18.4004C84.7 18.3004 84.9 18.1004 85 17.9004H85.1C84.5 18.8004 85.1 18.0004 85.2 18.2004C85 18.5004 84.7 18.8004 84.5 19.0004V19.1004Z" fill="#D0BBDB"/>
<path d="M58.7 22.4004C58.7 22.9004 57.6 23.4004 57.3 23.8004C57.2 23.8004 57.9 22.8004 58 22.7004C58.6 22.1004 58.1 22.7004 57.9 23.2004L58.6 22.4004H58.7Z" fill="#D0BBDB"/>
<path d="M59.6 18.4004C59.8 18.4004 60.7 19.6004 60.5 19.6004L59.6 18.4004Z" fill="#D0BBDB"/>
<path d="M84.1001 18.9004H84.2001C83.2001 20.4004 83.1001 20.2004 84.1001 18.9004Z" fill="#D0BBDB"/>
<path d="M91.6 26.8008C91.9 26.8008 91.7 26.8008 91.6 27.2008C91.4 27.6008 91.2 27.8008 91 28.2008L91.5 27.7008V28.0008C91.6 27.8008 91.7 27.8008 91.8 27.7008C91.8 28.1008 91.8 27.7008 92.1 27.7008C91.7 28.4008 92.4 27.5008 92.4 27.7008L91.3 29.2008H91.4C91.9 28.7008 93.5 26.4008 93.5 27.0008C93.5 27.3008 92 31.4008 91.8 32.0008H51.5C51.1 32.0008 48.9 24.2008 48.8 23.7008C48.8 23.3008 48.5 22.8008 49.2 23.0008C49.4 23.0008 51.6 26.2008 51.9 26.7008V28.6008C52.2 29.0008 52.5 29.5008 52.9 29.8008C53.9 30.8008 53.3 30.0008 53.3 29.9008C53.3 29.8008 53.6 29.9008 53.6 29.9008L53.3 29.6008C53.3 29.6008 53.6 29.2008 53.3 28.9008C53.8 28.9008 53.3 28.8008 53.3 28.7008L53.6 28.5008C53.8 28.5008 55.9 31.1008 56.3 31.1008C62.7 26.8008 67.6 19.2008 71.6 12.8008C71.8 12.8008 72.3 14.1008 72.5 14.4008C76.2 20.7008 81.5 26.5008 87.3 30.9008C88.9 29.7008 90.1 28.2008 91.5 26.8008H91.6Z" fill="#D0BBDB"/>
<path d="M71.9 18.6996L72.3 19.7996C72.5 20.3996 73.1 20.8996 73.9 21.0996C73.1 21.2996 72.6 21.7996 72.3 22.3996L71.9 23.4996L71.5 22.3996C71.3 21.7996 70.7 21.2996 69.9 21.0996C70.7 20.8996 71.3 20.3996 71.5 19.6996L71.9 18.5996V18.6996Z" fill="white"/>
<path d="M71.9 24.2992L72.3 25.3992C72.5 25.9992 73.1 26.4992 73.9 26.6992C73.1 26.8992 72.6 27.3992 72.3 27.9992L71.9 29.0992L71.5 27.9992C71.3 27.3992 70.7 26.8992 69.9 26.6992C70.7 26.4992 71.3 25.9992 71.5 25.2992L71.9 24.1992V24.2992Z" fill="#6D3293"/>
<path d="M66.8001 24.3008L67.2001 25.9008C67.5001 26.8008 68.2001 27.6008 69.1001 27.9008C68.2001 28.3008 67.5001 29.0008 67.3001 29.9008L66.9001 31.5008L66.5001 29.9008C66.3001 29.0008 65.6001 28.3008 64.7001 28.0008C65.6001 27.7008 66.4001 26.9008 66.6001 26.0008L67.0001 24.4008L66.8001 24.3008Z" fill="white"/>
<path d="M77.2 24.4004L77.6 26.0004C77.9 26.9004 78.6 27.7004 79.5 28.0004C78.6 28.4004 77.9 29.1004 77.7 30.0004L77.3 31.6004L76.9 30.0004C76.7 29.1004 76 28.4004 75.1 28.1004C76 27.8004 76.8 27.0004 77 26.1004L77.4 24.5004L77.2 24.4004Z" fill="white"/>
<path d="M51.6 33.0996H53.1C53.1 33.1996 91.4 33.1996 91.4 33.1996C91.4 34.6996 91.4 36.1996 91.4 37.5996L91.2 37.7996H51.6V33.0996Z" fill="#D0BBDB"/>
<path d="M70.7001 34.5L72.9001 34.6V36.7L72.8001 36.9L70.7001 36.8V34.5Z" fill="white"/>
<path d="M87.3 34.5L89.5 34.6V36.7L89.3 36.9L87.3 36.8V34.5Z" fill="white"/>
<path d="M53.6 34.5L55.8 34.6L55.7 36.8H53.5L53.6 34.5Z" fill="white"/>
<path d="M57.6 34.5L59.8 34.6L59.7 36.8H57.5L57.6 34.5Z" fill="white"/>
<path d="M61.7001 34.5L63.9001 34.6L63.8001 36.8H61.7001V34.5Z" fill="white"/>
<path d="M66.2001 34.5L68.4001 34.6L68.3001 36.8H66.2001V34.5Z" fill="white"/>
<path d="M74.9001 34.5L77 34.6L76.9001 36.8H74.8L74.9001 34.5Z" fill="white"/>
<path d="M78.9001 34.5L81 34.6L80.9001 36.8H78.8L78.9001 34.5Z" fill="white"/>
<path d="M83.4529 34.4492L83.4167 36.7489L85.5164 36.7819L85.5527 34.4822L83.4529 34.4492Z" fill="white"/>
<path d="M48.2 25.4999C44.2 28.3999 39.7 33.5999 42.5 38.6999C45.3 43.7999 45.8 42.1999 48 43.0999C50.2 43.9999 54.4 44.5999 57.6 44.0999C64.5 42.9999 69.6 37.6999 75.4 34.2999C81.2 30.8999 79 32.6999 81.1 33.1999C83.2 33.6999 84.7 34.8999 86.2 36.0999C88.8 38.1999 91.6 41.2999 95.2 41.0999C98.8 40.8999 100.5 38.7999 100.6 35.9999C100.7 33.1999 98.8 30.8999 96.3 29.7999C93.8 28.6999 94.4 29.0999 93.5 28.7999C92.6 28.4999 92.9 28.9999 93.4 29.1999C95.1 29.7999 97 30.2999 98.3 31.6999C99.6 33.0999 99.7 33.7999 99.8 34.9999C100 37.6999 98.1 40.0999 95.5 40.6999C92.9 41.2999 91.8 40.0999 90.3 38.9999C88.8 37.8999 87.6 36.5999 86.1 35.4999C83.6 33.5999 80.5 32.0999 77.3 32.7999C74.1 33.4999 74.2 34.1999 72.8 35.0999C71.4 35.9999 70.1 36.9999 68.7 37.8999C66.1 39.7999 63.3 41.5999 60.3 42.7999C57.3 43.9999 53.9 44.0999 50.6 43.4999C47.3 42.8999 45.7 41.8999 44.1 39.8999C42.5 37.8999 42.3 36.0999 42.8 33.9999C43.3 31.8999 45.1 29.1999 47.1 27.3999C49.1 25.5999 48.4 26.2999 49.1 25.7999C49.8 25.2999 48.5 25.2999 48.3 25.3999L48.2 25.4999Z" fill="#6D3293"/>
<path d="M48.9 27.5005C46.4 29.3005 44.1 31.7005 43 34.6005C41.9 37.5005 42.4 39.2005 43.6 41.2005C46.4 45.7005 53.2 46.7005 58 45.8005C62.8 44.9005 64.1 43.7005 66.7 42.0005C69.3 40.3005 72.4 37.7005 75.6 36.1005C78.8 34.5005 77.4 35.3005 78.3 35.2005C79.2 35.1005 80.4 35.2005 81.4 35.7005C83.1 36.4005 84.7 37.5005 86.2 38.5005C88.8 40.3005 91.7 42.8005 95 42.2005C98.3 41.6005 100 39.3005 99.7 36.4005C99.4 33.5005 98.9 33.8005 97.9 32.8005C96.9 31.8005 94.8 30.9005 93.1 30.4005C91.4 29.9005 92 30.6005 92.5 30.8005C95.2 31.7005 98.1 33.0005 98.7 36.1005C99.3 39.2005 97.5 41.4005 94.9 41.8005C92.3 42.2005 91.5 41.2005 90.1 40.4005C88.7 39.6005 87.2 38.4005 85.8 37.4005C83.2 35.6005 80.4 34.1005 77.2 35.0005C74 35.9005 71.3 37.9005 68.8 39.8005C66.3 41.7005 63.7 43.5005 60.7 44.7005C57.7 45.9005 54.6 46.0005 51.5 45.4005C48.4 44.8005 46.9 43.9005 45.2 42.1005C43.5 40.3005 42.9 37.7005 43.6 35.2005C44.3 32.7005 47 29.5005 49.6 27.5005C52.2 25.5005 49.5 27.3005 49.4 27.3005C49.2 27.3005 48.9 27.3005 48.8 27.5005H48.9Z" fill="#8253A2"/>
<path d="M49.5 29.3991C47.1 31.2991 44.8 33.5991 43.7 36.5991C42.6 39.5991 43.2 41.4991 44.6 43.4991C47.7 47.7991 54.3 48.6991 59.1 47.5991C63.9 46.4991 64.9 45.2991 67.4 43.5991C69.9 41.8991 72.8 39.1991 76 37.8991C79.2 36.5991 79.4 37.0991 81.1 37.7991C82.8 38.4991 84.1 39.4991 85.5 40.4991C87.9 42.2991 90.6 44.1991 93.7 43.9991C96.8 43.7991 99 41.4991 98.8 38.4991C98.6 35.4991 95.4 33.3991 92.5 32.4991C89.6 31.5991 91.4 32.6991 91.9 32.7991C94.6 33.5991 97.3 35.0991 97.8 38.0991C98.3 41.0991 96.3 43.4991 93.5 43.5991C90.7 43.6991 87.7 41.1991 85.3 39.4991C82.9 37.7991 80.4 36.3991 77.4 36.9991C74.4 37.5991 71.9 39.2991 69.5 41.1991C67.1 43.0991 64.6 44.8991 61.8 46.1991C59 47.4991 56 47.8991 52.9 47.3991C49.8 46.8991 48.1 46.0991 46.3 44.3991C44.5 42.6991 43.7 39.7991 44.3 37.2991C44.9 34.7991 47.6 31.5991 50.2 29.5991C52.8 27.5991 49.6 29.3991 49.4 29.5991L49.5 29.3991Z" fill="#9872B2"/>
<path d="M50.1 31.3007C47.8 33.2007 45.5 35.5007 44.5 38.4007C43.5 41.3007 44 43.5007 45.5 45.6007C48.6 49.8007 55.1 50.6007 59.8 49.3007C64.5 48.0007 65.5 46.8007 68 44.9007C70.5 43.0007 73.1 40.3007 76.3 39.3007C83 37.2007 86.1 46.2007 92.5 45.9007C98.9 45.6007 98 43.6007 98 40.6007C98 37.6007 94.8 35.1007 91.9 34.2007C89 33.3007 90.9 34.4007 91.3 34.6007C94 35.4007 96.8 37.2007 97.1 40.3007C97.4 43.4007 95.1 45.7007 92.3 45.6007C89.5 45.5007 87 43.0007 84.9 41.3007C82.8 39.6007 80.3 38.3007 77.5 38.8007C74.7 39.3007 72.4 41.0007 70.2 42.7007C68 44.4007 65.4 46.6007 62.6 47.9007C57.9 50.1007 51.5 50.2007 47.5 46.5007C43.5 42.8007 44.6 41.7007 45.3 39.0007C46 36.3007 48.6 33.4007 51 31.3007C53.4 29.2007 50.9 31.1007 50.8 31.1007C50.6 31.1007 50.4 31.1007 50.2 31.3007H50.1Z" fill="#B294C5"/>
<path d="M50.7 33.0006C48.4 35.1006 46 37.5006 45.1 40.6006C44.2 43.7006 45.1 46.0006 46.8 48.0006C50 51.6006 55.9 52.5006 60.4 51.3006C64.9 50.1006 66.3 48.5006 68.8 46.6006C71.3 44.7006 71.5 44.5007 72.8 43.4007C74.1 42.3006 75.5 41.3006 77.2 40.9007C80.6 40.0006 83.1 42.4006 85.4 44.6006C87.7 46.8006 89.7 48.9007 92.6 48.7006C95.5 48.5006 97.9 45.3006 97.4 42.3006C96.9 39.3006 93.9 37.2007 91 36.4007C88.1 35.6007 90.4 36.6006 90.9 36.7006C93.5 37.4006 96.1 39.3006 96.5 42.1006C96.9 44.9006 95.1 47.9006 92.2 48.3006C89.3 48.7006 89.3 47.6006 88.2 46.6006C87.1 45.6006 86.1 44.7006 85 43.7006C83.1 41.9006 80.7 40.2006 77.9 40.3006C75.1 40.4006 72.7 42.5006 70.5 44.2006C68.3 45.9006 65.8 48.1006 63.1 49.6006C58.7 52.0006 52.6 52.5006 48.5 49.1006C44.4 45.7006 45.2 44.5006 45.7 41.7006C46.2 38.9006 48.9 35.7007 51.4 33.4007C53.9 31.1007 50.8 32.9006 50.6 33.0006H50.7Z" fill="#D0BBDB"/>
<path d="M53.6 43.8008C54.8 44.0008 55.8 45.2008 54.8 47.0008C55.1 46.7008 55.9 45.2008 55 44.0008C54.6 43.4008 53.8 43.1008 53.6 42.3008C53.4 41.5008 53.6 41.9008 53.6 41.9008" fill="#1B1919"/>
<path d="M53.6 41.5C55 41.7 56.2 42.9 55 44.7C55.4 44.4 56.4 42.9 55.3 41.7C54.8 41.1 53.8 40.8 53.7 40C53.6 39.2 53.7 39.6 53.7 39.6" fill="#1B1919"/>
<path d="M53.7 39.5996H53.5C53.5 39.5996 53.5 46.3996 53.5 46.4996C53.4 46.4996 53.2 46.3996 53 46.3996C52.6 46.3996 52.1 46.4996 51.8 46.6996C51.2 46.9996 50.8 48.0996 51.6 48.3996C52.5 48.5996 53.5 48.1996 53.7 47.0996C53.7 46.8996 53.7 42.4996 53.7 41.9996" fill="#1B1919"/>
<path d="M90.2 38.6004H89.9L86.9 40.2004L87.7 44.9004C87.4 44.8004 87.1 44.8004 86.8 44.9004C86.3 45.2004 86 45.8004 86.1 46.2004C86.3 46.6004 86.8 46.8004 87.4 46.5004C87.9 46.2004 88.2 45.6004 88.1 45.2004C88.1 45.2004 87.7 43.0004 87.5 41.4004L90.3 39.9004L90.8 43.2004C90.5 43.1004 90.2 43.1004 89.9 43.2004C89.4 43.5004 89.1 44.1004 89.2 44.5004C89.4 44.9004 89.9 45.1004 90.5 44.8004C91 44.5004 91.3 43.9004 91.2 43.5004L90.4 38.4004L90.2 38.6004ZM87.4 41.1004C87.4 40.9004 87.4 40.7004 87.4 40.6004L90.2 39.1004V39.6004L87.5 41.1004H87.4Z" fill="#1B1919"/>
<path d="M64.6001 43.8007C64.2001 44.3007 64.1001 45.0007 64.5001 45.4007C64.5001 45.4007 66.7001 48.9007 68.0001 50.9007L66.0001 53.4007L62.8 48.4007C63.1 48.4007 63.5001 48.3007 63.7001 47.9007C64.1001 47.4007 64.2 46.7007 63.8 46.3007C63.4 45.9007 62.8001 46.0007 62.4001 46.5007C62.0001 47.0007 61.9 47.7007 62.3 48.1007L66.0001 53.9007L68.4001 51.0007L64.9001 45.6007C65.2001 45.6007 65.6 45.5007 65.8 45.1007C66.2 44.6007 66.3001 43.9007 65.9001 43.5007C65.5001 43.1007 64.9001 43.2007 64.5001 43.7007L64.6001 43.8007Z" fill="#1B1919"/>
<path d="M75 44.1008L75.9001 43.8008V44.0008C76.2001 44.5008 76.8001 44.6008 77.4001 44.2008C77.8001 43.9008 78 43.5008 78 43.1008L79 42.8008V42.5008L78 42.8008C78 42.8008 78 42.7008 78 42.6008L76.2001 36.8008H75.9001L77.5 42.2008C77.2 42.1008 76.8001 42.2008 76.4001 42.4008C76.0001 42.7008 75.8 43.1008 75.8 43.5008L74.8 43.8008V44.1008H75Z" fill="#1B1919"/>
</g>
</g>
<path d="M28.0137 79.6504V81.7598H20.5332V79.6504H28.0137ZM21.2656 73.7812V88H18.5801V73.7812H21.2656ZM30.0059 73.7812V88H27.3203V73.7812H30.0059ZM35.2793 77.4336V88H32.6914V77.4336H35.2793ZM32.5156 74.6699C32.5156 74.2858 32.6458 73.9668 32.9062 73.7129C33.1732 73.459 33.5312 73.332 33.9805 73.332C34.4297 73.332 34.7845 73.459 35.0449 73.7129C35.3118 73.9668 35.4453 74.2858 35.4453 74.6699C35.4453 75.0475 35.3118 75.3633 35.0449 75.6172C34.7845 75.8711 34.4297 75.998 33.9805 75.998C33.5312 75.998 33.1732 75.8711 32.9062 75.6172C32.6458 75.3633 32.5156 75.0475 32.5156 74.6699ZM44.459 77.4336H46.8027V87.6777C46.8027 88.6348 46.5944 89.4453 46.1777 90.1094C45.7676 90.7799 45.1914 91.2878 44.4492 91.6328C43.707 91.9844 42.8444 92.1602 41.8613 92.1602C41.4382 92.1602 40.9792 92.1016 40.4844 91.9844C39.9961 91.8672 39.5241 91.6816 39.0684 91.4277C38.6191 91.1803 38.2448 90.8581 37.9453 90.4609L39.1074 88.9375C39.459 89.3477 39.8561 89.6569 40.2988 89.8652C40.7415 90.0801 41.2201 90.1875 41.7344 90.1875C42.2552 90.1875 42.6979 90.0898 43.0625 89.8945C43.4336 89.7057 43.7168 89.4258 43.9121 89.0547C44.1139 88.6901 44.2148 88.2409 44.2148 87.707V79.8457L44.459 77.4336ZM37.3203 82.8438V82.6387C37.3203 81.8314 37.418 81.099 37.6133 80.4414C37.8086 79.7773 38.0885 79.2077 38.4531 78.7324C38.8242 78.2572 39.2702 77.8893 39.791 77.6289C40.3184 77.3685 40.9108 77.2383 41.5684 77.2383C42.265 77.2383 42.8509 77.3652 43.3262 77.6191C43.8079 77.873 44.2051 78.2344 44.5176 78.7031C44.8366 79.1719 45.084 79.7285 45.2598 80.373C45.4421 81.0111 45.582 81.7142 45.6797 82.4824V83.0391C45.5885 83.7878 45.4421 84.4746 45.2402 85.0996C45.0449 85.7246 44.7845 86.2715 44.459 86.7402C44.1335 87.2025 43.7298 87.5605 43.248 87.8145C42.7663 88.0684 42.1999 88.1953 41.5488 88.1953C40.8978 88.1953 40.3118 88.0618 39.791 87.7949C39.2702 87.528 38.8242 87.1536 38.4531 86.6719C38.0885 86.1901 37.8086 85.6237 37.6133 84.9727C37.418 84.3216 37.3203 83.612 37.3203 82.8438ZM39.8984 82.6387V82.8438C39.8984 83.2995 39.944 83.7259 40.0352 84.123C40.1263 84.5202 40.2663 84.8717 40.4551 85.1777C40.6439 85.4772 40.8815 85.7116 41.168 85.8809C41.4544 86.0501 41.7962 86.1348 42.1934 86.1348C42.7272 86.1348 43.1634 86.0241 43.502 85.8027C43.847 85.5749 44.1074 85.2656 44.2832 84.875C44.4655 84.4779 44.5827 84.0319 44.6348 83.5371V82.0039C44.6022 81.6133 44.5306 81.252 44.4199 80.9199C44.3158 80.5879 44.1693 80.3014 43.9805 80.0605C43.7917 79.8197 43.5508 79.6309 43.2578 79.4941C42.9648 79.3574 42.6165 79.2891 42.2129 79.2891C41.8223 79.2891 41.4805 79.377 41.1875 79.5527C40.8945 79.722 40.6536 79.9596 40.4648 80.2656C40.276 80.5716 40.1328 80.9264 40.0352 81.3301C39.944 81.7337 39.8984 82.1699 39.8984 82.6387ZM51.6562 73V88H49.0684V73H51.6562ZM51.2461 82.3359H50.4844C50.4844 81.6003 50.582 80.9232 50.7773 80.3047C50.9727 79.6862 51.2493 79.1491 51.6074 78.6934C51.9655 78.2311 52.3919 77.873 52.8867 77.6191C53.388 77.3652 53.9414 77.2383 54.5469 77.2383C55.0677 77.2383 55.5397 77.3132 55.9629 77.4629C56.3926 77.6061 56.7604 77.8372 57.0664 78.1562C57.3724 78.4753 57.6068 78.8919 57.7695 79.4062C57.9388 79.9141 58.0234 80.5326 58.0234 81.2617V88H55.4258V81.2422C55.4258 80.7539 55.3542 80.3698 55.2109 80.0898C55.0677 79.8034 54.8626 79.5983 54.5957 79.4746C54.3353 79.3509 54.013 79.2891 53.6289 79.2891C53.2122 79.2891 52.8542 79.3704 52.5547 79.5332C52.2552 79.6895 52.0078 79.9076 51.8125 80.1875C51.6237 80.4674 51.4805 80.7897 51.3828 81.1543C51.2917 81.5189 51.2461 81.9128 51.2461 82.3359ZM72.916 84.3086C72.916 84.0352 72.8737 83.791 72.7891 83.5762C72.7109 83.3548 72.5645 83.1562 72.3496 82.9805C72.1413 82.7982 71.8451 82.6224 71.4609 82.4531C71.0833 82.2773 70.5951 82.0951 69.9961 81.9062C69.332 81.6979 68.7135 81.4635 68.1406 81.2031C67.5677 80.9427 67.0632 80.64 66.627 80.2949C66.1973 79.9499 65.862 79.5527 65.6211 79.1035C65.3802 78.6478 65.2598 78.1204 65.2598 77.5215C65.2598 76.9355 65.3835 76.4017 65.6309 75.9199C65.8848 75.4382 66.2428 75.0247 66.7051 74.6797C67.1673 74.3281 67.7109 74.0579 68.3359 73.8691C68.9674 73.6803 69.6641 73.5859 70.4258 73.5859C71.4805 73.5859 72.3919 73.778 73.1602 74.1621C73.9349 74.5462 74.5339 75.0671 74.957 75.7246C75.3802 76.3822 75.5918 77.1211 75.5918 77.9414H72.916C72.916 77.4987 72.8216 77.1081 72.6328 76.7695C72.4505 76.431 72.1706 76.1641 71.793 75.9688C71.4219 75.7734 70.9531 75.6758 70.3867 75.6758C69.8398 75.6758 69.3841 75.7572 69.0195 75.9199C68.6615 76.0827 68.3913 76.304 68.209 76.584C68.0332 76.8639 67.9453 77.1764 67.9453 77.5215C67.9453 77.7819 68.0072 78.0163 68.1309 78.2246C68.2546 78.4264 68.4401 78.6185 68.6875 78.8008C68.9349 78.9766 69.2409 79.1426 69.6055 79.2988C69.9766 79.4486 70.4062 79.5983 70.8945 79.748C71.6758 79.9824 72.3594 80.2428 72.9453 80.5293C73.5378 80.8158 74.0293 81.1413 74.4199 81.5059C74.8171 81.8704 75.1133 82.2806 75.3086 82.7363C75.5104 83.1921 75.6113 83.7096 75.6113 84.2891C75.6113 84.901 75.4909 85.4479 75.25 85.9297C75.0091 86.4115 74.6641 86.8216 74.2148 87.1602C73.7656 87.4987 73.2253 87.7559 72.5938 87.9316C71.9688 88.1074 71.2689 88.1953 70.4941 88.1953C69.804 88.1953 69.1204 88.1042 68.4434 87.9219C67.7728 87.7331 67.1641 87.4531 66.6172 87.082C66.0703 86.7044 65.6341 86.2292 65.3086 85.6562C64.9831 85.0768 64.8203 84.3997 64.8203 83.625H67.5156C67.5156 84.0742 67.5872 84.4583 67.7305 84.7773C67.8802 85.0898 68.0885 85.347 68.3555 85.5488C68.6289 85.7441 68.9479 85.8874 69.3125 85.9785C69.6771 86.0697 70.071 86.1152 70.4941 86.1152C71.041 86.1152 71.4902 86.0404 71.8418 85.8906C72.1999 85.7344 72.4668 85.5195 72.6426 85.2461C72.8249 84.9727 72.916 84.6602 72.916 84.3086ZM81.8223 86.1641C82.1868 86.1641 82.5124 86.0924 82.7988 85.9492C83.0853 85.806 83.3132 85.6042 83.4824 85.3438C83.6582 85.0833 83.7526 84.7806 83.7656 84.4355H86.1973C86.1842 85.1517 85.9824 85.793 85.5918 86.3594C85.2012 86.9258 84.6803 87.375 84.0293 87.707C83.3848 88.0326 82.6621 88.1953 81.8613 88.1953C81.0475 88.1953 80.3379 88.0586 79.7324 87.7852C79.127 87.5117 78.6224 87.1309 78.2188 86.6426C77.8216 86.1543 77.5221 85.5879 77.3203 84.9434C77.125 84.2988 77.0273 83.6087 77.0273 82.873V82.5605C77.0273 81.8249 77.125 81.1348 77.3203 80.4902C77.5221 79.8457 77.8216 79.2793 78.2188 78.791C78.6224 78.3027 79.127 77.9219 79.7324 77.6484C80.3379 77.375 81.0443 77.2383 81.8516 77.2383C82.7044 77.2383 83.4531 77.4043 84.0977 77.7363C84.7487 78.0684 85.2565 78.5371 85.6211 79.1426C85.9922 79.748 86.1842 80.4609 86.1973 81.2812H83.7656C83.7526 80.9036 83.668 80.5651 83.5117 80.2656C83.3555 79.9661 83.1341 79.7253 82.8477 79.543C82.5612 79.3607 82.2129 79.2695 81.8027 79.2695C81.3665 79.2695 81.002 79.3607 80.709 79.543C80.4225 79.7253 80.1979 79.9759 80.0352 80.2949C79.8789 80.6074 79.7682 80.959 79.7031 81.3496C79.6445 81.7337 79.6152 82.1374 79.6152 82.5605V82.873C79.6152 83.3027 79.6445 83.7129 79.7031 84.1035C79.7682 84.4941 79.8789 84.8457 80.0352 85.1582C80.1979 85.4642 80.4225 85.7083 80.709 85.8906C81.002 86.0729 81.373 86.1641 81.8223 86.1641ZM90.4453 73V88H87.8574V73H90.4453ZM90.0352 82.3359H89.2734C89.2734 81.6003 89.3711 80.9232 89.5664 80.3047C89.7617 79.6862 90.0384 79.1491 90.3965 78.6934C90.7546 78.2311 91.181 77.873 91.6758 77.6191C92.1771 77.3652 92.7305 77.2383 93.3359 77.2383C93.8568 77.2383 94.3288 77.3132 94.752 77.4629C95.1816 77.6061 95.5495 77.8372 95.8555 78.1562C96.1615 78.4753 96.3958 78.8919 96.5586 79.4062C96.7279 79.9141 96.8125 80.5326 96.8125 81.2617V88H94.2148V81.2422C94.2148 80.7539 94.1432 80.3698 94 80.0898C93.8568 79.8034 93.6517 79.5983 93.3848 79.4746C93.1243 79.3509 92.8021 79.2891 92.418 79.2891C92.0013 79.2891 91.6432 79.3704 91.3438 79.5332C91.0443 79.6895 90.7969 79.9076 90.6016 80.1875C90.4128 80.4674 90.2695 80.7897 90.1719 81.1543C90.0807 81.5189 90.0352 81.9128 90.0352 82.3359ZM98.6289 82.8242V82.6191C98.6289 81.8444 98.7396 81.1315 98.9609 80.4805C99.1823 79.8229 99.5046 79.2533 99.9277 78.7715C100.351 78.2897 100.868 77.9154 101.48 77.6484C102.092 77.375 102.789 77.2383 103.57 77.2383C104.365 77.2383 105.068 77.375 105.68 77.6484C106.298 77.9154 106.819 78.2897 107.242 78.7715C107.665 79.2533 107.988 79.8229 108.209 80.4805C108.43 81.1315 108.541 81.8444 108.541 82.6191V82.8242C108.541 83.5924 108.43 84.3053 108.209 84.9629C107.988 85.6139 107.665 86.1836 107.242 86.6719C106.819 87.1536 106.301 87.528 105.689 87.7949C105.077 88.0618 104.378 88.1953 103.59 88.1953C102.809 88.1953 102.109 88.0618 101.49 87.7949C100.872 87.528 100.351 87.1536 99.9277 86.6719C99.5046 86.1836 99.1823 85.6139 98.9609 84.9629C98.7396 84.3053 98.6289 83.5924 98.6289 82.8242ZM101.207 82.6191V82.8242C101.207 83.2865 101.253 83.7194 101.344 84.123C101.435 84.5267 101.575 84.8815 101.764 85.1875C101.952 85.4935 102.197 85.7344 102.496 85.9102C102.802 86.0794 103.167 86.1641 103.59 86.1641C104.007 86.1641 104.365 86.0794 104.664 85.9102C104.964 85.7344 105.208 85.4935 105.396 85.1875C105.592 84.8815 105.735 84.5267 105.826 84.123C105.917 83.7194 105.963 83.2865 105.963 82.8242V82.6191C105.963 82.1634 105.917 81.737 105.826 81.3398C105.735 80.9362 105.592 80.5814 105.396 80.2754C105.208 79.9629 104.96 79.7188 104.654 79.543C104.355 79.3607 103.993 79.2695 103.57 79.2695C103.154 79.2695 102.796 79.3607 102.496 79.543C102.197 79.7188 101.952 79.9629 101.764 80.2754C101.575 80.5814 101.435 80.9362 101.344 81.3398C101.253 81.737 101.207 82.1634 101.207 82.6191ZM109.957 82.8242V82.6191C109.957 81.8444 110.068 81.1315 110.289 80.4805C110.51 79.8229 110.833 79.2533 111.256 78.7715C111.679 78.2897 112.197 77.9154 112.809 77.6484C113.421 77.375 114.117 77.2383 114.898 77.2383C115.693 77.2383 116.396 77.375 117.008 77.6484C117.626 77.9154 118.147 78.2897 118.57 78.7715C118.993 79.2533 119.316 79.8229 119.537 80.4805C119.758 81.1315 119.869 81.8444 119.869 82.6191V82.8242C119.869 83.5924 119.758 84.3053 119.537 84.9629C119.316 85.6139 118.993 86.1836 118.57 86.6719C118.147 87.1536 117.63 87.528 117.018 87.7949C116.406 88.0618 115.706 88.1953 114.918 88.1953C114.137 88.1953 113.437 88.0618 112.818 87.7949C112.2 87.528 111.679 87.1536 111.256 86.6719C110.833 86.1836 110.51 85.6139 110.289 84.9629C110.068 84.3053 109.957 83.5924 109.957 82.8242ZM112.535 82.6191V82.8242C112.535 83.2865 112.581 83.7194 112.672 84.123C112.763 84.5267 112.903 84.8815 113.092 85.1875C113.281 85.4935 113.525 85.7344 113.824 85.9102C114.13 86.0794 114.495 86.1641 114.918 86.1641C115.335 86.1641 115.693 86.0794 115.992 85.9102C116.292 85.7344 116.536 85.4935 116.725 85.1875C116.92 84.8815 117.063 84.5267 117.154 84.123C117.245 83.7194 117.291 83.2865 117.291 82.8242V82.6191C117.291 82.1634 117.245 81.737 117.154 81.3398C117.063 80.9362 116.92 80.5814 116.725 80.2754C116.536 79.9629 116.288 79.7188 115.982 79.543C115.683 79.3607 115.322 79.2695 114.898 79.2695C114.482 79.2695 114.124 79.3607 113.824 79.543C113.525 79.7188 113.281 79.9629 113.092 80.2754C112.903 80.5814 112.763 80.9362 112.672 81.3398C112.581 81.737 112.535 82.1634 112.535 82.6191ZM124.479 73V88H121.891V73H124.479Z" fill="#696061"/>
<defs>
<clipPath id="clip0_3924_37473">
<rect width="68" height="55" fill="white" transform="translate(37.5)"/>
</clipPath>
</defs>
</svg>
