<svg width="264" height="164" viewBox="0 0 264 164" fill="none" xmlns="http://www.w3.org/2000/svg">
<mask id="mask0_15287_43541" style="mask-type:alpha" maskUnits="userSpaceOnUse" x="0" y="0" width="264" height="164">
<path d="M0 0.513672H264V163.514H0V0.513672Z" fill="#FFEBD5"/>
</mask>
<g mask="url(#mask0_15287_43541)">
<mask id="path-2-inside-1_15287_43541" fill="white">
<path d="M0 0.513672H264V163.514H0V0.513672Z"/>
</mask>
<path d="M0 0.513672H264V163.514H0V0.513672Z" fill="#FBF5FF"/>
<path d="M264 0.513672H262V163.514H264H266V0.513672H264ZM0 163.514H2V0.513672H0H-2V163.514H0Z" fill="#FCF0D8" mask="url(#path-2-inside-1_15287_43541)"/>
<path d="M175.863 159.992C176.982 164.033 178.045 168.104 179.101 172.16C179.75 174.645 180.175 177.215 181.223 179.574C181.507 180.226 182.176 180.76 182.034 181.552L182.027 181.536C182.311 182.227 182.708 182.895 182.866 183.617C183.465 186.387 184.434 189.166 184.719 191.894C184.733 192.005 184.914 192.101 184.949 192.26C185.1 193.006 185.539 195.648 185.96 197.291C186.947 201.108 187.829 204.965 187.619 209.119C187.589 209.769 188.539 218.494 185.104 219.495C181.542 220.526 178.569 212.76 178.461 211.673C178.204 209.047 178.43 206.25 177.235 203.914C175.478 200.489 175.12 196.674 174.091 193.039C173.158 189.784 172.596 186.42 171.628 183.165C170.729 180.109 169.243 177.225 168.568 174.122C167.983 171.424 168.251 168.483 167.952 165.723C167.878 165.072 167.069 164.498 166.966 163.784C166.884 163.197 166.692 162.237 166.855 161.572C166.926 161.295 167.031 160.978 166.843 160.787C166.001 159.856 164.835 150.677 169.005 149.522C173.126 148.374 174.903 156.476 175.863 159.992Z" fill="#ECD6FE"/>
<path d="M31.2157 55.0695C30.9407 55.1699 30.7045 55.3694 30.5447 55.6367C30.383 55.9065 30.3055 56.2299 30.3255 56.5543C31.0074 67.6403 31.1099 78.1645 30.5721 88.0668C29.3334 87.7504 28.0711 87.5426 26.7848 87.4697C19.5232 87.0625 13.5558 92.8939 13.5969 99.8307C13.6185 103.309 15.2734 106.194 17.6831 108.187C20.0931 110.179 23.2601 111.411 26.6698 111.968C30.2752 112.56 33.5241 110.931 35.8606 108.498C38.1949 106.068 39.72 102.845 39.9678 99.7644C39.9922 99.4604 39.975 99.3618 39.9652 99.1151C39.9556 98.8686 39.9403 98.5581 39.9182 98.1824C39.8741 97.4311 39.8082 96.4203 39.7319 95.2113C39.5793 92.7932 39.3832 89.5843 39.2242 86.1429C38.9183 79.4778 38.8171 71.978 39.3763 67.7831C40.0898 67.1362 41.3043 66.6156 42.8674 66.3046L41.7391 70.3186C41.711 70.4093 41.6983 70.5071 41.7025 70.6053C41.7086 70.7009 41.7308 70.7958 41.7679 70.8843C41.8069 70.9703 41.8595 71.0485 41.9239 71.1124C41.9885 71.1765 42.0654 71.2224 42.1474 71.2516C42.2275 71.2831 42.3152 71.2916 42.4001 71.2836C42.4847 71.2753 42.5673 71.2471 42.6441 71.1994C42.7189 71.154 42.7855 71.0909 42.8395 71.0145C42.8935 70.9381 42.9332 70.8509 42.9553 70.7585L44.2408 66.1845C44.2487 66.1572 44.2556 66.1289 44.2597 66.102C45.1263 66.0101 46.0667 65.9831 47.0701 66.0231L45.6544 69.2014C45.5794 69.3714 45.5659 69.5711 45.6195 69.7528C45.6713 69.9372 45.7871 70.0869 45.9373 70.175C46.0894 70.2607 46.2638 70.2765 46.4253 70.2161C46.5865 70.1555 46.72 70.0252 46.7968 69.8526L48.457 66.118C49.5779 66.2247 50.746 66.4038 51.9457 66.6478L49.9004 69.8309C49.8499 69.9064 49.8136 69.9928 49.7923 70.0862C49.7711 70.1795 49.7662 70.2769 49.7775 70.3736C49.7906 70.4678 49.8189 70.5602 49.8629 70.6426C49.9067 70.7248 49.9652 70.7958 50.0326 70.8541C50.1021 70.91 50.1792 70.9517 50.2623 70.973C50.3455 70.9946 50.4299 70.9995 50.5147 70.9825C50.5975 70.9678 50.6779 70.9328 50.7505 70.8806C50.823 70.8284 50.8835 70.7632 50.9337 70.6828L53.2834 67.0248C53.2989 67.0012 53.313 66.976 53.3261 66.9497C54.1537 67.1508 54.9911 67.389 55.8314 67.6481L54.5224 70.592C54.4838 70.6759 54.4589 70.7698 54.4519 70.865C54.443 70.9625 54.4533 71.0581 54.4801 71.149C54.5047 71.242 54.5467 71.3268 54.6024 71.3993C54.6562 71.4742 54.7245 71.5333 54.7997 71.5775C54.8768 71.6193 54.9598 71.645 55.0432 71.6533C55.1285 71.6591 55.2134 71.6467 55.2935 71.6158C55.3736 71.585 55.4485 71.5352 55.513 71.4699C55.5755 71.407 55.6276 71.3286 55.6639 71.2423L57.0841 68.0509C57.8885 68.3253 58.6887 68.6311 59.4839 68.9582L58.5447 71.0686C58.507 71.1534 58.4827 71.248 58.4779 71.341C58.4711 71.4364 58.4814 71.532 58.5076 71.6222C58.534 71.7126 58.5754 71.7967 58.6304 71.8686C58.6855 71.9404 58.751 72.0011 58.8273 72.042C58.9019 72.0855 58.9822 72.1128 59.0673 72.1184C59.1501 72.1261 59.235 72.1137 59.3134 72.0854C59.3937 72.0548 59.4672 72.0081 59.5306 71.946C59.594 71.884 59.6474 71.807 59.6851 71.7222L60.6852 69.4713C61.1714 69.6889 61.6563 69.9095 62.1339 70.1446C62.3935 70.2731 62.6831 70.2997 62.9575 70.221C63.232 70.1423 63.475 69.9635 63.6492 69.7115C63.8254 69.4572 63.9201 69.1476 63.9231 68.8253C63.9242 68.5054 63.8317 68.1932 63.6615 67.9366C61.4055 64.5915 58.9894 61.161 55.1323 58.6751C51.2791 56.1933 46.0636 54.7128 38.3422 54.9499L38.3345 54.9506L31.5927 55.0017C31.4641 55.0033 31.3359 55.0277 31.2157 55.0695ZM32.9314 57.89L38.3589 57.8479C38.3672 57.8478 38.3758 57.848 38.3841 57.8479C45.8068 57.6146 50.4899 59.0159 53.869 61.1949C55.7548 62.4125 57.2338 63.925 58.5834 65.5675C55.0408 64.2806 51.4516 63.4434 48.2008 63.1796C43.5321 62.8014 39.4964 63.3583 37.2322 65.9879C37.0517 66.1976 36.9305 66.4658 36.8871 66.7541C36.1647 71.4935 36.3545 79.346 36.6743 86.2933C36.8322 89.7693 37.0316 92.9951 37.1844 95.4178C37.2617 96.628 37.3252 97.6407 37.3686 98.3734C37.3904 98.7399 37.4044 99.0401 37.4136 99.2504C37.4227 99.4608 37.4108 99.6666 37.4248 99.4987C37.2516 101.642 36.0278 104.391 34.1325 106.365C33.4073 107.12 32.5992 107.76 31.7231 108.243L32.0589 107.034C32.0952 106.908 32.101 106.771 32.0745 106.641C32.0479 106.51 31.9901 106.391 31.9059 106.297C31.824 106.201 31.7191 106.134 31.6049 106.102C31.4889 106.072 31.3701 106.076 31.2578 106.117C31.1581 106.154 31.0692 106.215 30.9969 106.299C30.9246 106.383 30.8708 106.486 30.8398 106.6L30.2087 108.878C29.3243 109.147 28.3928 109.254 27.4205 109.149L29.0556 105.442C29.1144 105.312 29.1387 105.164 29.1213 105.021C29.1059 104.875 29.0526 104.738 28.9668 104.629C28.8811 104.521 28.7694 104.442 28.6439 104.407C28.5204 104.369 28.389 104.377 28.2665 104.43C28.1118 104.493 27.9839 104.625 27.9123 104.794L26.0927 108.921C25.2714 108.749 24.4743 108.536 23.7166 108.275L25.2847 105.816C25.3693 105.687 25.4134 105.533 25.4116 105.376C25.4097 105.217 25.3642 105.062 25.2771 104.939C25.1921 104.813 25.0731 104.722 24.9362 104.684C24.8012 104.643 24.659 104.652 24.5304 104.712C24.417 104.765 24.3197 104.854 24.2501 104.967L22.4522 107.784C21.6672 107.446 20.9373 107.059 20.2741 106.626L21.7655 103.243C21.8245 103.114 21.8488 102.966 21.8317 102.823C21.8163 102.677 21.763 102.54 21.6774 102.432C21.5938 102.321 21.4799 102.244 21.3566 102.207C21.2312 102.172 21.0996 102.179 20.9789 102.229C20.8224 102.295 20.6945 102.427 20.6229 102.596L19.1901 105.845C19.1897 105.845 19.1893 105.845 19.1889 105.844C18.4894 105.266 17.9067 104.643 17.4401 103.969L18.7443 101.011C18.8031 100.882 18.8254 100.736 18.8103 100.591C18.7951 100.446 18.7418 100.309 18.656 100.2C18.5704 100.091 18.4587 100.013 18.3332 99.9775C18.2097 99.94 18.0784 99.9477 17.9574 99.9976C17.801 100.063 17.6731 100.195 17.6014 100.364L16.6572 102.505C16.3343 101.681 16.1577 100.789 16.1515 99.81C16.1214 94.8156 20.6608 90.0272 26.6563 90.3651L26.6569 90.3658C28.4111 90.4628 30.0093 90.6974 31.3588 91.2653C31.5452 91.3428 31.7439 91.371 31.9419 91.345C32.1382 91.3215 32.327 91.2456 32.4936 91.1237C32.66 91.0016 32.7993 90.8375 32.9015 90.6428C33.0017 90.4504 33.0615 90.2331 33.0765 90.0083C33.7089 79.921 33.574 69.1394 32.9314 57.89ZM40.2859 59.4214C39.9794 59.6176 39.8716 60.0605 40.0463 60.4065C40.219 60.7549 40.6085 60.8787 40.917 60.6801C41.2232 60.4835 41.3315 60.0412 41.1564 59.6948C40.9831 59.3457 40.5934 59.2217 40.2859 59.4214ZM34.7706 63.0754C34.4644 63.272 34.3565 63.7148 34.5296 64.0636C34.7045 64.4098 35.093 64.5325 35.4015 64.3339C35.7078 64.1375 35.816 63.695 35.6409 63.3486C35.4679 63 35.0767 62.8788 34.7706 63.0754ZM28.5326 94.5912C28.3717 94.6522 28.2387 94.783 28.1621 94.9558C28.0874 95.1262 28.0742 95.3261 28.128 95.5081C28.1818 95.6901 28.2978 95.84 28.4477 95.9279C28.5994 96.0131 28.7756 96.0263 28.9367 95.9655C29.0975 95.9044 29.2305 95.7737 29.3052 95.6033C29.3817 95.4305 29.3931 95.2329 29.3412 95.0486C29.2874 94.8666 29.1714 94.7167 29.0195 94.6312C28.8676 94.5457 28.6936 94.5303 28.5326 94.5912ZM33.3901 97.5509C33.2292 97.6119 33.0964 97.7428 33.0198 97.9157C32.9452 98.0861 32.9319 98.286 32.9857 98.468C33.0393 98.6497 33.1553 98.7997 33.3052 98.8875C33.4571 98.973 33.6333 98.9862 33.7941 98.9251C33.955 98.8641 34.088 98.7333 34.1627 98.5629C34.2393 98.3901 34.2506 98.1926 34.1968 98.0106C34.1449 97.8263 34.0291 97.6765 33.8772 97.5911C33.7254 97.5056 33.5511 97.49 33.3901 97.5509ZM30.6305 101.434C30.4697 101.495 30.3369 101.626 30.2603 101.798C30.1856 101.969 30.1724 102.169 30.2262 102.351C30.2798 102.532 30.3958 102.682 30.5457 102.77C30.6976 102.856 30.8738 102.869 31.0346 102.808C31.1955 102.747 31.3285 102.616 31.4031 102.446C31.4797 102.273 31.4911 102.075 31.4373 101.893C31.3854 101.709 31.2696 101.559 31.1177 101.474C30.9658 101.388 30.7916 101.373 30.6305 101.434Z" fill="#ECD6FE"/>
<path d="M187.956 63.6603C187.836 63.8292 187.768 64.0372 187.765 64.2514C187.762 64.4677 187.822 64.6793 187.937 64.8512C191.861 70.7278 195.284 76.5307 198.152 82.2518C197.363 82.5857 196.596 82.9897 195.858 83.4785C191.695 86.2403 190.245 91.9345 192.487 95.7703C193.611 97.6933 195.453 98.6148 197.429 98.7298C199.405 98.8449 201.557 98.2257 203.629 97.1323C205.821 95.9771 207.104 93.7357 207.624 91.4233C208.143 89.1129 207.96 86.6955 207.112 84.8824C207.028 84.7035 206.987 84.6559 206.903 84.5229C206.819 84.3899 206.711 84.2238 206.578 84.0242C206.314 83.6251 205.954 83.0908 205.525 82.4507C204.667 81.1705 203.531 79.4689 202.342 77.623C200.041 74.0471 197.586 69.9234 196.555 67.3634C196.744 66.7106 197.252 65.9217 198.021 65.1058L198.678 67.7995C198.692 67.8613 198.716 67.9209 198.75 67.9737C198.783 68.0243 198.826 68.0679 198.875 68.1018C198.924 68.1335 198.978 68.1553 199.035 68.1643C199.091 68.1733 199.148 68.1672 199.203 68.1496C199.258 68.1341 199.309 68.1028 199.354 68.0634C199.398 68.024 199.435 67.9743 199.462 67.9162C199.489 67.8602 199.506 67.7978 199.512 67.7331C199.517 67.6685 199.512 67.6037 199.494 67.5433L198.745 64.4739C198.741 64.4556 198.736 64.437 198.73 64.4204C199.181 64.0127 199.695 63.6108 200.265 63.2201L200.495 65.5679C200.508 65.6932 200.564 65.8096 200.652 65.8885C200.74 65.9696 200.852 66.0051 200.964 65.9922C201.076 65.9772 201.178 65.9142 201.248 65.8142C201.318 65.7142 201.351 65.587 201.338 65.4595L201.066 62.7021C201.722 62.3002 202.428 61.919 203.173 61.5609L203.055 64.1703C203.051 64.2331 203.058 64.296 203.077 64.3566C203.095 64.4172 203.123 64.4733 203.16 64.5223C203.198 64.5692 203.243 64.609 203.294 64.6366C203.344 64.6642 203.4 64.6796 203.456 64.6842C203.512 64.6867 203.568 64.6781 203.621 64.6558C203.674 64.6335 203.723 64.6015 203.764 64.5572C203.806 64.515 203.839 64.4624 203.863 64.4036C203.886 64.3447 203.899 64.2837 203.901 64.2183L204.036 61.2198C204.037 61.2003 204.037 61.1805 204.036 61.1605C204.56 60.9317 205.101 60.7194 205.651 60.5176L205.865 62.6912C205.871 62.7537 205.887 62.8161 205.914 62.8718C205.94 62.9296 205.976 62.9785 206.02 63.018C206.063 63.0595 206.114 63.0893 206.168 63.1066C206.222 63.1261 206.279 63.1309 206.335 63.1245C206.391 63.1159 206.445 63.0961 206.494 63.0664C206.543 63.0345 206.587 62.9927 206.621 62.9426C206.656 62.8925 206.681 62.834 206.696 62.7712C206.711 62.7105 206.715 62.6455 206.707 62.5827L206.475 60.2258C207.01 60.0472 207.552 59.8878 208.098 59.7423L208.252 61.3008C208.258 61.3634 208.275 61.426 208.302 61.4796C208.329 61.5354 208.365 61.5842 208.408 61.6236C208.452 61.6629 208.502 61.6926 208.555 61.7098C208.609 61.7271 208.665 61.7338 208.72 61.7251C208.775 61.7186 208.829 61.7007 208.878 61.6689C208.926 61.639 208.969 61.5972 209.004 61.5493C209.039 61.4992 209.065 61.443 209.08 61.3825C209.095 61.322 209.1 61.2572 209.094 61.1946L208.93 59.5329C209.269 59.4537 209.609 59.3767 209.95 59.3108C210.135 59.2753 210.304 59.1709 210.432 59.0143C210.559 58.8577 210.637 58.6583 210.653 58.4467C210.669 58.2329 210.623 58.022 210.522 57.8418C210.42 57.6637 210.269 57.5283 210.092 57.4559C207.769 56.5263 205.33 55.6152 202.393 55.8216C199.459 56.0288 196.089 57.3525 191.876 60.6614L191.872 60.665L188.144 63.4675C188.073 63.5213 188.01 63.5876 187.956 63.6603ZM189.811 64.5208L192.812 62.2641C192.817 62.2607 192.822 62.2572 192.826 62.2537C196.874 59.0699 199.923 57.9212 202.497 57.741C203.934 57.6413 205.239 57.8727 206.514 58.2296C204.135 58.9725 201.874 59.9845 199.984 61.1756C197.27 62.8866 195.206 64.8565 194.79 67.2487C194.757 67.4394 194.775 67.6382 194.843 67.8162C195.958 70.7457 198.575 75.0289 200.974 78.7558C202.174 80.6214 203.316 82.3309 204.176 83.6136C204.606 84.2539 204.965 84.7903 205.223 85.1793C205.353 85.3739 205.457 85.5349 205.529 85.6479C205.601 85.761 205.661 85.8802 205.615 85.7812C206.204 87.0429 206.403 89.0733 205.982 90.9493C205.821 91.667 205.577 92.355 205.244 92.9838L205.044 92.1745C205.024 92.0893 204.984 92.0111 204.927 91.9494C204.871 91.8877 204.8 91.8452 204.724 91.8277C204.647 91.8082 204.568 91.8142 204.494 91.8434C204.42 91.8747 204.355 91.9254 204.306 91.9945C204.263 92.056 204.233 92.1268 204.219 92.2031C204.206 92.2793 204.209 92.3589 204.229 92.4351L204.606 93.9595C204.201 94.4729 203.718 94.916 203.145 95.2578L202.867 92.5256C202.858 92.4296 202.824 92.3374 202.769 92.265C202.714 92.1904 202.64 92.1363 202.558 92.1111C202.476 92.0859 202.388 92.0883 202.307 92.1204C202.227 92.1504 202.156 92.2087 202.105 92.2884C202.039 92.3871 202.011 92.5129 202.025 92.6363L202.334 95.6773C201.823 95.9197 201.312 96.1293 200.808 96.2963L200.892 94.2852C200.898 94.179 200.874 94.0754 200.822 93.9884C200.77 93.9014 200.695 93.8338 200.608 93.801C200.52 93.766 200.425 93.7646 200.337 93.7997C200.249 93.8326 200.173 93.8963 200.12 93.9824C200.074 94.0587 200.049 94.1479 200.046 94.2395L199.949 96.5439C199.405 96.6789 198.875 96.7642 198.369 96.7971L198.115 94.3043C198.106 94.2083 198.073 94.1161 198.017 94.0437C197.962 93.9691 197.889 93.915 197.807 93.8899C197.725 93.8626 197.637 93.8671 197.557 93.8971C197.476 93.9292 197.405 93.9875 197.354 94.065C197.288 94.1659 197.259 94.2916 197.273 94.4151L197.517 96.8094C197.517 96.8093 197.516 96.8092 197.516 96.8091C196.943 96.7761 196.42 96.6697 195.945 96.4875L195.723 94.308C195.715 94.212 195.68 94.1219 195.625 94.0474C195.57 93.9729 195.497 93.9188 195.415 93.8936C195.332 93.8684 195.245 93.8708 195.164 93.9029C195.084 93.9329 195.013 93.9912 194.962 94.0687C194.896 94.1696 194.867 94.2954 194.882 94.4188L195.042 95.9963C194.599 95.6713 194.215 95.2486 193.899 94.7076C192.285 91.9461 193.275 87.4188 196.713 85.1395L196.713 85.1396C197.718 84.4717 198.681 83.9443 199.612 83.7044C199.741 83.6708 199.86 83.6047 199.962 83.5087C200.063 83.415 200.144 83.2951 200.197 83.1589C200.251 83.0226 200.276 82.8741 200.27 82.7239C200.264 82.5759 200.228 82.4305 200.164 82.2995C197.289 76.4368 193.766 70.5043 189.811 64.5208ZM194.386 62.3451C194.278 62.5802 194.36 62.8705 194.568 62.9908C194.775 63.1132 195.031 63.0217 195.139 62.7845C195.246 62.5493 195.165 62.2591 194.957 62.1387C194.749 62.0162 194.493 62.1077 194.386 62.3451ZM192.491 66.644C192.384 66.8791 192.466 67.1695 192.674 67.2919C192.881 67.4123 193.136 67.3206 193.244 67.0833C193.352 66.8482 193.27 66.5579 193.062 66.4376C192.854 66.3151 192.598 66.4088 192.491 66.644ZM199.106 86.7146C199.036 86.8147 199.004 86.942 199.017 87.0695C199.03 87.1949 199.087 87.3114 199.175 87.3903C199.263 87.4692 199.375 87.5048 199.487 87.4919C199.598 87.4768 199.7 87.4116 199.77 87.3116C199.84 87.2115 199.872 87.0841 199.859 86.9588C199.846 86.8313 199.789 86.7169 199.702 86.6358C199.614 86.5569 199.501 86.5214 199.39 86.5364C199.278 86.5514 199.176 86.6145 199.106 86.7146ZM202.751 86.3596C202.681 86.4597 202.649 86.5871 202.662 86.7146C202.675 86.8399 202.731 86.9564 202.819 87.0354C202.907 87.1142 203.02 87.1498 203.131 87.1369C203.243 87.1219 203.345 87.0567 203.415 86.9566C203.484 86.8565 203.517 86.7292 203.503 86.6038C203.491 86.4763 203.434 86.3619 203.346 86.283C203.258 86.202 203.146 86.1664 203.034 86.1815C202.922 86.1965 202.821 86.2595 202.751 86.3596ZM202.46 89.6515C202.39 89.7516 202.358 89.879 202.371 90.0065C202.384 90.1319 202.441 90.2484 202.529 90.3273C202.616 90.4062 202.729 90.4417 202.84 90.4288C202.952 90.4138 203.054 90.3486 203.124 90.2485C203.194 90.1484 203.226 90.0211 203.213 89.8957C203.2 89.7682 203.143 89.6539 203.055 89.5749C202.967 89.4939 202.855 89.4584 202.743 89.4734C202.632 89.4884 202.53 89.5515 202.46 89.6515Z" fill="#ECD6FE"/>
<path d="M245.907 1.78221C246.549 2.09357 247.078 2.6338 247.41 3.31795C247.746 4.00831 247.869 4.8067 247.757 5.58258C243.929 32.0981 241.607 57.4081 240.949 81.3835C243.993 80.9359 247.073 80.7559 250.184 80.9068C267.746 81.7689 280.962 97.3214 279.495 114.011C278.757 122.379 274.204 128.905 268.01 133.09C261.816 137.276 253.949 139.437 245.63 139.914C236.834 140.423 229.334 135.678 224.188 129.229C219.048 122.786 216.012 114.64 216.023 107.16C216.024 106.422 216.085 106.19 216.157 105.598C216.229 105.007 216.327 104.263 216.454 103.365C216.709 101.567 217.067 99.1505 217.489 96.2591C218.333 90.4764 219.438 82.8012 220.499 74.5565C222.55 58.5887 224.272 40.5591 223.754 30.3185C222.164 28.5801 219.342 27.0187 215.641 25.8734L217.565 35.8231C217.615 36.0484 217.626 36.2873 217.597 36.5226C217.564 36.7511 217.491 36.9741 217.385 37.1775C217.274 37.3748 217.132 37.5496 216.964 37.6871C216.796 37.8251 216.602 37.9161 216.398 37.9655C216.199 38.0211 215.987 38.0193 215.784 37.9784C215.582 37.9371 215.388 37.8483 215.213 37.7138C215.042 37.5855 214.894 37.4168 214.779 37.2191C214.664 37.0215 214.586 36.8016 214.551 36.5734L212.358 25.2358C212.344 25.1682 212.333 25.0982 212.329 25.0325C210.261 24.5913 208.002 24.2878 205.578 24.1294L208.36 32.1402C208.507 32.5685 208.5 33.0526 208.335 33.4766C208.174 33.9072 207.866 34.2383 207.487 34.4122C207.104 34.58 206.681 34.5737 206.304 34.3874C205.928 34.2005 205.632 33.8531 205.481 33.4181L202.221 24.0061C199.501 23.9786 196.654 24.1134 193.718 24.3964L198.014 32.5782C198.121 32.773 198.191 32.9901 198.224 33.2203C198.257 33.4504 198.249 33.686 198.203 33.916C198.153 34.1394 198.066 34.3548 197.944 34.542C197.823 34.7287 197.668 34.8849 197.494 35.008C197.316 35.1249 197.122 35.2059 196.918 35.2361C196.713 35.2668 196.509 35.2572 196.308 35.1948C196.112 35.1386 195.925 35.0339 195.761 34.8897C195.596 34.7455 195.463 34.5734 195.358 34.3671L190.423 24.9645C190.39 24.9037 190.361 24.8396 190.335 24.773C188.303 25.0471 186.24 25.4082 184.166 25.8188L186.737 33.2379C186.813 33.4496 186.855 33.6822 186.853 33.913C186.855 34.15 186.811 34.3776 186.729 34.5896C186.651 34.8073 186.533 35.0007 186.385 35.1611C186.241 35.3278 186.065 35.4529 185.875 35.5401C185.681 35.6211 185.476 35.6619 185.274 35.6609C185.067 35.6532 184.865 35.6018 184.679 35.5071C184.492 35.4125 184.321 35.2737 184.179 35.1002C184.041 34.9328 183.931 34.7309 183.861 34.5138L181.071 26.4704C179.08 26.9272 177.093 27.4602 175.115 28.0459L176.96 33.3649C177.034 33.5785 177.073 33.8125 177.067 34.0376C177.064 34.2688 177.02 34.4964 176.94 34.707C176.858 34.918 176.742 35.1099 176.595 35.2689C176.449 35.4279 176.279 35.5573 176.087 35.6364C175.899 35.7222 175.7 35.7677 175.494 35.7595C175.294 35.7571 175.092 35.7057 174.908 35.6177C174.721 35.5236 174.553 35.3924 174.413 35.227C174.273 35.0617 174.159 34.8626 174.085 34.649L172.121 28.9764C170.908 29.3768 169.697 29.7849 168.501 30.2298C167.851 30.4732 167.148 30.4638 166.503 30.2048C165.858 29.9457 165.308 29.4536 164.938 28.8028C164.565 28.1457 164.398 27.3763 164.454 26.5997C164.514 25.8294 164.799 25.1012 165.259 24.5266C171.35 17.0461 177.843 9.40045 187.619 4.3943C197.384 -0.602694 210.232 -2.84373 228.774 -0.313964L228.792 -0.310204L245.012 1.52336C245.322 1.55986 245.626 1.65106 245.907 1.78221ZM241.22 8.137L228.162 6.65861C228.142 6.6563 228.121 6.65445 228.101 6.65214C210.278 4.2074 198.727 6.39266 190.163 10.7811C185.383 13.234 181.524 16.4998 177.951 20.1117C186.733 17.9122 195.539 16.8075 203.417 16.9972C214.731 17.2711 224.337 19.6357 229.269 26.5408C229.663 27.0913 229.901 27.7677 229.949 28.4728C230.753 40.0657 228.748 58.9218 226.608 75.5657C225.542 83.8938 224.426 91.609 223.581 97.4027C223.156 100.296 222.803 102.718 222.555 104.471C222.43 105.348 222.337 106.067 222.273 106.571C222.21 107.075 222.198 107.574 222.197 107.166C222.192 112.37 224.596 119.299 228.769 124.531C230.366 126.532 232.185 128.278 234.199 129.663L233.629 126.669C233.567 126.355 233.58 126.025 233.669 125.717C233.759 125.409 233.922 125.136 234.143 124.932C234.359 124.722 234.625 124.588 234.906 124.539C235.191 124.498 235.477 124.535 235.739 124.663C235.971 124.777 236.173 124.948 236.331 125.168C236.488 125.388 236.598 125.651 236.65 125.933L237.72 131.575C239.796 132.448 242.017 132.944 244.379 132.938L241.174 123.596C241.058 123.27 241.028 122.907 241.098 122.567C241.164 122.22 241.319 121.904 241.547 121.664C241.775 121.423 242.06 121.263 242.369 121.21C242.673 121.151 242.988 121.203 243.273 121.361C243.633 121.552 243.915 121.902 244.054 122.327L247.62 132.725C249.631 132.519 251.592 132.208 253.468 131.773L250.178 125.454C249.999 125.123 249.924 124.742 249.959 124.362C249.995 123.982 250.135 123.619 250.369 123.344C250.599 123.062 250.903 122.874 251.24 122.816C251.573 122.753 251.914 122.811 252.211 122.988C252.474 123.145 252.691 123.383 252.836 123.673L256.609 130.911C258.565 130.296 260.399 129.549 262.08 128.677L259.157 120.153C259.041 119.827 259.011 119.465 259.081 119.125C259.147 118.778 259.302 118.462 259.529 118.222C259.753 117.976 260.042 117.821 260.346 117.762C260.655 117.71 260.97 117.761 261.251 117.912C261.615 118.11 261.897 118.46 262.036 118.885L264.844 127.071C264.845 127.071 264.846 127.07 264.847 127.069C266.645 125.855 268.171 124.503 269.427 122.999L266.871 115.547C266.755 115.221 266.73 114.865 266.795 114.518C266.86 114.172 267.015 113.856 267.243 113.616C267.471 113.376 267.755 113.215 268.064 113.162C268.369 113.103 268.684 113.155 268.965 113.306C269.329 113.504 269.611 113.854 269.75 114.279L271.601 119.672C272.541 117.769 273.141 115.667 273.35 113.313C274.407 101.297 264.423 88.6174 249.923 87.9099L249.921 87.9113C245.679 87.6998 241.785 87.8591 238.424 88.8839C237.96 89.0232 237.476 89.0407 237.005 88.9277C236.537 88.8214 236.097 88.5907 235.72 88.2551C235.344 87.919 235.041 87.4886 234.833 86.9939C234.63 86.5054 234.529 85.967 234.537 85.4219C235.004 60.9772 237.455 35.0557 241.22 8.137ZM223.213 9.95768C223.912 10.5077 224.084 11.6014 223.595 12.3901C223.111 13.1849 222.149 13.3841 221.445 12.8278C220.747 12.2768 220.573 11.1846 221.063 10.395C221.549 9.59869 222.512 9.399 223.213 9.95768ZM235.77 20.1537C236.468 20.7047 236.641 21.7979 236.155 22.5938C235.666 23.3829 234.706 23.5796 234.003 23.0234C233.304 22.4728 233.131 21.3801 233.621 20.5905C234.106 19.7952 235.072 19.6027 235.77 20.1537ZM244.572 97.6077C244.948 97.7955 245.242 98.144 245.392 98.5794C245.538 99.0087 245.531 99.4933 245.366 99.9177C245.2 100.342 244.891 100.674 244.513 100.847C244.131 101.014 243.704 101.001 243.329 100.814C242.953 100.626 242.659 100.277 242.513 99.8482C242.363 99.4127 242.374 98.9342 242.535 98.5036C242.701 98.0792 243.01 97.7477 243.392 97.5804C243.775 97.4132 244.197 97.4203 244.572 97.6077ZM232.295 103.5C232.67 103.688 232.964 104.037 233.114 104.473C233.26 104.902 233.253 105.386 233.087 105.811C232.922 106.235 232.614 106.566 232.235 106.74C231.853 106.907 231.426 106.894 231.051 106.706C230.676 106.519 230.381 106.17 230.235 105.741C230.085 105.305 230.097 104.827 230.262 104.403C230.423 103.972 230.731 103.641 231.114 103.474C231.496 103.306 231.919 103.313 232.295 103.5ZM238.172 113.548C238.547 113.736 238.841 114.085 238.992 114.52C239.138 114.949 239.13 115.434 238.965 115.858C238.8 116.282 238.491 116.614 238.113 116.787C237.73 116.955 237.304 116.942 236.928 116.754C236.553 116.566 236.259 116.218 236.113 115.788C235.962 115.353 235.974 114.874 236.14 114.45C236.301 114.019 236.609 113.688 236.992 113.521C237.374 113.354 237.797 113.36 238.172 113.548Z" fill="#ECD6FE"/>
<path d="M-25.5291 -37.2496C-25.7495 -36.6804 -25.7956 -36.05 -25.6592 -35.4584C-25.5224 -34.8607 -25.2113 -34.3318 -24.7759 -33.959C-9.89845 -21.2195 3.53704 -8.24602 15.3777 4.98462C13.4135 6.58892 11.5568 8.36706 9.84031 10.3525C0.155843 21.5657 -0.00672583 38.4784 8.81567 47.0721C13.2407 51.3798 18.9783 52.3105 24.5403 50.9082C30.1029 49.5059 35.6591 45.9313 40.6695 41.1233C45.9699 36.0417 48.0131 28.764 47.8881 21.9556C47.763 15.1534 45.6142 8.66825 42.0318 4.42196C41.6784 4.00299 41.5319 3.90781 41.2076 3.61562C40.8838 3.32336 40.4719 2.96041 39.9691 2.52703C38.9634 1.66028 37.6023 0.504731 35.9773 -0.881546C32.7273 -3.6541 28.4226 -7.3437 23.8708 -11.3836C15.0576 -19.2107 5.44756 -28.4105 0.849894 -34.5502C0.932983 -36.5095 1.80844 -39.1199 3.38905 -42.0313L7.03929 -35.1986C7.11849 -35.0402 7.22611 -34.8974 7.35562 -34.7817C7.48405 -34.6721 7.63218 -34.5894 7.79079 -34.5389C7.94887 -34.4945 8.11415 -34.4818 8.27625 -34.506C8.43889 -34.5302 8.59399 -34.597 8.73447 -34.693C8.87548 -34.7829 8.99698 -34.9139 9.09397 -35.0609C9.1904 -35.2078 9.25909 -35.3763 9.29563 -35.5599C9.33269 -35.7374 9.33701 -35.9236 9.30862 -36.1061C9.28023 -36.2887 9.22019 -36.4616 9.13115 -36.6127L4.97137 -44.3981C4.94696 -44.4449 4.91981 -44.4914 4.89102 -44.5316C5.86915 -46.0452 7.02251 -47.5969 8.34014 -49.1667L10.5709 -42.9135C10.6911 -42.5801 10.9265 -42.309 11.224 -42.1686C11.5225 -42.0222 11.858 -42.0222 12.159 -42.1545C12.4594 -42.2931 12.6997 -42.555 12.8272 -42.891C12.9542 -43.227 12.958 -43.605 12.8368 -43.9445L10.2114 -51.2869C11.7618 -52.963 13.4632 -54.6248 15.2867 -56.2569L16.7284 -48.9815C16.7601 -48.8055 16.8234 -48.6391 16.9147 -48.4883C17.0059 -48.3374 17.1228 -48.208 17.2594 -48.1055C17.395 -48.0091 17.5476 -47.9393 17.7073 -47.9075C17.8665 -47.8756 18.0302 -47.8813 18.1891 -47.9175C18.3474 -47.9598 18.4976 -48.0321 18.6294 -48.1396C18.7617 -48.2471 18.8745 -48.3772 18.96 -48.5352C19.0461 -48.6872 19.1034 -48.8607 19.129 -49.0431C19.1546 -49.2254 19.1486 -49.4043 19.1103 -49.5858L17.4524 -57.9455C17.4422 -58 17.4282 -58.0542 17.4114 -58.1081C18.7107 -59.193 20.0694 -60.2473 21.4581 -61.2802L23.5271 -55.4919C23.5844 -55.3249 23.6718 -55.1674 23.7833 -55.0374C23.8953 -54.9012 24.0292 -54.7985 24.1779 -54.7283C24.3266 -54.6519 24.4869 -54.6139 24.6489 -54.6133C24.8115 -54.6065 24.9725 -54.643 25.1233 -54.7092C25.2735 -54.7816 25.4107 -54.8834 25.5268 -55.0077C25.6417 -55.138 25.7332 -55.2906 25.7954 -55.4584C25.8575 -55.6263 25.8891 -55.8093 25.888 -55.9949C25.8874 -56.1744 25.8541 -56.3564 25.7908 -56.5227L23.5492 -62.7995C24.9119 -63.7553 26.309 -64.6653 27.7266 -65.5404L29.2089 -61.3896C29.2685 -61.2229 29.3575 -61.0656 29.469 -60.9417C29.581 -60.8118 29.7149 -60.709 29.862 -60.6386C30.0096 -60.5683 30.1682 -60.5302 30.3286 -60.5293C30.489 -60.5285 30.6484 -60.5585 30.7965 -60.6307C30.9456 -60.6967 31.0817 -60.7923 31.1961 -60.9226C31.3105 -61.0467 31.402 -61.1992 31.4652 -61.361C31.5279 -61.5289 31.5617 -61.7059 31.5633 -61.8857C31.5649 -62.0654 31.5349 -62.2478 31.4753 -62.4145L29.8923 -66.839C30.7814 -67.3522 31.6726 -67.8595 32.573 -68.3369C33.0631 -68.5954 33.4626 -69.0297 33.7097 -69.5709C33.9567 -70.1121 34.0376 -70.7277 33.9389 -71.3235C33.8397 -71.9254 33.568 -72.4649 33.1643 -72.8721C32.7612 -73.2732 32.2497 -73.5137 31.7103 -73.5592C24.6323 -74.0938 17.244 -74.4765 9.23032 -71.354C1.22698 -68.2327 -7.23087 -61.6622 -16.6814 -48.9025L-16.6901 -48.8892L-25.1387 -37.9428C-25.2992 -37.7331 -25.4302 -37.4958 -25.5291 -37.2496ZM-19.7966 -36.4978L-12.9962 -45.3114C-12.9858 -45.3249 -12.9748 -45.3386 -12.9644 -45.3521C-3.88627 -57.6249 3.7991 -63.4349 10.821 -66.169C14.7418 -67.6928 18.5216 -68.192 22.3026 -68.3198C16.202 -64.2082 10.6113 -59.4597 6.17285 -54.5417C-0.200811 -47.4778 -4.59293 -40.2681 -4.12731 -33.3303C-4.09016 -32.7772 -3.90404 -32.2468 -3.59431 -31.8168C1.48563 -24.7339 11.6535 -15.2368 20.841 -7.07966C25.4353 -2.99498 29.7656 0.71036 33.0216 3.48844C34.6493 4.87441 36.0098 6.0362 36.991 6.8809C37.4819 7.30322 37.8791 7.65543 38.1566 7.90327C38.4341 8.15112 38.6794 8.42725 38.4847 8.19499C40.9759 11.1506 42.9064 16.5581 43.0084 22.0814C43.047 24.1944 42.8359 26.2978 42.3402 28.3152L41.2364 26.2645C41.1225 26.048 40.9572 25.8682 40.7584 25.7479C40.5596 25.6275 40.3356 25.5718 40.1107 25.5905C39.8859 25.603 39.6691 25.689 39.4843 25.8333C39.3005 25.9836 39.1543 26.1794 39.0647 26.4121C38.9856 26.619 38.9511 26.8395 38.9658 27.0608C38.9804 27.282 39.0431 27.498 39.1484 27.6906L41.2305 31.5521C40.4541 33.3158 39.4139 34.9539 38.0536 36.3923L35.4302 29.1239C35.3409 28.8676 35.1844 28.6435 34.9814 28.4926C34.7778 28.3356 34.5375 28.2508 34.2914 28.2533C34.0454 28.2558 33.8051 28.3381 33.6023 28.4968C33.3989 28.6493 33.2428 28.871 33.1547 29.1345C33.0392 29.4631 33.0441 29.8339 33.1676 30.1607L36.0881 38.2506C34.8334 39.3615 33.5572 40.3819 32.271 41.2797L31.142 35.6782C31.0861 35.3811 30.9472 35.1179 30.7454 34.9235C30.543 34.7293 30.2891 34.6088 30.0229 34.5949C29.7562 34.575 29.4914 34.6539 29.2699 34.827C29.048 34.994 28.8803 35.2353 28.7933 35.5174C28.7179 35.7672 28.7068 36.0346 28.7622 36.2885L30.0536 42.7077C28.6344 43.5521 27.2233 44.247 25.8394 44.7779L23.4449 38.1466C23.3562 37.8902 23.1997 37.6661 22.9972 37.5152C22.7936 37.3582 22.5533 37.2734 22.3078 37.2758C22.0618 37.2721 21.8215 37.3606 21.6186 37.5131C21.4158 37.6718 21.2591 37.8934 21.17 38.1509C21.0556 38.4855 21.0605 38.8564 21.184 39.1833L23.4831 45.5527C23.482 45.5528 23.481 45.5529 23.4799 45.5531C21.8661 45.9609 20.3425 46.1235 18.9014 46.0355L16.8084 40.2374C16.7191 39.9811 16.5632 39.7631 16.3601 39.6061C16.1571 39.449 15.9168 39.3642 15.6707 39.3667C15.4252 39.3691 15.1849 39.4515 14.9821 39.6102C14.7787 39.7627 14.6226 39.9843 14.5329 40.2419C14.4185 40.5765 14.4234 40.9473 14.5469 41.2741L16.0613 45.4709C14.611 44.963 13.2605 44.1344 12.0152 42.9228C5.66267 36.7361 5.34077 23.4305 13.3388 14.1747L13.3404 14.1745C15.6782 11.464 17.993 9.1771 20.4151 7.70781C20.7484 7.50373 21.0351 7.21811 21.2522 6.86595C21.4703 6.51988 21.6127 6.12031 21.669 5.69929C21.7248 5.27833 21.6933 4.84844 21.5761 4.44044C21.4594 4.03859 21.2602 3.67065 20.9949 3.36574C9.03965 -10.2484 -4.7622 -23.4909 -19.7966 -36.4978ZM-8.57347 -46.4575C-8.71252 -45.7178 -8.28851 -44.9909 -7.63047 -44.8409C-6.97191 -44.6848 -6.32354 -45.159 -6.18502 -45.9049C-6.04705 -46.6445 -6.46941 -47.3716 -7.12854 -47.5214C-7.78874 -47.6773 -8.43767 -47.2031 -8.57347 -46.4575ZM-10.9181 -32.9929C-11.0561 -32.2533 -10.6326 -31.5263 -9.97296 -31.3704C-9.31437 -31.2204 -8.66875 -31.6943 -8.53023 -32.4402C-8.39172 -33.1798 -8.81459 -33.9069 -9.47372 -34.0567C-10.1328 -34.2128 -10.7801 -33.7325 -10.9181 -32.9929ZM21.0512 16.422C20.9253 16.7579 20.9226 17.1359 21.0444 17.4753C21.1656 17.8085 21.4016 18.0795 21.6996 18.2198C21.9976 18.3602 22.3337 18.3601 22.6341 18.2278C22.9335 18.0894 23.1727 17.8214 23.2991 17.4855C23.425 17.1496 23.4277 16.7717 23.3065 16.4385C23.1847 16.0991 22.9492 15.8342 22.6507 15.6877C22.3527 15.5474 22.0166 15.5475 21.7167 15.6859C21.4168 15.8244 21.1777 16.0861 21.0512 16.422ZM30.9271 12.2761C30.8012 12.612 30.799 12.9899 30.9208 13.3292C31.042 13.6625 31.278 13.9335 31.576 14.0738C31.8735 14.2142 32.2095 14.2142 32.51 14.0818C32.8099 13.9434 33.049 13.6755 33.1749 13.3396C33.3008 13.0037 33.3035 12.6258 33.1823 12.2925C33.0605 11.9531 32.8251 11.6883 32.5271 11.5479C32.2285 11.4015 31.893 11.4014 31.5931 11.5399C31.2932 11.6784 31.0536 11.9402 30.9271 12.2761ZM32.3515 21.5778C32.2256 21.9137 32.2235 22.2916 32.3453 22.631C32.4665 22.9643 32.7025 23.2352 33.0005 23.3756C33.298 23.516 33.634 23.5159 33.9344 23.3836C34.2343 23.2451 34.4735 22.9772 34.5994 22.6413C34.7253 22.3054 34.728 21.9275 34.6068 21.5943C34.485 21.2549 34.2495 20.9899 33.9515 20.8496C33.653 20.7031 33.3175 20.7032 33.0176 20.8417C32.7177 20.9801 32.478 21.2419 32.3515 21.5778Z" fill="#ECD6FE"/>
<path d="M62.8225 118.943C61.4588 122.267 60.9908 124.382 58.7314 124.382C55.0949 124.382 53.5039 122.854 53.5039 119.85C53.5039 116.846 56.9265 111.389 59.186 111.389C61.4454 111.389 64.6407 114.511 62.8225 118.943Z" fill="#ECD6FE"/>
<path d="M165.35 136.975C161.551 142.515 160.247 146.041 153.953 146.041C143.823 146.041 139.391 143.493 139.391 138.486C139.391 133.48 148.925 124.385 155.219 124.385C161.513 124.385 170.415 129.589 165.35 136.975Z" fill="#ECD6FE"/>
<path d="M125.928 0.975492C122.129 6.51541 120.825 10.0408 114.531 10.0408C104.401 10.0408 99.9688 7.49302 99.9688 2.48638C99.9688 -2.52026 109.503 -11.6152 115.797 -11.6152C122.091 -11.6152 130.993 -6.41107 125.928 0.975492Z" fill="#ECD6FE"/>
<path d="M68.5342 16.9557C67.3653 19.6148 66.9642 21.307 65.0276 21.307C61.9106 21.307 60.5469 20.0841 60.5469 17.6809C60.5469 15.2777 63.4805 10.9121 65.4172 10.9121C67.3539 10.9121 70.0927 13.4101 68.5342 16.9557Z" fill="#ECD6FE"/>
<path d="M136.574 37.3268C136.574 39.9255 135.471 40.3586 134.11 40.3586C132.749 40.3586 130.238 39.4343 130.238 37.7599C130.238 36.0854 132.749 34.2949 134.11 34.2949C135.471 34.2949 136.574 35.1612 136.574 37.3268Z" fill="#ECD6FE"/>
<path d="M151.361 7.0074C151.361 8.86364 150.625 9.17301 149.718 9.17301C148.811 9.17301 147.137 8.51281 147.137 7.31677C147.137 6.12074 148.811 4.8418 149.718 4.8418C150.625 4.8418 151.361 5.46054 151.361 7.0074Z" fill="#ECD6FE"/>
</g>
</svg>
