<svg width="309" height="242" viewBox="0 0 309 242" fill="none" xmlns="http://www.w3.org/2000/svg">
<g filter="url(#filter0_d_63_1508)">
<path d="M297.561 88.0566C294.256 88.8431 284.636 93.082 282.404 97.3675C281.611 98.8906 283.183 100.179 284.891 100.358C289.44 100.834 296.424 101.712 292.411 103.495C287.26 105.782 284.018 108.26 282.11 108.069" stroke="#F1DBFF" stroke-width="3"/>
<path d="M10.8669 107.498C14.1725 108.284 23.7912 112.523 26.0234 116.809C26.8167 118.332 25.2455 119.621 23.5365 119.799C18.9883 120.275 12.0032 121.153 16.0171 122.936C21.1673 125.223 24.41 127.701 26.3175 127.51" stroke="#F1DBFF" stroke-width="3"/>
<path d="M296.989 116.646C295.408 116.646 294.127 115.366 294.127 113.787C294.127 112.208 295.408 110.928 296.989 110.928C298.569 110.928 299.85 112.208 299.85 113.787C299.85 115.366 298.569 116.646 296.989 116.646Z" fill="#F1DBFF"/>
<path d="M11.4392 136.087C13.0194 136.087 14.3004 134.807 14.3004 133.228C14.3004 131.649 13.0194 130.369 11.4392 130.369C9.85895 130.369 8.57794 131.649 8.57794 133.228C8.57794 134.807 9.85895 136.087 11.4392 136.087Z" fill="#F1DBFF"/>
<path d="M304.428 124.08C290.694 124.08 284.972 125.223 283.827 125.795" stroke="#F1DBFF" stroke-width="3"/>
<path d="M4 143.521C17.7338 143.521 23.4563 144.664 24.6008 145.236" stroke="#F1DBFF" stroke-width="3"/>
<path d="M63.601 154.021C49.8611 111.312 99.2551 77.7969 123.301 67.0262L128.276 64.5406C128.276 59.5696 111.582 37.1666 138.477 27.4461C155.422 21.3216 161.367 24.0153 166.517 32.0206L178.026 54.5986L183.001 57.0841C193.985 38.3104 196.56 34.712 214.586 44.0283C231.181 52.6052 229.434 64.5406 225.289 69.5118L217.826 79.454C233.745 89.3961 244.359 106.795 247.676 114.252C250.371 120.311 264.04 141.728 242.701 178.876C221.403 215.951 168.076 222.154 138.227 218.644C114.44 215.848 77.1278 196.067 63.601 154.021Z" fill="#E9BB17" stroke="#E9BB17"/>
<path d="M153.266 191.096C99.5367 189.107 70.5512 156.815 60.6013 144.386C63.0887 166.756 72.3202 208.238 125.904 218.437C190.184 230.671 214.515 215.143 240.33 186.125C260.229 163.755 258.076 133.393 251.443 120.136C242.322 144.163 206.996 193.085 153.266 191.096Z" fill="#DEB41D" stroke="#D9AF1C" stroke-width="0.2"/>
<path d="M123.416 151.327C141.275 151.327 155.753 136.86 155.753 119.015C155.753 101.169 141.275 86.7026 123.416 86.7026C105.556 86.7026 91.0782 101.169 91.0782 119.015C91.0782 136.86 105.556 151.327 123.416 151.327Z" fill="white"/>
<path d="M188.091 151.327C205.95 151.327 220.428 136.86 220.428 119.015C220.428 101.169 205.95 86.7026 188.091 86.7026C170.231 86.7026 155.753 101.169 155.753 119.015C155.753 136.86 170.231 151.327 188.091 151.327Z" fill="white"/>
<path d="M138.669 121.5C139.862 121.5 140.845 122.471 140.672 123.65C140.495 124.869 140.166 126.065 139.693 127.207C138.943 129.017 137.843 130.661 136.457 132.046C135.071 133.43 133.427 134.529 131.615 135.278C129.804 136.028 127.863 136.414 125.904 136.414C123.943 136.414 122.003 136.028 120.192 135.278C118.381 134.529 116.736 133.43 115.35 132.046C113.964 130.661 112.865 129.017 112.115 127.207C111.641 126.065 111.312 124.869 111.135 123.65C110.963 122.471 111.946 121.5 113.138 121.5C114.331 121.5 115.276 122.476 115.517 123.644C115.652 124.297 115.849 124.937 116.106 125.556C116.639 126.841 117.42 128.01 118.405 128.993C119.389 129.978 120.558 130.758 121.846 131.291C123.132 131.824 124.511 132.097 125.904 132.097C127.297 132.097 128.676 131.824 129.962 131.291C131.249 130.758 132.418 129.978 133.403 128.993C134.388 128.01 135.168 126.841 135.702 125.556C135.958 124.937 136.155 124.297 136.29 123.644C136.532 122.476 137.476 121.5 138.669 121.5Z" fill="#292626"/>
<path d="M203.343 121.5C204.537 121.5 205.519 122.471 205.347 123.65C205.17 124.869 204.841 126.065 204.368 127.207C203.617 129.017 202.518 130.661 201.132 132.046C199.746 133.43 198.1 134.529 196.29 135.278C194.479 136.028 192.538 136.414 190.579 136.414C188.618 136.414 186.677 136.028 184.867 135.278C183.056 134.529 181.41 133.43 180.024 132.046C178.64 130.661 177.54 129.017 176.79 127.207C176.316 126.065 175.988 124.869 175.809 123.65C175.638 122.471 176.621 121.5 177.813 121.5C179.006 121.5 179.951 122.476 180.193 123.644C180.327 124.297 180.523 124.937 180.78 125.556C181.313 126.841 182.095 128.01 183.079 128.993C184.064 129.978 185.233 130.758 186.519 131.291C187.807 131.824 189.186 132.097 190.579 132.097C191.972 132.097 193.351 131.824 194.637 131.291C195.924 130.758 197.093 129.978 198.078 128.993C199.063 128.01 199.843 126.841 200.377 125.556C200.633 124.937 200.83 124.297 200.965 123.644C201.207 122.476 202.151 121.5 203.343 121.5Z" fill="#292626"/>
<path d="M278.807 115.294L274.002 115.469L274.353 125.074L274.791 137.08L279.597 136.905C281.309 131.073 279.785 120.068 278.807 115.294Z" fill="#C5A5F3" stroke="#75C973" stroke-width="0.2"/>
<path d="M35.514 155.426L40.3202 155.25L39.9693 145.646L39.5306 133.64L34.7244 133.815C33.0126 139.648 34.5376 150.653 35.514 155.426Z" fill="#C5A5F3" stroke="#75C973" stroke-width="0.2"/>
<path d="M57.1811 111.591L64.5273 172.393L45.5967 168.874C43.0393 165.31 38.1491 150.922 39.0463 121.87L48.1138 116.731L42.9201 65.3658C71.591 30.8953 153.426 -22.1758 251.4 41.3019L256.775 94.4584L268.527 98.0987C271.782 104.608 277.317 123.398 273.419 146.478L255.455 152.515L249.375 91.6798L256.775 94.4584L251.4 41.3019C153.426 -22.1758 71.591 30.8953 42.9201 65.3658L48.1138 116.731L57.1811 111.591Z" fill="#6F219E"/>
<path d="M48.1138 116.731L39.0463 121.87C38.1491 150.922 43.0393 165.31 45.5967 168.874L64.5273 172.392L57.1811 111.591L48.1138 116.731ZM48.1138 116.731L42.9201 65.3658C71.591 30.8953 153.426 -22.1758 251.4 41.3019L256.775 94.4583M256.775 94.4583L249.375 91.6798L255.455 152.515L273.419 146.478C277.317 123.398 271.782 104.608 268.527 98.0987L256.775 94.4583Z" stroke="#6F219E"/>
<path d="M48.2427 167.025C45.3879 157.752 40.3215 136.153 42.8946 123.941" stroke="#C5A5F3"/>
<path d="M264.812 100.544C267.336 110.258 271.579 132.811 268.358 145.314" stroke="#C5A5F3"/>
<path d="M135.616 169.251C142.956 176.155 161.701 185.821 177.962 169.251" stroke="black" stroke-linecap="round"/>
</g>
<defs>
<filter id="filter0_d_63_1508" x="0" y="0" width="309" height="242" filterUnits="userSpaceOnUse" color-interpolation-filters="sRGB">
<feFlood flood-opacity="0" result="BackgroundImageFix"/>
<feColorMatrix in="SourceAlpha" type="matrix" values="0 0 0 0 0 0 0 0 0 0 0 0 0 0 0 0 0 0 127 0" result="hardAlpha"/>
<feOffset dy="15"/>
<feGaussianBlur stdDeviation="2"/>
<feColorMatrix type="matrix" values="0 0 0 0 0 0 0 0 0 0 0 0 0 0 0 0 0 0 0.25 0"/>
<feBlend mode="normal" in2="BackgroundImageFix" result="effect1_dropShadow_63_1508"/>
<feBlend mode="normal" in="SourceGraphic" in2="effect1_dropShadow_63_1508" result="shape"/>
</filter>
</defs>
</svg>
