<svg width="53" height="37" viewBox="0 0 53 37" fill="none" xmlns="http://www.w3.org/2000/svg">
<rect width="52.5" height="36.8229" rx="18.2292" fill="#FF912C"/>
<path d="M24.0615 18.4114H12.7605" stroke="#2B2B2B" stroke-width="1.26" stroke-linecap="round"/>
<path d="M18.411 24.062L18.411 12.761" stroke="#2B2B2B" stroke-width="1.26" stroke-linecap="round"/>
<path d="M34.1737 25.3584C33.1844 25.3584 32.2219 25.2046 31.2862 24.8972C30.3638 24.5897 29.6085 24.1753 29.0203 23.6539L29.9427 22.0698C30.4105 22.511 31.0188 22.8719 31.7674 23.1526C32.516 23.4334 33.3114 23.5737 34.1536 23.5737C35.223 23.5737 36.0452 23.3465 36.62 22.892C37.1948 22.4374 37.4822 21.8292 37.4822 21.0672C37.4822 20.5459 37.3552 20.0914 37.1013 19.7037C36.8473 19.316 36.4061 19.0219 35.7778 18.8214C35.1629 18.6075 34.314 18.5006 33.2312 18.5006H30.0429L30.7849 11.1615H38.7054V12.906H31.5268L32.5695 11.9235L31.988 17.7185L30.9453 16.756H33.6523C35.0559 16.756 36.1855 16.9365 37.0411 17.2974C37.8967 17.6584 38.5183 18.1597 38.9059 18.8013C39.2936 19.4296 39.4875 20.1582 39.4875 20.987C39.4875 21.7891 39.2936 22.5243 38.9059 23.1927C38.5183 23.8478 37.9301 24.3758 37.1414 24.7769C36.366 25.1645 35.3768 25.3584 34.1737 25.3584Z" fill="#2B2B2B"/>
</svg>
