<svg width="511" height="57" viewBox="0 0 511 57" fill="none" xmlns="http://www.w3.org/2000/svg">
<path d="M17.3572 37V21.25H19.7647L26.6497 32.7475H25.3897L32.1622 21.25H34.5697L34.5922 37H31.8247L31.8022 25.5925H32.3872L26.6272 35.2H25.3222L19.4722 25.5925H20.1472V37H17.3572ZM44.2239 37.1575C42.8889 37.1575 41.7189 36.895 40.7139 36.37C39.7239 35.83 38.9514 35.095 38.3964 34.165C37.8564 33.235 37.5864 32.1775 37.5864 30.9925C37.5864 29.7925 37.8489 28.735 38.3739 27.82C38.9139 26.89 39.6489 26.1625 40.5789 25.6375C41.5239 25.1125 42.5964 24.85 43.7964 24.85C44.9664 24.85 46.0089 25.105 46.9239 25.615C47.8389 26.125 48.5589 26.845 49.0839 27.775C49.6089 28.705 49.8714 29.8 49.8714 31.06C49.8714 31.18 49.8639 31.315 49.8489 31.465C49.8489 31.615 49.8414 31.7575 49.8264 31.8925H39.8139V30.025H48.3414L47.2389 30.61C47.2539 29.92 47.1114 29.3125 46.8114 28.7875C46.5114 28.2625 46.0989 27.85 45.5739 27.55C45.0639 27.25 44.4714 27.1 43.7964 27.1C43.1064 27.1 42.4989 27.25 41.9739 27.55C41.4639 27.85 41.0589 28.27 40.7589 28.81C40.4739 29.335 40.3314 29.9575 40.3314 30.6775V31.1275C40.3314 31.8475 40.4964 32.485 40.8264 33.04C41.1564 33.595 41.6214 34.0225 42.2214 34.3225C42.8214 34.6225 43.5114 34.7725 44.2914 34.7725C44.9664 34.7725 45.5739 34.6675 46.1139 34.4575C46.6539 34.2475 47.1339 33.9175 47.5539 33.4675L49.0614 35.2C48.5214 35.83 47.8389 36.3175 47.0139 36.6625C46.2039 36.9925 45.2739 37.1575 44.2239 37.1575ZM57.0955 37.1575C55.7755 37.1575 54.7555 36.82 54.0355 36.145C53.3155 35.455 52.9555 34.4425 52.9555 33.1075V22.33H55.768V33.04C55.768 33.61 55.9105 34.0525 56.1955 34.3675C56.4955 34.6825 56.908 34.84 57.433 34.84C58.063 34.84 58.588 34.675 59.008 34.345L59.7955 36.3475C59.4655 36.6175 59.0605 36.82 58.5805 36.955C58.1005 37.09 57.6055 37.1575 57.0955 37.1575ZM50.9755 27.325V25.075H58.9855V27.325H50.9755ZM62.1092 37V24.985H64.7867V28.2925L64.4717 27.325C64.8317 26.515 65.3942 25.9 66.1592 25.48C66.9392 25.06 67.9067 24.85 69.0617 24.85V27.5275C68.9417 27.4975 68.8292 27.4825 68.7242 27.4825C68.6192 27.4675 68.5142 27.46 68.4092 27.46C67.3442 27.46 66.4967 27.775 65.8667 28.405C65.2367 29.02 64.9217 29.9425 64.9217 31.1725V37H62.1092ZM76.7377 37.1575C75.5077 37.1575 74.4127 36.895 73.4527 36.37C72.4927 35.83 71.7352 35.095 71.1802 34.165C70.6252 33.235 70.3477 32.1775 70.3477 30.9925C70.3477 29.7925 70.6252 28.735 71.1802 27.82C71.7352 26.89 72.4927 26.1625 73.4527 25.6375C74.4127 25.1125 75.5077 24.85 76.7377 24.85C77.9827 24.85 79.0852 25.1125 80.0452 25.6375C81.0202 26.1625 81.7777 26.8825 82.3177 27.7975C82.8727 28.7125 83.1502 29.7775 83.1502 30.9925C83.1502 32.1775 82.8727 33.235 82.3177 34.165C81.7777 35.095 81.0202 35.83 80.0452 36.37C79.0852 36.895 77.9827 37.1575 76.7377 37.1575ZM76.7377 34.75C77.4277 34.75 78.0427 34.6 78.5827 34.3C79.1227 34 79.5427 33.565 79.8427 32.995C80.1577 32.425 80.3152 31.7575 80.3152 30.9925C80.3152 30.2125 80.1577 29.545 79.8427 28.99C79.5427 28.42 79.1227 27.985 78.5827 27.685C78.0427 27.385 77.4352 27.235 76.7602 27.235C76.0702 27.235 75.4552 27.385 74.9152 27.685C74.3902 27.985 73.9702 28.42 73.6552 28.99C73.3402 29.545 73.1827 30.2125 73.1827 30.9925C73.1827 31.7575 73.3402 32.425 73.6552 32.995C73.9702 33.565 74.3902 34 74.9152 34.3C75.4552 34.6 76.0627 34.75 76.7377 34.75ZM92.6571 24.85C93.6171 24.85 94.4721 25.0375 95.2221 25.4125C95.9871 25.7875 96.5871 26.365 97.0221 27.145C97.4571 27.91 97.6746 28.9 97.6746 30.115V37H94.8621V30.475C94.8621 29.41 94.6071 28.615 94.0971 28.09C93.6021 27.565 92.9046 27.3025 92.0046 27.3025C91.3446 27.3025 90.7596 27.4375 90.2496 27.7075C89.7396 27.9775 89.3421 28.3825 89.0571 28.9225C88.7871 29.4475 88.6521 30.115 88.6521 30.925V37H85.8396V24.985H88.5171V28.225L88.0446 27.235C88.4646 26.47 89.0721 25.885 89.8671 25.48C90.6771 25.06 91.6071 24.85 92.6571 24.85ZM106.664 37.1575C105.434 37.1575 104.339 36.895 103.379 36.37C102.419 35.83 101.662 35.095 101.107 34.165C100.552 33.235 100.274 32.1775 100.274 30.9925C100.274 29.7925 100.552 28.735 101.107 27.82C101.662 26.89 102.419 26.1625 103.379 25.6375C104.339 25.1125 105.434 24.85 106.664 24.85C107.909 24.85 109.012 25.1125 109.972 25.6375C110.947 26.1625 111.704 26.8825 112.244 27.7975C112.799 28.7125 113.077 29.7775 113.077 30.9925C113.077 32.1775 112.799 33.235 112.244 34.165C111.704 35.095 110.947 35.83 109.972 36.37C109.012 36.895 107.909 37.1575 106.664 37.1575ZM106.664 34.75C107.354 34.75 107.969 34.6 108.509 34.3C109.049 34 109.469 33.565 109.769 32.995C110.084 32.425 110.242 31.7575 110.242 30.9925C110.242 30.2125 110.084 29.545 109.769 28.99C109.469 28.42 109.049 27.985 108.509 27.685C107.969 27.385 107.362 27.235 106.687 27.235C105.997 27.235 105.382 27.385 104.842 27.685C104.317 27.985 103.897 28.42 103.582 28.99C103.267 29.545 103.109 30.2125 103.109 30.9925C103.109 31.7575 103.267 32.425 103.582 32.995C103.897 33.565 104.317 34 104.842 34.3C105.382 34.6 105.989 34.75 106.664 34.75ZM130.931 24.85C131.891 24.85 132.739 25.0375 133.474 25.4125C134.224 25.7875 134.809 26.365 135.229 27.145C135.649 27.91 135.859 28.9 135.859 30.115V37H133.046V30.475C133.046 29.41 132.814 28.615 132.349 28.09C131.884 27.565 131.216 27.3025 130.346 27.3025C129.731 27.3025 129.184 27.4375 128.704 27.7075C128.239 27.9775 127.871 28.375 127.601 28.9C127.346 29.425 127.219 30.0925 127.219 30.9025V37H124.406V30.475C124.406 29.41 124.174 28.615 123.709 28.09C123.244 27.565 122.576 27.3025 121.706 27.3025C121.091 27.3025 120.544 27.4375 120.064 27.7075C119.599 27.9775 119.231 28.375 118.961 28.9C118.706 29.425 118.579 30.0925 118.579 30.9025V37H115.766V24.985H118.444V28.18L117.971 27.235C118.376 26.455 118.961 25.8625 119.726 25.4575C120.506 25.0525 121.391 24.85 122.381 24.85C123.506 24.85 124.481 25.1275 125.306 25.6825C126.146 26.2375 126.701 27.0775 126.971 28.2025L125.869 27.82C126.259 26.92 126.904 26.2 127.804 25.66C128.704 25.12 129.746 24.85 130.931 24.85ZM145.122 37.1575C143.787 37.1575 142.617 36.895 141.612 36.37C140.622 35.83 139.85 35.095 139.295 34.165C138.755 33.235 138.485 32.1775 138.485 30.9925C138.485 29.7925 138.747 28.735 139.272 27.82C139.812 26.89 140.547 26.1625 141.477 25.6375C142.422 25.1125 143.495 24.85 144.695 24.85C145.865 24.85 146.907 25.105 147.822 25.615C148.737 26.125 149.457 26.845 149.982 27.775C150.507 28.705 150.77 29.8 150.77 31.06C150.77 31.18 150.762 31.315 150.747 31.465C150.747 31.615 150.74 31.7575 150.725 31.8925H140.712V30.025H149.24L148.137 30.61C148.152 29.92 148.01 29.3125 147.71 28.7875C147.41 28.2625 146.997 27.85 146.472 27.55C145.962 27.25 145.37 27.1 144.695 27.1C144.005 27.1 143.397 27.25 142.872 27.55C142.362 27.85 141.957 28.27 141.657 28.81C141.372 29.335 141.23 29.9575 141.23 30.6775V31.1275C141.23 31.8475 141.395 32.485 141.725 33.04C142.055 33.595 142.52 34.0225 143.12 34.3225C143.72 34.6225 144.41 34.7725 145.19 34.7725C145.865 34.7725 146.472 34.6675 147.012 34.4575C147.552 34.2475 148.032 33.9175 148.452 33.4675L149.96 35.2C149.42 35.83 148.737 36.3175 147.912 36.6625C147.102 36.9925 146.172 37.1575 145.122 37.1575ZM159.96 37V21.25H166.44C167.835 21.25 169.027 21.475 170.017 21.925C171.022 22.375 171.795 23.02 172.335 23.86C172.875 24.7 173.145 25.6975 173.145 26.8525C173.145 28.0075 172.875 29.005 172.335 29.845C171.795 30.685 171.022 31.33 170.017 31.78C169.027 32.23 167.835 32.455 166.44 32.455H161.58L162.885 31.0825V37H159.96ZM162.885 31.3975L161.58 29.98H166.305C167.595 29.98 168.562 29.71 169.207 29.17C169.867 28.615 170.197 27.8425 170.197 26.8525C170.197 25.8475 169.867 25.075 169.207 24.535C168.562 23.995 167.595 23.725 166.305 23.725H161.58L162.885 22.285V31.3975ZM175.686 37V24.985H178.363V28.2925L178.048 27.325C178.408 26.515 178.971 25.9 179.736 25.48C180.516 25.06 181.483 24.85 182.638 24.85V27.5275C182.518 27.4975 182.406 27.4825 182.301 27.4825C182.196 27.4675 182.091 27.46 181.986 27.46C180.921 27.46 180.073 27.775 179.443 28.405C178.813 29.02 178.498 29.9425 178.498 31.1725V37H175.686ZM190.562 37.1575C189.227 37.1575 188.057 36.895 187.052 36.37C186.062 35.83 185.289 35.095 184.734 34.165C184.194 33.235 183.924 32.1775 183.924 30.9925C183.924 29.7925 184.187 28.735 184.712 27.82C185.252 26.89 185.987 26.1625 186.917 25.6375C187.862 25.1125 188.934 24.85 190.134 24.85C191.304 24.85 192.347 25.105 193.262 25.615C194.177 26.125 194.897 26.845 195.422 27.775C195.947 28.705 196.209 29.8 196.209 31.06C196.209 31.18 196.202 31.315 196.187 31.465C196.187 31.615 196.179 31.7575 196.164 31.8925H186.152V30.025H194.679L193.577 30.61C193.592 29.92 193.449 29.3125 193.149 28.7875C192.849 28.2625 192.437 27.85 191.912 27.55C191.402 27.25 190.809 27.1 190.134 27.1C189.444 27.1 188.837 27.25 188.312 27.55C187.802 27.85 187.397 28.27 187.097 28.81C186.812 29.335 186.669 29.9575 186.669 30.6775V31.1275C186.669 31.8475 186.834 32.485 187.164 33.04C187.494 33.595 187.959 34.0225 188.559 34.3225C189.159 34.6225 189.849 34.7725 190.629 34.7725C191.304 34.7725 191.912 34.6675 192.452 34.4575C192.992 34.2475 193.472 33.9175 193.892 33.4675L195.399 35.2C194.859 35.83 194.177 36.3175 193.352 36.6625C192.542 36.9925 191.612 37.1575 190.562 37.1575ZM202.623 37.1575C201.618 37.1575 200.651 37.03 199.721 36.775C198.806 36.505 198.078 36.1825 197.538 35.8075L198.618 33.67C199.158 34.015 199.803 34.3 200.553 34.525C201.303 34.75 202.053 34.8625 202.803 34.8625C203.688 34.8625 204.326 34.7425 204.716 34.5025C205.121 34.2625 205.323 33.94 205.323 33.535C205.323 33.205 205.188 32.9575 204.918 32.7925C204.648 32.6125 204.296 32.4775 203.861 32.3875C203.426 32.2975 202.938 32.215 202.398 32.14C201.873 32.065 201.341 31.9675 200.801 31.8475C200.276 31.7125 199.796 31.525 199.361 31.285C198.926 31.03 198.573 30.6925 198.303 30.2725C198.033 29.8525 197.898 29.2975 197.898 28.6075C197.898 27.8425 198.116 27.1825 198.551 26.6275C198.986 26.0575 199.593 25.6225 200.373 25.3225C201.168 25.0075 202.106 24.85 203.186 24.85C203.996 24.85 204.813 24.94 205.638 25.12C206.463 25.3 207.146 25.555 207.686 25.885L206.606 28.0225C206.036 27.6775 205.458 27.445 204.873 27.325C204.303 27.19 203.733 27.1225 203.163 27.1225C202.308 27.1225 201.671 27.25 201.251 27.505C200.846 27.76 200.643 28.0825 200.643 28.4725C200.643 28.8325 200.778 29.1025 201.048 29.2825C201.318 29.4625 201.671 29.605 202.106 29.71C202.541 29.815 203.021 29.905 203.546 29.98C204.086 30.04 204.618 30.1375 205.143 30.2725C205.668 30.4075 206.148 30.595 206.583 30.835C207.033 31.06 207.393 31.3825 207.663 31.8025C207.933 32.2225 208.068 32.77 208.068 33.445C208.068 34.195 207.843 34.8475 207.393 35.4025C206.958 35.9575 206.336 36.3925 205.526 36.7075C204.716 37.0075 203.748 37.1575 202.623 37.1575ZM216.138 37.1575C214.803 37.1575 213.633 36.895 212.628 36.37C211.638 35.83 210.866 35.095 210.311 34.165C209.771 33.235 209.501 32.1775 209.501 30.9925C209.501 29.7925 209.763 28.735 210.288 27.82C210.828 26.89 211.563 26.1625 212.493 25.6375C213.438 25.1125 214.511 24.85 215.711 24.85C216.881 24.85 217.923 25.105 218.838 25.615C219.753 26.125 220.473 26.845 220.998 27.775C221.523 28.705 221.786 29.8 221.786 31.06C221.786 31.18 221.778 31.315 221.763 31.465C221.763 31.615 221.756 31.7575 221.741 31.8925H211.728V30.025H220.256L219.153 30.61C219.168 29.92 219.026 29.3125 218.726 28.7875C218.426 28.2625 218.013 27.85 217.488 27.55C216.978 27.25 216.386 27.1 215.711 27.1C215.021 27.1 214.413 27.25 213.888 27.55C213.378 27.85 212.973 28.27 212.673 28.81C212.388 29.335 212.246 29.9575 212.246 30.6775V31.1275C212.246 31.8475 212.411 32.485 212.741 33.04C213.071 33.595 213.536 34.0225 214.136 34.3225C214.736 34.6225 215.426 34.7725 216.206 34.7725C216.881 34.7725 217.488 34.6675 218.028 34.4575C218.568 34.2475 219.048 33.9175 219.468 33.4675L220.976 35.2C220.436 35.83 219.753 36.3175 218.928 36.6625C218.118 36.9925 217.188 37.1575 216.138 37.1575ZM229.01 37.1575C227.69 37.1575 226.67 36.82 225.95 36.145C225.23 35.455 224.87 34.4425 224.87 33.1075V22.33H227.682V33.04C227.682 33.61 227.825 34.0525 228.11 34.3675C228.41 34.6825 228.822 34.84 229.347 34.84C229.977 34.84 230.502 34.675 230.922 34.345L231.71 36.3475C231.38 36.6175 230.975 36.82 230.495 36.955C230.015 37.09 229.52 37.1575 229.01 37.1575ZM222.89 27.325V25.075H230.9V27.325H222.89ZM237.736 37.1575C236.731 37.1575 235.763 37.03 234.833 36.775C233.918 36.505 233.191 36.1825 232.651 35.8075L233.731 33.67C234.271 34.015 234.916 34.3 235.666 34.525C236.416 34.75 237.166 34.8625 237.916 34.8625C238.801 34.8625 239.438 34.7425 239.828 34.5025C240.233 34.2625 240.436 33.94 240.436 33.535C240.436 33.205 240.301 32.9575 240.031 32.7925C239.761 32.6125 239.408 32.4775 238.973 32.3875C238.538 32.2975 238.051 32.215 237.511 32.14C236.986 32.065 236.453 31.9675 235.913 31.8475C235.388 31.7125 234.908 31.525 234.473 31.285C234.038 31.03 233.686 30.6925 233.416 30.2725C233.146 29.8525 233.011 29.2975 233.011 28.6075C233.011 27.8425 233.228 27.1825 233.663 26.6275C234.098 26.0575 234.706 25.6225 235.486 25.3225C236.281 25.0075 237.218 24.85 238.298 24.85C239.108 24.85 239.926 24.94 240.751 25.12C241.576 25.3 242.258 25.555 242.798 25.885L241.718 28.0225C241.148 27.6775 240.571 27.445 239.986 27.325C239.416 27.19 238.846 27.1225 238.276 27.1225C237.421 27.1225 236.783 27.25 236.363 27.505C235.958 27.76 235.756 28.0825 235.756 28.4725C235.756 28.8325 235.891 29.1025 236.161 29.2825C236.431 29.4625 236.783 29.605 237.218 29.71C237.653 29.815 238.133 29.905 238.658 29.98C239.198 30.04 239.731 30.1375 240.256 30.2725C240.781 30.4075 241.261 30.595 241.696 30.835C242.146 31.06 242.506 31.3825 242.776 31.8025C243.046 32.2225 243.181 32.77 243.181 33.445C243.181 34.195 242.956 34.8475 242.506 35.4025C242.071 35.9575 241.448 36.3925 240.638 36.7075C239.828 37.0075 238.861 37.1575 237.736 37.1575Z" fill="black"/>
<circle cx="286" cy="28.5" r="22.5" fill="#D9D9D9"/>
<path d="M285.978 35.5455V22.25L287.143 23.4568H282.95V21.2273H288.637V35.5455H285.978Z" fill="black"/>
<circle cx="353.5" cy="28.5" r="22.5" fill="#D9D9D9"/>
<path d="M348.945 35.5455V33.7659L354.631 28.3659C355.109 27.9159 355.463 27.5205 355.695 27.1796C355.927 26.8387 356.077 26.525 356.145 26.2387C356.227 25.9387 356.268 25.6591 356.268 25.4C356.268 24.7455 356.043 24.2409 355.593 23.8864C355.143 23.5182 354.481 23.3341 353.609 23.3341C352.913 23.3341 352.279 23.4568 351.706 23.7023C351.147 23.9477 350.663 24.3227 350.254 24.8273L348.393 23.3955C348.952 22.6455 349.702 22.0659 350.643 21.6568C351.597 21.2341 352.661 21.0227 353.834 21.0227C354.87 21.0227 355.77 21.1932 356.534 21.5341C357.311 21.8614 357.904 22.3318 358.313 22.9455C358.736 23.5591 358.947 24.2887 358.947 25.1341C358.947 25.5977 358.886 26.0614 358.763 26.525C358.641 26.975 358.409 27.4523 358.068 27.9568C357.727 28.4614 357.229 29.0273 356.575 29.6546L351.686 34.2977L351.134 33.2955H359.5V35.5455H348.945Z" fill="black"/>
<circle cx="421" cy="28.5" r="22.5" fill="#D9D9D9"/>
<path d="M421.129 35.75C420.12 35.75 419.131 35.6068 418.163 35.3205C417.209 35.0205 416.404 34.6114 415.75 34.0932L416.895 32.0273C417.413 32.45 418.041 32.7909 418.777 33.05C419.513 33.3091 420.284 33.4387 421.088 33.4387C422.043 33.4387 422.786 33.2477 423.318 32.8659C423.85 32.4705 424.116 31.9387 424.116 31.2705C424.116 30.6159 423.87 30.0977 423.379 29.7159C422.888 29.3341 422.097 29.1432 421.006 29.1432H419.697V27.3227L423.788 22.4546L424.136 23.4568H416.445V21.2273H426.202V23.0068L422.111 27.875L420.72 27.0568H421.518C423.277 27.0568 424.593 27.4523 425.466 28.2432C426.352 29.0205 426.795 30.0227 426.795 31.25C426.795 32.0546 426.591 32.7977 426.181 33.4796C425.772 34.1614 425.145 34.7137 424.3 35.1364C423.468 35.5455 422.411 35.75 421.129 35.75Z" fill="black"/>
<circle cx="488.5" cy="28.5" r="22.5" fill="#D9D9D9"/>
<path d="M482.936 32.2932V30.4523L489.993 21.2273H492.836L485.881 30.4523L484.552 30.0432H495.904V32.2932H482.936ZM490.79 35.5455V32.2932L490.872 30.0432V27.1591H493.368V35.5455H490.79Z" fill="black"/>
</svg>
