<svg width="300" height="88" viewBox="0 0 300 88" fill="none" xmlns="http://www.w3.org/2000/svg">
<rect y="0.5" width="300" height="87" rx="42.0611" fill="#E9BB17"/>
<path d="M40.1715 59.5V34.684H30.4133V30.0572H55.3976V34.684H45.6394V59.5H40.1715ZM71.6434 59.5V54.9574L71.3489 53.99V46.0405C71.3489 44.4982 70.8863 43.3065 69.9609 42.4653C69.0356 41.596 67.6335 41.1614 65.7548 41.1614C64.493 41.1614 63.2452 41.3577 62.0114 41.7502C60.8056 42.1428 59.7821 42.6896 58.9409 43.3906L56.8799 39.5631C58.0857 38.6377 59.5157 37.9507 61.1701 37.5021C62.8526 37.0254 64.5911 36.787 66.3857 36.787C69.6384 36.787 72.1481 37.5722 73.9146 39.1424C75.7093 40.6847 76.6066 43.0822 76.6066 46.3349V59.5H71.6434ZM64.5771 59.7944C62.8946 59.7944 61.4225 59.514 60.1607 58.9532C58.8988 58.3644 57.9174 57.5652 57.2164 56.5557C56.5434 55.5182 56.2069 54.3545 56.2069 53.0647C56.2069 51.8028 56.5014 50.6672 57.0902 49.6577C57.7071 48.6482 58.7026 47.8491 60.0766 47.2602C61.4506 46.6714 63.2732 46.3769 65.5445 46.3769H72.064V49.868H65.923C64.1284 49.868 62.9227 50.1624 62.3058 50.7513C61.6889 51.3121 61.3804 52.0131 61.3804 52.8544C61.3804 53.8077 61.759 54.5648 62.5161 55.1256C63.2732 55.6865 64.3247 55.9669 65.6707 55.9669C66.9606 55.9669 68.1102 55.6724 69.1197 55.0836C70.1572 54.4947 70.9003 53.6255 71.3489 52.4758L72.2322 55.6304C71.7275 56.9483 70.8161 57.9718 69.4982 58.7008C68.2084 59.4299 66.568 59.7944 64.5771 59.7944ZM95.8041 59.7944C93.9815 59.7944 92.3131 59.3738 90.7989 58.5326C89.3127 57.6914 88.121 56.4295 87.2237 54.7471C86.3544 53.0366 85.9198 50.8775 85.9198 48.2697C85.9198 45.6339 86.3404 43.4747 87.1816 41.7923C88.0509 40.1098 89.2286 38.862 90.7148 38.0489C92.2009 37.2076 93.8974 36.787 95.8041 36.787C98.0194 36.787 99.9682 37.2637 101.651 38.2171C103.361 39.1705 104.707 40.5024 105.689 42.2129C106.698 43.9234 107.203 45.9423 107.203 48.2697C107.203 50.5971 106.698 52.63 105.689 54.3685C104.707 56.079 103.361 57.411 101.651 58.3644C99.9682 59.3177 98.0194 59.7944 95.8041 59.7944ZM83.3541 67.6598V37.0394H88.3593V42.3391L88.1911 48.3118L88.6117 54.2844V67.6598H83.3541ZM95.2153 55.2939C96.4771 55.2939 97.5988 55.0135 98.5802 54.4527C99.5896 53.8919 100.389 53.0787 100.978 52.0131C101.567 50.9476 101.861 49.6998 101.861 48.2697C101.861 46.8116 101.567 45.5638 100.978 44.5263C100.389 43.4607 99.5896 42.6475 98.5802 42.0867C97.5988 41.5259 96.4771 41.2455 95.2153 41.2455C93.9535 41.2455 92.8178 41.5259 91.8083 42.0867C90.7989 42.6475 89.9997 43.4607 89.4109 44.5263C88.822 45.5638 88.5276 46.8116 88.5276 48.2697C88.5276 49.6998 88.822 50.9476 89.4109 52.0131C89.9997 53.0787 90.7989 53.8919 91.8083 54.4527C92.8178 55.0135 93.9535 55.2939 95.2153 55.2939ZM130.291 59.5V34.684H120.532V30.0572H145.517V34.684H135.759V59.5H130.291ZM157.373 59.7944C154.877 59.7944 152.69 59.3037 150.811 58.3223C148.96 57.3128 147.516 55.9388 146.479 54.2003C145.469 52.4618 144.965 50.4849 144.965 48.2697C144.965 46.0264 145.455 44.0496 146.437 42.3391C147.446 40.6006 148.82 39.2406 150.559 38.2592C152.325 37.2777 154.33 36.787 156.574 36.787C158.761 36.787 160.71 37.2637 162.42 38.2171C164.13 39.1705 165.476 40.5164 166.458 42.255C167.439 43.9935 167.93 46.0405 167.93 48.3959C167.93 48.6202 167.916 48.8726 167.888 49.153C167.888 49.4334 167.874 49.6998 167.846 49.9521H149.129V46.4611H165.07L163.009 47.5547C163.037 46.2648 162.771 45.1291 162.21 44.1477C161.649 43.1663 160.878 42.3952 159.896 41.8344C158.943 41.2735 157.835 40.9931 156.574 40.9931C155.284 40.9931 154.148 41.2735 153.167 41.8344C152.213 42.3952 151.456 43.1803 150.895 44.1898C150.363 45.1712 150.096 46.3349 150.096 47.6808V48.5221C150.096 49.868 150.405 51.0597 151.021 52.0973C151.638 53.1348 152.508 53.9339 153.629 54.4947C154.751 55.0555 156.041 55.336 157.499 55.336C158.761 55.336 159.896 55.1397 160.906 54.7471C161.915 54.3545 162.813 53.7376 163.598 52.8964L166.416 56.1351C165.406 57.3128 164.13 58.2241 162.588 58.8691C161.074 59.486 159.336 59.7944 157.373 59.7944ZM201.329 36.787C203.124 36.787 204.708 37.1375 206.082 37.8385C207.484 38.5396 208.578 39.6191 209.363 41.0773C210.148 42.5073 210.541 44.358 210.541 46.6293V59.5H205.283V47.3023C205.283 45.3114 204.849 43.8252 203.979 42.8438C203.11 41.8624 201.862 41.3717 200.236 41.3717C199.086 41.3717 198.063 41.624 197.165 42.1288C196.296 42.6335 195.609 43.3766 195.104 44.358C194.628 45.3394 194.389 46.5873 194.389 48.1014V59.5H189.132V47.3023C189.132 45.3114 188.697 43.8252 187.828 42.8438C186.959 41.8624 185.711 41.3717 184.084 41.3717C182.935 41.3717 181.911 41.624 181.014 42.1288C180.145 42.6335 179.458 43.3766 178.953 44.358C178.476 45.3394 178.238 46.5873 178.238 48.1014V59.5H172.98V37.0394H177.986V43.0121L177.102 41.2455C177.859 39.7874 178.953 38.6798 180.383 37.9227C181.841 37.1656 183.496 36.787 185.346 36.787C187.449 36.787 189.272 37.3058 190.814 38.3433C192.384 39.3808 193.422 40.9511 193.927 43.0541L191.866 42.3391C192.595 40.6566 193.801 39.3107 195.483 38.3012C197.165 37.2918 199.114 36.787 201.329 36.787ZM229.71 59.7944C227.887 59.7944 226.218 59.3738 224.704 58.5326C223.218 57.6914 222.026 56.4295 221.129 54.7471C220.26 53.0366 219.825 50.8775 219.825 48.2697C219.825 45.6339 220.246 43.4747 221.087 41.7923C221.956 40.1098 223.134 38.862 224.62 38.0489C226.106 37.2076 227.803 36.787 229.71 36.787C231.925 36.787 233.874 37.2637 235.556 38.2171C237.266 39.1705 238.612 40.5024 239.594 42.2129C240.603 43.9234 241.108 45.9423 241.108 48.2697C241.108 50.5971 240.603 52.63 239.594 54.3685C238.612 56.079 237.266 57.411 235.556 58.3644C233.874 59.3177 231.925 59.7944 229.71 59.7944ZM217.259 67.6598V37.0394H222.265V42.3391L222.096 48.3118L222.517 54.2844V67.6598H217.259ZM229.121 55.2939C230.382 55.2939 231.504 55.0135 232.486 54.4527C233.495 53.8919 234.294 53.0787 234.883 52.0131C235.472 50.9476 235.766 49.6998 235.766 48.2697C235.766 46.8116 235.472 45.5638 234.883 44.5263C234.294 43.4607 233.495 42.6475 232.486 42.0867C231.504 41.5259 230.382 41.2455 229.121 41.2455C227.859 41.2455 226.723 41.5259 225.714 42.0867C224.704 42.6475 223.905 43.4607 223.316 44.5263C222.727 45.5638 222.433 46.8116 222.433 48.2697C222.433 49.6998 222.727 50.9476 223.316 52.0131C223.905 53.0787 224.704 53.8919 225.714 54.4527C226.723 55.0135 227.859 55.2939 229.121 55.2939ZM256.189 59.7944C253.89 59.7944 251.843 59.3037 250.048 58.3223C248.253 57.3128 246.837 55.9388 245.8 54.2003C244.762 52.4618 244.244 50.4849 244.244 48.2697C244.244 46.0264 244.762 44.0496 245.8 42.3391C246.837 40.6006 248.253 39.2406 250.048 38.2592C251.843 37.2777 253.89 36.787 256.189 36.787C258.516 36.787 260.577 37.2777 262.372 38.2592C264.195 39.2406 265.611 40.5865 266.62 42.297C267.658 44.0075 268.176 45.9984 268.176 48.2697C268.176 50.4849 267.658 52.4618 266.62 54.2003C265.611 55.9388 264.195 57.3128 262.372 58.3223C260.577 59.3037 258.516 59.7944 256.189 59.7944ZM256.189 55.2939C257.479 55.2939 258.628 55.0135 259.638 54.4527C260.647 53.8919 261.433 53.0787 261.993 52.0131C262.582 50.9476 262.877 49.6998 262.877 48.2697C262.877 46.8116 262.582 45.5638 261.993 44.5263C261.433 43.4607 260.647 42.6475 259.638 42.0867C258.628 41.5259 257.493 41.2455 256.231 41.2455C254.941 41.2455 253.791 41.5259 252.782 42.0867C251.801 42.6475 251.015 43.4607 250.427 44.5263C249.838 45.5638 249.543 46.8116 249.543 48.2697C249.543 49.6998 249.838 50.9476 250.427 52.0131C251.015 53.0787 251.801 53.8919 252.782 54.4527C253.791 55.0135 254.927 55.2939 256.189 55.2939Z" fill="black"/>
</svg>
