<svg width="65" height="58" viewBox="0 0 65 58" fill="none" xmlns="http://www.w3.org/2000/svg">
<path d="M6.17969 54.9366V17.992V15.6668L58.7372 14.375L60.5496 53.6449L6.17969 54.9366Z" fill="white" stroke="black"/>
<path d="M54.3194 26.2934L29.2656 25.9648V40.4224H54.3194V26.2934Z" fill="#FFC086" stroke="black" stroke-linejoin="round"/>
<path d="M54.1588 40.4223C54.1588 35.656 54.319 30.9029 54.319 26.1587" stroke="black"/>
<path d="M29.3519 25.9648C29.3519 27.6714 29.3519 29.3779 29.3519 31.0845C29.3519 32.2678 29.3519 33.4676 29.3519 34.6258C29.3519 35.6785 29.3519 36.9095 29.3519 37.9622C29.3519 38.4801 29.2654 39.9936 29.2655 40.5614" stroke="black"/>
<path d="M35.2827 30.8154C35.5505 30.8827 35.8222 30.7201 35.8894 30.4522C35.9567 30.1844 35.7941 29.9128 35.5263 29.8455L35.2827 30.8154ZM29.2657 30.5821C30.1737 30.5821 31.2795 30.5471 32.4072 30.5607C33.5293 30.5743 34.5727 30.6371 35.2827 30.8154L35.5263 29.8455C34.6907 29.6357 33.5417 29.5743 32.4193 29.5608C31.3025 29.5473 30.1117 29.5821 29.2657 29.5821V30.5821Z" fill="black"/>
<path d="M35.5047 25.965C35.5047 28.1249 35.5047 30.4811 35.5047 32.6377C35.5047 34.2826 35.5047 35.8582 35.5047 37.5032C35.5047 38.4274 35.5047 38.7543 35.5047 40.4225" stroke="black"/>
<path d="M31.2393 32.1465C31.3874 32.1465 32.1748 31.9127 32.1046 32.2644C32.0034 32.7714 31.6573 33.0871 31.4684 33.523C31.4466 33.5731 31.1897 33.9312 31.2037 33.9532C31.3043 34.1106 32.0342 33.5894 32.1555 33.523C32.2144 33.4907 32.6271 33.2213 32.695 33.3063C32.744 33.3676 32.7073 33.7225 32.7052 33.797C32.6977 34.0593 32.4496 34.3814 32.3362 34.5873C32.1151 34.9886 31.852 35.3545 31.6312 35.7567C31.5473 35.9094 31.4628 36.0556 31.6719 35.9319C31.9633 35.7596 32.2532 35.5131 32.5729 35.4285C32.6101 35.4186 32.9292 35.2828 32.9292 35.3934C32.9292 35.5497 32.7755 35.7063 32.7154 35.8299C32.601 36.0652 32.489 36.2875 32.3591 36.5118C32.1426 36.8857 31.9197 37.3028 31.7432 37.7099C31.7006 37.8081 31.6267 38.0696 31.56 38.1114" stroke="white" stroke-width="0.5" stroke-linecap="round"/>
<path d="M30.3438 27.1236C30.7279 27.1236 31.0167 27.1194 31.3624 26.9392C31.6514 26.7886 31.7585 27.0109 31.7585 27.2932C31.7585 27.5686 31.6185 27.9427 31.4756 28.1522C31.2563 28.4737 31.5864 28.4142 31.7837 28.2886C32.2653 27.982 32.6902 27.5195 33.1733 27.2047C33.2801 27.1351 33.7958 27.0136 33.7958 27.2231C33.7958 27.844 33.5173 28.5068 33.2865 29.0482" stroke="white" stroke-width="0.5" stroke-linecap="round"/>
<path d="M47.6016 38.9713C47.8197 38.8912 48.0135 38.6282 48.1878 38.4595C48.5169 38.1407 48.8938 37.8759 49.2407 37.5848C49.9924 36.954 50.7863 36.3668 51.4987 35.6735C51.7791 35.4006 52.1219 35.0536 52.4377 34.8441C52.5346 34.7799 52.6736 34.6562 52.7796 34.6562" stroke="white" stroke-width="0.5" stroke-linecap="round"/>
<path d="M50.625 38.9742C50.9551 38.9742 51.4448 38.6865 51.6638 38.5427C52.0318 38.301 52.5533 37.9891 52.7825 37.6797" stroke="white" stroke-width="0.5" stroke-linecap="round"/>
<path d="M56.6734 1L6.62087 2.6436L1 17.6708C2.71303 21.8033 7.78073 19.3927 10.1005 17.6708C13.7406 22.179 17.5057 19.0796 18.9332 16.9664C22.5734 22.4138 27.4092 19.2362 29.372 16.9664C33.0122 22.0381 37.1342 19.0796 38.7401 16.9664C42.8086 22.226 46.6807 18.6883 48.1082 16.262C50.4636 20.2067 54.7997 17.9056 56.6734 16.262C63.5255 19.831 64.3463 17.123 63.9002 15.3228L56.6734 1Z" fill="#6F219E" stroke="black"/>
<path d="M10.2416 15.4273L13.3979 4.86528" stroke="black" stroke-linecap="round" stroke-linejoin="round"/>
<path d="M19.125 15.2408L21.714 4.45312" stroke="black" stroke-linecap="round" stroke-linejoin="round"/>
<path d="M28.9545 15.0031L30.2143 4.05176" stroke="black" stroke-linecap="round" stroke-linejoin="round"/>
<path d="M38.6963 14.845L36.2337 4.10001" stroke="black" stroke-linecap="round" stroke-linejoin="round"/>
<path d="M47.8445 14.3703L43.9751 4.04815" stroke="black" stroke-linecap="round" stroke-linejoin="round"/>
<path d="M56.3679 14.4601L52.4985 4.13799" stroke="black" stroke-linecap="round" stroke-linejoin="round"/>
<path d="M18.2617 25.6641C21.5603 25.6641 24.2344 28.3382 24.2344 31.6367V54.4385H12.2891V31.6367C12.2891 28.3381 14.9631 25.6641 18.2617 25.6641Z" fill="#DE7C23" stroke="black"/>
<path d="M13.9453 40.2656H15.2398" stroke="white" stroke-linecap="round"/>
<path d="M18.3356 27.5871C15.0847 27.4372 14.3898 30.6485 14.4487 32.2729H22.576C22.5171 30.7734 21.5865 27.737 18.3356 27.5871Z" fill="black"/>
<path d="M18.3627 28.211C15.6119 28.101 15.0239 30.456 15.0737 31.6472H21.9508C21.9009 30.5476 21.1135 28.321 18.3627 28.211Z" fill="white"/>
<path d="M1 53.7103H5.40741L64 52.3477V56.6627H1V53.7103Z" fill="#DE7C23" stroke="black"/>
</svg>
