<svg width="58" height="123" viewBox="0 0 58 123" fill="none" xmlns="http://www.w3.org/2000/svg">
<path d="M6.25684 1.2052L19.7245 65.2288L27.514 63.918L11.7059 1L6.25684 1.2052Z" fill="#F0824F" stroke="black" stroke-width="0.5"/>
<path d="M2.6266 118.753C3.74198 117.528 5.8798 118.534 6.80928 119.19L54.7144 121.229L37.3934 74.7785L36.3144 55.2863C34.9976 55.1405 32.0913 55.3497 30.9759 57.9733C29.8605 60.5968 27.5678 59.5036 26.5608 58.6291L17.0336 50.977C16.6463 50.6855 14.8958 50.6272 10.992 52.726C7.08813 54.8249 4.56303 57.5359 3.78845 58.6291C2.11079 60.9968 2.48718 62.1709 2.85897 64.9694C3.23076 67.7679 6.26708 74.4434 7.73876 77.4313C7.97114 78.8889 7.97114 82.7222 6.11217 86.3952C3.78845 90.9865 1 99.5131 1 106.728C1 112.5 2.0844 117.149 2.6266 118.753Z" fill="#F0824F" stroke="black"/>
<path d="M5.06966 103.119C4.33164 110.817 5.99217 117.114 6.91469 119.301L8.99023 122.144L56.4999 121.488L56.9612 118.645C57.038 116.385 57.0534 110.817 56.4999 106.618C55.9464 102.42 54.1167 97.4339 53.2711 95.4659C51.1954 91.6757 46.2976 84.3477 43.5847 82.1271C42.2556 81.0392 38.4339 76.6603 37.5883 74.911C37.1195 73.9412 37.6805 71.0187 38.0495 67.6949C38.4186 64.3711 38.0495 59.8874 37.8189 58.211C37.3577 56.0243 35.9739 52.8754 34.1288 57.7736C32.2838 62.6718 28.1325 60.4059 26.2874 58.5108L16.8085 50.8397C16.3472 50.7668 15.029 51.0565 12.9109 52.1694C10.8131 53.2716 8.80033 54.9348 8.06771 56.3241C7.37756 57.6328 7.00681 58.4671 6.4533 60.0415C5.89979 61.6159 5.62688 63.2456 6.4533 65.7269C6.91456 67.1118 8.43672 71.0187 10.8353 75.567C13.2338 80.1153 11.2196 85.0427 9.91275 86.9378C8.60589 89.1245 5.80767 95.4222 5.06966 103.119Z" fill="#FFF1BE" stroke="black"/>
<path d="M7.1709 1L21.1138 68.8859" stroke="white" stroke-width="0.5"/>
<path d="M8.31445 1L22.7145 68.4288" stroke="white" stroke-width="0.5"/>
<path d="M9.22852 1L24.3143 67.743" stroke="white" stroke-width="0.5"/>
<path d="M10.1431 1.10645L25.6222 67.7431M11.1122 1L27.0574 67.7431" stroke="white" stroke-width="0.5"/>
<path d="M20.4283 106.601L16.1998 102.258" stroke="white" stroke-width="0.5"/>
<path d="M22.0286 103.628L19.7428 101.343" stroke="white" stroke-width="0.5"/>
<path d="M25.2285 67.9929C29.9003 67.9929 33.664 71.5776 33.6641 75.9714C33.6641 80.3653 29.9004 83.95 25.2285 83.95C20.5568 83.9499 16.793 80.3653 16.793 75.9714C16.793 71.5776 20.5568 67.993 25.2285 67.9929Z" fill="url(#paint0_linear_5429_63282)" stroke="black" stroke-width="0.5"/>
<path d="M35.0573 86.7144H17.665L16.543 85.8255V78.7144H17.665L18.6001 79.8255H32.6261L33.3742 78.7144L35.0573 79.8255V86.7144Z" fill="#DE7C23"/>
<path d="M17.665 86.7144H35.0573V79.8255M17.665 86.7144V79.8255M17.665 86.7144L16.543 85.8255V78.7144M35.0573 79.8255H32.6261M35.0573 79.8255L33.3742 78.7144L32.6261 79.8255M17.665 79.8255L16.543 78.7144M17.665 79.8255H18.6001M16.543 78.7144H17.665L18.6001 79.8255M18.6001 79.8255H32.6261" stroke="black" stroke-width="0.5"/>
<path d="M42.7632 95.2552C32.0927 95.2538 29.9616 102 30.2232 105.075C42.5433 106.232 51.1997 105.204 53.9878 104.546C54.6923 101.45 53.4337 95.2566 42.7632 95.2552Z" fill="white" stroke="black"/>
<path d="M50.907 105.112C50.4068 97.7871 44.6548 95.797 41.9455 95.5131C45.1133 99.2605 45.6273 103.613 45.4884 105.529C48.4061 105.32 50.2123 105.182 50.907 105.112Z" fill="black"/>
<path d="M32.984 105.32C33.4958 98.2887 39.1732 95.7856 41.9455 95.5131C38.704 99.1106 39.094 103.689 39.2362 105.529C36.6772 105.529 33.6948 105.388 32.984 105.32Z" fill="black"/>
<path d="M34.0706 121.142L33.7189 105.317L42.6044 105.119L51.4898 104.922L51.8415 120.747L42.956 120.944L34.0706 121.142Z" fill="#DE7C23"/>
<path d="M42.6044 105.119L51.4898 104.922L51.8415 120.747L34.0706 121.142L33.7189 105.317L42.6044 105.119ZM42.6044 105.119L42.9625 121.237" stroke="black"/>
<path d="M40.8908 110.274V112.91" stroke="black" stroke-width="0.5" stroke-linecap="round"/>
<path d="M44.582 110.801C44.582 111.505 44.0549 112.241 44.0549 112.91" stroke="black" stroke-width="0.5" stroke-linecap="round"/>
<path d="M28.0002 100.318L12.0002 100V114H28.0002V100.318Z" fill="#FFC086" stroke="black" stroke-linejoin="round"/>
<path d="M12.077 100C12.077 101.707 12.077 103.413 12.077 105.12C12.077 106.303 12.077 107.503 12.077 108.661C12.077 109.714 12.077 110.945 12.077 111.997C12.077 112.515 12 114.029 12.0002 114.597" stroke="black"/>
<path d="M17.321 104.847C17.5867 104.922 17.863 104.767 17.9381 104.502C18.0131 104.236 17.8586 103.96 17.5928 103.884L17.321 104.847ZM12.0003 104.617C12.8147 104.617 13.7875 104.582 14.7912 104.596C15.7883 104.609 16.7036 104.672 17.321 104.847L17.5928 103.884C16.8364 103.671 15.8029 103.61 14.8048 103.596C13.8134 103.582 12.7449 103.617 12.0003 103.617V104.617Z" fill="black"/>
<path d="M17.5462 100C17.5462 102.16 17.5462 104.516 17.5462 106.673C17.5462 108.318 17.5461 109.893 17.5461 111.538C17.5461 112.462 17.5462 112.789 17.5462 114.458" stroke="black"/>
<path d="M13.0002 101.233C13.3844 101.233 13.6731 101.229 14.0188 101.049C14.3078 100.898 14.4149 101.12 14.4149 101.403C14.4149 101.678 14.275 102.052 14.132 102.262C13.9127 102.583 14.2428 102.524 14.4401 102.398C14.9217 102.091 15.3466 101.629 15.8297 101.314C15.9365 101.245 16.4522 101.123 16.4522 101.332C16.4522 101.953 16.1737 102.616 15.9429 103.158" stroke="white" stroke-width="0.5" stroke-linecap="round"/>
<path d="M13.8957 106.256C14.0439 106.256 14.8312 106.022 14.761 106.374C14.6598 106.881 14.3138 107.197 14.1248 107.632C14.103 107.682 13.8461 108.041 13.8601 108.063C13.9607 108.22 14.6906 107.699 14.8119 107.632C14.8709 107.6 15.2835 107.331 15.3514 107.416C15.4004 107.477 15.3637 107.832 15.3616 107.906C15.3541 108.169 15.106 108.491 14.9926 108.697C14.7715 109.098 14.5085 109.464 14.2876 109.866C14.2038 110.019 14.1192 110.165 14.3284 110.041C14.6198 109.869 14.9096 109.622 15.2293 109.538C15.2666 109.528 15.5856 109.392 15.5856 109.503C15.5856 109.659 15.4319 109.816 15.3718 109.939C15.2574 110.175 15.1454 110.397 15.0155 110.621C14.799 110.995 14.5762 111.412 14.3996 111.819C14.3571 111.917 14.2831 112.179 14.2164 112.221" stroke="white" stroke-width="0.5" stroke-linecap="round"/>
<path d="M21.0002 112.315C21.2183 112.235 21.4121 111.972 21.5864 111.803C21.9155 111.484 22.2924 111.22 22.6394 110.929C23.391 110.298 24.1849 109.711 24.8973 109.017C25.1777 108.744 25.5205 108.397 25.8363 108.188C25.9332 108.124 26.0722 108 26.1783 108" stroke="white" stroke-width="0.5" stroke-linecap="round"/>
<defs>
<linearGradient id="paint0_linear_5429_63282" x1="16.543" y1="75.9715" x2="35.7407" y2="75.9715" gradientUnits="userSpaceOnUse">
<stop/>
<stop offset="1" stop-color="#438342"/>
</linearGradient>
</defs>
</svg>
