<svg width="96" height="115" viewBox="0 0 96 115" fill="none" xmlns="http://www.w3.org/2000/svg">
<g filter="url(#filter0_f_5429_63290)">
<path d="M23.3008 42.4716C15.9312 17.7934 27.7221 19.5656 34.5387 23.5365C37.8781 26.0101 47.235 34.2398 57.947 47.3703C71.337 63.7835 68.9115 75.9164 73.4426 84.2809C77.0674 90.9725 72.6496 93.2755 69.9876 93.5905L51.1336 85.5467C44.9267 81.4709 30.6704 67.1498 23.3008 42.4716Z" fill="#2D572C"/>
<path d="M23.3008 42.4716C15.9312 17.7934 27.7221 19.5656 34.5387 23.5365C37.8781 26.0101 47.235 34.2398 57.947 47.3703C71.337 63.7835 68.9115 75.9164 73.4426 84.2809C77.0674 90.9725 72.6496 93.2755 69.9876 93.5905L51.1336 85.5467C44.9267 81.4709 30.6704 67.1498 23.3008 42.4716Z" stroke="#2D572C"/>
</g>
<path d="M39.0012 70.5L42.0012 55H45.5012L50.5012 70.5H39.0012Z" fill="#74371A" stroke="#3F1A0B"/>
<path d="M33.0348 45.201C29.6242 20.7304 45.9675 24.3696 54.5655 29.248C59.7144 31.4349 59.002 38.6003 58.0022 41.9096C44.4446 68.179 35.7083 55.0495 33.0348 45.201Z" fill="#FED2AA" stroke="#DE7C23"/>
<path d="M63.0024 66L64.8285 56H66.9589L70.0024 66H63.0024Z" fill="#74371A" stroke="#3F1A0B"/>
<path d="M62.3814 54.6495C51.7395 47.3342 59.3116 41.4412 64.4279 39.4092C67.2111 37.9276 69.6801 40.8239 70.5666 42.4573C75.4783 57.9008 67.1563 57.0203 62.3814 54.6495Z" fill="#FED2AA" stroke="#DE7C23"/>
<path d="M65.0024 95L67.0893 84H69.5241L73.0024 95H65.0024Z" fill="#74371A" stroke="#3F1A0B"/>
<path d="M63.3814 85.6495C52.7395 78.3342 60.3116 72.4412 65.4279 70.4092C68.2111 68.9276 70.6801 71.8239 71.5666 73.4573C76.4783 88.9008 68.1563 88.0203 63.3814 85.6495Z" fill="#FED2AA" stroke="#DE7C23"/>
<defs>
<filter id="filter0_f_5429_63290" x="0.461395" y="0.694214" width="94.8515" height="113.409" filterUnits="userSpaceOnUse" color-interpolation-filters="sRGB">
<feFlood flood-opacity="0" result="BackgroundImageFix"/>
<feBlend mode="normal" in="SourceGraphic" in2="BackgroundImageFix" result="shape"/>
<feGaussianBlur stdDeviation="10" result="effect1_foregroundBlur_5429_63290"/>
</filter>
</defs>
</svg>
