<svg width="86" height="100" viewBox="0 0 86 100" fill="none" xmlns="http://www.w3.org/2000/svg">
<g filter="url(#filter0_f_5429_63289)">
<path d="M39.0598 72.6665C39.0598 77.4665 27.0598 76.9998 21.0598 76.1665C19.0598 76.1665 15.1598 72.6664 15.5598 58.666C15.9598 44.6657 22.3931 41.4993 25.5598 41.6662C28.7265 41.4995 36.0598 41.2662 40.0598 41.6662C44.0598 42.0662 43.0598 48.1662 42.0598 51.1662C48.7265 54.4995 63.0598 62.3662 67.0598 67.1665C71.0598 71.9667 69.7265 76.4997 68.5598 78.1662C67.0598 79.6662 62.0598 82.8662 54.0598 83.6662C46.0598 84.4662 43.3931 80.3328 43.0598 78.1662C43.0598 76.3329 43.2598 72.1664 44.0598 70.1662C44.8598 68.1659 43.7265 67.3329 43.0598 67.1665C41.7265 66.9998 39.0598 67.8665 39.0598 72.6665Z" fill="#2D572C"/>
<path d="M39.0598 72.6665C39.0598 77.4665 27.0598 76.9998 21.0598 76.1665C19.0598 76.1665 15.1598 72.6664 15.5598 58.666C15.9598 44.6657 22.3931 41.4993 25.5598 41.6662C28.7265 41.4995 36.0598 41.2662 40.0598 41.6662C44.0598 42.0662 43.0598 48.1662 42.0598 51.1662C48.7265 54.4995 63.0598 62.3662 67.0598 67.1665C71.0598 71.9667 69.7265 76.4997 68.5598 78.1662C67.0598 79.6662 62.0598 82.8662 54.0598 83.6662C46.0598 84.4662 43.3931 80.3328 43.0598 78.1662C43.0598 76.3329 43.2598 72.1664 44.0598 70.1662C44.8598 68.1659 43.7265 67.3329 43.0598 67.1665C41.7265 66.9998 39.0598 67.8665 39.0598 72.6665Z" stroke="#2D572C"/>
</g>
<path d="M27.5654 44.6678L30.5654 29.1678H34.0654L39.0654 44.6678H27.5654Z" fill="#74371A" stroke="#3F1A0B"/>
<path d="M44.5365 16.9561C44.2259 41.6613 28.6163 35.6041 20.8504 29.4874C16.0892 26.5506 17.8717 19.574 19.3582 16.4529C36.7145 -7.4772 43.3755 6.81746 44.5365 16.9561Z" fill="#FED2AA" stroke="#DE7C23"/>
<path d="M25.5625 69.168L27.3886 59.168H29.519L32.5625 69.168H25.5625Z" fill="#74371A" stroke="#3F1A0B"/>
<path d="M25.1368 58.5948C14.4949 51.2795 22.067 45.3866 27.1834 43.3545C29.9666 41.8729 32.4355 44.7692 33.3221 46.4026C38.2337 61.8461 29.9118 60.9656 25.1368 58.5948Z" fill="#FED2AA" stroke="#DE7C23"/>
<path d="M50.5625 76.668L53.5625 61.168H57.0625L62.0625 76.668H50.5625Z" fill="#74371A" stroke="#3F1A0B"/>
<path d="M49.0465 62.9417C34.24 52.7636 44.7754 44.5646 51.8939 41.7373C55.7663 39.6758 59.2014 43.7056 60.4349 45.9782C67.2687 67.4653 55.6901 66.2402 49.0465 62.9417Z" fill="#FED2AA" stroke="#DE7C23"/>
<defs>
<filter id="filter0_f_5429_63289" x="0.03125" y="25.9453" width="85.2165" height="73.3221" filterUnits="userSpaceOnUse" color-interpolation-filters="sRGB">
<feFlood flood-opacity="0" result="BackgroundImageFix"/>
<feBlend mode="normal" in="SourceGraphic" in2="BackgroundImageFix" result="shape"/>
<feGaussianBlur stdDeviation="7.5" result="effect1_foregroundBlur_5429_63289"/>
</filter>
</defs>
</svg>
