<svg width="83" height="83" viewBox="0 0 83 83" fill="none" xmlns="http://www.w3.org/2000/svg">
<g filter="url(#filter0_f_5429_63288)">
<path d="M37.5036 52.4002C36.353 57.0602 24.8147 53.7306 19.1894 51.4833C17.2477 51.0039 14.3005 46.671 18.0449 33.1747C21.7893 19.6784 28.7941 18.1465 31.8284 19.0676C34.9427 19.6649 42.1181 21.1963 45.9056 22.5435C49.6931 23.8906 47.26 29.5731 45.57 32.2459C51.2433 37.0801 63.273 48.1534 66.0057 53.7725C68.7384 59.3916 66.3573 63.4729 64.8252 64.8111C63.0093 65.9078 57.388 67.8159 49.4295 66.6749C41.471 65.5338 39.8729 60.8818 40.0686 58.6984C40.5081 56.9186 41.701 52.9215 42.9572 51.1714C44.2133 49.4212 43.3127 48.3408 42.7054 48.0194C41.4509 47.538 38.6542 47.7401 37.5036 52.4002Z" fill="#2D572C"/>
<path d="M37.5036 52.4002C36.353 57.0602 24.8147 53.7306 19.1894 51.4833C17.2477 51.0039 14.3005 46.671 18.0449 33.1747C21.7893 19.6784 28.7941 18.1465 31.8284 19.0676C34.9427 19.6649 42.1181 21.1963 45.9056 22.5435C49.6931 23.8906 47.26 29.5731 45.57 32.2459C51.2433 37.0801 63.273 48.1534 66.0057 53.7725C68.7384 59.3916 66.3573 63.4729 64.8252 64.8111C63.0093 65.9078 57.388 67.8159 49.4295 66.6749C41.471 65.5338 39.8729 60.8818 40.0686 58.6984C40.5081 56.9186 41.701 52.9215 42.9572 51.1714C44.2133 49.4212 43.3127 48.3408 42.7054 48.0194C41.4509 47.538 38.6542 47.7401 37.5036 52.4002Z" stroke="#2D572C"/>
</g>
<path d="M50.9956 63.9492L53.9956 48.4492H57.4956L62.4956 63.9492H50.9956Z" fill="#74371A" stroke="#3F1A0B"/>
<path d="M44.0135 37.9081C40.6029 13.4374 56.9462 17.0766 65.5442 21.9551C70.6931 24.142 69.9807 31.3073 68.9809 34.6166C55.4233 60.886 46.687 47.7565 44.0135 37.9081Z" fill="#FED2AA" stroke="#DE7C23"/>
<path d="M29.9967 56.4492L32.0837 45.4492H34.5185L37.9967 56.4492H29.9967Z" fill="#74371A" stroke="#3F1A0B"/>
<path d="M29.2351 47.3839C18.5932 40.0685 26.1653 34.1756 31.2817 32.1436C34.0649 30.6619 36.5338 33.5583 37.4204 35.1916C42.332 50.6352 34.0101 49.7546 29.2351 47.3839Z" fill="#FED2AA" stroke="#DE7C23"/>
<path d="M31.9967 30.4492L34.0837 19.4492H36.5185L39.9967 30.4492H31.9967Z" fill="#74371A" stroke="#3F1A0B"/>
<path d="M30.5276 22.7738C15.7211 12.5956 26.2565 4.39658 33.375 1.56933C37.2474 -0.492119 40.6825 3.53765 41.916 5.81021C48.7498 27.2974 37.1712 26.0722 30.5276 22.7738Z" fill="#FED2AA" stroke="#DE7C23"/>
<defs>
<filter id="filter0_f_5429_63288" x="0.742432" y="3.35046" width="82.0127" height="79.1759" filterUnits="userSpaceOnUse" color-interpolation-filters="sRGB">
<feFlood flood-opacity="0" result="BackgroundImageFix"/>
<feBlend mode="normal" in="SourceGraphic" in2="BackgroundImageFix" result="shape"/>
<feGaussianBlur stdDeviation="7.5" result="effect1_foregroundBlur_5429_63288"/>
</filter>
</defs>
</svg>
