<svg width="82" height="76" viewBox="0 0 82 76" fill="none" xmlns="http://www.w3.org/2000/svg">
<g filter="url(#filter0_f_5429_63286)">
<path d="M40.2699 50.1728C38.413 53.7779 47.5777 58.0549 52.3922 59.7427C53.8896 60.5139 58.1634 59.3891 63.2799 48.7197C68.3964 38.0503 64.8048 33.1913 62.3694 32.0955C60.0631 30.7492 54.663 27.7461 51.5136 26.5041C48.3641 25.262 46.753 30.2291 46.3412 32.8679C40.0605 32.8006 26.2862 33.1818 21.4345 35.2446C16.5828 37.3074 15.8275 41.2261 16.0563 42.9277C16.599 44.6327 19.1045 48.9642 24.7845 52.65C30.4645 56.3358 34.0599 54.2597 35.1476 52.761C35.8568 51.3841 37.3189 48.1776 37.4937 46.3668C37.6686 44.5561 38.8393 44.3675 39.4028 44.4995C40.4655 44.8885 42.1268 46.5677 40.2699 50.1728Z" fill="#2D572C"/>
<path d="M40.2699 50.1728C38.413 53.7779 47.5777 58.0549 52.3922 59.7427C53.8896 60.5139 58.1634 59.3891 63.2799 48.7197C68.3964 38.0503 64.8048 33.1913 62.3694 32.0955C60.0631 30.7492 54.663 27.7461 51.5136 26.5041C48.3641 25.262 46.753 30.2291 46.3412 32.8679C40.0605 32.8006 26.2862 33.1818 21.4345 35.2446C16.5828 37.3074 15.8275 41.2261 16.0563 42.9277C16.599 44.6327 19.1045 48.9642 24.7845 52.65C30.4645 56.3358 34.0599 54.2597 35.1476 52.761C35.8568 51.3841 37.3189 48.1776 37.4937 46.3668C37.6686 44.5561 38.8393 44.3675 39.4028 44.4995C40.4655 44.8885 42.1268 46.5677 40.2699 50.1728Z" stroke="#2D572C"/>
</g>
<path d="M36.001 54.3906L39.001 38.8906H42.501L47.501 54.3906H36.001Z" fill="#74371A" stroke="#3F1A0B"/>
<path d="M31.709 25.2707C32.2836 0.570154 47.8275 6.79376 55.5277 12.9931C60.2573 15.9807 58.4002 22.9378 56.8805 26.0428C39.2695 49.7861 32.7616 35.4211 31.709 25.2707Z" fill="#FED2AA" stroke="#DE7C23"/>
<path d="M22.0022 47.8906L24.0891 36.8906H26.5239L30.0022 47.8906H22.0022Z" fill="#74371A" stroke="#3F1A0B"/>
<path d="M19.6019 36.7391C11.2159 26.9186 20.0553 23.1863 25.5232 22.5477C28.595 21.8369 30.2302 25.2736 30.6638 27.0807C31.411 43.2693 23.6005 40.2649 19.6019 36.7391Z" fill="#FED2AA" stroke="#DE7C23"/>
<path d="M54.0021 60.8906L56.0891 49.8906H58.5239L62.0021 60.8906H54.0021Z" fill="#74371A" stroke="#3F1A0B"/>
<path d="M54.0106 50.5492C42.3429 36.8856 54.6414 31.6927 62.2491 30.8042C66.523 29.8153 68.7981 34.5968 69.4014 37.1112C70.441 59.6349 59.574 55.4547 54.0106 50.5492Z" fill="#FED2AA" stroke="#DE7C23"/>
<defs>
<filter id="filter0_f_5429_63286" x="0.520477" y="10.8081" width="80.8622" height="64.6294" filterUnits="userSpaceOnUse" color-interpolation-filters="sRGB">
<feFlood flood-opacity="0" result="BackgroundImageFix"/>
<feBlend mode="normal" in="SourceGraphic" in2="BackgroundImageFix" result="shape"/>
<feGaussianBlur stdDeviation="7.5" result="effect1_foregroundBlur_5429_63286"/>
</filter>
</defs>
</svg>
