<svg width="83" height="82" viewBox="0 0 83 82" fill="none" xmlns="http://www.w3.org/2000/svg">
<g filter="url(#filter0_f_5429_63287)">
<path d="M37.5036 51.5721C36.353 56.2321 24.8147 52.9025 19.1894 50.6552C17.2478 50.1758 14.3005 45.8428 18.0449 32.3466C21.7893 18.8503 28.7941 17.3184 31.8284 18.2395C34.9427 18.8368 42.1181 20.3681 45.9056 21.7153C49.6931 23.0625 47.26 28.745 45.5701 31.4178C51.2433 36.252 63.273 47.3253 66.0057 52.9444C68.7384 58.5635 66.3573 62.6447 64.8252 63.9829C63.0093 65.0796 57.388 66.9878 49.4295 65.8467C41.471 64.7057 39.8729 60.0537 40.0686 57.8703C40.5081 56.0905 41.701 52.0934 42.9572 50.3432C44.2134 48.5931 43.3127 47.5127 42.7054 47.1913C41.4509 46.7099 38.6542 46.912 37.5036 51.5721Z" fill="#2D572C"/>
<path d="M37.5036 51.5721C36.353 56.2321 24.8147 52.9025 19.1894 50.6552C17.2478 50.1758 14.3005 45.8428 18.0449 32.3466C21.7893 18.8503 28.7941 17.3184 31.8284 18.2395C34.9427 18.8368 42.1181 20.3681 45.9056 21.7153C49.6931 23.0625 47.26 28.745 45.5701 31.4178C51.2433 36.252 63.273 47.3253 66.0057 52.9444C68.7384 58.5635 66.3573 62.6447 64.8252 63.9829C63.0093 65.0796 57.388 66.9878 49.4295 65.8467C41.471 64.7057 39.8729 60.0537 40.0686 57.8703C40.5081 56.0905 41.701 52.0934 42.9572 50.3432C44.2134 48.5931 43.3127 47.5127 42.7054 47.1913C41.4509 46.7099 38.6542 46.912 37.5036 51.5721Z" stroke="#2D572C"/>
</g>
<path d="M50.9956 61.1211L53.9956 45.6211H57.4956L62.4956 61.1211H50.9956Z" fill="#74371A" stroke="#3F1A0B"/>
<path d="M45.6151 35.6307C42.2045 11.1601 58.5478 14.7993 67.1458 19.6777C72.2947 21.8646 71.5823 29.0299 70.5824 32.3392C57.0248 58.6087 48.2886 45.4792 45.6151 35.6307Z" fill="#FED2AA" stroke="#DE7C23"/>
<path d="M28.9967 24.6211L30.562 16.6211H32.388L34.9967 24.6211H28.9967Z" fill="#74371A" stroke="#3F1A0B"/>
<path d="M27.6023 16.6495C16.9604 9.33417 24.5325 3.44124 29.6489 1.40919C32.4321 -0.0724361 34.901 2.82389 35.7875 4.45726C40.6992 19.9008 32.3773 19.0203 27.6023 16.6495Z" fill="#FED2AA" stroke="#DE7C23"/>
<path d="M30.9967 54.6211L33.0837 43.6211H35.5185L38.9967 54.6211H30.9967Z" fill="#74371A" stroke="#3F1A0B"/>
<path d="M30.8367 44.1456C20.1948 36.8303 27.7669 30.9373 32.8832 28.9053C35.6664 27.4237 38.1354 30.32 39.0219 31.9534C43.9336 47.3969 35.6116 46.5164 30.8367 44.1456Z" fill="#FED2AA" stroke="#DE7C23"/>
<defs>
<filter id="filter0_f_5429_63287" x="0.742435" y="2.52234" width="82.0127" height="79.1759" filterUnits="userSpaceOnUse" color-interpolation-filters="sRGB">
<feFlood flood-opacity="0" result="BackgroundImageFix"/>
<feBlend mode="normal" in="SourceGraphic" in2="BackgroundImageFix" result="shape"/>
<feGaussianBlur stdDeviation="7.5" result="effect1_foregroundBlur_5429_63287"/>
</filter>
</defs>
</svg>
