<svg width="80" height="85" viewBox="0 0 80 85" fill="none" xmlns="http://www.w3.org/2000/svg">
<g filter="url(#filter0_f_5429_63284)">
<path d="M44.1809 34.1851C46.2593 29.8585 56.8739 35.4752 61.9214 38.8244C63.7242 39.6904 65.7241 44.5341 59.3012 56.9807C52.8784 69.4273 45.7084 69.4957 42.9263 67.9741C39.9997 66.7531 33.2885 63.7881 29.8561 61.6955C26.4238 59.6029 29.9665 54.5374 32.1669 52.2663C27.601 46.3749 18.0874 33.0775 16.5604 27.0186C15.0334 20.9596 18.1981 17.451 19.9713 16.454C21.9729 15.7514 27.8655 15.032 35.423 17.775C42.9805 20.5179 43.5944 25.3984 42.9567 27.4957C42.1629 29.1482 40.1785 32.8172 38.5913 34.2738C37.004 35.7304 37.6649 36.972 38.1938 37.4107C39.3235 38.1383 42.1024 38.5118 44.1809 34.1851Z" fill="#2D572C"/>
<path d="M44.1809 34.1851C46.2593 29.8585 56.8739 35.4752 61.9214 38.8244C63.7242 39.6904 65.7241 44.5341 59.3012 56.9807C52.8784 69.4273 45.7084 69.4957 42.9263 67.9741C39.9997 66.7531 33.2885 63.7881 29.8561 61.6955C26.4238 59.6029 29.9665 54.5374 32.1669 52.2663C27.601 46.3749 18.0874 33.0775 16.5604 27.0186C15.0334 20.9596 18.1981 17.451 19.9713 16.454C21.9729 15.7514 27.8655 15.032 35.423 17.775C42.9805 20.5179 43.5944 25.3984 42.9567 27.4957C42.1629 29.1482 40.1785 32.8172 38.5913 34.2738C37.004 35.7304 37.6649 36.972 38.1938 37.4107C39.3235 38.1383 42.1024 38.5118 44.1809 34.1851Z" stroke="#2D572C"/>
</g>
<path d="M47.0019 56.3906L50.0019 40.8906H53.5019L58.5019 56.3906H47.0019Z" fill="#74371A" stroke="#3F1A0B"/>
<path d="M38.809 30.201C35.3983 5.73039 51.7416 9.36959 60.3396 14.248C65.4886 16.4349 64.7761 23.6003 63.7763 26.9096C50.2187 53.179 41.4824 40.0495 38.809 30.201Z" fill="#FED2AA" stroke="#DE7C23"/>
<path d="M26.0031 28.8906L28.0901 17.8906H30.5248L34.0031 28.8906H26.0031Z" fill="#74371A" stroke="#3F1A0B"/>
<path d="M26.1477 18.6495C15.5058 11.3342 23.078 5.44124 28.1943 3.40919C30.9775 1.92756 33.4464 4.82389 34.333 6.45726C39.2446 21.9008 30.9227 21.0203 26.1477 18.6495Z" fill="#FED2AA" stroke="#DE7C23"/>
<path d="M25.0031 61.3906L28.0031 45.8906H31.5031L36.5031 61.3906H25.0031Z" fill="#74371A" stroke="#3F1A0B"/>
<path d="M25.3231 49.0355C10.5165 38.8574 21.052 30.6583 28.1705 27.831C32.0428 25.7696 35.4779 29.7994 36.7114 32.0719C43.5452 53.5591 31.9666 52.334 25.3231 49.0355Z" fill="#FED2AA" stroke="#DE7C23"/>
<defs>
<filter id="filter0_f_5429_63284" x="0.655701" y="0.312256" width="78.5446" height="83.8368" filterUnits="userSpaceOnUse" color-interpolation-filters="sRGB">
<feFlood flood-opacity="0" result="BackgroundImageFix"/>
<feBlend mode="normal" in="SourceGraphic" in2="BackgroundImageFix" result="shape"/>
<feGaussianBlur stdDeviation="7.5" result="effect1_foregroundBlur_5429_63284"/>
</filter>
</defs>
</svg>
