<svg width="113" height="81" viewBox="0 0 113 81" fill="none" xmlns="http://www.w3.org/2000/svg">
<g filter="url(#filter0_f_5429_63292)">
<path d="M55.1483 46.9734C56.9842 50.7702 42.8342 57.1569 35.5296 59.8756C33.201 61.0016 27.3215 60.4286 22.4324 49.1291C17.5432 37.8295 23.8225 31.703 27.5732 30.0522C31.1964 28.1376 39.6454 23.8245 44.4556 21.889C49.2658 19.9534 50.4346 25.3416 50.4177 28.2776C59.4547 27.161 79.1519 25.3142 85.6451 26.8593C92.1383 28.4044 92.3197 32.7407 91.5987 34.7157C90.426 36.7467 85.8284 42.0928 76.82 47.2295C67.8116 52.3662 63.1259 50.598 61.9091 49.0718C61.2079 47.6217 59.8471 44.2133 60.0135 42.1807C60.1799 40.1481 58.5417 40.1273 57.7019 40.3709C56.0857 40.9897 53.3124 43.1766 55.1483 46.9734Z" fill="#2D572C"/>
<path d="M55.1483 46.9734C56.9842 50.7702 42.8342 57.1569 35.5296 59.8756C33.201 61.0016 27.3215 60.4286 22.4324 49.1291C17.5432 37.8295 23.8225 31.703 27.5732 30.0522C31.1964 28.1376 39.6454 23.8245 44.4556 21.889C49.2658 19.9534 50.4346 25.3416 50.4177 28.2776C59.4547 27.161 79.1519 25.3142 85.6451 26.8593C92.1383 28.4044 92.3197 32.7407 91.5987 34.7157C90.426 36.7467 85.8284 42.0928 76.82 47.2295C67.8116 52.3662 63.1259 50.598 61.9091 49.0718C61.2079 47.6217 59.8471 44.2133 60.0135 42.1807C60.1799 40.1481 58.5417 40.1273 57.7019 40.3709C56.0857 40.9897 53.3124 43.1766 55.1483 46.9734Z" stroke="#2D572C"/>
</g>
<path d="M37.9988 53.5L40.9988 38H44.4988L49.4988 53.5H37.9988Z" fill="#74371A" stroke="#3F1A0B"/>
<path d="M34.0324 27.201C30.6218 2.73039 46.9651 6.36959 55.5631 11.248C60.712 13.4349 59.9996 20.6003 58.9998 23.9096C45.4422 50.179 36.7059 37.0495 34.0324 27.201Z" fill="#FED2AA" stroke="#DE7C23"/>
<path d="M19.375 45.5352L20.9402 36.5352H22.7663L25.375 45.5352H19.375Z" fill="#74371A" stroke="#3F1A0B"/>
<path d="M20.379 37.6495C9.73708 30.3342 17.3092 24.4412 22.4256 22.4092C25.2088 20.9276 27.6777 23.8239 28.5642 25.4573C33.4759 40.9008 25.154 40.0203 20.379 37.6495Z" fill="#FED2AA" stroke="#DE7C23"/>
<path d="M83 44L85.087 33H87.5217L91 44H83Z" fill="#74371A" stroke="#3F1A0B"/>
<path d="M81.484 31.7738C66.6775 21.5956 77.2129 13.3966 84.3314 10.5693C88.2038 8.50788 91.6389 12.5376 92.8724 14.8102C99.7062 36.2974 88.1276 35.0722 81.484 31.7738Z" fill="#FED2AA" stroke="#DE7C23"/>
<defs>
<filter id="filter0_f_5429_63292" x="0.143013" y="0.979004" width="112.244" height="79.7977" filterUnits="userSpaceOnUse" color-interpolation-filters="sRGB">
<feFlood flood-opacity="0" result="BackgroundImageFix"/>
<feBlend mode="normal" in="SourceGraphic" in2="BackgroundImageFix" result="shape"/>
<feGaussianBlur stdDeviation="10" result="effect1_foregroundBlur_5429_63292"/>
</filter>
</defs>
</svg>
