<svg width="520" height="389" viewBox="0 0 520 389" fill="none" xmlns="http://www.w3.org/2000/svg">
<path d="M250.08 170.277H208.563H169.898H20.3437C14.8209 170.277 10.3438 174.754 10.3438 180.277V368.125C10.3438 373.648 14.8209 378.125 20.3438 378.125H279.362C284.885 378.125 289.362 373.648 289.362 368.125V201.696" stroke="#E3C558" stroke-width="20"/>
<path d="M323.789 171.089H499.343C504.866 171.089 509.343 166.612 509.343 161.089V20.957C509.343 15.4342 504.866 10.957 499.343 10.957H298.555C293.032 10.957 288.555 15.4342 288.555 20.957V140.195" stroke="#E3C558" stroke-width="20"/>
<path d="M330.743 170.255C330.743 193.712 311.575 212.728 287.93 212.728C264.285 212.728 245.117 193.712 245.117 170.255C245.117 146.797 264.285 127.781 287.93 127.781C311.575 127.781 330.743 146.797 330.743 170.255ZM262.9 170.255C262.9 183.969 274.106 195.086 287.93 195.086C301.754 195.086 312.961 183.969 312.961 170.255C312.961 156.54 301.754 145.423 287.93 145.423C274.106 145.423 262.9 156.54 262.9 170.255Z" fill="#E3C558"/>
<path d="M324.1 171.587C325.229 145.221 301.317 137.493 289.22 136.925C276.124 136.925 250.712 146.395 253.13 171.587C255.548 196.779 279.139 203.597 289.22 203.219C300.376 203.661 322.971 197.953 324.1 171.587Z" stroke="white" stroke-width="2" stroke-linecap="round" stroke-dasharray="10 10"/>
<path d="M20.8594 170.277H174.521H207.418H247.309" stroke="white" stroke-width="2" stroke-dasharray="10 10"/>
<path d="M10.3438 378.125H186.506H224.22H269.952" stroke="white" stroke-width="2" stroke-dasharray="10 10"/>
<path d="M289.359 129.843V10.1484" stroke="white" stroke-width="2" stroke-dasharray="10 10"/>
<path d="M332.227 170.28H510.151V10.1484" stroke="white" stroke-width="2" stroke-dasharray="10 10"/>
<path d="M287.742 225.273L287.742 378.127" stroke="white" stroke-width="2" stroke-dasharray="10 10"/>
<path d="M9.53125 378.125L10.34 193.731" stroke="white" stroke-width="2" stroke-dasharray="10 10"/>
<path d="M304.32 9.33984H493.567" stroke="white" stroke-width="2" stroke-dasharray="10 10"/>
</svg>
