<svg width="160" height="136" viewBox="0 0 160 136" fill="none" xmlns="http://www.w3.org/2000/svg">
<path fill-rule="evenodd" clip-rule="evenodd" d="M69.8857 1.45758C72.212 0.653225 74.75 1.88705 75.5543 4.21341L81.6636 21.8827C84.1675 29.1245 84.86 34.5989 82.7616 39.8474C81.7661 42.3373 80.2456 44.5083 78.5149 46.5962C77.1225 48.2758 75.4406 50.0774 73.6218 52.0255C73.2162 52.4599 72.8039 52.9016 72.3864 53.3508C62.984 63.469 53.3627 73.9975 49.682 78.0467C48.192 79.7941 45.7996 83.2177 43.7824 87.5369C41.7445 91.9007 40.2228 96.8946 40.2013 101.8C40.1535 112.707 42.8213 122.47 44.0597 125.745C44.9303 128.048 43.7696 130.62 41.4673 131.49C39.1649 132.361 36.5927 131.2 35.7221 128.898C34.1541 124.751 31.2343 113.907 31.2876 101.761C31.3166 95.1392 33.3369 88.8377 35.7059 83.7651C38.0779 78.6861 40.933 74.5544 42.9564 72.1963L42.9978 72.148L43.0406 72.1009C46.7032 68.0711 56.3878 57.4727 65.8567 47.283C66.3193 46.7852 66.7613 46.3115 67.1841 45.8584C68.9893 43.924 70.4436 42.3655 71.6523 40.9074C73.1162 39.1415 73.9827 37.7942 74.4848 36.5382C75.3817 34.2951 75.5116 31.368 73.2392 24.7956L67.1298 7.12623C66.3255 4.79988 67.5593 2.26194 69.8857 1.45758Z" fill="url(#paint0_linear_9123_29611)"/>
<path d="M66.6907 85.3617C36.7879 94.89 32.5516 121.589 34.1714 133.747C34.2756 134.707 35.3791 135.409 36.232 135.775C36.5934 135.93 36.9877 135.981 37.381 135.981H154.53C158.119 136.278 159.016 133.127 159.016 131.514V16.7114C159.016 16.3278 158.965 15.9418 158.837 15.5801C157.285 11.1831 154.353 12.5874 153.035 13.8999L146.339 21.5683C145.83 22.1505 145.164 22.5763 144.417 22.7745C132.612 25.9057 126.571 23.9034 125.001 22.4604L116.949 14.4425C116.589 14.084 116.167 13.7862 115.684 13.6265C112.701 12.6386 111.079 13.9843 110.387 15.275C110.099 15.8111 110.121 16.4345 110.204 17.0373C111.083 23.4273 109.503 39.2174 108.555 46.6532C107.06 55.586 96.5935 75.8335 66.6907 85.3617Z" fill="#E9BB17"/>
<path d="M59.4277 130.866V123.419C62.7788 123.419 62.7788 123.419 62.7788 120.441V105.547H69.1086C68.9845 109.394 69.1086 117.743 69.1086 120.441C69.1086 123.419 69.1086 123.419 72.0874 123.419V130.866H59.4277Z" fill="#FEFCFF"/>
<path d="M75.0664 130.861V123.414C78.4175 123.414 78.4175 123.414 78.4175 120.129V104.797H84.7473C84.6232 108.758 84.7473 117.352 84.7473 120.129C84.7473 123.414 84.7473 123.414 87.726 123.414V130.861H75.0664Z" fill="#FEFCFF"/>
<path d="M121.98 130.861V122.669C124.661 122.669 125.332 122.669 125.332 120.129V104.797H131.661C131.537 108.758 131.661 117.353 131.661 120.129C131.661 123.042 131.661 122.669 134.64 122.669V130.861H121.98Z" fill="#FEFCFF"/>
<path d="M103.363 130.861H90.7031V123.414C94.0542 123.414 94.0542 123.786 94.0542 121.021V104.797H103.363V130.861Z" fill="#FEFCFF"/>
<path d="M151.023 130.861H138.363V122.669C142.087 122.669 141.714 122.669 141.714 120.563V104.797H151.023V130.861Z" fill="#FEFCFF"/>
<path d="M106.342 130.861H119.002V122.669C115.651 122.669 115.651 122.669 115.651 120.563V104.797H106.342V130.861Z" fill="#FEFCFF"/>
<path d="M55.704 130.86V123.413C52.3529 123.413 52.3529 123.041 52.3529 120.075V108.52C46.3955 112.525 44.1614 125.082 43.7891 130.86H55.704Z" fill="#FEFCFF"/>
<circle cx="125.126" cy="38.9539" r="9.55936" fill="white"/>
<circle cx="144.243" cy="38.9539" r="9.55936" fill="white"/>
<path d="M129.421 39.8262C129.768 39.8262 130.054 40.1089 130.01 40.4533C129.959 40.8464 129.862 41.2318 129.719 41.5999C129.501 42.1622 129.181 42.6732 128.777 43.1036C128.374 43.534 127.895 43.8754 127.367 44.1083C126.84 44.3412 126.275 44.4611 125.705 44.4611C125.134 44.4611 124.569 44.3412 124.042 44.1083C123.515 43.8754 123.036 43.534 122.632 43.1036C122.229 42.6732 121.908 42.1622 121.69 41.5999C121.547 41.2318 121.45 40.8464 121.399 40.4533C121.355 40.1089 121.641 39.8262 121.988 39.8262C122.335 39.8262 122.611 40.11 122.673 40.4517C122.712 40.6687 122.772 40.8814 122.852 41.0866C123.007 41.4862 123.235 41.8493 123.521 42.1551C123.808 42.4609 124.148 42.7035 124.523 42.869C124.898 43.0345 125.299 43.1197 125.705 43.1197C126.11 43.1197 126.512 43.0345 126.886 42.869C127.261 42.7035 127.601 42.4609 127.888 42.1551C128.175 41.8493 128.402 41.4862 128.557 41.0866C128.637 40.8814 128.697 40.6687 128.736 40.4517C128.798 40.11 129.074 39.8262 129.421 39.8262Z" fill="#292626"/>
<path d="M148.538 39.8262C148.885 39.8262 149.171 40.1089 149.127 40.4533C149.077 40.8464 148.979 41.2318 148.836 41.5999C148.618 42.1622 148.298 42.6732 147.894 43.1036C147.491 43.534 147.012 43.8754 146.485 44.1083C145.957 44.3412 145.392 44.4611 144.822 44.4611C144.251 44.4611 143.686 44.3412 143.159 44.1083C142.632 43.8754 142.153 43.534 141.749 43.1036C141.346 42.6732 141.026 42.1622 140.807 41.5999C140.664 41.2318 140.567 40.8464 140.517 40.4533C140.472 40.1089 140.758 39.8262 141.105 39.8262C141.453 39.8262 141.728 40.11 141.79 40.4517C141.83 40.6687 141.889 40.8814 141.969 41.0866C142.124 41.4862 142.352 41.8493 142.638 42.1551C142.925 42.4609 143.266 42.7035 143.64 42.869C144.015 43.0345 144.416 43.1197 144.822 43.1197C145.227 43.1197 145.629 43.0345 146.003 42.869C146.378 42.7035 146.718 42.4609 147.005 42.1551C147.292 41.8493 147.519 41.4862 147.674 41.0866C147.754 40.8814 147.814 40.6687 147.853 40.4517C147.915 40.11 148.191 39.8262 148.538 39.8262Z" fill="#292626"/>
<path d="M131.354 52.1328C132.609 53.4846 135.815 55.3772 138.595 52.1328" stroke="black" stroke-linecap="round"/>
<path d="M112.476 13.8945C111.8 18.4328 112.128 26.988 118.848 24.9023C125.569 22.8166 117.4 16.6947 112.476 13.8945Z" fill="#6F219E"/>
<path d="M157.047 13.3345C158.058 17.8099 158.368 26.3657 151.511 24.786C144.654 23.2063 152.344 16.4935 157.047 13.3345Z" fill="#6F219E"/>
<defs>
<linearGradient id="paint0_linear_9123_29611" x1="37.721" y1="127.522" x2="41.1647" y2="35.0734" gradientUnits="userSpaceOnUse">
<stop stop-color="#E9BB17"/>
<stop offset="0.0001" stop-color="#CCA20F"/>
<stop offset="1" stop-color="#E9BB17"/>
</linearGradient>
</defs>
</svg>
