<svg width="1112" height="88" viewBox="0 0 1112 88" fill="none" xmlns="http://www.w3.org/2000/svg">
<path d="M0 12C0 5.37258 5.37258 0 12 0H1100C1106.63 0 1112 5.37258 1112 12V76C1112 82.6274 1106.63 88 1100 88H12C5.37258 88 0 82.6274 0 76V12Z" fill="#ECD6FE"/>
<rect x="24" y="28" width="92" height="32" rx="12" fill="#D8BCFD"/>
<path d="M48.6484 47.1719V49H42.5938V47.1719H48.6484ZM43.3594 37.625V49H41.0156V37.625H43.3594ZM47.8594 42.2578V44.0391H42.5938V42.2578H47.8594ZM48.6406 37.625V39.4609H42.5938V37.625H48.6406ZM54.3125 43.2344V45H49.8984V43.2344H54.3125ZM56.1875 37H58.4375V47.0625L58.2109 49H56.1875V37ZM63.7891 44.6875V44.8516C63.7891 45.4818 63.7214 46.0599 63.5859 46.5859C63.4557 47.112 63.2526 47.5677 62.9766 47.9531C62.7005 48.3333 62.3568 48.6302 61.9453 48.8438C61.5391 49.0521 61.0599 49.1562 60.5078 49.1562C59.9922 49.1562 59.5443 49.0521 59.1641 48.8438C58.7891 48.6354 58.474 48.3411 58.2188 47.9609C57.9635 47.5807 57.7578 47.1354 57.6016 46.625C57.4453 46.1146 57.3281 45.5573 57.25 44.9531V44.5938C57.3281 43.9896 57.4453 43.4323 57.6016 42.9219C57.7578 42.4115 57.9635 41.9661 58.2188 41.5859C58.474 41.2057 58.7891 40.9115 59.1641 40.7031C59.5391 40.4948 59.9818 40.3906 60.4922 40.3906C61.0495 40.3906 61.5339 40.4974 61.9453 40.7109C62.362 40.9193 62.7057 41.2161 62.9766 41.6016C63.2526 41.9818 63.4557 42.4349 63.5859 42.9609C63.7214 43.4818 63.7891 44.0573 63.7891 44.6875ZM61.5391 44.8516V44.6875C61.5391 44.3438 61.513 44.0208 61.4609 43.7188C61.4141 43.4115 61.3307 43.1432 61.2109 42.9141C61.0911 42.6797 60.9271 42.4948 60.7188 42.3594C60.5156 42.224 60.2526 42.1562 59.9297 42.1562C59.6224 42.1562 59.362 42.2083 59.1484 42.3125C58.9349 42.4167 58.7578 42.5625 58.6172 42.75C58.4818 42.9375 58.3802 43.1615 58.3125 43.4219C58.2448 43.6771 58.2031 43.9583 58.1875 44.2656V45.2891C58.2031 45.7005 58.2708 46.0651 58.3906 46.3828C58.5156 46.6953 58.7031 46.9427 58.9531 47.125C59.2083 47.3021 59.5391 47.3906 59.9453 47.3906C60.263 47.3906 60.526 47.3281 60.7344 47.2031C60.9427 47.0781 61.1042 46.901 61.2188 46.6719C61.3385 46.4427 61.4219 46.1745 61.4688 45.8672C61.5156 45.5547 61.5391 45.2161 61.5391 44.8516ZM64.8281 44.8594V44.6953C64.8281 44.0755 64.9167 43.5052 65.0938 42.9844C65.2708 42.4583 65.5286 42.0026 65.8672 41.6172C66.2057 41.2318 66.6224 40.9323 67.1172 40.7188C67.612 40.5 68.1797 40.3906 68.8203 40.3906C69.4609 40.3906 70.0312 40.5 70.5312 40.7188C71.0312 40.9323 71.4505 41.2318 71.7891 41.6172C72.1328 42.0026 72.3932 42.4583 72.5703 42.9844C72.7474 43.5052 72.8359 44.0755 72.8359 44.6953V44.8594C72.8359 45.474 72.7474 46.0443 72.5703 46.5703C72.3932 47.0911 72.1328 47.5469 71.7891 47.9375C71.4505 48.3229 71.0339 48.6224 70.5391 48.8359C70.0443 49.0495 69.4766 49.1562 68.8359 49.1562C68.1953 49.1562 67.625 49.0495 67.125 48.8359C66.6302 48.6224 66.2109 48.3229 65.8672 47.9375C65.5286 47.5469 65.2708 47.0911 65.0938 46.5703C64.9167 46.0443 64.8281 45.474 64.8281 44.8594ZM67.0781 44.6953V44.8594C67.0781 45.2135 67.1094 45.5443 67.1719 45.8516C67.2344 46.1589 67.3333 46.4297 67.4688 46.6641C67.6094 46.8932 67.7917 47.0729 68.0156 47.2031C68.2396 47.3333 68.513 47.3984 68.8359 47.3984C69.1484 47.3984 69.4167 47.3333 69.6406 47.2031C69.8646 47.0729 70.0443 46.8932 70.1797 46.6641C70.3151 46.4297 70.4141 46.1589 70.4766 45.8516C70.5443 45.5443 70.5781 45.2135 70.5781 44.8594V44.6953C70.5781 44.3516 70.5443 44.0286 70.4766 43.7266C70.4141 43.4193 70.3125 43.1484 70.1719 42.9141C70.0365 42.6745 69.8568 42.487 69.6328 42.3516C69.4089 42.2161 69.138 42.1484 68.8203 42.1484C68.5026 42.1484 68.2318 42.2161 68.0078 42.3516C67.7891 42.487 67.6094 42.6745 67.4688 42.9141C67.3333 43.1484 67.2344 43.4193 67.1719 43.7266C67.1094 44.0286 67.0781 44.3516 67.0781 44.6953ZM73.8594 44.8594V44.6953C73.8594 44.0755 73.9479 43.5052 74.125 42.9844C74.3021 42.4583 74.5599 42.0026 74.8984 41.6172C75.237 41.2318 75.6536 40.9323 76.1484 40.7188C76.6432 40.5 77.2109 40.3906 77.8516 40.3906C78.4922 40.3906 79.0625 40.5 79.5625 40.7188C80.0625 40.9323 80.4818 41.2318 80.8203 41.6172C81.1641 42.0026 81.4245 42.4583 81.6016 42.9844C81.7786 43.5052 81.8672 44.0755 81.8672 44.6953V44.8594C81.8672 45.474 81.7786 46.0443 81.6016 46.5703C81.4245 47.0911 81.1641 47.5469 80.8203 47.9375C80.4818 48.3229 80.0651 48.6224 79.5703 48.8359C79.0755 49.0495 78.5078 49.1562 77.8672 49.1562C77.2266 49.1562 76.6562 49.0495 76.1562 48.8359C75.6615 48.6224 75.2422 48.3229 74.8984 47.9375C74.5599 47.5469 74.3021 47.0911 74.125 46.5703C73.9479 46.0443 73.8594 45.474 73.8594 44.8594ZM76.1094 44.6953V44.8594C76.1094 45.2135 76.1406 45.5443 76.2031 45.8516C76.2656 46.1589 76.3646 46.4297 76.5 46.6641C76.6406 46.8932 76.8229 47.0729 77.0469 47.2031C77.2708 47.3333 77.5443 47.3984 77.8672 47.3984C78.1797 47.3984 78.4479 47.3333 78.6719 47.2031C78.8958 47.0729 79.0755 46.8932 79.2109 46.6641C79.3464 46.4297 79.4453 46.1589 79.5078 45.8516C79.5755 45.5443 79.6094 45.2135 79.6094 44.8594V44.6953C79.6094 44.3516 79.5755 44.0286 79.5078 43.7266C79.4453 43.4193 79.3438 43.1484 79.2031 42.9141C79.0677 42.6745 78.888 42.487 78.6641 42.3516C78.4401 42.2161 78.1693 42.1484 77.8516 42.1484C77.5339 42.1484 77.263 42.2161 77.0391 42.3516C76.8203 42.487 76.6406 42.6745 76.5 42.9141C76.3646 43.1484 76.2656 43.4193 76.2031 43.7266C76.1406 44.0286 76.1094 44.3516 76.1094 44.6953ZM85.5 36.9922V49H83.25V36.9922H85.5ZM90.8281 40.5469L87.1562 44.7344L85.1875 46.7266L84.3672 45.1016L85.9297 43.1172L88.125 40.5469H90.8281ZM88.4922 49L85.9922 45.0938L87.5469 43.7344L91.0859 49H88.4922ZM96.3672 46.6641C96.3672 46.5026 96.3203 46.3568 96.2266 46.2266C96.1328 46.0964 95.9583 45.9766 95.7031 45.8672C95.4531 45.7526 95.0911 45.6484 94.6172 45.5547C94.1901 45.4609 93.7917 45.3438 93.4219 45.2031C93.0573 45.0573 92.7396 44.8828 92.4688 44.6797C92.2031 44.4766 91.9948 44.237 91.8438 43.9609C91.6927 43.6797 91.6172 43.3594 91.6172 43C91.6172 42.6458 91.6927 42.3125 91.8438 42C92 41.6875 92.2214 41.4115 92.5078 41.1719C92.7995 40.9271 93.1536 40.737 93.5703 40.6016C93.9922 40.4609 94.4661 40.3906 94.9922 40.3906C95.7266 40.3906 96.3568 40.5078 96.8828 40.7422C97.4141 40.9766 97.8203 41.2995 98.1016 41.7109C98.388 42.1172 98.5312 42.5807 98.5312 43.1016H96.2812C96.2812 42.8828 96.2344 42.6875 96.1406 42.5156C96.0521 42.3385 95.9115 42.2005 95.7188 42.1016C95.5312 41.9974 95.2865 41.9453 94.9844 41.9453C94.7344 41.9453 94.5182 41.9896 94.3359 42.0781C94.1536 42.1615 94.013 42.276 93.9141 42.4219C93.8203 42.5625 93.7734 42.7188 93.7734 42.8906C93.7734 43.0208 93.7995 43.138 93.8516 43.2422C93.9089 43.3411 94 43.4323 94.125 43.5156C94.25 43.599 94.4115 43.6771 94.6094 43.75C94.8125 43.8177 95.0625 43.8802 95.3594 43.9375C95.9688 44.0625 96.513 44.2266 96.9922 44.4297C97.4714 44.6276 97.8516 44.8984 98.1328 45.2422C98.4141 45.5807 98.5547 46.026 98.5547 46.5781C98.5547 46.9531 98.4714 47.2969 98.3047 47.6094C98.138 47.9219 97.8984 48.1953 97.5859 48.4297C97.2734 48.6589 96.8984 48.8385 96.4609 48.9688C96.0286 49.0938 95.5417 49.1562 95 49.1562C94.2135 49.1562 93.5469 49.0156 93 48.7344C92.4583 48.4531 92.0469 48.0964 91.7656 47.6641C91.4896 47.2266 91.3516 46.7786 91.3516 46.3203H93.4844C93.4948 46.6276 93.5729 46.875 93.7188 47.0625C93.8698 47.25 94.0599 47.3854 94.2891 47.4688C94.5234 47.5521 94.776 47.5938 95.0469 47.5938C95.3385 47.5938 95.5807 47.5547 95.7734 47.4766C95.9661 47.3932 96.112 47.2839 96.2109 47.1484C96.3151 47.0078 96.3672 46.8464 96.3672 46.6641Z" fill="#6F219E"/>
<path d="M160.992 47.2734L164.344 37.625H165.977L161.766 49H160.602L160.992 47.2734ZM157.859 37.625L161.18 47.2734L161.594 49H160.43L156.227 37.625H157.859ZM168.859 40.5469V49H167.406V40.5469H168.859ZM167.297 38.3047C167.297 38.0703 167.367 37.8724 167.508 37.7109C167.654 37.5495 167.867 37.4688 168.148 37.4688C168.424 37.4688 168.635 37.5495 168.781 37.7109C168.932 37.8724 169.008 38.0703 169.008 38.3047C169.008 38.5286 168.932 38.7214 168.781 38.8828C168.635 39.0391 168.424 39.1172 168.148 39.1172C167.867 39.1172 167.654 39.0391 167.508 38.8828C167.367 38.7214 167.297 38.5286 167.297 38.3047ZM176.508 47.3594V37H177.961V49H176.633L176.508 47.3594ZM170.82 44.8672V44.7031C170.82 44.0573 170.898 43.4714 171.055 42.9453C171.216 42.4141 171.443 41.9583 171.734 41.5781C172.031 41.1979 172.383 40.9062 172.789 40.7031C173.201 40.4948 173.659 40.3906 174.164 40.3906C174.695 40.3906 175.159 40.4844 175.555 40.6719C175.956 40.8542 176.294 41.1224 176.57 41.4766C176.852 41.8255 177.073 42.2474 177.234 42.7422C177.396 43.237 177.508 43.7969 177.57 44.4219V45.1406C177.513 45.7604 177.401 46.3177 177.234 46.8125C177.073 47.3073 176.852 47.7292 176.57 48.0781C176.294 48.4271 175.956 48.6953 175.555 48.8828C175.154 49.0651 174.685 49.1562 174.148 49.1562C173.654 49.1562 173.201 49.0495 172.789 48.8359C172.383 48.6224 172.031 48.3229 171.734 47.9375C171.443 47.5521 171.216 47.099 171.055 46.5781C170.898 46.0521 170.82 45.4818 170.82 44.8672ZM172.273 44.7031V44.8672C172.273 45.2891 172.315 45.6849 172.398 46.0547C172.487 46.4245 172.622 46.75 172.805 47.0312C172.987 47.3125 173.219 47.5339 173.5 47.6953C173.781 47.8516 174.117 47.9297 174.508 47.9297C174.987 47.9297 175.38 47.8281 175.688 47.625C176 47.4219 176.25 47.1536 176.438 46.8203C176.625 46.487 176.771 46.125 176.875 45.7344V43.8516C176.812 43.5651 176.721 43.2891 176.602 43.0234C176.487 42.7526 176.336 42.513 176.148 42.3047C175.966 42.0911 175.74 41.9219 175.469 41.7969C175.203 41.6719 174.888 41.6094 174.523 41.6094C174.128 41.6094 173.786 41.6927 173.5 41.8594C173.219 42.0208 172.987 42.2448 172.805 42.5312C172.622 42.8125 172.487 43.1406 172.398 43.5156C172.315 43.8854 172.273 44.2812 172.273 44.7031ZM183.719 49.1562C183.13 49.1562 182.596 49.0573 182.117 48.8594C181.643 48.6562 181.234 48.3724 180.891 48.0078C180.552 47.6432 180.292 47.2109 180.109 46.7109C179.927 46.2109 179.836 45.6641 179.836 45.0703V44.7422C179.836 44.0547 179.938 43.4427 180.141 42.9062C180.344 42.3646 180.62 41.9062 180.969 41.5312C181.318 41.1562 181.714 40.8724 182.156 40.6797C182.599 40.487 183.057 40.3906 183.531 40.3906C184.135 40.3906 184.656 40.4948 185.094 40.7031C185.536 40.9115 185.898 41.2031 186.18 41.5781C186.461 41.9479 186.669 42.3854 186.805 42.8906C186.94 43.3906 187.008 43.9375 187.008 44.5312V45.1797H180.695V44H185.562V43.8906C185.542 43.5156 185.464 43.151 185.328 42.7969C185.198 42.4427 184.99 42.151 184.703 41.9219C184.417 41.6927 184.026 41.5781 183.531 41.5781C183.203 41.5781 182.901 41.6484 182.625 41.7891C182.349 41.9245 182.112 42.1276 181.914 42.3984C181.716 42.6693 181.562 43 181.453 43.3906C181.344 43.7812 181.289 44.2318 181.289 44.7422V45.0703C181.289 45.4714 181.344 45.849 181.453 46.2031C181.568 46.5521 181.732 46.8594 181.945 47.125C182.164 47.3906 182.427 47.599 182.734 47.75C183.047 47.901 183.401 47.9766 183.797 47.9766C184.307 47.9766 184.74 47.8724 185.094 47.6641C185.448 47.4557 185.758 47.1771 186.023 46.8281L186.898 47.5234C186.716 47.7995 186.484 48.0625 186.203 48.3125C185.922 48.5625 185.576 48.7656 185.164 48.9219C184.758 49.0781 184.276 49.1562 183.719 49.1562ZM188.312 44.8672V44.6875C188.312 44.0781 188.401 43.513 188.578 42.9922C188.755 42.4661 189.01 42.0104 189.344 41.625C189.677 41.2344 190.081 40.9323 190.555 40.7188C191.029 40.5 191.56 40.3906 192.148 40.3906C192.742 40.3906 193.276 40.5 193.75 40.7188C194.229 40.9323 194.635 41.2344 194.969 41.625C195.307 42.0104 195.565 42.4661 195.742 42.9922C195.919 43.513 196.008 44.0781 196.008 44.6875V44.8672C196.008 45.4766 195.919 46.0417 195.742 46.5625C195.565 47.0833 195.307 47.5391 194.969 47.9297C194.635 48.3151 194.232 48.6172 193.758 48.8359C193.289 49.0495 192.758 49.1562 192.164 49.1562C191.57 49.1562 191.036 49.0495 190.562 48.8359C190.089 48.6172 189.682 48.3151 189.344 47.9297C189.01 47.5391 188.755 47.0833 188.578 46.5625C188.401 46.0417 188.312 45.4766 188.312 44.8672ZM189.758 44.6875V44.8672C189.758 45.2891 189.807 45.6875 189.906 46.0625C190.005 46.4323 190.154 46.7604 190.352 47.0469C190.555 47.3333 190.807 47.5599 191.109 47.7266C191.411 47.888 191.763 47.9688 192.164 47.9688C192.56 47.9688 192.906 47.888 193.203 47.7266C193.505 47.5599 193.755 47.3333 193.953 47.0469C194.151 46.7604 194.299 46.4323 194.398 46.0625C194.503 45.6875 194.555 45.2891 194.555 44.8672V44.6875C194.555 44.2708 194.503 43.8776 194.398 43.5078C194.299 43.1328 194.148 42.8021 193.945 42.5156C193.747 42.224 193.497 41.9948 193.195 41.8281C192.898 41.6615 192.549 41.5781 192.148 41.5781C191.753 41.5781 191.404 41.6615 191.102 41.8281C190.805 41.9948 190.555 42.224 190.352 42.5156C190.154 42.8021 190.005 43.1328 189.906 43.5078C189.807 43.8776 189.758 44.2708 189.758 44.6875ZM202.742 46.7578C202.742 46.5495 202.695 46.3568 202.602 46.1797C202.513 45.9974 202.328 45.8333 202.047 45.6875C201.771 45.5365 201.354 45.4062 200.797 45.2969C200.328 45.1979 199.904 45.0807 199.523 44.9453C199.148 44.8099 198.828 44.6458 198.562 44.4531C198.302 44.2604 198.102 44.0339 197.961 43.7734C197.82 43.513 197.75 43.2083 197.75 42.8594C197.75 42.526 197.823 42.2109 197.969 41.9141C198.12 41.6172 198.331 41.3542 198.602 41.125C198.878 40.8958 199.208 40.7161 199.594 40.5859C199.979 40.4557 200.409 40.3906 200.883 40.3906C201.56 40.3906 202.138 40.5104 202.617 40.75C203.096 40.9896 203.464 41.3099 203.719 41.7109C203.974 42.1068 204.102 42.5469 204.102 43.0312H202.656C202.656 42.7969 202.586 42.5703 202.445 42.3516C202.31 42.1276 202.109 41.9427 201.844 41.7969C201.583 41.651 201.263 41.5781 200.883 41.5781C200.482 41.5781 200.156 41.6406 199.906 41.7656C199.661 41.8854 199.482 42.0391 199.367 42.2266C199.258 42.4141 199.203 42.612 199.203 42.8203C199.203 42.9766 199.229 43.1172 199.281 43.2422C199.339 43.362 199.438 43.474 199.578 43.5781C199.719 43.6771 199.917 43.7708 200.172 43.8594C200.427 43.9479 200.753 44.0365 201.148 44.125C201.841 44.2812 202.411 44.4688 202.859 44.6875C203.307 44.9062 203.641 45.1745 203.859 45.4922C204.078 45.8099 204.188 46.1953 204.188 46.6484C204.188 47.0182 204.109 47.3568 203.953 47.6641C203.802 47.9714 203.581 48.237 203.289 48.4609C203.003 48.6797 202.659 48.8516 202.258 48.9766C201.862 49.0964 201.417 49.1562 200.922 49.1562C200.177 49.1562 199.547 49.0234 199.031 48.7578C198.516 48.4922 198.125 48.1484 197.859 47.7266C197.594 47.3047 197.461 46.8594 197.461 46.3906H198.914C198.935 46.7865 199.049 47.1016 199.258 47.3359C199.466 47.5651 199.721 47.7292 200.023 47.8281C200.326 47.9219 200.625 47.9688 200.922 47.9688C201.318 47.9688 201.648 47.9167 201.914 47.8125C202.185 47.7083 202.391 47.5651 202.531 47.3828C202.672 47.2005 202.742 46.9922 202.742 46.7578Z" fill="#3F3B3C"/>
<path d="M269.219 47.7734V49H263.531V47.7734H269.219ZM263.828 37.625V49H262.32V37.625H263.828ZM272.297 40.5469V49H270.844V40.5469H272.297ZM270.734 38.3047C270.734 38.0703 270.805 37.8724 270.945 37.7109C271.091 37.5495 271.305 37.4688 271.586 37.4688C271.862 37.4688 272.073 37.5495 272.219 37.7109C272.37 37.8724 272.445 38.0703 272.445 38.3047C272.445 38.5286 272.37 38.7214 272.219 38.8828C272.073 39.0391 271.862 39.1172 271.586 39.1172C271.305 39.1172 271.091 39.0391 270.945 38.8828C270.805 38.7214 270.734 38.5286 270.734 38.3047ZM277.188 47.6953L279.5 40.5469H280.977L277.938 49H276.969L277.188 47.6953ZM275.258 40.5469L277.641 47.7344L277.805 49H276.836L273.773 40.5469H275.258ZM285.766 49.1562C285.177 49.1562 284.643 49.0573 284.164 48.8594C283.69 48.6562 283.281 48.3724 282.938 48.0078C282.599 47.6432 282.339 47.2109 282.156 46.7109C281.974 46.2109 281.883 45.6641 281.883 45.0703V44.7422C281.883 44.0547 281.984 43.4427 282.188 42.9062C282.391 42.3646 282.667 41.9062 283.016 41.5312C283.365 41.1562 283.76 40.8724 284.203 40.6797C284.646 40.487 285.104 40.3906 285.578 40.3906C286.182 40.3906 286.703 40.4948 287.141 40.7031C287.583 40.9115 287.945 41.2031 288.227 41.5781C288.508 41.9479 288.716 42.3854 288.852 42.8906C288.987 43.3906 289.055 43.9375 289.055 44.5312V45.1797H282.742V44H287.609V43.8906C287.589 43.5156 287.51 43.151 287.375 42.7969C287.245 42.4427 287.036 42.151 286.75 41.9219C286.464 41.6927 286.073 41.5781 285.578 41.5781C285.25 41.5781 284.948 41.6484 284.672 41.7891C284.396 41.9245 284.159 42.1276 283.961 42.3984C283.763 42.6693 283.609 43 283.5 43.3906C283.391 43.7812 283.336 44.2318 283.336 44.7422V45.0703C283.336 45.4714 283.391 45.849 283.5 46.2031C283.615 46.5521 283.779 46.8594 283.992 47.125C284.211 47.3906 284.474 47.599 284.781 47.75C285.094 47.901 285.448 47.9766 285.844 47.9766C286.354 47.9766 286.786 47.8724 287.141 47.6641C287.495 47.4557 287.805 47.1771 288.07 46.8281L288.945 47.5234C288.763 47.7995 288.531 48.0625 288.25 48.3125C287.969 48.5625 287.622 48.7656 287.211 48.9219C286.805 49.0781 286.323 49.1562 285.766 49.1562ZM299.633 46.7578C299.633 46.5495 299.586 46.3568 299.492 46.1797C299.404 45.9974 299.219 45.8333 298.938 45.6875C298.661 45.5365 298.245 45.4062 297.688 45.2969C297.219 45.1979 296.794 45.0807 296.414 44.9453C296.039 44.8099 295.719 44.6458 295.453 44.4531C295.193 44.2604 294.992 44.0339 294.852 43.7734C294.711 43.513 294.641 43.2083 294.641 42.8594C294.641 42.526 294.714 42.2109 294.859 41.9141C295.01 41.6172 295.221 41.3542 295.492 41.125C295.768 40.8958 296.099 40.7161 296.484 40.5859C296.87 40.4557 297.299 40.3906 297.773 40.3906C298.451 40.3906 299.029 40.5104 299.508 40.75C299.987 40.9896 300.354 41.3099 300.609 41.7109C300.865 42.1068 300.992 42.5469 300.992 43.0312H299.547C299.547 42.7969 299.477 42.5703 299.336 42.3516C299.201 42.1276 299 41.9427 298.734 41.7969C298.474 41.651 298.154 41.5781 297.773 41.5781C297.372 41.5781 297.047 41.6406 296.797 41.7656C296.552 41.8854 296.372 42.0391 296.258 42.2266C296.148 42.4141 296.094 42.612 296.094 42.8203C296.094 42.9766 296.12 43.1172 296.172 43.2422C296.229 43.362 296.328 43.474 296.469 43.5781C296.609 43.6771 296.807 43.7708 297.062 43.8594C297.318 43.9479 297.643 44.0365 298.039 44.125C298.732 44.2812 299.302 44.4688 299.75 44.6875C300.198 44.9062 300.531 45.1745 300.75 45.4922C300.969 45.8099 301.078 46.1953 301.078 46.6484C301.078 47.0182 301 47.3568 300.844 47.6641C300.693 47.9714 300.471 48.237 300.18 48.4609C299.893 48.6797 299.549 48.8516 299.148 48.9766C298.753 49.0964 298.307 49.1562 297.812 49.1562C297.068 49.1562 296.438 49.0234 295.922 48.7578C295.406 48.4922 295.016 48.1484 294.75 47.7266C294.484 47.3047 294.352 46.8594 294.352 46.3906H295.805C295.826 46.7865 295.94 47.1016 296.148 47.3359C296.357 47.5651 296.612 47.7292 296.914 47.8281C297.216 47.9219 297.516 47.9688 297.812 47.9688C298.208 47.9688 298.539 47.9167 298.805 47.8125C299.076 47.7083 299.281 47.5651 299.422 47.3828C299.562 47.2005 299.633 46.9922 299.633 46.7578ZM306.484 49.1562C305.896 49.1562 305.362 49.0573 304.883 48.8594C304.409 48.6562 304 48.3724 303.656 48.0078C303.318 47.6432 303.057 47.2109 302.875 46.7109C302.693 46.2109 302.602 45.6641 302.602 45.0703V44.7422C302.602 44.0547 302.703 43.4427 302.906 42.9062C303.109 42.3646 303.385 41.9062 303.734 41.5312C304.083 41.1562 304.479 40.8724 304.922 40.6797C305.365 40.487 305.823 40.3906 306.297 40.3906C306.901 40.3906 307.422 40.4948 307.859 40.7031C308.302 40.9115 308.664 41.2031 308.945 41.5781C309.227 41.9479 309.435 42.3854 309.57 42.8906C309.706 43.3906 309.773 43.9375 309.773 44.5312V45.1797H303.461V44H308.328V43.8906C308.307 43.5156 308.229 43.151 308.094 42.7969C307.964 42.4427 307.755 42.151 307.469 41.9219C307.182 41.6927 306.792 41.5781 306.297 41.5781C305.969 41.5781 305.667 41.6484 305.391 41.7891C305.115 41.9245 304.878 42.1276 304.68 42.3984C304.482 42.6693 304.328 43 304.219 43.3906C304.109 43.7812 304.055 44.2318 304.055 44.7422V45.0703C304.055 45.4714 304.109 45.849 304.219 46.2031C304.333 46.5521 304.497 46.8594 304.711 47.125C304.93 47.3906 305.193 47.599 305.5 47.75C305.812 47.901 306.167 47.9766 306.562 47.9766C307.073 47.9766 307.505 47.8724 307.859 47.6641C308.214 47.4557 308.523 47.1771 308.789 46.8281L309.664 47.5234C309.482 47.7995 309.25 48.0625 308.969 48.3125C308.688 48.5625 308.341 48.7656 307.93 48.9219C307.523 49.0781 307.042 49.1562 306.484 49.1562ZM316.383 46.7578C316.383 46.5495 316.336 46.3568 316.242 46.1797C316.154 45.9974 315.969 45.8333 315.688 45.6875C315.411 45.5365 314.995 45.4062 314.438 45.2969C313.969 45.1979 313.544 45.0807 313.164 44.9453C312.789 44.8099 312.469 44.6458 312.203 44.4531C311.943 44.2604 311.742 44.0339 311.602 43.7734C311.461 43.513 311.391 43.2083 311.391 42.8594C311.391 42.526 311.464 42.2109 311.609 41.9141C311.76 41.6172 311.971 41.3542 312.242 41.125C312.518 40.8958 312.849 40.7161 313.234 40.5859C313.62 40.4557 314.049 40.3906 314.523 40.3906C315.201 40.3906 315.779 40.5104 316.258 40.75C316.737 40.9896 317.104 41.3099 317.359 41.7109C317.615 42.1068 317.742 42.5469 317.742 43.0312H316.297C316.297 42.7969 316.227 42.5703 316.086 42.3516C315.951 42.1276 315.75 41.9427 315.484 41.7969C315.224 41.651 314.904 41.5781 314.523 41.5781C314.122 41.5781 313.797 41.6406 313.547 41.7656C313.302 41.8854 313.122 42.0391 313.008 42.2266C312.898 42.4141 312.844 42.612 312.844 42.8203C312.844 42.9766 312.87 43.1172 312.922 43.2422C312.979 43.362 313.078 43.474 313.219 43.5781C313.359 43.6771 313.557 43.7708 313.812 43.8594C314.068 43.9479 314.393 44.0365 314.789 44.125C315.482 44.2812 316.052 44.4688 316.5 44.6875C316.948 44.9062 317.281 45.1745 317.5 45.4922C317.719 45.8099 317.828 46.1953 317.828 46.6484C317.828 47.0182 317.75 47.3568 317.594 47.6641C317.443 47.9714 317.221 48.237 316.93 48.4609C316.643 48.6797 316.299 48.8516 315.898 48.9766C315.503 49.0964 315.057 49.1562 314.562 49.1562C313.818 49.1562 313.188 49.0234 312.672 48.7578C312.156 48.4922 311.766 48.1484 311.5 47.7266C311.234 47.3047 311.102 46.8594 311.102 46.3906H312.555C312.576 46.7865 312.69 47.1016 312.898 47.3359C313.107 47.5651 313.362 47.7292 313.664 47.8281C313.966 47.9219 314.266 47.9688 314.562 47.9688C314.958 47.9688 315.289 47.9167 315.555 47.8125C315.826 47.7083 316.031 47.5651 316.172 47.3828C316.312 47.2005 316.383 46.9922 316.383 46.7578ZM324.648 46.7578C324.648 46.5495 324.602 46.3568 324.508 46.1797C324.419 45.9974 324.234 45.8333 323.953 45.6875C323.677 45.5365 323.26 45.4062 322.703 45.2969C322.234 45.1979 321.81 45.0807 321.43 44.9453C321.055 44.8099 320.734 44.6458 320.469 44.4531C320.208 44.2604 320.008 44.0339 319.867 43.7734C319.727 43.513 319.656 43.2083 319.656 42.8594C319.656 42.526 319.729 42.2109 319.875 41.9141C320.026 41.6172 320.237 41.3542 320.508 41.125C320.784 40.8958 321.115 40.7161 321.5 40.5859C321.885 40.4557 322.315 40.3906 322.789 40.3906C323.466 40.3906 324.044 40.5104 324.523 40.75C325.003 40.9896 325.37 41.3099 325.625 41.7109C325.88 42.1068 326.008 42.5469 326.008 43.0312H324.562C324.562 42.7969 324.492 42.5703 324.352 42.3516C324.216 42.1276 324.016 41.9427 323.75 41.7969C323.49 41.651 323.169 41.5781 322.789 41.5781C322.388 41.5781 322.062 41.6406 321.812 41.7656C321.568 41.8854 321.388 42.0391 321.273 42.2266C321.164 42.4141 321.109 42.612 321.109 42.8203C321.109 42.9766 321.135 43.1172 321.188 43.2422C321.245 43.362 321.344 43.474 321.484 43.5781C321.625 43.6771 321.823 43.7708 322.078 43.8594C322.333 43.9479 322.659 44.0365 323.055 44.125C323.747 44.2812 324.318 44.4688 324.766 44.6875C325.214 44.9062 325.547 45.1745 325.766 45.4922C325.984 45.8099 326.094 46.1953 326.094 46.6484C326.094 47.0182 326.016 47.3568 325.859 47.6641C325.708 47.9714 325.487 48.237 325.195 48.4609C324.909 48.6797 324.565 48.8516 324.164 48.9766C323.768 49.0964 323.323 49.1562 322.828 49.1562C322.083 49.1562 321.453 49.0234 320.938 48.7578C320.422 48.4922 320.031 48.1484 319.766 47.7266C319.5 47.3047 319.367 46.8594 319.367 46.3906H320.82C320.841 46.7865 320.956 47.1016 321.164 47.3359C321.372 47.5651 321.628 47.7292 321.93 47.8281C322.232 47.9219 322.531 47.9688 322.828 47.9688C323.224 47.9688 323.555 47.9167 323.82 47.8125C324.091 47.7083 324.297 47.5651 324.438 47.3828C324.578 47.2005 324.648 46.9922 324.648 46.7578ZM329.562 40.5469V49H328.109V40.5469H329.562ZM328 38.3047C328 38.0703 328.07 37.8724 328.211 37.7109C328.357 37.5495 328.57 37.4688 328.852 37.4688C329.128 37.4688 329.339 37.5495 329.484 37.7109C329.635 37.8724 329.711 38.0703 329.711 38.3047C329.711 38.5286 329.635 38.7214 329.484 38.8828C329.339 39.0391 329.128 39.1172 328.852 39.1172C328.57 39.1172 328.357 39.0391 328.211 38.8828C328.07 38.7214 328 38.5286 328 38.3047ZM331.5 44.8672V44.6875C331.5 44.0781 331.589 43.513 331.766 42.9922C331.943 42.4661 332.198 42.0104 332.531 41.625C332.865 41.2344 333.268 40.9323 333.742 40.7188C334.216 40.5 334.747 40.3906 335.336 40.3906C335.93 40.3906 336.464 40.5 336.938 40.7188C337.417 40.9323 337.823 41.2344 338.156 41.625C338.495 42.0104 338.753 42.4661 338.93 42.9922C339.107 43.513 339.195 44.0781 339.195 44.6875V44.8672C339.195 45.4766 339.107 46.0417 338.93 46.5625C338.753 47.0833 338.495 47.5391 338.156 47.9297C337.823 48.3151 337.419 48.6172 336.945 48.8359C336.477 49.0495 335.945 49.1562 335.352 49.1562C334.758 49.1562 334.224 49.0495 333.75 48.8359C333.276 48.6172 332.87 48.3151 332.531 47.9297C332.198 47.5391 331.943 47.0833 331.766 46.5625C331.589 46.0417 331.5 45.4766 331.5 44.8672ZM332.945 44.6875V44.8672C332.945 45.2891 332.995 45.6875 333.094 46.0625C333.193 46.4323 333.341 46.7604 333.539 47.0469C333.742 47.3333 333.995 47.5599 334.297 47.7266C334.599 47.888 334.951 47.9688 335.352 47.9688C335.747 47.9688 336.094 47.888 336.391 47.7266C336.693 47.5599 336.943 47.3333 337.141 47.0469C337.339 46.7604 337.487 46.4323 337.586 46.0625C337.69 45.6875 337.742 45.2891 337.742 44.8672V44.6875C337.742 44.2708 337.69 43.8776 337.586 43.5078C337.487 43.1328 337.336 42.8021 337.133 42.5156C336.935 42.224 336.685 41.9948 336.383 41.8281C336.086 41.6615 335.737 41.5781 335.336 41.5781C334.94 41.5781 334.591 41.6615 334.289 41.8281C333.992 41.9948 333.742 42.224 333.539 42.5156C333.341 42.8021 333.193 43.1328 333.094 43.5078C332.995 43.8776 332.945 44.2708 332.945 44.6875ZM342.453 42.3516V49H341.008V40.5469H342.375L342.453 42.3516ZM342.109 44.4531L341.508 44.4297C341.513 43.8516 341.599 43.3177 341.766 42.8281C341.932 42.3333 342.167 41.9036 342.469 41.5391C342.771 41.1745 343.13 40.8932 343.547 40.6953C343.969 40.4922 344.435 40.3906 344.945 40.3906C345.362 40.3906 345.737 40.4479 346.07 40.5625C346.404 40.6719 346.688 40.849 346.922 41.0938C347.161 41.3385 347.344 41.6562 347.469 42.0469C347.594 42.4323 347.656 42.9036 347.656 43.4609V49H346.203V43.4453C346.203 43.0026 346.138 42.6484 346.008 42.3828C345.878 42.112 345.688 41.9167 345.438 41.7969C345.188 41.6719 344.88 41.6094 344.516 41.6094C344.156 41.6094 343.828 41.6849 343.531 41.8359C343.24 41.987 342.987 42.1953 342.773 42.4609C342.565 42.7266 342.401 43.0312 342.281 43.375C342.167 43.7135 342.109 44.0729 342.109 44.4531ZM354.773 46.7578C354.773 46.5495 354.727 46.3568 354.633 46.1797C354.544 45.9974 354.359 45.8333 354.078 45.6875C353.802 45.5365 353.385 45.4062 352.828 45.2969C352.359 45.1979 351.935 45.0807 351.555 44.9453C351.18 44.8099 350.859 44.6458 350.594 44.4531C350.333 44.2604 350.133 44.0339 349.992 43.7734C349.852 43.513 349.781 43.2083 349.781 42.8594C349.781 42.526 349.854 42.2109 350 41.9141C350.151 41.6172 350.362 41.3542 350.633 41.125C350.909 40.8958 351.24 40.7161 351.625 40.5859C352.01 40.4557 352.44 40.3906 352.914 40.3906C353.591 40.3906 354.169 40.5104 354.648 40.75C355.128 40.9896 355.495 41.3099 355.75 41.7109C356.005 42.1068 356.133 42.5469 356.133 43.0312H354.688C354.688 42.7969 354.617 42.5703 354.477 42.3516C354.341 42.1276 354.141 41.9427 353.875 41.7969C353.615 41.651 353.294 41.5781 352.914 41.5781C352.513 41.5781 352.188 41.6406 351.938 41.7656C351.693 41.8854 351.513 42.0391 351.398 42.2266C351.289 42.4141 351.234 42.612 351.234 42.8203C351.234 42.9766 351.26 43.1172 351.312 43.2422C351.37 43.362 351.469 43.474 351.609 43.5781C351.75 43.6771 351.948 43.7708 352.203 43.8594C352.458 43.9479 352.784 44.0365 353.18 44.125C353.872 44.2812 354.443 44.4688 354.891 44.6875C355.339 44.9062 355.672 45.1745 355.891 45.4922C356.109 45.8099 356.219 46.1953 356.219 46.6484C356.219 47.0182 356.141 47.3568 355.984 47.6641C355.833 47.9714 355.612 48.237 355.32 48.4609C355.034 48.6797 354.69 48.8516 354.289 48.9766C353.893 49.0964 353.448 49.1562 352.953 49.1562C352.208 49.1562 351.578 49.0234 351.062 48.7578C350.547 48.4922 350.156 48.1484 349.891 47.7266C349.625 47.3047 349.492 46.8594 349.492 46.3906H350.945C350.966 46.7865 351.081 47.1016 351.289 47.3359C351.497 47.5651 351.753 47.7292 352.055 47.8281C352.357 47.9219 352.656 47.9688 352.953 47.9688C353.349 47.9688 353.68 47.9167 353.945 47.8125C354.216 47.7083 354.422 47.5651 354.562 47.3828C354.703 47.2005 354.773 46.9922 354.773 46.7578Z" fill="#3F3B3C"/>
<path d="M419.531 38.6328L415.766 49H414.227L418.562 37.625H419.555L419.531 38.6328ZM422.688 49L418.914 38.6328L418.891 37.625H419.883L424.234 49H422.688ZM422.492 44.7891V46.0234H416.102V44.7891H422.492ZM430.617 47.0469V40.5469H432.07V49H430.688L430.617 47.0469ZM430.891 45.2656L431.492 45.25C431.492 45.8125 431.432 46.3333 431.312 46.8125C431.198 47.2865 431.01 47.6979 430.75 48.0469C430.49 48.3958 430.148 48.6693 429.727 48.8672C429.305 49.0599 428.792 49.1562 428.188 49.1562C427.776 49.1562 427.398 49.0964 427.055 48.9766C426.716 48.8568 426.424 48.6719 426.18 48.4219C425.935 48.1719 425.745 47.8464 425.609 47.4453C425.479 47.0443 425.414 46.5625 425.414 46V40.5469H426.859V46.0156C426.859 46.3958 426.901 46.7109 426.984 46.9609C427.073 47.2057 427.19 47.401 427.336 47.5469C427.487 47.6875 427.654 47.7865 427.836 47.8438C428.023 47.901 428.216 47.9297 428.414 47.9297C429.029 47.9297 429.516 47.8125 429.875 47.5781C430.234 47.3385 430.492 47.0182 430.648 46.6172C430.81 46.2109 430.891 45.7604 430.891 45.2656ZM439.602 47.3594V37H441.055V49H439.727L439.602 47.3594ZM433.914 44.8672V44.7031C433.914 44.0573 433.992 43.4714 434.148 42.9453C434.31 42.4141 434.536 41.9583 434.828 41.5781C435.125 41.1979 435.477 40.9062 435.883 40.7031C436.294 40.4948 436.753 40.3906 437.258 40.3906C437.789 40.3906 438.253 40.4844 438.648 40.6719C439.049 40.8542 439.388 41.1224 439.664 41.4766C439.945 41.8255 440.167 42.2474 440.328 42.7422C440.49 43.237 440.602 43.7969 440.664 44.4219V45.1406C440.607 45.7604 440.495 46.3177 440.328 46.8125C440.167 47.3073 439.945 47.7292 439.664 48.0781C439.388 48.4271 439.049 48.6953 438.648 48.8828C438.247 49.0651 437.779 49.1562 437.242 49.1562C436.747 49.1562 436.294 49.0495 435.883 48.8359C435.477 48.6224 435.125 48.3229 434.828 47.9375C434.536 47.5521 434.31 47.099 434.148 46.5781C433.992 46.0521 433.914 45.4818 433.914 44.8672ZM435.367 44.7031V44.8672C435.367 45.2891 435.409 45.6849 435.492 46.0547C435.581 46.4245 435.716 46.75 435.898 47.0312C436.081 47.3125 436.312 47.5339 436.594 47.6953C436.875 47.8516 437.211 47.9297 437.602 47.9297C438.081 47.9297 438.474 47.8281 438.781 47.625C439.094 47.4219 439.344 47.1536 439.531 46.8203C439.719 46.487 439.865 46.125 439.969 45.7344V43.8516C439.906 43.5651 439.815 43.2891 439.695 43.0234C439.581 42.7526 439.43 42.513 439.242 42.3047C439.06 42.0911 438.833 41.9219 438.562 41.7969C438.297 41.6719 437.982 41.6094 437.617 41.6094C437.221 41.6094 436.88 41.6927 436.594 41.8594C436.312 42.0208 436.081 42.2448 435.898 42.5312C435.716 42.8125 435.581 43.1406 435.492 43.5156C435.409 43.8854 435.367 44.2812 435.367 44.7031ZM444.875 40.5469V49H443.422V40.5469H444.875ZM443.312 38.3047C443.312 38.0703 443.383 37.8724 443.523 37.7109C443.669 37.5495 443.883 37.4688 444.164 37.4688C444.44 37.4688 444.651 37.5495 444.797 37.7109C444.948 37.8724 445.023 38.0703 445.023 38.3047C445.023 38.5286 444.948 38.7214 444.797 38.8828C444.651 39.0391 444.44 39.1172 444.164 39.1172C443.883 39.1172 443.669 39.0391 443.523 38.8828C443.383 38.7214 443.312 38.5286 443.312 38.3047ZM446.812 44.8672V44.6875C446.812 44.0781 446.901 43.513 447.078 42.9922C447.255 42.4661 447.51 42.0104 447.844 41.625C448.177 41.2344 448.581 40.9323 449.055 40.7188C449.529 40.5 450.06 40.3906 450.648 40.3906C451.242 40.3906 451.776 40.5 452.25 40.7188C452.729 40.9323 453.135 41.2344 453.469 41.625C453.807 42.0104 454.065 42.4661 454.242 42.9922C454.419 43.513 454.508 44.0781 454.508 44.6875V44.8672C454.508 45.4766 454.419 46.0417 454.242 46.5625C454.065 47.0833 453.807 47.5391 453.469 47.9297C453.135 48.3151 452.732 48.6172 452.258 48.8359C451.789 49.0495 451.258 49.1562 450.664 49.1562C450.07 49.1562 449.536 49.0495 449.062 48.8359C448.589 48.6172 448.182 48.3151 447.844 47.9297C447.51 47.5391 447.255 47.0833 447.078 46.5625C446.901 46.0417 446.812 45.4766 446.812 44.8672ZM448.258 44.6875V44.8672C448.258 45.2891 448.307 45.6875 448.406 46.0625C448.505 46.4323 448.654 46.7604 448.852 47.0469C449.055 47.3333 449.307 47.5599 449.609 47.7266C449.911 47.888 450.263 47.9688 450.664 47.9688C451.06 47.9688 451.406 47.888 451.703 47.7266C452.005 47.5599 452.255 47.3333 452.453 47.0469C452.651 46.7604 452.799 46.4323 452.898 46.0625C453.003 45.6875 453.055 45.2891 453.055 44.8672V44.6875C453.055 44.2708 453.003 43.8776 452.898 43.5078C452.799 43.1328 452.648 42.8021 452.445 42.5156C452.247 42.224 451.997 41.9948 451.695 41.8281C451.398 41.6615 451.049 41.5781 450.648 41.5781C450.253 41.5781 449.904 41.6615 449.602 41.8281C449.305 41.9948 449.055 42.224 448.852 42.5156C448.654 42.8021 448.505 43.1328 448.406 43.5078C448.307 43.8776 448.258 44.2708 448.258 44.6875ZM456.312 37H457.766V47.3594L457.641 49H456.312V37ZM463.477 44.7031V44.8672C463.477 45.4818 463.404 46.0521 463.258 46.5781C463.112 47.099 462.898 47.5521 462.617 47.9375C462.336 48.3229 461.992 48.6224 461.586 48.8359C461.18 49.0495 460.714 49.1562 460.188 49.1562C459.651 49.1562 459.18 49.0651 458.773 48.8828C458.372 48.6953 458.034 48.4271 457.758 48.0781C457.482 47.7292 457.26 47.3073 457.094 46.8125C456.932 46.3177 456.82 45.7604 456.758 45.1406V44.4219C456.82 43.7969 456.932 43.237 457.094 42.7422C457.26 42.2474 457.482 41.8255 457.758 41.4766C458.034 41.1224 458.372 40.8542 458.773 40.6719C459.174 40.4844 459.641 40.3906 460.172 40.3906C460.703 40.3906 461.174 40.4948 461.586 40.7031C461.997 40.9062 462.341 41.1979 462.617 41.5781C462.898 41.9583 463.112 42.4141 463.258 42.9453C463.404 43.4714 463.477 44.0573 463.477 44.7031ZM462.023 44.8672V44.7031C462.023 44.2812 461.984 43.8854 461.906 43.5156C461.828 43.1406 461.703 42.8125 461.531 42.5312C461.359 42.2448 461.133 42.0208 460.852 41.8594C460.57 41.6927 460.224 41.6094 459.812 41.6094C459.448 41.6094 459.13 41.6719 458.859 41.7969C458.594 41.9219 458.367 42.0911 458.18 42.3047C457.992 42.513 457.839 42.7526 457.719 43.0234C457.604 43.2891 457.518 43.5651 457.461 43.8516V45.7344C457.544 46.099 457.68 46.4505 457.867 46.7891C458.06 47.1224 458.315 47.3958 458.633 47.6094C458.956 47.8229 459.354 47.9297 459.828 47.9297C460.219 47.9297 460.552 47.8516 460.828 47.6953C461.109 47.5339 461.336 47.3125 461.508 47.0312C461.685 46.75 461.815 46.4245 461.898 46.0547C461.982 45.6849 462.023 45.2891 462.023 44.8672ZM464.922 44.8672V44.6875C464.922 44.0781 465.01 43.513 465.188 42.9922C465.365 42.4661 465.62 42.0104 465.953 41.625C466.286 41.2344 466.69 40.9323 467.164 40.7188C467.638 40.5 468.169 40.3906 468.758 40.3906C469.352 40.3906 469.885 40.5 470.359 40.7188C470.839 40.9323 471.245 41.2344 471.578 41.625C471.917 42.0104 472.174 42.4661 472.352 42.9922C472.529 43.513 472.617 44.0781 472.617 44.6875V44.8672C472.617 45.4766 472.529 46.0417 472.352 46.5625C472.174 47.0833 471.917 47.5391 471.578 47.9297C471.245 48.3151 470.841 48.6172 470.367 48.8359C469.898 49.0495 469.367 49.1562 468.773 49.1562C468.18 49.1562 467.646 49.0495 467.172 48.8359C466.698 48.6172 466.292 48.3151 465.953 47.9297C465.62 47.5391 465.365 47.0833 465.188 46.5625C465.01 46.0417 464.922 45.4766 464.922 44.8672ZM466.367 44.6875V44.8672C466.367 45.2891 466.417 45.6875 466.516 46.0625C466.615 46.4323 466.763 46.7604 466.961 47.0469C467.164 47.3333 467.417 47.5599 467.719 47.7266C468.021 47.888 468.372 47.9688 468.773 47.9688C469.169 47.9688 469.516 47.888 469.812 47.7266C470.115 47.5599 470.365 47.3333 470.562 47.0469C470.76 46.7604 470.909 46.4323 471.008 46.0625C471.112 45.6875 471.164 45.2891 471.164 44.8672V44.6875C471.164 44.2708 471.112 43.8776 471.008 43.5078C470.909 43.1328 470.758 42.8021 470.555 42.5156C470.357 42.224 470.107 41.9948 469.805 41.8281C469.508 41.6615 469.159 41.5781 468.758 41.5781C468.362 41.5781 468.013 41.6615 467.711 41.8281C467.414 41.9948 467.164 42.224 466.961 42.5156C466.763 42.8021 466.615 43.1328 466.516 43.5078C466.417 43.8776 466.367 44.2708 466.367 44.6875ZM474.047 44.8672V44.6875C474.047 44.0781 474.135 43.513 474.312 42.9922C474.49 42.4661 474.745 42.0104 475.078 41.625C475.411 41.2344 475.815 40.9323 476.289 40.7188C476.763 40.5 477.294 40.3906 477.883 40.3906C478.477 40.3906 479.01 40.5 479.484 40.7188C479.964 40.9323 480.37 41.2344 480.703 41.625C481.042 42.0104 481.299 42.4661 481.477 42.9922C481.654 43.513 481.742 44.0781 481.742 44.6875V44.8672C481.742 45.4766 481.654 46.0417 481.477 46.5625C481.299 47.0833 481.042 47.5391 480.703 47.9297C480.37 48.3151 479.966 48.6172 479.492 48.8359C479.023 49.0495 478.492 49.1562 477.898 49.1562C477.305 49.1562 476.771 49.0495 476.297 48.8359C475.823 48.6172 475.417 48.3151 475.078 47.9297C474.745 47.5391 474.49 47.0833 474.312 46.5625C474.135 46.0417 474.047 45.4766 474.047 44.8672ZM475.492 44.6875V44.8672C475.492 45.2891 475.542 45.6875 475.641 46.0625C475.74 46.4323 475.888 46.7604 476.086 47.0469C476.289 47.3333 476.542 47.5599 476.844 47.7266C477.146 47.888 477.497 47.9688 477.898 47.9688C478.294 47.9688 478.641 47.888 478.938 47.7266C479.24 47.5599 479.49 47.3333 479.688 47.0469C479.885 46.7604 480.034 46.4323 480.133 46.0625C480.237 45.6875 480.289 45.2891 480.289 44.8672V44.6875C480.289 44.2708 480.237 43.8776 480.133 43.5078C480.034 43.1328 479.883 42.8021 479.68 42.5156C479.482 42.224 479.232 41.9948 478.93 41.8281C478.633 41.6615 478.284 41.5781 477.883 41.5781C477.487 41.5781 477.138 41.6615 476.836 41.8281C476.539 41.9948 476.289 42.224 476.086 42.5156C475.888 42.8021 475.74 43.1328 475.641 43.5078C475.542 43.8776 475.492 44.2708 475.492 44.6875ZM485.008 37V49H483.555V37H485.008ZM490.172 40.5469L486.484 44.4922L484.422 46.6328L484.305 45.0938L485.781 43.3281L488.406 40.5469H490.172ZM488.852 49L485.836 44.9688L486.586 43.6797L490.555 49H488.852ZM496.586 46.7578C496.586 46.5495 496.539 46.3568 496.445 46.1797C496.357 45.9974 496.172 45.8333 495.891 45.6875C495.615 45.5365 495.198 45.4062 494.641 45.2969C494.172 45.1979 493.747 45.0807 493.367 44.9453C492.992 44.8099 492.672 44.6458 492.406 44.4531C492.146 44.2604 491.945 44.0339 491.805 43.7734C491.664 43.513 491.594 43.2083 491.594 42.8594C491.594 42.526 491.667 42.2109 491.812 41.9141C491.964 41.6172 492.174 41.3542 492.445 41.125C492.721 40.8958 493.052 40.7161 493.438 40.5859C493.823 40.4557 494.253 40.3906 494.727 40.3906C495.404 40.3906 495.982 40.5104 496.461 40.75C496.94 40.9896 497.307 41.3099 497.562 41.7109C497.818 42.1068 497.945 42.5469 497.945 43.0312H496.5C496.5 42.7969 496.43 42.5703 496.289 42.3516C496.154 42.1276 495.953 41.9427 495.688 41.7969C495.427 41.651 495.107 41.5781 494.727 41.5781C494.326 41.5781 494 41.6406 493.75 41.7656C493.505 41.8854 493.326 42.0391 493.211 42.2266C493.102 42.4141 493.047 42.612 493.047 42.8203C493.047 42.9766 493.073 43.1172 493.125 43.2422C493.182 43.362 493.281 43.474 493.422 43.5781C493.562 43.6771 493.76 43.7708 494.016 43.8594C494.271 43.9479 494.596 44.0365 494.992 44.125C495.685 44.2812 496.255 44.4688 496.703 44.6875C497.151 44.9062 497.484 45.1745 497.703 45.4922C497.922 45.8099 498.031 46.1953 498.031 46.6484C498.031 47.0182 497.953 47.3568 497.797 47.6641C497.646 47.9714 497.424 48.237 497.133 48.4609C496.846 48.6797 496.503 48.8516 496.102 48.9766C495.706 49.0964 495.26 49.1562 494.766 49.1562C494.021 49.1562 493.391 49.0234 492.875 48.7578C492.359 48.4922 491.969 48.1484 491.703 47.7266C491.438 47.3047 491.305 46.8594 491.305 46.3906H492.758C492.779 46.7865 492.893 47.1016 493.102 47.3359C493.31 47.5651 493.565 47.7292 493.867 47.8281C494.169 47.9219 494.469 47.9688 494.766 47.9688C495.161 47.9688 495.492 47.9167 495.758 47.8125C496.029 47.7083 496.234 47.5651 496.375 47.3828C496.516 47.2005 496.586 46.9922 496.586 46.7578Z" fill="#3F3B3C"/>
<path d="M563.547 47.7734V49H557.523V47.7734H563.547ZM557.828 37.625V49H556.32V37.625H557.828ZM562.75 42.5156V43.7422H557.523V42.5156H562.75ZM563.469 37.625V38.8594H557.523V37.625H563.469ZM570.18 47.5547V43.2031C570.18 42.8698 570.112 42.5807 569.977 42.3359C569.846 42.0859 569.648 41.8932 569.383 41.7578C569.117 41.6224 568.789 41.5547 568.398 41.5547C568.034 41.5547 567.714 41.6172 567.438 41.7422C567.167 41.8672 566.953 42.0312 566.797 42.2344C566.646 42.4375 566.57 42.6562 566.57 42.8906H565.125C565.125 42.5885 565.203 42.2891 565.359 41.9922C565.516 41.6953 565.74 41.4271 566.031 41.1875C566.328 40.9427 566.682 40.75 567.094 40.6094C567.51 40.4635 567.974 40.3906 568.484 40.3906C569.099 40.3906 569.641 40.4948 570.109 40.7031C570.583 40.9115 570.953 41.2266 571.219 41.6484C571.49 42.0651 571.625 42.5885 571.625 43.2188V47.1562C571.625 47.4375 571.648 47.737 571.695 48.0547C571.747 48.3724 571.823 48.6458 571.922 48.875V49H570.414C570.341 48.8333 570.284 48.612 570.242 48.3359C570.201 48.0547 570.18 47.7943 570.18 47.5547ZM570.43 43.875L570.445 44.8906H568.984C568.573 44.8906 568.206 44.9245 567.883 44.9922C567.56 45.0547 567.289 45.151 567.07 45.2812C566.852 45.4115 566.685 45.5755 566.57 45.7734C566.456 45.9661 566.398 46.1927 566.398 46.4531C566.398 46.7188 566.458 46.9609 566.578 47.1797C566.698 47.3984 566.878 47.5729 567.117 47.7031C567.362 47.8281 567.661 47.8906 568.016 47.8906C568.458 47.8906 568.849 47.7969 569.188 47.6094C569.526 47.4219 569.794 47.1927 569.992 46.9219C570.195 46.651 570.305 46.388 570.32 46.1328L570.938 46.8281C570.901 47.0469 570.802 47.2891 570.641 47.5547C570.479 47.8203 570.263 48.0755 569.992 48.3203C569.727 48.5599 569.409 48.7604 569.039 48.9219C568.674 49.0781 568.263 49.1562 567.805 49.1562C567.232 49.1562 566.729 49.0443 566.297 48.8203C565.87 48.5964 565.536 48.2969 565.297 47.9219C565.062 47.5417 564.945 47.1172 564.945 46.6484C564.945 46.1953 565.034 45.7969 565.211 45.4531C565.388 45.1042 565.643 44.8151 565.977 44.5859C566.31 44.3516 566.711 44.1745 567.18 44.0547C567.648 43.9349 568.172 43.875 568.75 43.875H570.43ZM575.344 41.875V49H573.898V40.5469H575.305L575.344 41.875ZM577.984 40.5L577.977 41.8438C577.857 41.8177 577.742 41.8021 577.633 41.7969C577.529 41.7865 577.409 41.7812 577.273 41.7812C576.94 41.7812 576.646 41.8333 576.391 41.9375C576.135 42.0417 575.919 42.1875 575.742 42.375C575.565 42.5625 575.424 42.7865 575.32 43.0469C575.221 43.3021 575.156 43.5833 575.125 43.8906L574.719 44.125C574.719 43.6146 574.768 43.1354 574.867 42.6875C574.971 42.2396 575.13 41.8438 575.344 41.5C575.557 41.151 575.828 40.8802 576.156 40.6875C576.49 40.4896 576.885 40.3906 577.344 40.3906C577.448 40.3906 577.568 40.4036 577.703 40.4297C577.839 40.4505 577.932 40.474 577.984 40.5ZM586.828 40.5469V41.6562H582.258V40.5469H586.828ZM583.805 38.4922H585.25V46.9062C585.25 47.1927 585.294 47.4089 585.383 47.5547C585.471 47.7005 585.586 47.7969 585.727 47.8438C585.867 47.8906 586.018 47.9141 586.18 47.9141C586.299 47.9141 586.424 47.9036 586.555 47.8828C586.69 47.8568 586.792 47.8359 586.859 47.8203L586.867 49C586.753 49.0365 586.602 49.0703 586.414 49.1016C586.232 49.138 586.01 49.1562 585.75 49.1562C585.396 49.1562 585.07 49.0859 584.773 48.9453C584.477 48.8047 584.24 48.5703 584.062 48.2422C583.891 47.9089 583.805 47.4609 583.805 46.8984V38.4922ZM589.969 41.875V49H588.523V40.5469H589.93L589.969 41.875ZM592.609 40.5L592.602 41.8438C592.482 41.8177 592.367 41.8021 592.258 41.7969C592.154 41.7865 592.034 41.7812 591.898 41.7812C591.565 41.7812 591.271 41.8333 591.016 41.9375C590.76 42.0417 590.544 42.1875 590.367 42.375C590.19 42.5625 590.049 42.7865 589.945 43.0469C589.846 43.3021 589.781 43.5833 589.75 43.8906L589.344 44.125C589.344 43.6146 589.393 43.1354 589.492 42.6875C589.596 42.2396 589.755 41.8438 589.969 41.5C590.182 41.151 590.453 40.8802 590.781 40.6875C591.115 40.4896 591.51 40.3906 591.969 40.3906C592.073 40.3906 592.193 40.4036 592.328 40.4297C592.464 40.4505 592.557 40.474 592.609 40.5ZM598.617 47.5547V43.2031C598.617 42.8698 598.549 42.5807 598.414 42.3359C598.284 42.0859 598.086 41.8932 597.82 41.7578C597.555 41.6224 597.227 41.5547 596.836 41.5547C596.471 41.5547 596.151 41.6172 595.875 41.7422C595.604 41.8672 595.391 42.0312 595.234 42.2344C595.083 42.4375 595.008 42.6562 595.008 42.8906H593.562C593.562 42.5885 593.641 42.2891 593.797 41.9922C593.953 41.6953 594.177 41.4271 594.469 41.1875C594.766 40.9427 595.12 40.75 595.531 40.6094C595.948 40.4635 596.411 40.3906 596.922 40.3906C597.536 40.3906 598.078 40.4948 598.547 40.7031C599.021 40.9115 599.391 41.2266 599.656 41.6484C599.927 42.0651 600.062 42.5885 600.062 43.2188V47.1562C600.062 47.4375 600.086 47.737 600.133 48.0547C600.185 48.3724 600.26 48.6458 600.359 48.875V49H598.852C598.779 48.8333 598.721 48.612 598.68 48.3359C598.638 48.0547 598.617 47.7943 598.617 47.5547ZM598.867 43.875L598.883 44.8906H597.422C597.01 44.8906 596.643 44.9245 596.32 44.9922C595.997 45.0547 595.727 45.151 595.508 45.2812C595.289 45.4115 595.122 45.5755 595.008 45.7734C594.893 45.9661 594.836 46.1927 594.836 46.4531C594.836 46.7188 594.896 46.9609 595.016 47.1797C595.135 47.3984 595.315 47.5729 595.555 47.7031C595.799 47.8281 596.099 47.8906 596.453 47.8906C596.896 47.8906 597.286 47.7969 597.625 47.6094C597.964 47.4219 598.232 47.1927 598.43 46.9219C598.633 46.651 598.742 46.388 598.758 46.1328L599.375 46.8281C599.339 47.0469 599.24 47.2891 599.078 47.5547C598.917 47.8203 598.701 48.0755 598.43 48.3203C598.164 48.5599 597.846 48.7604 597.477 48.9219C597.112 49.0781 596.701 49.1562 596.242 49.1562C595.669 49.1562 595.167 49.0443 594.734 48.8203C594.307 48.5964 593.974 48.2969 593.734 47.9219C593.5 47.5417 593.383 47.1172 593.383 46.6484C593.383 46.1953 593.471 45.7969 593.648 45.4531C593.826 45.1042 594.081 44.8151 594.414 44.5859C594.747 44.3516 595.148 44.1745 595.617 44.0547C596.086 43.9349 596.609 43.875 597.188 43.875H598.867ZM603.906 40.5469V49H602.453V40.5469H603.906ZM602.344 38.3047C602.344 38.0703 602.414 37.8724 602.555 37.7109C602.701 37.5495 602.914 37.4688 603.195 37.4688C603.471 37.4688 603.682 37.5495 603.828 37.7109C603.979 37.8724 604.055 38.0703 604.055 38.3047C604.055 38.5286 603.979 38.7214 603.828 38.8828C603.682 39.0391 603.471 39.1172 603.195 39.1172C602.914 39.1172 602.701 39.0391 602.555 38.8828C602.414 38.7214 602.344 38.5286 602.344 38.3047ZM607.672 42.3516V49H606.227V40.5469H607.594L607.672 42.3516ZM607.328 44.4531L606.727 44.4297C606.732 43.8516 606.818 43.3177 606.984 42.8281C607.151 42.3333 607.385 41.9036 607.688 41.5391C607.99 41.1745 608.349 40.8932 608.766 40.6953C609.188 40.4922 609.654 40.3906 610.164 40.3906C610.581 40.3906 610.956 40.4479 611.289 40.5625C611.622 40.6719 611.906 40.849 612.141 41.0938C612.38 41.3385 612.562 41.6562 612.688 42.0469C612.812 42.4323 612.875 42.9036 612.875 43.4609V49H611.422V43.4453C611.422 43.0026 611.357 42.6484 611.227 42.3828C611.096 42.112 610.906 41.9167 610.656 41.7969C610.406 41.6719 610.099 41.6094 609.734 41.6094C609.375 41.6094 609.047 41.6849 608.75 41.8359C608.458 41.987 608.206 42.1953 607.992 42.4609C607.784 42.7266 607.62 43.0312 607.5 43.375C607.385 43.7135 607.328 44.0729 607.328 44.4531ZM616.641 40.5469V49H615.188V40.5469H616.641ZM615.078 38.3047C615.078 38.0703 615.148 37.8724 615.289 37.7109C615.435 37.5495 615.648 37.4688 615.93 37.4688C616.206 37.4688 616.417 37.5495 616.562 37.7109C616.714 37.8724 616.789 38.0703 616.789 38.3047C616.789 38.5286 616.714 38.7214 616.562 38.8828C616.417 39.0391 616.206 39.1172 615.93 39.1172C615.648 39.1172 615.435 39.0391 615.289 38.8828C615.148 38.7214 615.078 38.5286 615.078 38.3047ZM620.406 42.3516V49H618.961V40.5469H620.328L620.406 42.3516ZM620.062 44.4531L619.461 44.4297C619.466 43.8516 619.552 43.3177 619.719 42.8281C619.885 42.3333 620.12 41.9036 620.422 41.5391C620.724 41.1745 621.083 40.8932 621.5 40.6953C621.922 40.4922 622.388 40.3906 622.898 40.3906C623.315 40.3906 623.69 40.4479 624.023 40.5625C624.357 40.6719 624.641 40.849 624.875 41.0938C625.115 41.3385 625.297 41.6562 625.422 42.0469C625.547 42.4323 625.609 42.9036 625.609 43.4609V49H624.156V43.4453C624.156 43.0026 624.091 42.6484 623.961 42.3828C623.831 42.112 623.641 41.9167 623.391 41.7969C623.141 41.6719 622.833 41.6094 622.469 41.6094C622.109 41.6094 621.781 41.6849 621.484 41.8359C621.193 41.987 620.94 42.1953 620.727 42.4609C620.518 42.7266 620.354 43.0312 620.234 43.375C620.12 43.7135 620.062 44.0729 620.062 44.4531ZM633.281 40.5469H634.594V48.8203C634.594 49.5651 634.443 50.2005 634.141 50.7266C633.839 51.2526 633.417 51.651 632.875 51.9219C632.339 52.1979 631.719 52.3359 631.016 52.3359C630.724 52.3359 630.38 52.2891 629.984 52.1953C629.594 52.1068 629.208 51.9531 628.828 51.7344C628.453 51.5208 628.138 51.2318 627.883 50.8672L628.641 50.0078C628.995 50.4349 629.365 50.7318 629.75 50.8984C630.141 51.0651 630.526 51.1484 630.906 51.1484C631.365 51.1484 631.76 51.0625 632.094 50.8906C632.427 50.7188 632.685 50.4635 632.867 50.125C633.055 49.7917 633.148 49.3802 633.148 48.8906V42.4062L633.281 40.5469ZM627.461 44.8672V44.7031C627.461 44.0573 627.536 43.4714 627.688 42.9453C627.844 42.4141 628.065 41.9583 628.352 41.5781C628.643 41.1979 628.995 40.9062 629.406 40.7031C629.818 40.4948 630.281 40.3906 630.797 40.3906C631.328 40.3906 631.792 40.4844 632.188 40.6719C632.589 40.8542 632.927 41.1224 633.203 41.4766C633.484 41.8255 633.706 42.2474 633.867 42.7422C634.029 43.237 634.141 43.7969 634.203 44.4219V45.1406C634.146 45.7604 634.034 46.3177 633.867 46.8125C633.706 47.3073 633.484 47.7292 633.203 48.0781C632.927 48.4271 632.589 48.6953 632.188 48.8828C631.786 49.0651 631.318 49.1562 630.781 49.1562C630.276 49.1562 629.818 49.0495 629.406 48.8359C629 48.6224 628.651 48.3229 628.359 47.9375C628.068 47.5521 627.844 47.099 627.688 46.5781C627.536 46.0521 627.461 45.4818 627.461 44.8672ZM628.906 44.7031V44.8672C628.906 45.2891 628.948 45.6849 629.031 46.0547C629.12 46.4245 629.253 46.75 629.43 47.0312C629.612 47.3125 629.844 47.5339 630.125 47.6953C630.406 47.8516 630.742 47.9297 631.133 47.9297C631.612 47.9297 632.008 47.8281 632.32 47.625C632.633 47.4219 632.88 47.1536 633.062 46.8203C633.25 46.487 633.396 46.125 633.5 45.7344V43.8516C633.443 43.5651 633.354 43.2891 633.234 43.0234C633.12 42.7526 632.969 42.513 632.781 42.3047C632.599 42.0911 632.372 41.9219 632.102 41.7969C631.831 41.6719 631.513 41.6094 631.148 41.6094C630.753 41.6094 630.411 41.6927 630.125 41.8594C629.844 42.0208 629.612 42.2448 629.43 42.5312C629.253 42.8125 629.12 43.1406 629.031 43.5156C628.948 43.8854 628.906 44.2812 628.906 44.7031Z" fill="#3F3B3C"/>
<rect x="827.5" y="16.5" width="260" height="55" rx="11.5" fill="#FEF8EE"/>
<rect x="827.5" y="16.5" width="260" height="55" rx="11.5" stroke="#391F0F"/>
<path d="M850.383 46.125C850.383 45.8594 850.341 45.625 850.258 45.4219C850.18 45.2135 850.039 45.026 849.836 44.8594C849.638 44.6927 849.362 44.5339 849.008 44.3828C848.659 44.2318 848.216 44.0781 847.68 43.9219C847.117 43.7552 846.609 43.5703 846.156 43.3672C845.703 43.1589 845.315 42.9219 844.992 42.6562C844.669 42.3906 844.422 42.0859 844.25 41.7422C844.078 41.3984 843.992 41.0052 843.992 40.5625C843.992 40.1198 844.083 39.7109 844.266 39.3359C844.448 38.9609 844.708 38.6354 845.047 38.3594C845.391 38.0781 845.799 37.8594 846.273 37.7031C846.747 37.5469 847.276 37.4688 847.859 37.4688C848.714 37.4688 849.438 37.6328 850.031 37.9609C850.63 38.2839 851.086 38.7083 851.398 39.2344C851.711 39.7552 851.867 40.3125 851.867 40.9062H850.367C850.367 40.4792 850.276 40.1016 850.094 39.7734C849.911 39.4401 849.635 39.1797 849.266 38.9922C848.896 38.7995 848.427 38.7031 847.859 38.7031C847.323 38.7031 846.88 38.7839 846.531 38.9453C846.182 39.1068 845.922 39.3255 845.75 39.6016C845.583 39.8776 845.5 40.1927 845.5 40.5469C845.5 40.7865 845.549 41.0052 845.648 41.2031C845.753 41.3958 845.911 41.5755 846.125 41.7422C846.344 41.9089 846.62 42.0625 846.953 42.2031C847.292 42.3438 847.695 42.4792 848.164 42.6094C848.81 42.7917 849.367 42.9948 849.836 43.2188C850.305 43.4427 850.69 43.6953 850.992 43.9766C851.299 44.2526 851.526 44.5677 851.672 44.9219C851.823 45.2708 851.898 45.6667 851.898 46.1094C851.898 46.5729 851.805 46.9922 851.617 47.3672C851.43 47.7422 851.161 48.0625 850.812 48.3281C850.464 48.5938 850.044 48.7995 849.555 48.9453C849.07 49.0859 848.529 49.1562 847.93 49.1562C847.404 49.1562 846.885 49.0833 846.375 48.9375C845.87 48.7917 845.409 48.5729 844.992 48.2812C844.581 47.9896 844.25 47.6302 844 47.2031C843.755 46.7708 843.633 46.2708 843.633 45.7031H845.133C845.133 46.0938 845.208 46.4297 845.359 46.7109C845.51 46.987 845.716 47.2161 845.977 47.3984C846.242 47.5807 846.542 47.7161 846.875 47.8047C847.214 47.888 847.565 47.9297 847.93 47.9297C848.456 47.9297 848.901 47.8568 849.266 47.7109C849.63 47.5651 849.906 47.3568 850.094 47.0859C850.286 46.8151 850.383 46.4948 850.383 46.125ZM857.609 49.1562C857.021 49.1562 856.487 49.0573 856.008 48.8594C855.534 48.6562 855.125 48.3724 854.781 48.0078C854.443 47.6432 854.182 47.2109 854 46.7109C853.818 46.2109 853.727 45.6641 853.727 45.0703V44.7422C853.727 44.0547 853.828 43.4427 854.031 42.9062C854.234 42.3646 854.51 41.9062 854.859 41.5312C855.208 41.1562 855.604 40.8724 856.047 40.6797C856.49 40.487 856.948 40.3906 857.422 40.3906C858.026 40.3906 858.547 40.4948 858.984 40.7031C859.427 40.9115 859.789 41.2031 860.07 41.5781C860.352 41.9479 860.56 42.3854 860.695 42.8906C860.831 43.3906 860.898 43.9375 860.898 44.5312V45.1797H854.586V44H859.453V43.8906C859.432 43.5156 859.354 43.151 859.219 42.7969C859.089 42.4427 858.88 42.151 858.594 41.9219C858.307 41.6927 857.917 41.5781 857.422 41.5781C857.094 41.5781 856.792 41.6484 856.516 41.7891C856.24 41.9245 856.003 42.1276 855.805 42.3984C855.607 42.6693 855.453 43 855.344 43.3906C855.234 43.7812 855.18 44.2318 855.18 44.7422V45.0703C855.18 45.4714 855.234 45.849 855.344 46.2031C855.458 46.5521 855.622 46.8594 855.836 47.125C856.055 47.3906 856.318 47.599 856.625 47.75C856.938 47.901 857.292 47.9766 857.688 47.9766C858.198 47.9766 858.63 47.8724 858.984 47.6641C859.339 47.4557 859.648 47.1771 859.914 46.8281L860.789 47.5234C860.607 47.7995 860.375 48.0625 860.094 48.3125C859.812 48.5625 859.466 48.7656 859.055 48.9219C858.648 49.0781 858.167 49.1562 857.609 49.1562ZM868.07 47.5547V43.2031C868.07 42.8698 868.003 42.5807 867.867 42.3359C867.737 42.0859 867.539 41.8932 867.273 41.7578C867.008 41.6224 866.68 41.5547 866.289 41.5547C865.924 41.5547 865.604 41.6172 865.328 41.7422C865.057 41.8672 864.844 42.0312 864.688 42.2344C864.536 42.4375 864.461 42.6562 864.461 42.8906H863.016C863.016 42.5885 863.094 42.2891 863.25 41.9922C863.406 41.6953 863.63 41.4271 863.922 41.1875C864.219 40.9427 864.573 40.75 864.984 40.6094C865.401 40.4635 865.865 40.3906 866.375 40.3906C866.99 40.3906 867.531 40.4948 868 40.7031C868.474 40.9115 868.844 41.2266 869.109 41.6484C869.38 42.0651 869.516 42.5885 869.516 43.2188V47.1562C869.516 47.4375 869.539 47.737 869.586 48.0547C869.638 48.3724 869.714 48.6458 869.812 48.875V49H868.305C868.232 48.8333 868.174 48.612 868.133 48.3359C868.091 48.0547 868.07 47.7943 868.07 47.5547ZM868.32 43.875L868.336 44.8906H866.875C866.464 44.8906 866.096 44.9245 865.773 44.9922C865.451 45.0547 865.18 45.151 864.961 45.2812C864.742 45.4115 864.576 45.5755 864.461 45.7734C864.346 45.9661 864.289 46.1927 864.289 46.4531C864.289 46.7188 864.349 46.9609 864.469 47.1797C864.589 47.3984 864.768 47.5729 865.008 47.7031C865.253 47.8281 865.552 47.8906 865.906 47.8906C866.349 47.8906 866.74 47.7969 867.078 47.6094C867.417 47.4219 867.685 47.1927 867.883 46.9219C868.086 46.651 868.195 46.388 868.211 46.1328L868.828 46.8281C868.792 47.0469 868.693 47.2891 868.531 47.5547C868.37 47.8203 868.154 48.0755 867.883 48.3203C867.617 48.5599 867.299 48.7604 866.93 48.9219C866.565 49.0781 866.154 49.1562 865.695 49.1562C865.122 49.1562 864.62 49.0443 864.188 48.8203C863.76 48.5964 863.427 48.2969 863.188 47.9219C862.953 47.5417 862.836 47.1172 862.836 46.6484C862.836 46.1953 862.924 45.7969 863.102 45.4531C863.279 45.1042 863.534 44.8151 863.867 44.5859C864.201 44.3516 864.602 44.1745 865.07 44.0547C865.539 43.9349 866.062 43.875 866.641 43.875H868.32ZM873.734 41.875V49H872.289V40.5469H873.695L873.734 41.875ZM876.375 40.5L876.367 41.8438C876.247 41.8177 876.133 41.8021 876.023 41.7969C875.919 41.7865 875.799 41.7812 875.664 41.7812C875.331 41.7812 875.036 41.8333 874.781 41.9375C874.526 42.0417 874.31 42.1875 874.133 42.375C873.956 42.5625 873.815 42.7865 873.711 43.0469C873.612 43.3021 873.547 43.5833 873.516 43.8906L873.109 44.125C873.109 43.6146 873.159 43.1354 873.258 42.6875C873.362 42.2396 873.521 41.8438 873.734 41.5C873.948 41.151 874.219 40.8802 874.547 40.6875C874.88 40.4896 875.276 40.3906 875.734 40.3906C875.839 40.3906 875.958 40.4036 876.094 40.4297C876.229 40.4505 876.323 40.474 876.375 40.5ZM881.438 47.9688C881.781 47.9688 882.099 47.8984 882.391 47.7578C882.682 47.6172 882.922 47.4245 883.109 47.1797C883.297 46.9297 883.404 46.6458 883.43 46.3281H884.805C884.779 46.8281 884.609 47.2943 884.297 47.7266C883.99 48.1536 883.586 48.5 883.086 48.7656C882.586 49.026 882.036 49.1562 881.438 49.1562C880.802 49.1562 880.247 49.0443 879.773 48.8203C879.305 48.5964 878.914 48.2891 878.602 47.8984C878.294 47.5078 878.062 47.0599 877.906 46.5547C877.755 46.0443 877.68 45.5052 877.68 44.9375V44.6094C877.68 44.0417 877.755 43.5052 877.906 43C878.062 42.4896 878.294 42.0391 878.602 41.6484C878.914 41.2578 879.305 40.9505 879.773 40.7266C880.247 40.5026 880.802 40.3906 881.438 40.3906C882.099 40.3906 882.677 40.526 883.172 40.7969C883.667 41.0625 884.055 41.4271 884.336 41.8906C884.622 42.349 884.779 42.8698 884.805 43.4531H883.43C883.404 43.1042 883.305 42.7891 883.133 42.5078C882.966 42.2266 882.737 42.0026 882.445 41.8359C882.159 41.6641 881.823 41.5781 881.438 41.5781C880.995 41.5781 880.622 41.6667 880.32 41.8438C880.023 42.0156 879.786 42.25 879.609 42.5469C879.438 42.8385 879.312 43.1641 879.234 43.5234C879.161 43.8776 879.125 44.2396 879.125 44.6094V44.9375C879.125 45.3073 879.161 45.6719 879.234 46.0312C879.307 46.3906 879.43 46.7161 879.602 47.0078C879.779 47.2995 880.016 47.5339 880.312 47.7109C880.615 47.8828 880.99 47.9688 881.438 47.9688ZM888.375 37V49H886.93V37H888.375ZM888.031 44.4531L887.43 44.4297C887.435 43.8516 887.521 43.3177 887.688 42.8281C887.854 42.3333 888.089 41.9036 888.391 41.5391C888.693 41.1745 889.052 40.8932 889.469 40.6953C889.891 40.4922 890.357 40.3906 890.867 40.3906C891.284 40.3906 891.659 40.4479 891.992 40.5625C892.326 40.6719 892.609 40.849 892.844 41.0938C893.083 41.3385 893.266 41.6562 893.391 42.0469C893.516 42.4323 893.578 42.9036 893.578 43.4609V49H892.125V43.4453C892.125 43.0026 892.06 42.6484 891.93 42.3828C891.799 42.112 891.609 41.9167 891.359 41.7969C891.109 41.6719 890.802 41.6094 890.438 41.6094C890.078 41.6094 889.75 41.6849 889.453 41.8359C889.161 41.987 888.909 42.1953 888.695 42.4609C888.487 42.7266 888.323 43.0312 888.203 43.375C888.089 43.7135 888.031 44.0729 888.031 44.4531ZM905.633 46.7578C905.633 46.5495 905.586 46.3568 905.492 46.1797C905.404 45.9974 905.219 45.8333 904.938 45.6875C904.661 45.5365 904.245 45.4062 903.688 45.2969C903.219 45.1979 902.794 45.0807 902.414 44.9453C902.039 44.8099 901.719 44.6458 901.453 44.4531C901.193 44.2604 900.992 44.0339 900.852 43.7734C900.711 43.513 900.641 43.2083 900.641 42.8594C900.641 42.526 900.714 42.2109 900.859 41.9141C901.01 41.6172 901.221 41.3542 901.492 41.125C901.768 40.8958 902.099 40.7161 902.484 40.5859C902.87 40.4557 903.299 40.3906 903.773 40.3906C904.451 40.3906 905.029 40.5104 905.508 40.75C905.987 40.9896 906.354 41.3099 906.609 41.7109C906.865 42.1068 906.992 42.5469 906.992 43.0312H905.547C905.547 42.7969 905.477 42.5703 905.336 42.3516C905.201 42.1276 905 41.9427 904.734 41.7969C904.474 41.651 904.154 41.5781 903.773 41.5781C903.372 41.5781 903.047 41.6406 902.797 41.7656C902.552 41.8854 902.372 42.0391 902.258 42.2266C902.148 42.4141 902.094 42.612 902.094 42.8203C902.094 42.9766 902.12 43.1172 902.172 43.2422C902.229 43.362 902.328 43.474 902.469 43.5781C902.609 43.6771 902.807 43.7708 903.062 43.8594C903.318 43.9479 903.643 44.0365 904.039 44.125C904.732 44.2812 905.302 44.4688 905.75 44.6875C906.198 44.9062 906.531 45.1745 906.75 45.4922C906.969 45.8099 907.078 46.1953 907.078 46.6484C907.078 47.0182 907 47.3568 906.844 47.6641C906.693 47.9714 906.471 48.237 906.18 48.4609C905.893 48.6797 905.549 48.8516 905.148 48.9766C904.753 49.0964 904.307 49.1562 903.812 49.1562C903.068 49.1562 902.438 49.0234 901.922 48.7578C901.406 48.4922 901.016 48.1484 900.75 47.7266C900.484 47.3047 900.352 46.8594 900.352 46.3906H901.805C901.826 46.7865 901.94 47.1016 902.148 47.3359C902.357 47.5651 902.612 47.7292 902.914 47.8281C903.216 47.9219 903.516 47.9688 903.812 47.9688C904.208 47.9688 904.539 47.9167 904.805 47.8125C905.076 47.7083 905.281 47.5651 905.422 47.3828C905.562 47.2005 905.633 46.9922 905.633 46.7578ZM912.859 47.9688C913.203 47.9688 913.521 47.8984 913.812 47.7578C914.104 47.6172 914.344 47.4245 914.531 47.1797C914.719 46.9297 914.826 46.6458 914.852 46.3281H916.227C916.201 46.8281 916.031 47.2943 915.719 47.7266C915.411 48.1536 915.008 48.5 914.508 48.7656C914.008 49.026 913.458 49.1562 912.859 49.1562C912.224 49.1562 911.669 49.0443 911.195 48.8203C910.727 48.5964 910.336 48.2891 910.023 47.8984C909.716 47.5078 909.484 47.0599 909.328 46.5547C909.177 46.0443 909.102 45.5052 909.102 44.9375V44.6094C909.102 44.0417 909.177 43.5052 909.328 43C909.484 42.4896 909.716 42.0391 910.023 41.6484C910.336 41.2578 910.727 40.9505 911.195 40.7266C911.669 40.5026 912.224 40.3906 912.859 40.3906C913.521 40.3906 914.099 40.526 914.594 40.7969C915.089 41.0625 915.477 41.4271 915.758 41.8906C916.044 42.349 916.201 42.8698 916.227 43.4531H914.852C914.826 43.1042 914.727 42.7891 914.555 42.5078C914.388 42.2266 914.159 42.0026 913.867 41.8359C913.581 41.6641 913.245 41.5781 912.859 41.5781C912.417 41.5781 912.044 41.6667 911.742 41.8438C911.445 42.0156 911.208 42.25 911.031 42.5469C910.859 42.8385 910.734 43.1641 910.656 43.5234C910.583 43.8776 910.547 44.2396 910.547 44.6094V44.9375C910.547 45.3073 910.583 45.6719 910.656 46.0312C910.729 46.3906 910.852 46.7161 911.023 47.0078C911.201 47.2995 911.438 47.5339 911.734 47.7109C912.036 47.8828 912.411 47.9688 912.859 47.9688ZM919.797 37V49H918.352V37H919.797ZM919.453 44.4531L918.852 44.4297C918.857 43.8516 918.943 43.3177 919.109 42.8281C919.276 42.3333 919.51 41.9036 919.812 41.5391C920.115 41.1745 920.474 40.8932 920.891 40.6953C921.312 40.4922 921.779 40.3906 922.289 40.3906C922.706 40.3906 923.081 40.4479 923.414 40.5625C923.747 40.6719 924.031 40.849 924.266 41.0938C924.505 41.3385 924.688 41.6562 924.812 42.0469C924.938 42.4323 925 42.9036 925 43.4609V49H923.547V43.4453C923.547 43.0026 923.482 42.6484 923.352 42.3828C923.221 42.112 923.031 41.9167 922.781 41.7969C922.531 41.6719 922.224 41.6094 921.859 41.6094C921.5 41.6094 921.172 41.6849 920.875 41.8359C920.583 41.987 920.331 42.1953 920.117 42.4609C919.909 42.7266 919.745 43.0312 919.625 43.375C919.51 43.7135 919.453 44.0729 919.453 44.4531ZM931.172 49.1562C930.583 49.1562 930.049 49.0573 929.57 48.8594C929.096 48.6562 928.688 48.3724 928.344 48.0078C928.005 47.6432 927.745 47.2109 927.562 46.7109C927.38 46.2109 927.289 45.6641 927.289 45.0703V44.7422C927.289 44.0547 927.391 43.4427 927.594 42.9062C927.797 42.3646 928.073 41.9062 928.422 41.5312C928.771 41.1562 929.167 40.8724 929.609 40.6797C930.052 40.487 930.51 40.3906 930.984 40.3906C931.589 40.3906 932.109 40.4948 932.547 40.7031C932.99 40.9115 933.352 41.2031 933.633 41.5781C933.914 41.9479 934.122 42.3854 934.258 42.8906C934.393 43.3906 934.461 43.9375 934.461 44.5312V45.1797H928.148V44H933.016V43.8906C932.995 43.5156 932.917 43.151 932.781 42.7969C932.651 42.4427 932.443 42.151 932.156 41.9219C931.87 41.6927 931.479 41.5781 930.984 41.5781C930.656 41.5781 930.354 41.6484 930.078 41.7891C929.802 41.9245 929.565 42.1276 929.367 42.3984C929.169 42.6693 929.016 43 928.906 43.3906C928.797 43.7812 928.742 44.2318 928.742 44.7422V45.0703C928.742 45.4714 928.797 45.849 928.906 46.2031C929.021 46.5521 929.185 46.8594 929.398 47.125C929.617 47.3906 929.88 47.599 930.188 47.75C930.5 47.901 930.854 47.9766 931.25 47.9766C931.76 47.9766 932.193 47.8724 932.547 47.6641C932.901 47.4557 933.211 47.1771 933.477 46.8281L934.352 47.5234C934.169 47.7995 933.938 48.0625 933.656 48.3125C933.375 48.5625 933.029 48.7656 932.617 48.9219C932.211 49.0781 931.729 49.1562 931.172 49.1562ZM941.977 47.3594V37H943.43V49H942.102L941.977 47.3594ZM936.289 44.8672V44.7031C936.289 44.0573 936.367 43.4714 936.523 42.9453C936.685 42.4141 936.911 41.9583 937.203 41.5781C937.5 41.1979 937.852 40.9062 938.258 40.7031C938.669 40.4948 939.128 40.3906 939.633 40.3906C940.164 40.3906 940.628 40.4844 941.023 40.6719C941.424 40.8542 941.763 41.1224 942.039 41.4766C942.32 41.8255 942.542 42.2474 942.703 42.7422C942.865 43.237 942.977 43.7969 943.039 44.4219V45.1406C942.982 45.7604 942.87 46.3177 942.703 46.8125C942.542 47.3073 942.32 47.7292 942.039 48.0781C941.763 48.4271 941.424 48.6953 941.023 48.8828C940.622 49.0651 940.154 49.1562 939.617 49.1562C939.122 49.1562 938.669 49.0495 938.258 48.8359C937.852 48.6224 937.5 48.3229 937.203 47.9375C936.911 47.5521 936.685 47.099 936.523 46.5781C936.367 46.0521 936.289 45.4818 936.289 44.8672ZM937.742 44.7031V44.8672C937.742 45.2891 937.784 45.6849 937.867 46.0547C937.956 46.4245 938.091 46.75 938.273 47.0312C938.456 47.3125 938.688 47.5339 938.969 47.6953C939.25 47.8516 939.586 47.9297 939.977 47.9297C940.456 47.9297 940.849 47.8281 941.156 47.625C941.469 47.4219 941.719 47.1536 941.906 46.8203C942.094 46.487 942.24 46.125 942.344 45.7344V43.8516C942.281 43.5651 942.19 43.2891 942.07 43.0234C941.956 42.7526 941.805 42.513 941.617 42.3047C941.435 42.0911 941.208 41.9219 940.938 41.7969C940.672 41.6719 940.357 41.6094 939.992 41.6094C939.596 41.6094 939.255 41.6927 938.969 41.8594C938.688 42.0208 938.456 42.2448 938.273 42.5312C938.091 42.8125 937.956 43.1406 937.867 43.5156C937.784 43.8854 937.742 44.2812 937.742 44.7031ZM951.352 47.0469V40.5469H952.805V49H951.422L951.352 47.0469ZM951.625 45.2656L952.227 45.25C952.227 45.8125 952.167 46.3333 952.047 46.8125C951.932 47.2865 951.745 47.6979 951.484 48.0469C951.224 48.3958 950.883 48.6693 950.461 48.8672C950.039 49.0599 949.526 49.1562 948.922 49.1562C948.51 49.1562 948.133 49.0964 947.789 48.9766C947.451 48.8568 947.159 48.6719 946.914 48.4219C946.669 48.1719 946.479 47.8464 946.344 47.4453C946.214 47.0443 946.148 46.5625 946.148 46V40.5469H947.594V46.0156C947.594 46.3958 947.635 46.7109 947.719 46.9609C947.807 47.2057 947.924 47.401 948.07 47.5469C948.221 47.6875 948.388 47.7865 948.57 47.8438C948.758 47.901 948.951 47.9297 949.148 47.9297C949.763 47.9297 950.25 47.8125 950.609 47.5781C950.969 47.3385 951.227 47.0182 951.383 46.6172C951.544 46.2109 951.625 45.7604 951.625 45.2656ZM957.078 37V49H955.625V37H957.078ZM963.406 49.1562C962.818 49.1562 962.284 49.0573 961.805 48.8594C961.331 48.6562 960.922 48.3724 960.578 48.0078C960.24 47.6432 959.979 47.2109 959.797 46.7109C959.615 46.2109 959.523 45.6641 959.523 45.0703V44.7422C959.523 44.0547 959.625 43.4427 959.828 42.9062C960.031 42.3646 960.307 41.9062 960.656 41.5312C961.005 41.1562 961.401 40.8724 961.844 40.6797C962.286 40.487 962.745 40.3906 963.219 40.3906C963.823 40.3906 964.344 40.4948 964.781 40.7031C965.224 40.9115 965.586 41.2031 965.867 41.5781C966.148 41.9479 966.357 42.3854 966.492 42.8906C966.628 43.3906 966.695 43.9375 966.695 44.5312V45.1797H960.383V44H965.25V43.8906C965.229 43.5156 965.151 43.151 965.016 42.7969C964.885 42.4427 964.677 42.151 964.391 41.9219C964.104 41.6927 963.714 41.5781 963.219 41.5781C962.891 41.5781 962.589 41.6484 962.312 41.7891C962.036 41.9245 961.799 42.1276 961.602 42.3984C961.404 42.6693 961.25 43 961.141 43.3906C961.031 43.7812 960.977 44.2318 960.977 44.7422V45.0703C960.977 45.4714 961.031 45.849 961.141 46.2031C961.255 46.5521 961.419 46.8594 961.633 47.125C961.852 47.3906 962.115 47.599 962.422 47.75C962.734 47.901 963.089 47.9766 963.484 47.9766C963.995 47.9766 964.427 47.8724 964.781 47.6641C965.135 47.4557 965.445 47.1771 965.711 46.8281L966.586 47.5234C966.404 47.7995 966.172 48.0625 965.891 48.3125C965.609 48.5625 965.263 48.7656 964.852 48.9219C964.445 49.0781 963.964 49.1562 963.406 49.1562ZM973.805 46.7578C973.805 46.5495 973.758 46.3568 973.664 46.1797C973.576 45.9974 973.391 45.8333 973.109 45.6875C972.833 45.5365 972.417 45.4062 971.859 45.2969C971.391 45.1979 970.966 45.0807 970.586 44.9453C970.211 44.8099 969.891 44.6458 969.625 44.4531C969.365 44.2604 969.164 44.0339 969.023 43.7734C968.883 43.513 968.812 43.2083 968.812 42.8594C968.812 42.526 968.885 42.2109 969.031 41.9141C969.182 41.6172 969.393 41.3542 969.664 41.125C969.94 40.8958 970.271 40.7161 970.656 40.5859C971.042 40.4557 971.471 40.3906 971.945 40.3906C972.622 40.3906 973.201 40.5104 973.68 40.75C974.159 40.9896 974.526 41.3099 974.781 41.7109C975.036 42.1068 975.164 42.5469 975.164 43.0312H973.719C973.719 42.7969 973.648 42.5703 973.508 42.3516C973.372 42.1276 973.172 41.9427 972.906 41.7969C972.646 41.651 972.326 41.5781 971.945 41.5781C971.544 41.5781 971.219 41.6406 970.969 41.7656C970.724 41.8854 970.544 42.0391 970.43 42.2266C970.32 42.4141 970.266 42.612 970.266 42.8203C970.266 42.9766 970.292 43.1172 970.344 43.2422C970.401 43.362 970.5 43.474 970.641 43.5781C970.781 43.6771 970.979 43.7708 971.234 43.8594C971.49 43.9479 971.815 44.0365 972.211 44.125C972.904 44.2812 973.474 44.4688 973.922 44.6875C974.37 44.9062 974.703 45.1745 974.922 45.4922C975.141 45.8099 975.25 46.1953 975.25 46.6484C975.25 47.0182 975.172 47.3568 975.016 47.6641C974.865 47.9714 974.643 48.237 974.352 48.4609C974.065 48.6797 973.721 48.8516 973.32 48.9766C972.924 49.0964 972.479 49.1562 971.984 49.1562C971.24 49.1562 970.609 49.0234 970.094 48.7578C969.578 48.4922 969.188 48.1484 968.922 47.7266C968.656 47.3047 968.523 46.8594 968.523 46.3906H969.977C969.997 46.7865 970.112 47.1016 970.32 47.3359C970.529 47.5651 970.784 47.7292 971.086 47.8281C971.388 47.9219 971.688 47.9688 971.984 47.9688C972.38 47.9688 972.711 47.9167 972.977 47.8125C973.247 47.7083 973.453 47.5651 973.594 47.3828C973.734 47.2005 973.805 46.9922 973.805 46.7578Z" fill="#391F0F"/>
<path d="M1059 51C1063.42 51 1067 47.4183 1067 43C1067 38.5817 1063.42 35 1059 35C1054.58 35 1051 38.5817 1051 43C1051 47.4183 1054.58 51 1059 51Z" stroke="#6F219E" stroke-width="2" stroke-linecap="round" stroke-linejoin="round"/>
<path d="M1069 52.9992L1064.7 48.6992" stroke="#6F219E" stroke-width="2" stroke-linecap="round" stroke-linejoin="round"/>
</svg>
