<svg width="165" height="189" viewBox="0 0 165 189" fill="none" xmlns="http://www.w3.org/2000/svg">
<path d="M75.2237 137.938C-34.5743 32.6698 70.9984 -4.6913 137.51 -10.2155C174.621 -17.0275 197.132 19.5178 203.748 38.6438C224.583 209.292 126.749 175.937 75.2237 137.938Z" fill="#FEF8EE"/>
<path d="M45.884 50.0985C48.2829 53.4205 52.9207 54.1684 56.2427 51.7689C59.5647 49.3694 60.3129 44.7311 57.914 41.4091C55.515 38.0871 50.8773 37.3392 47.5553 39.7387C44.2333 42.1382 43.485 46.7764 45.884 50.0985Z" fill="#FFEBD5"/>
<path d="M50.2629 81.5038C52.6619 84.8258 57.2996 85.5736 60.6216 83.1741C63.9436 80.7746 64.6919 76.1364 62.2929 72.8144C59.894 69.4924 55.2562 68.7445 51.9342 71.144C48.6122 73.5435 47.864 78.1817 50.2629 81.5038Z" fill="#FFEBD5"/>
<path d="M70.841 112.905C73.2399 116.227 77.8777 116.975 81.1997 114.576C84.5217 112.176 85.27 107.538 82.871 104.216C80.4721 100.894 75.8343 100.146 72.5123 102.545C69.1903 104.945 68.442 109.583 70.841 112.905Z" fill="#FFEBD5"/>
<path d="M148.684 137.591L163.799 13.8632C161.683 25.2693 149.516 46.9945 130.681 55.3024C114.505 62.4323 109.421 62.2045 113.55 61.5311M113.55 61.5311C107.259 62.5593 94.6871 64.0018 91.5591 52.6208C88.4256 41.2554 95.9845 34.9589 100.149 33.2467C105.24 31.1844 116.399 30.0827 120.291 42.1848C124.182 54.2861 117.422 60.1187 113.55 61.5311Z" stroke="#FFEBD5" stroke-width="10" stroke-linecap="round"/>
</svg>
