<svg width="315" height="216" viewBox="0 0 315 216" fill="none" xmlns="http://www.w3.org/2000/svg">
<path d="M184.313 58.2984C389.705 203.886 225.974 290.767 118.435 316.012C59.3389 336.204 13.5845 281.86 -1.90473 252.161C-77.5826 -22.1305 90.7046 8.64218 184.313 58.2984Z" fill="#FEF8EE"/>
<path d="M236.728 195.096C241.384 190.552 248.842 190.643 253.386 195.299C257.929 199.955 257.838 207.414 253.182 211.959C248.525 216.503 241.067 216.413 236.524 211.756C231.98 207.1 232.071 199.641 236.728 195.096Z" fill="#FFEBD5" stroke="#FFEBD5" stroke-linecap="round"/>
<path d="M221.911 144.756C226.568 140.212 234.026 140.303 238.569 144.959C243.113 149.616 243.022 157.074 238.365 161.619C233.709 166.164 226.251 166.073 221.707 161.416C217.164 156.76 217.255 149.301 221.911 144.756Z" fill="#FFEBD5" stroke="#FFEBD5" stroke-linecap="round"/>
<path d="M180.571 98.361C185.228 93.8164 192.686 93.9071 197.229 98.5636C201.773 103.22 201.682 110.679 197.026 115.224C192.369 119.768 184.911 119.677 180.368 115.021C175.824 110.365 175.915 102.906 180.571 98.361Z" fill="#FFEBD5" stroke="#FFEBD5" stroke-linecap="round"/>
<path d="M64.1328 76.7646L69.527 283.001C70.2121 263.812 84.8393 225.282 113.651 207.093C138.395 191.481 146.773 190.615 140.177 192.724M140.177 192.724C150.226 189.508 170.456 184.084 178.349 201.954C186.248 219.796 175.407 231.946 169.006 235.763C161.174 240.38 143.174 244.901 133.854 226.037C124.537 207.174 134.183 195.979 140.177 192.724Z" stroke="#FFEBD5" stroke-width="10" stroke-linecap="round"/>
</svg>
