<svg width="607" height="712" viewBox="0 0 607 712" fill="none" xmlns="http://www.w3.org/2000/svg">
<path d="M589.393 227.04C593.193 232.217 598.319 240.586 602.077 251.968C603.936 257.703 605.529 264.161 606.306 271.737C606.53 275.741 606.755 279.853 607 284.056C606.796 288.728 606.428 293.634 606.122 298.54C606.122 299.712 605.713 301.191 605.509 302.526C605.264 303.897 604.998 305.268 604.753 306.657C604.243 309.416 603.752 312.176 603.242 314.972C603.078 316.325 602.527 317.876 602.118 319.355L600.811 323.846C599.933 326.84 599.055 329.835 598.176 332.847C593.928 345.13 589.21 357.63 584.655 369.896C579.998 382.179 575.382 394.264 570.97 405.898C567.783 414.177 564.72 422.15 561.86 429.581C557.101 442.099 552.219 454.581 547.215 467.044L539.596 485.677L532.1 503.624C527.3 515.096 523.195 525.521 520.029 535.027C516.924 544.479 514.8 552.938 513.799 560.388C513.697 561.289 513.493 562.318 513.452 563.093C513.391 563.887 513.309 564.662 513.207 565.456C513.166 567.043 512.982 568.631 513.023 570.2C513.003 573.338 513.166 576.477 513.615 579.291C514.044 582.104 514.535 584.846 515.249 587.065C515.923 589.319 516.638 591.231 517.272 592.873C517.946 594.424 518.558 595.633 519.13 596.805C519.212 596.931 519.294 597.075 519.355 597.22L519.457 597.454L519.498 597.581L519.518 597.617V597.635C520.07 596.985 514.739 603.37 517.006 600.647L517.129 600.521C517.762 599.799 518.293 599.114 518.722 598.428C518.824 598.284 518.946 598.031 519.008 597.995V598.068L518.967 598.284C518.967 598.356 518.906 598.5 518.926 598.573C518.967 598.645 519.008 598.717 519.049 598.807C519.11 599.276 519.518 599.547 519.845 600.124C520.335 600.43 520.785 601.026 521.418 601.35C522.562 602.144 524.073 603.01 525.197 603.533L525.503 603.713L525.728 603.803C525.891 603.875 526.054 603.966 526.259 604.092C526.524 604.272 526.545 604.272 526.708 604.417C526.851 604.543 527.055 604.741 527.26 604.958C527.362 605.102 527.505 605.318 527.709 605.607L528.076 606.076C528.219 606.238 528.24 606.365 528.362 606.545C528.444 606.671 528.648 606.978 528.853 607.23C529.057 607.501 529.261 607.754 529.486 608.024L529.833 608.403L530.017 608.637C530.16 608.818 530.262 608.926 530.466 609.16C530.936 609.684 531.549 610.261 532.284 610.874C532.917 611.451 533.653 612.028 534.551 612.678C535.45 613.327 536.492 614.012 537.676 614.734C538.881 615.455 540.046 616.105 541.475 616.844C547.052 619.839 555.201 623.085 565.046 628.388C575.259 633.944 583.756 639.824 589.352 647.219C592.151 650.899 594.255 654.957 595.235 659.124C595.746 661.234 596.052 663.417 596.113 665.671C596.175 667.944 596.011 670.253 595.501 672.453C594.5 676.891 592.6 681.797 589.495 686.017C587.964 688.182 586.187 690.364 584.185 692.457C582.163 694.405 579.916 696.317 577.445 698.157C567.62 705.299 554.282 710.368 539.821 711.486C522.296 712.929 505.261 711.306 488.86 706.959C484.754 705.75 480.69 704.614 476.686 703.153C472.683 701.584 468.72 700.123 464.84 698.229C462.899 697.273 460.979 696.299 459.059 695.307C457.139 694.333 455.26 693.323 453.402 692.132C451.543 690.978 449.705 689.823 447.887 688.633L445.17 686.847L442.842 685.079C430.362 675.736 420.19 664.697 412.469 653.226C404.708 641.736 399.274 629.867 395.475 618.125C391.676 606.365 389.511 594.695 388.49 583.133C388.224 580.247 388.122 577.361 387.959 574.475C387.857 571.589 387.877 568.721 387.857 565.853L388.163 557.249L388.817 549.06C390.982 527.379 395.945 507.466 400.479 488.87C403.441 476.785 406.975 465.457 410.467 454.761L415.696 439.087L421.027 423.593C424.622 413.275 428.319 403.012 432.057 392.749L434.855 385.065C435.734 382.738 437.061 379.022 436.877 379.419L437.858 376.245C439.206 372.096 440.799 368.02 442.433 363.745C443.23 361.616 443.863 359.38 443.863 357.143C443.863 356.025 443.659 354.907 443.148 353.914C442.658 352.904 441.759 352.075 440.656 351.552C438.348 350.433 435.346 350.992 432.874 352.183C430.362 353.337 428.299 354.816 426.297 356.133C424.316 357.468 422.437 358.767 420.66 360.083C418.862 361.382 417.147 362.699 415.451 364.015C414.593 364.683 413.756 365.332 412.919 366.036L408.425 369.697C406.239 371.465 404.054 373.25 401.868 375.126C366.819 404.257 331.217 437.373 289.631 469.479L282.319 475.143C279.868 477.037 277.253 478.877 274.741 480.735L267.102 486.344L263.283 489.158L259.3 491.882L251.313 497.347L247.31 500.089C245.982 501.009 244.716 501.893 243.021 502.939C239.855 504.941 236.689 506.943 233.359 508.855C231.705 509.811 230.091 510.803 228.376 511.723L223.045 514.609C221.063 515.691 218.408 516.936 216.018 518.09C213.567 519.244 211.096 520.381 208.624 521.481L201.047 524.547C198.514 525.557 196.001 526.64 193.387 527.451L185.605 530.085L183.665 530.734L181.683 531.257L177.68 532.322C175.025 532.989 172.39 533.783 169.734 534.342C167.059 534.901 164.383 535.424 161.707 535.911C140.24 539.843 118.283 539.356 97.5718 534.432C87.2979 531.744 77.2895 528.209 67.9755 523.411C58.7024 518.631 50.1033 512.733 42.4234 506.041C26.8389 492.748 15.7275 475.558 8.70119 456.655C7.8229 454.292 7.08759 451.857 6.35228 449.44C5.61697 447.005 4.86123 444.588 4.39145 442.081L2.73699 434.595C2.16509 432.106 1.98126 429.527 1.59318 426.984L1.08254 423.16L0.837439 421.248L0.714887 419.318L0.224679 411.58C0.0204253 408.982 0.0204253 406.421 0 403.842L0.0204253 399.982L0.102127 396.374C0.367656 389.304 0.857864 382.359 1.71573 375.794L2.02211 373.305L2.34891 371.14L3.02295 366.847L4.4323 358.28C11.1318 318.868 24.3878 280.593 41.3409 244.067C58.3347 207.506 79.1482 172.748 101.085 139C103.699 135.032 105.885 130.631 107.907 125.959C109.888 121.269 112.053 116.489 114.055 111.547C116.118 106.641 118.161 101.609 120.571 96.8107C123.083 92.0668 125.82 87.4493 128.986 83.2286C131.662 79.7654 134.521 75.5808 138.034 71.36C141.486 67.1032 145.183 62.5759 148.962 58.1026C152.679 53.5933 156.785 49.3365 160.727 45.4404C164.669 41.5443 168.529 38.0271 172.083 35.2133C178.293 30.3973 185.278 25.888 188.771 19.4486C192.733 11.9992 197.35 6.84057 202.068 3.62992C206.806 0.43732 211.811 -0.662956 217.244 0.383208C228.11 2.43946 240.57 13.2077 256.849 32.2912C264.059 40.6425 277.274 47.6049 278.336 57.3811C278.377 57.7779 278.479 58.5896 278.602 59.0225C279.766 63.2613 280.399 67.0671 280.583 70.5123C280.665 72.2258 280.644 73.8672 280.522 75.4004C280.419 76.9696 280.256 78.4848 279.97 79.9097C278.847 85.6456 276.232 90.2631 272.821 94.3756C271.963 95.4038 271.065 96.3958 270.125 97.3698C269.226 98.3799 268.307 99.3539 267.347 100.328C265.427 102.258 263.405 104.134 261.383 106.01C257.38 109.798 253.111 113.477 250.088 117.932C234.401 139.27 220.43 161.583 207.726 184.346C195.103 207.163 183.726 230.503 174.228 254.421C164.751 278.338 156.867 302.725 150.657 327.382C149.227 333.568 147.614 339.719 146.327 345.942L142.712 364.593C141.67 370.833 140.833 377.092 139.873 383.333L139.178 388.023L138.729 392.045C138.504 394.661 138.259 397.258 138.198 399.693L138.096 401.822L138.116 402.507C138.116 402.976 138.157 403.409 138.177 403.824C138.239 404.671 138.32 405.519 138.463 406.349C138.749 408.008 139.199 409.668 139.995 411.201C141.548 414.285 144.979 416.576 148.799 416.793C152.618 417.063 156.356 415.602 159.154 413.726L160.257 412.933C160.482 412.788 160.523 412.734 160.89 412.536L161.891 411.977C162.545 411.598 163.219 411.255 163.872 410.822C165.2 409.974 166.528 409.199 167.835 408.297L169.796 406.944C170.449 406.493 171.062 406.096 171.92 405.465C178.293 400.775 184.665 396.338 190.752 391.089C197.513 385.678 203.314 378.77 209.584 372.547C215.834 365.981 222.534 360.083 231.194 355.339L230.929 355.52C245.084 342.1 258.176 326.985 274.21 313.331C281.298 307.27 288.406 301.173 295.534 295.059C302.887 288.818 310.138 282.541 317.879 276.174C324.824 270.402 332.116 264.522 339.489 259.074L361.569 242.372C363.387 240.911 365.287 239.738 367.166 238.476L372.803 234.706L384.078 227.166C387.836 224.677 391.615 222.098 395.373 219.681L406.648 213.278L417.923 206.874L423.56 203.682L426.379 202.094C427.298 201.68 428.176 201.373 429.095 200.994C436.306 198.144 443.516 195.294 450.705 192.463L456.098 190.352C457.037 189.919 457.793 189.883 458.61 189.685L461.041 189.198C464.268 188.566 467.515 187.917 470.743 187.286C473.97 186.654 477.197 186.023 480.424 185.392C482.017 185.121 483.692 184.67 485.183 184.562C486.674 184.454 488.165 184.292 489.656 184.201C501.503 183.552 512.778 184.436 524.298 186.961C530.017 188.314 535.899 189.973 541.741 192.408L546.173 194.266C547.624 194.97 549.053 195.745 550.483 196.467C553.363 198.054 556.243 199.623 559.123 201.211C562.881 203.988 566.456 206.622 569.928 209.165C571.501 210.536 573.053 211.889 574.524 213.242C575.892 214.63 577.302 216.019 578.588 217.408C581.284 220.258 586.248 222.783 589.393 227.04Z" fill="#601D86"/>
</svg>
