<svg width="315" height="216" viewBox="0 0 315 216" fill="none" xmlns="http://www.w3.org/2000/svg">
<path d="M184.311 58.2984C389.703 203.886 225.972 290.767 118.433 316.012C59.3369 336.204 13.5826 281.86 -1.90668 252.161C-77.5846 -22.1305 90.7026 8.64218 184.311 58.2984Z" fill="#601D86"/>
<path d="M253.741 194.95C249.005 190.096 241.23 190.001 236.376 194.738C231.523 199.476 231.427 207.251 236.164 212.105C240.901 216.96 248.675 217.054 253.529 212.317C258.383 207.579 258.478 199.804 253.741 194.95Z" fill="#6F219E"/>
<path d="M238.925 144.61C234.189 139.756 226.414 139.661 221.56 144.399C216.706 149.136 216.611 156.912 221.348 161.766C226.084 166.62 233.859 166.714 238.713 161.977C243.566 157.239 243.662 149.464 238.925 144.61Z" fill="#6F219E"/>
<path d="M197.583 98.2143C192.847 93.3602 185.072 93.2657 180.218 98.0031C175.364 102.741 175.269 110.516 180.006 115.37C184.742 120.224 192.517 120.319 197.371 115.581C202.225 110.844 202.32 103.068 197.583 98.2143Z" fill="#6F219E"/>
<path d="M64.1309 76.7646L69.525 283.001C70.2102 263.812 84.8373 225.282 113.649 207.093C138.393 191.481 146.771 190.615 140.175 192.724M140.175 192.724C150.224 189.508 170.454 184.084 178.347 201.954C186.246 219.796 175.405 231.946 169.004 235.763C161.172 240.38 143.172 244.901 133.852 226.037C124.535 207.174 134.181 195.979 140.175 192.724Z" stroke="#6F219E" stroke-width="10" stroke-linecap="round"/>
</svg>
