<svg width="165" height="189" viewBox="0 0 165 189" fill="none" xmlns="http://www.w3.org/2000/svg">
<path d="M75.2227 137.938C-34.5753 32.6698 70.9974 -4.6913 137.509 -10.2155C174.621 -17.0275 197.131 19.5178 203.747 38.6438C224.582 209.292 126.748 175.937 75.2227 137.938Z" fill="#601D86"/>
<path d="M45.8811 50.0985C48.28 53.4205 52.9178 54.1684 56.2398 51.7689C59.5617 49.3694 60.31 44.7311 57.9111 41.4091C55.5121 38.0871 50.8744 37.3392 47.5524 39.7387C44.2304 42.1382 43.4821 46.7764 45.8811 50.0985Z" fill="#6F219E"/>
<path d="M50.2619 81.5038C52.6609 84.8258 57.2986 85.5736 60.6206 83.1741C63.9426 80.7746 64.6909 76.1364 62.2919 72.8144C59.893 69.4924 55.2552 68.7445 51.9332 71.144C48.6112 73.5435 47.863 78.1817 50.2619 81.5038Z" fill="#6F219E"/>
<path d="M70.84 112.905C73.2389 116.227 77.8767 116.975 81.1987 114.576C84.5207 112.176 85.269 107.538 82.87 104.216C80.4711 100.894 75.8333 100.146 72.5113 102.545C69.1893 104.945 68.441 109.583 70.84 112.905Z" fill="#6F219E"/>
<path d="M148.685 137.591L163.8 13.8632C161.684 25.2693 149.517 46.9945 130.682 55.3024C114.506 62.4323 109.422 62.2045 113.551 61.5311M113.551 61.5311C107.26 62.5593 94.688 64.0018 91.56 52.6208C88.4266 41.2554 95.9855 34.9589 100.15 33.2467C105.241 31.1844 116.4 30.0827 120.292 42.1848C124.183 54.2861 117.423 60.1187 113.551 61.5311Z" stroke="#6F219E" stroke-width="10" stroke-linecap="round"/>
</svg>
