<svg width="141" height="89" viewBox="0 0 141 89" fill="none" xmlns="http://www.w3.org/2000/svg">
<path d="M37.1849 21.0556C36.7417 1.68619 61.3432 -6.93445 73.0868 8.47516L79.5952 17.0151C84.8471 23.9065 93.9392 26.6324 102.116 23.7671L112.249 20.2163C130.534 13.8092 146.335 34.5428 135.308 50.4735L129.198 59.3023C124.266 66.4267 124.484 75.9161 129.735 82.8075L136.244 91.3475C147.987 106.757 133.152 128.192 114.593 122.628L104.308 119.544C96.0086 117.056 87.0507 120.195 82.1195 127.32L76.0087 136.148C64.9823 152.079 40.0121 144.593 39.5688 125.223L39.3232 114.489C39.1249 105.827 33.3715 98.2772 25.0719 95.789L14.7869 92.7055C-3.77142 87.1416 -4.36786 61.0802 13.9166 54.6732L24.0497 51.1224C32.2268 48.2571 37.6288 40.4523 37.4306 31.7901L37.1849 21.0556Z" fill="#E9BB18"/>
</svg>
