<svg width="303" height="193" viewBox="0 0 303 193" fill="none" xmlns="http://www.w3.org/2000/svg">
<path d="M172.311 58.2984C377.704 203.886 213.973 290.767 106.433 316.012C47.3374 336.204 1.58304 281.86 -13.9062 252.161C-89.5841 -22.1305 78.7031 8.64218 172.311 58.2984Z" fill="#ECD6FE"/>
<path d="M241.742 194.95C237.005 190.096 229.231 190.001 224.377 194.738C219.523 199.476 219.428 207.251 224.164 212.105C228.901 216.96 236.676 217.054 241.529 212.317C246.383 207.579 246.478 199.804 241.742 194.95Z" fill="#F5E8FF"/>
<path d="M226.926 144.61C222.189 139.756 214.414 139.661 209.561 144.399C204.707 149.136 204.612 156.912 209.348 161.766C214.085 166.62 221.859 166.714 226.713 161.977C231.567 157.239 231.662 149.464 226.926 144.61Z" fill="#F5E8FF"/>
<path d="M185.584 98.2151C180.847 93.361 173.073 93.2664 168.219 98.0039C163.365 102.741 163.27 110.517 168.006 115.371C172.743 120.225 180.517 120.32 185.371 115.582C190.225 110.845 190.32 103.069 185.584 98.2151Z" fill="#F5E8FF"/>
<path d="M52.1313 76.7656L57.5255 283.002C58.2107 263.813 72.8378 225.283 101.649 207.094C126.393 191.482 134.771 190.616 128.176 192.725M128.176 192.725C138.225 189.509 158.455 184.085 166.348 201.955C174.246 219.797 163.405 231.947 157.004 235.764C149.172 240.381 131.172 244.902 121.853 226.038C112.536 207.175 122.181 195.98 128.176 192.725Z" stroke="#F5E8FF" stroke-width="10" stroke-linecap="round"/>
</svg>
