<svg width="100" height="145" viewBox="0 0 100 145" fill="none" xmlns="http://www.w3.org/2000/svg">
<path d="M37.1849 21.0566C36.7417 1.68717 61.3432 -6.93348 73.0868 8.47614L79.5952 17.0161C84.8471 23.9075 93.9392 26.6334 102.116 23.768L112.249 20.2173C130.534 13.8102 146.335 34.5437 135.308 50.4745L129.198 59.3032C124.266 66.4277 124.484 75.9171 129.735 82.8085L136.244 91.3485C147.987 106.758 133.152 128.193 114.593 122.629L104.308 119.545C96.0086 117.057 87.0507 120.196 82.1195 127.32L76.0087 136.149C64.9823 152.08 40.0121 144.594 39.5688 125.224L39.3232 114.49C39.1249 105.828 33.3715 98.2782 25.0719 95.79L14.7869 92.7065C-3.77142 87.1426 -4.36786 61.0812 13.9166 54.6741L24.0497 51.1234C32.2268 48.2581 37.6288 40.4533 37.4306 31.791L37.1849 21.0566Z" fill="#E9BB18"/>
</svg>
