<svg width="196" height="196" viewBox="0 0 196 196" fill="none" xmlns="http://www.w3.org/2000/svg">
<path d="M149.992 61.2555C200.965 164.615 116.12 163.923 67.3245 150.659C39.1337 145.913 32.5524 114.067 32.7867 98.7353C62.0751 -28.1808 123.123 20.8707 149.992 61.2555Z" fill="#F5E8FF"/>
<path d="M148.175 131.398C147.325 128.412 144.216 126.68 141.23 127.53C138.243 128.38 136.511 131.49 137.361 134.476C138.21 137.462 141.32 139.194 144.306 138.344C147.292 137.494 149.024 134.385 148.175 131.398Z" fill="#FBF5FF"/>
<path d="M153.175 107.898C152.325 104.912 149.216 103.18 146.229 104.03C143.243 104.88 141.511 107.99 142.36 110.976C143.21 113.962 146.319 115.694 149.306 114.844C152.292 113.994 154.024 110.885 153.175 107.898Z" fill="#FBF5FF"/>
<path d="M146.64 80.2167C145.79 77.2306 142.681 75.4988 139.695 76.3486C136.708 77.1985 134.976 80.3081 135.826 83.2943C136.675 86.2804 139.784 88.0122 142.771 87.1624C145.757 86.3125 147.489 83.2029 146.64 80.2167Z" fill="#FBF5FF"/>
<path d="M97.5857 42.5078L54.8274 126.713C59.2836 119.137 73.5664 106.812 89.1284 105.766C102.492 104.871 106.053 106.348 102.939 105.76M102.939 105.76C107.685 106.654 117.011 108.878 116.296 117.792C115.588 126.696 108.577 129.225 105.168 129.368C101.01 129.52 92.7777 127.419 93.1353 117.794C93.4937 108.17 99.816 105.764 102.939 105.76Z" stroke="#FBF5FF" stroke-width="10" stroke-linecap="round"/>
</svg>
