<svg width="1167" height="1005" viewBox="0 0 1167 1005" fill="none" xmlns="http://www.w3.org/2000/svg">
<path d="M808.978 970.809C800.574 977.387 786.934 986.334 768.22 993.164C758.787 996.547 748.142 999.526 735.597 1001.21C728.957 1001.78 722.137 1002.37 715.168 1002.99C707.396 1002.89 699.227 1002.54 691.061 1002.28C689.114 1002.34 686.635 1001.74 684.408 1001.47C682.118 1001.13 679.827 1000.76 677.507 1000.42C672.896 999.718 668.286 999.046 663.616 998.342C661.36 998.14 658.754 997.303 656.276 996.701L648.748 994.761C643.729 993.456 638.709 992.151 633.66 990.847C613.036 984.422 592.028 977.227 571.418 970.292C550.772 963.188 530.459 956.142 510.905 949.412C496.987 944.545 483.585 939.866 471.093 935.498C450.053 928.236 429.066 920.77 408.103 913.098L376.758 901.401L346.558 889.873C327.253 882.489 309.723 876.206 293.768 871.436C277.907 866.765 263.745 863.672 251.318 862.393C249.815 862.27 248.096 861.983 246.806 861.955C245.484 861.894 244.191 861.799 242.868 861.67C240.229 861.684 237.582 861.46 234.978 861.609C229.763 861.736 224.558 862.17 219.906 863.061C215.254 863.918 210.725 864.874 207.076 866.176C203.365 867.411 200.226 868.697 197.532 869.834C194.989 871.033 193.013 872.114 191.095 873.124C190.889 873.266 190.654 873.409 190.417 873.519L190.033 873.7L189.825 873.775L189.767 873.811L189.737 873.812C190.844 874.694 179.962 866.167 184.603 869.793L184.819 869.99C186.05 871.005 187.216 871.852 188.377 872.529C188.622 872.691 189.048 872.882 189.111 872.982L188.991 872.985L188.63 872.929C188.51 872.932 188.267 872.838 188.148 872.876C188.03 872.947 187.912 873.019 187.765 873.091C186.989 873.217 186.56 873.91 185.618 874.482C185.134 875.313 184.169 876.09 183.662 877.158C182.402 879.099 181.042 881.655 180.231 883.548L179.947 884.066L179.809 884.444C179.697 884.719 179.556 884.995 179.357 885.341C179.071 885.792 179.072 885.826 178.84 886.104C178.638 886.348 178.319 886.698 177.97 887.048C177.735 887.226 177.383 887.474 176.914 887.828L176.154 888.463C175.892 888.709 175.683 888.75 175.39 888.962C175.184 889.105 174.685 889.46 174.276 889.812C173.837 890.165 173.428 890.518 172.991 890.905L172.379 891.501L171.999 891.819C171.707 892.065 171.532 892.241 171.153 892.592C170.308 893.399 169.381 894.447 168.4 895.7C167.474 896.782 166.553 898.033 165.521 899.559C164.488 901.086 163.403 902.852 162.266 904.857C161.129 906.896 160.11 908.863 158.955 911.276C154.268 920.694 149.294 934.4 140.992 951.028C132.289 968.279 122.958 982.697 110.961 992.375C104.992 997.213 98.3586 1000.92 91.4874 1002.76C88.0079 1003.72 84.398 1004.34 80.6556 1004.56C76.8832 1004.78 73.0395 1004.62 69.3576 1003.89C61.9349 1002.45 53.6868 999.551 46.5153 994.61C42.8407 992.177 39.1236 989.337 35.5446 986.12C32.2044 982.861 28.9125 979.227 25.729 975.216C13.3572 959.263 4.25059 937.367 1.64826 913.401C-1.65124 884.362 0.168497 855.98 6.54539 828.51C8.34159 821.627 10.0201 814.816 12.241 808.091C14.6418 801.359 16.8648 794.701 19.8112 788.157C21.2994 784.884 22.8186 781.645 24.3678 778.404C25.8869 775.164 27.4682 771.991 29.3502 768.842C31.1722 765.695 32.9953 762.581 34.8794 759.5L37.7059 754.895L40.5225 750.936C55.4013 729.723 73.2156 712.257 91.8753 698.84C110.563 685.355 130 675.718 149.311 668.802C168.652 661.886 187.927 657.688 207.081 655.396C211.862 654.806 216.651 654.488 221.437 654.068C226.226 653.75 230.991 653.636 235.754 653.455L250.063 653.521L263.7 654.185C299.829 656.665 333.165 663.885 364.291 670.46C384.52 674.758 403.519 680.045 421.468 685.296L447.776 693.176L473.79 701.234C491.114 706.675 508.354 712.288 525.596 717.969L538.505 722.222C542.415 723.561 548.656 725.575 547.988 725.29L553.312 726.755C560.273 728.781 567.127 731.218 574.313 733.712C577.89 734.926 581.638 735.863 585.353 735.748C587.211 735.69 589.058 735.293 590.68 734.394C592.333 733.528 593.665 731.992 594.477 730.133C596.216 726.241 595.132 721.282 593.028 717.237C590.98 713.123 588.417 709.772 586.127 706.515C583.807 703.292 581.553 700.238 579.274 697.353C577.024 694.434 574.749 691.652 572.474 688.903C571.321 687.513 570.199 686.155 568.988 684.8L562.674 677.523C559.625 673.984 556.546 670.445 553.317 666.911C503.12 610.185 446.273 552.748 390.795 485.317L381.01 473.461C377.738 469.487 374.547 465.239 371.331 461.161L361.619 448.759L356.748 442.559L352.018 436.083L342.528 423.097L337.767 416.588C336.171 414.43 334.637 412.371 332.812 409.609C329.323 404.453 325.834 399.296 322.486 393.864C320.813 391.165 319.082 388.535 317.465 385.733L312.397 377.025C310.497 373.79 308.293 369.443 306.252 365.532C304.208 361.52 302.193 357.473 300.238 353.424L294.754 340.993C292.945 336.838 291.018 332.72 289.535 328.418L284.76 315.626L283.581 312.436L282.61 309.172L280.636 302.576C279.391 298.199 277.937 293.863 276.871 289.481C275.804 285.065 274.798 280.646 273.851 276.227C266.213 240.767 265.892 204.266 273.006 169.606C276.941 152.401 282.299 135.592 289.79 119.873C297.253 104.222 306.608 89.633 317.33 76.5304C338.611 49.9564 366.595 30.6128 397.635 17.9671C401.515 16.3864 405.523 15.0395 409.5 13.6936C413.507 12.3467 417.484 10.9668 421.624 10.0572L433.974 6.9234C438.08 5.84517 442.355 5.40698 446.56 4.63134L452.886 3.58617L456.05 3.08055L459.25 2.77759L472.079 1.56483C476.383 1.09178 480.638 0.959903 484.922 0.793164L491.336 0.628352L497.333 0.578334C509.092 0.655385 520.654 1.11218 531.605 2.19924L535.756 2.58004L539.368 3.0115L546.534 3.91019L560.84 5.81031C626.656 14.9105 690.923 34.9611 752.473 61.2434C814.086 87.5917 872.898 120.378 930.091 155.082C936.817 159.221 944.241 162.625 952.106 165.744C959.999 168.794 968.051 172.144 976.364 175.215C984.62 178.39 993.085 181.524 1001.18 185.281C1009.19 189.21 1017 193.519 1024.18 198.561C1030.07 202.828 1037.17 207.362 1044.36 212.981C1051.61 218.496 1059.32 224.405 1066.94 230.452C1074.63 236.395 1081.91 242.996 1088.59 249.344C1095.26 255.692 1101.3 261.924 1106.16 267.683C1114.48 277.751 1122.33 289.123 1133.21 294.594C1145.79 300.793 1154.59 308.196 1160.17 315.868C1165.72 323.576 1167.8 331.832 1166.35 340.912C1163.49 359.069 1146.24 380.322 1115.38 408.348C1101.88 420.755 1090.99 443.067 1074.8 445.335C1074.15 445.423 1072.8 445.635 1072.09 445.861C1065.11 448.013 1058.82 449.261 1053.11 449.744C1050.26 449.968 1047.54 450.018 1044.98 449.893C1042.37 449.805 1039.85 449.611 1037.46 449.209C1027.88 447.639 1020.07 443.533 1013.06 438.078C1011.31 436.706 1009.62 435.264 1007.95 433.754C1006.23 432.313 1004.56 430.836 1002.89 429.291C999.589 426.201 996.369 422.939 993.148 419.676C986.65 413.22 980.317 406.318 972.761 401.526C936.505 376.565 898.72 354.505 860.251 334.572C821.697 314.777 782.337 297.079 742.116 282.533C701.896 268.02 660.978 256.178 619.697 247.133C609.346 245.076 599.045 242.712 588.641 240.895L557.472 235.85C547.051 234.44 536.61 233.372 526.193 232.098L518.367 231.186L511.662 230.647C507.305 230.408 502.978 230.134 498.93 230.158L495.389 230.098L494.251 230.167C493.472 230.191 492.755 230.282 492.067 230.337C490.662 230.482 489.257 230.662 487.886 230.942C485.145 231.502 482.411 232.334 479.905 233.737C474.861 236.474 471.232 242.293 471.069 248.649C470.817 255.008 473.436 261.142 476.696 265.694L478.072 267.485C478.323 267.851 478.415 267.916 478.763 268.517L479.744 270.151C480.407 271.217 481.011 272.319 481.764 273.383C483.24 275.544 484.597 277.71 486.163 279.835L488.511 283.023C489.294 284.086 489.984 285.083 491.077 286.476C499.196 296.821 506.895 307.179 515.928 317.02C525.266 327.973 537.041 337.253 547.701 347.35C558.93 357.395 569.073 368.221 577.4 382.363L577.086 381.931C600.108 404.755 625.893 425.726 649.401 451.659C659.834 463.121 670.328 474.616 680.853 486.143C691.599 498.037 702.4 509.759 713.376 522.291C723.322 533.531 733.465 545.341 742.894 557.31L771.778 593.13C774.299 596.074 776.344 599.169 778.538 602.226L785.091 611.397L798.197 629.739C802.525 635.854 807.005 641.998 811.213 648.117L822.431 666.518L833.649 684.918L839.243 694.119L842.025 698.719C842.761 700.225 843.316 701.668 843.992 703.176C849.098 715.007 854.204 726.838 859.278 738.636L863.062 747.485C863.829 749.023 863.928 750.277 864.3 751.624L865.234 755.637C866.449 760.965 867.695 766.327 868.91 771.656C870.125 776.984 871.339 782.313 872.554 787.641C873.086 790.274 873.921 793.033 874.178 795.505C874.434 797.976 874.781 800.445 875.007 802.917C876.696 822.564 875.808 841.339 872.206 860.606C870.254 870.177 867.8 880.034 864.055 889.864L861.197 897.323C860.103 899.768 858.888 902.183 857.764 904.596C855.275 909.462 852.816 914.327 850.328 919.193C845.907 925.579 841.716 931.653 837.67 937.552C835.474 940.235 833.306 942.884 831.135 945.396C828.898 947.741 826.663 950.154 824.422 952.363C819.827 956.989 815.887 965.364 808.978 970.809Z" fill="#ECD6FE"/>
</svg>