<svg width="223" height="283" viewBox="0 0 223 283" fill="none" xmlns="http://www.w3.org/2000/svg">
<path d="M89.1895 222.835C-40.9953 98.0206 84.1796 53.7225 163.041 47.1726C207.043 39.0958 233.733 82.4265 241.577 105.104C266.281 307.437 150.282 267.889 89.1895 222.835Z" fill="#F5E8FF"/>
<path d="M54.3995 118.686C57.2438 122.625 62.7427 123.511 66.6815 120.666C70.6203 117.821 71.5075 112.322 68.6631 108.383C65.8188 104.444 60.3199 103.557 56.3811 106.402C52.4423 109.247 51.5551 114.747 54.3995 118.686Z" fill="#FBF5FF"/>
<path d="M59.5945 155.923C62.4389 159.862 67.9378 160.749 71.8766 157.903C75.8154 155.058 76.7026 149.559 73.8582 145.62C71.0138 141.681 65.515 140.795 61.5762 143.64C57.6374 146.485 56.7502 151.984 59.5945 155.923Z" fill="#FBF5FF"/>
<path d="M83.9934 193.154C86.8377 197.092 92.3366 197.979 96.2754 195.134C100.214 192.289 101.101 186.79 98.2571 182.851C95.4127 178.912 89.9139 178.025 85.9751 180.87C82.0362 183.715 81.149 189.215 83.9934 193.154Z" fill="#FBF5FF"/>
<path d="M176.291 222.424L194.213 75.7224C191.704 89.2464 177.277 115.005 154.945 124.856C135.766 133.31 129.738 133.04 134.634 132.241M134.634 132.241C127.174 133.46 112.268 135.171 108.559 121.676C104.844 108.201 113.807 100.735 118.745 98.705C124.781 96.2598 138.012 94.9536 142.627 109.303C147.24 123.651 139.225 130.567 134.634 132.241Z" stroke="#FBF5FF" stroke-width="10" stroke-linecap="round"/>
</svg>
