<svg width="46" height="30" viewBox="0 0 46 30" fill="none" xmlns="http://www.w3.org/2000/svg">
<rect x="0.5" y="0.5" width="45" height="29" rx="11.5" fill="white"/>
<rect x="0.5" y="0.5" width="45" height="29" rx="11.5" stroke="#CCCCCC"/>
<path fill-rule="evenodd" clip-rule="evenodd" d="M8.79228 10.5L4.59961 19.5765H9.61883L10.2411 18.1294H11.6634L12.2856 19.5765H17.8103V18.472L18.3026 19.5765H21.1605L21.6528 18.4487V19.5765H33.1427L34.5399 18.1669L35.8481 19.5765L41.7496 19.5882L37.5436 15.0636L41.7496 10.5H35.9396L34.5796 11.8835L33.3126 10.5H20.813L19.7396 12.8427L18.6411 10.5H13.6324V11.5669L13.0752 10.5H8.79228ZM25.9502 11.7889H32.5483L34.5663 13.9214L36.6494 11.7889H38.6675L35.6013 15.0623L38.6675 18.2981H36.5579L34.5399 16.1408L32.4461 18.2981H25.9502V11.7889ZM27.5796 14.3263V13.1363H31.6966L33.493 15.0377L31.617 16.9495H27.5796V15.6515H31.1791V14.3263H27.5796ZM9.76348 11.7889H12.2101L14.9911 17.9437V11.7889H17.6712L19.8192 16.2019L21.7989 11.7889H24.4656V18.3019H22.843L22.8297 13.1983L20.464 18.3019H19.0125L16.6335 13.1983V18.3019H13.2954L12.6625 16.8418H9.24339L8.61184 18.3006H6.82328L9.76348 11.7889ZM9.8272 15.492L10.9537 12.8909L12.0788 15.492H9.8272Z" fill="#1F72CD"/>
</svg>
