<svg width="24" height="24" viewBox="0 0 24 24" fill="none" xmlns="http://www.w3.org/2000/svg">
<path d="M12 5.99997V7.78997C12 8.23997 12.54 8.45997 12.85 8.13997L15.64 5.34997C15.84 5.14997 15.84 4.83997 15.64 4.63997L12.85 1.84997C12.7795 1.78087 12.6901 1.73418 12.5931 1.71579C12.4962 1.69739 12.3959 1.70812 12.305 1.74662C12.2141 1.78512 12.1366 1.84967 12.0823 1.93212C12.0281 2.01458 11.9994 2.11125 12 2.20997V3.99997C7.58 3.99997 4 7.57997 4 12C4 13.04 4.2 14.04 4.57 14.95C4.84 15.62 5.7 15.8 6.21 15.29C6.48 15.02 6.59 14.61 6.44 14.25C6.15 13.56 6 12.79 6 12C6 8.68997 8.69 5.99997 12 5.99997ZM17.79 8.70997C17.52 8.97997 17.41 9.39997 17.56 9.74997C17.84 10.45 18 11.21 18 12C18 15.31 15.31 18 12 18V16.21C12 15.76 11.46 15.54 11.15 15.86L8.36 18.65C8.16 18.85 8.16 19.16 8.36 19.36L11.15 22.15C11.2199 22.2185 11.3083 22.265 11.4044 22.2837C11.5005 22.3024 11.5999 22.2926 11.6904 22.2553C11.7809 22.218 11.8585 22.155 11.9135 22.0741C11.9686 21.9931 11.9986 21.8978 12 21.8V20C16.42 20 20 16.42 20 12C20 10.96 19.8 9.95997 19.43 9.04997C19.16 8.37997 18.3 8.19997 17.79 8.70997Z" fill="black"/>
</svg>
