<svg width="31" height="36" viewBox="0 0 31 36" fill="none" xmlns="http://www.w3.org/2000/svg">
<g clip-path="url(#clip0_16265_39244)">
<path d="M26.2974 2.80218C24.61 0.908959 21.5599 0.0972901 17.6579 0.0972901H6.33324C5.94715 0.0972314 5.57372 0.232792 5.2801 0.479588C4.98649 0.726383 4.79197 1.06821 4.73153 1.44359L0.0161428 30.8834C-0.0775838 31.4639 0.379061 31.9896 0.97678 31.9896H7.96825L9.72411 21.0262L9.66962 21.3695C9.79471 20.5945 10.468 20.0229 11.2653 20.0229H14.5876C21.1143 20.0229 26.2248 17.4133 27.7177 9.86414C27.762 9.64087 27.8004 9.42356 27.8336 9.21125C27.6451 9.11302 27.6451 9.11302 27.8336 9.21125C28.2781 6.42101 27.8305 4.52171 26.2974 2.80218Z" fill="#27346A"/>
<path d="M12.3993 8.20611C12.5904 8.11638 12.7995 8.06994 13.0112 8.07022H21.8896C22.9409 8.07022 23.9215 8.13757 24.8176 8.27954C25.0683 8.31893 25.3178 8.36592 25.5656 8.42044C25.9168 8.49675 26.264 8.59012 26.6058 8.70022C27.0463 8.84505 27.4566 9.01373 27.8337 9.21125C28.2781 6.41994 27.8305 4.52171 26.2974 2.80218C24.6091 0.908959 21.5599 0.09729 17.6579 0.09729H6.33227C5.53487 0.09729 4.8565 0.66876 4.73153 1.44359L0.0161434 30.8823C-0.0775831 31.4638 0.379061 31.9888 0.975811 31.9888H7.96825L11.6111 9.24797C11.647 9.02445 11.7374 8.81286 11.8747 8.63137C12.012 8.44989 12.192 8.30395 12.3993 8.20611Z" fill="#27346A"/>
<path d="M27.7195 9.86407C26.2267 17.4121 21.1163 20.0229 14.5895 20.0229H11.2662C10.4689 20.0229 9.79547 20.5945 9.6716 21.3694L7.48718 35.0011C7.40557 35.5092 7.80469 35.9696 8.32685 35.9696H14.2205C14.5581 35.9695 14.8846 35.8508 15.1413 35.6349C15.3979 35.419 15.5679 35.1201 15.6207 34.7918L15.6781 34.4962L16.7889 27.5661L16.8604 27.183C16.9132 26.8548 17.0832 26.5559 17.3398 26.34C17.5965 26.1241 17.9229 26.0054 18.2605 26.0053H19.1426C24.8518 26.0053 29.3222 23.722 30.6286 17.1185C31.1738 14.3589 30.8917 12.0549 29.4492 10.4366C29.0117 9.94644 28.4684 9.54162 27.8354 9.21118C27.8011 9.42456 27.764 9.6408 27.7195 9.86407Z" fill="#2790C3"/>
<path d="M26.2725 8.59803C26.0397 8.53113 25.8048 8.47189 25.568 8.42042C25.32 8.36676 25.0706 8.32009 24.82 8.28047C23.9229 8.13754 22.943 8.07007 21.8907 8.07007H13.0135C12.8016 8.06972 12.5924 8.11655 12.4016 8.20704C12.194 8.30453 12.0138 8.45036 11.8764 8.63191C11.739 8.81345 11.6487 9.02523 11.6132 9.24889L9.72637 21.0261L9.67188 21.3694C9.796 20.5945 10.4693 20.0229 11.2667 20.0229H14.59C21.1167 20.0229 26.2271 17.4133 27.7199 9.86411C27.7644 9.64084 27.8017 9.42448 27.8359 9.21122C27.458 9.01493 27.0487 8.8449 26.608 8.70114C26.4969 8.66485 26.385 8.63047 26.2726 8.59803" fill="#1F264F"/>
</g>
<defs>
<clipPath id="clip0_16265_39244">
<rect width="31" height="36" fill="white"/>
</clipPath>
</defs>
</svg>
