<svg width="58" height="38" viewBox="0 0 58 38" fill="none" xmlns="http://www.w3.org/2000/svg">
<rect x="0.5" y="0.5" width="57" height="37" rx="11.5" fill="white"/>
<rect x="0.5" y="0.5" width="57" height="37" rx="11.5" stroke="#CCCCCC"/>
<path d="M39.2701 12.461C38.5557 12.1825 37.4227 11.875 36.0217 11.875C32.4452 11.875 29.9266 13.7493 29.9112 16.429C29.8815 18.4061 31.7144 19.5042 33.0853 20.1634C34.4865 20.8371 34.9628 21.2767 34.9628 21.8772C34.9485 22.7993 33.8305 23.2244 32.7878 23.2244C31.3419 23.2244 30.5671 23.0053 29.3897 22.4922L28.9128 22.2723L28.406 25.3623C29.2554 25.7426 30.8204 26.0801 32.4452 26.0949C36.2453 26.0949 38.7193 24.2495 38.7486 21.3939C38.7631 19.8269 37.7952 18.6262 35.7086 17.6451C34.4419 17.0152 33.6662 16.5906 33.6662 15.9461C33.681 15.3603 34.3223 14.7602 35.7522 14.7602C36.9296 14.7308 37.7946 15.009 38.45 15.2873L38.7776 15.4335L39.2701 12.461Z" fill="#3362AB"/>
<path d="M26.1411 25.8897H22.5195L24.7847 12.1245H28.4062L26.1411 25.8897Z" fill="#3362AB"/>
<path fill-rule="evenodd" clip-rule="evenodd" d="M48.5541 12.1245H45.7527C44.8889 12.1245 44.2325 12.3733 43.8598 13.2666L38.4803 25.8895H42.2804C42.2804 25.8895 42.906 24.1906 43.0405 23.8247H47.6904C47.7944 24.3079 48.1226 25.8895 48.1226 25.8895H51.4759L48.5541 12.1245ZM44.0836 21.0132C44.3819 20.2224 45.5295 17.1618 45.5295 17.1618C45.5235 17.1736 45.5702 17.0464 45.6398 16.8568L45.6406 16.8545L45.6412 16.853C45.7451 16.5697 45.8995 16.1494 46.006 15.8439L46.2592 17.03C46.2592 17.03 46.945 20.325 47.0939 21.0132H44.0836Z" fill="#3362AB"/>
<path d="M19.4945 12.1245L15.9477 21.5111L15.5601 19.6074L15.5597 19.6062L14.2934 13.2816C14.0848 12.4025 13.4439 12.1535 12.6541 12.1245H6.82719L6.76758 12.4026C8.18875 12.7598 9.45985 13.2745 10.5736 13.9144L13.8016 25.8751H17.6315L23.3241 12.1245H19.4945Z" fill="#3362AB"/>
</svg>
