<svg width="111" height="102" viewBox="0 0 111 102" fill="none" xmlns="http://www.w3.org/2000/svg">
<path d="M49.4895 4.99995L51.7914 11.6575L54.0933 18.315C57.6926 28.7249 54.9411 30.9772 47.8162 38.6446C40.6913 46.3119 33.4019 54.2891 30.6478 57.3192C28.0025 60.4021 22.7024 68.7395 22.6643 77.4257C22.6262 86.1119 24.7315 93.8764 25.7889 96.6728" stroke="url(#paint0_linear_3924_37153)" stroke-width="10" stroke-linecap="round"/>
<path d="M46.4669 64.2279C25.8608 70.7939 22.9416 89.1922 24.0577 97.5707C24.1229 98.1704 24.7545 98.624 25.3099 98.8916C25.6642 99.0623 26.0607 99.1096 26.454 99.1096H106.997C109.47 99.3148 110.088 97.1432 110.088 96.0318V17.1006C110.088 16.717 110.041 16.3307 109.903 15.9726C108.819 13.1479 106.858 14.0961 105.967 14.9833L101.595 19.9902C101.086 20.5725 100.418 21.0008 99.6688 21.1926C91.7706 23.2157 87.7147 21.862 86.6489 20.8824L81.2696 15.526C80.9096 15.1675 80.4887 14.8629 79.9998 14.7246C78.2726 14.236 77.2471 14.9172 76.7269 15.6848C76.3856 16.1884 76.4191 16.828 76.4883 17.4324C77.0119 22.0051 75.9552 32.5377 75.3155 37.5538C74.2852 43.7093 67.0731 57.662 46.4669 64.2279Z" fill="#E9BB17"/>
<path d="M41.46 95.5843V90.4527C43.7692 90.4527 43.7692 90.4527 43.7692 88.4V78.1367H48.1311C48.0456 80.7881 48.1311 86.5412 48.1311 88.4C48.1311 90.4527 48.1311 90.4527 50.1838 90.4527V95.5843H41.46Z" fill="#FEFCFF"/>
<path d="M52.2363 95.5838V90.4522C54.5456 90.4522 54.5456 90.4522 54.5456 88.1882V77.623H58.9075C58.8219 80.3524 58.9075 86.2748 58.9075 88.1882C58.9075 90.4522 58.9075 90.4522 60.9601 90.4522V95.5838H52.2363Z" fill="#FEFCFF"/>
<path d="M84.5654 95.5838V89.939C86.4128 89.939 86.8747 89.939 86.8747 88.1882V77.623H91.2366C91.151 80.3524 91.2366 86.2754 91.2366 88.1882C91.2366 90.1956 91.2366 89.939 93.2892 89.939V95.5838H84.5654Z" fill="#FEFCFF"/>
<path d="M71.7365 95.5838H63.0127V90.4522C65.3219 90.4522 65.3219 90.7087 65.3219 88.8031V77.623H71.7365V95.5838Z" fill="#FEFCFF"/>
<path d="M104.579 95.5838H95.8555V89.939C98.4213 89.939 98.1647 89.939 98.1647 88.4876V77.623H104.579V95.5838Z" fill="#FEFCFF"/>
<path d="M73.7894 95.5838H82.5132V89.939C80.2039 89.939 80.2039 89.939 80.2039 88.4876V77.623H73.7894V95.5838Z" fill="#FEFCFF"/>
<path d="M38.8942 95.5844V90.4527C36.585 90.4527 36.585 90.1962 36.585 88.1523V80.1895C32.4797 82.9499 30.9402 91.6029 30.6836 95.5844H38.8942Z" fill="#FEFCFF"/>
<circle cx="86.7339" cy="32.2495" r="6.58739" fill="white"/>
<circle cx="99.9082" cy="32.2495" r="6.58739" fill="white"/>
<path d="M89.6939 32.8501C89.9332 32.8501 90.1301 33.0449 90.0997 33.2823C90.065 33.5531 89.9978 33.8187 89.8993 34.0724C89.7488 34.4599 89.5283 34.812 89.2502 35.1086C88.9722 35.4051 88.6421 35.6404 88.2788 35.8009C87.9155 35.9614 87.5262 36.044 87.1329 36.044C86.7397 36.044 86.3504 35.9614 85.9871 35.8009C85.6238 35.6404 85.2937 35.4051 85.0157 35.1086C84.7376 34.812 84.5171 34.4599 84.3666 34.0724C84.2681 33.8187 84.2009 33.5531 84.1662 33.2823C84.1358 33.0449 84.3327 32.8501 84.572 32.8501C84.8113 32.8501 85.0013 33.0457 85.044 33.2811C85.0711 33.4306 85.1123 33.5773 85.1672 33.7187C85.2741 33.994 85.4309 34.2442 85.6284 34.4549C85.826 34.6657 86.0606 34.8329 86.3187 34.9469C86.5768 35.061 86.8535 35.1197 87.1329 35.1197C87.4124 35.1197 87.689 35.061 87.9472 34.9469C88.2053 34.8329 88.4399 34.6657 88.6374 34.4549C88.835 34.2442 88.9917 33.994 89.0987 33.7187C89.1536 33.5773 89.1948 33.4306 89.2219 33.2811C89.2646 33.0457 89.4546 32.8501 89.6939 32.8501Z" fill="#292626"/>
<path d="M102.868 32.8501C103.108 32.8501 103.304 33.0449 103.274 33.2823C103.239 33.5531 103.172 33.8187 103.074 34.0724C102.923 34.4599 102.703 34.812 102.425 35.1086C102.146 35.4051 101.816 35.6404 101.453 35.8009C101.09 35.9614 100.7 36.044 100.307 36.044C99.914 36.044 99.5247 35.9614 99.1614 35.8009C98.7981 35.6404 98.468 35.4051 98.19 35.1086C97.9119 34.812 97.6914 34.4599 97.5409 34.0724C97.4424 33.8187 97.3752 33.5531 97.3405 33.2823C97.3101 33.0449 97.507 32.8501 97.7463 32.8501C97.9856 32.8501 98.1756 33.0457 98.2183 33.2811C98.2454 33.4306 98.2866 33.5773 98.3415 33.7187C98.4484 33.994 98.6052 34.2442 98.8027 34.4549C99.0003 34.6657 99.2349 34.8329 99.493 34.9469C99.7512 35.061 100.028 35.1197 100.307 35.1197C100.587 35.1197 100.863 35.061 101.121 34.9469C101.38 34.8329 101.614 34.6657 101.812 34.4549C102.009 34.2442 102.166 33.994 102.273 33.7187C102.328 33.5773 102.369 33.4306 102.396 33.2811C102.439 33.0457 102.629 32.8501 102.868 32.8501Z" fill="#292626"/>
<path d="M91.0259 41.3301C91.8909 42.2616 94.1 43.5658 96.0163 41.3301" stroke="black" stroke-linecap="round"/>
<path d="M78.0186 14.9805C77.5529 18.1078 77.7791 24.0032 82.4102 22.5659C87.0414 21.1287 81.4121 16.9101 78.0186 14.9805Z" fill="#6F219E"/>
<path d="M108.731 14.5945C109.429 17.6785 109.642 23.5744 104.916 22.4858C100.191 21.3972 105.491 16.7714 108.731 14.5945Z" fill="#6F219E"/>
<defs>
<linearGradient id="paint0_linear_3924_37153" x1="24.1538" y1="96.8242" x2="26.7488" y2="27.1575" gradientUnits="userSpaceOnUse">
<stop stop-color="#E9BB17"/>
<stop offset="0.0001" stop-color="#CCA20F"/>
<stop offset="1" stop-color="#E9BB17"/>
</linearGradient>
</defs>
</svg>
