<svg width="120" height="120" viewBox="0 0 120 120" fill="none" xmlns="http://www.w3.org/2000/svg">
<rect width="120" height="120" rx="60" fill="#F8D867"/>
<g clip-path="url(#clip0_5548_78351)">
<path d="M59.9999 94.8333C61.2138 94.8333 62.4277 94.7542 63.6416 94.5958C64.8555 94.4375 66.0694 94.2264 67.2833 93.9625C71.9277 97.3931 77.034 98.6201 82.602 97.6437C88.1701 96.6674 92.4319 93.6986 95.3875 88.7375C97.7625 84.8319 98.5277 80.6361 97.6833 76.15C96.8388 71.6639 94.8069 67.8903 91.5874 64.8292V64.5917C94.8597 61.5833 96.8916 57.8757 97.6833 53.4688C98.4749 49.0618 97.7361 44.9056 95.4666 41C93.5138 37.675 90.8222 35.1549 87.3916 33.4396C83.9611 31.7243 80.3458 31.1306 76.5458 31.6583C74.8569 28.65 72.5479 26.2882 69.6187 24.5729C66.6895 22.8576 63.4833 22 59.9999 22C56.5166 22 53.3104 22.8576 50.3812 24.5729C47.452 26.2882 45.143 28.65 43.4541 31.6583C39.6541 31.1306 36.0388 31.7243 32.6083 33.4396C29.1777 35.1549 26.4861 37.675 24.5333 41C22.2638 44.9056 21.5249 49.0618 22.3166 53.4688C23.1083 57.8757 25.1402 61.5833 28.4124 64.5917V64.8292C25.193 67.8903 23.1611 71.6639 22.3166 76.15C21.4722 80.6361 22.2374 84.8319 24.6124 88.7375C27.568 93.6986 31.8298 96.6674 37.3979 97.6437C42.9659 98.6201 48.0722 97.3931 52.7166 93.9625C53.9305 94.2264 55.1444 94.4375 56.3583 94.5958C57.5722 94.7542 58.7861 94.8333 59.9999 94.8333ZM44.7999 90.875C42.0555 91.9306 39.2979 91.9174 36.527 90.8354C33.7562 89.7535 31.6055 87.9458 30.0749 85.4125C28.9666 83.5653 28.4124 81.5729 28.4124 79.4354C28.4124 77.2979 28.9402 75.2792 29.9958 73.3792C30.6291 75.2264 31.434 77.0076 32.4104 78.7229C33.3868 80.4382 34.5083 82.0347 35.7749 83.5125C37.0416 84.9903 38.4402 86.3493 39.9708 87.5896C41.5013 88.8299 43.1111 89.925 44.7999 90.875ZM75.1999 90.875C76.9416 89.925 78.5645 88.8299 80.0687 87.5896C81.5729 86.3493 82.9583 84.9903 84.2249 83.5125C85.4916 82.0347 86.6131 80.4382 87.5895 78.7229C88.5659 77.0076 89.3708 75.2264 90.0041 73.3792C91.0597 75.2792 91.5874 77.2979 91.5874 79.4354C91.5874 81.5729 91.0333 83.5653 89.9249 85.4125C88.3944 87.9458 86.2437 89.7535 83.4729 90.8354C80.702 91.9174 77.9444 91.9306 75.1999 90.875ZM59.9999 88.5C52.9277 88.5 46.9374 86.0458 42.0291 81.1375C37.1208 76.2292 34.6666 70.2389 34.6666 63.1667C34.6666 57.2556 36.4611 52.0306 40.0499 47.4917C43.6388 42.9528 48.1777 39.9972 53.6666 38.625C53.6666 44.0083 55.5534 48.5868 59.327 52.3604C63.1006 56.134 67.6791 58.0208 73.0624 58.0208C75.068 58.0208 76.9944 57.7306 78.8416 57.15C80.6888 56.5694 82.3777 55.7514 83.9083 54.6958C84.3833 56.0153 84.7395 57.3743 84.977 58.7729C85.2145 60.1715 85.3333 61.6361 85.3333 63.1667C85.3333 70.2389 82.8791 76.2292 77.9708 81.1375C73.0624 86.0458 67.0722 88.5 59.9999 88.5ZM50.4999 70.2917C49.3916 70.2917 48.4548 69.909 47.6895 69.1437C46.9243 68.3785 46.5416 67.4417 46.5416 66.3333C46.5416 65.225 46.9243 64.2882 47.6895 63.5229C48.4548 62.7576 49.3916 62.375 50.4999 62.375C51.6083 62.375 52.5451 62.7576 53.3104 63.5229C54.0756 64.2882 54.4583 65.225 54.4583 66.3333C54.4583 67.4417 54.0756 68.3785 53.3104 69.1437C52.5451 69.909 51.6083 70.2917 50.4999 70.2917ZM69.4999 70.2917C68.3916 70.2917 67.4548 69.909 66.6895 69.1437C65.9243 68.3785 65.5416 67.4417 65.5416 66.3333C65.5416 65.225 65.9243 64.2882 66.6895 63.5229C67.4548 62.7576 68.3916 62.375 69.4999 62.375C70.6083 62.375 71.5451 62.7576 72.3104 63.5229C73.0756 64.2882 73.4583 65.225 73.4583 66.3333C73.4583 67.4417 73.0756 68.3785 72.3104 69.1437C71.5451 69.909 70.6083 70.2917 69.4999 70.2917ZM29.4416 54.9333C28.5972 53.0861 28.2277 51.2389 28.3333 49.3917C28.4388 47.5444 29.0194 45.7764 30.0749 44.0875C31.2361 42.1347 32.7798 40.6042 34.7062 39.4958C36.6326 38.3875 38.7305 37.8333 40.9999 37.8333C39.6277 38.8889 38.3479 40.05 37.1604 41.3167C35.9729 42.5833 34.8777 43.9292 33.8749 45.3542C32.8722 46.7792 32.0013 48.2965 31.2624 49.9062C30.5236 51.516 29.9166 53.1917 29.4416 54.9333ZM90.5583 54.9333C90.0833 53.1917 89.4763 51.516 88.7374 49.9062C87.9986 48.2965 87.1277 46.7792 86.1249 45.3542C85.1222 43.9292 84.027 42.5833 82.8395 41.3167C81.652 40.05 80.3722 38.8889 78.9999 37.8333C81.2694 37.8333 83.3673 38.3875 85.2937 39.4958C87.2201 40.6042 88.7638 42.1347 89.9249 44.0875C90.9805 45.7764 91.5611 47.5444 91.6666 49.3917C91.7722 51.2389 91.4027 53.0861 90.5583 54.9333ZM73.0624 51.6875C69.4208 51.6875 66.3333 50.4208 63.7999 47.8875C61.2666 45.3542 59.9999 42.2667 59.9999 38.625V37.8333C62.2166 37.8333 64.3277 38.0972 66.3333 38.625C68.3388 39.1528 70.2388 39.9181 72.0333 40.9208C73.8277 41.9236 75.4902 43.0979 77.0208 44.4438C78.5513 45.7896 79.8708 47.3069 80.9791 48.9958C79.8708 49.8403 78.6569 50.5 77.3374 50.975C76.018 51.45 74.593 51.6875 73.0624 51.6875ZM68.7874 32.7667C67.4152 32.3444 65.9902 32.0278 64.5124 31.8167C63.0347 31.6056 61.5305 31.5 59.9999 31.5C58.4694 31.5 56.9652 31.6056 55.4874 31.8167C54.0097 32.0278 52.5847 32.3444 51.2124 32.7667C52.268 31.3944 53.5611 30.3125 55.0916 29.5208C56.6222 28.7292 58.2583 28.3333 59.9999 28.3333C61.7416 28.3333 63.3777 28.7292 64.9083 29.5208C66.4388 30.3125 67.7319 31.3944 68.7874 32.7667Z" fill="#59371D"/>
</g>
<defs>
<clipPath id="clip0_5548_78351">
<rect width="76" height="76" fill="white" transform="translate(22 22)"/>
</clipPath>
</defs>
</svg>
