<svg width="120" height="120" viewBox="0 0 120 120" fill="none" xmlns="http://www.w3.org/2000/svg">
<rect width="120" height="120" rx="60" fill="#75C973"/>
<path d="M60 39C59.5333 39 59.125 38.825 58.775 38.475C58.425 38.125 58.25 37.7167 58.25 37.25C58.25 36.7833 58.425 36.375 58.775 36.025C59.125 35.675 59.5333 35.5 60 35.5C60.4667 35.5 60.875 35.675 61.225 36.025C61.575 36.375 61.75 36.7833 61.75 37.25C61.75 37.7167 61.575 38.125 61.225 38.475C60.875 38.825 60.4667 39 60 39ZM67 39C66.5333 39 66.125 38.825 65.775 38.475C65.425 38.125 65.25 37.7167 65.25 37.25C65.25 36.7833 65.425 36.375 65.775 36.025C66.125 35.675 66.5333 35.5 67 35.5C67.4667 35.5 67.875 35.675 68.225 36.025C68.575 36.375 68.75 36.7833 68.75 37.25C68.75 37.7167 68.575 38.125 68.225 38.475C67.875 38.825 67.4667 39 67 39ZM53 39C52.5333 39 52.125 38.825 51.775 38.475C51.425 38.125 51.25 37.7167 51.25 37.25C51.25 36.7833 51.425 36.375 51.775 36.025C52.125 35.675 52.5333 35.5 53 35.5C53.4667 35.5 53.875 35.675 54.225 36.025C54.575 36.375 54.75 36.7833 54.75 37.25C54.75 37.7167 54.575 38.125 54.225 38.475C53.875 38.825 53.4667 39 53 39ZM77.5 42.5C77.0333 42.5 76.625 42.325 76.275 41.975C75.925 41.625 75.75 41.2167 75.75 40.75C75.75 40.2833 75.925 39.875 76.275 39.525C76.625 39.175 77.0333 39 77.5 39C77.9667 39 78.375 39.175 78.725 39.525C79.075 39.875 79.25 40.2833 79.25 40.75C79.25 41.2167 79.075 41.625 78.725 41.975C78.375 42.325 77.9667 42.5 77.5 42.5ZM49.5 42.5C49.0333 42.5 48.625 42.325 48.275 41.975C47.925 41.625 47.75 41.2167 47.75 40.75C47.75 40.2833 47.925 39.875 48.275 39.525C48.625 39.175 49.0333 39 49.5 39C49.9667 39 50.375 39.175 50.725 39.525C51.075 39.875 51.25 40.2833 51.25 40.75C51.25 41.2167 51.075 41.625 50.725 41.975C50.375 42.325 49.9667 42.5 49.5 42.5ZM42.5 42.5C42.0333 42.5 41.625 42.325 41.275 41.975C40.925 41.625 40.75 41.2167 40.75 40.75C40.75 40.2833 40.925 39.875 41.275 39.525C41.625 39.175 42.0333 39 42.5 39C42.9667 39 43.375 39.175 43.725 39.525C44.075 39.875 44.25 40.2833 44.25 40.75C44.25 41.2167 44.075 41.625 43.725 41.975C43.375 42.325 42.9667 42.5 42.5 42.5ZM56.5 42.5C56.0333 42.5 55.625 42.325 55.275 41.975C54.925 41.625 54.75 41.2167 54.75 40.75C54.75 40.2833 54.925 39.875 55.275 39.525C55.625 39.175 56.0333 39 56.5 39C56.9667 39 57.375 39.175 57.725 39.525C58.075 39.875 58.25 40.2833 58.25 40.75C58.25 41.2167 58.075 41.625 57.725 41.975C57.375 42.325 56.9667 42.5 56.5 42.5ZM63.5 42.5C63.0333 42.5 62.625 42.325 62.275 41.975C61.925 41.625 61.75 41.2167 61.75 40.75C61.75 40.2833 61.925 39.875 62.275 39.525C62.625 39.175 63.0333 39 63.5 39C63.9667 39 64.375 39.175 64.725 39.525C65.075 39.875 65.25 40.2833 65.25 40.75C65.25 41.2167 65.075 41.625 64.725 41.975C64.375 42.325 63.9667 42.5 63.5 42.5ZM70.5 42.5C70.0333 42.5 69.625 42.325 69.275 41.975C68.925 41.625 68.75 41.2167 68.75 40.75C68.75 40.2833 68.925 39.875 69.275 39.525C69.625 39.175 70.0333 39 70.5 39C70.9667 39 71.375 39.175 71.725 39.525C72.075 39.875 72.25 40.2833 72.25 40.75C72.25 41.2167 72.075 41.625 71.725 41.975C71.375 42.325 70.9667 42.5 70.5 42.5ZM60 46C59.5333 46 59.125 45.825 58.775 45.475C58.425 45.125 58.25 44.7167 58.25 44.25C58.25 43.7833 58.425 43.375 58.775 43.025C59.125 42.675 59.5333 42.5 60 42.5C60.4667 42.5 60.875 42.675 61.225 43.025C61.575 43.375 61.75 43.7833 61.75 44.25C61.75 44.7167 61.575 45.125 61.225 45.475C60.875 45.825 60.4667 46 60 46ZM67 46C66.5333 46 66.125 45.825 65.775 45.475C65.425 45.125 65.25 44.7167 65.25 44.25C65.25 43.7833 65.425 43.375 65.775 43.025C66.125 42.675 66.5333 42.5 67 42.5C67.4667 42.5 67.875 42.675 68.225 43.025C68.575 43.375 68.75 43.7833 68.75 44.25C68.75 44.7167 68.575 45.125 68.225 45.475C67.875 45.825 67.4667 46 67 46ZM74 46C73.5333 46 73.125 45.825 72.775 45.475C72.425 45.125 72.25 44.7167 72.25 44.25C72.25 43.7833 72.425 43.375 72.775 43.025C73.125 42.675 73.5333 42.5 74 42.5C74.4667 42.5 74.875 42.675 75.225 43.025C75.575 43.375 75.75 43.7833 75.75 44.25C75.75 44.7167 75.575 45.125 75.225 45.475C74.875 45.825 74.4667 46 74 46ZM53 46C52.5333 46 52.125 45.825 51.775 45.475C51.425 45.125 51.25 44.7167 51.25 44.25C51.25 43.7833 51.425 43.375 51.775 43.025C52.125 42.675 52.5333 42.5 53 42.5C53.4667 42.5 53.875 42.675 54.225 43.025C54.575 43.375 54.75 43.7833 54.75 44.25C54.75 44.7167 54.575 45.125 54.225 45.475C53.875 45.825 53.4667 46 53 46ZM46 46C45.5333 46 45.125 45.825 44.775 45.475C44.425 45.125 44.25 44.7167 44.25 44.25C44.25 43.7833 44.425 43.375 44.775 43.025C45.125 42.675 45.5333 42.5 46 42.5C46.4667 42.5 46.875 42.675 47.225 43.025C47.575 43.375 47.75 43.7833 47.75 44.25C47.75 44.7167 47.575 45.125 47.225 45.475C46.875 45.825 46.4667 46 46 46ZM49.5 49.5C49.0333 49.5 48.625 49.325 48.275 48.975C47.925 48.625 47.75 48.2167 47.75 47.75C47.75 47.2833 47.925 46.875 48.275 46.525C48.625 46.175 49.0333 46 49.5 46C49.9667 46 50.375 46.175 50.725 46.525C51.075 46.875 51.25 47.2833 51.25 47.75C51.25 48.2167 51.075 48.625 50.725 48.975C50.375 49.325 49.9667 49.5 49.5 49.5ZM42.5 49.5C42.0333 49.5 41.625 49.325 41.275 48.975C40.925 48.625 40.75 48.2167 40.75 47.75C40.75 47.2833 40.925 46.875 41.275 46.525C41.625 46.175 42.0333 46 42.5 46C42.9667 46 43.375 46.175 43.725 46.525C44.075 46.875 44.25 47.2833 44.25 47.75C44.25 48.2167 44.075 48.625 43.725 48.975C43.375 49.325 42.9667 49.5 42.5 49.5ZM56.5 49.5C56.0333 49.5 55.625 49.325 55.275 48.975C54.925 48.625 54.75 48.2167 54.75 47.75C54.75 47.2833 54.925 46.875 55.275 46.525C55.625 46.175 56.0333 46 56.5 46C56.9667 46 57.375 46.175 57.725 46.525C58.075 46.875 58.25 47.2833 58.25 47.75C58.25 48.2167 58.075 48.625 57.725 48.975C57.375 49.325 56.9667 49.5 56.5 49.5ZM63.5 49.5C63.0333 49.5 62.625 49.325 62.275 48.975C61.925 48.625 61.75 48.2167 61.75 47.75C61.75 47.2833 61.925 46.875 62.275 46.525C62.625 46.175 63.0333 46 63.5 46C63.9667 46 64.375 46.175 64.725 46.525C65.075 46.875 65.25 47.2833 65.25 47.75C65.25 48.2167 65.075 48.625 64.725 48.975C64.375 49.325 63.9667 49.5 63.5 49.5ZM70.5 49.5C70.0333 49.5 69.625 49.325 69.275 48.975C68.925 48.625 68.75 48.2167 68.75 47.75C68.75 47.2833 68.925 46.875 69.275 46.525C69.625 46.175 70.0333 46 70.5 46C70.9667 46 71.375 46.175 71.725 46.525C72.075 46.875 72.25 47.2833 72.25 47.75C72.25 48.2167 72.075 48.625 71.725 48.975C71.375 49.325 70.9667 49.5 70.5 49.5ZM77.5 49.5C77.0333 49.5 76.625 49.325 76.275 48.975C75.925 48.625 75.75 48.2167 75.75 47.75C75.75 47.2833 75.925 46.875 76.275 46.525C76.625 46.175 77.0333 46 77.5 46C77.9667 46 78.375 46.175 78.725 46.525C79.075 46.875 79.25 47.2833 79.25 47.75C79.25 48.2167 79.075 48.625 78.725 48.975C78.375 49.325 77.9667 49.5 77.5 49.5ZM35.5 49.5C35.0333 49.5 34.625 49.325 34.275 48.975C33.925 48.625 33.75 48.2167 33.75 47.75C33.75 47.2833 33.925 46.875 34.275 46.525C34.625 46.175 35.0333 46 35.5 46C35.9667 46 36.375 46.175 36.725 46.525C37.075 46.875 37.25 47.2833 37.25 47.75C37.25 48.2167 37.075 48.625 36.725 48.975C36.375 49.325 35.9667 49.5 35.5 49.5ZM39 46C38.5333 46 38.125 45.825 37.775 45.475C37.425 45.125 37.25 44.7167 37.25 44.25C37.25 43.7833 37.425 43.375 37.775 43.025C38.125 42.675 38.5333 42.5 39 42.5C39.4667 42.5 39.875 42.675 40.225 43.025C40.575 43.375 40.75 43.7833 40.75 44.25C40.75 44.7167 40.575 45.125 40.225 45.475C39.875 45.825 39.4667 46 39 46ZM46 39C45.5333 39 45.125 38.825 44.775 38.475C44.425 38.125 44.25 37.7167 44.25 37.25C44.25 36.7833 44.425 36.375 44.775 36.025C45.125 35.675 45.5333 35.5 46 35.5C46.4667 35.5 46.875 35.675 47.225 36.025C47.575 36.375 47.75 36.7833 47.75 37.25C47.75 37.7167 47.575 38.125 47.225 38.475C46.875 38.825 46.4667 39 46 39ZM49.5 35.5C49.0333 35.5 48.625 35.325 48.275 34.975C47.925 34.625 47.75 34.2167 47.75 33.75C47.75 33.2833 47.925 32.875 48.275 32.525C48.625 32.175 49.0333 32 49.5 32C49.9667 32 50.375 32.175 50.725 32.525C51.075 32.875 51.25 33.2833 51.25 33.75C51.25 34.2167 51.075 34.625 50.725 34.975C50.375 35.325 49.9667 35.5 49.5 35.5ZM56.5 35.5C56.0333 35.5 55.625 35.325 55.275 34.975C54.925 34.625 54.75 34.2167 54.75 33.75C54.75 33.2833 54.925 32.875 55.275 32.525C55.625 32.175 56.0333 32 56.5 32C56.9667 32 57.375 32.175 57.725 32.525C58.075 32.875 58.25 33.2833 58.25 33.75C58.25 34.2167 58.075 34.625 57.725 34.975C57.375 35.325 56.9667 35.5 56.5 35.5ZM63.5 35.5C63.0333 35.5 62.625 35.325 62.275 34.975C61.925 34.625 61.75 34.2167 61.75 33.75C61.75 33.2833 61.925 32.875 62.275 32.525C62.625 32.175 63.0333 32 63.5 32C63.9667 32 64.375 32.175 64.725 32.525C65.075 32.875 65.25 33.2833 65.25 33.75C65.25 34.2167 65.075 34.625 64.725 34.975C64.375 35.325 63.9667 35.5 63.5 35.5ZM70.5 35.5C70.0333 35.5 69.625 35.325 69.275 34.975C68.925 34.625 68.75 34.2167 68.75 33.75C68.75 33.2833 68.925 32.875 69.275 32.525C69.625 32.175 70.0333 32 70.5 32C70.9667 32 71.375 32.175 71.725 32.525C72.075 32.875 72.25 33.2833 72.25 33.75C72.25 34.2167 72.075 34.625 71.725 34.975C71.375 35.325 70.9667 35.5 70.5 35.5ZM74 39C73.5333 39 73.125 38.825 72.775 38.475C72.425 38.125 72.25 37.7167 72.25 37.25C72.25 36.7833 72.425 36.375 72.775 36.025C73.125 35.675 73.5333 35.5 74 35.5C74.4667 35.5 74.875 35.675 75.225 36.025C75.575 36.375 75.75 36.7833 75.75 37.25C75.75 37.7167 75.575 38.125 75.225 38.475C74.875 38.825 74.4667 39 74 39ZM81 46C80.5333 46 80.125 45.825 79.775 45.475C79.425 45.125 79.25 44.7167 79.25 44.25C79.25 43.7833 79.425 43.375 79.775 43.025C80.125 42.675 80.5333 42.5 81 42.5C81.4667 42.5 81.875 42.675 82.225 43.025C82.575 43.375 82.75 43.7833 82.75 44.25C82.75 44.7167 82.575 45.125 82.225 45.475C81.875 45.825 81.4667 46 81 46ZM84.5 49.5C84.0333 49.5 83.625 49.325 83.275 48.975C82.925 48.625 82.75 48.2167 82.75 47.75C82.75 47.2833 82.925 46.875 83.275 46.525C83.625 46.175 84.0333 46 84.5 46C84.9667 46 85.375 46.175 85.725 46.525C86.075 46.875 86.25 47.2833 86.25 47.75C86.25 48.2167 86.075 48.625 85.725 48.975C85.375 49.325 84.9667 49.5 84.5 49.5ZM49.5 67.875C48.275 67.875 47.2396 67.4521 46.3937 66.6063C45.5479 65.7604 45.125 64.725 45.125 63.5C45.125 62.275 45.5479 61.2396 46.3937 60.3937C47.2396 59.5479 48.275 59.125 49.5 59.125C50.725 59.125 51.7604 59.5479 52.6062 60.3937C53.4521 61.2396 53.875 62.275 53.875 63.5C53.875 64.725 53.4521 65.7604 52.6062 66.6063C51.7604 67.4521 50.725 67.875 49.5 67.875ZM70.5 67.875C69.275 67.875 68.2396 67.4521 67.3937 66.6063C66.5479 65.7604 66.125 64.725 66.125 63.5C66.125 62.275 66.5479 61.2396 67.3937 60.3937C68.2396 59.5479 69.275 59.125 70.5 59.125C71.725 59.125 72.7604 59.5479 73.6063 60.3937C74.4521 61.2396 74.875 62.275 74.875 63.5C74.875 64.725 74.4521 65.7604 73.6063 66.6063C72.7604 67.4521 71.725 67.875 70.5 67.875ZM60 95C55.2167 95 50.6958 94.0812 46.4375 92.2438C42.1792 90.4062 38.4604 87.8979 35.2812 84.7188C32.1021 81.5396 29.5938 77.8208 27.7562 73.5625C25.9187 69.3042 25 64.7833 25 60C25 55.1583 25.9187 50.6083 27.7562 46.35C29.5938 42.0917 32.1021 38.3875 35.2812 35.2375C38.4604 32.0875 42.1792 29.5938 46.4375 27.7562C50.6958 25.9187 55.2167 25 60 25C64.8417 25 69.3917 25.9187 73.65 27.7562C77.9083 29.5938 81.6125 32.0875 84.7625 35.2375C87.9125 38.3875 90.4062 42.0917 92.2438 46.35C94.0812 50.6083 95 55.1583 95 60C95 64.7833 94.0812 69.3042 92.2438 73.5625C90.4062 77.8208 87.9125 81.5396 84.7625 84.7188C81.6125 87.8979 77.9083 90.4062 73.65 92.2438C69.3917 94.0812 64.8417 95 60 95ZM60 88C67.8167 88 74.4375 85.2729 79.8625 79.8187C85.2875 74.3646 88 67.7583 88 60C88 52.1833 85.2875 45.5625 79.8625 40.1375C74.4375 34.7125 67.8167 32 60 32C52.2417 32 45.6354 34.7125 40.1812 40.1375C34.7271 45.5625 32 52.1833 32 60C32 67.7583 34.7271 74.3646 40.1812 79.8187C45.6354 85.2729 52.2417 88 60 88Z" fill="#59371D"/>
</svg>
