<svg width="120" height="120" viewBox="0 0 120 120" fill="none" xmlns="http://www.w3.org/2000/svg">
<rect width="120" height="120" rx="60" fill="#F6AD69"/>
<g clip-path="url(#clip0_5548_78355)">
<path d="M60.0005 79C67.0727 79 73.063 76.5326 77.9713 71.5979C82.8796 66.6632 85.3338 60.6861 85.3338 53.6667C85.3338 52.0306 85.2019 50.4604 84.938 48.9562C84.6741 47.4521 84.2519 45.9875 83.6713 44.5625C82.2463 45.4597 80.7421 46.1458 79.1588 46.6208C77.5755 47.0958 75.9394 47.3333 74.2505 47.3333C71.4005 47.3333 68.722 46.6868 66.2151 45.3937C63.7081 44.1007 61.6366 42.2667 60.0005 39.8917C58.3644 42.2667 56.2928 44.1007 53.7859 45.3937C51.279 46.6868 48.6005 47.3333 45.7505 47.3333C44.0616 47.3333 42.4255 47.0958 40.8421 46.6208C39.2588 46.1458 37.7546 45.4597 36.3296 44.5625C35.7491 45.9875 35.3269 47.4521 35.063 48.9562C34.7991 50.4604 34.6671 52.0306 34.6671 53.6667C34.6671 60.6861 37.1345 66.6632 42.0692 71.5979C47.004 76.5326 52.981 79 60.0005 79ZM50.5005 60.7917C51.6088 60.7917 52.5456 60.409 53.3109 59.6437C54.0762 58.8785 54.4588 57.9417 54.4588 56.8333C54.4588 55.725 54.0762 54.7882 53.3109 54.0229C52.5456 53.2576 51.6088 52.875 50.5005 52.875C49.3921 52.875 48.4553 53.2576 47.6901 54.0229C46.9248 54.7882 46.5421 55.725 46.5421 56.8333C46.5421 57.9417 46.9248 58.8785 47.6901 59.6437C48.4553 60.409 49.3921 60.7917 50.5005 60.7917ZM69.5005 60.7917C70.6088 60.7917 71.5456 60.409 72.3109 59.6437C73.0762 58.8785 73.4588 57.9417 73.4588 56.8333C73.4588 55.725 73.0762 54.7882 72.3109 54.0229C71.5456 53.2576 70.6088 52.875 69.5005 52.875C68.3921 52.875 67.4553 53.2576 66.6901 54.0229C65.9248 54.7882 65.5421 55.725 65.5421 56.8333C65.5421 57.9417 65.9248 58.8785 66.6901 59.6437C67.4553 60.409 68.3921 60.7917 69.5005 60.7917ZM45.7505 41C48.8116 41 51.4241 39.9181 53.588 37.7542C55.7519 35.5903 56.8338 32.9778 56.8338 29.9167V28.4917C53.2449 28.9139 49.9463 30.0486 46.938 31.8958C43.9296 33.7431 41.4227 36.0917 39.4171 38.9417C40.3671 39.575 41.3699 40.0764 42.4255 40.4458C43.481 40.8153 44.5894 41 45.7505 41ZM74.2505 41C75.4116 41 76.5199 40.8285 77.5755 40.4854C78.631 40.1424 79.6338 39.6278 80.5838 38.9417C78.5783 36.0917 76.0845 33.7431 73.1026 31.8958C70.1206 30.0486 66.8088 28.9139 63.1671 28.4917V29.9167C63.1671 32.9778 64.2491 35.5903 66.413 37.7542C68.5769 39.9181 71.1894 41 74.2505 41ZM28.9671 91.6667C27.1199 91.6667 25.563 90.9806 24.2963 89.6083C23.0296 88.2361 22.4755 86.6264 22.6338 84.7792L25.4838 53.5083C25.906 49.075 27.1067 44.9319 29.0859 41.0792C31.0651 37.2264 33.5984 33.8882 36.6859 31.0646C39.7734 28.241 43.3095 26.0243 47.2942 24.4146C51.279 22.8049 55.5144 22 60.0005 22C64.4866 22 68.722 22.8049 72.7067 24.4146C76.6915 26.0243 80.2276 28.241 83.3151 31.0646C86.4026 33.8882 88.9359 37.2264 90.9151 41.0792C92.8942 44.9319 94.0949 49.075 94.5172 53.5083L97.3671 84.7792C97.5255 86.6264 96.9713 88.2361 95.7047 89.6083C94.438 90.9806 92.881 91.6667 91.0338 91.6667H28.9671ZM60.0005 85.3333C53.4033 85.3333 47.4658 83.4993 42.188 79.8312C36.9102 76.1632 33.0838 71.4528 30.7088 65.7L28.9671 85.3333H91.0338L89.2921 65.7C86.9171 71.4528 83.104 76.1632 77.8526 79.8312C72.6012 83.4993 66.6505 85.3333 60.0005 85.3333ZM60.0005 85.3333H91.0338H28.9671H60.0005Z" fill="#59371D"/>
</g>
<defs>
<clipPath id="clip0_5548_78355">
<rect width="76" height="76" fill="white" transform="translate(22 22)"/>
</clipPath>
</defs>
</svg>
