<svg width="120" height="120" viewBox="0 0 120 120" fill="none" xmlns="http://www.w3.org/2000/svg">
<rect width="120" height="120" rx="60" fill="#F8D867"/>
<path d="M72.25 56.5C73.7083 56.5 74.9479 55.9896 75.9688 54.9688C76.9896 53.9479 77.5 52.7083 77.5 51.25C77.5 49.7917 76.9896 48.5521 75.9688 47.5312C74.9479 46.5104 73.7083 46 72.25 46C70.7917 46 69.5521 46.5104 68.5312 47.5312C67.5104 48.5521 67 49.7917 67 51.25C67 52.7083 67.5104 53.9479 68.5312 54.9688C69.5521 55.9896 70.7917 56.5 72.25 56.5ZM47.75 56.5C49.2083 56.5 50.4479 55.9896 51.4688 54.9688C52.4896 53.9479 53 52.7083 53 51.25C53 49.7917 52.4896 48.5521 51.4688 47.5312C50.4479 46.5104 49.2083 46 47.75 46C46.2917 46 45.0521 46.5104 44.0312 47.5312C43.0104 48.5521 42.5 49.7917 42.5 51.25C42.5 52.7083 43.0104 53.9479 44.0312 54.9688C45.0521 55.9896 46.2917 56.5 47.75 56.5ZM60 79.25C63.9667 79.25 67.5687 78.1271 70.8062 75.8812C74.0438 73.6354 76.3917 70.675 77.85 67H42.15C43.6083 70.675 45.9562 73.6354 49.1938 75.8812C52.4312 78.1271 56.0333 79.25 60 79.25ZM60 95C55.1583 95 50.6083 94.0812 46.35 92.2438C42.0917 90.4062 38.3875 87.9125 35.2375 84.7625C32.0875 81.6125 29.5938 77.9083 27.7562 73.65C25.9187 69.3917 25 64.8417 25 60C25 55.1583 25.9187 50.6083 27.7562 46.35C29.5938 42.0917 32.0875 38.3875 35.2375 35.2375C38.3875 32.0875 42.0917 29.5938 46.35 27.7562C50.6083 25.9187 55.1583 25 60 25C64.8417 25 69.3917 25.9187 73.65 27.7562C77.9083 29.5938 81.6125 32.0875 84.7625 35.2375C87.9125 38.3875 90.4062 42.0917 92.2438 46.35C94.0812 50.6083 95 55.1583 95 60C95 64.8417 94.0812 69.3917 92.2438 73.65C90.4062 77.9083 87.9125 81.6125 84.7625 84.7625C81.6125 87.9125 77.9083 90.4062 73.65 92.2438C69.3917 94.0812 64.8417 95 60 95ZM60 88C67.8167 88 74.4375 85.2875 79.8625 79.8625C85.2875 74.4375 88 67.8167 88 60C88 52.1833 85.2875 45.5625 79.8625 40.1375C74.4375 34.7125 67.8167 32 60 32C52.1833 32 45.5625 34.7125 40.1375 40.1375C34.7125 45.5625 32 52.1833 32 60C32 67.8167 34.7125 74.4375 40.1375 79.8625C45.5625 85.2875 52.1833 88 60 88Z" fill="#59371D"/>
</svg>
