<svg width="120" height="120" viewBox="0 0 120 120" fill="none" xmlns="http://www.w3.org/2000/svg">
<rect width="120" height="120" rx="60" fill="#FF8080"/>
<g clip-path="url(#clip0_5548_78362)">
<path d="M49.5 74.875C48.275 74.875 47.2396 74.4521 46.3937 73.6063C45.5479 72.7604 45.125 71.725 45.125 70.5C45.125 69.275 45.5479 68.2396 46.3937 67.3937C47.2396 66.5479 48.275 66.125 49.5 66.125C50.725 66.125 51.7604 66.5479 52.6063 67.3937C53.4521 68.2396 53.875 69.275 53.875 70.5C53.875 71.725 53.4521 72.7604 52.6063 73.6063C51.7604 74.4521 50.725 74.875 49.5 74.875ZM70.5 74.875C69.275 74.875 68.2396 74.4521 67.3937 73.6063C66.5479 72.7604 66.125 71.725 66.125 70.5C66.125 69.275 66.5479 68.2396 67.3937 67.3937C68.2396 66.5479 69.275 66.125 70.5 66.125C71.725 66.125 72.7604 66.5479 73.6063 67.3937C74.4521 68.2396 74.875 69.275 74.875 70.5C74.875 71.725 74.4521 72.7604 73.6063 73.6063C72.7604 74.4521 71.725 74.875 70.5 74.875ZM60 95C67.8167 95 74.4375 92.2875 79.8625 86.8625C85.2875 81.4375 88 74.8167 88 67C88 65.6 87.9125 64.2437 87.7375 62.9312C87.5625 61.6187 87.2417 60.35 86.775 59.125C85.55 59.4167 84.325 59.6354 83.1 59.7812C81.875 59.9271 80.5917 60 79.25 60C73.9417 60 68.925 58.8625 64.2 56.5875C59.475 54.3125 55.45 51.1333 52.125 47.05C50.2583 51.6 47.5896 55.5521 44.1187 58.9062C40.6479 62.2604 36.6083 64.7833 32 66.475V67C32 74.8167 34.7125 81.4375 40.1375 86.8625C45.5625 92.2875 52.1833 95 60 95ZM55.275 39.4375C57.725 43.5208 61.05 46.8021 65.25 49.2812C69.45 51.7604 74.1167 53 79.25 53C80.0667 53 80.8542 52.9562 81.6125 52.8687C82.3708 52.7812 83.1583 52.6792 83.975 52.5625C81.525 48.4792 78.2 45.1979 74 42.7188C69.8 40.2396 65.1333 39 60 39C59.1833 39 58.3958 39.0437 57.6375 39.1312C56.8792 39.2188 56.0917 39.3208 55.275 39.4375ZM33.4875 58.1625C36.4625 56.4708 39.0583 54.2833 41.275 51.6C43.4917 48.9167 45.1542 45.9125 46.2625 42.5875C43.2875 44.2792 40.6917 46.4667 38.475 49.15C36.2583 51.8333 34.5958 54.8375 33.4875 58.1625ZM29.1125 50.6375C30.7458 47.5458 32.8021 44.7604 35.2812 42.2812C37.7604 39.8021 40.5458 37.7458 43.6375 36.1125C42.6458 34.8875 41.45 33.8958 40.05 33.1375C38.65 32.3792 37.1042 32 35.4125 32C32.4958 32 30.0312 33.0062 28.0188 35.0188C26.0062 37.0312 25 39.4958 25 42.4125C25 44.1042 25.3792 45.65 26.1375 47.05C26.8958 48.45 27.8875 49.6458 29.1125 50.6375ZM60 102C55.1583 102 50.6083 101.081 46.35 99.2438C42.0917 97.4062 38.3875 94.9125 35.2375 91.7625C32.0875 88.6125 29.5938 84.9083 27.7562 80.65C25.9187 76.3917 25 71.8417 25 67C25 65.3083 25.1167 63.6312 25.35 61.9688C25.5833 60.3062 25.9333 58.7167 26.4 57.2C23.8917 55.6833 21.8646 53.6271 20.3187 51.0312C18.7729 48.4354 18 45.5625 18 42.4125C18 37.5708 19.6917 33.4583 23.075 30.075C26.4583 26.6917 30.5708 25 35.4125 25C38.5042 25 41.3479 25.7437 43.9438 27.2313C46.5396 28.7188 48.625 30.775 50.2 33.4C51.7167 32.9333 53.3062 32.5833 54.9688 32.35C56.6312 32.1167 58.3083 32 60 32C64.8417 32 69.3917 32.9187 73.65 34.7562C77.9083 36.5938 81.6125 39.0875 84.7625 42.2375C87.9125 45.3875 90.4062 49.0917 92.2438 53.35C94.0812 57.6083 95 62.1583 95 67C95 71.8417 94.0812 76.3917 92.2438 80.65C90.4062 84.9083 87.9125 88.6125 84.7625 91.7625C81.6125 94.9125 77.9083 97.4062 73.65 99.2438C69.3917 101.081 64.8417 102 60 102Z" fill="#734920"/>
</g>
<defs>
<clipPath id="clip0_5548_78362">
<rect width="84" height="84" fill="white" transform="translate(18 18)"/>
</clipPath>
</defs>
</svg>
