<svg width="169" height="135" viewBox="0 0 169 135" fill="none" xmlns="http://www.w3.org/2000/svg">
<g clip-path="url(#clip0_2543_18798)">
<g opacity="0.9">
<g clip-path="url(#clip1_2543_18798)">
<path d="M80.5676 64.1831L81.2378 64.3267L81.7044 63.8479L81.7469 64.4811L82.3758 64.728L81.7333 64.9735L81.6558 65.6066L81.2156 65.1269L80.5376 65.2691L80.91 64.7265L80.5676 64.1831Z" fill="#9C9495"/>
</g>
<g clip-path="url(#clip2_2543_18798)">
<path d="M82.7869 61.5491L83.2336 61.6449L83.5447 61.3257L83.573 61.7478L83.9923 61.9124L83.564 62.0761L83.5123 62.4982L83.2189 62.1783L82.7668 62.2731L83.0151 61.9114L82.7869 61.5491Z" fill="#9C9495"/>
</g>
<g clip-path="url(#clip3_2543_18798)">
<path d="M77.3201 64.8909L77.7668 64.9867L78.0779 64.6675L78.1063 65.0896L78.5255 65.2542L78.0972 65.4179L78.0455 65.84L77.7521 65.5201L77.3 65.6149L77.5483 65.2532L77.3201 64.8909Z" fill="#9C9495"/>
</g>
<g clip-path="url(#clip4_2543_18798)">
<path d="M70.8927 56.4914L77.2727 57.9081L81.7208 53.1835L82.1191 59.4316L88.1054 61.8675L81.9847 64.2908L81.2409 70.5377L77.0543 65.8042L70.5964 67.2076L74.1482 61.853L70.8927 56.4914Z" fill="#9C9495"/>
</g>
<g clip-path="url(#clip5_2543_18798)">
<path d="M71.8995 61.4152L78.2795 62.8319L82.7276 58.1074L83.126 64.3555L89.1122 66.7913L82.9916 69.2146L82.2477 75.4615L78.0611 70.728L71.6032 72.1314L75.155 66.7768L71.8995 61.4152Z" fill="#9C9495"/>
</g>
</g>
<g opacity="0.85">
<g clip-path="url(#clip6_2543_18798)">
<path d="M66.5592 74.9865L67.6813 74.6348L67.8955 73.5687L68.5782 74.432L69.7411 74.2611L69.0407 75.142L69.5476 76.1046L68.433 75.7887L67.5793 76.5524L67.5931 75.4737L66.5592 74.9865Z" fill="#9C9495"/>
</g>
<g clip-path="url(#clip7_2543_18798)">
<path d="M67.2203 69.4168L67.9684 69.1823L68.1112 68.4716L68.5663 69.0471L69.3416 68.9332L68.8747 69.5205L69.2126 70.1622L68.4695 69.9515L67.9004 70.4607L67.9096 69.7416L67.2203 69.4168Z" fill="#9C9495"/>
</g>
<g clip-path="url(#clip8_2543_18798)">
<path d="M62.4995 78.6756L63.2476 78.4411L63.3904 77.7304L63.8455 78.3059L64.6207 78.192L64.1539 78.7793L64.4918 79.4209L63.7487 79.2103L63.1796 79.7195L63.1888 79.0004L62.4995 78.6756Z" fill="#9C9495"/>
</g>
<g clip-path="url(#clip9_2543_18798)">
<path d="M51.7177 74.0383L58.0773 72.0646L59.2546 65.9783L63.1633 70.9341L69.7613 69.9947L65.8167 75.007L68.7309 80.5243L62.389 78.683L57.5694 83.0204L57.6074 76.8561L51.7177 74.0383Z" fill="#9C9495"/>
</g>
<g clip-path="url(#clip10_2543_18798)">
<path d="M58.0444 80.1916L64.404 78.2179L65.5812 72.1317L69.49 77.0875L76.088 76.148L72.1434 81.1603L75.0575 86.6776L68.7157 84.8363L63.896 89.1737L63.9341 83.0094L58.0444 80.1916Z" fill="#9C9495"/>
</g>
</g>
<g opacity="0.73">
<g clip-path="url(#clip11_2543_18798)">
<path d="M79.4755 82.54L79.8895 81.7692L79.3475 81.0889L80.2691 81.1949L80.8185 80.4993L80.9713 81.3334L81.8555 81.5837L81.0307 81.9943L81.0242 82.8455L80.3614 82.2627L79.4755 82.54Z" fill="#9C9495"/>
</g>
<g clip-path="url(#clip12_2543_18798)">
<path d="M76.3956 79.2216L76.6716 78.7078L76.3102 78.2543L76.9246 78.3249L77.2908 77.8612L77.3928 78.4173L77.9822 78.5841L77.4323 78.8579L77.428 79.4253L76.9861 79.0368L76.3956 79.2216Z" fill="#9C9495"/>
</g>
<g clip-path="url(#clip13_2543_18798)">
<path d="M79.4709 86.6318L79.7469 86.1179L79.3855 85.6644L79.9999 85.7351L80.3662 85.2714L80.4681 85.8274L81.0575 85.9942L80.5076 86.268L80.5033 86.8355L80.0614 86.4469L79.4709 86.6318Z" fill="#9C9495"/>
</g>
<g clip-path="url(#clip14_2543_18798)">
<path d="M69.195 91.9857L72.1895 86.0453L68.6315 80.9505L74.9064 81.6073L78.8098 76.218L79.6755 82.5481L85.6638 84.3104L79.9392 87.574L79.7124 94.0605L75.3077 89.7284L69.195 91.9857Z" fill="#9C9495"/>
</g>
<g clip-path="url(#clip15_2543_18798)">
<path d="M76.5657 91.9789L79.5602 86.0384L76.0022 80.9437L82.2771 81.6005L86.1806 76.2112L87.0462 82.5412L93.0345 84.3036L87.3099 87.5672L87.0832 94.0536L82.6785 89.7216L76.5657 91.9789Z" fill="#9C9495"/>
</g>
</g>
<g opacity="0.79">
<g clip-path="url(#clip16_2543_18798)">
<path d="M94.6797 82.3103L94.2242 81.3574L93.0812 81.3044L93.9429 80.5856L93.6754 79.573L94.659 80.0823L95.6387 79.507L95.3879 80.5395L96.2589 81.2004L95.1176 81.3275L94.6797 82.3103Z" fill="#9C9495"/>
</g>
<g clip-path="url(#clip17_2543_18798)">
<path d="M88.7393 82.4289L88.4356 81.7936L87.6736 81.7583L88.2481 81.2791L88.0698 80.604L88.7255 80.9435L89.3786 80.56L89.2114 81.2484L89.7921 81.6889L89.0312 81.7737L88.7393 82.4289Z" fill="#9C9495"/>
</g>
<g clip-path="url(#clip18_2543_18798)">
<path d="M98.8866 85.4592L98.583 84.8239L97.821 84.7886L98.3954 84.3093L98.2171 83.6343L98.8728 83.9738L99.5259 83.5903L99.3587 84.2786L99.9394 84.7192L99.1786 84.8039L98.8866 85.4592Z" fill="#9C9495"/>
</g>
<g clip-path="url(#clip19_2543_18798)">
<path d="M95.3957 96.1194L92.4738 90.3496L85.8619 89.7347L90.6125 85.6998L88.7571 79.6258L94.5895 82.9046L100.065 79.752L98.9364 85.8075L104.166 89.9551L97.6197 90.4079L95.3957 96.1194Z" fill="#9C9495"/>
</g>
<g clip-path="url(#clip20_2543_18798)">
<path d="M101.409 89.719L98.4871 83.9492L91.8752 83.3343L96.6258 79.2994L94.7704 73.2255L100.603 76.5042L106.079 73.3516L104.95 79.4071L110.18 83.5547L103.633 84.0075L101.409 89.719Z" fill="#9C9495"/>
</g>
</g>
<g opacity="0.97">
<g clip-path="url(#clip21_2543_18798)">
<path d="M96.5353 58.3551L96.7781 59.283L97.7927 59.4971L96.8964 60.0217L96.9606 60.9762L96.1679 60.3726L95.1908 60.7502L95.5942 59.8532L94.9285 59.1289L95.9728 59.18L96.5353 58.3551Z" fill="#9C9495"/>
</g>
<g clip-path="url(#clip22_2543_18798)">
<path d="M101.878 59.1108L102.04 59.7293L102.716 59.8721L102.119 60.2218L102.162 60.8581L101.633 60.4558L100.982 60.7075L101.251 60.1095L100.807 59.6266L101.503 59.6607L101.878 59.1108Z" fill="#9C9495"/>
</g>
<g clip-path="url(#clip23_2543_18798)">
<path d="M93.3088 54.895L93.4707 55.5135L94.1471 55.6563L93.5496 56.006L93.5924 56.6423L93.0639 56.2399L92.4125 56.4917L92.6815 55.8936L92.2377 55.4108L92.9338 55.4449L93.3088 54.895Z" fill="#9C9495"/>
</g>
<g clip-path="url(#clip24_2543_18798)">
<path d="M98.1668 44.811L99.9892 51.0474L106.332 52.7776L100.976 55.9898L101.704 62.3485L96.5968 58.099L90.6908 60.3104L92.8725 54.4748L88.5084 49.4625L94.9778 50.1191L98.1668 44.811Z" fill="#9C9495"/>
</g>
<g clip-path="url(#clip25_2543_18798)">
<path d="M91.6732 49.7202L93.4955 55.9565L99.8382 57.6867L94.4826 60.899L95.21 67.2576L90.1031 63.0082L84.1971 65.2196L86.3788 59.384L82.0148 54.3717L88.4842 55.0282L91.6732 49.7202Z" fill="#9C9495"/>
</g>
</g>
<g opacity="0.9">
<g clip-path="url(#clip26_2543_18798)">
<path d="M110.609 91.1394L109.68 90.9082L109.002 91.5577L108.976 90.6692L108.11 90.2952L109.022 89.9803L109.164 89.0973L109.753 89.7888L110.709 89.6202L110.159 90.3632L110.609 91.1394Z" fill="#9C9495"/>
</g>
<g clip-path="url(#clip27_2543_18798)">
<path d="M107.374 94.728L106.754 94.5739L106.302 95.0069L106.285 94.4145L105.708 94.1652L106.315 93.9553L106.41 93.3666L106.803 93.8276L107.44 93.7152L107.074 94.2106L107.374 94.728Z" fill="#9C9495"/>
</g>
<g clip-path="url(#clip28_2543_18798)">
<path d="M115.188 90.2935L114.569 90.1393L114.117 90.5723L114.1 89.98L113.522 89.7307L114.13 89.5207L114.224 88.9321L114.618 89.393L115.255 89.2806L114.888 89.776L115.188 90.2935Z" fill="#9C9495"/>
</g>
<g clip-path="url(#clip29_2543_18798)">
<path d="M121.616 98.9959L115.293 97.3755L110.668 101.953L110.507 95.6977L104.616 93.0717L110.825 90.8471L111.805 84.6296L115.81 89.4934L122.318 88.2987L118.565 93.5344L121.616 98.9959Z" fill="#9C9495"/>
</g>
<g clip-path="url(#clip30_2543_18798)">
<path d="M120.467 92.0516L114.144 90.4312L109.519 95.0087L109.357 88.7533L103.466 86.1273L109.676 83.9028L110.656 77.6853L114.661 82.5491L121.169 81.3543L117.416 86.5901L120.467 92.0516Z" fill="#9C9495"/>
</g>
</g>
<g opacity="0.7">
<g clip-path="url(#clip31_2543_18798)">
<path d="M78.6966 122.908L79.6438 123.377L80.5599 122.82L80.3433 123.803L81.1826 124.415L80.1045 124.55L79.7071 125.488L79.2558 124.591L78.1699 124.555L78.9723 123.865L78.6966 122.908Z" fill="#9C9495"/>
</g>
<g clip-path="url(#clip32_2543_18798)">
<path d="M83.2035 119.711L83.835 120.024L84.4458 119.652L84.3014 120.308L84.8609 120.716L84.1422 120.806L83.8772 121.431L83.5763 120.833L82.8524 120.809L83.3873 120.349L83.2035 119.711Z" fill="#9C9495"/>
</g>
<g clip-path="url(#clip33_2543_18798)">
<path d="M73.4827 122.778L74.1142 123.091L74.7249 122.72L74.5805 123.375L75.14 123.783L74.4213 123.873L74.1563 124.498L73.8555 123.9L73.1316 123.876L73.6665 123.416L73.4827 122.778Z" fill="#9C9495"/>
</g>
<g clip-path="url(#clip34_2543_18798)">
<path d="M69.6972 112.574L75.4968 115.467L81.1269 112.003L79.7782 118.094L84.9125 121.87L78.2981 122.724L75.8409 128.539L73.0917 122.991L66.4331 122.785L71.3681 118.501L69.6972 112.574Z" fill="#9C9495"/>
</g>
<g clip-path="url(#clip35_2543_18798)">
<path d="M69.0425 120.48L74.8421 123.372L80.4723 119.908L79.1235 125.999L84.2579 129.775L77.6434 130.629L75.1863 136.444L72.437 130.896L65.7784 130.691L70.7134 126.407L69.0425 120.48Z" fill="#9C9495"/>
</g>
</g>
<g opacity="0.88">
<g clip-path="url(#clip36_2543_18798)">
<path d="M108.741 112.115L108.69 111.52L108.092 111.297L108.696 111.053L108.758 110.458L109.18 110.902L109.818 110.756L109.476 111.274L109.807 111.781L109.173 111.656L108.741 112.115Z" fill="#9C9495"/>
</g>
<g clip-path="url(#clip37_2543_18798)">
<path d="M105.55 111.169L105.516 110.773L105.117 110.624L105.52 110.462L105.561 110.065L105.842 110.361L106.268 110.264L106.04 110.609L106.26 110.947L105.838 110.863L105.55 111.169Z" fill="#9C9495"/>
</g>
<g clip-path="url(#clip38_2543_18798)">
<path d="M110.352 114.54L110.319 114.143L109.92 113.994L110.323 113.832L110.364 113.435L110.645 113.731L111.07 113.634L110.842 113.979L111.063 114.317L110.64 114.234L110.352 114.54Z" fill="#9C9495"/>
</g>
<g clip-path="url(#clip39_2543_18798)">
<path d="M104.526 123.586L103.773 117.098L97.8467 114.433L103.624 112.025L103.964 105.577L108.263 110.571L114.413 109.242L111.311 114.737L114.756 120.381L108.528 118.767L104.526 123.586Z" fill="#9C9495"/>
</g>
<g clip-path="url(#clip40_2543_18798)">
<path d="M109.024 121.135L108.271 114.647L102.345 111.982L108.122 109.573L108.462 103.126L112.761 108.12L118.912 106.791L115.809 112.285L119.254 117.93L113.026 116.316L109.024 121.135Z" fill="#9C9495"/>
</g>
</g>
<path d="M155.39 44.9899C153.77 45.6288 149.197 48.4726 148.377 50.799C148.085 51.6258 148.976 52.1613 149.857 52.1266C152.199 52.0338 155.808 51.9656 153.901 53.1592C151.454 54.6907 149.989 56.1787 149.007 56.2221" stroke="#F1DBFF" stroke-width="3.92523"/>
<path d="M11.3097 75.792C13.0445 75.9469 18.2345 77.3822 19.6793 79.3819C20.1929 80.0927 19.4893 80.8582 18.635 81.0734C16.3616 81.6465 12.8806 82.6012 15.0475 83.2072C17.8277 83.9845 19.6537 84.9979 20.6079 84.7618" stroke="#F1DBFF" stroke-width="3.92523"/>
<path d="M157.179 59.4627C156.377 59.5784 155.633 59.0261 155.518 58.2292C155.404 57.4322 155.96 56.6924 156.762 56.5767C157.564 56.461 158.308 57.0132 158.423 57.8102C158.538 58.6071 157.981 59.347 157.179 59.4627Z" fill="#F1DBFF"/>
<path d="M13.6828 90.1804C14.4848 90.0647 15.0416 89.3249 14.9267 88.528C14.8117 87.731 14.0684 87.1787 13.2665 87.2944C12.4645 87.4101 11.9077 88.15 12.0226 88.9469C12.1376 89.7439 12.8809 90.2961 13.6828 90.1804Z" fill="#F1DBFF"/>
<path d="M161.493 62.6675C154.524 63.673 151.703 64.6692 151.164 65.0416" stroke="#F1DBFF" stroke-width="3.92523"/>
<path d="M10.4504 94.4756C17.4201 93.4701 20.4074 93.6283 21.0299 93.8331" stroke="#F1DBFF" stroke-width="3.92523"/>
<path d="M41.4605 95.4114C31.3778 74.8608 54.004 54.3286 65.4228 47.1318L67.7665 45.513C67.4046 43.004 57.301 32.9188 70.2422 26.0435C78.3957 21.7117 81.6085 22.636 84.8051 26.2995L92.2897 36.8526L94.9955 37.7429C99.2025 27.4631 100.247 25.4584 110.073 28.8408C119.12 31.9549 119.102 38.1069 117.361 40.9195L114.297 46.484C123.1 50.3365 129.754 58.3411 131.98 61.8619C133.789 64.7231 142.285 74.5322 134.161 94.8437C126.052 115.116 99.4409 122.151 84.0373 122.565C71.7626 122.895 51.3867 115.643 41.4605 95.4114Z" fill="#E9BB17" stroke="#E9BB17" stroke-width="1.30841"/>
<path d="M89.6638 107.561C62.2521 110.491 45.191 96.3144 39.2366 90.7698C42.1278 101.878 49.8333 122.14 77.7687 123.364C111.281 124.833 122.497 115.215 133.485 98.678C141.955 85.9305 138.651 70.7634 134.32 64.5581C131.441 77.3529 117.076 104.631 89.6638 107.561Z" fill="#DEB41D" stroke="#D9AF1C" stroke-width="0.261682"/>
<path d="M71.6174 89.674C80.6808 88.3664 86.9747 80.0047 85.6753 70.9976C84.3758 61.9905 75.9751 55.7487 66.9117 57.0563C57.8483 58.3638 51.5544 66.7255 52.8538 75.7327C54.1533 84.7398 62.554 90.9815 71.6174 89.674Z" fill="white"/>
<path d="M104.444 84.9377C113.507 83.6301 119.801 75.2684 118.501 66.2613C117.202 57.2541 108.801 51.0124 99.7379 52.32C90.6745 53.6275 84.3806 61.9892 85.68 70.9963C86.9794 80.0035 95.3802 86.2452 104.444 84.9377Z" fill="white"/>
<path d="M77.1866 73.5032C77.7918 73.4158 78.3614 73.8339 78.3596 74.4417C78.3583 75.0699 78.2787 75.6972 78.1214 76.3085C77.8728 77.2771 77.4343 78.187 76.8318 78.9875C76.2293 79.788 75.4747 80.4631 74.6098 80.9738C73.7455 81.4844 72.7886 81.8216 71.7942 81.9651C70.7993 82.1086 69.7867 82.0555 68.8127 81.8101C67.8395 81.5646 66.9245 81.1304 66.1203 80.5328C65.3161 79.9353 64.6386 79.1863 64.1261 78.3276C63.8025 77.7856 63.5487 77.2065 63.3697 76.6042C63.1967 76.0217 63.6248 75.4597 64.2301 75.3724C64.8354 75.285 65.3859 75.7082 65.5934 76.2799C65.7094 76.5996 65.8558 76.9084 66.0311 77.2019C66.3952 77.8116 66.8767 78.3444 67.4481 78.7687C68.0196 79.1935 68.6694 79.5016 69.3616 79.6763C70.0533 79.8511 70.773 79.8881 71.4799 79.7861C72.1867 79.6842 72.8667 79.4452 73.4807 79.0821C74.0947 78.7189 74.6315 78.2396 75.0593 77.6706C75.4878 77.1021 75.7988 76.455 75.9759 75.7672C76.0609 75.4362 76.1142 75.0985 76.1352 74.759C76.1727 74.152 76.5808 73.5906 77.1866 73.5032Z" fill="#292626"/>
<path d="M110.012 68.7679C110.618 68.6805 111.187 69.0986 111.186 69.7063C111.185 70.3346 111.105 70.9618 110.948 71.5731C110.698 72.5418 110.261 73.4517 109.658 74.2521C109.055 75.0526 108.3 75.7278 107.436 76.2384C106.572 76.749 105.615 77.0862 104.62 77.2297C103.626 77.3732 102.612 77.3202 101.639 77.0747C100.666 76.8292 99.7504 76.395 98.9462 75.7975C98.1426 75.1999 97.4647 74.451 96.9525 73.5922C96.6288 73.0502 96.3751 72.4711 96.1958 71.8689C96.0228 71.2863 96.451 70.7243 97.0562 70.637C97.6614 70.5497 98.2122 70.9728 98.4198 71.5445C98.5353 71.8643 98.6818 72.1731 98.8569 72.4666C99.2212 73.0763 99.703 73.609 100.274 74.0333C100.846 74.4581 101.496 74.7662 102.187 74.941C102.88 75.1157 103.599 75.1527 104.306 75.0507C105.013 74.9488 105.693 74.7098 106.307 74.3467C106.921 73.9835 107.458 73.5042 107.886 72.9352C108.314 72.3667 108.625 71.7196 108.802 71.0318C108.887 70.7008 108.94 70.3631 108.961 70.0237C108.999 69.4167 109.407 68.8552 110.012 68.7679Z" fill="#292626"/>
<path d="M147.852 60.1101L145.426 60.5502L146.304 65.3724L147.4 71.3998L149.826 70.9596C150.27 67.8906 148.695 62.4478 147.852 60.1101Z" fill="#C5A5F3" stroke="#75C973" stroke-width="0.261682"/>
<path d="M27.314 98.1777L29.7402 97.737L28.8628 92.9153L27.7659 86.8874L25.3396 87.3276C24.8957 90.3972 26.4709 95.84 27.314 98.1777Z" fill="#C5A5F3" stroke="#75C973" stroke-width="0.261682"/>
<path d="M35.1129 74.467L43.2683 104.617L33.4051 104.227C31.8478 102.616 28.3183 95.7115 26.6582 80.9825L30.8856 77.7247L24.5097 52.1797C36.5497 32.6824 74.2154 -0.0955877 128.558 24.7704L135.156 51.2065L141.385 52.1834C143.511 55.2307 147.688 64.309 147.39 76.2435L138.714 80.6058L131.198 50.3459L135.156 51.2065L128.558 24.7704C74.2154 -0.0955877 36.5497 32.6824 24.5097 52.1797L30.8856 77.7247L35.1129 74.467Z" fill="#6F219E"/>
<path d="M30.8856 77.7247L26.6582 80.9825C28.3183 95.7115 31.8478 102.616 33.4051 104.227L43.2683 104.617L35.1129 74.467L30.8856 77.7247ZM30.8856 77.7247L24.5097 52.1797C36.5497 32.6824 74.2154 -0.0955868 128.558 24.7704L135.156 51.2065M135.156 51.2065L131.198 50.3459L138.714 80.6058L147.39 76.2435C147.688 64.309 143.511 55.2307 141.385 52.1834L135.156 51.2065Z" stroke="#6F219E" stroke-width="1.30841"/>
<path d="M34.6149 103.099C32.491 98.6281 28.3471 88.0974 28.7637 81.7451" stroke="#C5A5F3" stroke-width="1.30841"/>
<path d="M139.68 53.6885C141.668 58.4066 145.463 69.4792 144.739 76.0255" stroke="#C5A5F3" stroke-width="1.30841"/>
<path d="M79.1208 97.8271C83.3483 100.774 93.5651 104.28 100.611 94.7268" stroke="black" stroke-width="1.30841" stroke-linecap="round"/>
</g>
<defs>
<clipPath id="clip0_2543_18798">
<rect width="154.334" height="113.72" fill="white" transform="translate(0 22.0371) rotate(-8.2093)"/>
</clipPath>
<clipPath id="clip1_2543_18798">
<rect width="2.11129" height="2.30308" fill="white" transform="matrix(-0.027643 0.9996 -0.999985 -0.00103975 82.6929 63.6729)"/>
</clipPath>
<clipPath id="clip2_2543_18798">
<rect width="1.40752" height="1.53538" fill="white" transform="matrix(-0.027643 0.9996 -0.999985 -0.00103976 84.2037 61.209)"/>
</clipPath>
<clipPath id="clip3_2543_18798">
<rect width="1.40752" height="1.53538" fill="white" transform="matrix(-0.027643 0.9996 -0.999985 -0.00103975 78.7369 64.5508)"/>
</clipPath>
<clipPath id="clip4_2543_18798">
<rect width="0.879702" height="0.959614" fill="white" transform="matrix(-0.027643 0.9996 -0.999985 -0.00103975 79.097 62.1738)"/>
</clipPath>
<clipPath id="clip5_2543_18798">
<rect width="0.879702" height="0.959614" fill="white" transform="matrix(-0.027643 0.9996 -0.999985 -0.00103975 80.1044 67.1025)"/>
</clipPath>
<clipPath id="clip6_2543_18798">
<rect width="3.63194" height="3.87572" fill="white" transform="matrix(0.545835 0.837848 -0.870785 0.491597 69.1716 72.501)"/>
</clipPath>
<clipPath id="clip7_2543_18798">
<rect width="2.42129" height="2.58381" fill="white" transform="matrix(0.545835 0.837848 -0.870785 0.491597 68.9618 67.7598)"/>
</clipPath>
<clipPath id="clip8_2543_18798">
<rect width="2.42129" height="2.58381" fill="white" transform="matrix(0.545835 0.837848 -0.870785 0.491597 64.2407 77.0186)"/>
</clipPath>
<clipPath id="clip9_2543_18798">
<rect width="1.51331" height="1.61488" fill="white" transform="matrix(0.545835 0.837848 -0.870785 0.491597 62.4219 73.3545)"/>
</clipPath>
<clipPath id="clip10_2543_18798">
<rect width="1.51331" height="1.61488" fill="white" transform="matrix(0.545835 0.837848 -0.870785 0.491597 68.7515 79.5107)"/>
</clipPath>
<clipPath id="clip11_2543_18798">
<rect width="3.06772" height="2.86229" fill="white" transform="matrix(0.98106 0.193531 -0.250914 0.96797 79.4033 79.8564)"/>
</clipPath>
<clipPath id="clip12_2543_18798">
<rect width="2.04515" height="1.9082" fill="white" transform="matrix(0.98106 0.193531 -0.250914 0.96797 76.3472 77.4326)"/>
</clipPath>
<clipPath id="clip13_2543_18798">
<rect width="2.04515" height="1.9082" fill="white" transform="matrix(0.98106 0.193531 -0.250914 0.96797 79.4222 84.8428)"/>
</clipPath>
<clipPath id="clip14_2543_18798">
<rect width="1.27822" height="1.19262" fill="white" transform="matrix(0.98106 0.193531 -0.250914 0.96797 76.1315 83.8291)"/>
</clipPath>
<clipPath id="clip15_2543_18798">
<rect width="1.27822" height="1.19262" fill="white" transform="matrix(0.98106 0.193531 -0.250914 0.96797 83.5067 83.8223)"/>
</clipPath>
<clipPath id="clip16_2543_18798">
<rect width="3.75117" height="3.5686" fill="white" transform="matrix(0.818121 -0.575003 0.634973 0.772498 91.8575 80.3066)"/>
</clipPath>
<clipPath id="clip17_2543_18798">
<rect width="2.50078" height="2.37907" fill="white" transform="matrix(0.818121 -0.575003 0.634973 0.772498 86.8577 81.0938)"/>
</clipPath>
<clipPath id="clip18_2543_18798">
<rect width="2.50078" height="2.37907" fill="white" transform="matrix(0.818121 -0.575003 0.634973 0.772498 97.0048 84.124)"/>
</clipPath>
<clipPath id="clip19_2543_18798">
<rect width="1.56299" height="1.48692" fill="white" transform="matrix(0.818121 -0.575003 0.634973 0.772498 93.2772 86.1992)"/>
</clipPath>
<clipPath id="clip20_2543_18798">
<rect width="1.56299" height="1.48692" fill="white" transform="matrix(0.818121 -0.575003 0.634973 0.772498 99.2936 79.7959)"/>
</clipPath>
<clipPath id="clip21_2543_18798">
<rect width="3.46575" height="3.22084" fill="white" transform="matrix(-0.900928 0.433893 -0.481881 -0.876194 98.7159 60.5771)"/>
</clipPath>
<clipPath id="clip22_2543_18798">
<rect width="2.3105" height="2.14723" fill="white" transform="matrix(-0.900928 0.433893 -0.481881 -0.876194 103.332 60.5918)"/>
</clipPath>
<clipPath id="clip23_2543_18798">
<rect width="2.3105" height="2.14723" fill="white" transform="matrix(-0.900928 0.433893 -0.481881 -0.876194 94.7631 56.376)"/>
</clipPath>
<clipPath id="clip24_2543_18798">
<rect width="1.44406" height="1.34202" fill="white" transform="matrix(-0.900928 0.433893 -0.481881 -0.876194 98.465 55.042)"/>
</clipPath>
<clipPath id="clip25_2543_18798">
<rect width="1.44406" height="1.34202" fill="white" transform="matrix(-0.900928 0.433893 -0.481881 -0.876194 91.9677 59.9541)"/>
</clipPath>
<clipPath id="clip26_2543_18798">
<rect width="2.95883" height="3.22159" fill="white" transform="matrix(0.0654978 -0.99783 0.999431 0.0331551 107.611 91.7578)"/>
</clipPath>
<clipPath id="clip27_2543_18798">
<rect width="1.97255" height="2.14773" fill="white" transform="matrix(0.0654978 -0.99783 0.999431 0.0331551 105.375 95.1406)"/>
</clipPath>
<clipPath id="clip28_2543_18798">
<rect width="1.97255" height="2.14773" fill="white" transform="matrix(0.0654978 -0.99783 0.999431 0.0331551 113.189 90.7061)"/>
</clipPath>
<clipPath id="clip29_2543_18798">
<rect width="1.23284" height="1.34233" fill="white" transform="matrix(0.0654978 -0.99783 0.999431 0.0331551 112.566 94.0195)"/>
</clipPath>
<clipPath id="clip30_2543_18798">
<rect width="1.23284" height="1.34233" fill="white" transform="matrix(0.0654978 -0.99783 0.999431 0.0331551 111.417 87.0703)"/>
</clipPath>
<clipPath id="clip31_2543_18798">
<rect width="3.36137" height="3.57871" fill="white" transform="matrix(-0.304474 0.952483 -0.970411 -0.241326 82.1285 122.922)"/>
</clipPath>
<clipPath id="clip32_2543_18798">
<rect width="2.24091" height="2.38581" fill="white" transform="matrix(-0.304474 0.952483 -0.970411 -0.241326 85.4915 119.72)"/>
</clipPath>
<clipPath id="clip33_2543_18798">
<rect width="2.24091" height="2.38581" fill="white" transform="matrix(-0.304474 0.952483 -0.970411 -0.241326 75.7708 122.787)"/>
</clipPath>
<clipPath id="clip34_2543_18798">
<rect width="1.40057" height="1.49113" fill="white" transform="matrix(-0.304474 0.952483 -0.970411 -0.241326 77.3578 119.287)"/>
</clipPath>
<clipPath id="clip35_2543_18798">
<rect width="1.40057" height="1.49113" fill="white" transform="matrix(-0.304474 0.952483 -0.970411 -0.241326 76.7024 127.197)"/>
</clipPath>
<clipPath id="clip36_2543_18798">
<rect width="2.17061" height="1.9916" fill="white" transform="matrix(0.954234 -0.299004 0.327027 0.944994 107.641 110.547)"/>
</clipPath>
<clipPath id="clip37_2543_18798">
<rect width="1.44708" height="1.32773" fill="white" transform="matrix(0.954234 -0.299004 0.327027 0.944994 104.817 110.124)"/>
</clipPath>
<clipPath id="clip38_2543_18798">
<rect width="1.44708" height="1.32773" fill="white" transform="matrix(0.954234 -0.299004 0.327027 0.944994 109.619 113.494)"/>
</clipPath>
<clipPath id="clip39_2543_18798">
<rect width="0.904422" height="0.829833" fill="white" transform="matrix(0.954234 -0.299004 0.327027 0.944994 107.208 113.987)"/>
</clipPath>
<clipPath id="clip40_2543_18798">
<rect width="0.904422" height="0.829833" fill="white" transform="matrix(0.954234 -0.299004 0.327027 0.944994 111.71 111.534)"/>
</clipPath>
</defs>
</svg>
