<svg width="161" height="159" viewBox="0 0 161 159" fill="none" xmlns="http://www.w3.org/2000/svg">
<g clip-path="url(#clip0_2543_18907)">
<path d="M75.3476 84.8468L71.0622 74.6438L60.0311 73.6559L68.4368 66.4135L65.9739 55.6534L75.4111 61.3856L84.9394 55.699L82.3955 66.4735L90.7285 73.7585L79.6926 74.6662L75.3476 84.8468Z" fill="#E2C862"/>
</g>
<g clip-path="url(#clip1_2543_18907)">
<path d="M18.0118 83.921L15.1549 77.119L7.80082 76.4604L13.4046 71.6321L11.7627 64.4587L18.0542 68.2802L24.4064 64.4891L22.7104 71.6721L28.2658 76.5288L20.9085 77.1339L18.0118 83.921Z" fill="#E2C862"/>
</g>
<g clip-path="url(#clip2_2543_18907)">
<path d="M115.633 119.504L112.776 112.702L105.422 112.043L111.026 107.215L109.384 100.042L115.676 103.863L122.028 100.072L120.332 107.255L125.887 112.112L118.53 112.717L115.633 119.504Z" fill="#E2C862"/>
</g>
<g clip-path="url(#clip3_2543_18907)">
<path d="M72.8268 137.136L70.215 131.106L63.8511 130.371L68.5869 126.253L67.0164 119.923L72.5301 123.41L77.9341 120.219L76.6228 126.486L81.523 130.867L75.1833 131.241L72.8268 137.136Z" fill="#E2C862"/>
</g>
<g clip-path="url(#clip4_2543_18907)">
<path d="M131.76 71.9398L129.148 65.9095L122.784 65.1749L127.52 61.0568L125.95 54.7264L131.463 58.2141L136.867 55.0222L135.556 61.29L140.456 65.6705L134.117 66.045L131.76 71.9398Z" fill="#E2C862"/>
</g>
<defs>
<clipPath id="clip0_2543_18907">
<rect width="36.8475" height="36.8372" fill="white" transform="matrix(0.811181 -0.584795 0.585131 0.810938 48.333 62.6943)"/>
</clipPath>
<clipPath id="clip1_2543_18907">
<rect width="24.565" height="24.5582" fill="white" transform="matrix(0.811181 -0.584795 0.585131 0.810938 0 69.1543)"/>
</clipPath>
<clipPath id="clip2_2543_18907">
<rect width="24.565" height="24.5582" fill="white" transform="matrix(0.811181 -0.584795 0.585131 0.810938 97.6191 104.739)"/>
</clipPath>
<clipPath id="clip3_2543_18907">
<rect width="15.3531" height="15.3489" fill="white" transform="matrix(0.811181 -0.584795 0.585131 0.810938 61.3682 125.227)"/>
</clipPath>
<clipPath id="clip4_2543_18907">
<rect width="15.3531" height="15.3489" fill="white" transform="matrix(0.811181 -0.584795 0.585131 0.810938 120.305 60.0273)"/>
</clipPath>
</defs>
</svg>
