<svg width="272" height="186" viewBox="0 0 272 186" fill="none" xmlns="http://www.w3.org/2000/svg">
<mask id="mask0_15287_43457" style="mask-type:alpha" maskUnits="userSpaceOnUse" x="0" y="0" width="272" height="186">
<path d="M0 0.0268555H272V185.054H0V0.0268555Z" fill="#FFEBD5"/>
</mask>
<g mask="url(#mask0_15287_43457)">
<mask id="path-2-inside-1_15287_43457" fill="white">
<path d="M0 0.0268555H272V185.054H0V0.0268555Z"/>
</mask>
<path d="M0 0.0268555H272V185.054H0V0.0268555Z" fill="#F5F9F4"/>
<path d="M272 0.0268555H269.73V185.054H272H274.27V0.0268555H272ZM0 185.054H2.27027V0.0268555H0H-2.27027V185.054H0Z" fill="#FCF0D8" mask="url(#path-2-inside-1_15287_43457)"/>
<path d="M181.196 181.054C182.349 185.64 183.444 190.262 184.532 194.866C185.201 197.686 185.638 200.604 186.718 203.282C187.011 204.021 187.7 204.628 187.554 205.527L187.547 205.509C187.839 206.293 188.248 207.051 188.411 207.871C189.028 211.015 190.027 214.169 190.32 217.266C190.334 217.393 190.521 217.501 190.557 217.682C190.713 218.528 191.164 221.527 191.598 223.392C192.615 227.726 193.524 232.104 193.308 236.819C193.277 237.557 194.256 247.461 190.716 248.597C187.047 249.768 183.984 240.952 183.873 239.718C183.608 236.738 183.841 233.562 182.61 230.91C180.799 227.023 180.43 222.692 179.37 218.565C178.409 214.871 177.829 211.052 176.832 207.358C175.906 203.889 174.375 200.615 173.68 197.092C173.077 194.03 173.353 190.692 173.045 187.559C172.968 186.82 172.135 186.168 172.029 185.358C171.945 184.692 171.747 183.602 171.914 182.846C171.987 182.532 172.097 182.172 171.903 181.955C171.034 180.898 169.834 170.48 174.13 169.168C178.376 167.865 180.206 177.062 181.196 181.054Z" fill="#CDE6CC"/>
<path d="M32.161 61.9533C31.8777 62.0672 31.6343 62.2937 31.4697 62.5972C31.3032 62.9034 31.2233 63.2705 31.2439 63.6388C31.9465 76.2229 32.052 88.1693 31.4979 99.4097C30.2217 99.0505 28.9212 98.8146 27.5958 98.7319C20.1142 98.2697 13.966 104.889 14.0084 112.763C14.0306 116.712 15.7356 119.987 18.2184 122.248C20.7014 124.51 23.9643 125.908 27.4774 126.541C31.192 127.212 34.5393 125.363 36.9467 122.602C39.3517 119.844 40.923 116.185 41.1783 112.688C41.2035 112.343 41.1857 112.231 41.1756 111.951C41.1658 111.671 41.15 111.319 41.1272 110.892C41.0818 110.039 41.0139 108.892 40.9353 107.52C40.7781 104.775 40.5761 101.132 40.4123 97.2258C40.0971 89.66 39.9928 81.1467 40.5689 76.3849C41.304 75.6506 42.5554 75.0597 44.1658 74.7067L43.0033 79.2631C42.9744 79.366 42.9613 79.4771 42.9657 79.5885C42.9719 79.697 42.9948 79.8048 43.033 79.9052C43.0732 80.0029 43.1274 80.0916 43.1937 80.1641C43.2603 80.2369 43.3395 80.289 43.424 80.3221C43.5065 80.3579 43.5969 80.3676 43.6843 80.3585C43.7715 80.3491 43.8566 80.3171 43.9357 80.2629C44.0128 80.2113 44.0814 80.1397 44.1371 80.053C44.1927 79.9663 44.2336 79.8674 44.2564 79.7624L45.5808 74.5703C45.589 74.5394 45.5961 74.5072 45.6003 74.4767C46.4932 74.3724 47.4621 74.3417 48.4959 74.3871L47.0373 77.995C46.96 78.1879 46.9461 78.4146 47.0013 78.6209C47.0547 78.8301 47.174 79.0001 47.3287 79.1001C47.4854 79.1974 47.6652 79.2153 47.8315 79.1467C47.9977 79.0779 48.1352 78.9301 48.2143 78.7342L49.9248 74.4948C51.0797 74.616 52.2831 74.8193 53.5193 75.0962L51.412 78.7094C51.3599 78.7952 51.3225 78.8933 51.3006 78.9992C51.2787 79.1052 51.2737 79.2157 51.2853 79.3255C51.2988 79.4324 51.328 79.5373 51.3733 79.6309C51.4184 79.7242 51.4787 79.8048 51.5482 79.8709C51.6197 79.9344 51.6992 79.9818 51.7848 80.006C51.8705 80.0304 51.9575 80.036 52.0448 80.0167C52.1301 80.0001 52.213 79.9603 52.2878 79.901C52.3625 79.8417 52.4248 79.7678 52.4766 79.6765L54.8974 75.5241C54.9135 75.4973 54.928 75.4688 54.9414 75.4389C55.7941 75.6672 56.6569 75.9376 57.5227 76.2317L56.174 79.5734C56.1342 79.6686 56.1086 79.7753 56.1014 79.8833C56.0922 79.994 56.1028 80.1025 56.1304 80.2057C56.1558 80.3113 56.1991 80.4075 56.2565 80.4898C56.3118 80.5748 56.3822 80.642 56.4597 80.6921C56.5392 80.7395 56.6246 80.7687 56.7106 80.7782C56.7984 80.7848 56.8859 80.7707 56.9685 80.7356C57.051 80.7006 57.1282 80.6441 57.1946 80.57C57.259 80.4986 57.3127 80.4096 57.3501 80.3116L58.8134 76.6889C59.6421 77.0005 60.4666 77.3475 61.2858 77.7188L60.3182 80.1145C60.2793 80.2107 60.2543 80.3181 60.2494 80.4237C60.2424 80.5319 60.253 80.6404 60.2799 80.7428C60.3071 80.8455 60.3498 80.941 60.4065 81.0225C60.4633 81.1041 60.5308 81.1729 60.6094 81.2193C60.6862 81.2687 60.769 81.2998 60.8566 81.3061C60.9419 81.3149 61.0294 81.3008 61.1102 81.2687C61.1929 81.2339 61.2687 81.1809 61.334 81.1105C61.3993 81.0401 61.4543 80.9526 61.4932 80.8564L62.5235 78.3013C63.0245 78.5482 63.5241 78.7987 64.0162 79.0656C64.2836 79.2114 64.582 79.2417 64.8647 79.1523C65.1475 79.063 65.3979 78.8601 65.5774 78.574C65.7589 78.2852 65.8565 77.9338 65.8596 77.568C65.8607 77.2049 65.7654 76.8505 65.59 76.5592C63.2657 72.7621 60.7764 68.868 56.8024 66.0461C52.8325 63.229 47.4589 61.5484 39.5035 61.8175L39.4956 61.8183L32.5495 61.8764C32.4169 61.8782 32.2848 61.9059 32.161 61.9533ZM33.9287 65.155L39.5207 65.1072C39.5293 65.1071 39.5381 65.1072 39.5467 65.1071C47.1943 64.8424 52.0193 66.433 55.5008 68.9064C57.4437 70.2886 58.9675 72.0055 60.358 73.87C56.7081 72.4091 53.0102 71.4588 49.6609 71.1594C44.8507 70.73 40.6926 71.3622 38.3598 74.3472C38.1739 74.5852 38.049 74.8896 38.0043 75.2169C37.26 80.5967 37.4556 89.5104 37.7851 97.3965C37.9478 101.342 38.1532 105.004 38.3106 107.754C38.3903 109.128 38.4557 110.277 38.5004 111.109C38.5229 111.525 38.5373 111.866 38.5467 112.105C38.5561 112.343 38.5439 112.577 38.5583 112.386C38.3798 114.819 37.119 117.94 35.1662 120.18C34.4191 121.037 33.5865 121.764 32.6838 122.312L33.0298 120.94C33.0672 120.797 33.0732 120.642 33.0458 120.494C33.0185 120.345 32.9589 120.21 32.8722 120.103C32.7878 119.994 32.6797 119.918 32.562 119.882C32.4425 119.849 32.3201 119.852 32.2044 119.899C32.1017 119.941 32.0101 120.011 31.9356 120.106C31.8611 120.201 31.8057 120.318 31.7737 120.448L31.1236 123.033C30.2123 123.338 29.2526 123.461 28.2509 123.341L29.9355 119.132C29.996 118.986 30.0211 118.818 30.0032 118.655C29.9873 118.49 29.9324 118.334 29.844 118.211C29.7557 118.087 29.6406 117.998 29.5113 117.958C29.384 117.915 29.2487 117.924 29.1225 117.984C28.9631 118.056 28.8313 118.205 28.7575 118.397L26.8828 123.082C26.0366 122.887 25.2153 122.645 24.4347 122.349L26.0503 119.557C26.1375 119.411 26.1829 119.237 26.1811 119.058C26.1791 118.878 26.1322 118.702 26.0425 118.561C25.9549 118.418 25.8323 118.315 25.6912 118.272C25.5521 118.226 25.4056 118.236 25.2731 118.304C25.1563 118.365 25.0561 118.465 24.9844 118.594L23.1319 121.792C22.3232 121.407 21.5712 120.968 20.8879 120.477L22.4245 116.637C22.4853 116.49 22.5103 116.322 22.4927 116.16C22.4768 115.994 22.4219 115.839 22.3337 115.716C22.2476 115.59 22.1302 115.503 22.0032 115.461C21.8739 115.421 21.7384 115.429 21.614 115.486C21.4528 115.561 21.321 115.71 21.2472 115.902L19.7711 119.591C19.7706 119.59 19.7702 119.59 19.7698 119.589C19.0491 118.933 18.4487 118.226 17.968 117.461L19.3117 114.104C19.3723 113.957 19.3953 113.791 19.3797 113.626C19.364 113.461 19.3091 113.306 19.2207 113.182C19.1325 113.059 19.0175 112.97 18.8882 112.93C18.7609 112.887 18.6256 112.896 18.501 112.953C18.3398 113.027 18.208 113.177 18.1342 113.369L17.1614 115.799C16.8286 114.863 16.6468 113.851 16.6403 112.74C16.6093 107.07 21.2863 101.635 27.4634 102.019L27.4641 102.019C29.2715 102.129 30.9181 102.396 32.3085 103.04C32.5005 103.128 32.7053 103.16 32.9093 103.131C33.1115 103.104 33.306 103.018 33.4776 102.88C33.6491 102.741 33.7927 102.555 33.8979 102.334C34.0011 102.115 34.0628 101.869 34.0783 101.614C34.7298 90.1631 34.5908 77.9245 33.9287 65.155ZM41.5061 66.8933C41.1903 67.116 41.0793 67.6188 41.2592 68.0115C41.4372 68.407 41.8385 68.5475 42.1564 68.3221C42.4718 68.0989 42.5834 67.5969 42.403 67.2036C42.2244 66.8074 41.8229 66.6666 41.5061 66.8933ZM35.8236 71.0411C35.5082 71.2643 35.397 71.7668 35.5754 72.1628C35.7556 72.5558 36.1558 72.695 36.4737 72.4697C36.7893 72.2467 36.9007 71.7444 36.7203 71.3512C36.5421 70.9555 36.139 70.8179 35.8236 71.0411ZM29.3966 106.816C29.2309 106.885 29.0938 107.033 29.0149 107.23C28.938 107.423 28.9243 107.65 28.9797 107.857C29.0352 108.063 29.1547 108.233 29.3092 108.333C29.4655 108.43 29.647 108.445 29.8129 108.376C29.9786 108.306 30.1157 108.158 30.1926 107.965C30.2715 107.768 30.2832 107.544 30.2298 107.335C30.1743 107.128 30.0548 106.958 29.8983 106.861C29.7418 106.764 29.5625 106.747 29.3966 106.816ZM34.4013 110.175C34.2356 110.245 34.0987 110.393 34.0198 110.589C33.9429 110.783 33.9292 111.01 33.9847 111.216C34.0399 111.423 34.1594 111.593 34.3139 111.693C34.4704 111.79 34.6519 111.805 34.8176 111.735C34.9833 111.666 35.1204 111.518 35.1973 111.324C35.2762 111.128 35.2879 110.904 35.2324 110.697C35.179 110.488 35.0597 110.318 34.9032 110.221C34.7467 110.124 34.5672 110.106 34.4013 110.175ZM31.5582 114.583C31.3924 114.652 31.2556 114.801 31.1767 114.997C31.0998 115.19 31.0861 115.417 31.1415 115.624C31.1967 115.83 31.3162 116 31.4707 116.1C31.6272 116.197 31.8088 116.212 31.9745 116.143C32.1402 116.073 32.2773 115.925 32.3542 115.732C32.4331 115.535 32.4448 115.311 32.3893 115.105C32.3359 114.895 32.2166 114.725 32.0601 114.628C31.9036 114.531 31.7241 114.514 31.5582 114.583Z" fill="#CDE6CC"/>
<path d="M193.652 71.7075C193.528 71.8993 193.459 72.1354 193.455 72.3785C193.452 72.6241 193.514 72.8642 193.632 73.0594C197.676 79.7301 201.202 86.3172 204.157 92.8114C203.344 93.1904 202.553 93.649 201.793 94.2039C197.504 97.3389 196.011 103.803 198.32 108.157C199.479 110.34 201.376 111.386 203.412 111.516C205.447 111.647 207.665 110.944 209.8 109.703C212.058 108.392 213.381 105.847 213.916 103.222C214.451 100.6 214.262 97.8556 213.388 95.7975C213.302 95.5944 213.26 95.5404 213.173 95.3894C213.086 95.2385 212.975 95.0499 212.839 94.8233C212.566 94.3703 212.195 93.7638 211.753 93.0372C210.869 91.584 209.699 89.6525 208.474 87.5571C206.103 83.498 203.574 78.817 202.511 75.9111C202.707 75.17 203.23 74.2745 204.022 73.3484L204.699 76.4061C204.713 76.4763 204.738 76.544 204.773 76.6039C204.808 76.6613 204.852 76.7108 204.902 76.7492C204.953 76.7852 205.008 76.8099 205.066 76.8201C205.124 76.8304 205.184 76.8234 205.24 76.8035C205.296 76.786 205.349 76.7503 205.395 76.7057C205.441 76.6609 205.479 76.6046 205.507 76.5386C205.535 76.475 205.552 76.4042 205.558 76.3308C205.564 76.2574 205.558 76.1839 205.54 76.1153L204.768 72.6312C204.764 72.6103 204.758 72.5892 204.752 72.5703C205.218 72.1076 205.747 71.6513 206.334 71.2079L206.571 73.8729C206.584 74.0151 206.643 74.1473 206.733 74.2369C206.824 74.3289 206.939 74.3692 207.054 74.3546C207.169 74.3376 207.274 74.2661 207.347 74.1526C207.419 74.039 207.453 73.8946 207.44 73.7499L207.159 70.6199C207.836 70.1636 208.563 69.731 209.33 69.3244L209.208 72.2865C209.204 72.3578 209.212 72.4292 209.231 72.4979C209.249 72.5667 209.279 72.6304 209.317 72.6861C209.356 72.7393 209.402 72.7844 209.454 72.8158C209.507 72.8471 209.563 72.8646 209.621 72.8698C209.679 72.8726 209.737 72.8629 209.792 72.8376C209.847 72.8123 209.897 72.7759 209.939 72.7256C209.982 72.6777 210.016 72.6181 210.041 72.5513C210.065 72.4844 210.078 72.4151 210.08 72.341L210.22 68.9373C210.221 68.9151 210.221 68.8927 210.219 68.87C210.759 68.6102 211.317 68.3693 211.883 68.1401L212.104 70.6075C212.11 70.6784 212.126 70.7493 212.154 70.8125C212.181 70.8782 212.218 70.9336 212.263 70.9784C212.308 71.0256 212.36 71.0594 212.416 71.0791C212.471 71.1012 212.53 71.1066 212.588 71.0993C212.645 71.0896 212.701 71.0671 212.752 71.0333C212.803 70.9972 212.847 70.9497 212.883 70.8928C212.918 70.8359 212.945 70.7696 212.96 70.6983C212.975 70.6294 212.979 70.5557 212.972 70.4843L212.733 67.8089C213.283 67.6062 213.842 67.4252 214.405 67.26L214.563 69.0292C214.569 69.1003 214.586 69.1713 214.614 69.2322C214.642 69.2955 214.679 69.3509 214.724 69.3956C214.769 69.4403 214.82 69.4739 214.875 69.4935C214.931 69.5131 214.988 69.5207 215.045 69.5109C215.102 69.5035 215.157 69.4832 215.208 69.447C215.258 69.4132 215.302 69.3657 215.338 69.3112C215.374 69.2544 215.4 69.1906 215.416 69.1219C215.432 69.0532 215.437 68.9797 215.431 68.9086L215.261 67.0224C215.611 66.9325 215.961 66.8451 216.312 66.7702C216.503 66.73 216.678 66.6115 216.809 66.4337C216.94 66.2559 217.02 66.0297 217.037 65.7894C217.054 65.5468 217.006 65.3073 216.901 65.1027C216.797 64.9006 216.641 64.7469 216.459 64.6647C214.066 63.6095 211.553 62.5753 208.526 62.8096C205.504 63.0447 202.031 64.5474 197.691 68.3034L197.687 68.3075L193.846 71.4887C193.773 71.5498 193.707 71.625 193.652 71.7075ZM195.564 72.6844L198.656 70.1227C198.66 70.1188 198.665 70.1148 198.67 70.1109C202.841 66.4968 205.982 65.1928 208.634 64.9883C210.114 64.8751 211.459 65.1378 212.772 65.543C210.321 66.3863 207.991 67.535 206.044 68.8871C203.248 70.8293 201.122 73.0654 200.693 75.7809C200.659 75.9973 200.678 76.223 200.748 76.425C201.896 79.7504 204.593 84.6124 207.065 88.843C208.301 90.9607 209.478 92.9012 210.363 94.3573C210.806 95.0841 211.176 95.6929 211.443 96.1346C211.576 96.3554 211.683 96.5382 211.757 96.6665C211.832 96.7948 211.893 96.9302 211.846 96.8177C212.453 98.25 212.658 100.555 212.224 102.684C212.058 103.499 211.806 104.28 211.464 104.994L211.258 104.075C211.237 103.978 211.196 103.89 211.137 103.819C211.079 103.749 211.007 103.701 210.928 103.681C210.849 103.659 210.767 103.666 210.691 103.699C210.615 103.735 210.548 103.792 210.497 103.871C210.453 103.94 210.422 104.021 210.408 104.107C210.395 104.194 210.398 104.284 210.418 104.371L210.807 106.101C210.39 106.684 209.892 107.187 209.301 107.575L209.015 104.474C209.006 104.365 208.971 104.26 208.914 104.178C208.857 104.093 208.781 104.032 208.696 104.003C208.611 103.974 208.522 103.977 208.438 104.014C208.355 104.048 208.283 104.114 208.23 104.204C208.162 104.316 208.132 104.459 208.147 104.599L208.466 108.051C207.939 108.326 207.413 108.564 206.893 108.754L206.98 106.471C206.986 106.35 206.961 106.233 206.908 106.134C206.855 106.035 206.777 105.959 206.687 105.921C206.597 105.882 206.499 105.88 206.408 105.92C206.317 105.957 206.239 106.03 206.185 106.127C206.138 106.214 206.111 106.315 206.109 106.419L206.008 109.035C205.447 109.188 204.902 109.285 204.38 109.322L204.119 106.493C204.11 106.384 204.075 106.279 204.018 106.197C203.961 106.112 203.886 106.051 203.801 106.022C203.717 105.991 203.626 105.996 203.543 106.03C203.46 106.067 203.387 106.133 203.335 106.221C203.267 106.335 203.237 106.478 203.252 106.618L203.503 109.336C203.502 109.336 203.502 109.336 203.501 109.336C202.911 109.298 202.372 109.178 201.883 108.971L201.655 106.497C201.646 106.388 201.61 106.286 201.554 106.201C201.497 106.116 201.422 106.055 201.337 106.026C201.252 105.998 201.162 106.001 201.079 106.037C200.996 106.071 200.923 106.137 200.87 106.225C200.802 106.34 200.773 106.483 200.787 106.623L200.953 108.413C200.496 108.044 200.101 107.565 199.775 106.95C198.112 103.816 199.132 98.6766 202.674 96.0893L202.675 96.0894C203.71 95.3312 204.702 94.7326 205.661 94.4604C205.794 94.4222 205.917 94.3471 206.021 94.2382C206.126 94.1317 206.209 93.9957 206.264 93.8411C206.319 93.6864 206.345 93.5178 206.339 93.3473C206.333 93.1793 206.296 93.0143 206.23 92.8655C203.268 86.2106 199.638 79.4764 195.564 72.6844ZM200.277 70.2146C200.166 70.4815 200.25 70.8111 200.464 70.9476C200.678 71.0866 200.941 70.9827 201.053 70.7134C201.163 70.4464 201.079 70.117 200.865 69.9804C200.651 69.8413 200.387 69.9451 200.277 70.2146ZM198.325 75.0944C198.214 75.3614 198.298 75.6909 198.512 75.83C198.727 75.9665 198.989 75.8624 199.1 75.5932C199.211 75.3263 199.127 74.9968 198.913 74.8601C198.699 74.7211 198.435 74.8275 198.325 75.0944ZM205.14 97.8773C205.068 97.9909 205.035 98.1355 205.048 98.2802C205.062 98.4225 205.12 98.5547 205.211 98.6443C205.302 98.7339 205.417 98.7743 205.532 98.7596C205.647 98.7425 205.752 98.6685 205.824 98.5549C205.896 98.4413 205.929 98.2968 205.916 98.1545C205.903 98.0097 205.844 97.8799 205.754 97.7879C205.663 97.6983 205.547 97.658 205.432 97.675C205.317 97.6921 205.212 97.7637 205.14 97.8773ZM208.895 97.4743C208.823 97.588 208.79 97.7325 208.803 97.8773C208.817 98.0196 208.875 98.1518 208.966 98.2414C209.056 98.3309 209.172 98.3713 209.287 98.3567C209.402 98.3396 209.507 98.2656 209.579 98.152C209.651 98.0384 209.684 97.8938 209.671 97.7515C209.658 97.6068 209.599 97.477 209.508 97.3874C209.418 97.2954 209.302 97.2551 209.187 97.2721C209.072 97.2892 208.967 97.3607 208.895 97.4743ZM208.595 101.211C208.523 101.325 208.491 101.469 208.504 101.614C208.517 101.756 208.575 101.889 208.666 101.978C208.757 102.068 208.873 102.108 208.987 102.093C209.102 102.076 209.208 102.002 209.279 101.889C209.351 101.775 209.384 101.631 209.371 101.488C209.358 101.344 209.299 101.214 209.208 101.124C209.118 101.032 209.002 100.992 208.887 101.009C208.772 101.026 208.667 101.098 208.595 101.211Z" fill="#CDE6CC"/>
<path d="M253.358 1.46642C254.02 1.81986 254.565 2.43309 254.907 3.20969C255.253 3.99335 255.38 4.89961 255.264 5.78035C251.32 35.879 248.928 64.6093 248.25 91.8246C251.387 91.3165 254.56 91.1122 257.765 91.2835C275.859 92.2621 289.476 109.916 287.964 128.861C287.204 138.36 282.513 145.768 276.131 150.519C269.749 155.27 261.644 157.724 253.073 158.265C244.01 158.842 236.283 153.456 230.982 146.135C225.685 138.822 222.557 129.576 222.569 121.085C222.57 120.247 222.633 119.983 222.707 119.311C222.781 118.641 222.882 117.796 223.013 116.776C223.275 114.736 223.644 111.993 224.079 108.71C224.949 102.146 226.087 93.4339 227.181 84.0751C229.294 65.9494 231.068 45.4835 230.534 33.8589C228.895 31.8857 225.989 30.1133 222.175 28.8132L224.158 40.1075C224.209 40.3632 224.221 40.6344 224.19 40.9014C224.156 41.1608 224.082 41.414 223.972 41.6449C223.857 41.8688 223.711 42.0672 223.538 42.2233C223.365 42.38 223.165 42.4833 222.956 42.5393C222.751 42.6025 222.531 42.6004 222.322 42.554C222.114 42.5071 221.915 42.4063 221.734 42.2536C221.558 42.108 221.406 41.9164 221.287 41.6921C221.169 41.4678 221.088 41.2182 221.052 40.9591L218.793 28.0894C218.779 28.0127 218.767 27.9332 218.763 27.8586C216.632 27.3578 214.305 27.0133 211.808 26.8335L214.673 35.9269C214.825 36.413 214.818 36.9626 214.648 37.4438C214.482 37.9326 214.164 38.3084 213.774 38.5059C213.379 38.6963 212.944 38.6892 212.555 38.4777C212.168 38.2656 211.863 37.8712 211.708 37.3774L208.348 26.6935C205.547 26.6623 202.613 26.8153 199.588 27.1366L204.014 36.4241C204.124 36.6452 204.197 36.8916 204.23 37.1529C204.264 37.4141 204.256 37.6815 204.209 37.9427C204.157 38.1962 204.068 38.4407 203.942 38.6532C203.817 38.8651 203.657 39.0424 203.478 39.1822C203.295 39.3149 203.095 39.4068 202.884 39.4411C202.674 39.4759 202.463 39.465 202.256 39.3942C202.054 39.3304 201.862 39.2115 201.692 39.0479C201.523 38.8843 201.386 38.6888 201.278 38.4546L196.193 27.7815C196.159 27.7125 196.13 27.6396 196.103 27.564C194.009 27.8752 191.883 28.2851 189.746 28.7511L192.395 37.1729C192.474 37.4132 192.517 37.6772 192.515 37.9392C192.517 38.2082 192.472 38.4666 192.387 38.7072C192.307 38.9543 192.186 39.1739 192.033 39.356C191.884 39.5452 191.703 39.6872 191.507 39.7862C191.307 39.8781 191.096 39.9245 190.888 39.9233C190.675 39.9146 190.467 39.8562 190.275 39.7488C190.082 39.6414 189.907 39.4838 189.76 39.2868C189.617 39.0969 189.504 38.8676 189.432 38.6212L186.557 29.4909C184.507 30.0093 182.46 30.6144 180.421 31.2793L182.322 37.317C182.398 37.5595 182.439 37.8251 182.432 38.0806C182.429 38.3431 182.384 38.6015 182.301 38.8405C182.217 39.08 182.098 39.2979 181.946 39.4784C181.795 39.6589 181.62 39.8057 181.423 39.8955C181.229 39.9929 181.024 40.0445 180.812 40.0353C180.605 40.0325 180.397 39.9741 180.208 39.8743C180.015 39.7674 179.842 39.6186 179.698 39.4308C179.553 39.2431 179.437 39.0171 179.36 38.7746L177.337 32.3355C176.087 32.79 174.839 33.2532 173.607 33.7583C172.937 34.0345 172.213 34.024 171.548 33.7299C170.884 33.4358 170.317 32.8772 169.936 32.1384C169.551 31.3925 169.379 30.5192 169.437 29.6377C169.499 28.7632 169.792 27.9366 170.267 27.2844C176.542 18.793 183.232 10.1142 193.304 4.43149C203.365 -1.24076 216.602 -3.78465 235.706 -0.913029L235.725 -0.908754L252.437 1.17259C252.755 1.21402 253.068 1.31754 253.358 1.46642ZM248.529 8.67996L235.076 7.00179C235.055 6.99917 235.034 6.99706 235.013 6.99445C216.65 4.21934 204.749 6.6999 195.925 11.6813C191 14.4657 187.025 18.1729 183.343 22.2729C192.392 19.7761 201.464 18.5222 209.581 18.7375C221.238 19.0484 231.135 21.7325 236.217 29.5707C236.622 30.1956 236.868 30.9634 236.917 31.7638C237.746 44.9233 235.679 66.3276 233.475 85.2206C232.377 94.6742 231.227 103.432 230.356 110.009C229.918 113.293 229.555 116.042 229.298 118.032C229.17 119.027 229.074 119.844 229.009 120.416C228.943 120.988 228.931 121.554 228.93 121.091C228.924 126.998 231.401 134.863 235.701 140.803C237.347 143.074 239.221 145.056 241.296 146.628L240.709 143.229C240.644 142.874 240.658 142.499 240.75 142.149C240.842 141.8 241.01 141.49 241.238 141.258C241.461 141.019 241.734 140.867 242.024 140.812C242.318 140.765 242.612 140.808 242.882 140.953C243.122 141.082 243.33 141.276 243.492 141.526C243.654 141.776 243.767 142.074 243.821 142.395L244.923 148.799C247.062 149.79 249.351 150.352 251.784 150.346L248.481 139.742C248.362 139.372 248.332 138.96 248.404 138.573C248.472 138.18 248.632 137.821 248.867 137.548C249.101 137.275 249.394 137.093 249.713 137.033C250.027 136.966 250.351 137.025 250.644 137.204C251.015 137.422 251.306 137.818 251.449 138.301L255.124 150.104C257.196 149.87 259.216 149.517 261.148 149.023L257.758 141.851C257.575 141.475 257.497 141.042 257.533 140.611C257.57 140.179 257.715 139.768 257.956 139.455C258.192 139.135 258.506 138.922 258.853 138.857C259.196 138.784 259.547 138.851 259.854 139.051C260.124 139.23 260.348 139.499 260.497 139.829L264.384 148.046C266.4 147.346 268.289 146.499 270.022 145.509L267.01 135.833C266.89 135.464 266.86 135.052 266.931 134.666C266.999 134.272 267.159 133.914 267.393 133.641C267.623 133.362 267.921 133.186 268.235 133.12C268.553 133.06 268.878 133.118 269.167 133.29C269.542 133.515 269.832 133.911 269.976 134.394L272.869 143.687C272.87 143.686 272.872 143.684 272.873 143.683C274.725 142.306 276.297 140.771 277.591 139.064L274.957 130.605C274.838 130.235 274.812 129.83 274.879 129.437C274.946 129.044 275.106 128.686 275.341 128.413C275.576 128.14 275.869 127.958 276.187 127.898C276.501 127.831 276.825 127.89 277.115 128.061C277.49 128.286 277.78 128.683 277.923 129.165L279.83 135.288C280.799 133.128 281.418 130.741 281.633 128.069C282.722 114.429 272.435 100.036 257.496 99.2329L257.494 99.2346C253.123 98.9945 249.111 99.1753 245.649 100.339C245.171 100.497 244.672 100.517 244.186 100.388C243.704 100.268 243.251 100.006 242.863 99.6248C242.475 99.2433 242.163 98.7547 241.949 98.1931C241.74 97.6386 241.635 97.0275 241.644 96.4088C242.125 68.6607 244.65 39.2363 248.529 8.67996ZM229.976 10.7467C230.697 11.3711 230.874 12.6126 230.371 13.5078C229.871 14.41 228.88 14.6361 228.155 14.0047C227.436 13.3792 227.257 12.1394 227.762 11.2431C228.263 10.3392 229.254 10.1125 229.976 10.7467ZM242.914 22.3205C243.633 22.946 243.811 24.187 243.311 25.0903C242.807 25.9861 241.818 26.2094 241.093 25.578C240.374 24.9531 240.195 23.7127 240.7 22.8164C241.2 21.9136 242.195 21.6951 242.914 22.3205ZM251.983 110.241C252.37 110.454 252.673 110.85 252.828 111.344C252.979 111.832 252.971 112.382 252.801 112.863C252.63 113.345 252.312 113.722 251.922 113.919C251.529 114.108 251.089 114.093 250.702 113.88C250.315 113.667 250.012 113.272 249.861 112.785C249.706 112.29 249.718 111.747 249.885 111.258C250.055 110.776 250.373 110.4 250.767 110.21C251.161 110.02 251.596 110.029 251.983 110.241ZM239.334 116.93C239.72 117.144 240.023 117.54 240.178 118.034C240.328 118.521 240.321 119.071 240.15 119.553C239.98 120.034 239.662 120.411 239.272 120.608C238.878 120.797 238.439 120.783 238.052 120.57C237.666 120.356 237.362 119.961 237.212 119.473C237.057 118.979 237.069 118.436 237.239 117.954C237.405 117.466 237.723 117.09 238.117 116.9C238.511 116.71 238.947 116.718 239.334 116.93ZM245.389 128.335C245.776 128.549 246.079 128.945 246.234 129.439C246.384 129.926 246.376 130.476 246.206 130.958C246.036 131.439 245.718 131.816 245.328 132.013C244.934 132.203 244.494 132.188 244.108 131.975C243.721 131.761 243.418 131.366 243.267 130.879C243.113 130.384 243.125 129.841 243.295 129.359C243.461 128.871 243.779 128.495 244.173 128.305C244.567 128.115 245.002 128.123 245.389 128.335Z" fill="#CDE6CC"/>
<path d="M-26.3014 -42.8381C-26.5285 -42.192 -26.5759 -41.4764 -26.4355 -40.8049C-26.2945 -40.1264 -25.974 -39.5259 -25.5254 -39.1028C-10.1971 -24.6418 3.64552 -9.91511 15.845 5.10346C13.8213 6.92455 11.9083 8.94299 10.1398 11.1967C0.161871 23.9252 -0.0056265 43.1234 9.08411 52.8785C13.6433 57.7683 19.5547 58.8248 25.2853 57.233C31.0164 55.6411 36.741 51.5835 41.9032 46.1257C47.3642 40.3574 49.4693 32.0963 49.3405 24.3678C49.2117 16.6464 46.9977 9.28487 43.3068 4.46476C42.9427 3.98917 42.7918 3.88113 42.4576 3.54945C42.1241 3.21771 41.6996 2.80571 41.1816 2.31377C40.1454 1.32988 38.7431 0.0181749 37.0688 -1.55543C33.7203 -4.70266 29.2852 -8.89086 24.5954 -13.4766C15.5152 -22.3615 5.61394 -32.8045 0.87695 -39.7739C0.96256 -41.9979 1.86455 -44.9611 3.49305 -48.266L7.25391 -40.5099C7.3355 -40.3302 7.44639 -40.168 7.57982 -40.0367C7.71215 -39.9123 7.86476 -39.8185 8.02817 -39.7611C8.19105 -39.7107 8.36134 -39.6963 8.52835 -39.7237C8.69592 -39.7512 8.85572 -39.827 9.00046 -39.936C9.14573 -40.0381 9.27092 -40.1868 9.37084 -40.3536C9.4702 -40.5203 9.54098 -40.7117 9.57862 -40.9201C9.6168 -41.1215 9.62126 -41.3329 9.59201 -41.5401C9.56275 -41.7474 9.50089 -41.9436 9.40916 -42.1151L5.12332 -50.9526C5.09817 -51.0058 5.0702 -51.0586 5.04053 -51.1041C6.04831 -52.8223 7.23662 -54.5836 8.59417 -56.3656L10.8926 -49.2673C11.0164 -48.8889 11.2589 -48.5812 11.5654 -48.4219C11.873 -48.2556 12.2187 -48.2556 12.5287 -48.4059C12.8383 -48.5631 13.0858 -48.8604 13.2172 -49.2419C13.348 -49.6232 13.352 -50.0524 13.2271 -50.4377L10.5222 -58.7723C12.1195 -60.6749 13.8724 -62.5613 15.7512 -64.4139L17.2366 -56.1554C17.2693 -55.9556 17.3346 -55.7667 17.4285 -55.5955C17.5225 -55.4242 17.643 -55.2774 17.7837 -55.161C17.9234 -55.0516 18.0806 -54.9724 18.2452 -54.9362C18.4092 -54.9 18.5779 -54.9065 18.7415 -54.9476C18.9047 -54.9956 19.0594 -55.0777 19.1952 -55.1997C19.3316 -55.3217 19.4477 -55.4694 19.5359 -55.6488C19.6246 -55.8213 19.6836 -56.0182 19.71 -56.2253C19.7363 -56.4323 19.7301 -56.6353 19.6907 -56.8413L17.9826 -66.3307C17.9721 -66.3927 17.9576 -66.4542 17.9403 -66.5153C19.279 -67.7468 20.6789 -68.9436 22.1096 -70.1161L24.2413 -63.5456C24.3004 -63.3561 24.3904 -63.1773 24.5053 -63.0297C24.6207 -62.8751 24.7586 -62.7584 24.9119 -62.6788C25.0651 -62.592 25.2302 -62.5489 25.3972 -62.5482C25.5646 -62.5406 25.7306 -62.5819 25.8859 -62.6571C26.0407 -62.7392 26.1821 -62.8548 26.3016 -62.9959C26.42 -63.1439 26.5143 -63.317 26.5783 -63.5076C26.6423 -63.6981 26.6749 -63.9059 26.6738 -64.1165C26.6732 -64.3203 26.6389 -64.5269 26.5736 -64.7157L24.2641 -71.8407C25.6681 -72.9256 27.1075 -73.9586 28.5681 -74.952L30.0953 -70.2403C30.1567 -70.051 30.2484 -69.8725 30.3633 -69.7319C30.4787 -69.5843 30.6166 -69.4677 30.7682 -69.3878C30.9203 -69.308 31.0837 -69.2647 31.249 -69.2638C31.4142 -69.2628 31.5784 -69.2969 31.731 -69.3788C31.8846 -69.4537 32.0249 -69.5622 32.1427 -69.7101C32.2606 -69.851 32.3549 -70.0242 32.42 -70.2078C32.4846 -70.3984 32.5194 -70.5994 32.521 -70.8034C32.5227 -71.0074 32.4918 -71.2144 32.4304 -71.4037L30.7995 -76.426C31.7155 -77.0086 32.6337 -77.5845 33.5614 -78.1263C34.0664 -78.4199 34.4779 -78.9129 34.7325 -79.5272C34.987 -80.1415 35.0703 -80.8403 34.9687 -81.5166C34.8665 -82.1998 34.5865 -82.8122 34.1706 -83.2744C33.7553 -83.7297 33.2282 -84.0027 32.6725 -84.0544C25.38 -84.6613 17.7679 -85.0957 9.51132 -81.5512C1.26546 -78.0081 -7.44868 -70.5498 -17.1856 -56.0657L-17.1946 -56.0506L-25.8992 -43.625C-26.0645 -43.387 -26.1995 -43.1176 -26.3014 -42.8381ZM-20.3952 -41.9847L-13.3887 -51.9893C-13.378 -52.0047 -13.3667 -52.0202 -13.356 -52.0355C-4.00274 -65.9668 3.91552 -72.562 11.1502 -75.6655C15.1898 -77.3953 19.0842 -77.9619 22.9797 -78.107C16.6943 -73.4398 10.9342 -68.0496 6.36121 -62.467C-0.205595 -54.4485 -4.7308 -46.2645 -4.25107 -38.3891C-4.2128 -37.7613 -4.02104 -37.1593 -3.70193 -36.6712C1.53196 -28.6311 12.0079 -17.8505 21.4739 -8.59113C26.2074 -3.95447 30.6688 0.251594 34.0235 3.40509C35.7006 4.97836 37.1023 6.29715 38.1133 7.256C38.619 7.73539 39.0283 8.13518 39.3142 8.41652C39.6001 8.69787 39.8528 9.01131 39.6522 8.74765C42.2189 12.1027 44.2079 18.2409 44.3129 24.5106C44.3528 26.9091 44.1352 29.2968 43.6245 31.5868L42.4873 29.259C42.3699 29.0133 42.1996 28.8092 41.9948 28.6725C41.79 28.5359 41.5591 28.4727 41.3275 28.494C41.0959 28.5082 40.8725 28.6057 40.6821 28.7695C40.4928 28.9402 40.3421 29.1623 40.2498 29.4266C40.1683 29.6614 40.1328 29.9117 40.1478 30.1629C40.1629 30.414 40.2275 30.6592 40.336 30.8778L42.4812 35.2611C41.6812 37.2632 40.6096 39.1227 39.208 40.7554L36.5051 32.5048C36.4131 32.2138 36.2519 31.9594 36.0427 31.7882C35.833 31.61 35.5854 31.5137 35.3319 31.5166C35.0784 31.5194 34.8308 31.6129 34.6218 31.793C34.4123 31.9661 34.2514 32.2177 34.1607 32.5169C34.0417 32.8898 34.0468 33.3108 34.174 33.6817L37.183 42.8648C35.8903 44.1259 34.5754 45.2842 33.2502 46.3032L32.087 39.9449C32.0294 39.6076 31.8863 39.3088 31.6783 39.0882C31.4698 38.8677 31.2082 38.7309 30.934 38.7152C30.6592 38.6925 30.3863 38.7821 30.1582 38.9786C29.9295 39.1681 29.7568 39.4421 29.6672 39.7623C29.5894 40.0458 29.578 40.3494 29.6351 40.6376L30.9657 47.9243C29.5035 48.8828 28.0496 49.6715 26.6237 50.2742L24.1567 42.7468C24.0653 42.4557 23.9041 42.2014 23.6954 42.0301C23.4857 41.8519 23.238 41.7556 22.9851 41.7583C22.7316 41.7541 22.484 41.8546 22.275 42.0277C22.066 42.2078 21.9046 42.4594 21.8128 42.7517C21.6949 43.1315 21.7 43.5525 21.8272 43.9235L24.196 51.1537C24.1949 51.1538 24.1938 51.154 24.1927 51.1541C22.53 51.617 20.9602 51.8016 19.4755 51.7017L17.3191 45.1201C17.2271 44.8292 17.0664 44.5818 16.8572 44.4035C16.648 44.2252 16.4004 44.129 16.1469 44.1318C15.8939 44.1345 15.6464 44.228 15.4374 44.4081C15.2278 44.5813 15.067 44.8328 14.9746 45.1252C14.8567 45.505 14.8618 45.926 14.989 46.297L16.5493 51.0609C15.0551 50.4843 13.6636 49.5438 12.3806 48.1684C5.83557 41.1456 5.50392 26.0421 13.7443 15.5354L13.746 15.5352C16.1546 12.4585 18.5396 9.86249 21.035 8.19465C21.3785 7.963 21.6738 7.63877 21.8975 7.23903C22.1222 6.84618 22.2689 6.39262 22.327 5.91471C22.3844 5.43686 22.352 4.94887 22.2312 4.48575C22.111 4.02958 21.9058 3.61192 21.6324 3.26581C9.31488 -12.1881 -4.90521 -27.2201 -20.3952 -41.9847ZM-8.83196 -53.2904C-8.97523 -52.4507 -8.53838 -51.6255 -7.8604 -51.4553C-7.18187 -51.2781 -6.51386 -51.8163 -6.37114 -52.663C-6.22899 -53.5025 -6.66415 -54.3279 -7.34326 -54.498C-8.02347 -54.675 -8.69205 -54.1367 -8.83196 -53.2904ZM-11.2477 -38.0062C-11.3898 -37.1666 -10.9535 -36.3414 -10.2739 -36.1644C-9.59532 -35.9942 -8.93014 -36.5321 -8.78742 -37.3788C-8.64471 -38.2184 -9.0804 -39.0437 -9.7595 -39.2138C-10.4386 -39.3909 -11.1055 -38.8457 -11.2477 -38.0062ZM21.6905 18.0865C21.5607 18.4677 21.5579 18.8968 21.6834 19.282C21.8083 19.6603 22.0515 19.9679 22.3585 20.1272C22.6655 20.2865 23.0118 20.2865 23.3213 20.1363C23.6297 19.9792 23.8762 19.675 24.0064 19.2936C24.1361 18.9124 24.1389 18.4834 24.014 18.1051C23.8886 17.7199 23.646 17.4191 23.3384 17.2529C23.0313 17.0936 22.6851 17.0937 22.3761 17.2509C22.0671 17.4081 21.8207 17.7051 21.6905 18.0865ZM31.8656 13.3803C31.7359 13.7616 31.7336 14.1905 31.8591 14.5757C31.984 14.954 32.2271 15.2616 32.5342 15.4209C32.8407 15.5803 33.1869 15.5802 33.4964 15.43C33.8054 15.2729 34.0518 14.9687 34.1815 14.5875C34.3112 14.2062 34.314 13.7772 34.1891 13.3989C34.0637 13.0136 33.8211 12.713 33.514 12.5537C33.2065 12.3874 32.8608 12.3874 32.5518 12.5446C32.2428 12.7018 31.9959 12.999 31.8656 13.3803ZM33.3332 23.939C33.2035 24.3202 33.2013 24.7492 33.3267 25.1345C33.4516 25.5128 33.6948 25.8204 34.0018 25.9797C34.3083 26.139 34.6545 26.139 34.964 25.9888C35.273 25.8316 35.5194 25.5274 35.6492 25.1462C35.7789 24.7649 35.7817 24.3359 35.6568 23.9576C35.5313 23.5724 35.2887 23.2717 34.9817 23.1124C34.6741 22.9461 34.3284 22.9462 34.0194 23.1033C33.7104 23.2605 33.4635 23.5577 33.3332 23.939Z" fill="#CDE6CC"/>
<path d="M64.7299 134.462C63.3248 138.235 62.8427 140.636 60.5148 140.636C56.7681 140.636 55.1289 138.901 55.1289 135.491C55.1289 132.081 58.6552 125.886 60.9831 125.886C63.3111 125.886 66.6032 129.431 64.7299 134.462Z" fill="#CDE6CC"/>
<path d="M170.363 154.928C166.449 161.217 165.106 165.219 158.621 165.219C148.183 165.219 143.617 162.327 143.617 156.643C143.617 150.96 153.441 140.636 159.925 140.636C166.41 140.636 175.581 146.544 170.363 154.928Z" fill="#CDE6CC"/>
<path d="M129.742 0.549501C125.828 6.83806 124.485 10.8399 118 10.8399C107.562 10.8399 102.996 7.94778 102.996 2.26456C102.996 -3.41865 112.819 -13.7427 119.304 -13.7427C125.789 -13.7427 134.96 -7.83524 129.742 0.549501Z" fill="#CDE6CC"/>
<path d="M70.6122 18.6918C69.4079 21.7103 68.9946 23.6312 66.9993 23.6312C63.7878 23.6312 62.3828 22.243 62.3828 19.515C62.3828 16.7871 65.4054 11.8315 67.4007 11.8315C69.3961 11.8315 72.2179 14.6671 70.6122 18.6918Z" fill="#CDE6CC"/>
<path d="M140.712 41.8161C140.712 44.766 139.575 45.2576 138.173 45.2576C136.771 45.2576 134.184 44.2084 134.184 42.3077C134.184 40.407 136.771 38.3745 138.173 38.3745C139.575 38.3745 140.712 39.3578 140.712 41.8161Z" fill="#CDE6CC"/>
<path d="M155.946 7.39917C155.946 9.50625 155.188 9.85743 154.253 9.85743C153.319 9.85743 151.594 9.10801 151.594 7.75035C151.594 6.3927 153.319 4.94092 154.253 4.94092C155.188 4.94092 155.946 5.64328 155.946 7.39917Z" fill="#CDE6CC"/>
</g>
</svg>
