<svg width="16" height="15" viewBox="0 0 16 15" fill="none" xmlns="http://www.w3.org/2000/svg">
<path d="M8.00125 12.153L4.54292 14.2363C4.39014 14.3336 4.23042 14.3752 4.06375 14.3613C3.89708 14.3474 3.75125 14.2919 3.62625 14.1947C3.50125 14.0974 3.40403 13.9761 3.33458 13.8305C3.26514 13.6849 3.25125 13.5216 3.29292 13.3405L4.20958 9.403L1.14708 6.75716C1.0082 6.63216 0.921528 6.48966 0.887084 6.32966C0.85264 6.16966 0.862917 6.01355 0.917917 5.86133C0.972917 5.70911 1.05625 5.58411 1.16792 5.48633C1.27958 5.38855 1.43236 5.32605 1.62625 5.29883L5.66792 4.94466L7.23042 1.23633C7.29986 1.06966 7.40764 0.944661 7.55375 0.861328C7.69986 0.777995 7.84903 0.736328 8.00125 0.736328C8.15347 0.736328 8.30264 0.777995 8.44875 0.861328C8.59486 0.944661 8.70264 1.06966 8.77208 1.23633L10.3346 4.94466L14.3762 5.29883C14.5707 5.32661 14.7235 5.38911 14.8346 5.48633C14.9457 5.58355 15.029 5.70855 15.0846 5.86133C15.1401 6.01411 15.1507 6.1705 15.1163 6.3305C15.0818 6.4905 14.9949 6.63272 14.8554 6.75716L11.7929 9.403L12.7096 13.3405C12.7513 13.5211 12.7374 13.6844 12.6679 13.8305C12.5985 13.9766 12.5013 14.098 12.3763 14.1947C12.2513 14.2913 12.1054 14.3469 11.9388 14.3613C11.7721 14.3758 11.6124 14.3341 11.4596 14.2363L8.00125 12.153Z" fill="#E98427"/>
</svg>
