<svg width="694" height="463" viewBox="0 0 694 463" fill="none" xmlns="http://www.w3.org/2000/svg">
<g filter="url(#filter0_f_6919_82484)">
<rect x="130.5" y="2" width="433" height="417" rx="208.5" fill="url(#paint0_radial_6919_82484)"/>
</g>
<g clip-path="url(#clip0_6919_82484)">
<path d="M471.073 190.467C468.218 191.143 459.908 194.786 457.981 198.468C457.296 199.777 458.653 200.885 460.129 201.039C464.058 201.448 470.091 202.202 466.624 203.734C462.175 205.7 459.375 207.829 457.727 207.666" stroke="#F1DBFF" stroke-width="3"/>
<path d="M223.434 207.174C226.289 207.85 234.597 211.493 236.526 215.176C237.211 216.485 235.854 217.592 234.377 217.746C230.449 218.155 224.415 218.909 227.882 220.441C232.331 222.407 235.132 224.537 236.78 224.373" stroke="#F1DBFF" stroke-width="3"/>
<path d="M470.579 215.037C469.214 215.037 468.108 213.937 468.108 212.58C468.108 211.223 469.214 210.123 470.579 210.123C471.944 210.123 473.051 211.223 473.051 212.58C473.051 213.937 471.944 215.037 470.579 215.037Z" fill="#F1DBFF"/>
<path d="M223.925 231.744C225.29 231.744 226.396 230.644 226.396 229.287C226.396 227.93 225.29 226.83 223.925 226.83C222.56 226.83 221.453 227.93 221.453 229.287C221.453 230.644 222.56 231.744 223.925 231.744Z" fill="#F1DBFF"/>
<path d="M477.006 221.426C465.142 221.426 460.2 222.409 459.211 222.9" stroke="#F1DBFF" stroke-width="3"/>
<path d="M217.5 238.131C229.363 238.131 234.306 239.114 235.295 239.605" stroke="#F1DBFF" stroke-width="3"/>
<path d="M268.983 247.156C257.114 210.452 299.78 181.65 320.551 172.394L324.848 170.258C324.848 165.986 310.428 146.733 333.66 138.379C348.297 133.116 353.432 135.431 357.88 142.31L367.822 161.714L372.119 163.85C381.607 147.716 383.831 144.623 399.401 152.63C413.736 160.001 412.227 170.258 408.647 174.53L402.2 183.074C415.951 191.618 425.119 206.571 427.984 212.979C430.313 218.187 442.119 236.592 423.687 268.516C405.29 300.378 359.227 305.709 333.443 302.693C312.897 300.29 280.667 283.29 268.983 247.156Z" fill="#E9BB17" stroke="#E9BB17"/>
<path d="M346.433 279.019C300.023 277.31 274.985 249.558 266.391 238.877C268.539 258.101 276.513 293.751 322.798 302.516C378.322 313.03 399.339 299.685 421.638 274.747C438.826 255.523 436.967 229.43 431.237 218.037C423.359 238.685 392.845 280.728 346.433 279.019Z" fill="#DEB41D" stroke="#D9AF1C" stroke-width="0.2"/>
<path d="M320.651 244.84C336.078 244.84 348.584 232.408 348.584 217.071C348.584 201.735 336.078 189.303 320.651 189.303C305.225 189.303 292.719 201.735 292.719 217.071C292.719 232.408 305.225 244.84 320.651 244.84Z" fill="white"/>
<path d="M376.515 244.84C391.942 244.84 404.447 232.408 404.447 217.071C404.447 201.735 391.942 189.303 376.515 189.303C361.088 189.303 348.582 201.735 348.582 217.071C348.582 232.408 361.088 244.84 376.515 244.84Z" fill="white"/>
<path d="M333.825 219.209C334.855 219.209 335.704 220.043 335.555 221.057C335.401 222.104 335.118 223.131 334.708 224.113C334.061 225.669 333.111 227.081 331.914 228.271C330.716 229.461 329.296 230.406 327.731 231.05C326.167 231.693 324.49 232.026 322.798 232.026C321.104 232.026 319.429 231.693 317.864 231.05C316.3 230.406 314.879 229.461 313.682 228.271C312.484 227.081 311.535 225.669 310.887 224.113C310.478 223.131 310.194 222.104 310.04 221.057C309.892 220.043 310.741 219.209 311.771 219.209C312.802 219.209 313.618 220.047 313.826 221.051C313.943 221.612 314.112 222.162 314.334 222.694C314.795 223.799 315.469 224.803 316.32 225.648C317.171 226.494 318.18 227.165 319.292 227.623C320.403 228.081 321.595 228.316 322.798 228.316C324.001 228.316 325.192 228.081 326.303 227.623C327.414 227.165 328.425 226.494 329.275 225.648C330.126 224.803 330.8 223.799 331.261 222.694C331.483 222.162 331.653 221.612 331.769 221.051C331.978 220.047 332.793 219.209 333.825 219.209Z" fill="#292626"/>
<path d="M389.691 219.209C390.722 219.209 391.57 220.043 391.422 221.057C391.269 222.104 390.985 223.131 390.576 224.113C389.927 225.669 388.978 227.081 387.781 228.271C386.584 229.461 385.162 230.406 383.598 231.05C382.034 231.693 380.358 232.026 378.665 232.026C376.972 232.026 375.295 231.693 373.731 231.05C372.167 230.406 370.746 229.461 369.548 228.271C368.352 227.081 367.402 225.669 366.755 224.113C366.345 223.131 366.062 222.104 365.908 221.057C365.759 220.043 366.608 219.209 367.639 219.209C368.669 219.209 369.485 220.047 369.694 221.051C369.809 221.612 369.98 222.162 370.201 222.694C370.662 223.799 371.337 224.803 372.187 225.648C373.038 226.494 374.048 227.165 375.159 227.623C376.271 228.081 377.462 228.316 378.665 228.316C379.868 228.316 381.06 228.081 382.171 227.623C383.282 227.165 384.292 226.494 385.143 225.648C385.994 224.803 386.668 223.799 387.129 222.694C387.35 222.162 387.52 221.612 387.637 221.051C387.845 220.047 388.661 219.209 389.691 219.209Z" fill="#292626"/>
<path d="M454.874 213.875L450.723 214.025L451.026 222.28L451.405 232.597L455.556 232.447C457.035 227.435 455.718 217.977 454.874 213.875Z" fill="#C5A5F3" stroke="#75C973" stroke-width="0.2"/>
<path d="M244.721 248.364L248.873 248.212L248.57 239.959L248.191 229.641L244.039 229.791C242.56 234.804 243.878 244.262 244.721 248.364Z" fill="#C5A5F3" stroke="#75C973" stroke-width="0.2"/>
<path d="M263.438 210.693L269.784 262.945L253.431 259.921C251.222 256.858 246.998 244.493 247.773 219.526L255.606 215.11L251.119 170.967C275.885 141.344 346.573 95.735 431.202 150.287L435.844 195.969L445.996 199.098C448.808 204.692 453.589 220.839 450.222 240.674L434.705 245.862L429.452 193.581L435.844 195.969L431.202 150.287C346.573 95.735 275.885 141.344 251.119 170.967L255.606 215.11L263.438 210.693Z" fill="#6F219E"/>
<path d="M255.606 215.11L247.773 219.526C246.998 244.493 251.222 256.858 253.431 259.921L269.784 262.945L263.438 210.693L255.606 215.11ZM255.606 215.11L251.119 170.967C275.885 141.344 346.573 95.735 431.202 150.287L435.844 195.969M435.844 195.969L429.452 193.581L434.705 245.862L450.222 240.674C453.589 220.839 448.808 204.692 445.996 199.098L435.844 195.969Z" stroke="#6F219E"/>
<path d="M255.715 258.332C253.249 250.364 248.872 231.802 251.095 221.307" stroke="#C5A5F3"/>
<path d="M442.789 201.199C444.969 209.547 448.634 228.929 445.852 239.674" stroke="#C5A5F3"/>
<path d="M331.188 260.246C337.527 266.179 353.72 274.486 367.765 260.246" stroke="black" stroke-linecap="round"/>
</g>
<path d="M300.347 115.641C302.181 115.641 304.956 114.266 304.956 110.624V99.2887C304.956 98.6693 305.055 98.5578 305.612 98.4464L311.521 97.1456C311.955 97.0466 312.24 96.6997 312.24 96.2661V91.5959C312.24 90.9021 311.682 90.4438 311.001 90.5925L304.435 92.0171C303.581 92.2029 303.122 92.6488 303.122 93.3921L303.197 107.167C303.197 107.737 302.936 108.109 302.429 108.208L300.459 108.629C297.932 109.149 296.755 110.45 296.755 112.345C296.755 114.278 298.254 115.641 300.347 115.641ZM287.452 96.8979H298.526C298.997 96.8979 299.369 96.5138 299.369 96.0555C299.369 95.5972 298.997 95.2255 298.526 95.2255H287.452C286.993 95.2255 286.609 95.5972 286.609 96.0555C286.609 96.5138 286.993 96.8979 287.452 96.8979ZM287.452 101.308H298.526C299.01 101.308 299.369 100.924 299.369 100.453C299.369 99.9948 298.997 99.6356 298.526 99.6356H287.452C286.993 99.6356 286.609 99.9948 286.609 100.453C286.609 100.924 286.981 101.308 287.452 101.308ZM287.452 105.718H298.526C299.01 105.718 299.369 105.346 299.369 104.876C299.369 104.417 298.997 104.046 298.526 104.046H287.452C286.993 104.046 286.609 104.417 286.609 104.876C286.609 105.346 286.981 105.718 287.452 105.718Z" fill="black"/>
<path d="M474.625 153.254C476.458 153.254 479.233 151.879 479.233 148.237V136.902C479.233 136.283 479.332 136.171 479.89 136.06L485.799 134.759C486.232 134.66 486.517 134.313 486.517 133.879V129.209C486.517 128.515 485.96 128.057 485.278 128.206L478.713 129.63C477.858 129.816 477.4 130.262 477.4 131.005L477.474 144.781C477.474 145.35 477.214 145.722 476.706 145.821L474.736 146.242C472.209 146.763 471.032 148.063 471.032 149.959C471.032 151.891 472.531 153.254 474.625 153.254ZM461.729 134.511H472.804C473.275 134.511 473.646 134.127 473.646 133.669C473.646 133.21 473.275 132.839 472.804 132.839H461.729C461.271 132.839 460.887 133.21 460.887 133.669C460.887 134.127 461.271 134.511 461.729 134.511ZM461.729 138.921H472.804C473.287 138.921 473.646 138.537 473.646 138.066C473.646 137.608 473.275 137.249 472.804 137.249H461.729C461.271 137.249 460.887 137.608 460.887 138.066C460.887 138.537 461.258 138.921 461.729 138.921ZM461.729 143.331H472.804C473.287 143.331 473.646 142.96 473.646 142.489C473.646 142.031 473.275 141.659 472.804 141.659H461.729C461.271 141.659 460.887 142.031 460.887 142.489C460.887 142.96 461.258 143.331 461.729 143.331Z" fill="black"/>
<path d="M517.254 254.812C519.087 254.812 521.862 253.437 521.862 249.795V238.461C521.862 237.841 521.961 237.73 522.519 237.618L528.428 236.317C528.861 236.218 529.146 235.872 529.146 235.438V230.768C529.146 230.074 528.588 229.616 527.907 229.764L521.342 231.189C520.487 231.375 520.029 231.821 520.029 232.564L520.103 246.339C520.103 246.909 519.843 247.281 519.335 247.38L517.365 247.801C514.838 248.321 513.661 249.622 513.661 251.517C513.661 253.45 515.16 254.812 517.254 254.812ZM504.358 236.07H515.433C515.903 236.07 516.275 235.686 516.275 235.227C516.275 234.769 515.903 234.397 515.433 234.397H504.358C503.9 234.397 503.516 234.769 503.516 235.227C503.516 235.686 503.9 236.07 504.358 236.07ZM504.358 240.48H515.433C515.916 240.48 516.275 240.096 516.275 239.625C516.275 239.167 515.903 238.807 515.433 238.807H504.358C503.9 238.807 503.516 239.167 503.516 239.625C503.516 240.096 503.887 240.48 504.358 240.48ZM504.358 244.89H515.433C515.916 244.89 516.275 244.518 516.275 244.047C516.275 243.589 515.903 243.217 515.433 243.217H504.358C503.9 243.217 503.516 243.589 503.516 244.047C503.516 244.518 503.887 244.89 504.358 244.89Z" fill="black"/>
<path d="M181.238 217.195C183.071 217.195 185.846 215.82 185.846 212.178V200.843C185.846 200.224 185.945 200.113 186.503 200.001L192.412 198.7C192.846 198.601 193.13 198.254 193.13 197.821V193.151C193.13 192.457 192.573 191.999 191.892 192.147L185.326 193.572C184.471 193.758 184.013 194.204 184.013 194.947L184.087 208.722C184.087 209.292 183.827 209.664 183.319 209.763L181.35 210.184C178.822 210.704 177.646 212.005 177.646 213.9C177.646 215.833 179.145 217.195 181.238 217.195ZM168.342 198.453H179.417C179.888 198.453 180.259 198.069 180.259 197.61C180.259 197.152 179.888 196.78 179.417 196.78H168.342C167.884 196.78 167.5 197.152 167.5 197.61C167.5 198.069 167.884 198.453 168.342 198.453ZM168.342 202.863H179.417C179.9 202.863 180.259 202.479 180.259 202.008C180.259 201.55 179.888 201.19 179.417 201.19H168.342C167.884 201.19 167.5 201.55 167.5 202.008C167.5 202.479 167.872 202.863 168.342 202.863ZM168.342 207.273H179.417C179.9 207.273 180.259 206.901 180.259 206.43C180.259 205.972 179.888 205.6 179.417 205.6H168.342C167.884 205.6 167.5 205.972 167.5 206.43C167.5 206.901 167.872 207.273 168.342 207.273Z" fill="black"/>
<path d="M172.47 398V387.474L173.572 390.514L162.02 371.4H167.302L176.574 386.79H173.61L182.958 371.4H187.822L176.27 390.514L177.41 387.474V398H172.47ZM197.458 398.266C195.38 398.266 193.531 397.823 191.91 396.936C190.288 396.024 189.009 394.783 188.072 393.212C187.134 391.641 186.666 389.855 186.666 387.854C186.666 385.827 187.134 384.041 188.072 382.496C189.009 380.925 190.288 379.697 191.91 378.81C193.531 377.923 195.38 377.48 197.458 377.48C199.56 377.48 201.422 377.923 203.044 378.81C204.69 379.697 205.97 380.913 206.882 382.458C207.819 384.003 208.288 385.802 208.288 387.854C208.288 389.855 207.819 391.641 206.882 393.212C205.97 394.783 204.69 396.024 203.044 396.936C201.422 397.823 199.56 398.266 197.458 398.266ZM197.458 394.2C198.623 394.2 199.662 393.947 200.574 393.44C201.486 392.933 202.195 392.199 202.702 391.236C203.234 390.273 203.5 389.146 203.5 387.854C203.5 386.537 203.234 385.409 202.702 384.472C202.195 383.509 201.486 382.775 200.574 382.268C199.662 381.761 198.636 381.508 197.496 381.508C196.33 381.508 195.292 381.761 194.38 382.268C193.493 382.775 192.784 383.509 192.252 384.472C191.72 385.409 191.454 386.537 191.454 387.854C191.454 389.146 191.72 390.273 192.252 391.236C192.784 392.199 193.493 392.933 194.38 393.44C195.292 393.947 196.318 394.2 197.458 394.2ZM221.418 398.266C219.695 398.266 218.175 397.949 216.858 397.316C215.541 396.657 214.515 395.669 213.78 394.352C213.045 393.009 212.678 391.325 212.678 389.298V377.708H217.428V388.652C217.428 390.476 217.833 391.844 218.644 392.756C219.48 393.643 220.658 394.086 222.178 394.086C223.293 394.086 224.255 393.858 225.066 393.402C225.902 392.946 226.548 392.262 227.004 391.35C227.485 390.438 227.726 389.311 227.726 387.968V377.708H232.476V398H227.954V392.528L228.752 394.2C228.068 395.517 227.067 396.531 225.75 397.24C224.433 397.924 222.989 398.266 221.418 398.266ZM237.441 381.318L239.645 372.882L240.291 375.732C239.404 375.732 238.657 375.453 238.049 374.896C237.466 374.339 237.175 373.591 237.175 372.654C237.175 371.717 237.466 370.969 238.049 370.412C238.657 369.829 239.392 369.538 240.253 369.538C241.14 369.538 241.874 369.829 242.457 370.412C243.04 370.995 243.331 371.742 243.331 372.654C243.331 372.933 243.306 373.224 243.255 373.528C243.23 373.807 243.154 374.136 243.027 374.516C242.926 374.871 242.748 375.339 242.495 375.922L240.519 381.318H237.441ZM247.972 398V377.708H252.494V383.294L251.962 381.66C252.57 380.292 253.52 379.253 254.812 378.544C256.13 377.835 257.764 377.48 259.714 377.48V382.002C259.512 381.951 259.322 381.926 259.144 381.926C258.967 381.901 258.79 381.888 258.612 381.888C256.814 381.888 255.382 382.42 254.318 383.484C253.254 384.523 252.722 386.081 252.722 388.158V398H247.972ZM273.096 398.266C270.842 398.266 268.866 397.823 267.168 396.936C265.496 396.024 264.192 394.783 263.254 393.212C262.342 391.641 261.886 389.855 261.886 387.854C261.886 385.827 262.33 384.041 263.216 382.496C264.128 380.925 265.37 379.697 266.94 378.81C268.536 377.923 270.348 377.48 272.374 377.48C274.35 377.48 276.111 377.911 277.656 378.772C279.202 379.633 280.418 380.849 281.304 382.42C282.191 383.991 282.634 385.84 282.634 387.968C282.634 388.171 282.622 388.399 282.596 388.652C282.596 388.905 282.584 389.146 282.558 389.374H265.648V386.22H280.05L278.188 387.208C278.214 386.043 277.973 385.017 277.466 384.13C276.96 383.243 276.263 382.547 275.376 382.04C274.515 381.533 273.514 381.28 272.374 381.28C271.209 381.28 270.183 381.533 269.296 382.04C268.435 382.547 267.751 383.256 267.244 384.168C266.763 385.055 266.522 386.106 266.522 387.322V388.082C266.522 389.298 266.801 390.375 267.358 391.312C267.916 392.249 268.701 392.971 269.714 393.478C270.728 393.985 271.893 394.238 273.21 394.238C274.35 394.238 275.376 394.061 276.288 393.706C277.2 393.351 278.011 392.794 278.72 392.034L281.266 394.96C280.354 396.024 279.202 396.847 277.808 397.43C276.44 397.987 274.87 398.266 273.096 398.266ZM310.201 398V393.896L309.935 393.022V385.84C309.935 384.447 309.517 383.37 308.681 382.61C307.845 381.825 306.578 381.432 304.881 381.432C303.741 381.432 302.614 381.609 301.499 381.964C300.41 382.319 299.485 382.813 298.725 383.446L296.863 379.988C297.952 379.152 299.244 378.531 300.739 378.126C302.259 377.695 303.83 377.48 305.451 377.48C308.39 377.48 310.657 378.189 312.253 379.608C313.874 381.001 314.685 383.167 314.685 386.106V398H310.201ZM303.817 398.266C302.297 398.266 300.967 398.013 299.827 397.506C298.687 396.974 297.8 396.252 297.167 395.34C296.559 394.403 296.255 393.351 296.255 392.186C296.255 391.046 296.521 390.02 297.053 389.108C297.61 388.196 298.51 387.474 299.751 386.942C300.992 386.41 302.639 386.144 304.691 386.144H310.581V389.298H305.033C303.412 389.298 302.322 389.564 301.765 390.096C301.208 390.603 300.929 391.236 300.929 391.996C300.929 392.857 301.271 393.541 301.955 394.048C302.639 394.555 303.589 394.808 304.805 394.808C305.97 394.808 307.009 394.542 307.921 394.01C308.858 393.478 309.53 392.693 309.935 391.654L310.733 394.504C310.277 395.695 309.454 396.619 308.263 397.278C307.098 397.937 305.616 398.266 303.817 398.266ZM320.781 398V369.804H325.531V398H320.781ZM331.765 398V369.804H336.515V398H331.765ZM362.562 398.266C360.434 398.266 358.534 397.823 356.862 396.936C355.215 396.024 353.923 394.783 352.986 393.212C352.048 391.641 351.58 389.855 351.58 387.854C351.58 385.827 352.048 384.041 352.986 382.496C353.923 380.925 355.215 379.697 356.862 378.81C358.534 377.923 360.434 377.48 362.562 377.48C364.538 377.48 366.273 377.885 367.768 378.696C369.288 379.481 370.44 380.647 371.226 382.192L367.578 384.32C366.97 383.357 366.222 382.648 365.336 382.192C364.474 381.736 363.537 381.508 362.524 381.508C361.358 381.508 360.307 381.761 359.37 382.268C358.432 382.775 357.698 383.509 357.166 384.472C356.634 385.409 356.368 386.537 356.368 387.854C356.368 389.171 356.634 390.311 357.166 391.274C357.698 392.211 358.432 392.933 359.37 393.44C360.307 393.947 361.358 394.2 362.524 394.2C363.537 394.2 364.474 393.972 365.336 393.516C366.222 393.06 366.97 392.351 367.578 391.388L371.226 393.516C370.44 395.036 369.288 396.214 367.768 397.05C366.273 397.861 364.538 398.266 362.562 398.266ZM387.834 398V393.896L387.568 393.022V385.84C387.568 384.447 387.15 383.37 386.314 382.61C385.478 381.825 384.211 381.432 382.514 381.432C381.374 381.432 380.246 381.609 379.132 381.964C378.042 382.319 377.118 382.813 376.358 383.446L374.496 379.988C375.585 379.152 376.877 378.531 378.372 378.126C379.892 377.695 381.462 377.48 383.084 377.48C386.022 377.48 388.29 378.189 389.886 379.608C391.507 381.001 392.318 383.167 392.318 386.106V398H387.834ZM381.45 398.266C379.93 398.266 378.6 398.013 377.46 397.506C376.32 396.974 375.433 396.252 374.8 395.34C374.192 394.403 373.888 393.351 373.888 392.186C373.888 391.046 374.154 390.02 374.686 389.108C375.243 388.196 376.142 387.474 377.384 386.942C378.625 386.41 380.272 386.144 382.324 386.144H388.214V389.298H382.666C381.044 389.298 379.955 389.564 379.398 390.096C378.84 390.603 378.562 391.236 378.562 391.996C378.562 392.857 378.904 393.541 379.588 394.048C380.272 394.555 381.222 394.808 382.438 394.808C383.603 394.808 384.642 394.542 385.554 394.01C386.491 393.478 387.162 392.693 387.568 391.654L388.366 394.504C387.91 395.695 387.086 396.619 385.896 397.278C384.73 397.937 383.248 398.266 381.45 398.266ZM406.052 398.266C403.823 398.266 402.1 397.696 400.884 396.556C399.668 395.391 399.06 393.681 399.06 391.426V373.224H403.81V391.312C403.81 392.275 404.051 393.022 404.532 393.554C405.039 394.086 405.735 394.352 406.622 394.352C407.686 394.352 408.573 394.073 409.282 393.516L410.612 396.898C410.055 397.354 409.371 397.696 408.56 397.924C407.749 398.152 406.913 398.266 406.052 398.266ZM395.716 381.66V377.86H409.244V381.66H395.716ZM423.161 398.266C421.033 398.266 419.133 397.823 417.461 396.936C415.815 396.024 414.523 394.783 413.585 393.212C412.648 391.641 412.179 389.855 412.179 387.854C412.179 385.827 412.648 384.041 413.585 382.496C414.523 380.925 415.815 379.697 417.461 378.81C419.133 377.923 421.033 377.48 423.161 377.48C425.137 377.48 426.873 377.885 428.367 378.696C429.887 379.481 431.04 380.647 431.825 382.192L428.177 384.32C427.569 383.357 426.822 382.648 425.935 382.192C425.074 381.736 424.137 381.508 423.123 381.508C421.958 381.508 420.907 381.761 419.969 382.268C419.032 382.775 418.297 383.509 417.765 384.472C417.233 385.409 416.967 386.537 416.967 387.854C416.967 389.171 417.233 390.311 417.765 391.274C418.297 392.211 419.032 392.933 419.969 393.44C420.907 393.947 421.958 394.2 423.123 394.2C424.137 394.2 425.074 393.972 425.935 393.516C426.822 393.06 427.569 392.351 428.177 391.388L431.825 393.516C431.04 395.036 429.887 396.214 428.367 397.05C426.873 397.861 425.137 398.266 423.161 398.266ZM447.26 377.48C448.881 377.48 450.325 377.797 451.592 378.43C452.884 379.063 453.897 380.039 454.632 381.356C455.367 382.648 455.734 384.32 455.734 386.372V398H450.984V386.98C450.984 385.181 450.553 383.839 449.692 382.952C448.856 382.065 447.678 381.622 446.158 381.622C445.043 381.622 444.055 381.85 443.194 382.306C442.333 382.762 441.661 383.446 441.18 384.358C440.724 385.245 440.496 386.372 440.496 387.74V398H435.746V369.804H440.496V383.18L439.47 381.508C440.179 380.216 441.205 379.228 442.548 378.544C443.916 377.835 445.487 377.48 447.26 377.48ZM480.85 398.266C479.127 398.266 477.607 397.949 476.29 397.316C474.972 396.657 473.946 395.669 473.212 394.352C472.477 393.009 472.11 391.325 472.11 389.298V377.708H476.86V388.652C476.86 390.476 477.265 391.844 478.076 392.756C478.912 393.643 480.09 394.086 481.61 394.086C482.724 394.086 483.687 393.858 484.498 393.402C485.334 392.946 485.98 392.262 486.436 391.35C486.917 390.438 487.158 389.311 487.158 387.968V377.708H491.908V398H487.386V392.528L488.184 394.2C487.5 395.517 486.499 396.531 485.182 397.24C483.864 397.924 482.42 398.266 480.85 398.266ZM509.375 398.266C507.728 398.266 506.221 397.886 504.853 397.126C503.51 396.366 502.433 395.226 501.623 393.706C500.837 392.161 500.445 390.21 500.445 387.854C500.445 385.473 500.825 383.522 501.585 382.002C502.37 380.482 503.434 379.355 504.777 378.62C506.119 377.86 507.652 377.48 509.375 377.48C511.376 377.48 513.137 377.911 514.657 378.772C516.202 379.633 517.418 380.837 518.305 382.382C519.217 383.927 519.673 385.751 519.673 387.854C519.673 389.957 519.217 391.793 518.305 393.364C517.418 394.909 516.202 396.113 514.657 396.974C513.137 397.835 511.376 398.266 509.375 398.266ZM498.127 405.372V377.708H502.649V382.496L502.497 387.892L502.877 393.288V405.372H498.127ZM508.843 394.2C509.983 394.2 510.996 393.947 511.883 393.44C512.795 392.933 513.517 392.199 514.049 391.236C514.581 390.273 514.847 389.146 514.847 387.854C514.847 386.537 514.581 385.409 514.049 384.472C513.517 383.509 512.795 382.775 511.883 382.268C510.996 381.761 509.983 381.508 508.843 381.508C507.703 381.508 506.677 381.761 505.765 382.268C504.853 382.775 504.131 383.509 503.599 384.472C503.067 385.409 502.801 386.537 502.801 387.854C502.801 389.146 503.067 390.273 503.599 391.236C504.131 392.199 504.853 392.933 505.765 393.44C506.677 393.947 507.703 394.2 508.843 394.2ZM524.482 389.184L523.57 371.4H529.194L528.244 389.184H524.482ZM526.382 398.266C525.495 398.266 524.76 397.975 524.178 397.392C523.595 396.809 523.304 396.113 523.304 395.302C523.304 394.491 523.595 393.807 524.178 393.25C524.76 392.667 525.495 392.376 526.382 392.376C527.268 392.376 527.99 392.667 528.548 393.25C529.105 393.807 529.384 394.491 529.384 395.302C529.384 396.113 529.105 396.809 528.548 397.392C527.99 397.975 527.268 398.266 526.382 398.266Z" fill="black"/>
<path d="M190.57 430.773V432H184.883V430.773H190.57ZM185.18 420.625V432H183.672V420.625H185.18ZM195.586 432.156C194.997 432.156 194.464 432.057 193.984 431.859C193.51 431.656 193.102 431.372 192.758 431.008C192.419 430.643 192.159 430.211 191.977 429.711C191.794 429.211 191.703 428.664 191.703 428.07V427.742C191.703 427.055 191.805 426.443 192.008 425.906C192.211 425.365 192.487 424.906 192.836 424.531C193.185 424.156 193.581 423.872 194.023 423.68C194.466 423.487 194.924 423.391 195.398 423.391C196.003 423.391 196.523 423.495 196.961 423.703C197.404 423.911 197.766 424.203 198.047 424.578C198.328 424.948 198.536 425.385 198.672 425.891C198.807 426.391 198.875 426.938 198.875 427.531V428.18H192.562V427H197.43V426.891C197.409 426.516 197.331 426.151 197.195 425.797C197.065 425.443 196.857 425.151 196.57 424.922C196.284 424.693 195.893 424.578 195.398 424.578C195.07 424.578 194.768 424.648 194.492 424.789C194.216 424.924 193.979 425.128 193.781 425.398C193.583 425.669 193.43 426 193.32 426.391C193.211 426.781 193.156 427.232 193.156 427.742V428.07C193.156 428.471 193.211 428.849 193.32 429.203C193.435 429.552 193.599 429.859 193.812 430.125C194.031 430.391 194.294 430.599 194.602 430.75C194.914 430.901 195.268 430.977 195.664 430.977C196.174 430.977 196.607 430.872 196.961 430.664C197.315 430.456 197.625 430.177 197.891 429.828L198.766 430.523C198.583 430.799 198.352 431.062 198.07 431.312C197.789 431.562 197.443 431.766 197.031 431.922C196.625 432.078 196.143 432.156 195.586 432.156ZM204.102 423.547V424.656H199.531V423.547H204.102ZM201.078 421.492H202.523V429.906C202.523 430.193 202.568 430.409 202.656 430.555C202.745 430.701 202.859 430.797 203 430.844C203.141 430.891 203.292 430.914 203.453 430.914C203.573 430.914 203.698 430.904 203.828 430.883C203.964 430.857 204.065 430.836 204.133 430.82L204.141 432C204.026 432.036 203.875 432.07 203.688 432.102C203.505 432.138 203.284 432.156 203.023 432.156C202.669 432.156 202.344 432.086 202.047 431.945C201.75 431.805 201.513 431.57 201.336 431.242C201.164 430.909 201.078 430.461 201.078 429.898V421.492ZM207.258 420V421C207.258 421.312 207.203 421.643 207.094 421.992C206.99 422.336 206.836 422.669 206.633 422.992C206.43 423.31 206.185 423.589 205.898 423.828L205.07 423.258C205.315 422.914 205.5 422.562 205.625 422.203C205.755 421.839 205.82 421.445 205.82 421.023V420H207.258ZM213.047 429.758C213.047 429.549 213 429.357 212.906 429.18C212.818 428.997 212.633 428.833 212.352 428.688C212.076 428.536 211.659 428.406 211.102 428.297C210.633 428.198 210.208 428.081 209.828 427.945C209.453 427.81 209.133 427.646 208.867 427.453C208.607 427.26 208.406 427.034 208.266 426.773C208.125 426.513 208.055 426.208 208.055 425.859C208.055 425.526 208.128 425.211 208.273 424.914C208.424 424.617 208.635 424.354 208.906 424.125C209.182 423.896 209.513 423.716 209.898 423.586C210.284 423.456 210.714 423.391 211.188 423.391C211.865 423.391 212.443 423.51 212.922 423.75C213.401 423.99 213.768 424.31 214.023 424.711C214.279 425.107 214.406 425.547 214.406 426.031H212.961C212.961 425.797 212.891 425.57 212.75 425.352C212.615 425.128 212.414 424.943 212.148 424.797C211.888 424.651 211.568 424.578 211.188 424.578C210.786 424.578 210.461 424.641 210.211 424.766C209.966 424.885 209.786 425.039 209.672 425.227C209.562 425.414 209.508 425.612 209.508 425.82C209.508 425.977 209.534 426.117 209.586 426.242C209.643 426.362 209.742 426.474 209.883 426.578C210.023 426.677 210.221 426.771 210.477 426.859C210.732 426.948 211.057 427.036 211.453 427.125C212.146 427.281 212.716 427.469 213.164 427.688C213.612 427.906 213.945 428.174 214.164 428.492C214.383 428.81 214.492 429.195 214.492 429.648C214.492 430.018 214.414 430.357 214.258 430.664C214.107 430.971 213.885 431.237 213.594 431.461C213.307 431.68 212.964 431.852 212.562 431.977C212.167 432.096 211.721 432.156 211.227 432.156C210.482 432.156 209.852 432.023 209.336 431.758C208.82 431.492 208.43 431.148 208.164 430.727C207.898 430.305 207.766 429.859 207.766 429.391H209.219C209.24 429.786 209.354 430.102 209.562 430.336C209.771 430.565 210.026 430.729 210.328 430.828C210.63 430.922 210.93 430.969 211.227 430.969C211.622 430.969 211.953 430.917 212.219 430.812C212.49 430.708 212.695 430.565 212.836 430.383C212.977 430.201 213.047 429.992 213.047 429.758ZM221.812 420V432H220.359V420H221.812ZM226.977 423.547L223.289 427.492L221.227 429.633L221.109 428.094L222.586 426.328L225.211 423.547H226.977ZM225.656 432L222.641 427.969L223.391 426.68L227.359 432H225.656ZM231.82 432.156C231.232 432.156 230.698 432.057 230.219 431.859C229.745 431.656 229.336 431.372 228.992 431.008C228.654 430.643 228.393 430.211 228.211 429.711C228.029 429.211 227.938 428.664 227.938 428.07V427.742C227.938 427.055 228.039 426.443 228.242 425.906C228.445 425.365 228.721 424.906 229.07 424.531C229.419 424.156 229.815 423.872 230.258 423.68C230.701 423.487 231.159 423.391 231.633 423.391C232.237 423.391 232.758 423.495 233.195 423.703C233.638 423.911 234 424.203 234.281 424.578C234.562 424.948 234.771 425.385 234.906 425.891C235.042 426.391 235.109 426.938 235.109 427.531V428.18H228.797V427H233.664V426.891C233.643 426.516 233.565 426.151 233.43 425.797C233.299 425.443 233.091 425.151 232.805 424.922C232.518 424.693 232.128 424.578 231.633 424.578C231.305 424.578 231.003 424.648 230.727 424.789C230.451 424.924 230.214 425.128 230.016 425.398C229.818 425.669 229.664 426 229.555 426.391C229.445 426.781 229.391 427.232 229.391 427.742V428.07C229.391 428.471 229.445 428.849 229.555 429.203C229.669 429.552 229.833 429.859 230.047 430.125C230.266 430.391 230.529 430.599 230.836 430.75C231.148 430.901 231.503 430.977 231.898 430.977C232.409 430.977 232.841 430.872 233.195 430.664C233.549 430.456 233.859 430.177 234.125 429.828L235 430.523C234.818 430.799 234.586 431.062 234.305 431.312C234.023 431.562 233.677 431.766 233.266 431.922C232.859 432.078 232.378 432.156 231.82 432.156ZM240.305 432.156C239.716 432.156 239.182 432.057 238.703 431.859C238.229 431.656 237.82 431.372 237.477 431.008C237.138 430.643 236.878 430.211 236.695 429.711C236.513 429.211 236.422 428.664 236.422 428.07V427.742C236.422 427.055 236.523 426.443 236.727 425.906C236.93 425.365 237.206 424.906 237.555 424.531C237.904 424.156 238.299 423.872 238.742 423.68C239.185 423.487 239.643 423.391 240.117 423.391C240.721 423.391 241.242 423.495 241.68 423.703C242.122 423.911 242.484 424.203 242.766 424.578C243.047 424.948 243.255 425.385 243.391 425.891C243.526 426.391 243.594 426.938 243.594 427.531V428.18H237.281V427H242.148V426.891C242.128 426.516 242.049 426.151 241.914 425.797C241.784 425.443 241.576 425.151 241.289 424.922C241.003 424.693 240.612 424.578 240.117 424.578C239.789 424.578 239.487 424.648 239.211 424.789C238.935 424.924 238.698 425.128 238.5 425.398C238.302 425.669 238.148 426 238.039 426.391C237.93 426.781 237.875 427.232 237.875 427.742V428.07C237.875 428.471 237.93 428.849 238.039 429.203C238.154 429.552 238.318 429.859 238.531 430.125C238.75 430.391 239.013 430.599 239.32 430.75C239.633 430.901 239.987 430.977 240.383 430.977C240.893 430.977 241.326 430.872 241.68 430.664C242.034 430.456 242.344 430.177 242.609 429.828L243.484 430.523C243.302 430.799 243.07 431.062 242.789 431.312C242.508 431.562 242.161 431.766 241.75 431.922C241.344 432.078 240.862 432.156 240.305 432.156ZM246.727 425.172V435.25H245.273V423.547H246.602L246.727 425.172ZM252.422 427.703V427.867C252.422 428.482 252.349 429.052 252.203 429.578C252.057 430.099 251.844 430.552 251.562 430.938C251.286 431.323 250.945 431.622 250.539 431.836C250.133 432.049 249.667 432.156 249.141 432.156C248.604 432.156 248.13 432.068 247.719 431.891C247.307 431.714 246.958 431.456 246.672 431.117C246.385 430.779 246.156 430.372 245.984 429.898C245.818 429.424 245.703 428.891 245.641 428.297V427.422C245.703 426.797 245.82 426.237 245.992 425.742C246.164 425.247 246.391 424.826 246.672 424.477C246.958 424.122 247.305 423.854 247.711 423.672C248.117 423.484 248.586 423.391 249.117 423.391C249.648 423.391 250.12 423.495 250.531 423.703C250.943 423.906 251.289 424.198 251.57 424.578C251.852 424.958 252.062 425.414 252.203 425.945C252.349 426.471 252.422 427.057 252.422 427.703ZM250.969 427.867V427.703C250.969 427.281 250.924 426.885 250.836 426.516C250.747 426.141 250.609 425.812 250.422 425.531C250.24 425.245 250.005 425.021 249.719 424.859C249.432 424.693 249.091 424.609 248.695 424.609C248.331 424.609 248.013 424.672 247.742 424.797C247.477 424.922 247.25 425.091 247.062 425.305C246.875 425.513 246.721 425.753 246.602 426.023C246.487 426.289 246.401 426.565 246.344 426.852V428.875C246.448 429.24 246.594 429.583 246.781 429.906C246.969 430.224 247.219 430.482 247.531 430.68C247.844 430.872 248.237 430.969 248.711 430.969C249.102 430.969 249.438 430.888 249.719 430.727C250.005 430.56 250.24 430.333 250.422 430.047C250.609 429.76 250.747 429.432 250.836 429.062C250.924 428.688 250.969 428.289 250.969 427.867ZM261.742 432.156C261.154 432.156 260.62 432.057 260.141 431.859C259.667 431.656 259.258 431.372 258.914 431.008C258.576 430.643 258.315 430.211 258.133 429.711C257.951 429.211 257.859 428.664 257.859 428.07V427.742C257.859 427.055 257.961 426.443 258.164 425.906C258.367 425.365 258.643 424.906 258.992 424.531C259.341 424.156 259.737 423.872 260.18 423.68C260.622 423.487 261.081 423.391 261.555 423.391C262.159 423.391 262.68 423.495 263.117 423.703C263.56 423.911 263.922 424.203 264.203 424.578C264.484 424.948 264.693 425.385 264.828 425.891C264.964 426.391 265.031 426.938 265.031 427.531V428.18H258.719V427H263.586V426.891C263.565 426.516 263.487 426.151 263.352 425.797C263.221 425.443 263.013 425.151 262.727 424.922C262.44 424.693 262.049 424.578 261.555 424.578C261.227 424.578 260.924 424.648 260.648 424.789C260.372 424.924 260.135 425.128 259.938 425.398C259.74 425.669 259.586 426 259.477 426.391C259.367 426.781 259.312 427.232 259.312 427.742V428.07C259.312 428.471 259.367 428.849 259.477 429.203C259.591 429.552 259.755 429.859 259.969 430.125C260.188 430.391 260.451 430.599 260.758 430.75C261.07 430.901 261.424 430.977 261.82 430.977C262.331 430.977 262.763 430.872 263.117 430.664C263.471 430.456 263.781 430.177 264.047 429.828L264.922 430.523C264.74 430.799 264.508 431.062 264.227 431.312C263.945 431.562 263.599 431.766 263.188 431.922C262.781 432.078 262.299 432.156 261.742 432.156ZM267.695 423.547L269.547 426.625L271.422 423.547H273.117L270.352 427.719L273.203 432H271.531L269.578 428.828L267.625 432H265.945L268.789 427.719L266.031 423.547H267.695ZM276.102 425.172V435.25H274.648V423.547H275.977L276.102 425.172ZM281.797 427.703V427.867C281.797 428.482 281.724 429.052 281.578 429.578C281.432 430.099 281.219 430.552 280.938 430.938C280.661 431.323 280.32 431.622 279.914 431.836C279.508 432.049 279.042 432.156 278.516 432.156C277.979 432.156 277.505 432.068 277.094 431.891C276.682 431.714 276.333 431.456 276.047 431.117C275.76 430.779 275.531 430.372 275.359 429.898C275.193 429.424 275.078 428.891 275.016 428.297V427.422C275.078 426.797 275.195 426.237 275.367 425.742C275.539 425.247 275.766 424.826 276.047 424.477C276.333 424.122 276.68 423.854 277.086 423.672C277.492 423.484 277.961 423.391 278.492 423.391C279.023 423.391 279.495 423.495 279.906 423.703C280.318 423.906 280.664 424.198 280.945 424.578C281.227 424.958 281.438 425.414 281.578 425.945C281.724 426.471 281.797 427.057 281.797 427.703ZM280.344 427.867V427.703C280.344 427.281 280.299 426.885 280.211 426.516C280.122 426.141 279.984 425.812 279.797 425.531C279.615 425.245 279.38 425.021 279.094 424.859C278.807 424.693 278.466 424.609 278.07 424.609C277.706 424.609 277.388 424.672 277.117 424.797C276.852 424.922 276.625 425.091 276.438 425.305C276.25 425.513 276.096 425.753 275.977 426.023C275.862 426.289 275.776 426.565 275.719 426.852V428.875C275.823 429.24 275.969 429.583 276.156 429.906C276.344 430.224 276.594 430.482 276.906 430.68C277.219 430.872 277.612 430.969 278.086 430.969C278.477 430.969 278.812 430.888 279.094 430.727C279.38 430.56 279.615 430.333 279.797 430.047C279.984 429.76 280.122 429.432 280.211 429.062C280.299 428.688 280.344 428.289 280.344 427.867ZM285.211 420V432H283.758V420H285.211ZM287.148 427.867V427.688C287.148 427.078 287.237 426.513 287.414 425.992C287.591 425.466 287.846 425.01 288.18 424.625C288.513 424.234 288.917 423.932 289.391 423.719C289.865 423.5 290.396 423.391 290.984 423.391C291.578 423.391 292.112 423.5 292.586 423.719C293.065 423.932 293.471 424.234 293.805 424.625C294.143 425.01 294.401 425.466 294.578 425.992C294.755 426.513 294.844 427.078 294.844 427.688V427.867C294.844 428.477 294.755 429.042 294.578 429.562C294.401 430.083 294.143 430.539 293.805 430.93C293.471 431.315 293.068 431.617 292.594 431.836C292.125 432.049 291.594 432.156 291 432.156C290.406 432.156 289.872 432.049 289.398 431.836C288.924 431.617 288.518 431.315 288.18 430.93C287.846 430.539 287.591 430.083 287.414 429.562C287.237 429.042 287.148 428.477 287.148 427.867ZM288.594 427.688V427.867C288.594 428.289 288.643 428.688 288.742 429.062C288.841 429.432 288.99 429.76 289.188 430.047C289.391 430.333 289.643 430.56 289.945 430.727C290.247 430.888 290.599 430.969 291 430.969C291.396 430.969 291.742 430.888 292.039 430.727C292.341 430.56 292.591 430.333 292.789 430.047C292.987 429.76 293.135 429.432 293.234 429.062C293.339 428.688 293.391 428.289 293.391 427.867V427.688C293.391 427.271 293.339 426.878 293.234 426.508C293.135 426.133 292.984 425.802 292.781 425.516C292.583 425.224 292.333 424.995 292.031 424.828C291.734 424.661 291.385 424.578 290.984 424.578C290.589 424.578 290.24 424.661 289.938 424.828C289.641 424.995 289.391 425.224 289.188 425.516C288.99 425.802 288.841 426.133 288.742 426.508C288.643 426.878 288.594 427.271 288.594 427.688ZM298.102 424.875V432H296.656V423.547H298.062L298.102 424.875ZM300.742 423.5L300.734 424.844C300.615 424.818 300.5 424.802 300.391 424.797C300.286 424.786 300.167 424.781 300.031 424.781C299.698 424.781 299.404 424.833 299.148 424.938C298.893 425.042 298.677 425.188 298.5 425.375C298.323 425.562 298.182 425.786 298.078 426.047C297.979 426.302 297.914 426.583 297.883 426.891L297.477 427.125C297.477 426.615 297.526 426.135 297.625 425.688C297.729 425.24 297.888 424.844 298.102 424.5C298.315 424.151 298.586 423.88 298.914 423.688C299.247 423.49 299.643 423.391 300.102 423.391C300.206 423.391 300.326 423.404 300.461 423.43C300.596 423.451 300.69 423.474 300.742 423.5ZM303.648 423.547V432H302.195V423.547H303.648ZM302.086 421.305C302.086 421.07 302.156 420.872 302.297 420.711C302.443 420.549 302.656 420.469 302.938 420.469C303.214 420.469 303.424 420.549 303.57 420.711C303.721 420.872 303.797 421.07 303.797 421.305C303.797 421.529 303.721 421.721 303.57 421.883C303.424 422.039 303.214 422.117 302.938 422.117C302.656 422.117 302.443 422.039 302.297 421.883C302.156 421.721 302.086 421.529 302.086 421.305ZM307.414 425.352V432H305.969V423.547H307.336L307.414 425.352ZM307.07 427.453L306.469 427.43C306.474 426.852 306.56 426.318 306.727 425.828C306.893 425.333 307.128 424.904 307.43 424.539C307.732 424.174 308.091 423.893 308.508 423.695C308.93 423.492 309.396 423.391 309.906 423.391C310.323 423.391 310.698 423.448 311.031 423.562C311.365 423.672 311.648 423.849 311.883 424.094C312.122 424.339 312.305 424.656 312.43 425.047C312.555 425.432 312.617 425.904 312.617 426.461V432H311.164V426.445C311.164 426.003 311.099 425.648 310.969 425.383C310.839 425.112 310.648 424.917 310.398 424.797C310.148 424.672 309.841 424.609 309.477 424.609C309.117 424.609 308.789 424.685 308.492 424.836C308.201 424.987 307.948 425.195 307.734 425.461C307.526 425.727 307.362 426.031 307.242 426.375C307.128 426.714 307.07 427.073 307.07 427.453ZM320.289 423.547H321.602V431.82C321.602 432.565 321.451 433.201 321.148 433.727C320.846 434.253 320.424 434.651 319.883 434.922C319.346 435.198 318.727 435.336 318.023 435.336C317.732 435.336 317.388 435.289 316.992 435.195C316.602 435.107 316.216 434.953 315.836 434.734C315.461 434.521 315.146 434.232 314.891 433.867L315.648 433.008C316.003 433.435 316.372 433.732 316.758 433.898C317.148 434.065 317.534 434.148 317.914 434.148C318.372 434.148 318.768 434.062 319.102 433.891C319.435 433.719 319.693 433.464 319.875 433.125C320.062 432.792 320.156 432.38 320.156 431.891V425.406L320.289 423.547ZM314.469 427.867V427.703C314.469 427.057 314.544 426.471 314.695 425.945C314.852 425.414 315.073 424.958 315.359 424.578C315.651 424.198 316.003 423.906 316.414 423.703C316.826 423.495 317.289 423.391 317.805 423.391C318.336 423.391 318.799 423.484 319.195 423.672C319.596 423.854 319.935 424.122 320.211 424.477C320.492 424.826 320.714 425.247 320.875 425.742C321.036 426.237 321.148 426.797 321.211 427.422V428.141C321.154 428.76 321.042 429.318 320.875 429.812C320.714 430.307 320.492 430.729 320.211 431.078C319.935 431.427 319.596 431.695 319.195 431.883C318.794 432.065 318.326 432.156 317.789 432.156C317.284 432.156 316.826 432.049 316.414 431.836C316.008 431.622 315.659 431.323 315.367 430.938C315.076 430.552 314.852 430.099 314.695 429.578C314.544 429.052 314.469 428.482 314.469 427.867ZM315.914 427.703V427.867C315.914 428.289 315.956 428.685 316.039 429.055C316.128 429.424 316.26 429.75 316.438 430.031C316.62 430.312 316.852 430.534 317.133 430.695C317.414 430.852 317.75 430.93 318.141 430.93C318.62 430.93 319.016 430.828 319.328 430.625C319.641 430.422 319.888 430.154 320.07 429.82C320.258 429.487 320.404 429.125 320.508 428.734V426.852C320.451 426.565 320.362 426.289 320.242 426.023C320.128 425.753 319.977 425.513 319.789 425.305C319.607 425.091 319.38 424.922 319.109 424.797C318.839 424.672 318.521 424.609 318.156 424.609C317.76 424.609 317.419 424.693 317.133 424.859C316.852 425.021 316.62 425.245 316.438 425.531C316.26 425.812 316.128 426.141 316.039 426.516C315.956 426.885 315.914 427.281 315.914 427.703ZM325.516 420.625L325.414 428.789H324.109L324 420.625H325.516ZM323.953 431.273C323.953 431.039 324.023 430.841 324.164 430.68C324.31 430.518 324.523 430.438 324.805 430.438C325.081 430.438 325.292 430.518 325.438 430.68C325.589 430.841 325.664 431.039 325.664 431.273C325.664 431.497 325.589 431.69 325.438 431.852C325.292 432.013 325.081 432.094 324.805 432.094C324.523 432.094 324.31 432.013 324.164 431.852C324.023 431.69 323.953 431.497 323.953 431.273ZM338.977 428.383H340.477C340.398 429.102 340.193 429.745 339.859 430.312C339.526 430.88 339.055 431.331 338.445 431.664C337.836 431.992 337.076 432.156 336.164 432.156C335.497 432.156 334.891 432.031 334.344 431.781C333.802 431.531 333.336 431.177 332.945 430.719C332.555 430.255 332.253 429.701 332.039 429.055C331.831 428.404 331.727 427.68 331.727 426.883V425.75C331.727 424.953 331.831 424.232 332.039 423.586C332.253 422.935 332.557 422.378 332.953 421.914C333.354 421.451 333.836 421.094 334.398 420.844C334.961 420.594 335.594 420.469 336.297 420.469C337.156 420.469 337.883 420.63 338.477 420.953C339.07 421.276 339.531 421.724 339.859 422.297C340.193 422.865 340.398 423.523 340.477 424.273H338.977C338.904 423.742 338.768 423.286 338.57 422.906C338.372 422.521 338.091 422.224 337.727 422.016C337.362 421.807 336.885 421.703 336.297 421.703C335.792 421.703 335.346 421.799 334.961 421.992C334.581 422.185 334.26 422.458 334 422.812C333.745 423.167 333.552 423.591 333.422 424.086C333.292 424.581 333.227 425.13 333.227 425.734V426.883C333.227 427.44 333.284 427.964 333.398 428.453C333.518 428.943 333.698 429.372 333.938 429.742C334.177 430.112 334.482 430.404 334.852 430.617C335.221 430.826 335.659 430.93 336.164 430.93C336.805 430.93 337.315 430.828 337.695 430.625C338.076 430.422 338.362 430.13 338.555 429.75C338.753 429.37 338.893 428.914 338.977 428.383ZM341.93 427.867V427.688C341.93 427.078 342.018 426.513 342.195 425.992C342.372 425.466 342.628 425.01 342.961 424.625C343.294 424.234 343.698 423.932 344.172 423.719C344.646 423.5 345.177 423.391 345.766 423.391C346.359 423.391 346.893 423.5 347.367 423.719C347.846 423.932 348.253 424.234 348.586 424.625C348.924 425.01 349.182 425.466 349.359 425.992C349.536 426.513 349.625 427.078 349.625 427.688V427.867C349.625 428.477 349.536 429.042 349.359 429.562C349.182 430.083 348.924 430.539 348.586 430.93C348.253 431.315 347.849 431.617 347.375 431.836C346.906 432.049 346.375 432.156 345.781 432.156C345.188 432.156 344.654 432.049 344.18 431.836C343.706 431.617 343.299 431.315 342.961 430.93C342.628 430.539 342.372 430.083 342.195 429.562C342.018 429.042 341.93 428.477 341.93 427.867ZM343.375 427.688V427.867C343.375 428.289 343.424 428.688 343.523 429.062C343.622 429.432 343.771 429.76 343.969 430.047C344.172 430.333 344.424 430.56 344.727 430.727C345.029 430.888 345.38 430.969 345.781 430.969C346.177 430.969 346.523 430.888 346.82 430.727C347.122 430.56 347.372 430.333 347.57 430.047C347.768 429.76 347.917 429.432 348.016 429.062C348.12 428.688 348.172 428.289 348.172 427.867V427.688C348.172 427.271 348.12 426.878 348.016 426.508C347.917 426.133 347.766 425.802 347.562 425.516C347.365 425.224 347.115 424.995 346.812 424.828C346.516 424.661 346.167 424.578 345.766 424.578C345.37 424.578 345.021 424.661 344.719 424.828C344.422 424.995 344.172 425.224 343.969 425.516C343.771 425.802 343.622 426.133 343.523 426.508C343.424 426.878 343.375 427.271 343.375 427.688ZM352.875 425.227V432H351.422V423.547H352.797L352.875 425.227ZM352.578 427.453L351.906 427.43C351.911 426.852 351.987 426.318 352.133 425.828C352.279 425.333 352.495 424.904 352.781 424.539C353.068 424.174 353.424 423.893 353.852 423.695C354.279 423.492 354.773 423.391 355.336 423.391C355.732 423.391 356.096 423.448 356.43 423.562C356.763 423.672 357.052 423.846 357.297 424.086C357.542 424.326 357.732 424.633 357.867 425.008C358.003 425.383 358.07 425.836 358.07 426.367V432H356.625V426.438C356.625 425.995 356.549 425.641 356.398 425.375C356.253 425.109 356.044 424.917 355.773 424.797C355.503 424.672 355.185 424.609 354.82 424.609C354.393 424.609 354.036 424.685 353.75 424.836C353.464 424.987 353.234 425.195 353.062 425.461C352.891 425.727 352.766 426.031 352.688 426.375C352.615 426.714 352.578 427.073 352.578 427.453ZM358.055 426.656L357.086 426.953C357.091 426.49 357.167 426.044 357.312 425.617C357.464 425.19 357.68 424.81 357.961 424.477C358.247 424.143 358.599 423.88 359.016 423.688C359.432 423.49 359.909 423.391 360.445 423.391C360.898 423.391 361.299 423.451 361.648 423.57C362.003 423.69 362.299 423.875 362.539 424.125C362.784 424.37 362.969 424.685 363.094 425.07C363.219 425.456 363.281 425.914 363.281 426.445V432H361.828V426.43C361.828 425.956 361.753 425.589 361.602 425.328C361.456 425.062 361.247 424.878 360.977 424.773C360.711 424.664 360.393 424.609 360.023 424.609C359.706 424.609 359.424 424.664 359.18 424.773C358.935 424.883 358.729 425.034 358.562 425.227C358.396 425.414 358.268 425.63 358.18 425.875C358.096 426.12 358.055 426.38 358.055 426.656ZM368.977 432.156C368.388 432.156 367.854 432.057 367.375 431.859C366.901 431.656 366.492 431.372 366.148 431.008C365.81 430.643 365.549 430.211 365.367 429.711C365.185 429.211 365.094 428.664 365.094 428.07V427.742C365.094 427.055 365.195 426.443 365.398 425.906C365.602 425.365 365.878 424.906 366.227 424.531C366.576 424.156 366.971 423.872 367.414 423.68C367.857 423.487 368.315 423.391 368.789 423.391C369.393 423.391 369.914 423.495 370.352 423.703C370.794 423.911 371.156 424.203 371.438 424.578C371.719 424.948 371.927 425.385 372.062 425.891C372.198 426.391 372.266 426.938 372.266 427.531V428.18H365.953V427H370.82V426.891C370.799 426.516 370.721 426.151 370.586 425.797C370.456 425.443 370.247 425.151 369.961 424.922C369.674 424.693 369.284 424.578 368.789 424.578C368.461 424.578 368.159 424.648 367.883 424.789C367.607 424.924 367.37 425.128 367.172 425.398C366.974 425.669 366.82 426 366.711 426.391C366.602 426.781 366.547 427.232 366.547 427.742V428.07C366.547 428.471 366.602 428.849 366.711 429.203C366.826 429.552 366.99 429.859 367.203 430.125C367.422 430.391 367.685 430.599 367.992 430.75C368.305 430.901 368.659 430.977 369.055 430.977C369.565 430.977 369.997 430.872 370.352 430.664C370.706 430.456 371.016 430.177 371.281 429.828L372.156 430.523C371.974 430.799 371.742 431.062 371.461 431.312C371.18 431.562 370.833 431.766 370.422 431.922C370.016 432.078 369.534 432.156 368.977 432.156ZM377.914 420H379.367V430.359L379.242 432H377.914V420ZM385.078 427.703V427.867C385.078 428.482 385.005 429.052 384.859 429.578C384.714 430.099 384.5 430.552 384.219 430.938C383.938 431.323 383.594 431.622 383.188 431.836C382.781 432.049 382.315 432.156 381.789 432.156C381.253 432.156 380.781 432.065 380.375 431.883C379.974 431.695 379.635 431.427 379.359 431.078C379.083 430.729 378.862 430.307 378.695 429.812C378.534 429.318 378.422 428.76 378.359 428.141V427.422C378.422 426.797 378.534 426.237 378.695 425.742C378.862 425.247 379.083 424.826 379.359 424.477C379.635 424.122 379.974 423.854 380.375 423.672C380.776 423.484 381.242 423.391 381.773 423.391C382.305 423.391 382.776 423.495 383.188 423.703C383.599 423.906 383.943 424.198 384.219 424.578C384.5 424.958 384.714 425.414 384.859 425.945C385.005 426.471 385.078 427.057 385.078 427.703ZM383.625 427.867V427.703C383.625 427.281 383.586 426.885 383.508 426.516C383.43 426.141 383.305 425.812 383.133 425.531C382.961 425.245 382.734 425.021 382.453 424.859C382.172 424.693 381.826 424.609 381.414 424.609C381.049 424.609 380.732 424.672 380.461 424.797C380.195 424.922 379.969 425.091 379.781 425.305C379.594 425.513 379.44 425.753 379.32 426.023C379.206 426.289 379.12 426.565 379.062 426.852V428.734C379.146 429.099 379.281 429.451 379.469 429.789C379.661 430.122 379.917 430.396 380.234 430.609C380.557 430.823 380.956 430.93 381.43 430.93C381.82 430.93 382.154 430.852 382.43 430.695C382.711 430.534 382.938 430.312 383.109 430.031C383.286 429.75 383.417 429.424 383.5 429.055C383.583 428.685 383.625 428.289 383.625 427.867ZM391.891 430.555V426.203C391.891 425.87 391.823 425.581 391.688 425.336C391.557 425.086 391.359 424.893 391.094 424.758C390.828 424.622 390.5 424.555 390.109 424.555C389.745 424.555 389.424 424.617 389.148 424.742C388.878 424.867 388.664 425.031 388.508 425.234C388.357 425.438 388.281 425.656 388.281 425.891H386.836C386.836 425.589 386.914 425.289 387.07 424.992C387.227 424.695 387.451 424.427 387.742 424.188C388.039 423.943 388.393 423.75 388.805 423.609C389.221 423.464 389.685 423.391 390.195 423.391C390.81 423.391 391.352 423.495 391.82 423.703C392.294 423.911 392.664 424.227 392.93 424.648C393.201 425.065 393.336 425.589 393.336 426.219V430.156C393.336 430.438 393.359 430.737 393.406 431.055C393.458 431.372 393.534 431.646 393.633 431.875V432H392.125C392.052 431.833 391.995 431.612 391.953 431.336C391.911 431.055 391.891 430.794 391.891 430.555ZM392.141 426.875L392.156 427.891H390.695C390.284 427.891 389.917 427.924 389.594 427.992C389.271 428.055 389 428.151 388.781 428.281C388.562 428.411 388.396 428.576 388.281 428.773C388.167 428.966 388.109 429.193 388.109 429.453C388.109 429.719 388.169 429.961 388.289 430.18C388.409 430.398 388.589 430.573 388.828 430.703C389.073 430.828 389.372 430.891 389.727 430.891C390.169 430.891 390.56 430.797 390.898 430.609C391.237 430.422 391.505 430.193 391.703 429.922C391.906 429.651 392.016 429.388 392.031 429.133L392.648 429.828C392.612 430.047 392.513 430.289 392.352 430.555C392.19 430.82 391.974 431.076 391.703 431.32C391.438 431.56 391.12 431.76 390.75 431.922C390.385 432.078 389.974 432.156 389.516 432.156C388.943 432.156 388.44 432.044 388.008 431.82C387.581 431.596 387.247 431.297 387.008 430.922C386.773 430.542 386.656 430.117 386.656 429.648C386.656 429.195 386.745 428.797 386.922 428.453C387.099 428.104 387.354 427.815 387.688 427.586C388.021 427.352 388.422 427.174 388.891 427.055C389.359 426.935 389.883 426.875 390.461 426.875H392.141ZM398.992 430.969C399.336 430.969 399.654 430.898 399.945 430.758C400.237 430.617 400.477 430.424 400.664 430.18C400.852 429.93 400.958 429.646 400.984 429.328H402.359C402.333 429.828 402.164 430.294 401.852 430.727C401.544 431.154 401.141 431.5 400.641 431.766C400.141 432.026 399.591 432.156 398.992 432.156C398.357 432.156 397.802 432.044 397.328 431.82C396.859 431.596 396.469 431.289 396.156 430.898C395.849 430.508 395.617 430.06 395.461 429.555C395.31 429.044 395.234 428.505 395.234 427.938V427.609C395.234 427.042 395.31 426.505 395.461 426C395.617 425.49 395.849 425.039 396.156 424.648C396.469 424.258 396.859 423.951 397.328 423.727C397.802 423.503 398.357 423.391 398.992 423.391C399.654 423.391 400.232 423.526 400.727 423.797C401.221 424.062 401.609 424.427 401.891 424.891C402.177 425.349 402.333 425.87 402.359 426.453H400.984C400.958 426.104 400.859 425.789 400.688 425.508C400.521 425.227 400.292 425.003 400 424.836C399.714 424.664 399.378 424.578 398.992 424.578C398.549 424.578 398.177 424.667 397.875 424.844C397.578 425.016 397.341 425.25 397.164 425.547C396.992 425.839 396.867 426.164 396.789 426.523C396.716 426.878 396.68 427.24 396.68 427.609V427.938C396.68 428.307 396.716 428.672 396.789 429.031C396.862 429.391 396.984 429.716 397.156 430.008C397.333 430.299 397.57 430.534 397.867 430.711C398.169 430.883 398.544 430.969 398.992 430.969ZM405.438 420V432H403.984V420H405.438ZM410.602 423.547L406.914 427.492L404.852 429.633L404.734 428.094L406.211 426.328L408.836 423.547H410.602ZM409.281 432L406.266 427.969L407.016 426.68L410.984 432H409.281ZM417.633 420V432H416.18V420H417.633ZM424.938 430.555V426.203C424.938 425.87 424.87 425.581 424.734 425.336C424.604 425.086 424.406 424.893 424.141 424.758C423.875 424.622 423.547 424.555 423.156 424.555C422.792 424.555 422.471 424.617 422.195 424.742C421.924 424.867 421.711 425.031 421.555 425.234C421.404 425.438 421.328 425.656 421.328 425.891H419.883C419.883 425.589 419.961 425.289 420.117 424.992C420.273 424.695 420.497 424.427 420.789 424.188C421.086 423.943 421.44 423.75 421.852 423.609C422.268 423.464 422.732 423.391 423.242 423.391C423.857 423.391 424.398 423.495 424.867 423.703C425.341 423.911 425.711 424.227 425.977 424.648C426.247 425.065 426.383 425.589 426.383 426.219V430.156C426.383 430.438 426.406 430.737 426.453 431.055C426.505 431.372 426.581 431.646 426.68 431.875V432H425.172C425.099 431.833 425.042 431.612 425 431.336C424.958 431.055 424.938 430.794 424.938 430.555ZM425.188 426.875L425.203 427.891H423.742C423.331 427.891 422.964 427.924 422.641 427.992C422.318 428.055 422.047 428.151 421.828 428.281C421.609 428.411 421.443 428.576 421.328 428.773C421.214 428.966 421.156 429.193 421.156 429.453C421.156 429.719 421.216 429.961 421.336 430.18C421.456 430.398 421.635 430.573 421.875 430.703C422.12 430.828 422.419 430.891 422.773 430.891C423.216 430.891 423.607 430.797 423.945 430.609C424.284 430.422 424.552 430.193 424.75 429.922C424.953 429.651 425.062 429.388 425.078 429.133L425.695 429.828C425.659 430.047 425.56 430.289 425.398 430.555C425.237 430.82 425.021 431.076 424.75 431.32C424.484 431.56 424.167 431.76 423.797 431.922C423.432 432.078 423.021 432.156 422.562 432.156C421.99 432.156 421.487 432.044 421.055 431.82C420.628 431.596 420.294 431.297 420.055 430.922C419.82 430.542 419.703 430.117 419.703 429.648C419.703 429.195 419.792 428.797 419.969 428.453C420.146 428.104 420.401 427.815 420.734 427.586C421.068 427.352 421.469 427.174 421.938 427.055C422.406 426.935 422.93 426.875 423.508 426.875H425.188ZM432.195 423.547V424.656H427.625V423.547H432.195ZM429.172 421.492H430.617V429.906C430.617 430.193 430.661 430.409 430.75 430.555C430.839 430.701 430.953 430.797 431.094 430.844C431.234 430.891 431.385 430.914 431.547 430.914C431.667 430.914 431.792 430.904 431.922 430.883C432.057 430.857 432.159 430.836 432.227 430.82L432.234 432C432.12 432.036 431.969 432.07 431.781 432.102C431.599 432.138 431.378 432.156 431.117 432.156C430.763 432.156 430.438 432.086 430.141 431.945C429.844 431.805 429.607 431.57 429.43 431.242C429.258 430.909 429.172 430.461 429.172 429.898V421.492ZM437.398 432.156C436.81 432.156 436.276 432.057 435.797 431.859C435.323 431.656 434.914 431.372 434.57 431.008C434.232 430.643 433.971 430.211 433.789 429.711C433.607 429.211 433.516 428.664 433.516 428.07V427.742C433.516 427.055 433.617 426.443 433.82 425.906C434.023 425.365 434.299 424.906 434.648 424.531C434.997 424.156 435.393 423.872 435.836 423.68C436.279 423.487 436.737 423.391 437.211 423.391C437.815 423.391 438.336 423.495 438.773 423.703C439.216 423.911 439.578 424.203 439.859 424.578C440.141 424.948 440.349 425.385 440.484 425.891C440.62 426.391 440.688 426.938 440.688 427.531V428.18H434.375V427H439.242V426.891C439.221 426.516 439.143 426.151 439.008 425.797C438.878 425.443 438.669 425.151 438.383 424.922C438.096 424.693 437.706 424.578 437.211 424.578C436.883 424.578 436.581 424.648 436.305 424.789C436.029 424.924 435.792 425.128 435.594 425.398C435.396 425.669 435.242 426 435.133 426.391C435.023 426.781 434.969 427.232 434.969 427.742V428.07C434.969 428.471 435.023 428.849 435.133 429.203C435.247 429.552 435.411 429.859 435.625 430.125C435.844 430.391 436.107 430.599 436.414 430.75C436.727 430.901 437.081 430.977 437.477 430.977C437.987 430.977 438.419 430.872 438.773 430.664C439.128 430.456 439.438 430.177 439.703 429.828L440.578 430.523C440.396 430.799 440.164 431.062 439.883 431.312C439.602 431.562 439.255 431.766 438.844 431.922C438.438 432.078 437.956 432.156 437.398 432.156ZM443.82 424.875V432H442.375V423.547H443.781L443.82 424.875ZM446.461 423.5L446.453 424.844C446.333 424.818 446.219 424.802 446.109 424.797C446.005 424.786 445.885 424.781 445.75 424.781C445.417 424.781 445.122 424.833 444.867 424.938C444.612 425.042 444.396 425.188 444.219 425.375C444.042 425.562 443.901 425.786 443.797 426.047C443.698 426.302 443.633 426.583 443.602 426.891L443.195 427.125C443.195 426.615 443.245 426.135 443.344 425.688C443.448 425.24 443.607 424.844 443.82 424.5C444.034 424.151 444.305 423.88 444.633 423.688C444.966 423.49 445.362 423.391 445.82 423.391C445.924 423.391 446.044 423.404 446.18 423.43C446.315 423.451 446.409 423.474 446.461 423.5ZM453.922 432H452.477V422.656C452.477 422.047 452.586 421.534 452.805 421.117C453.029 420.695 453.349 420.378 453.766 420.164C454.182 419.945 454.677 419.836 455.25 419.836C455.417 419.836 455.583 419.846 455.75 419.867C455.922 419.888 456.089 419.919 456.25 419.961L456.172 421.141C456.062 421.115 455.938 421.096 455.797 421.086C455.661 421.076 455.526 421.07 455.391 421.07C455.083 421.07 454.818 421.133 454.594 421.258C454.375 421.378 454.208 421.555 454.094 421.789C453.979 422.023 453.922 422.312 453.922 422.656V432ZM455.719 423.547V424.656H451.141V423.547H455.719ZM456.945 427.867V427.688C456.945 427.078 457.034 426.513 457.211 425.992C457.388 425.466 457.643 425.01 457.977 424.625C458.31 424.234 458.714 423.932 459.188 423.719C459.661 423.5 460.193 423.391 460.781 423.391C461.375 423.391 461.909 423.5 462.383 423.719C462.862 423.932 463.268 424.234 463.602 424.625C463.94 425.01 464.198 425.466 464.375 425.992C464.552 426.513 464.641 427.078 464.641 427.688V427.867C464.641 428.477 464.552 429.042 464.375 429.562C464.198 430.083 463.94 430.539 463.602 430.93C463.268 431.315 462.865 431.617 462.391 431.836C461.922 432.049 461.391 432.156 460.797 432.156C460.203 432.156 459.669 432.049 459.195 431.836C458.721 431.617 458.315 431.315 457.977 430.93C457.643 430.539 457.388 430.083 457.211 429.562C457.034 429.042 456.945 428.477 456.945 427.867ZM458.391 427.688V427.867C458.391 428.289 458.44 428.688 458.539 429.062C458.638 429.432 458.786 429.76 458.984 430.047C459.188 430.333 459.44 430.56 459.742 430.727C460.044 430.888 460.396 430.969 460.797 430.969C461.193 430.969 461.539 430.888 461.836 430.727C462.138 430.56 462.388 430.333 462.586 430.047C462.784 429.76 462.932 429.432 463.031 429.062C463.135 428.688 463.188 428.289 463.188 427.867V427.688C463.188 427.271 463.135 426.878 463.031 426.508C462.932 426.133 462.781 425.802 462.578 425.516C462.38 425.224 462.13 424.995 461.828 424.828C461.531 424.661 461.182 424.578 460.781 424.578C460.385 424.578 460.036 424.661 459.734 424.828C459.438 424.995 459.188 425.224 458.984 425.516C458.786 425.802 458.638 426.133 458.539 426.508C458.44 426.878 458.391 427.271 458.391 427.688ZM467.898 424.875V432H466.453V423.547H467.859L467.898 424.875ZM470.539 423.5L470.531 424.844C470.411 424.818 470.297 424.802 470.188 424.797C470.083 424.786 469.964 424.781 469.828 424.781C469.495 424.781 469.201 424.833 468.945 424.938C468.69 425.042 468.474 425.188 468.297 425.375C468.12 425.562 467.979 425.786 467.875 426.047C467.776 426.302 467.711 426.583 467.68 426.891L467.273 427.125C467.273 426.615 467.323 426.135 467.422 425.688C467.526 425.24 467.685 424.844 467.898 424.5C468.112 424.151 468.383 423.88 468.711 423.688C469.044 423.49 469.44 423.391 469.898 423.391C470.003 423.391 470.122 423.404 470.258 423.43C470.393 423.451 470.487 423.474 470.539 423.5ZM477.281 425.227V432H475.828V423.547H477.203L477.281 425.227ZM476.984 427.453L476.312 427.43C476.318 426.852 476.393 426.318 476.539 425.828C476.685 425.333 476.901 424.904 477.188 424.539C477.474 424.174 477.831 423.893 478.258 423.695C478.685 423.492 479.18 423.391 479.742 423.391C480.138 423.391 480.503 423.448 480.836 423.562C481.169 423.672 481.458 423.846 481.703 424.086C481.948 424.326 482.138 424.633 482.273 425.008C482.409 425.383 482.477 425.836 482.477 426.367V432H481.031V426.438C481.031 425.995 480.956 425.641 480.805 425.375C480.659 425.109 480.451 424.917 480.18 424.797C479.909 424.672 479.591 424.609 479.227 424.609C478.799 424.609 478.443 424.685 478.156 424.836C477.87 424.987 477.641 425.195 477.469 425.461C477.297 425.727 477.172 426.031 477.094 426.375C477.021 426.714 476.984 427.073 476.984 427.453ZM482.461 426.656L481.492 426.953C481.497 426.49 481.573 426.044 481.719 425.617C481.87 425.19 482.086 424.81 482.367 424.477C482.654 424.143 483.005 423.88 483.422 423.688C483.839 423.49 484.315 423.391 484.852 423.391C485.305 423.391 485.706 423.451 486.055 423.57C486.409 423.69 486.706 423.875 486.945 424.125C487.19 424.37 487.375 424.685 487.5 425.07C487.625 425.456 487.688 425.914 487.688 426.445V432H486.234V426.43C486.234 425.956 486.159 425.589 486.008 425.328C485.862 425.062 485.654 424.878 485.383 424.773C485.117 424.664 484.799 424.609 484.43 424.609C484.112 424.609 483.831 424.664 483.586 424.773C483.341 424.883 483.135 425.034 482.969 425.227C482.802 425.414 482.674 425.63 482.586 425.875C482.503 426.12 482.461 426.38 482.461 426.656ZM489.492 427.867V427.688C489.492 427.078 489.581 426.513 489.758 425.992C489.935 425.466 490.19 425.01 490.523 424.625C490.857 424.234 491.26 423.932 491.734 423.719C492.208 423.5 492.74 423.391 493.328 423.391C493.922 423.391 494.456 423.5 494.93 423.719C495.409 423.932 495.815 424.234 496.148 424.625C496.487 425.01 496.745 425.466 496.922 425.992C497.099 426.513 497.188 427.078 497.188 427.688V427.867C497.188 428.477 497.099 429.042 496.922 429.562C496.745 430.083 496.487 430.539 496.148 430.93C495.815 431.315 495.411 431.617 494.938 431.836C494.469 432.049 493.938 432.156 493.344 432.156C492.75 432.156 492.216 432.049 491.742 431.836C491.268 431.617 490.862 431.315 490.523 430.93C490.19 430.539 489.935 430.083 489.758 429.562C489.581 429.042 489.492 428.477 489.492 427.867ZM490.938 427.688V427.867C490.938 428.289 490.987 428.688 491.086 429.062C491.185 429.432 491.333 429.76 491.531 430.047C491.734 430.333 491.987 430.56 492.289 430.727C492.591 430.888 492.943 430.969 493.344 430.969C493.74 430.969 494.086 430.888 494.383 430.727C494.685 430.56 494.935 430.333 495.133 430.047C495.331 429.76 495.479 429.432 495.578 429.062C495.682 428.688 495.734 428.289 495.734 427.867V427.688C495.734 427.271 495.682 426.878 495.578 426.508C495.479 426.133 495.328 425.802 495.125 425.516C494.927 425.224 494.677 424.995 494.375 424.828C494.078 424.661 493.729 424.578 493.328 424.578C492.932 424.578 492.583 424.661 492.281 424.828C491.984 424.995 491.734 425.224 491.531 425.516C491.333 425.802 491.185 426.133 491.086 426.508C490.987 426.878 490.938 427.271 490.938 427.688ZM500.445 424.875V432H499V423.547H500.406L500.445 424.875ZM503.086 423.5L503.078 424.844C502.958 424.818 502.844 424.802 502.734 424.797C502.63 424.786 502.51 424.781 502.375 424.781C502.042 424.781 501.747 424.833 501.492 424.938C501.237 425.042 501.021 425.188 500.844 425.375C500.667 425.562 500.526 425.786 500.422 426.047C500.323 426.302 500.258 426.583 500.227 426.891L499.82 427.125C499.82 426.615 499.87 426.135 499.969 425.688C500.073 425.24 500.232 424.844 500.445 424.5C500.659 424.151 500.93 423.88 501.258 423.688C501.591 423.49 501.987 423.391 502.445 423.391C502.549 423.391 502.669 423.404 502.805 423.43C502.94 423.451 503.034 423.474 503.086 423.5ZM507.773 432.156C507.185 432.156 506.651 432.057 506.172 431.859C505.698 431.656 505.289 431.372 504.945 431.008C504.607 430.643 504.346 430.211 504.164 429.711C503.982 429.211 503.891 428.664 503.891 428.07V427.742C503.891 427.055 503.992 426.443 504.195 425.906C504.398 425.365 504.674 424.906 505.023 424.531C505.372 424.156 505.768 423.872 506.211 423.68C506.654 423.487 507.112 423.391 507.586 423.391C508.19 423.391 508.711 423.495 509.148 423.703C509.591 423.911 509.953 424.203 510.234 424.578C510.516 424.948 510.724 425.385 510.859 425.891C510.995 426.391 511.062 426.938 511.062 427.531V428.18H504.75V427H509.617V426.891C509.596 426.516 509.518 426.151 509.383 425.797C509.253 425.443 509.044 425.151 508.758 424.922C508.471 424.693 508.081 424.578 507.586 424.578C507.258 424.578 506.956 424.648 506.68 424.789C506.404 424.924 506.167 425.128 505.969 425.398C505.771 425.669 505.617 426 505.508 426.391C505.398 426.781 505.344 427.232 505.344 427.742V428.07C505.344 428.471 505.398 428.849 505.508 429.203C505.622 429.552 505.786 429.859 506 430.125C506.219 430.391 506.482 430.599 506.789 430.75C507.102 430.901 507.456 430.977 507.852 430.977C508.362 430.977 508.794 430.872 509.148 430.664C509.503 430.456 509.812 430.177 510.078 429.828L510.953 430.523C510.771 430.799 510.539 431.062 510.258 431.312C509.977 431.562 509.63 431.766 509.219 431.922C508.812 432.078 508.331 432.156 507.773 432.156ZM276.555 449.352V456H275.109V447.547H276.477L276.555 449.352ZM276.211 451.453L275.609 451.43C275.615 450.852 275.701 450.318 275.867 449.828C276.034 449.333 276.268 448.904 276.57 448.539C276.872 448.174 277.232 447.893 277.648 447.695C278.07 447.492 278.536 447.391 279.047 447.391C279.464 447.391 279.839 447.448 280.172 447.562C280.505 447.672 280.789 447.849 281.023 448.094C281.263 448.339 281.445 448.656 281.57 449.047C281.695 449.432 281.758 449.904 281.758 450.461V456H280.305V450.445C280.305 450.003 280.24 449.648 280.109 449.383C279.979 449.112 279.789 448.917 279.539 448.797C279.289 448.672 278.982 448.609 278.617 448.609C278.258 448.609 277.93 448.685 277.633 448.836C277.341 448.987 277.089 449.195 276.875 449.461C276.667 449.727 276.503 450.031 276.383 450.375C276.268 450.714 276.211 451.073 276.211 451.453ZM283.57 451.867V451.688C283.57 451.078 283.659 450.513 283.836 449.992C284.013 449.466 284.268 449.01 284.602 448.625C284.935 448.234 285.339 447.932 285.812 447.719C286.286 447.5 286.818 447.391 287.406 447.391C288 447.391 288.534 447.5 289.008 447.719C289.487 447.932 289.893 448.234 290.227 448.625C290.565 449.01 290.823 449.466 291 449.992C291.177 450.513 291.266 451.078 291.266 451.688V451.867C291.266 452.477 291.177 453.042 291 453.562C290.823 454.083 290.565 454.539 290.227 454.93C289.893 455.315 289.49 455.617 289.016 455.836C288.547 456.049 288.016 456.156 287.422 456.156C286.828 456.156 286.294 456.049 285.82 455.836C285.346 455.617 284.94 455.315 284.602 454.93C284.268 454.539 284.013 454.083 283.836 453.562C283.659 453.042 283.57 452.477 283.57 451.867ZM285.016 451.688V451.867C285.016 452.289 285.065 452.688 285.164 453.062C285.263 453.432 285.411 453.76 285.609 454.047C285.812 454.333 286.065 454.56 286.367 454.727C286.669 454.888 287.021 454.969 287.422 454.969C287.818 454.969 288.164 454.888 288.461 454.727C288.763 454.56 289.013 454.333 289.211 454.047C289.409 453.76 289.557 453.432 289.656 453.062C289.76 452.688 289.812 452.289 289.812 451.867V451.688C289.812 451.271 289.76 450.878 289.656 450.508C289.557 450.133 289.406 449.802 289.203 449.516C289.005 449.224 288.755 448.995 288.453 448.828C288.156 448.661 287.807 448.578 287.406 448.578C287.01 448.578 286.661 448.661 286.359 448.828C286.062 448.995 285.812 449.224 285.609 449.516C285.411 449.802 285.263 450.133 285.164 450.508C285.065 450.878 285.016 451.271 285.016 451.688ZM296.617 447.547V448.656H292.047V447.547H296.617ZM293.594 445.492H295.039V453.906C295.039 454.193 295.083 454.409 295.172 454.555C295.26 454.701 295.375 454.797 295.516 454.844C295.656 454.891 295.807 454.914 295.969 454.914C296.089 454.914 296.214 454.904 296.344 454.883C296.479 454.857 296.581 454.836 296.648 454.82L296.656 456C296.542 456.036 296.391 456.07 296.203 456.102C296.021 456.138 295.799 456.156 295.539 456.156C295.185 456.156 294.859 456.086 294.562 455.945C294.266 455.805 294.029 455.57 293.852 455.242C293.68 454.909 293.594 454.461 293.594 453.898V445.492ZM299.883 447.547V456H298.43V447.547H299.883ZM298.32 445.305C298.32 445.07 298.391 444.872 298.531 444.711C298.677 444.549 298.891 444.469 299.172 444.469C299.448 444.469 299.659 444.549 299.805 444.711C299.956 444.872 300.031 445.07 300.031 445.305C300.031 445.529 299.956 445.721 299.805 445.883C299.659 446.039 299.448 446.117 299.172 446.117C298.891 446.117 298.677 446.039 298.531 445.883C298.391 445.721 298.32 445.529 298.32 445.305ZM304.133 456H302.688V446.812C302.688 446.172 302.812 445.63 303.062 445.188C303.312 444.745 303.669 444.409 304.133 444.18C304.596 443.951 305.146 443.836 305.781 443.836C306.156 443.836 306.523 443.883 306.883 443.977C307.242 444.065 307.612 444.177 307.992 444.312L307.75 445.531C307.51 445.438 307.232 445.349 306.914 445.266C306.602 445.177 306.258 445.133 305.883 445.133C305.263 445.133 304.815 445.273 304.539 445.555C304.268 445.831 304.133 446.25 304.133 446.812V456ZM305.859 447.547V448.656H301.352V447.547H305.859ZM308.703 447.547V456H307.258V447.547H308.703ZM314.461 454.969C314.805 454.969 315.122 454.898 315.414 454.758C315.706 454.617 315.945 454.424 316.133 454.18C316.32 453.93 316.427 453.646 316.453 453.328H317.828C317.802 453.828 317.633 454.294 317.32 454.727C317.013 455.154 316.609 455.5 316.109 455.766C315.609 456.026 315.06 456.156 314.461 456.156C313.826 456.156 313.271 456.044 312.797 455.82C312.328 455.596 311.938 455.289 311.625 454.898C311.318 454.508 311.086 454.06 310.93 453.555C310.779 453.044 310.703 452.505 310.703 451.938V451.609C310.703 451.042 310.779 450.505 310.93 450C311.086 449.49 311.318 449.039 311.625 448.648C311.938 448.258 312.328 447.951 312.797 447.727C313.271 447.503 313.826 447.391 314.461 447.391C315.122 447.391 315.701 447.526 316.195 447.797C316.69 448.062 317.078 448.427 317.359 448.891C317.646 449.349 317.802 449.87 317.828 450.453H316.453C316.427 450.104 316.328 449.789 316.156 449.508C315.99 449.227 315.76 449.003 315.469 448.836C315.182 448.664 314.846 448.578 314.461 448.578C314.018 448.578 313.646 448.667 313.344 448.844C313.047 449.016 312.81 449.25 312.633 449.547C312.461 449.839 312.336 450.164 312.258 450.523C312.185 450.878 312.148 451.24 312.148 451.609V451.938C312.148 452.307 312.185 452.672 312.258 453.031C312.331 453.391 312.453 453.716 312.625 454.008C312.802 454.299 313.039 454.534 313.336 454.711C313.638 454.883 314.013 454.969 314.461 454.969ZM324.438 454.555V450.203C324.438 449.87 324.37 449.581 324.234 449.336C324.104 449.086 323.906 448.893 323.641 448.758C323.375 448.622 323.047 448.555 322.656 448.555C322.292 448.555 321.971 448.617 321.695 448.742C321.424 448.867 321.211 449.031 321.055 449.234C320.904 449.438 320.828 449.656 320.828 449.891H319.383C319.383 449.589 319.461 449.289 319.617 448.992C319.773 448.695 319.997 448.427 320.289 448.188C320.586 447.943 320.94 447.75 321.352 447.609C321.768 447.464 322.232 447.391 322.742 447.391C323.357 447.391 323.898 447.495 324.367 447.703C324.841 447.911 325.211 448.227 325.477 448.648C325.747 449.065 325.883 449.589 325.883 450.219V454.156C325.883 454.438 325.906 454.737 325.953 455.055C326.005 455.372 326.081 455.646 326.18 455.875V456H324.672C324.599 455.833 324.542 455.612 324.5 455.336C324.458 455.055 324.438 454.794 324.438 454.555ZM324.688 450.875L324.703 451.891H323.242C322.831 451.891 322.464 451.924 322.141 451.992C321.818 452.055 321.547 452.151 321.328 452.281C321.109 452.411 320.943 452.576 320.828 452.773C320.714 452.966 320.656 453.193 320.656 453.453C320.656 453.719 320.716 453.961 320.836 454.18C320.956 454.398 321.135 454.573 321.375 454.703C321.62 454.828 321.919 454.891 322.273 454.891C322.716 454.891 323.107 454.797 323.445 454.609C323.784 454.422 324.052 454.193 324.25 453.922C324.453 453.651 324.562 453.388 324.578 453.133L325.195 453.828C325.159 454.047 325.06 454.289 324.898 454.555C324.737 454.82 324.521 455.076 324.25 455.32C323.984 455.56 323.667 455.76 323.297 455.922C322.932 456.078 322.521 456.156 322.062 456.156C321.49 456.156 320.987 456.044 320.555 455.82C320.128 455.596 319.794 455.297 319.555 454.922C319.32 454.542 319.203 454.117 319.203 453.648C319.203 453.195 319.292 452.797 319.469 452.453C319.646 452.104 319.901 451.815 320.234 451.586C320.568 451.352 320.969 451.174 321.438 451.055C321.906 450.935 322.43 450.875 323.008 450.875H324.688ZM331.695 447.547V448.656H327.125V447.547H331.695ZM328.672 445.492H330.117V453.906C330.117 454.193 330.161 454.409 330.25 454.555C330.339 454.701 330.453 454.797 330.594 454.844C330.734 454.891 330.885 454.914 331.047 454.914C331.167 454.914 331.292 454.904 331.422 454.883C331.557 454.857 331.659 454.836 331.727 454.82L331.734 456C331.62 456.036 331.469 456.07 331.281 456.102C331.099 456.138 330.878 456.156 330.617 456.156C330.263 456.156 329.938 456.086 329.641 455.945C329.344 455.805 329.107 455.57 328.93 455.242C328.758 454.909 328.672 454.461 328.672 453.898V445.492ZM334.961 447.547V456H333.508V447.547H334.961ZM333.398 445.305C333.398 445.07 333.469 444.872 333.609 444.711C333.755 444.549 333.969 444.469 334.25 444.469C334.526 444.469 334.737 444.549 334.883 444.711C335.034 444.872 335.109 445.07 335.109 445.305C335.109 445.529 335.034 445.721 334.883 445.883C334.737 446.039 334.526 446.117 334.25 446.117C333.969 446.117 333.755 446.039 333.609 445.883C333.469 445.721 333.398 445.529 333.398 445.305ZM336.898 451.867V451.688C336.898 451.078 336.987 450.513 337.164 449.992C337.341 449.466 337.596 449.01 337.93 448.625C338.263 448.234 338.667 447.932 339.141 447.719C339.615 447.5 340.146 447.391 340.734 447.391C341.328 447.391 341.862 447.5 342.336 447.719C342.815 447.932 343.221 448.234 343.555 448.625C343.893 449.01 344.151 449.466 344.328 449.992C344.505 450.513 344.594 451.078 344.594 451.688V451.867C344.594 452.477 344.505 453.042 344.328 453.562C344.151 454.083 343.893 454.539 343.555 454.93C343.221 455.315 342.818 455.617 342.344 455.836C341.875 456.049 341.344 456.156 340.75 456.156C340.156 456.156 339.622 456.049 339.148 455.836C338.674 455.617 338.268 455.315 337.93 454.93C337.596 454.539 337.341 454.083 337.164 453.562C336.987 453.042 336.898 452.477 336.898 451.867ZM338.344 451.688V451.867C338.344 452.289 338.393 452.688 338.492 453.062C338.591 453.432 338.74 453.76 338.938 454.047C339.141 454.333 339.393 454.56 339.695 454.727C339.997 454.888 340.349 454.969 340.75 454.969C341.146 454.969 341.492 454.888 341.789 454.727C342.091 454.56 342.341 454.333 342.539 454.047C342.737 453.76 342.885 453.432 342.984 453.062C343.089 452.688 343.141 452.289 343.141 451.867V451.688C343.141 451.271 343.089 450.878 342.984 450.508C342.885 450.133 342.734 449.802 342.531 449.516C342.333 449.224 342.083 448.995 341.781 448.828C341.484 448.661 341.135 448.578 340.734 448.578C340.339 448.578 339.99 448.661 339.688 448.828C339.391 448.995 339.141 449.224 338.938 449.516C338.74 449.802 338.591 450.133 338.492 450.508C338.393 450.878 338.344 451.271 338.344 451.688ZM347.852 449.352V456H346.406V447.547H347.773L347.852 449.352ZM347.508 451.453L346.906 451.43C346.911 450.852 346.997 450.318 347.164 449.828C347.331 449.333 347.565 448.904 347.867 448.539C348.169 448.174 348.529 447.893 348.945 447.695C349.367 447.492 349.833 447.391 350.344 447.391C350.76 447.391 351.135 447.448 351.469 447.562C351.802 447.672 352.086 447.849 352.32 448.094C352.56 448.339 352.742 448.656 352.867 449.047C352.992 449.432 353.055 449.904 353.055 450.461V456H351.602V450.445C351.602 450.003 351.536 449.648 351.406 449.383C351.276 449.112 351.086 448.917 350.836 448.797C350.586 448.672 350.279 448.609 349.914 448.609C349.555 448.609 349.227 448.685 348.93 448.836C348.638 448.987 348.385 449.195 348.172 449.461C347.964 449.727 347.799 450.031 347.68 450.375C347.565 450.714 347.508 451.073 347.508 451.453ZM360.172 453.758C360.172 453.549 360.125 453.357 360.031 453.18C359.943 452.997 359.758 452.833 359.477 452.688C359.201 452.536 358.784 452.406 358.227 452.297C357.758 452.198 357.333 452.081 356.953 451.945C356.578 451.81 356.258 451.646 355.992 451.453C355.732 451.26 355.531 451.034 355.391 450.773C355.25 450.513 355.18 450.208 355.18 449.859C355.18 449.526 355.253 449.211 355.398 448.914C355.549 448.617 355.76 448.354 356.031 448.125C356.307 447.896 356.638 447.716 357.023 447.586C357.409 447.456 357.839 447.391 358.312 447.391C358.99 447.391 359.568 447.51 360.047 447.75C360.526 447.99 360.893 448.31 361.148 448.711C361.404 449.107 361.531 449.547 361.531 450.031H360.086C360.086 449.797 360.016 449.57 359.875 449.352C359.74 449.128 359.539 448.943 359.273 448.797C359.013 448.651 358.693 448.578 358.312 448.578C357.911 448.578 357.586 448.641 357.336 448.766C357.091 448.885 356.911 449.039 356.797 449.227C356.688 449.414 356.633 449.612 356.633 449.82C356.633 449.977 356.659 450.117 356.711 450.242C356.768 450.362 356.867 450.474 357.008 450.578C357.148 450.677 357.346 450.771 357.602 450.859C357.857 450.948 358.182 451.036 358.578 451.125C359.271 451.281 359.841 451.469 360.289 451.688C360.737 451.906 361.07 452.174 361.289 452.492C361.508 452.81 361.617 453.195 361.617 453.648C361.617 454.018 361.539 454.357 361.383 454.664C361.232 454.971 361.01 455.237 360.719 455.461C360.432 455.68 360.089 455.852 359.688 455.977C359.292 456.096 358.846 456.156 358.352 456.156C357.607 456.156 356.977 456.023 356.461 455.758C355.945 455.492 355.555 455.148 355.289 454.727C355.023 454.305 354.891 453.859 354.891 453.391H356.344C356.365 453.786 356.479 454.102 356.688 454.336C356.896 454.565 357.151 454.729 357.453 454.828C357.755 454.922 358.055 454.969 358.352 454.969C358.747 454.969 359.078 454.917 359.344 454.812C359.615 454.708 359.82 454.565 359.961 454.383C360.102 454.201 360.172 453.992 360.172 453.758ZM369.641 456H368.195V446.656C368.195 446.047 368.305 445.534 368.523 445.117C368.747 444.695 369.068 444.378 369.484 444.164C369.901 443.945 370.396 443.836 370.969 443.836C371.135 443.836 371.302 443.846 371.469 443.867C371.641 443.888 371.807 443.919 371.969 443.961L371.891 445.141C371.781 445.115 371.656 445.096 371.516 445.086C371.38 445.076 371.245 445.07 371.109 445.07C370.802 445.07 370.536 445.133 370.312 445.258C370.094 445.378 369.927 445.555 369.812 445.789C369.698 446.023 369.641 446.312 369.641 446.656V456ZM371.438 447.547V448.656H366.859V447.547H371.438ZM372.664 451.867V451.688C372.664 451.078 372.753 450.513 372.93 449.992C373.107 449.466 373.362 449.01 373.695 448.625C374.029 448.234 374.432 447.932 374.906 447.719C375.38 447.5 375.911 447.391 376.5 447.391C377.094 447.391 377.628 447.5 378.102 447.719C378.581 447.932 378.987 448.234 379.32 448.625C379.659 449.01 379.917 449.466 380.094 449.992C380.271 450.513 380.359 451.078 380.359 451.688V451.867C380.359 452.477 380.271 453.042 380.094 453.562C379.917 454.083 379.659 454.539 379.32 454.93C378.987 455.315 378.583 455.617 378.109 455.836C377.641 456.049 377.109 456.156 376.516 456.156C375.922 456.156 375.388 456.049 374.914 455.836C374.44 455.617 374.034 455.315 373.695 454.93C373.362 454.539 373.107 454.083 372.93 453.562C372.753 453.042 372.664 452.477 372.664 451.867ZM374.109 451.688V451.867C374.109 452.289 374.159 452.688 374.258 453.062C374.357 453.432 374.505 453.76 374.703 454.047C374.906 454.333 375.159 454.56 375.461 454.727C375.763 454.888 376.115 454.969 376.516 454.969C376.911 454.969 377.258 454.888 377.555 454.727C377.857 454.56 378.107 454.333 378.305 454.047C378.503 453.76 378.651 453.432 378.75 453.062C378.854 452.688 378.906 452.289 378.906 451.867V451.688C378.906 451.271 378.854 450.878 378.75 450.508C378.651 450.133 378.5 449.802 378.297 449.516C378.099 449.224 377.849 448.995 377.547 448.828C377.25 448.661 376.901 448.578 376.5 448.578C376.104 448.578 375.755 448.661 375.453 448.828C375.156 448.995 374.906 449.224 374.703 449.516C374.505 449.802 374.357 450.133 374.258 450.508C374.159 450.878 374.109 451.271 374.109 451.688ZM383.617 448.875V456H382.172V447.547H383.578L383.617 448.875ZM386.258 447.5L386.25 448.844C386.13 448.818 386.016 448.802 385.906 448.797C385.802 448.786 385.682 448.781 385.547 448.781C385.214 448.781 384.919 448.833 384.664 448.938C384.409 449.042 384.193 449.188 384.016 449.375C383.839 449.562 383.698 449.786 383.594 450.047C383.495 450.302 383.43 450.583 383.398 450.891L382.992 451.125C382.992 450.615 383.042 450.135 383.141 449.688C383.245 449.24 383.404 448.844 383.617 448.5C383.831 448.151 384.102 447.88 384.43 447.688C384.763 447.49 385.159 447.391 385.617 447.391C385.721 447.391 385.841 447.404 385.977 447.43C386.112 447.451 386.206 447.474 386.258 447.5ZM393.938 455.125L396.289 447.547H397.836L394.445 457.305C394.367 457.513 394.263 457.737 394.133 457.977C394.008 458.221 393.846 458.453 393.648 458.672C393.451 458.891 393.211 459.068 392.93 459.203C392.654 459.344 392.323 459.414 391.938 459.414C391.823 459.414 391.677 459.398 391.5 459.367C391.323 459.336 391.198 459.31 391.125 459.289L391.117 458.117C391.159 458.122 391.224 458.128 391.312 458.133C391.406 458.143 391.471 458.148 391.508 458.148C391.836 458.148 392.115 458.104 392.344 458.016C392.573 457.932 392.766 457.789 392.922 457.586C393.083 457.388 393.221 457.115 393.336 456.766L393.938 455.125ZM392.211 447.547L394.406 454.109L394.781 455.633L393.742 456.164L390.633 447.547H392.211ZM398.633 451.867V451.688C398.633 451.078 398.721 450.513 398.898 449.992C399.076 449.466 399.331 449.01 399.664 448.625C399.997 448.234 400.401 447.932 400.875 447.719C401.349 447.5 401.88 447.391 402.469 447.391C403.062 447.391 403.596 447.5 404.07 447.719C404.549 447.932 404.956 448.234 405.289 448.625C405.628 449.01 405.885 449.466 406.062 449.992C406.24 450.513 406.328 451.078 406.328 451.688V451.867C406.328 452.477 406.24 453.042 406.062 453.562C405.885 454.083 405.628 454.539 405.289 454.93C404.956 455.315 404.552 455.617 404.078 455.836C403.609 456.049 403.078 456.156 402.484 456.156C401.891 456.156 401.357 456.049 400.883 455.836C400.409 455.617 400.003 455.315 399.664 454.93C399.331 454.539 399.076 454.083 398.898 453.562C398.721 453.042 398.633 452.477 398.633 451.867ZM400.078 451.688V451.867C400.078 452.289 400.128 452.688 400.227 453.062C400.326 453.432 400.474 453.76 400.672 454.047C400.875 454.333 401.128 454.56 401.43 454.727C401.732 454.888 402.083 454.969 402.484 454.969C402.88 454.969 403.227 454.888 403.523 454.727C403.826 454.56 404.076 454.333 404.273 454.047C404.471 453.76 404.62 453.432 404.719 453.062C404.823 452.688 404.875 452.289 404.875 451.867V451.688C404.875 451.271 404.823 450.878 404.719 450.508C404.62 450.133 404.469 449.802 404.266 449.516C404.068 449.224 403.818 448.995 403.516 448.828C403.219 448.661 402.87 448.578 402.469 448.578C402.073 448.578 401.724 448.661 401.422 448.828C401.125 448.995 400.875 449.224 400.672 449.516C400.474 449.802 400.326 450.133 400.227 450.508C400.128 450.878 400.078 451.271 400.078 451.688ZM413.312 454.047V447.547H414.766V456H413.383L413.312 454.047ZM413.586 452.266L414.188 452.25C414.188 452.812 414.128 453.333 414.008 453.812C413.893 454.286 413.706 454.698 413.445 455.047C413.185 455.396 412.844 455.669 412.422 455.867C412 456.06 411.487 456.156 410.883 456.156C410.471 456.156 410.094 456.096 409.75 455.977C409.411 455.857 409.12 455.672 408.875 455.422C408.63 455.172 408.44 454.846 408.305 454.445C408.174 454.044 408.109 453.562 408.109 453V447.547H409.555V453.016C409.555 453.396 409.596 453.711 409.68 453.961C409.768 454.206 409.885 454.401 410.031 454.547C410.182 454.688 410.349 454.786 410.531 454.844C410.719 454.901 410.911 454.93 411.109 454.93C411.724 454.93 412.211 454.812 412.57 454.578C412.93 454.339 413.188 454.018 413.344 453.617C413.505 453.211 413.586 452.76 413.586 452.266ZM418.688 444.625L418.586 452.789H417.281L417.172 444.625H418.688ZM417.125 455.273C417.125 455.039 417.195 454.841 417.336 454.68C417.482 454.518 417.695 454.438 417.977 454.438C418.253 454.438 418.464 454.518 418.609 454.68C418.76 454.841 418.836 455.039 418.836 455.273C418.836 455.497 418.76 455.69 418.609 455.852C418.464 456.013 418.253 456.094 417.977 456.094C417.695 456.094 417.482 456.013 417.336 455.852C417.195 455.69 417.125 455.497 417.125 455.273Z" fill="#3F3B3C"/>
<defs>
<filter id="filter0_f_6919_82484" x="128.5" y="0" width="437" height="421" filterUnits="userSpaceOnUse" color-interpolation-filters="sRGB">
<feFlood flood-opacity="0" result="BackgroundImageFix"/>
<feBlend mode="normal" in="SourceGraphic" in2="BackgroundImageFix" result="shape"/>
<feGaussianBlur stdDeviation="1" result="effect1_foregroundBlur_6919_82484"/>
</filter>
<radialGradient id="paint0_radial_6919_82484" cx="0" cy="0" r="1" gradientUnits="userSpaceOnUse" gradientTransform="translate(347 211.184) rotate(-90) scale(160.269 163.433)">
<stop stop-color="#FFD1AB"/>
<stop offset="1" stop-color="#FDB274" stop-opacity="0"/>
</radialGradient>
<clipPath id="clip0_6919_82484">
<rect width="260" height="183" fill="white" transform="translate(217.5 123)"/>
</clipPath>
</defs>
</svg>
