<svg width="52" height="20" viewBox="0 0 52 20" fill="none" xmlns="http://www.w3.org/2000/svg">
<path d="M22.0186 20C21.4686 20 20.9977 19.8042 20.6061 19.4125C20.2144 19.0208 20.0186 18.55 20.0186 18C20.0186 17.45 20.2144 16.9792 20.6061 16.5875C20.9977 16.1958 21.4686 16 22.0186 16C22.5686 16 23.0394 16.1958 23.4311 16.5875C23.8227 16.9792 24.0186 17.45 24.0186 18C24.0186 18.55 23.8227 19.0208 23.4311 19.4125C23.0394 19.8042 22.5686 20 22.0186 20ZM32.0186 20C31.4686 20 30.9977 19.8042 30.6061 19.4125C30.2144 19.0208 30.0186 18.55 30.0186 18C30.0186 17.45 30.2144 16.9792 30.6061 16.5875C30.9977 16.1958 31.4686 16 32.0186 16C32.5686 16 33.0394 16.1958 33.4311 16.5875C33.8227 16.9792 34.0186 17.45 34.0186 18C34.0186 18.55 33.8227 19.0208 33.4311 19.4125C33.0394 19.8042 32.5686 20 32.0186 20ZM21.1686 4L23.5686 9H30.5686L33.3186 4H21.1686ZM20.2186 2H34.9686C35.3519 2 35.6436 2.17083 35.8436 2.5125C36.0436 2.85417 36.0519 3.2 35.8686 3.55L32.3186 9.95C32.1352 10.2833 31.8894 10.5417 31.5811 10.725C31.2727 10.9083 30.9352 11 30.5686 11H23.1186L22.0186 13H34.0186V15H22.0186C21.2686 15 20.7019 14.6708 20.3186 14.0125C19.9352 13.3542 19.9186 12.7 20.2686 12.05L21.6186 9.6L18.0186 2H16.0186V0H19.2686L20.2186 2Z" fill="#F0D454"/>
</svg>
