<svg width="14" height="14" viewBox="0 0 14 14" fill="none" xmlns="http://www.w3.org/2000/svg">
<g clip-path="url(#clip0_12382_33824)">
<path d="M3.85764 0.321356C3.75714 0.41453 3.67598 0.526588 3.6188 0.65113C3.56161 0.775673 3.52952 0.910261 3.52435 1.04721C3.51918 1.18416 3.54104 1.32078 3.58868 1.44928C3.63632 1.57778 3.7088 1.69563 3.80199 1.79612L8.70896 6.99951L3.80199 12.2029C3.70881 12.3034 3.63634 12.4212 3.58871 12.5497C3.54108 12.6782 3.51922 12.8149 3.52439 12.9518C3.52955 13.0888 3.56164 13.2233 3.61882 13.3479C3.676 13.4724 3.75715 13.5845 3.85764 13.6777C3.95813 13.7708 4.07598 13.8433 4.20448 13.8909C4.33297 13.9386 4.46959 13.9604 4.60653 13.9553C4.74347 13.9501 4.87806 13.918 5.0026 13.8608C5.12714 13.8037 5.2392 13.7225 5.33237 13.622L10.8974 7.70906C11.0763 7.51611 11.1758 7.26267 11.1758 6.99951C11.1758 6.73635 11.0763 6.48291 10.8974 6.28996L5.33237 0.377008C5.2392 0.276509 5.12715 0.195348 5.0026 0.13816C4.87806 0.0809729 4.74348 0.0488788 4.60653 0.043711C4.46959 0.0385432 4.33297 0.0604029 4.20447 0.108042C4.07597 0.15568 3.95812 0.228165 3.85764 0.321356Z" fill="white"/>
</g>
<defs>
<clipPath id="clip0_12382_33824">
<rect width="13.913" height="13.913" fill="white" transform="translate(13.957 0.0429688) rotate(90)"/>
</clipPath>
</defs>
</svg>
