<svg width="94" height="154" viewBox="0 0 94 154" fill="none" xmlns="http://www.w3.org/2000/svg">
<path d="M-18.4457 104.355C-60.1378 16.1498 2.85517 8.39109 39.5637 15.536C60.6625 17.0314 66.737 45.1105 67.1361 58.9643C50.1431 176.351 3.00376 138.132 -18.4457 104.355Z" fill="white" fill-opacity="0.5"/>
<path d="M21.332 116.092L49.4044 35.9065C46.4348 43.1808 36.4784 55.7102 25.1766 58.1907C15.4713 60.3176 12.8219 59.3371 15.1131 59.56M15.1131 59.56C11.6218 59.2218 4.74417 58.1367 4.9387 50.0247C5.12779 41.9223 10.1443 38.948 12.6231 38.4829C15.6481 37.9349 21.7237 39.0173 21.8159 47.7354C21.9074 56.4529 17.3885 59.2475 15.1131 59.56Z" stroke="#FFEBD5" stroke-width="10" stroke-linecap="round"/>
</svg>
