<svg width="264" height="164" viewBox="0 0 264 164" fill="none" xmlns="http://www.w3.org/2000/svg">
<g clip-path="url(#clip0_1_2)">
<mask id="mask0_1_2" style="mask-type:alpha" maskUnits="userSpaceOnUse" x="-25" y="0" width="318" height="164">
<path d="M-24.1445 0.513672H292.267V163.514H-24.1445V0.513672Z" fill="#FFEBD5"/>
</mask>
<g mask="url(#mask0_1_2)">
<path d="M-26.6797 -6.75195H295.638V179.089H-26.6797V-6.75195Z" fill="#FFF2E5"/>
<path d="M13.2705 65.9009C12.9409 66.0211 12.6578 66.2603 12.4664 66.5807C12.2726 66.904 12.1797 67.2916 12.2036 67.6804C13.0209 80.9673 13.1437 93.5809 12.4991 105.449C11.0146 105.07 9.50168 104.821 7.95993 104.733C-0.743313 104.245 -7.89543 111.234 -7.84609 119.548C-7.82022 123.717 -5.83679 127.175 -2.94865 129.563C-0.0602684 131.952 3.73546 133.428 7.82213 134.096C12.1433 134.804 16.0372 132.852 18.8375 129.937C21.6353 127.024 23.4632 123.161 23.7601 119.469C23.7895 119.105 23.7688 118.986 23.757 118.691C23.7455 118.395 23.7272 118.023 23.7007 117.573C23.6478 116.672 23.5689 115.461 23.4774 114.012C23.2945 111.114 23.0595 107.268 22.869 103.143C22.5023 95.1549 22.3811 86.1661 23.0512 81.1384C23.9064 80.3631 25.362 79.7392 27.2355 79.3664L25.8831 84.1774C25.8495 84.286 25.8342 84.4033 25.8393 84.521C25.8465 84.6355 25.8731 84.7493 25.9176 84.8553C25.9644 84.9584 26.0274 85.0521 26.1046 85.1287C26.182 85.2056 26.2742 85.2606 26.3725 85.2955C26.4685 85.3333 26.5736 85.3435 26.6753 85.3339C26.7767 85.324 26.8758 85.2902 26.9678 85.2329C27.0574 85.1785 27.1372 85.1029 27.202 85.0114C27.2667 84.9198 27.3143 84.8154 27.3408 84.7045L28.8815 79.2224C28.891 79.1898 28.8992 79.1558 28.9041 79.1236C29.9428 79.0135 31.0699 78.9811 32.2725 79.029L30.5758 82.8384C30.4858 83.0421 30.4696 83.2814 30.5339 83.4993C30.596 83.7202 30.7348 83.8997 30.9147 84.0052C31.097 84.108 31.3061 84.1269 31.4997 84.0545C31.6929 83.9818 31.8529 83.8257 31.9449 83.6189L33.9348 79.1428C35.2782 79.2707 36.6781 79.4853 38.1161 79.7778L35.6647 83.5928C35.6041 83.6834 35.5606 83.7868 35.5351 83.8988C35.5097 84.0107 35.5038 84.1273 35.5174 84.2433C35.5331 84.3561 35.567 84.4669 35.6197 84.5657C35.6722 84.6642 35.7423 84.7493 35.8232 84.8191C35.9064 84.8861 35.9988 84.9362 36.0984 84.9617C36.1982 84.9875 36.2993 84.9934 36.4009 84.973C36.5001 84.9555 36.5965 84.9135 36.6835 84.8509C36.7705 84.7883 36.8429 84.7102 36.9031 84.6139L39.7193 80.2296C39.7379 80.2013 39.7548 80.1711 39.7705 80.1396C40.7624 80.3806 41.7661 80.6662 42.7732 80.9767L41.2043 84.505C41.158 84.6055 41.1282 84.7181 41.1198 84.8322C41.1091 84.949 41.1214 85.0637 41.1536 85.1726C41.1831 85.2841 41.2335 85.3857 41.3002 85.4726C41.3646 85.5623 41.4465 85.6332 41.5366 85.6862C41.6291 85.7362 41.7285 85.767 41.8285 85.7771C41.9307 85.784 42.0325 85.7691 42.1285 85.7321C42.2245 85.6951 42.3142 85.6355 42.3915 85.5572C42.4665 85.4818 42.529 85.3879 42.5724 85.2844L44.2746 81.4594C45.2387 81.7884 46.1977 82.1548 47.1508 82.5468L46.0251 85.0762C45.9799 85.1778 45.9508 85.2913 45.9451 85.4027C45.9369 85.517 45.9493 85.6316 45.9807 85.7397C46.0123 85.8481 46.0619 85.9489 46.1279 86.035C46.1939 86.1211 46.2724 86.1938 46.3639 86.2428C46.4532 86.295 46.5495 86.3278 46.6514 86.3344C46.7507 86.3437 46.8525 86.3288 46.9464 86.2949C47.0427 86.2582 47.1308 86.2022 47.2068 86.1279C47.2827 86.0536 47.3467 85.9612 47.3919 85.8596L48.5906 83.1618C49.1733 83.4226 49.7545 83.687 50.3269 83.9688C50.638 84.1228 50.9851 84.1547 51.3141 84.0604C51.643 83.9661 51.9343 83.7518 52.1431 83.4498C52.3542 83.1449 52.4677 82.7738 52.4714 82.3876C52.4726 82.0042 52.3618 81.63 52.1577 81.3224C49.4539 77.3133 46.5581 73.2017 41.9352 70.2222C37.3171 67.2478 31.0662 65.4733 21.8118 65.7574L21.8026 65.7583L13.7224 65.8196C13.5682 65.8215 13.4145 65.8508 13.2705 65.9009ZM15.3268 69.2813L21.8319 69.2309C21.8418 69.2308 21.8521 69.2309 21.8621 69.2308C30.7583 68.9513 36.3713 70.6307 40.4211 73.2423C42.6813 74.7017 44.454 76.5144 46.0715 78.4831C41.8256 76.9406 37.5239 75.9372 33.6277 75.6211C28.0321 75.1677 23.1951 75.8352 20.4814 78.9869C20.2651 79.2381 20.1199 79.5596 20.0679 79.9052C19.2021 85.5854 19.4295 94.9969 19.8128 103.323C20.0021 107.49 20.2411 111.356 20.4242 114.259C20.5169 115.71 20.593 116.924 20.645 117.802C20.6711 118.241 20.6879 118.601 20.6988 118.853C20.7098 119.105 20.6956 119.352 20.7124 119.15C20.5047 121.719 19.038 125.014 16.7664 127.38C15.8973 128.284 14.9287 129.052 13.8786 129.631L14.2811 128.182C14.3247 128.031 14.3316 127.867 14.2998 127.71C14.268 127.554 14.1986 127.411 14.0978 127.298C13.9996 127.183 13.8739 127.103 13.737 127.065C13.598 127.029 13.4555 127.033 13.3209 127.083C13.2015 127.127 13.0949 127.201 13.0083 127.301C12.9217 127.401 12.8571 127.525 12.82 127.662L12.0636 130.391C11.0036 130.714 9.88716 130.843 8.72192 130.717L10.6816 126.273C10.752 126.118 10.7812 125.941 10.7604 125.769C10.7419 125.595 10.678 125.431 10.5752 125.3C10.4724 125.169 10.3385 125.075 10.1881 125.033C10.0401 124.988 9.8827 124.998 9.73586 125.061C9.55046 125.136 9.39715 125.294 9.3113 125.497L7.13045 130.444C6.14609 130.237 5.19073 129.982 4.28261 129.669L6.16208 126.722C6.26345 126.568 6.31626 126.383 6.31417 126.194C6.31183 126.005 6.25729 125.818 6.15298 125.67C6.05103 125.519 5.90843 125.411 5.74431 125.365C5.58255 125.316 5.4121 125.327 5.25797 125.399C5.12211 125.463 5.00548 125.569 4.92207 125.705L2.76718 129.081C1.82642 128.675 0.951616 128.211 0.156751 127.693L1.94422 123.638C2.01492 123.483 2.04407 123.306 2.02352 123.135C2.00507 122.96 1.94119 122.796 1.83862 122.666C1.73841 122.533 1.60192 122.441 1.45415 122.396C1.30377 122.354 1.14613 122.363 1.0014 122.423C0.813896 122.502 0.660557 122.66 0.574711 122.863L-1.14247 126.757C-1.14297 126.757 -1.14347 126.756 -1.14397 126.756C-1.98234 126.063 -2.6807 125.316 -3.23992 124.509L-1.67681 120.964C-1.60636 120.809 -1.57957 120.634 -1.59777 120.46C-1.61597 120.285 -1.67985 120.121 -1.78267 119.991C-1.88524 119.861 -2.01913 119.767 -2.1695 119.724C-2.31752 119.679 -2.47494 119.689 -2.61993 119.748C-2.80743 119.827 -2.96073 119.985 -3.04658 120.188L-4.17823 122.754C-4.56532 121.766 -4.77689 120.697 -4.78442 119.524C-4.82044 113.538 0.620215 107.799 7.80592 108.204C9.90838 108.321 11.8246 108.602 13.442 109.283C13.6654 109.375 13.9036 109.409 14.1409 109.378C14.3761 109.35 14.6024 109.259 14.8021 109.113C15.0015 108.967 15.1686 108.77 15.291 108.536C15.4111 108.306 15.4828 108.045 15.5008 107.776C16.2587 95.6861 16.097 82.764 15.3268 69.2813ZM24.1414 71.1167C23.774 71.3518 23.6449 71.8827 23.8543 72.2974C24.0613 72.7149 24.5281 72.8633 24.8979 72.6253C25.2648 72.3897 25.3946 71.8596 25.1848 71.4444C24.977 71.026 24.5099 70.8774 24.1414 71.1167ZM17.5311 75.4961C17.1642 75.7318 17.0348 76.2624 17.2424 76.6805C17.452 77.0954 17.9176 77.2425 18.2873 77.0045C18.6545 76.7691 18.7841 76.2388 18.5742 75.8236C18.367 75.4058 17.898 75.2605 17.5311 75.4961ZM10.0547 113.269C9.86193 113.342 9.70246 113.499 9.61066 113.706C9.52121 113.91 9.5053 114.15 9.56979 114.368C9.63427 114.586 9.7733 114.765 9.953 114.871C10.1348 114.973 10.346 114.989 10.539 114.916C10.7318 114.843 10.8912 114.686 10.9807 114.482C11.0725 114.275 11.0861 114.038 11.0239 113.817C10.9594 113.599 10.8204 113.419 10.6383 113.317C10.4563 113.214 10.2477 113.196 10.0547 113.269ZM15.8766 116.816C15.6838 116.889 15.5246 117.046 15.4328 117.253C15.3433 117.457 15.3274 117.697 15.3919 117.915C15.4562 118.133 15.5952 118.313 15.7749 118.418C15.9569 118.52 16.1681 118.536 16.3609 118.463C16.5536 118.39 16.7131 118.233 16.8026 118.029C16.8944 117.822 16.9079 117.585 16.8434 117.367C16.7813 117.146 16.6425 116.967 16.4605 116.864C16.2784 116.762 16.0696 116.743 15.8766 116.816ZM12.5692 121.47C12.3764 121.543 12.2172 121.7 12.1254 121.907C12.036 122.111 12.0201 122.351 12.0846 122.569C12.1488 122.787 12.2878 122.966 12.4675 123.072C12.6496 123.174 12.8608 123.19 13.0535 123.117C13.2463 123.043 13.4057 122.887 13.4952 122.683C13.587 122.475 13.6006 122.239 13.5361 122.021C13.4739 121.8 13.3352 121.62 13.1531 121.518C12.971 121.415 12.7622 121.397 12.5692 121.47Z" fill="#E4E3C6"/>
<path d="M201.128 76.1954C200.983 76.3979 200.902 76.6472 200.899 76.9039C200.894 77.1632 200.967 77.4167 201.104 77.6228C205.808 84.666 209.91 91.621 213.348 98.4778C212.402 98.878 211.482 99.3622 210.598 99.9481C205.608 103.258 203.871 110.083 206.558 114.68C207.905 116.985 210.113 118.089 212.481 118.227C214.849 118.365 217.429 117.623 219.912 116.313C222.539 114.928 224.077 112.242 224.7 109.47C225.322 106.701 225.102 103.804 224.086 101.631C223.986 101.416 223.937 101.359 223.835 101.2C223.735 101.04 223.605 100.841 223.447 100.602C223.129 100.124 222.698 99.4835 222.184 98.7163C221.155 97.1819 219.795 95.1426 218.37 92.9301C215.611 88.6443 212.669 83.7019 211.433 80.6338C211.66 79.8513 212.269 78.9058 213.19 77.9279L213.978 81.1563C213.994 81.2305 214.023 81.3019 214.064 81.3652C214.104 81.4258 214.155 81.4781 214.214 81.5187C214.273 81.5567 214.338 81.5828 214.405 81.5936C214.473 81.6044 214.542 81.597 214.607 81.576C214.673 81.5575 214.734 81.5199 214.788 81.4727C214.841 81.4255 214.885 81.3659 214.918 81.2963C214.95 81.2292 214.971 81.1543 214.977 81.0768C214.984 80.9993 214.977 80.9218 214.956 80.8493L214.059 77.1706C214.053 77.1486 214.047 77.1263 214.04 77.1064C214.581 76.6178 215.197 76.1361 215.88 75.6678L216.156 78.4817C216.171 78.6319 216.239 78.7715 216.344 78.866C216.449 78.9632 216.584 79.0057 216.718 78.9903C216.852 78.9724 216.974 78.8968 217.058 78.777C217.142 78.6571 217.181 78.5046 217.166 78.3518L216.84 75.047C217.627 74.5653 218.473 74.1085 219.365 73.6792L219.224 76.8067C219.219 76.882 219.228 76.9573 219.25 77.03C219.271 77.1026 219.305 77.1698 219.35 77.2286C219.395 77.2848 219.449 77.3324 219.51 77.3656C219.571 77.3987 219.637 77.4171 219.704 77.4226C219.772 77.4256 219.839 77.4154 219.902 77.3886C219.966 77.3618 220.024 77.3235 220.074 77.2704C220.124 77.2198 220.164 77.1568 220.192 77.0863C220.22 77.0157 220.236 76.9425 220.238 76.8642L220.4 73.2704C220.401 73.247 220.401 73.2233 220.4 73.1994C221.028 72.9251 221.676 72.6707 222.335 72.4288L222.592 75.034C222.599 75.1088 222.618 75.1836 222.65 75.2504C222.681 75.3197 222.725 75.3783 222.777 75.4256C222.83 75.4754 222.89 75.5111 222.955 75.5319C223.019 75.5552 223.088 75.5609 223.154 75.5532C223.222 75.543 223.287 75.5192 223.346 75.4836C223.405 75.4454 223.456 75.3953 223.498 75.3352C223.539 75.2752 223.57 75.2051 223.588 75.1298C223.606 75.0571 223.61 74.9792 223.601 74.9039L223.323 72.079C223.964 71.8651 224.614 71.6739 225.269 71.4995L225.452 73.3675C225.46 73.4426 225.48 73.5175 225.512 73.5818C225.544 73.6486 225.588 73.7072 225.64 73.7543C225.692 73.8015 225.752 73.8371 225.816 73.8578C225.88 73.8784 225.947 73.8865 226.014 73.8761C226.08 73.8683 226.144 73.8468 226.203 73.8086C226.261 73.7729 226.312 73.7228 226.354 73.6653C226.396 73.6053 226.427 73.5379 226.445 73.4654C226.463 73.3929 226.469 73.3152 226.462 73.2402L226.265 71.2486C226.672 71.1537 227.079 71.0614 227.487 70.9824C227.709 70.9399 227.912 70.8148 228.065 70.6271C228.217 70.4393 228.311 70.2004 228.33 69.9468C228.35 69.6906 228.294 69.4378 228.173 69.2218C228.051 69.0083 227.869 68.8461 227.658 68.7593C224.874 67.6451 221.951 66.5532 218.43 66.8006C214.914 67.0488 210.875 68.6354 205.826 72.6012L205.821 72.6055L201.353 75.9644C201.268 76.0289 201.192 76.1083 201.128 76.1954ZM203.351 77.2268L206.948 74.5221C206.953 74.5179 206.959 74.5138 206.964 74.5096C211.816 70.6937 215.471 69.3169 218.555 69.1009C220.277 68.9814 221.841 69.2588 223.369 69.6866C220.518 70.577 217.808 71.7899 215.543 73.2174C212.29 75.2681 209.817 77.6291 209.318 80.4962C209.278 80.7248 209.3 80.9631 209.382 81.1764C210.718 84.6875 213.854 89.821 216.73 94.2878C218.168 96.5238 219.537 98.5727 220.567 100.11C221.083 100.878 221.513 101.52 221.823 101.987C221.978 102.22 222.102 102.413 222.189 102.548C222.276 102.684 222.347 102.827 222.292 102.708C222.998 104.22 223.237 106.654 222.732 108.902C222.539 109.762 222.246 110.587 221.848 111.34L221.608 110.37C221.584 110.268 221.535 110.175 221.468 110.101C221.4 110.027 221.316 109.976 221.224 109.955C221.132 109.931 221.037 109.939 220.949 109.974C220.86 110.011 220.782 110.072 220.723 110.155C220.671 110.229 220.635 110.313 220.619 110.405C220.603 110.496 220.607 110.592 220.63 110.683L221.083 112.51C220.598 113.125 220.019 113.656 219.331 114.066L218.998 110.791C218.988 110.676 218.947 110.566 218.881 110.479C218.815 110.39 218.727 110.325 218.628 110.295C218.529 110.264 218.425 110.267 218.328 110.306C218.231 110.342 218.147 110.412 218.085 110.507C218.007 110.625 217.972 110.776 217.989 110.924L218.36 114.569C217.747 114.859 217.135 115.11 216.531 115.311L216.632 112.9C216.639 112.773 216.609 112.649 216.548 112.545C216.486 112.44 216.396 112.359 216.29 112.32C216.186 112.278 216.072 112.276 215.966 112.318C215.86 112.358 215.769 112.434 215.707 112.537C215.652 112.629 215.621 112.736 215.618 112.845L215.501 115.607C214.849 115.769 214.214 115.871 213.607 115.911L213.303 112.923C213.293 112.808 213.252 112.698 213.186 112.611C213.12 112.521 213.032 112.457 212.933 112.426C212.835 112.394 212.73 112.399 212.634 112.435C212.537 112.474 212.452 112.543 212.391 112.636C212.312 112.757 212.277 112.908 212.294 113.056L212.586 115.926L212.585 115.925C211.898 115.886 211.271 115.758 210.702 115.54L210.437 112.928C210.426 112.813 210.385 112.705 210.319 112.615C210.253 112.526 210.165 112.461 210.067 112.431C209.968 112.401 209.864 112.404 209.767 112.442C209.67 112.478 209.585 112.548 209.524 112.641C209.445 112.762 209.41 112.912 209.428 113.06L209.62 114.951C209.089 114.562 208.629 114.055 208.25 113.407C206.316 110.097 207.502 104.671 211.622 101.939H211.623C212.828 101.138 213.982 100.506 215.098 100.219C215.251 100.179 215.394 100.099 215.516 99.9844C215.638 99.872 215.735 99.7283 215.799 99.565C215.863 99.4017 215.893 99.2237 215.886 99.0438C215.879 98.8663 215.835 98.6921 215.759 98.5351C212.313 91.5085 208.091 84.3981 203.351 77.2268ZM208.834 74.6191C208.705 74.9009 208.803 75.2489 209.052 75.393C209.3 75.5398 209.607 75.4301 209.736 75.1458C209.865 74.8639 209.767 74.5161 209.518 74.3718C209.269 74.225 208.962 74.3346 208.834 74.6191ZM206.563 79.7715C206.434 80.0533 206.532 80.4013 206.781 80.5481C207.03 80.6923 207.336 80.5824 207.465 80.2981C207.594 80.0162 207.496 79.6683 207.247 79.5241C206.998 79.3773 206.691 79.4896 206.563 79.7715ZM214.491 103.827C214.407 103.947 214.369 104.099 214.384 104.252C214.4 104.402 214.468 104.542 214.573 104.637C214.679 104.731 214.814 104.774 214.947 104.758C215.081 104.74 215.203 104.662 215.287 104.542C215.371 104.422 215.409 104.27 215.393 104.119C215.378 103.967 215.31 103.829 215.205 103.732C215.099 103.638 214.965 103.595 214.831 103.613C214.697 103.631 214.575 103.707 214.491 103.827ZM218.859 103.401C218.775 103.521 218.737 103.674 218.752 103.827C218.768 103.977 218.836 104.117 218.941 104.211C219.047 104.306 219.182 104.348 219.315 104.333C219.449 104.315 219.571 104.237 219.655 104.117C219.739 103.997 219.777 103.844 219.761 103.694C219.746 103.541 219.678 103.404 219.572 103.309C219.467 103.212 219.333 103.17 219.199 103.188C219.065 103.206 218.943 103.281 218.859 103.401ZM218.511 107.347C218.427 107.467 218.389 107.619 218.404 107.772C218.42 107.922 218.487 108.062 218.593 108.157C218.698 108.251 218.833 108.294 218.966 108.278C219.1 108.26 219.223 108.182 219.306 108.062C219.39 107.942 219.428 107.79 219.413 107.639C219.398 107.487 219.329 107.349 219.224 107.255C219.119 107.158 218.984 107.115 218.85 107.133C218.716 107.151 218.594 107.227 218.511 107.347Z" fill="#E4E3C6"/>
<path d="M270.576 2.03376C271.346 2.40693 271.981 3.05442 272.378 3.87439C272.781 4.7018 272.928 5.6587 272.794 6.58862C268.206 38.3682 265.423 68.703 264.635 97.4382C268.283 96.9018 271.975 96.6861 275.703 96.8669C296.752 97.9002 312.592 116.54 310.833 136.543C309.949 146.573 304.492 154.394 297.068 159.41C289.644 164.427 280.215 167.017 270.245 167.589C259.702 168.199 250.713 162.511 244.546 154.782C238.385 147.06 234.747 137.297 234.76 128.333C234.761 127.448 234.834 127.169 234.921 126.46C235.007 125.752 235.125 124.861 235.277 123.783C235.582 121.629 236.011 118.732 236.517 115.267C237.529 108.336 238.853 99.1373 240.125 89.2559C242.583 70.118 244.647 48.5091 244.025 36.2353C242.12 34.1519 238.738 32.2804 234.302 30.9078L236.609 42.8328C236.668 43.1028 236.682 43.3891 236.646 43.6711C236.606 43.945 236.52 44.2123 236.392 44.4561C236.259 44.6925 236.089 44.902 235.888 45.0668C235.686 45.2322 235.454 45.3413 235.21 45.4005C234.971 45.4671 234.716 45.4649 234.473 45.416C234.231 45.3665 234 45.26 233.789 45.0988C233.584 44.945 233.407 44.7428 233.269 44.5059C233.131 44.2691 233.037 44.0056 232.996 43.732L230.368 30.1435C230.351 30.0625 230.338 29.9787 230.332 29.8999C227.854 29.3712 225.147 29.0074 222.242 28.8176L225.576 38.4187C225.752 38.932 225.744 39.5123 225.546 40.0204C225.353 40.5365 224.983 40.9333 224.529 41.1418C224.07 41.3429 223.563 41.3354 223.112 41.112C222.661 40.888 222.306 40.4716 222.126 39.9503L218.218 28.6697C214.958 28.6368 211.546 28.7983 208.026 29.1375L213.176 38.9437C213.304 39.1772 213.388 39.4373 213.427 39.7132C213.466 39.989 213.458 40.2714 213.402 40.5471C213.342 40.8148 213.239 41.0729 213.092 41.2973C212.946 41.5211 212.761 41.7083 212.552 41.8559C212.339 41.996 212.106 42.0931 211.862 42.1293C211.616 42.166 211.372 42.1545 211.131 42.0797C210.896 42.0123 210.672 41.8868 210.475 41.7141C210.278 41.5413 210.119 41.335 209.993 41.0877L204.078 29.8184C204.039 29.7456 204.004 29.6687 203.972 29.5889C201.537 29.9174 199.064 30.3502 196.579 30.8423L199.66 39.7343C199.751 39.9881 199.801 40.2668 199.799 40.5434C199.801 40.8275 199.749 41.1003 199.65 41.3543C199.557 41.6153 199.416 41.8471 199.238 42.0394C199.065 42.2392 198.854 42.389 198.627 42.4936C198.394 42.5907 198.149 42.6396 197.906 42.6384C197.659 42.6291 197.417 42.5675 197.193 42.4541C196.969 42.3407 196.765 42.1743 196.594 41.9663C196.429 41.7658 196.297 41.5237 196.212 41.2636L192.869 31.6233C190.483 32.1707 188.102 32.8096 185.73 33.5116L187.941 39.8865C188.03 40.1426 188.078 40.423 188.07 40.6928C188.067 40.9699 188.014 41.2427 187.918 41.4951C187.82 41.748 187.681 41.978 187.505 42.1686C187.329 42.3592 187.126 42.5142 186.896 42.609C186.67 42.7118 186.432 42.7664 186.185 42.7566C185.945 42.7536 185.703 42.692 185.483 42.5866C185.259 42.4738 185.057 42.3166 184.889 42.1184C184.721 41.9202 184.585 41.6816 184.496 41.4255L182.143 34.6268C180.688 35.1067 179.237 35.5958 177.804 36.1291C177.024 36.4207 176.182 36.4095 175.409 36.0991C174.636 35.7886 173.977 35.1988 173.534 34.4187C173.086 33.6311 172.885 32.7091 172.953 31.7783C173.025 30.855 173.366 29.9822 173.918 29.2936C181.218 20.3279 189 11.1645 200.717 5.16443C212.421 -0.824617 227.819 -3.51057 250.042 -0.478577L250.064 -0.474064L269.505 1.72353C269.875 1.76727 270.24 1.87658 270.576 2.03376ZM264.959 9.65017L249.309 7.87826C249.285 7.8755 249.26 7.87328 249.236 7.87052C227.875 4.94043 214.031 7.55952 203.766 12.8192C198.037 15.7591 193.412 19.6732 189.13 24.0022C199.656 21.366 210.21 20.042 219.652 20.2694C233.212 20.5977 244.725 23.4317 250.636 31.7076C251.107 32.3674 251.394 33.1781 251.451 34.0232C252.415 47.9177 250.011 70.5173 247.447 90.4654C246.169 100.447 244.832 109.694 243.818 116.638C243.309 120.106 242.887 123.009 242.588 125.11C242.439 126.16 242.327 127.022 242.251 127.626C242.175 128.231 242.161 128.828 242.16 128.339C242.153 134.576 245.035 142.881 250.037 149.152C251.951 151.55 254.131 153.643 256.545 155.303L255.862 151.714C255.787 151.338 255.802 150.942 255.91 150.573C256.017 150.204 256.212 149.877 256.477 149.632C256.736 149.38 257.055 149.22 257.392 149.162C257.734 149.112 258.076 149.157 258.39 149.31C258.669 149.447 258.911 149.652 259.1 149.915C259.288 150.179 259.419 150.494 259.482 150.833L260.764 157.595C263.253 158.64 265.915 159.234 268.745 159.227L264.904 148.031C264.765 147.64 264.73 147.206 264.813 146.798C264.892 146.382 265.078 146.004 265.352 145.715C265.625 145.427 265.966 145.235 266.336 145.172C266.701 145.101 267.078 145.163 267.42 145.352C267.851 145.582 268.189 146 268.356 146.51L272.63 158.972C275.041 158.725 277.391 158.353 279.639 157.831L275.695 150.259C275.482 149.862 275.391 149.404 275.433 148.949C275.476 148.494 275.644 148.059 275.925 147.729C276.2 147.391 276.565 147.166 276.969 147.097C277.368 147.02 277.776 147.091 278.133 147.302C278.447 147.491 278.707 147.776 278.881 148.124L283.403 156.799C285.748 156.061 287.945 155.166 289.961 154.12L286.458 143.905C286.318 143.514 286.283 143.08 286.366 142.672C286.445 142.257 286.631 141.878 286.904 141.59C287.171 141.295 287.518 141.11 287.882 141.04C288.253 140.976 288.63 141.038 288.967 141.219C289.403 141.456 289.741 141.875 289.908 142.385L293.274 152.197C293.275 152.195 293.277 152.193 293.277 152.193C295.432 150.739 297.261 149.118 298.766 147.316L295.702 138.385C295.563 137.994 295.533 137.566 295.612 137.151C295.69 136.736 295.876 136.358 296.149 136.07C296.422 135.782 296.763 135.589 297.133 135.526C297.498 135.456 297.875 135.518 298.213 135.699C298.648 135.936 298.986 136.355 299.153 136.864L301.371 143.329C302.498 141.048 303.218 138.528 303.468 135.706C304.735 121.305 292.769 106.108 275.39 105.26L275.388 105.262C270.303 105.009 265.637 105.199 261.609 106.428C261.053 106.595 260.472 106.616 259.907 106.48C259.347 106.353 258.82 106.076 258.368 105.674C257.917 105.271 257.553 104.755 257.305 104.162C257.061 103.577 256.94 102.932 256.95 102.278C257.509 72.9807 260.447 41.913 264.959 9.65017ZM243.377 11.8323C244.215 12.4915 244.421 13.8024 243.836 14.7476C243.255 15.7002 242.102 15.939 241.259 15.2723C240.422 14.6119 240.214 13.3028 240.801 12.3564C241.383 11.402 242.537 11.1627 243.377 11.8323ZM258.427 24.0525C259.264 24.7129 259.471 26.0232 258.889 26.977C258.302 27.9228 257.153 28.1586 256.309 27.4919C255.472 26.8321 255.264 25.5225 255.852 24.5761C256.433 23.6229 257.59 23.3921 258.427 24.0525ZM268.977 116.883C269.427 117.109 269.78 117.526 269.96 118.048C270.135 118.563 270.126 119.143 269.928 119.652C269.73 120.161 269.36 120.558 268.906 120.766C268.448 120.966 267.937 120.95 267.487 120.726C267.037 120.501 266.684 120.083 266.509 119.569C266.329 119.047 266.343 118.473 266.536 117.957C266.734 117.449 267.104 117.051 267.563 116.851C268.021 116.65 268.527 116.659 268.977 116.883ZM254.262 123.946C254.712 124.171 255.064 124.589 255.244 125.111C255.419 125.626 255.41 126.206 255.212 126.715C255.015 127.223 254.644 127.621 254.191 127.829C253.733 128.029 253.221 128.014 252.771 127.788C252.322 127.563 251.969 127.146 251.794 126.631C251.614 126.109 251.628 125.536 251.826 125.027C252.019 124.511 252.389 124.114 252.847 123.914C253.305 123.713 253.812 123.722 254.262 123.946ZM261.307 135.988C261.756 136.213 262.109 136.631 262.289 137.153C262.464 137.668 262.455 138.249 262.257 138.757C262.059 139.265 261.689 139.663 261.236 139.871C260.777 140.071 260.266 140.056 259.816 139.831C259.366 139.605 259.013 139.188 258.838 138.673C258.658 138.151 258.672 137.578 258.87 137.069C259.064 136.553 259.433 136.157 259.892 135.956C260.35 135.756 260.856 135.764 261.307 135.988Z" fill="#E4E3C6"/>
<path d="M-54.7415 -44.7484C-55.0057 -44.0662 -55.0608 -43.3107 -54.8974 -42.6016C-54.7334 -41.8852 -54.3606 -41.2513 -53.8388 -40.8045C-36.0077 -25.5358 -19.9049 -9.98674 -5.71348 5.87057C-8.06762 7.79337 -10.2929 9.92453 -12.3502 12.3042C-23.9573 25.7435 -24.1522 46.0138 -13.5783 56.3137C-8.27468 61.4766 -1.39806 62.5921 5.26818 60.9114C11.9351 59.2306 18.5944 54.9464 24.5995 49.1838C30.9521 43.0934 33.401 34.3709 33.2511 26.2108C33.1013 18.0582 30.5258 10.2855 26.2322 5.19621C25.8087 4.69405 25.6331 4.57997 25.2444 4.22977C24.8564 3.8795 24.3627 3.44449 23.76 2.92508C22.5547 1.88625 20.9234 0.501288 18.9757 -1.1602C15.0805 -4.48319 9.92125 -8.90528 4.46571 -13.7472C-6.0971 -23.1282 -17.615 -34.1545 -23.1255 -41.513C-23.0259 -43.8613 -21.9766 -46.99 -20.0822 -50.4794L-15.7073 -42.2902C-15.6124 -42.1004 -15.4834 -41.9292 -15.3282 -41.7906C-15.1742 -41.6592 -14.9967 -41.5601 -14.8066 -41.4995C-14.6172 -41.4463 -14.419 -41.4312 -14.2248 -41.4601C-14.0298 -41.4891 -13.844 -41.5691 -13.6756 -41.6842C-13.5066 -41.792 -13.361 -41.949 -13.2447 -42.1251C-13.1291 -42.3012 -13.0468 -42.5032 -13.003 -42.7233C-12.9586 -42.9359 -12.9534 -43.1591 -12.9874 -43.3779C-13.0215 -43.5967 -13.0934 -43.8039 -13.2002 -43.985L-18.1858 -53.3161C-18.215 -53.3722 -18.2476 -53.4279 -18.2821 -53.4761C-17.1098 -55.2902 -15.7274 -57.1499 -14.1482 -59.0314L-11.4745 -51.5367C-11.3305 -51.1371 -11.0484 -50.8123 -10.6919 -50.644C-10.334 -50.4685 -9.93192 -50.4684 -9.57119 -50.6271C-9.2111 -50.7931 -8.92316 -51.107 -8.77031 -51.5098C-8.61812 -51.9125 -8.61354 -52.3655 -8.75884 -52.7724L-11.9054 -61.5725C-10.0473 -63.5813 -8.00811 -65.5731 -5.82256 -67.5292L-4.0946 -58.8094C-4.05663 -58.5984 -3.98071 -58.399 -3.87138 -58.2182C-3.76205 -58.0374 -3.62194 -57.8823 -3.45817 -57.7595C-3.2957 -57.6439 -3.11283 -57.5603 -2.92136 -57.5222C-2.73055 -57.4839 -2.53438 -57.4908 -2.34399 -57.5341C-2.15423 -57.5848 -1.97418 -57.6716 -1.81624 -57.8003C-1.65763 -57.9292 -1.5225 -58.0851 -1.41996 -58.2746C-1.31678 -58.4566 -1.24815 -58.6646 -1.21745 -58.8832C-1.18674 -59.1018 -1.194 -59.3161 -1.2398 -59.5337L-3.22686 -69.553C-3.2391 -69.6184 -3.25592 -69.6833 -3.276 -69.7479C-1.71873 -71.0482 -0.0902781 -72.3118 1.57405 -73.5497L4.05381 -66.6124C4.12254 -66.4122 4.22726 -66.2235 4.36085 -66.0676C4.49508 -65.9044 4.65559 -65.7812 4.83385 -65.6971C5.01208 -65.6055 5.20417 -65.56 5.39836 -65.5593C5.59318 -65.5512 5.78621 -65.5949 5.9669 -65.6742C6.14696 -65.761 6.31143 -65.883 6.45047 -66.0319C6.58823 -66.1882 6.69793 -66.371 6.77239 -66.5722C6.84686 -66.7734 6.88477 -66.9927 6.88344 -67.2152C6.88275 -67.4303 6.84284 -67.6484 6.76692 -67.8478L4.08025 -75.3707C5.71359 -76.5162 7.38795 -77.6068 9.08704 -78.6557L10.8637 -73.6809C10.935 -73.4811 11.0417 -73.2925 11.1753 -73.1441C11.3096 -72.9883 11.4701 -72.8652 11.6464 -72.7808C11.8233 -72.6965 12.0134 -72.6508 12.2057 -72.6498C12.3979 -72.6489 12.5889 -72.6848 12.7664 -72.7713C12.9451 -72.8504 13.1082 -72.965 13.2453 -73.1211C13.3824 -73.2699 13.4921 -73.4527 13.5679 -73.6466C13.643 -73.8478 13.6835 -74.06 13.6854 -74.2754C13.6873 -74.4908 13.6514 -74.7094 13.58 -74.9093L11.6827 -80.2121C12.7483 -80.8273 13.8165 -81.4352 14.8957 -82.0074C15.483 -82.3173 15.9618 -82.8378 16.2579 -83.4864C16.554 -84.1351 16.651 -84.8729 16.5327 -85.587C16.4138 -86.3084 16.0881 -86.9549 15.6043 -87.443C15.1212 -87.9237 14.5081 -88.2119 13.8616 -88.2665C5.37842 -88.9073 -3.47664 -89.366 -13.0813 -85.6235C-22.6735 -81.8825 -32.8105 -74.0077 -44.1372 -58.7147L-44.1477 -58.6987L-54.2736 -45.5792C-54.4659 -45.3279 -54.623 -45.0435 -54.7415 -44.7484ZM-47.8709 -43.8474L-39.7204 -54.4107C-39.7079 -54.4269 -39.6948 -54.4432 -39.6823 -54.4595C-28.8019 -69.1687 -19.5908 -76.1323 -11.1748 -79.4091C-6.47562 -81.2355 -1.94539 -81.8338 2.58622 -81.987C-4.72553 -77.0591 -11.4261 -71.3679 -16.7458 -65.4735C-24.3848 -57.0072 -29.6489 -48.3661 -29.0908 -40.051C-29.0463 -39.3881 -28.8232 -38.7524 -28.452 -38.2371C-22.3635 -29.7479 -10.177 -18.3653 0.834473 -8.58883C6.34086 -3.69322 11.5308 0.747736 15.4332 4.07735C17.3841 5.73847 19.0147 7.13092 20.1907 8.14332C20.779 8.64949 21.2551 9.07161 21.5877 9.36866C21.9203 9.66571 22.2143 9.99665 21.981 9.71828C24.9668 13.2607 27.2805 19.7418 27.4027 26.3615C27.449 28.894 27.1959 31.4151 26.6018 33.833L25.279 31.3751C25.1424 31.1157 24.9443 30.9002 24.706 30.7559C24.4678 30.6116 24.1992 30.5449 23.9298 30.5674C23.6604 30.5824 23.4005 30.6854 23.179 30.8583C22.9588 31.0385 22.7835 31.2731 22.6761 31.5521C22.5813 31.8 22.54 32.0643 22.5575 32.3295C22.5751 32.5947 22.6502 32.8535 22.7764 33.0844L25.2719 37.7125C24.3413 39.8263 23.0947 41.7897 21.4643 43.5136L18.32 34.8022C18.213 34.495 18.0255 34.2264 17.7821 34.0456C17.5381 33.8574 17.2501 33.7558 16.9552 33.7588C16.6603 33.7617 16.3723 33.8604 16.1292 34.0506C15.8854 34.2334 15.6983 34.4991 15.5928 34.815C15.4544 35.2087 15.4603 35.6532 15.6082 36.0449L19.1086 45.7408C17.6048 47.0723 16.0752 48.2953 14.5336 49.3712L13.1805 42.6578C13.1135 42.3016 12.947 41.9861 12.7051 41.7532C12.4625 41.5204 12.1583 41.376 11.8392 41.3594C11.5196 41.3355 11.2022 41.4301 10.9368 41.6375C10.6707 41.8377 10.4698 42.127 10.3656 42.465C10.2751 42.7644 10.2618 43.0849 10.3283 43.3892L11.8761 51.0828C10.1751 52.0948 8.48383 52.9277 6.82515 53.564L3.95533 45.6161C3.84898 45.3089 3.66145 45.0403 3.41874 44.8594C3.17474 44.6713 2.88669 44.5696 2.59245 44.5725C2.29758 44.5681 2.00957 44.6742 1.76646 44.8569C1.52334 45.0471 1.33557 45.3127 1.22876 45.6213C1.09161 46.0224 1.09754 46.4669 1.24549 46.8586L4.00111 54.4926L3.9972 54.493C2.06303 54.9818 0.236932 55.1767 -1.49023 55.0712L-3.99873 48.1221C-4.10573 47.8149 -4.29265 47.5536 -4.536 47.3654C-4.77935 47.1772 -5.0674 47.0755 -5.36229 47.0785C-5.65653 47.0814 -5.94452 47.1801 -6.18764 47.3703C-6.4314 47.5531 -6.61851 47.8187 -6.72597 48.1274C-6.86312 48.5284 -6.8572 48.9729 -6.70925 49.3646L-4.8942 54.3946C-6.63234 53.7858 -8.25103 52.7928 -9.74352 51.3406C-17.3572 43.9256 -17.743 27.9785 -8.15715 16.8852L-8.1552 16.8849C-5.35329 13.6363 -2.57895 10.8954 0.323963 9.1344C0.723512 8.8898 1.06711 8.54746 1.32724 8.1254C1.58866 7.71061 1.75937 7.23173 1.82685 6.72712C1.89369 6.22259 1.85594 5.70735 1.71546 5.21836C1.57561 4.73672 1.3369 4.29574 1.01887 3.93029C-13.3098 -12.3867 -29.8517 -28.2582 -47.8709 -43.8474ZM-34.4197 -55.7844C-34.5863 -54.8978 -34.0781 -54.0266 -33.2895 -53.8468C-32.5001 -53.6597 -31.7231 -54.228 -31.557 -55.122C-31.3917 -56.0084 -31.8979 -56.8798 -32.6879 -57.0595C-33.4791 -57.2463 -34.2569 -56.6779 -34.4197 -55.7844ZM-37.2298 -39.6466C-37.3951 -38.7602 -36.8876 -37.8889 -36.097 -37.7019C-35.3077 -37.5223 -34.5339 -38.0902 -34.3678 -38.9842C-34.2018 -39.8707 -34.7086 -40.742 -35.4986 -40.9216C-36.2886 -41.1087 -37.0644 -40.5331 -37.2298 -39.6466ZM1.08643 19.5787C0.93554 19.9812 0.932279 20.4342 1.07823 20.841C1.22355 21.2404 1.50638 21.5652 1.86355 21.7334C2.22072 21.9016 2.6235 21.9015 2.98358 21.7429C3.34236 21.577 3.62901 21.2559 3.78055 20.8532C3.93144 20.4507 3.9347 19.9978 3.78938 19.5984C3.64344 19.1916 3.36123 18.8741 3.00342 18.6985C2.64625 18.5303 2.24348 18.5305 1.88404 18.6964C1.5246 18.8624 1.23797 19.176 1.08643 19.5787ZM12.923 14.6097C12.7721 15.0122 12.7694 15.4651 12.9154 15.8718C13.0607 16.2713 13.3435 16.596 13.7007 16.7642C14.0572 16.9325 14.46 16.9324 14.8201 16.7739C15.1795 16.6079 15.4661 16.2868 15.617 15.8843C15.7679 15.4817 15.7712 15.0287 15.6259 14.6293C15.4799 14.2225 15.1977 13.9051 14.8405 13.7369C14.4827 13.5613 14.0806 13.5613 13.7212 13.7273C13.3618 13.8932 13.0745 14.207 12.923 14.6097ZM14.6302 25.758C14.4793 26.1606 14.4767 26.6135 14.6226 27.0203C14.768 27.4197 15.0508 27.7445 15.408 27.9127C15.7645 28.0809 16.1672 28.0809 16.5273 27.9223C16.8867 27.7563 17.1734 27.4351 17.3243 27.0326C17.4752 26.6301 17.4784 26.1771 17.3331 25.7777C17.1872 25.3709 16.905 25.0534 16.5478 24.8852C16.19 24.7097 15.7879 24.7098 15.4285 24.8757C15.069 25.0417 14.7817 25.3554 14.6302 25.758Z" fill="#E4E3C6"/>
<path d="M51.1491 142.455C49.5146 146.438 48.9538 148.974 46.2458 148.974C41.8873 148.974 39.9805 147.141 39.9805 143.541C39.9805 139.941 44.0826 133.4 46.7906 133.4C49.4986 133.4 53.3283 137.143 51.1491 142.455Z" fill="#E4E3C6"/>
<path d="M174.034 164.069C169.481 170.709 167.919 174.934 160.375 174.934C148.234 174.934 142.922 171.88 142.922 165.88C142.922 159.879 154.349 148.979 161.893 148.979C169.437 148.979 180.105 155.216 174.034 164.069Z" fill="#E4E3C6"/>
<path d="M126.78 1.06887C122.227 7.70863 120.665 11.9339 113.121 11.9339C100.98 11.9339 95.668 8.88032 95.668 2.87972C95.668 -3.12089 107.095 -14.0215 114.639 -14.0215C122.183 -14.0215 132.851 -7.78414 126.78 1.06887Z" fill="#E4E3C6"/>
<path d="M57.9949 20.218C56.594 23.4051 56.1133 25.4332 53.7921 25.4332C50.0563 25.4332 48.4219 23.9675 48.4219 21.0872C48.4219 18.2069 51.938 12.9746 54.2591 12.9746C56.5803 12.9746 59.8629 15.9685 57.9949 20.218Z" fill="#E4E3C6"/>
<path d="M139.547 44.6357C139.547 47.7504 138.225 48.2695 136.594 48.2695C134.963 48.2695 131.953 47.1617 131.953 45.1548C131.953 43.148 134.963 41.002 136.594 41.002C138.225 41.002 139.547 42.0402 139.547 44.6357Z" fill="#E4E3C6"/>
<path d="M157.266 8.29671C157.266 10.5215 156.384 10.8923 155.297 10.8923C154.21 10.8923 152.203 10.101 152.203 8.66751C152.203 7.23403 154.21 5.70117 155.297 5.70117C156.384 5.70117 157.266 6.44276 157.266 8.29671Z" fill="#E4E3C6"/>
<mask id="mask1_1_2" style="mask-type:alpha" maskUnits="userSpaceOnUse" x="-25" y="0" width="318" height="164">
<path d="M-24.1445 0.513672H292.267V163.514H-24.1445V0.513672Z" fill="#FFEBD5"/>
</mask>
<g mask="url(#mask1_1_2)">
<path d="M-26.7773 -6.75195H295.787V179.089H-26.7773V-6.75195Z" fill="#FFF2E5"/>
<path d="M109.791 141.752C147.072 187.505 111.229 203.748 88.6479 206.151C76.0482 209.113 68.4044 193.229 66.1578 184.916C59.0792 110.742 92.2959 125.237 109.791 141.752Z" fill="white" fill-opacity="0.5"/>
<path d="M109.997 152.638C109.521 151.194 108.601 150.869 107.943 151.912C107.284 152.955 107.136 154.971 107.611 156.415C108.087 157.859 109.007 158.184 109.665 157.141C110.324 156.098 110.472 154.082 109.997 152.638Z" fill="#FED2AA"/>
<path d="M82.8125 141.904L77.6483 195.684C78.3711 190.727 82.5281 181.283 88.9632 177.672C94.4897 174.573 96.2265 174.672 94.8159 174.965M94.8159 174.965C96.9652 174.518 101.26 173.891 102.329 178.838C103.4 183.778 100.817 186.515 99.3942 187.259C97.6549 188.155 93.8425 188.634 92.5127 183.374C91.1835 178.114 93.493 175.579 94.8159 174.965Z" stroke="#FFEBD5" stroke-width="10" stroke-linecap="round"/>
<path d="M276.622 140.91C288.984 201.028 252.787 191.139 233.143 178.681C221.528 173.02 221.619 155.52 223.116 147.478C247.203 83.9724 268.821 116.64 276.622 140.91Z" fill="white" fill-opacity="0.5"/>
<path d="M255.566 125.158L230.363 164.68C232.884 161.193 239.904 156.308 246.458 157.502C252.086 158.53 253.434 159.707 252.193 159.048M252.193 159.048C254.084 160.051 257.76 162.267 256.674 166.879C255.592 171.486 252.458 172.03 251.03 171.723C249.289 171.337 246.057 169.308 247.058 164.282C248.058 159.257 250.896 158.7 252.193 159.048Z" stroke="#FFEBD5" stroke-width="7" stroke-linecap="round"/>
<path d="M55.3568 142.459C54.1407 146.442 53.7234 148.978 51.7086 148.978C48.4656 148.978 47.0469 147.145 47.0469 143.545C47.0469 139.945 50.099 133.404 52.1139 133.404C54.1288 133.404 56.9783 137.147 55.3568 142.459Z" fill="#FED2AA"/>
<path d="M184.189 164.073C179.811 170.713 178.309 174.938 171.055 174.938C159.381 174.938 154.273 171.884 154.273 165.884C154.273 159.883 165.261 148.982 172.515 148.982C179.768 148.982 190.027 155.22 184.189 164.073Z" fill="#FED2AA"/>
<path d="M134.143 1.06887C129.887 7.70863 128.427 11.9339 121.374 11.9339C110.024 11.9339 105.059 8.88032 105.059 2.87972C105.059 -3.12089 115.741 -14.0215 122.793 -14.0215C129.845 -14.0215 139.819 -7.78414 134.143 1.06887Z" fill="#FED2AA"/>
<path d="M79.898 21.757C78.9251 24.9441 78.5913 26.9723 76.9793 26.9723C74.385 26.9723 73.25 25.5065 73.25 22.6262C73.25 19.746 75.6917 14.5137 77.3036 14.5137C78.9155 14.5137 81.1951 17.5076 79.898 21.757Z" fill="#FED2AA"/>
<path d="M148.125 44.6357C148.125 47.7504 147.207 48.2695 146.074 48.2695C144.942 48.2695 142.852 47.1617 142.852 45.1548C142.852 43.148 144.942 41.002 146.074 41.002C147.207 41.002 148.125 42.0402 148.125 44.6357Z" fill="#FED2AA"/>
<path d="M220.636 93.041C148.351 29.7273 206 -8.01131 243.86 -18.968C264.666 -27.7356 280.766 -4.107 286.215 8.80471C312.82 128.041 253.582 114.639 220.636 93.041Z" fill="white" fill-opacity="0.5"/>
<path d="M193.654 33.6737C194.917 35.7836 196.991 35.8247 198.286 33.7656C199.58 31.7064 199.606 28.3267 198.342 26.2168C197.079 24.1069 195.005 24.0658 193.71 26.125C192.416 28.1841 192.39 31.5639 193.654 33.6737Z" fill="#FED2AA"/>
<path d="M199.111 55.5487C200.374 57.6586 202.448 57.6997 203.743 55.6406C205.037 53.5814 205.063 50.2017 203.799 48.0918C202.536 45.9819 200.462 45.9408 199.167 48C197.873 50.0591 197.847 53.4388 199.111 55.5487Z" fill="#FED2AA"/>
<path d="M214.322 75.7207C215.585 77.8306 217.659 77.8717 218.954 75.8125C220.248 73.7533 220.274 70.3736 219.01 68.2637C217.747 66.1538 215.673 66.1127 214.378 68.1719C213.084 70.2311 213.058 73.6108 214.322 75.7207Z" fill="#FED2AA"/>
<path d="M261.754 85.0371L259.863 -4.6061C259.623 3.73434 254.495 20.4819 244.395 28.388C235.72 35.1742 232.783 35.5504 235.095 34.634M235.095 34.634C231.572 36.0318 224.48 38.3894 221.713 30.6221C218.944 22.8665 222.745 17.5857 224.989 15.9262C227.735 13.9197 234.045 11.9543 237.312 20.1538C240.578 28.3529 237.197 33.219 235.095 34.634Z" stroke="#FFEBD5" stroke-width="10" stroke-linecap="round"/>
</g>
</g>
<path d="M-18.2503 101.85C-59.9424 13.6445 3.05059 5.8858 39.7591 13.0307C60.8579 14.5261 66.9324 42.6052 67.3315 56.459C50.3385 173.846 3.19917 135.627 -18.2503 101.85Z" fill="white" fill-opacity="0.5"/>
<path d="M21.5274 113.587L49.5998 33.4012C46.6302 40.6755 36.6738 53.2049 25.372 55.6854C15.6667 57.8123 13.0173 56.8318 15.3085 57.0547M15.3085 57.0547C11.8172 56.7165 4.93959 55.6314 5.13412 47.5194C5.32321 39.417 10.3397 36.4427 12.8185 35.9776C15.8435 35.4296 21.9191 36.512 22.0113 45.2301C22.1028 53.9476 17.5839 56.7422 15.3085 57.0547Z" stroke="#FFEBD5" stroke-width="10" stroke-linecap="round"/>
</g>
<defs>
<clipPath id="clip0_1_2">
<rect width="264" height="164" fill="white"/>
</clipPath>
</defs>
</svg>
