<svg width="40" height="40" viewBox="0 0 40 40" fill="none" xmlns="http://www.w3.org/2000/svg">
<circle cx="20" cy="20" r="20" fill="#DDB5FD"/>
<path d="M30 20.0372C30 14.4932 25.5234 10 20 10C14.4766 10 10 14.4932 10 20.0372C10 24.7422 13.2305 28.6944 17.5859 29.7804V23.1033H15.5234V20.0372H17.5859V18.7159C17.5859 15.3009 19.125 13.7169 22.4688 13.7169C23.1016 13.7169 24.1953 13.8424 24.6445 13.9678V16.7438C24.4102 16.7203 24 16.7046 23.4883 16.7046C21.8477 16.7046 21.2148 17.328 21.2148 18.9473V20.0372H24.4805L23.918 23.1033H21.2109V30C26.1641 29.4001 30 25.1696 30 20.0372Z" fill="#6F219E"/>
</svg>
