<svg width="40" height="40" viewBox="0 0 40 40" fill="none" xmlns="http://www.w3.org/2000/svg">
<circle cx="20" cy="20" r="20" fill="#D8BCFD"/>
<g clip-path="url(#clip0_3924_37356)">
<path d="M10.9894 29.9288L10.1638 29.8932L14.2492 25.4804C16.4912 23.0534 18.3132 21.032 18.299 20.9822C18.2776 20.9395 16.5552 18.6192 14.4698 15.8221C12.3844 13.032 10.5552 10.5765 10.4058 10.3772L10.1282 10H13.2385H16.3417L19.0534 13.6299C20.541 15.6228 21.7794 17.2598 21.8079 17.2598C21.8364 17.2598 23.3595 15.6299 25.1958 13.637L28.541 10.0071H29.4164L30.299 10L29.4164 10.9466C22.7474 18.1352 22.5766 18.3203 22.6905 18.4911C22.7474 18.5765 24.6905 21.1815 26.9965 24.2705L31.2029 29.8932L28.1282 29.9288L25.0534 29.9644L22.1211 26.0498C20.5054 23.9004 19.1602 22.1352 19.1317 22.1352C19.0961 22.1352 17.6513 23.6726 15.9075 25.5516C14.1709 27.4306 12.541 29.1957 12.2848 29.4662L11.815 29.9644L10.9894 29.9288ZM28.5837 28.5267C28.541 28.4555 25.6513 24.5694 22.1495 19.8932L15.7865 11.3879L14.2776 11.3665C13.3239 11.3594 12.7687 11.3737 12.7901 11.4164C12.7972 11.4591 15.694 15.3452 19.2171 20.0641L25.6228 28.6406L27.1388 28.6477C28.5623 28.6477 28.6477 28.6406 28.5837 28.5267Z" fill="#6F219E"/>
</g>
<defs>
<clipPath id="clip0_3924_37356">
<rect width="21.3523" height="20" fill="white" transform="translate(10 10)"/>
</clipPath>
</defs>
</svg>
