<svg width="40" height="40" viewBox="0 0 40 40" fill="none" xmlns="http://www.w3.org/2000/svg">
<circle cx="20" cy="20" r="20" fill="#DDB5FD"/>
<path d="M27.357 12H13.074C10.2717 12 8 14.2717 8 17.074V24.214C8 27.0163 10.2717 29.288 13.074 29.288H27.357C30.1593 29.288 32.431 27.0163 32.431 24.214V17.074C32.431 14.2717 30.1593 12 27.357 12ZM23.9255 20.9914L17.2449 24.1777C17.0669 24.2626 16.8612 24.1328 16.8612 23.9356V17.3639C16.8612 17.1639 17.0723 17.0343 17.2507 17.1247L23.9313 20.5101C24.1299 20.6107 24.1265 20.8956 23.9255 20.9914Z" fill="#6F219E"/>
</svg>
